<svg xmlns="http://www.w3.org/2000/svg" xmlns:xlink="http://www.w3.org/1999/xlink" width="295" height="268" viewBox="0 0 295 268">
  <defs>
    <linearGradient id="linear-gradient" y1="0.5" x2="1" y2="0.5" gradientUnits="objectBoundingBox">
      <stop offset="0" stop-color="#444b8c"/>
      <stop offset="0.996" stop-color="#26264f"/>
    </linearGradient>
    <linearGradient id="linear-gradient-2" x1="0.137" y1="1.063" x2="1.21" y2="-0.878" gradientUnits="objectBoundingBox">
      <stop offset="0" stop-color="#86e386"/>
      <stop offset="0.004" stop-color="#54aa13"/>
      <stop offset="1" stop-color="#e5f2db"/>
    </linearGradient>
    <linearGradient id="linear-gradient-4" y1="0.5" x2="1" y2="0.5" gradientUnits="objectBoundingBox">
      <stop offset="0" stop-color="#54aa13"/>
      <stop offset="1" stop-color="#30610c"/>
    </linearGradient>
    <linearGradient id="linear-gradient-9" x1="0.796" y1="-0.223" x2="-0.064" y2="1.41" gradientUnits="objectBoundingBox">
      <stop offset="0" stop-color="#feeada"/>
      <stop offset="0.699" stop-color="#fccea9"/>
      <stop offset="1" stop-color="#6ed8f4"/>
    </linearGradient>
    <linearGradient id="linear-gradient-10" y1="0.5" x2="1" y2="0.5" gradientUnits="objectBoundingBox">
      <stop offset="0" stop-color="#feeada"/>
      <stop offset="0.996" stop-color="#f67409"/>
      <stop offset="1" stop-color="#6ed8f4"/>
    </linearGradient>
    <linearGradient id="linear-gradient-12" x1="0.329" y1="0.554" x2="-0.255" y2="0.738" gradientUnits="objectBoundingBox">
      <stop offset="0" stop-color="#fcb148"/>
      <stop offset="0.052" stop-color="#fdb946"/>
      <stop offset="0.142" stop-color="#fec144"/>
      <stop offset="0.318" stop-color="#ffc444"/>
      <stop offset="0.485" stop-color="#fdb946"/>
      <stop offset="0.775" stop-color="#f99c4c"/>
      <stop offset="0.866" stop-color="#f8924f"/>
      <stop offset="1" stop-color="#f8924f"/>
    </linearGradient>
    <linearGradient id="linear-gradient-13" x1="0.727" y1="0.007" x2="0.207" y2="1.135" gradientUnits="objectBoundingBox">
      <stop offset="0" stop-color="#ffdb44"/>
      <stop offset="1" stop-color="#feef06"/>
    </linearGradient>
    <linearGradient id="linear-gradient-14" x1="0.636" y1="1.231" x2="0.531" y2="0.666" xlink:href="#linear-gradient-12"/>
    <linearGradient id="linear-gradient-15" x1="0.409" y1="0.31" x2="0.858" y2="1.247" xlink:href="#linear-gradient-12"/>
    <linearGradient id="linear-gradient-16" x1="0.253" y1="0.019" x2="0.711" y2="1.039" xlink:href="#linear-gradient-13"/>
    <linearGradient id="linear-gradient-17" x1="0.464" y1="0.369" x2="1.215" y2="1.306" xlink:href="#linear-gradient-12"/>
    <linearGradient id="linear-gradient-18" x1="124.264" y1="-2.152" x2="124.444" y2="2.884" gradientUnits="objectBoundingBox">
      <stop offset="0" stop-color="#311944"/>
      <stop offset="1" stop-color="#a03976"/>
    </linearGradient>
    <linearGradient id="linear-gradient-19" x1="464.299" y1="1.445" x2="464.177" y2="-4.772" gradientUnits="objectBoundingBox">
      <stop offset="0" stop-color="#ffc444"/>
      <stop offset="0.996" stop-color="#f36f56"/>
    </linearGradient>
    <linearGradient id="linear-gradient-20" x1="207.532" y1="-1.328" x2="207.817" y2="1.624" xlink:href="#linear-gradient-18"/>
    <linearGradient id="linear-gradient-21" x1="345.35" y1="1.574" x2="345.264" y2="-2.809" xlink:href="#linear-gradient-19"/>
    <linearGradient id="linear-gradient-22" x1="71.486" y1="0.516" x2="72.488" y2="0.516" gradientUnits="objectBoundingBox">
      <stop offset="0" stop-color="#444b8c"/>
      <stop offset="0.996" stop-color="#3e4177"/>
    </linearGradient>
    <linearGradient id="linear-gradient-23" x1="76.647" y1="0.516" x2="77.721" y2="0.516" xlink:href="#linear-gradient-22"/>
    <linearGradient id="linear-gradient-24" x1="36.102" y1="0.517" x2="37.098" y2="0.517" xlink:href="#linear-gradient-22"/>
    <linearGradient id="linear-gradient-25" x1="0.5" y1="2.459" x2="0.5" y2="0.316" xlink:href="#linear-gradient-12"/>
    <linearGradient id="linear-gradient-26" x1="14.868" y1="1.099" x2="14.612" y2="4.328" xlink:href="#linear-gradient-19"/>
    <linearGradient id="linear-gradient-27" x1="342.486" y1="117.371" x2="341.736" y2="115.696" xlink:href="#linear-gradient-22"/>
    <linearGradient id="linear-gradient-28" x1="35.3" y1="-0.008" x2="35.798" y2="4.49" xlink:href="#linear-gradient-19"/>
    <linearGradient id="linear-gradient-29" x1="0" y1="0.5" x2="1" y2="0.5" xlink:href="#linear-gradient-19"/>
    <linearGradient id="linear-gradient-30" x1="0.5" y1="2.953" x2="0.5" y2="0.326" xlink:href="#linear-gradient-12"/>
    <linearGradient id="linear-gradient-31" x1="3.669" y1="0.5" x2="4.669" y2="0.5" xlink:href="#linear-gradient-19"/>
    <linearGradient id="linear-gradient-33" x1="-3.909" y1="2.252" x2="-2.909" y2="2.252" xlink:href="#linear-gradient"/>
    <linearGradient id="linear-gradient-34" x1="-127.894" y1="14.269" x2="-128.397" y2="13.725" xlink:href="#linear-gradient"/>
    <linearGradient id="linear-gradient-35" x1="-136.398" y1="14.254" x2="-135.674" y2="15.023" xlink:href="#linear-gradient"/>
    <linearGradient id="linear-gradient-36" x1="0.154" y1="-0.904" x2="2.181" y2="8.314" xlink:href="#linear-gradient-19"/>
    <linearGradient id="linear-gradient-37" x1="-615.095" y1="629.831" x2="-618.401" y2="638.011" xlink:href="#linear-gradient-19"/>
    <linearGradient id="linear-gradient-38" x1="0.329" y1="0.554" x2="-0.255" y2="0.738" xlink:href="#linear-gradient-12"/>
    <linearGradient id="linear-gradient-39" x1="0.727" y1="0.007" x2="0.207" y2="1.135" xlink:href="#linear-gradient-13"/>
    <linearGradient id="linear-gradient-40" x1="0.636" y1="1.231" x2="0.531" y2="0.666" xlink:href="#linear-gradient-12"/>
    <linearGradient id="linear-gradient-42" x1="0.253" y1="0.019" x2="0.711" y2="1.039" xlink:href="#linear-gradient-13"/>
    <linearGradient id="linear-gradient-43" x1="0.464" y1="0.369" x2="1.215" y2="1.306" xlink:href="#linear-gradient-12"/>
  </defs>
  <g id="Grupo_128257" data-name="Grupo 128257" transform="translate(-180 -2013)">
    <g id="Grupo_127254" data-name="Grupo 127254" transform="translate(-609.97 70.435)">
      <path id="Trazado_143055" data-name="Trazado 143055" d="M900.791,1942.586c-32.636.554-83.13,12.482-97.665,43.135-5.076,10.706-4.732,26.444-4.046,57.921a319.786,319.786,0,0,0,2.89,39.467c4.887,34.758,8.214,58.419,20.8,72.2,31.549,34.522,145.509,33.526,194.173-28.626,26.547-33.9,30.631-82.135,6.357-121.994C996.581,1960.8,944.483,1941.845,900.791,1942.586Z" transform="translate(35.666 0)" fill="#f4f7fa"/>
      <g id="Grupo_89692" data-name="Grupo 89692" transform="translate(834.358 1943.429)">
        <path id="Trazado_143056" data-name="Trazado 143056" d="M995.782,1966.915,820.963,1956.8c-4.026-.2-7.651,4.2-7.651,7.887V2189.8c0,5.116,5.227,6.146,9.254,5.735l173.216-17.69a6.575,6.575,0,0,0,5.719-6.47v-198.3A6.154,6.154,0,0,0,995.782,1966.915Z" transform="translate(-813.312 -1934.723)" fill="url(#linear-gradient)"/>
        <path id="Trazado_143057" data-name="Trazado 143057" d="M997.566,1965.238,822.4,1956.621c-4.026-.2-7.307,2.655-7.307,6.374v226.871c0,3.717,3.28,6.394,7.307,5.98l175.163-18.028a6.609,6.609,0,0,0,5.719-6.52V1971.45A6.184,6.184,0,0,0,997.566,1965.238Z" transform="translate(-812.221 -1934.835)" fill="#d8dee8"/>
        <path id="Trazado_143058" data-name="Trazado 143058" d="M821.126,2191.6a3.379,3.379,0,0,1-3.944-3.235V1961.976a3.6,3.6,0,0,1,3.944-3.448L996.29,1966.8a3.347,3.347,0,0,1,3.1,3.359v200.224a3.581,3.581,0,0,1-3.1,3.527Z" transform="translate(-810.944 -1933.665)" fill="url(#linear-gradient-2)"/>
        <path id="Trazado_143059" data-name="Trazado 143059" d="M978.168,2162.624l-149.819,14.435V1968.2l149.819,5.643Z" transform="translate(-804.112 -1927.746)" fill="#fff"/>
        <path id="Trazado_143060" data-name="Trazado 143060" d="M906.849,1980.781l-59.875.748,1.343-13.5a3.658,3.658,0,0,1,3.04-3.451l10.14-1.559a3.646,3.646,0,0,0,2.743-2.1l1.1-2.389,26.523,1.638Z" transform="translate(-792.716 -1933.665)" fill="#97a6b7" opacity="0.3" style="mix-blend-mode: multiply;isolation: isolate"/>
        <path id="Trazado_143061" data-name="Trazado 143061" d="M938.823,1981.456a3.2,3.2,0,0,0-3.05-2.669l-9.568-.429a7.682,7.682,0,0,1-7.366-8.191l.369-10.354a3.361,3.361,0,0,0-3.178-3.562l-3.145-.187a3.979,3.979,0,0,1-3.656-4.7,7.1,7.1,0,0,0-6.58-8.245,8.616,8.616,0,0,0-8.9,7.3,4.813,4.813,0,0,1-.664,1.844,4.922,4.922,0,0,1-4.413,2.355l-3.243-.193a4.3,4.3,0,0,0-4.329,3.2l-2.695,10.511a10.3,10.3,0,0,1-10.235,7.621l-10.495-.471a4.558,4.558,0,0,0-4.2,2.5l-6.325,12.548a1.452,1.452,0,0,0,1.249,2.176l91.014,3.022a1.69,1.69,0,0,0,1.659-1.947Zm-37.462-29.376a2.082,2.082,0,0,1-1.941-2.434,2.524,2.524,0,0,1,2.6-2.145,2.084,2.084,0,0,1,1.934,2.434A2.523,2.523,0,0,1,901.361,1952.081Z" transform="translate(-792.716 -1943.101)" fill="url(#linear-gradient)"/>
        <path id="Trazado_143062" data-name="Trazado 143062" d="M939.159,1981.63a3.206,3.206,0,0,0-3.051-2.669l-9.568-.429a7.683,7.683,0,0,1-7.366-8.191l.369-10.354a3.36,3.36,0,0,0-3.178-3.562l-3.143-.187a3.981,3.981,0,0,1-3.657-4.7,7.1,7.1,0,0,0-6.578-8.245,8.618,8.618,0,0,0-8.9,7.3,4.806,4.806,0,0,1-.664,1.846,4.926,4.926,0,0,1-4.412,2.355l-3.243-.2a4.3,4.3,0,0,0-4.329,3.2l-2.7,10.511a10.3,10.3,0,0,1-10.235,7.621l-10.495-.47a4.561,4.561,0,0,0-4.2,2.5l-6.325,12.548a1.453,1.453,0,0,0,1.249,2.176l91.016,3.024a1.69,1.69,0,0,0,1.657-1.947ZM901.7,1952.256a2.085,2.085,0,0,1-1.942-2.436,2.526,2.526,0,0,1,2.6-2.146,2.085,2.085,0,0,1,1.934,2.434A2.525,2.525,0,0,1,901.7,1952.256Z" transform="translate(-792.512 -1942.995)" fill="#97a6b7"/>
        <g id="Grupo_89688" data-name="Grupo 89688" transform="translate(54.796 16.549)">
          <path id="Trazado_143063" data-name="Trazado 143063" d="M923.582,1981.222c-8.119-5.013-14.349-1.459-19.408-7.112-5.416-6.051-1.763-14.018-7.368-17.777-3.588-2.407-6.789-.284-10.962-.935a11.513,11.513,0,0,1-4.853-2.031l-2.249,8.767a10.3,10.3,0,0,1-10.235,7.621l-10.495-.47a4.561,4.561,0,0,0-4.2,2.5l-6.325,12.548a1.453,1.453,0,0,0,1.249,2.176l82.715,2.748A24.679,24.679,0,0,0,923.582,1981.222Z" transform="translate(-847.308 -1953.368)" fill="#fff" opacity="0.5" style="mix-blend-mode: soft-light;isolation: isolate"/>
        </g>
        <g id="Grupo_89691" data-name="Grupo 89691" transform="translate(41.153 65.911)">
          <path id="Trazado_143064" data-name="Trazado 143064" d="M916.354,1991.334l-56.057-.615v-6.726l56.057.863Z" transform="translate(-825.719 -1983.993)" fill="#97a6b7"/>
          <g id="Grupo_89690" data-name="Grupo 89690" transform="translate(0 19.292)">
            <g id="Grupo_89689" data-name="Grupo 89689" transform="translate(27.268 0.33)">
              <path id="Trazado_143065" data-name="Trazado 143065" d="M862.628,2056.452l-6.866.255v-60.54l6.866.017Z" transform="translate(-855.761 -1996.166)" fill="url(#linear-gradient-4)"/>
              <path id="Trazado_143066" data-name="Trazado 143066" d="M870.711,2048.853l-6.748.25v-41.246l6.748-.067Z" transform="translate(-850.743 -1989.054)" fill="url(#linear-gradient-4)"/>
              <path id="Trazado_143067" data-name="Trazado 143067" d="M878.657,2052.5l-6.634.246v-51.666l6.634-.018Z" transform="translate(-845.811 -1993.174)" fill="url(#linear-gradient-4)"/>
              <path id="Trazado_143068" data-name="Trazado 143068" d="M886.469,2048.093l-6.521.242v-40.787l6.521-.064Z" transform="translate(-840.963 -1989.242)" fill="url(#linear-gradient-4)"/>
              <path id="Trazado_143069" data-name="Trazado 143069" d="M894.15,2043.491l-6.412.238v-29.37l6.412-.111Z" transform="translate(-836.196 -1985.103)" fill="url(#linear-gradient-4)"/>
              <path id="Trazado_143070" data-name="Trazado 143070" d="M901.7,2054.041l-6.306.234v-58.01l6.306.016Z" transform="translate(-831.51 -1996.106)" fill="#d8dee8"/>
              <path id="Trazado_143071" data-name="Trazado 143071" d="M909.133,2038.364l-6.2.23v-17.282l6.2-.156Z" transform="translate(-826.901 -1980.877)" fill="#d8dee8"/>
              <path id="Trazado_143072" data-name="Trazado 143072" d="M916.441,2048.865l-6.1.226v-45.785l6.1-.033Z" transform="translate(-822.367 -1991.818)" fill="#d8dee8"/>
            </g>
            <path id="Trazado_143073" data-name="Trazado 143073" d="M959.619,2049.048l-119.849,6.507v-6.323l119.849-6.019Z" transform="translate(-838.278 -1967.052)" fill="#d8dee8"/>
            <path id="Trazado_143074" data-name="Trazado 143074" d="M959.619,2042.123,839.769,2047.7v-6.323l119.849-5.087Z" transform="translate(-838.278 -1971.289)" fill="#d8dee8"/>
            <path id="Trazado_143075" data-name="Trazado 143075" d="M959.619,2077.063l-119.849,10.28v-6.322l119.849-9.792Z" transform="translate(-838.278 -1949.91)" fill="#d8dee8"/>
            <path id="Trazado_143076" data-name="Trazado 143076" d="M886.293,2054.673v24.008l-47.449,3.6v-24.763Z" transform="translate(-838.844 -1960.04)" fill="#d8dee8" opacity="0.5"/>
            <path id="Trazado_143077" data-name="Trazado 143077" d="M838.844,2070.2V2080.5l47.449-3.6v-18.6c-2.711-.862-5.974-1.227-8.462.558-5.218,3.741-4.552,5.67-9.993,5.046-4.26-.49-9-.89-12.658,2.205-2.266,1.918-3.432,3.893-6.7,3.832C845.406,2069.882,841.823,2067.967,838.844,2070.2Z" transform="translate(-838.844 -1958.26)" fill="#d8dee8"/>
            <path id="Trazado_143078" data-name="Trazado 143078" d="M937.946,2056.235l-62.754,3.955v-4.5l62.754-3.766Z" transform="translate(-816.605 -1961.723)" fill="#d8dee8"/>
            <path id="Trazado_143079" data-name="Trazado 143079" d="M937.946,2061.8l-62.754,4.354v-4.236l62.754-4.177Z" transform="translate(-816.605 -1958.16)" fill="#d8dee8"/>
            <path id="Trazado_143080" data-name="Trazado 143080" d="M937.946,2067.724l-62.754,4.765v-4.5l62.754-4.576Z" transform="translate(-816.605 -1954.693)" fill="#d8dee8"/>
            <path id="Trazado_143081" data-name="Trazado 143081" d="M854.485,2001.7l-14.905.013v-5.754l14.905.042Z" transform="translate(-838.394 -1995.962)" fill="#d8dee8"/>
            <path id="Trazado_143082" data-name="Trazado 143082" d="M854.485,2010.422l-14.905.15v-5.754l14.905-.095Z" transform="translate(-838.394 -1990.602)" fill="#d8dee8"/>
            <path id="Trazado_143083" data-name="Trazado 143083" d="M854.485,2018.948l-14.905.283v-5.754l14.905-.228Z" transform="translate(-838.394 -1985.384)" fill="#d8dee8"/>
            <path id="Trazado_143084" data-name="Trazado 143084" d="M854.485,2027.684l-14.905.419v-5.754l14.905-.365Z" transform="translate(-838.394 -1980.04)" fill="#d8dee8"/>
            <path id="Trazado_143085" data-name="Trazado 143085" d="M854.485,2036.211l-14.905.553v-5.754l14.905-.5Z" transform="translate(-838.394 -1974.823)" fill="#d8dee8"/>
          </g>
        </g>
      </g>
      <g id="Grupo_89709" data-name="Grupo 89709" transform="translate(997.823 2095.77)">
        <path id="Trazado_143086" data-name="Trazado 143086" d="M979.929,2045.3l-.256,86.208a8.771,8.771,0,0,1-7.713,8.51l-63.026,6.452c-4.853.5-8.827-2.859-8.827-7.408v-92.792a8.59,8.59,0,0,1,8-8.291c.285-.027.577-.037.869-.039l63.258-.3A7.613,7.613,0,0,1,979.929,2045.3Z" transform="translate(-900.107 -2037.599)" fill="#f67409"/>
        <path id="Trazado_143087" data-name="Trazado 143087" d="M982.507,2045.252l-.264,85.943a8.557,8.557,0,0,1-7.489,8.462l-62.594,6.408c-4.821.493-8.964-2.832-8.964-7.366l.013-92.483c0-4.292,3.6-7.835,8.041-8.264.284-.027.671-.037.961-.039l62.828-.3A7.426,7.426,0,0,1,982.507,2045.252Z" transform="translate(-898.217 -2037.615)" fill="url(#linear-gradient-9)"/>
        <g id="Grupo_89693" data-name="Grupo 89693" transform="translate(4.989)" opacity="0.3" style="mix-blend-mode: multiply;isolation: isolate">
          <path id="Trazado_143088" data-name="Trazado 143088" d="M982.5,2045.131l-.066,21.6-79.235,2.6,0-23.248c0-4.189,3.435-7.6,7.727-8.161a10.864,10.864,0,0,1,1.275-.01l62.828-.3A7.324,7.324,0,0,1,982.5,2045.131Z" transform="translate(-903.202 -2037.615)" fill="url(#linear-gradient-10)"/>
          <path id="Trazado_143089" data-name="Trazado 143089" d="M982.456,2052.607l-.027,8.974c-7.687,2.432-21.834,4.4-38.068,5.024-7.169.276-14.1.266-20.364.006a133.684,133.684,0,0,1-20.794-2.249l0-9.66c2.034-.5,3.905-.966,6.125-1.4,4.824-.953,10.633-1.755,16.981-2.345,5.67-.53,11.824-.888,18.172-1.033,8.169-.188,15.753,0,22.271.474.508.035,1.014.076,1.507.116,1.559.127,3.056.272,4.479.434q.757.085,1.484.177c1.117.142,2.076.294,3.092.455C979.263,2051.885,980.989,2052.228,982.456,2052.607Z" transform="translate(-903.202 -2030.13)" fill="url(#linear-gradient-10)"/>
        </g>
        <path id="Trazado_143090" data-name="Trazado 143090" d="M976.569,2059.245a2.423,2.423,0,0,1-2.339,2.4l-65.028,1.989a2.474,2.474,0,0,1-2.643-2.4l.006-15.53a2.608,2.608,0,0,1,2.645-2.518l65.075-.79a2.286,2.286,0,0,1,2.326,2.3Z" transform="translate(-896.159 -2034.692)" fill="#fff"/>
        <path id="Trazado_143091" data-name="Trazado 143091" d="M974.836,2058.735a1.533,1.533,0,0,1-1.481,1.513l-64.709,1.907a1.565,1.565,0,0,1-1.668-1.518l0-15.459a1.65,1.65,0,0,1,1.672-1.589l64.751-.824a1.447,1.447,0,0,1,1.472,1.454Z" transform="translate(-895.904 -2034.464)" fill="#fff"/>
        <g id="Grupo_89699" data-name="Grupo 89699" transform="translate(68.461 10.131)">
          <g id="Grupo_89696" data-name="Grupo 89696" transform="translate(0 1.744)">
            <g id="Grupo_89694" data-name="Grupo 89694" transform="translate(0.016)">
              <path id="Trazado_143092" data-name="Trazado 143092" d="M944.1,2048.727a.692.692,0,0,1-.738.674h-.034a.66.66,0,0,1-.737-.643l.006-3a.731.731,0,0,1,.741-.716h.034a.694.694,0,0,1,.735.69Z" transform="translate(-942.591 -2044.943)" fill="#f67409"/>
              <path id="Trazado_143093" data-name="Trazado 143093" d="M947.815,2048.66a.7.7,0,0,1-.732.682h-.034a.662.662,0,0,1-.727-.653l.008-2.989a.729.729,0,0,1,.732-.719h.034a.693.693,0,0,1,.727.695Z" transform="translate(-940.308 -2044.982)" fill="#f67409"/>
            </g>
            <g id="Grupo_89695" data-name="Grupo 89695" transform="translate(0 6.228)">
              <path id="Trazado_143094" data-name="Trazado 143094" d="M944.09,2052.949a.819.819,0,0,1-.738.815h-.036a.769.769,0,0,1-.735-.777l.006-3.083a.813.813,0,0,1,.74-.808h.035a.766.766,0,0,1,.735.774Z" transform="translate(-942.581 -2048.692)" fill="#f67409"/>
              <path id="Trazado_143095" data-name="Trazado 143095" d="M947.8,2052.984c0,.4-.329.527-.732.845h-.034a.8.8,0,0,1-.727-.809l.008-3.217c0-.4.329-.951.732-.958h.034c.4-.006.727.522.727.922Z" transform="translate(-940.299 -2048.846)" fill="#f67409"/>
            </g>
          </g>
          <g id="Grupo_89698" data-name="Grupo 89698" transform="translate(1.66)">
            <path id="Trazado_143096" data-name="Trazado 143096" d="M947.886,2048.519a.769.769,0,0,1-.753.745l-2.806.066c-.406.008-.506-.311-.506-.714v-.032c0-.4.094-.735.5-.745l2.937-.063a.629.629,0,0,1,.629.709Z" transform="translate(-943.483 -2041.529)" fill="#f67409" opacity="0.3"/>
            <g id="Grupo_89697" data-name="Grupo 89697">
              <path id="Trazado_143097" data-name="Trazado 143097" d="M947.886,2044.648a.757.757,0,0,1-.743.741l-2.813.047c-.406.007-.509-.314-.509-.717v-.034c0-.4.1-.733.508-.738l2.933-.047a.633.633,0,0,1,.624.716Z" transform="translate(-943.483 -2043.9)" fill="#f67409"/>
              <path id="Trazado_143098" data-name="Trazado 143098" d="M948.015,2052.572a.781.781,0,0,1-.761.748l-2.972.085a.657.657,0,0,1-.67-.709v-.034a.693.693,0,0,1,.661-.746l3.026-.083a.692.692,0,0,1,.717.7Z" transform="translate(-943.611 -2039.046)" fill="#f67409"/>
            </g>
          </g>
        </g>
        <path id="Trazado_143099" data-name="Trazado 143099" d="M949.214,2136.6a17.471,17.471,0,0,1-1.317,4.268c-.226.489-.482,1-.762,1.521l-34.975,3.581c-4.821.494-8.964-2.832-8.964-7.366l.013-92.615c0-4.189,3.435-7.671,7.727-8.23.1.029.26.061.364.094,4.515,1.365,9.432,3.912,12.369,8.677a20.063,20.063,0,0,1,2.679,11.813,33.618,33.618,0,0,1-.456,4.112c-.147.843-.292,1.706-.44,2.584-.184,1.1-.366,2.221-.543,3.362-.282,1.827-.542,3.7-.751,5.6-.2,1.815-.351,3.649-.427,5.479-.014.353-.027.708-.035,1.061-.029,1.145-.026,2.282.016,3.411q.041,1.16.14,2.3a28.8,28.8,0,0,0,3.4,11.882,23.206,23.206,0,0,0,6.226,6.57c.635.494,1.277.977,1.917,1.459a51.31,51.31,0,0,1,6.133,5.29l.135.144a29.562,29.562,0,0,1,2.514,3,22.049,22.049,0,0,1,2.182,3.738q.351.752.646,1.53c.343.888.638,1.8.9,2.733q.174.627.337,1.272a.444.444,0,0,1,.013.05,44.131,44.131,0,0,1,1.043,5.294A24.535,24.535,0,0,1,949.214,2136.6Z" transform="translate(-898.217 -2037.524)" fill="#fff" opacity="0.3" style="mix-blend-mode: soft-light;isolation: isolate"/>
        <g id="Grupo_89708" data-name="Grupo 89708" transform="translate(10.375 39.327)">
          <g id="Grupo_89703" data-name="Grupo 89703" transform="translate(0 0.024)" style="mix-blend-mode: multiply;isolation: isolate">
            <g id="Grupo_89700" data-name="Grupo 89700" transform="translate(0.018)">
              <path id="Trazado_143100" data-name="Trazado 143100" d="M921.811,2069.2a1.8,1.8,0,0,1-1.739,1.733l-11.736.579a1.629,1.629,0,0,1-1.781-1.583l0-4.212a1.822,1.822,0,0,1,1.783-1.746l11.739-.5a1.611,1.611,0,0,1,1.738,1.575Z" transform="translate(-906.555 -2061.149)" fill="#f67409"/>
              <path id="Trazado_143101" data-name="Trazado 143101" d="M933.378,2068.6a1.753,1.753,0,0,1-1.681,1.7l-11.33.56a1.584,1.584,0,0,1-1.718-1.557l0-4.138a1.776,1.776,0,0,1,1.723-1.715l11.333-.48a1.563,1.563,0,0,1,1.676,1.547Z" transform="translate(-899.155 -2061.455)" fill="#f67409"/>
              <path id="Trazado_143102" data-name="Trazado 143102" d="M944.183,2068.04a1.711,1.711,0,0,1-1.628,1.671l-10.959.54a1.543,1.543,0,0,1-1.66-1.531l.006-4.07a1.731,1.731,0,0,1,1.667-1.684l10.962-.466a1.524,1.524,0,0,1,1.62,1.525Z" transform="translate(-892.25 -2061.742)" fill="#f67409"/>
              <path id="Trazado_143103" data-name="Trazado 143103" d="M955,2067.479a1.672,1.672,0,0,1-1.575,1.644l-10.593.521a1.5,1.5,0,0,1-1.6-1.505l.01-4a1.688,1.688,0,0,1,1.612-1.654l10.595-.451a1.485,1.485,0,0,1,1.567,1.5Z" transform="translate(-885.34 -2062.029)" fill="#f67409"/>
            </g>
            <g id="Grupo_89701" data-name="Grupo 89701" transform="translate(0.013 12.702)">
              <path id="Trazado_143104" data-name="Trazado 143104" d="M921.8,2077.463a1.827,1.827,0,0,1-1.739,1.752l-11.729.721a1.605,1.605,0,0,1-1.781-1.559l0-4.208a1.848,1.848,0,0,1,1.783-1.765l11.733-.642a1.583,1.583,0,0,1,1.736,1.55Z" transform="translate(-906.552 -2068.778)" fill="#f67409"/>
              <path id="Trazado_143105" data-name="Trazado 143105" d="M933.363,2076.722a1.779,1.779,0,0,1-1.681,1.719l-11.325.7a1.561,1.561,0,0,1-1.717-1.535l0-4.133a1.8,1.8,0,0,1,1.721-1.734l11.328-.619a1.54,1.54,0,0,1,1.676,1.525Z" transform="translate(-899.156 -2069.173)" fill="#f67409"/>
              <path id="Trazado_143106" data-name="Trazado 143106" d="M944.163,2076.03a1.737,1.737,0,0,1-1.628,1.689l-10.952.674a1.52,1.52,0,0,1-1.66-1.51l.007-4.065a1.755,1.755,0,0,1,1.667-1.7l10.956-.6a1.5,1.5,0,0,1,1.62,1.5Z" transform="translate(-892.253 -2069.541)" fill="#f67409"/>
              <path id="Trazado_143107" data-name="Trazado 143107" d="M954.976,2075.334A1.7,1.7,0,0,1,953.4,2077l-10.587.649a1.479,1.479,0,0,1-1.6-1.486l.01-4a1.712,1.712,0,0,1,1.612-1.673l10.59-.579a1.462,1.462,0,0,1,1.565,1.478Z" transform="translate(-885.346 -2069.91)" fill="#f67409"/>
            </g>
            <g id="Grupo_89702" data-name="Grupo 89702" transform="translate(0.008 25.094)">
              <path id="Trazado_143108" data-name="Trazado 143108" d="M921.792,2085.528a1.852,1.852,0,0,1-1.739,1.771l-11.725.861a1.583,1.583,0,0,1-1.779-1.536l0-4.2a1.874,1.874,0,0,1,1.781-1.786l11.728-.78a1.562,1.562,0,0,1,1.736,1.528Z" transform="translate(-906.549 -2076.221)" fill="#f67409"/>
              <path id="Trazado_143109" data-name="Trazado 143109" d="M933.347,2084.647a1.8,1.8,0,0,1-1.68,1.739l-11.32.83a1.539,1.539,0,0,1-1.717-1.512l0-4.131a1.826,1.826,0,0,1,1.72-1.752l11.323-.753a1.518,1.518,0,0,1,1.675,1.5Z" transform="translate(-899.157 -2076.701)" fill="#f67409"/>
              <path id="Trazado_143110" data-name="Trazado 143110" d="M944.142,2083.825a1.761,1.761,0,0,1-1.626,1.707l-10.948.8a1.5,1.5,0,0,1-1.66-1.488l.008-4.062a1.78,1.78,0,0,1,1.665-1.722l10.951-.728a1.481,1.481,0,0,1,1.62,1.481Z" transform="translate(-892.257 -2077.149)" fill="#f67409"/>
              <path id="Trazado_143111" data-name="Trazado 143111" d="M954.951,2083a1.716,1.716,0,0,1-1.573,1.677l-10.583.776a1.458,1.458,0,0,1-1.6-1.465l.01-3.994a1.737,1.737,0,0,1,1.61-1.69l10.587-.7a1.444,1.444,0,0,1,1.565,1.458Z" transform="translate(-885.353 -2077.598)" fill="#f67409"/>
            </g>
            <path id="Trazado_143112" data-name="Trazado 143112" d="M921.781,2093.394a1.875,1.875,0,0,1-1.738,1.789l-11.718,1a1.561,1.561,0,0,1-1.778-1.515v-4.2a1.9,1.9,0,0,1,1.781-1.8l11.721-.916a1.541,1.541,0,0,1,1.736,1.507Z" transform="translate(-906.542 -2046.299)" fill="#f67409"/>
            <path id="Trazado_143113" data-name="Trazado 143113" d="M933.333,2092.378a1.831,1.831,0,0,1-1.68,1.757l-11.315.96a1.516,1.516,0,0,1-1.715-1.491l0-4.126a1.847,1.847,0,0,1,1.72-1.77l11.317-.885a1.5,1.5,0,0,1,1.675,1.484Z" transform="translate(-899.154 -2046.863)" fill="#f67409"/>
            <path id="Trazado_143114" data-name="Trazado 143114" d="M944.123,2091.429a1.789,1.789,0,0,1-1.626,1.727l-10.943.928a1.477,1.477,0,0,1-1.659-1.469l.006-4.057a1.8,1.8,0,0,1,1.665-1.739l10.946-.856a1.459,1.459,0,0,1,1.618,1.462Z" transform="translate(-892.257 -2047.389)" fill="#f67409"/>
            <path id="Trazado_143115" data-name="Trazado 143115" d="M921.771,2101.827a1.907,1.907,0,0,1-1.738,1.809l-11.712,1.14a1.535,1.535,0,0,1-1.778-1.49l0-4.2a1.927,1.927,0,0,1,1.779-1.825l11.715-1.061a1.517,1.517,0,0,1,1.734,1.484Z" transform="translate(-906.544 -2041.124)" fill="#f67409"/>
            <path id="Trazado_143116" data-name="Trazado 143116" d="M933.317,2100.667a1.857,1.857,0,0,1-1.68,1.774l-11.309,1.1a1.494,1.494,0,0,1-1.715-1.467l0-4.123a1.877,1.877,0,0,1,1.718-1.791l11.312-1.023a1.477,1.477,0,0,1,1.675,1.46Z" transform="translate(-899.159 -2041.776)" fill="#f67409"/>
            <path id="Trazado_143117" data-name="Trazado 143117" d="M944.1,2099.582a1.812,1.812,0,0,1-1.625,1.744l-10.938,1.064a1.454,1.454,0,0,1-1.657-1.446l.006-4.053a1.832,1.832,0,0,1,1.663-1.759l10.941-.99a1.437,1.437,0,0,1,1.618,1.44Z" transform="translate(-892.266 -2042.386)" fill="#f67409"/>
            <path id="Trazado_143118" data-name="Trazado 143118" d="M953.333,2085.1l-10.582.827a1.954,1.954,0,0,0-1.555,1.944l-.006,2.247,0,1.876-.021,8.472-.006,2.492,0,1.628a1.485,1.485,0,0,0,1.546,1.57l10.575-1.03a1.963,1.963,0,0,0,1.625-1.855l0-1.607.008-2.459.024-8.361,0-1.852.007-2.22A1.655,1.655,0,0,0,953.333,2085.1Z" transform="translate(-885.368 -2047.913)" fill="#f67409"/>
          </g>
          <g id="Grupo_89707" data-name="Grupo 89707" transform="translate(0.671)">
            <g id="Grupo_89704" data-name="Grupo 89704" transform="translate(0.019)">
              <path id="Trazado_143119" data-name="Trazado 143119" d="M922.21,2069.178a1.8,1.8,0,0,1-1.738,1.731l-11.721.577a1.628,1.628,0,0,1-1.78-1.581l0-4.208a1.82,1.82,0,0,1,1.781-1.746l11.724-.5a1.608,1.608,0,0,1,1.734,1.573Z" transform="translate(-906.972 -2061.135)" fill="#f67409"/>
              <path id="Trazado_143120" data-name="Trazado 143120" d="M933.378,2068.6a1.753,1.753,0,0,1-1.681,1.7l-11.33.56a1.584,1.584,0,0,1-1.718-1.557l0-4.138a1.776,1.776,0,0,1,1.723-1.715l11.333-.48a1.563,1.563,0,0,1,1.676,1.547Z" transform="translate(-899.828 -2061.431)" fill="#f67409"/>
              <path id="Trazado_143121" data-name="Trazado 143121" d="M944.556,2068.021a1.712,1.712,0,0,1-1.626,1.671l-10.946.539a1.541,1.541,0,0,1-1.659-1.53l.008-4.068A1.729,1.729,0,0,1,932,2062.95l10.948-.466a1.522,1.522,0,0,1,1.618,1.523Z" transform="translate(-892.684 -2061.728)" fill="#f67409"/>
              <path id="Trazado_143122" data-name="Trazado 143122" d="M955.361,2067.461a1.666,1.666,0,0,1-1.573,1.64l-10.58.523a1.5,1.5,0,0,1-1.6-1.506l.01-4a1.685,1.685,0,0,1,1.609-1.654l10.583-.45a1.482,1.482,0,0,1,1.563,1.5Z" transform="translate(-885.781 -2062.014)" fill="#f67409"/>
            </g>
            <g id="Grupo_89705" data-name="Grupo 89705" transform="translate(0.014 12.694)">
              <path id="Trazado_143123" data-name="Trazado 143123" d="M922.2,2077.438a1.825,1.825,0,0,1-1.738,1.75l-11.715.72a1.6,1.6,0,0,1-1.778-1.558v-4.206a1.847,1.847,0,0,1,1.78-1.765l11.718-.64a1.584,1.584,0,0,1,1.736,1.549Z" transform="translate(-906.969 -2068.759)" fill="#f67409"/>
              <path id="Trazado_143124" data-name="Trazado 143124" d="M933.363,2076.722a1.779,1.779,0,0,1-1.681,1.719l-11.325.7a1.561,1.561,0,0,1-1.717-1.535l0-4.133a1.8,1.8,0,0,1,1.721-1.734l11.328-.619a1.54,1.54,0,0,1,1.676,1.525Z" transform="translate(-899.828 -2069.141)" fill="#f67409"/>
              <path id="Trazado_143125" data-name="Trazado 143125" d="M944.534,2076.005a1.735,1.735,0,0,1-1.625,1.689l-10.94.672a1.518,1.518,0,0,1-1.659-1.509l.008-4.063a1.752,1.752,0,0,1,1.663-1.7l10.943-.6a1.5,1.5,0,0,1,1.618,1.5Z" transform="translate(-892.687 -2069.522)" fill="#f67409"/>
              <path id="Trazado_143126" data-name="Trazado 143126" d="M955.336,2075.311a1.693,1.693,0,0,1-1.573,1.66l-10.575.65a1.477,1.477,0,0,1-1.6-1.485l.01-3.994a1.711,1.711,0,0,1,1.609-1.673l10.578-.577a1.46,1.46,0,0,1,1.564,1.476Z" transform="translate(-885.788 -2069.89)" fill="#f67409"/>
            </g>
            <g id="Grupo_89706" data-name="Grupo 89706" transform="translate(0.01 25.08)">
              <path id="Trazado_143127" data-name="Trazado 143127" d="M922.19,2085.5a1.851,1.851,0,0,1-1.738,1.77l-11.708.86a1.582,1.582,0,0,1-1.778-1.535l0-4.2a1.871,1.871,0,0,1,1.779-1.784l11.712-.78a1.561,1.561,0,0,1,1.734,1.528Z" transform="translate(-906.966 -2076.199)" fill="#f67409"/>
              <path id="Trazado_143128" data-name="Trazado 143128" d="M933.347,2084.647a1.8,1.8,0,0,1-1.68,1.739l-11.32.83a1.539,1.539,0,0,1-1.717-1.512l0-4.131a1.826,1.826,0,0,1,1.72-1.752l11.323-.753a1.518,1.518,0,0,1,1.675,1.5Z" transform="translate(-899.829 -2076.662)" fill="#f67409"/>
              <path id="Trazado_143129" data-name="Trazado 143129" d="M944.515,2083.8a1.763,1.763,0,0,1-1.625,1.707l-10.936.8a1.5,1.5,0,0,1-1.657-1.488l.008-4.059a1.779,1.779,0,0,1,1.662-1.721l10.939-.727a1.477,1.477,0,0,1,1.617,1.48Z" transform="translate(-892.691 -2077.125)" fill="#f67409"/>
              <path id="Trazado_143130" data-name="Trazado 143130" d="M955.312,2082.974a1.717,1.717,0,0,1-1.573,1.676l-10.57.775a1.456,1.456,0,0,1-1.6-1.464l.01-3.991a1.737,1.737,0,0,1,1.609-1.691l10.574-.7a1.442,1.442,0,0,1,1.563,1.459Z" transform="translate(-885.795 -2077.574)" fill="#f67409"/>
            </g>
            <path id="Trazado_143131" data-name="Trazado 143131" d="M922.18,2093.358a1.878,1.878,0,0,1-1.736,1.789l-11.705.993a1.558,1.558,0,0,1-1.776-1.512v-4.2a1.9,1.9,0,0,1,1.778-1.8l11.708-.916a1.54,1.54,0,0,1,1.733,1.507Z" transform="translate(-906.958 -2046.294)" fill="#f67409"/>
            <path id="Trazado_143132" data-name="Trazado 143132" d="M933.333,2092.378a1.831,1.831,0,0,1-1.68,1.757l-11.315.96a1.516,1.516,0,0,1-1.715-1.491l0-4.126a1.847,1.847,0,0,1,1.72-1.77l11.317-.885a1.5,1.5,0,0,1,1.675,1.484Z" transform="translate(-899.824 -2046.838)" fill="#f67409"/>
            <path id="Trazado_143133" data-name="Trazado 143133" d="M944.494,2091.4a1.783,1.783,0,0,1-1.623,1.723l-10.932.929a1.475,1.475,0,0,1-1.655-1.467l.006-4.055a1.8,1.8,0,0,1,1.662-1.739l10.935-.854a1.46,1.46,0,0,1,1.617,1.462Z" transform="translate(-892.69 -2047.382)" fill="#f67409"/>
            <path id="Trazado_143134" data-name="Trazado 143134" d="M922.169,2101.787a1.906,1.906,0,0,1-1.736,1.809l-11.7,1.138a1.535,1.535,0,0,1-1.775-1.489l0-4.192a1.926,1.926,0,0,1,1.778-1.825l11.7-1.059a1.515,1.515,0,0,1,1.733,1.483Z" transform="translate(-906.96 -2041.122)" fill="#f67409"/>
            <path id="Trazado_143135" data-name="Trazado 143135" d="M933.317,2100.667a1.857,1.857,0,0,1-1.68,1.774l-11.309,1.1a1.494,1.494,0,0,1-1.715-1.467l0-4.123a1.877,1.877,0,0,1,1.718-1.791l11.312-1.023a1.477,1.477,0,0,1,1.675,1.46Z" transform="translate(-899.83 -2041.752)" fill="#f67409"/>
            <path id="Trazado_143136" data-name="Trazado 143136" d="M944.474,2099.545a1.812,1.812,0,0,1-1.625,1.742l-10.925,1.062a1.452,1.452,0,0,1-1.655-1.444l.006-4.052a1.831,1.831,0,0,1,1.662-1.757l10.928-.99a1.436,1.436,0,0,1,1.617,1.439Z" transform="translate(-892.699 -2042.382)" fill="#f67409"/>
            <path id="Trazado_143137" data-name="Trazado 143137" d="M953.717,2085.074l-10.57.825a1.977,1.977,0,0,0-1.576,1.946l0,2.246,0,1.876-.021,8.465,0,2.492,0,1.626a1.5,1.5,0,0,0,1.567,1.566l10.562-1.026a1.942,1.942,0,0,0,1.6-1.854l0-1.605.008-2.458.024-8.357,0-1.851.006-2.218A1.638,1.638,0,0,0,953.717,2085.074Z" transform="translate(-885.809 -2047.907)" fill="#f67409"/>
          </g>
        </g>
      </g>
      <g id="Grupo_89711" data-name="Grupo 89711" transform="translate(1017.524 2055.552)">
        <path id="Trazado_143138" data-name="Trazado 143138" d="M955.878,2031.173a15.475,15.475,0,0,1-16.009,15.781,18.118,18.118,0,0,1-17.21-18.021,15.432,15.432,0,0,1,17.21-15.7A18.24,18.24,0,0,1,955.878,2031.173Z" transform="translate(-922.659 -2012.369)" fill="url(#linear-gradient-12)"/>
        <path id="Trazado_143139" data-name="Trazado 143139" d="M957.383,2030.693a15.476,15.476,0,0,1-16.009,15.781,18.121,18.121,0,0,1-17.21-18.022,15.431,15.431,0,0,1,17.21-15.7A18.237,18.237,0,0,1,957.383,2030.693Z" transform="translate(-921.738 -2012.663)" fill="url(#linear-gradient-13)"/>
        <path id="Trazado_143140" data-name="Trazado 143140" d="M956.371,2030.351a14.769,14.769,0,0,1-15.3,15.061,17.3,17.3,0,0,1-16.4-17.2,14.728,14.728,0,0,1,16.4-14.987A17.4,17.4,0,0,1,956.371,2030.351Z" transform="translate(-921.429 -2012.369)" fill="url(#linear-gradient-14)"/>
        <path id="Trazado_143141" data-name="Trazado 143141" d="M955.646,2030.107a14.263,14.263,0,0,1-14.8,14.547,16.709,16.709,0,0,1-15.82-16.612,14.228,14.228,0,0,1,15.82-14.478A16.807,16.807,0,0,1,955.646,2030.107Z" transform="translate(-921.21 -2012.159)" fill="url(#linear-gradient-15)"/>
        <g id="Grupo_89710" data-name="Grupo 89710" transform="translate(11.96 4.229)">
          <path id="Trazado_143142" data-name="Trazado 143142" d="M937.671,2015.291h0a.9.9,0,0,1,.8.888v1.53a22.473,22.473,0,0,1,2.651.459q.979.23,1.944.548a.891.891,0,0,1,.609.917l-.187,1.918a.719.719,0,0,1-1.027.6,11.028,11.028,0,0,0-1.3-.485,11.8,11.8,0,0,0-2.461-.459l-.226-.02v4.381a11.5,11.5,0,0,1,5.085,2.6,5.5,5.5,0,0,1,1.63,4.06,5.347,5.347,0,0,1-1.8,4.22,8.214,8.214,0,0,1-5.1,1.794v1.688a.766.766,0,0,1-.8.78h-.015a.849.849,0,0,1-.8-.846v-1.665l-.355-.016a23.261,23.261,0,0,1-2.953-.316,19.061,19.061,0,0,1-2.041-.469.879.879,0,0,1-.64-.909l.221-2.464a.78.78,0,0,1,1.09-.645,15.936,15.936,0,0,0,1.8.59,15.767,15.767,0,0,0,2.867.479l.015-4.873a10.565,10.565,0,0,1-4.952-2.429,5.568,5.568,0,0,1-1.639-4.134,4.839,4.839,0,0,1,1.778-4.017,7.889,7.889,0,0,1,5.013-1.4v-1.564A.722.722,0,0,1,937.671,2015.291Zm-.8,5.848a2.705,2.705,0,0,0-1.6.563,1.644,1.644,0,0,0-.572,1.315,1.766,1.766,0,0,0,.529,1.307,3.786,3.786,0,0,0,1.641.836Zm1.415,8.823v4.469a2.47,2.47,0,0,0,1.71-.532,1.913,1.913,0,0,0,.595-1.5,2.055,2.055,0,0,0-.553-1.471A4.061,4.061,0,0,0,938.285,2029.961Z" transform="translate(-930.079 -2015.287)" fill="url(#linear-gradient-16)"/>
        </g>
        <path id="Trazado_143143" data-name="Trazado 143143" d="M938.168,2032.11c.5-4.939,5.039-7.029,4.447-11.572-.366-2.8-2.487-5.159-4.855-7a14.228,14.228,0,0,0-12.734,14.474,16.709,16.709,0,0,0,15.82,16.612,15.106,15.106,0,0,0,2.443-.119C939.874,2041.1,937.738,2036.354,938.168,2032.11Z" transform="translate(-921.21 -2012.128)" opacity="0.3" fill="url(#linear-gradient-17)" style="mix-blend-mode: multiply;isolation: isolate"/>
      </g>
      <g id="Grupo_89714" data-name="Grupo 89714" transform="translate(789.97 2014.328)">
        <path id="Trazado_143144" data-name="Trazado 143144" d="M833.335,2105.331s8.573,3.921,8.712,4.544-5.519-.221-7.83-.137-4.208-.6-4-1.581,1.025-3.438,1.025-3.438Z" transform="translate(-765.354 -1915.117)" fill="url(#linear-gradient-18)"/>
        <path id="Trazado_143145" data-name="Trazado 143145" d="M833.553,2103.314l-.53,3.862a3.028,3.028,0,0,1-2.271-.094l-.38-4.239Z" transform="translate(-765.252 -1916.264)" fill="url(#linear-gradient-19)"/>
        <path id="Trazado_143146" data-name="Trazado 143146" d="M807.761,2103.132l-1,1.6a1.9,1.9,0,0,0-.232,1.5c.345,1.333,1.036,3.933,1.339,4.61.411.924,5.964,1.484,5.964,1.484s.5-.695-.654-1.539-1.892-.978-2.3-2.223a32.4,32.4,0,0,1-.667-4.756Z" transform="translate(-779.878 -1916.087)" fill="url(#linear-gradient-20)"/>
        <path id="Trazado_143147" data-name="Trazado 143147" d="M811.559,2100.789c-.364.29-2.161,5.7-2.161,5.7s-.579.736-1.673-.356-.495-.49-.495-.49l.218-5.324Z" transform="translate(-779.511 -1917.807)" fill="url(#linear-gradient-21)"/>
        <path id="Trazado_143148" data-name="Trazado 143148" d="M843.157,2057.029c.426,11.528.413,24.052-.282,37.428-.783,15.063-2.318,28.984-4.239,41.6-.7.021-1.441.022-2.213,0-.521-.015-1.027-.042-1.514-.076a95.87,95.87,0,0,1-3.156-10.179,97.953,97.953,0,0,1-2.192-11.913c-1.621-13.061.319-14.194-1-23.873-1.167-8.572-2.856-8.91-4.81-21.081-2.12-13.206-.514-15.184.268-15.9C827.343,2050,835.127,2052.093,843.157,2057.029Z" transform="translate(-769.946 -1947.602)" fill="url(#linear-gradient-22)"/>
        <path id="Trazado_143149" data-name="Trazado 143149" d="M824.019,2053.039c3.169-2.9,10.4-1.122,18.027,3.331-8.812,9.474-9.784,15.631-8.739,19.63,1.18,4.52,4.8,5.83,4.771,10.769-.032,6.07-5.514,7.665-5.413,14.087.066,4.248,2.474,4.21,3.029,9.457.659,6.209-2.492,8.34-1.484,12.936.434,1.976,1.678,4.561,5.235,7.229-.263,1.884-.53,3.751-.809,5.582-.7.021-1.441.022-2.213,0-.521-.015-1.027-.042-1.514-.076a95.906,95.906,0,0,1-3.156-10.179,97.957,97.957,0,0,1-2.192-11.914c-1.621-13.061.319-14.193-1-23.873-1.167-8.572-2.856-8.912-4.81-21.081C821.632,2055.729,823.238,2053.751,824.019,2053.039Z" transform="translate(-769.946 -1947.601)" opacity="0.3" fill="url(#linear-gradient-23)" style="mix-blend-mode: multiply;isolation: isolate"/>
        <path id="Trazado_143150" data-name="Trazado 143150" d="M847.951,2057.3a258.773,258.773,0,0,0-35.665,75.859,4.641,4.641,0,0,1-2.535.387,4.727,4.727,0,0,1-2.866-1.557,74.552,74.552,0,0,1-.612-18.382,63.277,63.277,0,0,1,2.618-13.808c2.1-6.734,3.543-7.109,6.285-14.231,2.846-7.393,2.166-9.242,4.9-18.5a122.534,122.534,0,0,1,6.089-16.222Z" transform="translate(-780.183 -1948.076)" fill="url(#linear-gradient-24)"/>
        <path id="Trazado_143151" data-name="Trazado 143151" d="M875.67,2061.354a20.847,20.847,0,0,1-2.911,1.364c-7.558,2.884-15.606-.422-20.311-6.523-.1-.126-.2-.255-.289-.384-.058-.074-.111-.152-.166-.228-.078-.108-.152-.216-.227-.324-.9-1.312-1.9-2.908-2.141-2.782-.016.007-.076.027-.082.058,0,.006-.053.016-.053.027v0c0,.938,4.642,8.834,6.715,17.761,1.109,4.782.845,7.021,2.919,10.206.471.722,1.062,1.474.859,2.328-.512,2.137-5.395,2.693-8.785,3.079a79.108,79.108,0,0,1-10.214.319c-5.28-.079-5.7-.353-6.9.24-3.675,1.8-3.423,6.122-6.191,6.7-2.321.48-4.679-2.11-5.424-2.934-3.881-4.271-3.675-9.425-4.363-14.621-1.6-12.083-8.164-25.32-14.586-33.7-1.949-2.541-3.3-3.875-3.388-6.24-.247-6.931,10.738-14.587,19.882-15.464a68.442,68.442,0,0,1,11.205.23c1.68.16,3.472.393,5.4.729,4.668.815,7.916,1.385,11.225,2.9,13.354,6.107,7.128,14.312,21.579,23.715,4.969,3.232,13.12-6.94,13.041-4.121C882.4,2046.152,885.108,2055.949,875.67,2061.354Z" transform="translate(-783.756 -1966.889)" fill="url(#linear-gradient-25)"/>
        <path id="Trazado_143152" data-name="Trazado 143152" d="M820.732,2015.722a19.878,19.878,0,0,1-1.894,5.479c-1.193,2.06-6.125,2.8-7.153,3.156s1.551,2.149,4.292,2.8,10.76,1.074,12.332.211-1.02-1.128-2.908-2.119-2.516-5.022-1.932-6.738S820.732,2015.722,820.732,2015.722Z" transform="translate(-776.826 -1969.568)" fill="url(#linear-gradient-26)"/>
        <g id="Grupo_89712" data-name="Grupo 89712" transform="translate(41.612 39.002)">
          <path id="Trazado_143153" data-name="Trazado 143153" d="M823.293,2017.512c1.989-1.422,2.54-5.268,1.435-6.13-.316-.247-.617-.134-5.106,1.667-2.231.895-3.327,1.372-3.688,2.356a3.12,3.12,0,0,0,.058,2.052,7.857,7.857,0,0,0,.914,1.521c.482.695.45.67.6.872a10.91,10.91,0,0,0,2.3,2.247,7.546,7.546,0,0,1,.366-1.272,6.757,6.757,0,0,1,.812-1.512A7.6,7.6,0,0,1,823.293,2017.512Z" transform="translate(-815.787 -2011.285)" fill="url(#linear-gradient-27)"/>
          <path id="Trazado_143154" data-name="Trazado 143154" d="M817.85,2019.206a4.131,4.131,0,0,0,3.714,1.676c2.158-.235,2.263-5.1.835-6.073a2.732,2.732,0,0,0-2.149-.182c-.438.143-.58.334-1.3.554-.664.2-.857.139-1.054.318-.243.226-.408.758.079,2.158a1.179,1.179,0,0,0-1.278-.358.747.747,0,0,0-.276.293C816.142,2018.16,816.678,2018.846,817.85,2019.206Z" transform="translate(-815.444 -2009.323)" fill="url(#linear-gradient-28)"/>
        </g>
        <path id="Trazado_143155" data-name="Trazado 143155" d="M857.722,2051.387a20.819,20.819,0,0,1-2.911,1.364c-7.558,2.884-15.606-.422-20.311-6.523-.1-.126-.2-.255-.289-.384-.058-.074-.111-.152-.166-.227-.078-.108-.152-.216-.227-.324-.9-1.312-1.9-2.908-2.141-2.782-.016.007-.027.027-.034.058l0,.027q-1.088-1.707-2.178-3.412c.785-1.365,1.9-2.756,3.258-2.793,2.89-.073,3.635,6.019,8.606,10.022,2.984,2.4,5.385,2.361,11.421,3.72C854.2,2050.462,855.865,2050.868,857.722,2051.387Z" transform="translate(-765.807 -1956.922)" opacity="0.3" fill="url(#linear-gradient-29)" style="mix-blend-mode: multiply;isolation: isolate"/>
        <path id="Trazado_143156" data-name="Trazado 143156" d="M813.4,2081.917c-3.657.325-11.886.474-17.706-4.91-9.69-8.965-4.882-26.026-1.51-33.365,3.867-8.414,10.022-13.122,13.762-15.985,4.641-3.551,7.473-5.717,10.88-5.232,8.814,1.254,14.918,19.316,10.079,24.487-1.584,1.694-3.153.735-7.735,2.195-1.492.476-12.633,4.023-14.574,12.229-1.357,5.743,2.1,12.467,8.251,16.983Q814.127,2080.117,813.4,2081.917Z" transform="translate(-789.97 -1965.508)" fill="url(#linear-gradient-30)"/>
        <path id="Trazado_143157" data-name="Trazado 143157" d="M851.775,2072.375c-4.138-2.616-4.75-5.266-9.386-7.058-6.02-2.326-8.913.629-11.9-1.757-3.552-2.84-.408-7.789-3.066-16.375-.451-1.458-3.88-12.527-11.742-13.937-3.667-.658-8.51.746-10.377,3.854-1.46,2.432-.1,4.244-1.876,6.929s-3.9,2.026-6.159,4.265c-3.591,3.553-4.142,11.046-.9,15.284,1.514,1.976,3.478,2.758,7.177,4.228a34.852,34.852,0,0,0,6.167,1.812c-4.529-4.347-6.879-9.954-5.72-14.848,1.209-5.116,5.993-8.421,9.787-10.3,3.8,7.145,6.9,15.423,7.932,23.224.688,5.2.482,10.349,4.363,14.623.746.824,3.1,3.415,5.425,2.932,2.764-.575,2.516-4.9,6.189-6.7,1.206-.591,1.623-.317,6.905-.24a78.2,78.2,0,0,0,10.218-.319c3.016-.342,7.208-.822,8.459-2.427A22.03,22.03,0,0,1,851.775,2072.375Z" transform="translate(-787.365 -1958.942)" opacity="0.3" fill="url(#linear-gradient-31)" style="mix-blend-mode: multiply;isolation: isolate"/>
        <g id="Grupo_89713" data-name="Grupo 89713" transform="translate(19.445)">
          <path id="Trazado_143158" data-name="Trazado 143158" d="M881.776,2036.689l-72.815,49.846a3.971,3.971,0,0,1-5.437-.88l-.78-1.067a3.716,3.716,0,0,1,.962-5.282l1.457-.988,59.264-40.291,12.182-8.283Z" transform="translate(-802.034 -1960.988)" fill="url(#linear-gradient)"/>
          <path id="Trazado_143159" data-name="Trazado 143159" d="M912.807,2070.975c-19.8,14.02-47.309,8.909-61.421-12.084-14.452-21.5-9.018-50.789,12.1-64.717,20.736-13.677,48.149-6.873,61.282,14.519C937.6,2029.6,932.265,2057.2,912.807,2070.975Zm-3.8-5.915c16.446-11.583,20.935-34.867,10.053-52.464-11.093-17.941-34.121-23.539-51.471-12.027-17.617,11.689-22.174,36.168-10.153,54.182C869.223,2072.409,892.319,2076.815,909.01,2065.06Z" transform="translate(-776.789 -1987.087)" fill="url(#linear-gradient-33)"/>
          <path id="Trazado_143160" data-name="Trazado 143160" d="M881.776,2036.689l-72.815,49.846a3.971,3.971,0,0,1-5.437-.88l-.78-1.067a3.716,3.716,0,0,1,.962-5.282l1.454-.993,0,0c3.577,3.593,5.938,4.1,7.521,3.7,3.706-.94,2.608-6.685,8.228-11.254,5.558-4.52,10.047-1.685,16.35-6.71,3.815-3.043,2.453-4.307,6.328-8.167,7.724-7.7,15.735-5.282,19.406-10.936a10.594,10.594,0,0,0,1.43-6.926l12.182-8.283Z" transform="translate(-802.034 -1960.988)" fill="#d8dee8" opacity="0.6" style="mix-blend-mode: multiply;isolation: isolate"/>
          <path id="Trazado_143161" data-name="Trazado 143161" d="M914.117,2071.922c-19.8,14.021-47.309,8.908-61.421-12.084-14.452-21.5-9.018-50.787,12.1-64.715,20.738-13.677,48.149-6.875,61.282,14.518C938.912,2030.546,933.577,2058.144,914.117,2071.922Zm-3.8-5.914c16.446-11.584,20.935-34.869,10.053-52.466C909.28,1995.6,886.252,1990,868.9,2001.515c-17.617,11.689-22.174,36.168-10.153,54.182C870.533,2073.356,893.629,2077.761,910.32,2066.008Z" transform="translate(-775.988 -1986.508)" fill="url(#linear-gradient-34)"/>
          <path id="Trazado_143162" data-name="Trazado 143162" d="M911.778,2068.83c-18.7,13.219-44.651,8.351-57.938-11.463-13.586-20.264-8.464-47.847,11.41-60.982,19.537-12.912,45.4-6.541,57.813,13.63C935.212,2029.75,930.175,2055.827,911.778,2068.83ZM909.32,2065c16.446-11.584,20.935-34.869,10.053-52.466C908.28,1994.6,885.252,1989,867.9,2000.51c-17.617,11.689-22.174,36.168-10.153,54.182C869.533,2072.352,892.629,2076.757,909.32,2065Z" transform="translate(-774.988 -1985.503)" fill="url(#linear-gradient-35)"/>
        </g>
        <path id="Trazado_143163" data-name="Trazado 143163" d="M804.7,2060.051l.814-2.023a4.165,4.165,0,0,0,2.419-.7,3.143,3.143,0,0,1,1.957-.467c.306.084,1.464.034.143.662s-1.309,1.1-.758,1.615a9.576,9.576,0,0,0,3.395,1.681c.754.053-.608,1.219-1.367,1.367a4.685,4.685,0,0,1-3.548-.57C807.194,2061.284,804.7,2060.051,804.7,2060.051Z" transform="translate(-780.958 -1944.414)" fill="url(#linear-gradient-36)"/>
        <path id="Trazado_143164" data-name="Trazado 143164" d="M846.395,2039.3c2-1.38,2.315-4.379,5.261-4.591,0,0,2.452-.593,1.212,2.121S845.642,2041.607,846.395,2039.3Z" transform="translate(-755.488 -1957.987)" fill="url(#linear-gradient-37)"/>
      </g>
      <g id="Grupo_89716" data-name="Grupo 89716" transform="translate(1035.347 2000.071)">
        <path id="Trazado_143165" data-name="Trazado 143165" d="M969.632,2004.012c0,12.513-9.784,22.355-22.288,21.971-13.012-.4-23.957-11.639-23.957-25.088s10.944-23.212,23.957-21.857C959.848,1980.339,969.632,1991.5,969.632,2004.012Z" transform="translate(-923.387 -1977.833)" fill="url(#linear-gradient-38)"/>
        <path id="Trazado_143166" data-name="Trazado 143166" d="M971.728,2003.343c0,12.511-9.784,22.355-22.287,21.969-13.014-.4-23.958-11.637-23.958-25.087s10.944-23.212,23.958-21.858C961.945,1979.67,971.728,1990.832,971.728,2003.343Z" transform="translate(-922.105 -1978.242)" fill="url(#linear-gradient-39)"/>
        <path id="Trazado_143167" data-name="Trazado 143167" d="M970.318,2002.867c0,11.96-9.36,21.354-21.305,20.967-12.41-.4-22.828-11.128-22.828-23.942s10.419-22.135,22.828-20.864C960.958,1980.252,970.318,1990.907,970.318,2002.867Z" transform="translate(-921.676 -1977.833)" fill="url(#linear-gradient-40)"/>
        <path id="Trazado_143168" data-name="Trazado 143168" d="M969.309,2002.528c0,11.565-9.059,20.638-20.6,20.25-11.978-.4-22.023-10.76-22.023-23.123s10.045-21.368,22.023-20.155C960.251,1980.668,969.309,1990.962,969.309,2002.528Z" transform="translate(-921.37 -1977.54)" fill="url(#linear-gradient-15)"/>
        <g id="Grupo_89715" data-name="Grupo 89715" transform="translate(16.649 5.889)">
          <path id="Trazado_143169" data-name="Trazado 143169" d="M944.285,1981.9h0a1.258,1.258,0,0,1,1.112,1.235v2.129a31.271,31.271,0,0,1,3.691.642q1.361.319,2.706.762a1.243,1.243,0,0,1,.848,1.277l-.261,2.671a1,1,0,0,1-1.43.83,15.28,15.28,0,0,0-1.815-.676,16.351,16.351,0,0,0-3.425-.64l-.314-.027v6.1a16.017,16.017,0,0,1,7.079,3.62,7.649,7.649,0,0,1,2.268,5.651,7.437,7.437,0,0,1-2.508,5.875,11.44,11.44,0,0,1-7.094,2.5v2.35a1.07,1.07,0,0,1-1.114,1.086l-.019,0a1.181,1.181,0,0,1-1.117-1.178v-2.318l-.495-.023a32.661,32.661,0,0,1-4.11-.438,27.057,27.057,0,0,1-2.84-.653,1.226,1.226,0,0,1-.891-1.267l.308-3.432a1.085,1.085,0,0,1,1.517-.9,22.193,22.193,0,0,0,2.5.82,21.848,21.848,0,0,0,3.994.667l.019-6.784A14.7,14.7,0,0,1,936,1998.4a7.747,7.747,0,0,1-2.284-5.756,6.73,6.73,0,0,1,2.476-5.59c1.639-1.3,3.972-1.95,6.978-1.949v-2.177A1,1,0,0,1,944.285,1981.9Zm-1.115,8.14a3.749,3.749,0,0,0-2.223.785,2.281,2.281,0,0,0-.8,1.829,2.457,2.457,0,0,0,.738,1.82,5.229,5.229,0,0,0,2.282,1.164Zm1.973,12.284v6.222a3.447,3.447,0,0,0,2.379-.74,2.663,2.663,0,0,0,.827-2.094,2.862,2.862,0,0,0-.769-2.047A5.672,5.672,0,0,0,945.142,2002.325Z" transform="translate(-933.716 -1981.896)" fill="url(#linear-gradient-42)"/>
        </g>
        <path id="Trazado_143170" data-name="Trazado 143170" d="M944.978,2005.317c.695-6.876,7.015-9.785,6.189-16.11-.508-3.9-3.462-7.182-6.758-9.747a19.806,19.806,0,0,0-17.725,20.151c0,12.363,10.045,22.722,22.023,23.123a20.754,20.754,0,0,0,3.4-.166C947.353,2017.835,944.38,2011.223,944.978,2005.317Z" transform="translate(-921.37 -1977.497)" opacity="0.3" fill="url(#linear-gradient-43)" style="mix-blend-mode: multiply;isolation: isolate"/>
      </g>
    </g>
  </g>
</svg>
