<svg xmlns="http://www.w3.org/2000/svg" xmlns:xlink="http://www.w3.org/1999/xlink" width="1328" height="2455" viewBox="0 0 1328 2455">
  <defs>
    <linearGradient id="linear-gradient" y1="0.5" x2="1" y2="0.5" gradientUnits="objectBoundingBox">
      <stop offset="0" stop-color="#54aa13"/>
      <stop offset="1" stop-color="#30610c"/>
    </linearGradient>
    <linearGradient id="linear-gradient-2" x1="0.513" x2="0.5" y2="0.5" gradientUnits="objectBoundingBox">
      <stop offset="0" stop-color="#897900" stop-opacity="0"/>
      <stop offset="0.399" stop-color="#fece2f"/>
      <stop offset="1" stop-color="#fece2f"/>
    </linearGradient>
    <clipPath id="clip-path">
      <rect id="Rectángulo_40156" data-name="Rectángulo 40156" width="1240.034" height="593" rx="20" transform="translate(2653 -9798)" opacity="0.15" fill="url(#linear-gradient)"/>
    </clipPath>
    <linearGradient id="linear-gradient-4" y1="0.5" x2="1" y2="0.5" gradientUnits="objectBoundingBox">
      <stop offset="0" stop-color="#30610c"/>
      <stop offset="1" stop-color="#54aa13"/>
    </linearGradient>
    <radialGradient id="radial-gradient" cx="0.5" cy="0.5" r="0.5" gradientTransform="matrix(0.787, 0.617, -0.617, 0.787, 0.415, -0.202)" gradientUnits="objectBoundingBox">
      <stop offset="0.198" stop-color="gray"/>
      <stop offset="0.438" stop-color="#a9a9a9"/>
      <stop offset="0.819" stop-color="#e6e6e6"/>
      <stop offset="1" stop-color="#fff"/>
    </radialGradient>
    <linearGradient id="linear-gradient-5" x1="0.5" y1="0.887" x2="0.5" y2="0.053" xlink:href="#linear-gradient-4"/>
    <radialGradient id="radial-gradient-3" cx="0.5" cy="0.5" r="0.5" gradientTransform="matrix(1, 0, 0, 1, 0, 0)" xlink:href="#radial-gradient"/>
  </defs>
  <g id="Grupo_128256" data-name="Grupo 128256" transform="translate(-2015 14216)">
    <path id="Rectángulo_40340" data-name="Rectángulo 40340" d="M0,0H1328a0,0,0,0,1,0,0V2435a20,20,0,0,1-20,20H20a20,20,0,0,1-20-20V0A0,0,0,0,1,0,0Z" transform="translate(2015 -14216)" opacity="0.079" fill="url(#linear-gradient-2)"/>
    <g id="Grupo_128254" data-name="Grupo 128254" transform="translate(731.966 -4207)">
      <g id="Grupo_128255" data-name="Grupo 128255">
        <rect id="Rectángulo_40155" data-name="Rectángulo 40155" width="1240.034" height="593" rx="20" transform="translate(1327.034 -9798)" opacity="0.15" fill="url(#linear-gradient)"/>
        <g id="Enmascarar_grupo_110" data-name="Enmascarar grupo 110" transform="translate(-1325.966)" clip-path="url(#clip-path)">
          <g id="Grupo_127191" data-name="Grupo 127191">
            <path id="Trazado_177138" data-name="Trazado 177138" d="M1729.322-75.058c1.415-35.007-24.006-64.861-54.952-77.728-35-14.553-63.861-18.279-76.138-55.022-3.97-11.879-10.084-28.57-17.336-38.885-26.659-37.916-72.7-18.672-108.5-12.5-33.6,5.792-58.4-10.1-96.451-32.65-.24-.142-84.639-80.051-104.016,14.429-3.591,17.509-3.027,31.353-4.269,40.845-4.887,37.345-37.774,40.961-84.189,69.374-58.744,35.964-68.179,112.013,2.67,126.521,27.229,5.578,49.781,3.607,76.362,12.1,54.316,17.352,56.691,69.113,103.9,84.606,17.186,7.463,41.181,6.206,56.9,1.251,60.52-19.081,81-47.149,127.809-40.341,15.9,2.314,36.169,8.223,59.371,8.393C1670.249,25.774,1727.092-19.992,1729.322-75.058Z" transform="translate(2198.194 -9546.119)" fill="url(#linear-gradient-4)"/>
            <g id="Grupo_81533" data-name="Grupo 81533" transform="translate(3752.676 -9355.152)">
              <g id="Elipse_4064-2" data-name="Elipse 4064-2" transform="translate(0 29.708)">
                <ellipse id="Elipse_5075" data-name="Elipse 5075" cx="36.183" cy="36.183" rx="36.183" ry="36.183" fill="none" stroke="#30610c" stroke-miterlimit="10" stroke-width="1"/>
                <ellipse id="Elipse_5076" data-name="Elipse 5076" cx="35.421" cy="35.421" rx="35.421" ry="35.421" transform="translate(0.762 0.762)" fill="none" stroke="#30610c" stroke-width="2"/>
              </g>
              <g id="Elipse_4062-2" data-name="Elipse 4062-2" transform="translate(15.997 0)">
                <ellipse id="Elipse_5077" data-name="Elipse 5077" cx="10.283" cy="10.283" rx="10.283" ry="10.283" fill="none" stroke="#30610c" stroke-miterlimit="10" stroke-width="1"/>
                <ellipse id="Elipse_5078" data-name="Elipse 5078" cx="9.522" cy="9.522" rx="9.522" ry="9.522" transform="translate(0.762 0.762)" fill="none" stroke="#30610c" stroke-width="2"/>
              </g>
              <g id="Elipse_4063-2" data-name="Elipse 4063-2" transform="translate(94.456 74.65)">
                <ellipse id="Elipse_5079" data-name="Elipse 5079" cx="4.951" cy="4.951" rx="4.951" ry="4.951" transform="translate(0 0)" fill="none" stroke="#30610c" stroke-miterlimit="10" stroke-width="1"/>
                <ellipse id="Elipse_5080" data-name="Elipse 5080" cx="4.19" cy="4.19" rx="4.19" ry="4.19" transform="translate(0.762 0.762)" fill="none" stroke="#30610c" stroke-width="2"/>
              </g>
            </g>
            <g id="Grupo_81534" data-name="Grupo 81534" transform="translate(3615.541 -9817.073)">
              <g id="Elipse_4064-3" data-name="Elipse 4064-3" transform="translate(0 29.708)">
                <ellipse id="Elipse_5081" data-name="Elipse 5081" cx="36.183" cy="36.183" rx="36.183" ry="36.183" fill="none" stroke="#30610c" stroke-miterlimit="10" stroke-width="1"/>
                <ellipse id="Elipse_5082" data-name="Elipse 5082" cx="35.421" cy="35.421" rx="35.421" ry="35.421" transform="translate(0.762 0.762)" fill="none" stroke="#30610c" stroke-width="2"/>
              </g>
              <g id="Elipse_4062-3" data-name="Elipse 4062-3" transform="translate(15.997 0)">
                <ellipse id="Elipse_5083" data-name="Elipse 5083" cx="10.283" cy="10.283" rx="10.283" ry="10.283" fill="none" stroke="#30610c" stroke-miterlimit="10" stroke-width="1"/>
                <ellipse id="Elipse_5084" data-name="Elipse 5084" cx="9.522" cy="9.522" rx="9.522" ry="9.522" transform="translate(0.762 0.762)" fill="none" stroke="#30610c" stroke-width="2"/>
              </g>
              <g id="Elipse_4063-3" data-name="Elipse 4063-3" transform="translate(94.456 74.65)">
                <ellipse id="Elipse_5085" data-name="Elipse 5085" cx="4.951" cy="4.951" rx="4.951" ry="4.951" fill="none" stroke="#30610c" stroke-miterlimit="10" stroke-width="1"/>
                <ellipse id="Elipse_5086" data-name="Elipse 5086" cx="4.19" cy="4.19" rx="4.19" ry="4.19" transform="translate(0.762 0.762)" fill="none" stroke="#30610c" stroke-width="2"/>
              </g>
            </g>
            <path id="Trazado_177139" data-name="Trazado 177139" d="M1121.329-157.15c135.463,49.788,104.832,51.064,182.743,119.509,80.625,70.829,114.751,23.508,186.6,34,88.824,12.971,38.641,151.925,106.584,137.017,25.273-5.546,31.715-14.122,63.515-10.91,13.8,1.394,46.337,18.333,89.662.928,43.174-17.344,70.161-69.881,45.436-117.676C1779.3-26.308,1759.1-43.954,1767.594-72.4c12.557-42.022,45.914-100.835-5.157-124.39-56.878-26.233-123.747,19.182-155.07-46.811-30.758-64.8-25.427-138.8-91.86-194.936-54.516-46.067-104.934-15.6-163.246,23.109-35.192,23.362-65.186,19.127-105.287,10.03-54.491-12.357-115.488-.1-155.04,21.654-50.917,28.01-66.106,98.75-47.871,154.654C1055.873-192.877,1085.585-170.288,1121.329-157.15Z" transform="translate(2314.263 -9551.389)" fill="#636363" style="mix-blend-mode: overlay;isolation: isolate"/>
            <g id="Grupo_127186" data-name="Grupo 127186" transform="translate(3248.074 -9499.588)">
              <circle id="Elipse_5089" data-name="Elipse 5089" cx="10.938" cy="10.938" r="10.938" transform="matrix(0.787, -0.617, 0.617, 0.787, 471.825, 182.505)" fill="url(#radial-gradient)" style="mix-blend-mode: color-burn;isolation: isolate"/>
              <path id="Trazado_151684" data-name="Trazado 151684" d="M502.624,185.417a7.994,7.994,0,1,1-7.994-7.994A7.994,7.994,0,0,1,502.624,185.417Z" transform="translate(-7.406 -4.209)" fill="url(#linear-gradient-5)"/>
            </g>
            <path id="Trazado_177140" data-name="Trazado 177140" d="M-32.342,323.1c26.775,35.071,39.067,35.54,82.714,25.542,112-25.658,205.617,80.729,292.311,19.359,41.9-29.651,81.044-33.119,102.121-50.91,17.467-14.742,16.126-37.436-1.554-49.641-52.671-36.362-148.661,14.762-184.185-28.854-9.63-11.824,10.413-67.888-47.888-96.1-40.475-19.586-71.964,17.841-110.244,50.72-54.379,46.706-112.9-2.671-152.457-16.168C-115.855,155.1-162.41,236.784-90.492,279.084-67.766,292.449-47.764,302.906-32.342,323.1Z" transform="translate(2659.836 -9430.103)" fill="url(#linear-gradient)"/>
            <path id="Trazado_177141" data-name="Trazado 177141" d="M-204.926,290.042c94.849,34.86,73.4,35.754,127.953,83.678,56.453,49.594,80.348,16.46,130.656,23.808,62.192,9.082,27.055,106.375,74.628,95.937,17.7-3.882,22.206-9.888,44.472-7.638,9.663.975,32.444,12.836,62.78.649,30.229-12.144,49.124-48.929,31.813-82.394-11.6-22.426-25.751-34.782-19.8-54.7,8.792-29.423,32.147-70.6-3.611-87.1-39.825-18.368-86.646,13.431-108.577-32.776-21.536-45.371-17.8-97.186-64.319-136.491C32.9,60.768-2.4,82.1-43.231,109.2c-24.641,16.357-45.642,13.392-73.72,7.023-38.154-8.652-80.863-.073-108.557,15.161C-261.159,151-271.793,200.53-259.026,239.673-250.756,265.028-229.953,280.843-204.926,290.042Z" transform="translate(2704.746 -9427.695)" fill="#636363" style="mix-blend-mode: overlay;isolation: isolate"/>
            <g id="Grupo_81532" data-name="Grupo 81532" transform="translate(2617.399 -9390.285)">
              <g id="Elipse_4062" data-name="Elipse 4062" transform="translate(-123.869 -0.853)">
                <circle id="Elipse_5069" data-name="Elipse 5069" cx="44.767" cy="44.767" r="44.767" transform="translate(95.851 31.585)" fill="none" stroke="#30610c" stroke-miterlimit="10" stroke-width="1"/>
                <circle id="Elipse_5070" data-name="Elipse 5070" cx="41.451" cy="41.451" r="41.451" transform="translate(99.168 34.901)" fill="none" stroke="#30610c" stroke-width="2"/>
              </g>
              <g id="Elipse_4065" data-name="Elipse 4065">
                <circle id="Elipse_5071" data-name="Elipse 5071" cx="13.5" cy="13.5" r="13.5" transform="translate(472.667 62)" fill="none" stroke="#30610c" stroke-miterlimit="10" stroke-width="1"/>
                <circle id="Elipse_5072" data-name="Elipse 5072" cx="12.5" cy="12.5" r="12.5" transform="translate(473.667 63)" fill="none" stroke="#30610c" stroke-width="2"/>
              </g>
              <g id="Elipse_4063" data-name="Elipse 4063" transform="translate(-27 23)">
                <circle id="Elipse_5073" data-name="Elipse 5073" cx="5.938" cy="5.938" r="5.938" transform="translate(189.947 121.112)" fill="none" stroke="#e5f2db" stroke-miterlimit="10" stroke-width="1"/>
                <circle id="Elipse_5074" data-name="Elipse 5074" cx="5.024" cy="5.024" r="5.024" transform="translate(190.86 122.026)" fill="none" stroke="#e5f2db" stroke-width="2"/>
              </g>
            </g>
            <g id="Grupo_127190" data-name="Grupo 127190" transform="translate(2924.823 -9958.346)">
              <circle id="Elipse_5089-2" data-name="Elipse 5089" cx="15.173" cy="15.173" r="15.173" transform="matrix(0.787, -0.617, 0.617, 0.787, 471.825, 187.732)" fill="url(#radial-gradient)" style="mix-blend-mode: color-burn;isolation: isolate"/>
              <path id="Trazado_151684-2" data-name="Trazado 151684" d="M508.814,188.511a11.088,11.088,0,1,1-11.088-11.088A11.089,11.089,0,0,1,508.814,188.511Z" transform="translate(-4.539 -2.579)" fill="url(#linear-gradient-5)"/>
            </g>
            <g id="Grupo_127196" data-name="Grupo 127196" transform="translate(2639.402 -9439.083)">
              <circle id="Elipse_5087" data-name="Elipse 5087" cx="9.998" cy="9.998" r="9.998" transform="translate(35.008 59.534)" fill="url(#radial-gradient-3)" style="mix-blend-mode: color-burn;isolation: isolate"/>
              <circle id="Elipse_5088" data-name="Elipse 5088" cx="7.306" cy="7.306" r="7.306" transform="translate(37.738 59.342)" fill="url(#linear-gradient-5)"/>
            </g>
            <g id="Grupo_127197" data-name="Grupo 127197" transform="translate(2694.402 -9352.36)">
              <circle id="Elipse_5087-2" data-name="Elipse 5087" cx="19.109" cy="19.109" r="19.109" transform="translate(35.008 59.71)" fill="url(#radial-gradient-3)" style="mix-blend-mode: color-burn;isolation: isolate"/>
              <circle id="Elipse_5088-2" data-name="Elipse 5088" cx="13.964" cy="13.964" r="13.964" transform="translate(40.226 59.342)" fill="url(#linear-gradient-5)"/>
            </g>
            <g id="Grupo_127198" data-name="Grupo 127198" transform="translate(2738.619 -9356.267)">
              <circle id="Elipse_5087-3" data-name="Elipse 5087" cx="7.053" cy="7.053" r="7.053" transform="translate(35.008 59.478)" fill="url(#radial-gradient-3)" style="mix-blend-mode: color-burn;isolation: isolate"/>
              <circle id="Elipse_5088-3" data-name="Elipse 5088" cx="5.154" cy="5.154" r="5.154" transform="translate(36.934 59.342)" fill="url(#linear-gradient-5)"/>
            </g>
          </g>
        </g>
      </g>
    </g>
  </g>
</svg>
