<svg xmlns="http://www.w3.org/2000/svg" width="610" height="410.049" viewBox="0 0 610 410.049">
  <g id="Grupo_127177" data-name="Grupo 127177" transform="translate(-180 -408)">
    <g id="Grupo_127122" data-name="Grupo 127122" transform="translate(143.99 386.958)">
      <g id="Background_Complete" data-name="Background Complete" transform="translate(36.01 21.042)">
        <g id="Grupo_126749" data-name="Grupo 126749" transform="translate(0 301.935)">
          <g id="Grupo_126748" data-name="Grupo 126748">
            <g id="Grupo_126747" data-name="Grupo 126747">
              <g id="Grupo_126746" data-name="Grupo 126746">
                <path id="Trazado_177032" data-name="Trazado 177032" d="M55.43,375.452a9.587,9.587,0,0,0,5.537-8.979c-.083-5.294-4.173-9.526-9.139-9.452s-8.922,4.427-8.839,9.722a9.571,9.571,0,0,0,5.9,8.838c-13.791,2.355-12.869,17.376-12.869,17.376l32.712-.491S69.182,377.254,55.43,375.452Z" transform="translate(-36.01 -357.02)" fill="#f5f5f5"/>
              </g>
            </g>
          </g>
        </g>
        <g id="Grupo_126753" data-name="Grupo 126753" transform="translate(528.398 356.682)">
          <g id="Grupo_126752" data-name="Grupo 126752">
            <g id="Grupo_126751" data-name="Grupo 126751">
              <g id="Grupo_126750" data-name="Grupo 126750">
                <path id="Trazado_177033" data-name="Trazado 177033" d="M649.478,436.8a9.585,9.585,0,0,0,9.224-5.116c2.521-4.657,1.026-10.35-3.339-12.716s-9.947-.51-12.467,4.147a9.571,9.571,0,0,0,.82,10.6c-13.178-4.7-19.73,8.848-19.73,8.848l28.762,15.591S660.586,445.105,649.478,436.8Z" transform="translate(-623.985 -417.939)" fill="#f5f5f5"/>
              </g>
            </g>
          </g>
        </g>
        <g id="Grupo_126755" data-name="Grupo 126755" transform="translate(537.74 137.704)">
          <g id="Grupo_126754" data-name="Grupo 126754">
            <path id="Trazado_177034" data-name="Trazado 177034" d="M650.454,229.929a3.287,3.287,0,0,0,4.517-1.105,3.243,3.243,0,0,0,.358-2.58c-.4-1.379-.774-3.631.283-5.371,1.636-2.7,4.94-3.275,8-1.419s4.072,5.051,2.435,7.749c-1.056,1.741-3.227,2.449-4.634,2.731a3.244,3.244,0,0,0-2.123,1.51,3.288,3.288,0,0,0,1.105,4.517l17.97,8.663.076.057.427-.885L690.8,227.811a3.288,3.288,0,0,0-1.105-4.518,3.246,3.246,0,0,0-2.58-.358c-1.379.4-3.631.774-5.371-.282-2.7-1.637-3.275-4.94-1.419-8s5.051-4.073,7.749-2.435c1.741,1.056,2.448,3.226,2.731,4.634a3.242,3.242,0,0,0,1.51,2.123,3.287,3.287,0,0,0,4.517-1.105l8.119-16.841-.109-.052-15.984-11.937a3.288,3.288,0,0,0-4.517,1.105,3.244,3.244,0,0,0-.359,2.58c.4,1.379.775,3.631-.282,5.371-1.636,2.7-4.94,3.275-8,1.419s-4.072-5.051-2.435-7.749c1.056-1.741,3.226-2.448,4.634-2.731a3.244,3.244,0,0,0,2.123-1.51,3.288,3.288,0,0,0-1.106-4.517l-17.97-8.662-.1-.075L649.693,189.21a3.29,3.29,0,0,0,1.105,4.518,3.247,3.247,0,0,0,2.58.358c1.379-.4,3.631-.774,5.372.282,2.7,1.637,3.274,4.94,1.419,8s-5.051,4.073-7.749,2.435c-1.741-1.056-2.449-3.226-2.732-4.634a3.244,3.244,0,0,0-1.509-2.123,3.288,3.288,0,0,0-4.518,1.105L635,217.12l-.619.829.09.044Z" transform="translate(-634.38 -174.272)" fill="#f5f5f5"/>
          </g>
        </g>
        <g id="Grupo_126757" data-name="Grupo 126757" transform="translate(10.774 164.164)">
          <g id="Grupo_126756" data-name="Grupo 126756">
            <path id="Trazado_177035" data-name="Trazado 177035" d="M65.552,252.229a2.917,2.917,0,0,0,3.151-2.663,2.878,2.878,0,0,0-.734-2.191A6.184,6.184,0,0,1,66.07,243c.235-2.789,2.63-4.553,5.792-4.287s5.23,2.4,5,5.193a6.188,6.188,0,0,1-2.6,4,2.877,2.877,0,0,0-1.089,2.037,2.917,2.917,0,0,0,2.663,3.152l17.7-.218.083.015-.011-.872,3.167-17.412a2.917,2.917,0,0,0-2.663-3.151,2.876,2.876,0,0,0-2.19.735,6.187,6.187,0,0,1-4.378,1.9c-2.79-.235-4.553-2.63-4.288-5.793s2.4-5.23,5.193-5a6.183,6.183,0,0,1,4,2.6,2.878,2.878,0,0,0,2.037,1.09,2.917,2.917,0,0,0,3.151-2.663l-.2-16.584h-.108l-17.411-3.167a2.917,2.917,0,0,0-3.152,2.662,2.877,2.877,0,0,0,.735,2.191,6.186,6.186,0,0,1,1.9,4.378c-.235,2.79-2.63,4.553-5.793,4.288s-5.23-2.4-5-5.193a6.183,6.183,0,0,1,2.6-4,2.878,2.878,0,0,0,1.09-2.037,2.917,2.917,0,0,0-2.663-3.151l-17.7.218-.111-.021-2.96,16.273a2.918,2.918,0,0,0,2.663,3.152,2.881,2.881,0,0,0,2.191-.735,6.184,6.184,0,0,1,4.378-1.9c2.79.235,4.553,2.63,4.287,5.793s-2.4,5.23-5.193,5a6.186,6.186,0,0,1-4-2.6,2.875,2.875,0,0,0-2.037-1.09A2.917,2.917,0,0,0,48,230.464l.218,17.7-.164.9h.088Z" transform="translate(-47.998 -203.715)" fill="#f5f5f5"/>
          </g>
        </g>
        <g id="Grupo_126760" data-name="Grupo 126760" transform="translate(261.703 218.649)">
          <g id="Grupo_126759" data-name="Grupo 126759" transform="translate(0)">
            <g id="Grupo_126758" data-name="Grupo 126758">
              <path id="Trazado_177036" data-name="Trazado 177036" d="M352.552,277.251a36.363,36.363,0,0,1,8.879-3.858l1.829-8.789,14.848-.26,2.137,8.717a36.373,36.373,0,0,1,9.01,3.544l7.5-4.918L407.442,282l-4.652,7.671a36.358,36.358,0,0,1,3.859,8.881l8.787,1.829.261,14.849-8.717,2.137a36.41,36.41,0,0,1-3.544,9.008l4.918,7.5-10.314,10.684-7.672-4.652a36.322,36.322,0,0,1-8.88,3.859l-1.829,8.788-14.848.261-2.138-8.719a36.376,36.376,0,0,1-9.008-3.544l-7.5,4.919-10.683-10.315,4.652-7.672a36.357,36.357,0,0,1-3.859-8.88l-8.788-1.829-.261-14.848,8.719-2.138a36.393,36.393,0,0,1,3.543-9.008l-4.918-7.5L344.879,272.6l7.673,4.652Zm7.916,19.781a15.931,15.931,0,1,0,22.526-.4A15.93,15.93,0,0,0,360.467,297.031Z" transform="translate(-327.22 -264.344)" fill="#e0e0e0"/>
            </g>
          </g>
        </g>
        <g id="Grupo_126763" data-name="Grupo 126763" transform="translate(229.265 163.482)">
          <g id="Grupo_126762" data-name="Grupo 126762">
            <g id="Grupo_126761" data-name="Grupo 126761">
              <path id="Trazado_177037" data-name="Trazado 177037" d="M304.837,215.245a25.137,25.137,0,0,1,5.472-3.846l.016-6.2,10.012-2.24,2.658,5.6a25.142,25.142,0,0,1,6.59,1.146l4.395-4.372,8.664,5.5-2.081,5.838a25.156,25.156,0,0,1,3.845,5.474l6.2.016,2.241,10.012-5.6,2.658a25.1,25.1,0,0,1-1.147,6.589l4.372,4.4-5.5,8.664-5.839-2.081a25.13,25.13,0,0,1-5.473,3.845l-.016,6.2-10.012,2.24-2.658-5.6a25.175,25.175,0,0,1-6.589-1.147l-4.4,4.372-8.664-5.5,2.081-5.839a25.106,25.106,0,0,1-3.845-5.473l-6.2-.016-2.24-10.012,5.6-2.658a25.13,25.13,0,0,1,1.147-6.589l-4.372-4.4,5.5-8.664,5.84,2.082Zm8.106,12.286a11.006,11.006,0,1,0,15.189-3.4A11.006,11.006,0,0,0,312.943,227.53Z" transform="translate(-291.124 -202.957)" fill="#e0e0e0"/>
            </g>
          </g>
        </g>
        <g id="Grupo_126766" data-name="Grupo 126766" transform="translate(388.26 53.098)">
          <g id="Grupo_126765" data-name="Grupo 126765" transform="translate(0)">
            <g id="Grupo_126764" data-name="Grupo 126764">
              <path id="Trazado_177038" data-name="Trazado 177038" d="M481.758,92.415a25.124,25.124,0,0,1,5.472-3.845l.016-6.2,10.013-2.24,2.657,5.6a25.144,25.144,0,0,1,6.59,1.147L510.9,82.5l8.664,5.5-2.081,5.838a25.072,25.072,0,0,1,3.845,5.474l6.2.016,2.24,10.012-5.6,2.658a25.142,25.142,0,0,1-1.146,6.589l4.371,4.4-5.495,8.664-5.839-2.082a25.113,25.113,0,0,1-5.474,3.845l-.016,6.2-10.012,2.239-2.658-5.6a25.142,25.142,0,0,1-6.589-1.146l-4.395,4.372-8.664-5.5,2.081-5.838a25.134,25.134,0,0,1-3.846-5.473l-6.2-.016-2.24-10.012,5.6-2.659a25.142,25.142,0,0,1,1.146-6.589L470.423,99l5.5-8.664,5.84,2.081Zm8.106,12.286a11.006,11.006,0,1,0,15.189-3.4A11.006,11.006,0,0,0,489.864,104.7Z" transform="translate(-468.046 -80.127)" fill="#e0e0e0"/>
            </g>
          </g>
        </g>
        <g id="Grupo_126769" data-name="Grupo 126769" transform="translate(479.233 246.74)">
          <g id="Grupo_126768" data-name="Grupo 126768" transform="translate(0)">
            <g id="Grupo_126767" data-name="Grupo 126767">
              <path id="Trazado_177039" data-name="Trazado 177039" d="M582.988,307.89a25.124,25.124,0,0,1,5.472-3.845l.016-6.2,10.012-2.24,2.658,5.6a25.106,25.106,0,0,1,6.59,1.147l4.395-4.372,8.664,5.5-2.081,5.839a25.1,25.1,0,0,1,3.845,5.473l6.2.016L631,324.814l-5.6,2.659a25.14,25.14,0,0,1-1.146,6.589l4.371,4.395-5.495,8.664-5.839-2.081a25.115,25.115,0,0,1-5.474,3.845l-.016,6.2-10.012,2.24-2.658-5.6a25.144,25.144,0,0,1-6.589-1.147l-4.395,4.372-8.664-5.5,2.081-5.838a25.138,25.138,0,0,1-3.846-5.474l-6.2-.016-2.24-10.012,5.6-2.658a25.179,25.179,0,0,1,1.147-6.589l-4.372-4.4,5.5-8.664,5.84,2.082Zm8.106,12.286a11.007,11.007,0,1,0,15.189-3.4A11.005,11.005,0,0,0,591.094,320.175Z" transform="translate(-569.276 -295.602)" fill="#e0e0e0"/>
            </g>
          </g>
        </g>
        <g id="Grupo_126772" data-name="Grupo 126772" transform="translate(71.345 315.539)">
          <g id="Grupo_126771" data-name="Grupo 126771">
            <g id="Grupo_126770" data-name="Grupo 126770">
              <path id="Trazado_177040" data-name="Trazado 177040" d="M129.112,384.446a25.138,25.138,0,0,1,5.472-3.846l.016-6.2,10.012-2.24,2.658,5.6a25.144,25.144,0,0,1,6.59,1.146l4.395-4.372,8.664,5.5-2.081,5.838a25.135,25.135,0,0,1,3.845,5.474l6.2.016,2.241,10.012-5.6,2.658a25.135,25.135,0,0,1-1.146,6.589l4.371,4.4-5.5,8.664-5.839-2.081a25.13,25.13,0,0,1-5.473,3.845l-.016,6.2-10.012,2.24-2.658-5.6a25.139,25.139,0,0,1-6.589-1.147l-4.4,4.372-8.664-5.5,2.081-5.839a25.107,25.107,0,0,1-3.845-5.473l-6.2-.016-2.24-10.012,5.6-2.658a25.131,25.131,0,0,1,1.147-6.589l-4.372-4.4,5.5-8.664,5.84,2.082Zm8.106,12.286a11.006,11.006,0,1,0,15.189-3.4A11.006,11.006,0,0,0,137.218,396.732Z" transform="translate(-115.399 -372.158)" fill="#e0e0e0"/>
            </g>
          </g>
        </g>
        <g id="Grupo_126775" data-name="Grupo 126775" transform="translate(122.318 69.924)">
          <g id="Grupo_126774" data-name="Grupo 126774">
            <g id="Grupo_126773" data-name="Grupo 126773">
              <path id="Trazado_177041" data-name="Trazado 177041" d="M185.831,111.138a25.123,25.123,0,0,1,5.472-3.845l.016-6.2,10.013-2.24,2.657,5.6a25.107,25.107,0,0,1,6.59,1.147l4.395-4.372,8.664,5.5-2.081,5.838a25.1,25.1,0,0,1,3.845,5.474l6.2.016,2.24,10.012-5.6,2.659a25.143,25.143,0,0,1-1.146,6.589l4.371,4.395-5.494,8.664-5.839-2.081a25.129,25.129,0,0,1-5.473,3.845l-.017,6.2-10.012,2.24-2.658-5.6a25.144,25.144,0,0,1-6.589-1.147l-4.395,4.372-8.664-5.5,2.081-5.838a25.139,25.139,0,0,1-3.846-5.474l-6.2-.016-2.24-10.012,5.6-2.658a25.135,25.135,0,0,1,1.146-6.589l-4.372-4.4,5.5-8.664,5.84,2.082Zm8.106,12.286a11.007,11.007,0,1,0,15.189-3.4A11.006,11.006,0,0,0,193.937,123.423Z" transform="translate(-172.119 -98.85)" fill="#e0e0e0"/>
            </g>
          </g>
        </g>
        <g id="Grupo_126778" data-name="Grupo 126778" transform="translate(307.958 165.983)">
          <g id="Grupo_126777" data-name="Grupo 126777" transform="translate(0)">
            <g id="Grupo_126776" data-name="Grupo 126776">
              <path id="Trazado_177042" data-name="Trazado 177042" d="M388.85,214.845a18.6,18.6,0,0,1,4.055-2.85l.012-4.6,7.419-1.66,1.969,4.152a18.609,18.609,0,0,1,4.883.849l3.256-3.24,6.42,4.072-1.542,4.326a18.629,18.629,0,0,1,2.85,4.056l4.595.013,1.66,7.419-4.152,1.97a18.606,18.606,0,0,1-.849,4.882l3.24,3.257-4.072,6.419-4.326-1.542a18.628,18.628,0,0,1-4.056,2.85l-.013,4.595-7.419,1.66-1.969-4.152a18.608,18.608,0,0,1-4.883-.849l-3.256,3.24-6.42-4.072,1.542-4.326a18.637,18.637,0,0,1-2.85-4.056l-4.595-.012-1.66-7.419,4.152-1.97a18.631,18.631,0,0,1,.849-4.883l-3.24-3.257,4.072-6.42,4.327,1.543Zm6.007,9.1a8.155,8.155,0,1,0,11.255-2.519A8.155,8.155,0,0,0,394.857,223.949Z" transform="translate(-378.69 -205.74)" fill="#f5f5f5"/>
            </g>
          </g>
        </g>
        <g id="Grupo_126781" data-name="Grupo 126781" transform="translate(269.154)">
          <g id="Grupo_126780" data-name="Grupo 126780">
            <g id="Grupo_126779" data-name="Grupo 126779">
              <path id="Trazado_177043" data-name="Trazado 177043" d="M345.671,30.146a18.633,18.633,0,0,1,4.055-2.85l.012-4.595,7.419-1.66,1.97,4.151a18.631,18.631,0,0,1,4.882.849l3.257-3.24,6.42,4.073L372.144,31.2a18.572,18.572,0,0,1,2.849,4.056l4.595.012,1.661,7.419-4.152,1.97a18.6,18.6,0,0,1-.849,4.882l3.24,3.257-4.072,6.42-4.326-1.542a18.655,18.655,0,0,1-4.056,2.849l-.013,4.6-7.419,1.66-1.97-4.152a18.638,18.638,0,0,1-4.883-.849l-3.256,3.24-6.42-4.073,1.542-4.326a18.631,18.631,0,0,1-2.85-4.055l-4.595-.013-1.66-7.419,4.152-1.97a18.638,18.638,0,0,1,.849-4.882l-3.24-3.257,4.072-6.419,4.327,1.542Zm6.006,9.1a8.156,8.156,0,1,0,11.256-2.519A8.156,8.156,0,0,0,351.677,39.25Z" transform="translate(-335.511 -21.042)" fill="#f5f5f5"/>
            </g>
          </g>
        </g>
      </g>
      <g id="Chart_Icon" data-name="Chart Icon" transform="translate(586.848 291.434)">
        <g id="Grupo_126828" data-name="Grupo 126828">
          <g id="Grupo_126820" data-name="Grupo 126820" transform="translate(0 7.21)">
            <g id="Grupo_126786" data-name="Grupo 126786" transform="translate(0 41.913)">
              <g id="Grupo_126785" data-name="Grupo 126785">
                <g id="Grupo_126782" data-name="Grupo 126782" transform="translate(0.286 0.238)">
                  <rect id="Rectángulo_38325" data-name="Rectángulo 38325" width="11.649" height="8.918" fill="#e0e0e0"/>
                </g>
                <g id="Grupo_126784" data-name="Grupo 126784">
                  <g id="Grupo_126783" data-name="Grupo 126783">
                    <path id="Trazado_177044" data-name="Trazado 177044" d="M660.889,385.74a4.75,4.75,0,0,1-.043-.674c-.014-.484-.03-1.089-.049-1.824-.025-1.619-.059-3.806-.1-6.42l.193.192-11.648.041c-.052.05.442-.443.233-.233v1.193q0,.593,0,1.177,0,1.167,0,2.29c-.006,1.492-.013,2.918-.018,4.257l-.21-.211c3.41.019,6.293.066,8.348.105l2.408.057a7.153,7.153,0,0,1,.893.049,4.763,4.763,0,0,1-.8.049l-2.361.056c-2.042.04-4.983.087-8.484.105h-.21v-.211c-.006-1.339-.012-2.765-.018-4.257q0-1.122,0-2.29,0-.584,0-1.177v-1.193c-.209.208.284-.287.235-.235l11.648.041h.194l0,.192c-.021,2.738-.064,4.992-.1,6.542-.02.717-.037,1.308-.049,1.78A2.994,2.994,0,0,1,660.889,385.74Z" transform="translate(-648.955 -376.583)" fill="#263238"/>
                  </g>
                </g>
              </g>
            </g>
            <g id="Grupo_126791" data-name="Grupo 126791" transform="translate(14.773 21.35)">
              <g id="Grupo_126790" data-name="Grupo 126790">
                <g id="Grupo_126787" data-name="Grupo 126787" transform="translate(0.256 0.234)">
                  <rect id="Rectángulo_38326" data-name="Rectángulo 38326" width="11.649" height="29.486" fill="#e0e0e0"/>
                </g>
                <g id="Grupo_126789" data-name="Grupo 126789">
                  <g id="Grupo_126788" data-name="Grupo 126788">
                    <path id="Trazado_177045" data-name="Trazado 177045" d="M677.3,383.421a5.3,5.3,0,0,1-.028-.594c-.007-.415-.017-.967-.029-1.662-.014-1.478-.036-3.561-.062-6.158-.027-5.257-.063-12.588-.106-21.072l.225.224-11.647.01c.464-.469.128-.125.232-.227v2.151q0,1.072,0,2.13,0,2.114,0,4.161c-.005,2.726-.01,5.352-.014,7.851-.02,4.985-.037,9.455-.052,13.187l-.163-.164,8.484.089,2.329.04.615.017a1.139,1.139,0,0,1,.22.017,6.824,6.824,0,0,1-.773.034l-2.293.04-8.583.088-.163,0v-.164c-.015-3.732-.032-8.2-.052-13.187,0-2.5-.009-5.125-.014-7.851q0-2.045,0-4.161,0-1.058,0-2.13v-2.151c.105-.106-.236.226.235-.241l11.647.01h.226v.225c-.043,8.546-.08,15.93-.106,21.225-.026,2.575-.048,4.641-.062,6.106-.013.676-.022,1.211-.029,1.616A3.708,3.708,0,0,1,677.3,383.421Z" transform="translate(-665.393 -353.701)" fill="#263238"/>
                  </g>
                </g>
              </g>
            </g>
            <g id="Grupo_126796" data-name="Grupo 126796" transform="translate(30.941 34.041)">
              <g id="Grupo_126795" data-name="Grupo 126795">
                <g id="Grupo_126792" data-name="Grupo 126792" transform="translate(0.286 0.238)">
                  <rect id="Rectángulo_38327" data-name="Rectángulo 38327" width="11.649" height="16.791" fill="#e0e0e0"/>
                </g>
                <g id="Grupo_126794" data-name="Grupo 126794">
                  <g id="Grupo_126793" data-name="Grupo 126793">
                    <path id="Trazado_177046" data-name="Trazado 177046" d="M695.319,384.852a2.155,2.155,0,0,1-.025-.34c-.006-.253-.015-.562-.025-.936-.014-.862-.034-2.027-.058-3.472-.026-3-.063-7.155-.105-12.043l.213.214-11.647.021c-.053.05.442-.441.233-.231V370.4q0,1.158,0,2.288c0,1.505-.006,2.97-.009,4.385-.012,2.821-.023,5.44-.033,7.779l-.189-.189,8.423.1,2.364.048a7.664,7.664,0,0,1,.861.042,5.5,5.5,0,0,1-.785.041l-2.322.049-8.541.1-.188,0v-.191c-.01-2.339-.021-4.958-.033-7.779,0-1.415-.005-2.879-.009-4.385q0-1.13,0-2.288v-2.337c-.209.208.284-.288.235-.237l11.647.021h.216l0,.213c-.043,4.944-.08,9.148-.106,12.182-.023,1.426-.043,2.575-.057,3.425A10.252,10.252,0,0,1,695.319,384.852Z" transform="translate(-683.385 -367.823)" fill="#263238"/>
                  </g>
                </g>
              </g>
            </g>
            <g id="Grupo_126801" data-name="Grupo 126801" transform="translate(46.442 12.795)">
              <g id="Grupo_126800" data-name="Grupo 126800">
                <g id="Grupo_126797" data-name="Grupo 126797" transform="translate(0.256 0.234)">
                  <rect id="Rectángulo_38328" data-name="Rectángulo 38328" width="11.649" height="38.04" fill="#e0e0e0"/>
                </g>
                <g id="Grupo_126799" data-name="Grupo 126799">
                  <g id="Grupo_126798" data-name="Grupo 126798">
                    <path id="Trazado_177047" data-name="Trazado 177047" d="M712.538,382.457a1.245,1.245,0,0,1-.014-.2c0-.151-.008-.336-.014-.564q-.011-.787-.03-2.158c-.015-1.9-.037-4.608-.064-7.981-.027-6.792-.063-16.262-.105-27.135l.227.227-11.646.006c.463-.469.128-.123.232-.226v2.851q0,1.419,0,2.818,0,2.8,0,5.49c-.006,3.587-.012,7.023-.017,10.261-.023,6.46-.045,12.124-.061,16.612l-.15-.15,8.532.083,2.3.036.6.016a1.282,1.282,0,0,1,.214.015.792.792,0,0,1-.184.014l-.575.016-2.267.037-8.622.082-.149,0v-.151c-.017-4.488-.038-10.152-.062-16.612-.005-3.238-.011-6.674-.016-10.261q0-2.692,0-5.49l0-2.818v-2.851c.105-.107-.236.224.236-.243l11.646.006h.228v.227c-.041,10.935-.078,20.46-.1,27.291-.027,3.352-.049,6.041-.065,7.93q-.019,1.34-.029,2.108c-.006.217-.011.394-.015.537A.654.654,0,0,1,712.538,382.457Z" transform="translate(-700.633 -344.182)" fill="#263238"/>
                  </g>
                </g>
              </g>
            </g>
            <g id="Grupo_126803" data-name="Grupo 126803" transform="translate(39.766 2.066)">
              <g id="Grupo_126802" data-name="Grupo 126802">
                <path id="Trazado_177048" data-name="Trazado 177048" d="M694.444,346.242l-1.24-.684,9.354-13.314,1.24.684Z" transform="translate(-693.205 -332.243)" fill="#263238"/>
              </g>
            </g>
            <g id="Grupo_126805" data-name="Grupo 126805" transform="translate(25.318 8.449)">
              <g id="Grupo_126804" data-name="Grupo 126804">
                <rect id="Rectángulo_38329" data-name="Rectángulo 38329" width="1.515" height="10.305" transform="matrix(0.723, -0.691, 0.691, 0.723, 0, 1.047)" fill="#263238"/>
              </g>
            </g>
            <g id="Grupo_126807" data-name="Grupo 126807" transform="translate(7.518 8.793)">
              <g id="Grupo_126806" data-name="Grupo 126806">
                <rect id="Rectángulo_38330" data-name="Rectángulo 38330" width="17.123" height="1.515" transform="matrix(0.613, -0.79, 0.79, 0.613, 0, 13.525)" fill="#263238"/>
              </g>
            </g>
            <g id="Grupo_126811" data-name="Grupo 126811" transform="translate(31.094 11.788)">
              <g id="Grupo_126808" data-name="Grupo 126808" transform="translate(0.235 0.198)">
                <path id="Trazado_177049" data-name="Trazado 177049" d="M695.262,349.006a5.723,5.723,0,1,1-5.724-5.724A5.723,5.723,0,0,1,695.262,349.006Z" transform="translate(-683.816 -343.282)" fill="#e0e0e0"/>
              </g>
              <g id="Grupo_126810" data-name="Grupo 126810">
                <g id="Grupo_126809" data-name="Grupo 126809">
                  <path id="Trazado_177050" data-name="Trazado 177050" d="M695.236,348.983c-.05,0-.031-.51-.268-1.376a5.706,5.706,0,0,0-2.093-3.042,5.567,5.567,0,0,0-5.238-.755,5.452,5.452,0,0,0-2.549,1.925,5.482,5.482,0,0,0,0,6.494,5.446,5.446,0,0,0,2.549,1.926,5.568,5.568,0,0,0,5.238-.755,5.706,5.706,0,0,0,2.093-3.042c.236-.865.217-1.378.268-1.375a1.1,1.1,0,0,1,.029.368,4.474,4.474,0,0,1-.12,1.051,5.7,5.7,0,0,1-2.07,3.261,5.889,5.889,0,0,1-8.357-1.162,5.9,5.9,0,0,1,0-7.038,5.891,5.891,0,0,1,8.357-1.162,5.7,5.7,0,0,1,2.07,3.261,4.474,4.474,0,0,1,.12,1.051A1.111,1.111,0,0,1,695.236,348.983Z" transform="translate(-683.555 -343.062)" fill="#263238"/>
                </g>
              </g>
            </g>
            <g id="Grupo_126815" data-name="Grupo 126815" transform="translate(16.332)">
              <g id="Grupo_126812" data-name="Grupo 126812" transform="translate(0.235 0.198)">
                <path id="Trazado_177051" data-name="Trazado 177051" d="M678.836,335.888a5.723,5.723,0,1,1-5.724-5.723A5.724,5.724,0,0,1,678.836,335.888Z" transform="translate(-667.39 -330.165)" fill="#e0e0e0"/>
              </g>
              <g id="Grupo_126814" data-name="Grupo 126814">
                <g id="Grupo_126813" data-name="Grupo 126813">
                  <path id="Trazado_177052" data-name="Trazado 177052" d="M678.81,335.865c-.05,0-.031-.51-.268-1.375a5.7,5.7,0,0,0-2.093-3.042,5.567,5.567,0,0,0-5.238-.756,5.455,5.455,0,0,0-2.549,1.926,5.482,5.482,0,0,0,0,6.494,5.451,5.451,0,0,0,2.549,1.926,5.567,5.567,0,0,0,5.238-.755,5.7,5.7,0,0,0,2.093-3.043c.236-.865.217-1.378.268-1.375a1.107,1.107,0,0,1,.029.368,4.481,4.481,0,0,1-.12,1.052,5.7,5.7,0,0,1-2.07,3.261,5.891,5.891,0,0,1-8.358-1.163,5.9,5.9,0,0,1,0-7.037,5.888,5.888,0,0,1,8.357-1.162,5.694,5.694,0,0,1,2.07,3.261,4.469,4.469,0,0,1,.12,1.051A1.1,1.1,0,0,1,678.81,335.865Z" transform="translate(-667.129 -329.944)" fill="#263238"/>
                </g>
              </g>
            </g>
            <g id="Grupo_126819" data-name="Grupo 126819" transform="translate(0.153 19.973)">
              <g id="Grupo_126816" data-name="Grupo 126816" transform="translate(0.234 0.198)">
                <circle id="Elipse_5813" data-name="Elipse 5813" cx="5.723" cy="5.723" r="5.723" fill="#e0e0e0"/>
              </g>
              <g id="Grupo_126818" data-name="Grupo 126818">
                <g id="Grupo_126817" data-name="Grupo 126817">
                  <path id="Trazado_177053" data-name="Trazado 177053" d="M660.806,358.09c-.05,0-.032-.51-.268-1.376a5.706,5.706,0,0,0-2.093-3.042,5.57,5.57,0,0,0-5.239-.755,5.457,5.457,0,0,0-2.548,1.925,5.484,5.484,0,0,0,0,6.494,5.456,5.456,0,0,0,2.549,1.927,5.571,5.571,0,0,0,5.239-.756,5.706,5.706,0,0,0,2.093-3.042c.235-.865.217-1.378.268-1.375a1.093,1.093,0,0,1,.028.368,4.411,4.411,0,0,1-.119,1.051,5.7,5.7,0,0,1-2.07,3.261,5.89,5.89,0,0,1-8.358-1.162,5.9,5.9,0,0,1,0-7.038,5.891,5.891,0,0,1,8.357-1.162,5.7,5.7,0,0,1,2.07,3.261,4.415,4.415,0,0,1,.119,1.051A1.1,1.1,0,0,1,660.806,358.09Z" transform="translate(-649.125 -352.169)" fill="#263238"/>
                </g>
              </g>
            </g>
          </g>
          <g id="Grupo_126827" data-name="Grupo 126827" transform="translate(47.17)">
            <g id="Grupo_126826" data-name="Grupo 126826">
              <g id="Grupo_126821" data-name="Grupo 126821" transform="translate(0.198 0.234)">
                <path id="Trazado_177054" data-name="Trazado 177054" d="M707.461,333.777a5.8,5.8,0,1,1,5.8-5.8A5.8,5.8,0,0,1,707.461,333.777Z" transform="translate(-701.664 -322.181)" fill="#e0e0e0"/>
              </g>
              <g id="Grupo_126825" data-name="Grupo 126825">
                <g id="Grupo_126822" data-name="Grupo 126822" transform="translate(0.198 0.234)">
                  <path id="Trazado_177055" data-name="Trazado 177055" d="M707.461,333.777a5.8,5.8,0,1,1,5.8-5.8A5.8,5.8,0,0,1,707.461,333.777Z" transform="translate(-701.664 -322.181)" fill="none"/>
                </g>
                <g id="Grupo_126824" data-name="Grupo 126824">
                  <g id="Grupo_126823" data-name="Grupo 126823">
                    <path id="Trazado_177056" data-name="Trazado 177056" d="M707.439,333.751c0-.05.517-.031,1.393-.27a5.8,5.8,0,0,0,3.082-2.123,5.627,5.627,0,0,0,.767-5.306,5.54,5.54,0,0,0-1.952-2.583,5.545,5.545,0,0,0-6.579,0,5.534,5.534,0,0,0-1.952,2.583,5.629,5.629,0,0,0,.767,5.307,5.793,5.793,0,0,0,3.082,2.122c.876.239,1.395.219,1.392.27a1.1,1.1,0,0,1-.372.029,4.523,4.523,0,0,1-1.065-.122,5.774,5.774,0,0,1-3.3-2.1,5.959,5.959,0,0,1,1.177-8.459,5.963,5.963,0,0,1,7.122,0,5.959,5.959,0,0,1,1.177,8.459,5.784,5.784,0,0,1-3.3,2.1,4.523,4.523,0,0,1-1.065.122A1.109,1.109,0,0,1,707.439,333.751Z" transform="translate(-701.443 -321.921)" fill="#263238"/>
                  </g>
                </g>
              </g>
            </g>
          </g>
        </g>
      </g>
      <g id="Puzzle_Icon" data-name="Puzzle Icon" transform="translate(540.306 61.662)">
        <g id="Grupo_126833" data-name="Grupo 126833">
          <g id="Grupo_126832" data-name="Grupo 126832">
            <g id="Grupo_126829" data-name="Grupo 126829" transform="translate(0.262 0.308)">
              <path id="Trazado_177057" data-name="Trazado 177057" d="M629.77,120.32a2.924,2.924,0,0,0,1.8-3.724,2.885,2.885,0,0,0-1.568-1.7,6.2,6.2,0,0,1-3.526-3.231c-.926-2.649.546-5.241,3.549-6.291s5.768.061,6.694,2.71a6.2,6.2,0,0,1-.746,4.724,2.882,2.882,0,0,0-.164,2.31,2.924,2.924,0,0,0,3.724,1.8l16.105-7.433.081-.02-.365-.794-4.219-17.228a2.923,2.923,0,0,0-3.724-1.8,2.887,2.887,0,0,0-1.7,1.568,6.2,6.2,0,0,1-3.231,3.526c-2.649.926-5.241-.546-6.291-3.549s.062-5.769,2.71-6.694a6.2,6.2,0,0,1,4.724.746,2.885,2.885,0,0,0,2.31.164,2.924,2.924,0,0,0,1.795-3.725l-6.966-15.092-.1.045-17.228,4.218a2.924,2.924,0,0,0-1.8,3.725,2.885,2.885,0,0,0,1.568,1.7,6.2,6.2,0,0,1,3.526,3.231c.926,2.649-.546,5.242-3.549,6.291s-5.769-.061-6.694-2.71a6.192,6.192,0,0,1,.746-4.723,2.885,2.885,0,0,0,.164-2.31,2.925,2.925,0,0,0-3.725-1.8l-16.1,7.433-.109.027,3.943,16.1a2.924,2.924,0,0,0,3.725,1.795,2.881,2.881,0,0,0,1.7-1.567,6.2,6.2,0,0,1,3.232-3.526c2.648-.926,5.241.546,6.29,3.548s-.061,5.769-2.71,6.7a6.2,6.2,0,0,1-4.725-.746,2.879,2.879,0,0,0-2.31-.164,2.923,2.923,0,0,0-1.795,3.724l7.432,16.1.219.893.081-.037Z" transform="translate(-597.456 -66.585)" fill="#ebebeb"/>
            </g>
            <g id="Grupo_126831" data-name="Grupo 126831">
              <g id="Grupo_126830" data-name="Grupo 126830">
                <path id="Trazado_177058" data-name="Trazado 177058" d="M629.74,120.286s-.378.113-1.124.306l-3.316.84-12.761,3.179.019-.006-.08.037-.12.057-.032-.13c-.066-.266-.143-.577-.221-.892l.007.021-7.469-16.088,0,0,0-.009a3.085,3.085,0,0,1,3.872-3.949c.388.129.7.34,1.042.482a8.488,8.488,0,0,0,1.051.394,5.265,5.265,0,0,0,2.232.217,4.376,4.376,0,0,0,2.071-.918,4.63,4.63,0,0,0,1.583-4.25,6.389,6.389,0,0,0-2.283-4.268,4.265,4.265,0,0,0-2.316-.888,4.4,4.4,0,0,0-2.457.565,5.557,5.557,0,0,0-1.807,1.869A9.25,9.25,0,0,0,607,98.04a3.056,3.056,0,0,1-.868,1.177,3.127,3.127,0,0,1-4.955-1.364l0-.01,0-.009c-1.252-5.1-2.582-10.51-3.954-16.1l-.052-.209.21-.052.109-.026-.04.013,16.1-7.441.009,0,.012,0a3.137,3.137,0,0,1,2.47.169,3.155,3.155,0,0,1,1.287,4.409,7.943,7.943,0,0,0-.777,2.215,4.276,4.276,0,0,0,1.515,4.162,5.06,5.06,0,0,0,4.525.728,5.717,5.717,0,0,0,3.735-2.845,4.222,4.222,0,0,0-.568-4.534,6.658,6.658,0,0,0-1.951-1.511c-.363-.212-.758-.326-1.169-.588a3.12,3.12,0,0,1-.963-1,3.16,3.16,0,0,1,1.64-4.623l.013-.005.007,0,.014,0,17.229-4.217-.042.014.1-.045.21-.1.1.211L647.9,81.547l0,.01,0,.011a3.156,3.156,0,0,1-2.69,4.177,3.09,3.09,0,0,1-1.393-.188c-.456-.193-.782-.4-1.192-.557a6.392,6.392,0,0,0-2.439-.539,4.264,4.264,0,0,0-3.834,2.573,6.307,6.307,0,0,0,1.686,6.64,4.287,4.287,0,0,0,4.381.8,4.4,4.4,0,0,0,1.833-1.357,8.28,8.28,0,0,0,1.2-1.988,3.1,3.1,0,0,1,1.784-1.7,3.129,3.129,0,0,1,4.048,1.9l0,.01,0,.009,4.2,17.232-.012-.033.365.794.093.2-.217.052-.082.02.033-.011-16.115,7.409-.006,0-.008,0a3.077,3.077,0,0,1-3.907-1.867,3.043,3.043,0,0,1,.066-2.248,10.231,10.231,0,0,0,.817-1.942,5.384,5.384,0,0,0,.218-1.991,4.3,4.3,0,0,0-.631-1.821,4.367,4.367,0,0,0-2.987-2,6.305,6.305,0,0,0-3.416.418,5.838,5.838,0,0,0-2.562,1.887,4.385,4.385,0,0,0-.032,5.228,6.285,6.285,0,0,0,1.8,1.556,12.591,12.591,0,0,1,1.854,1.059,2.987,2.987,0,0,1,.836,3.1,2.916,2.916,0,0,1-1.237,1.6,2.258,2.258,0,0,1-.633.288,5.8,5.8,0,0,0,.607-.325,2.894,2.894,0,0,0,.338-4.565,12.89,12.89,0,0,0-1.843-1.024,6.438,6.438,0,0,1-1.864-1.583,4.564,4.564,0,0,1,0-5.458,6.052,6.052,0,0,1,2.646-1.975,6.539,6.539,0,0,1,3.546-.449,4.627,4.627,0,0,1,3.171,2.111,4.579,4.579,0,0,1,.678,1.933,5.652,5.652,0,0,1-.22,2.1,10.4,10.4,0,0,1-.821,1.982,2.773,2.773,0,0,0,3.469,3.7l-.013.005,16.094-7.456.016-.007.017,0,.082-.02-.123.255-.367-.792-.008-.016,0-.018q-2-8.119-4.236-17.223l.005.018a2.719,2.719,0,0,0-3.519-1.645,2.687,2.687,0,0,0-1.545,1.477,8.7,8.7,0,0,1-1.263,2.093,4.833,4.833,0,0,1-2.01,1.485A4.714,4.714,0,0,1,637.76,94a6.735,6.735,0,0,1-1.808-7.139,4.7,4.7,0,0,1,4.236-2.847,6.832,6.832,0,0,1,2.613.571c.406.155.829.406,1.181.552a2.638,2.638,0,0,0,1.19.159,2.7,2.7,0,0,0,2.3-3.578l.008.021-6.97-15.091.308.114-.1.045-.021.009-.022.005-17.228,4.22.022-.006-.011,0a2.692,2.692,0,0,0-1.4,3.939,2.66,2.66,0,0,0,.818.847c.315.207.755.348,1.135.568a7.116,7.116,0,0,1,2.088,1.62,4.688,4.688,0,0,1,.631,5.037,6.176,6.176,0,0,1-4.032,3.091,5.522,5.522,0,0,1-4.935-.815,4.738,4.738,0,0,1-1.679-4.6,8.39,8.39,0,0,1,.821-2.344,2.691,2.691,0,0,0,.278-2.151,2.72,2.72,0,0,0-1.363-1.646,2.69,2.69,0,0,0-2.116-.147l.02-.008-16.108,7.425-.019.008-.021.005-.109.026.159-.261,3.93,16.1-.005-.019a2.726,2.726,0,0,0,4.319,1.194,2.648,2.648,0,0,0,.76-1.031,9.594,9.594,0,0,1,.654-1.24,5.935,5.935,0,0,1,1.942-1.993,4.773,4.773,0,0,1,2.678-.612,4.644,4.644,0,0,1,2.517.97,6.748,6.748,0,0,1,2.415,4.524,4.985,4.985,0,0,1-1.725,4.562,4.7,4.7,0,0,1-2.241.983,5.589,5.589,0,0,1-2.374-.235,8.692,8.692,0,0,1-1.092-.412c-.359-.153-.684-.367-1.01-.474a2.77,2.77,0,0,0-3.481,3.539l-.005-.013c2.839,6.188,5.337,11.632,7.4,16.121l0,.01,0,.011.216.893-.152-.073.08-.037.011-.005.01,0,12.782-3.076,3.331-.787C629.351,120.361,629.74,120.286,629.74,120.286Z" transform="translate(-597.165 -66.242)" fill="#263238"/>
              </g>
            </g>
          </g>
        </g>
      </g>
      <g id="Person_Icon" data-name="Person Icon" transform="translate(49.622 335.943)">
        <g id="Grupo_126840" data-name="Grupo 126840">
          <g id="Grupo_126839" data-name="Grupo 126839">
            <g id="Grupo_126838" data-name="Grupo 126838">
              <g id="Grupo_126837" data-name="Grupo 126837">
                <g id="Grupo_126834" data-name="Grupo 126834" transform="translate(0.227 0.169)">
                  <path id="Trazado_177059" data-name="Trazado 177059" d="M82.5,401.145a15.348,15.348,0,0,0,8.865-14.374c-.132-8.477-6.682-15.252-14.631-15.134S62.451,378.725,62.582,387.2a15.324,15.324,0,0,0,9.45,14.149c-22.08,3.771-20.6,27.819-20.6,27.819l52.372-.785S104.519,404.03,82.5,401.145Z" transform="translate(-51.409 -371.635)" fill="#ebebeb"/>
                </g>
                <g id="Grupo_126836" data-name="Grupo 126836">
                  <g id="Grupo_126835" data-name="Grupo 126835">
                    <path id="Trazado_177060" data-name="Trazado 177060" d="M82.476,401.126l.693.1a17.094,17.094,0,0,1,1.943.333,21.871,21.871,0,0,1,15.162,11.53,33.908,33.908,0,0,1,3.682,15.283l0,.172-.179,0-52.371.838-.227,0-.007-.221a33.81,33.81,0,0,1,.622-7.455,31.212,31.212,0,0,1,2.345-7.359,22.7,22.7,0,0,1,7.372-9.045,23.771,23.771,0,0,1,5.047-2.718,30.007,30.007,0,0,1,5.41-1.481l-.045.438a14.919,14.919,0,0,1-6.8-5.479,16.146,16.146,0,0,1-2.737-7.969,15.95,15.95,0,0,1,6.266-13.94A13.834,13.834,0,0,1,82.187,372.5a15.158,15.158,0,0,1,8.209,8.637,15.65,15.65,0,0,1,1.047,5.161,16.063,16.063,0,0,1-.477,4.65,15.51,15.51,0,0,1-3.44,6.536,14.38,14.38,0,0,1-3.6,2.933,8.237,8.237,0,0,1-1.06.536l-.386.173.347-.186c.235-.13.619-.312,1.059-.593a14.829,14.829,0,0,0,3.526-2.968,15.461,15.461,0,0,0,3.336-6.487,15.911,15.911,0,0,0,.438-4.583,15.427,15.427,0,0,0-1.06-5.067,14.862,14.862,0,0,0-8.067-8.418,13.472,13.472,0,0,0-13.165,1.652,15.548,15.548,0,0,0-6.069,13.591,15.708,15.708,0,0,0,2.674,7.746,14.486,14.486,0,0,0,6.6,5.307l.732.287-.776.151a29.522,29.522,0,0,0-5.319,1.46,23.324,23.324,0,0,0-4.944,2.666,22.256,22.256,0,0,0-7.22,8.865,30.824,30.824,0,0,0-2.31,7.249,33.457,33.457,0,0,0-.618,7.339l-.235-.217,52.373-.734-.177.174a33.742,33.742,0,0,0-3.577-15.138,22.044,22.044,0,0,0-7.931-8.709,22.816,22.816,0,0,0-7-2.852c-.833-.233-1.538-.306-1.965-.409Z" transform="translate(-51.156 -371.447)" fill="#263238"/>
                  </g>
                </g>
              </g>
            </g>
          </g>
        </g>
      </g>
      <g id="Speech_Bubbles_Icon" data-name="Speech Bubbles Icon" transform="translate(63.32 54.084)">
        <g id="Grupo_126854" data-name="Grupo 126854" transform="translate(0 0)">
          <g id="Grupo_126845" data-name="Grupo 126845" transform="translate(25.121 15.503)">
            <g id="Grupo_126844" data-name="Grupo 126844">
              <g id="Grupo_126841" data-name="Grupo 126841" transform="translate(0.225 0.176)">
                <path id="Trazado_177061" data-name="Trazado 177061" d="M133.508,75.256H105.25A10.647,10.647,0,0,0,94.6,85.9v14.305a10.647,10.647,0,0,0,10.647,10.647h17.878l8.752,8.632.049-8.632h1.578a10.647,10.647,0,0,0,10.648-10.647V85.9A10.647,10.647,0,0,0,133.508,75.256Z" transform="translate(-94.603 -75.256)" fill="#ebebeb"/>
              </g>
              <g id="Grupo_126843" data-name="Grupo 126843">
                <g id="Grupo_126842" data-name="Grupo 126842">
                  <path id="Trazado_177062" data-name="Trazado 177062" d="M133.482,75.236a1.134,1.134,0,0,1,.235-.006l.693.018a10.18,10.18,0,0,1,2.636.539,10.547,10.547,0,0,1,3.714,2.2,10.678,10.678,0,0,1,3.074,4.918,11.5,11.5,0,0,1,.439,3.423q.007,1.8.013,3.752c.006,2.607.014,5.418.022,8.412a15.821,15.821,0,0,1-.405,4.641,10.858,10.858,0,0,1-6.656,7.224,11.1,11.1,0,0,1-2.62.626c-.914.073-1.816.067-2.724.066l.214-.213c-.013,2.73-.026,5.644-.04,8.631l0,.53-.378-.372L122.94,111l.163.066-11.813,0h-4.224a18.756,18.756,0,0,1-4.2-.264,10.9,10.9,0,0,1-6.7-4.6,10.634,10.634,0,0,1-1.567-3.715,18.085,18.085,0,0,1-.246-3.925q0-3.855.008-7.541,0-1.841,0-3.636a18.056,18.056,0,0,1,.206-3.565,10.831,10.831,0,0,1,3.315-5.908A10.777,10.777,0,0,1,103.6,75.19a18.572,18.572,0,0,1,3-.128l2.85.008,17.587.075,4.781.043,1.244.023c.28.008.423.024.423.024s-.143.016-.423.024l-1.244.022-4.781.044-17.587.075-2.85.008a18.277,18.277,0,0,0-2.944.137,10.414,10.414,0,0,0-5.5,2.656,10.445,10.445,0,0,0-3.175,5.7,17.814,17.814,0,0,0-.188,3.488q0,1.794,0,3.636,0,3.683.008,7.541a17.665,17.665,0,0,0,.243,3.829,10.185,10.185,0,0,0,1.506,3.557,10.44,10.44,0,0,0,6.417,4.4,18.364,18.364,0,0,0,4.1.252h4.224l11.813,0h.1l.067.066,8.747,8.636-.381.158c.021-2.987.04-5.9.058-8.631l0-.215.213,0c.912,0,1.814.011,2.68-.056a10.743,10.743,0,0,0,2.52-.6,10.473,10.473,0,0,0,6.435-6.939,15.513,15.513,0,0,0,.412-4.537c.008-2.993.015-5.8.022-8.412q.007-1.953.013-3.752a11.3,11.3,0,0,0-.4-3.351A10.626,10.626,0,0,0,137,75.916,12.5,12.5,0,0,0,133.482,75.236Z" transform="translate(-94.353 -75.06)" fill="#263238"/>
                </g>
              </g>
            </g>
          </g>
          <g id="Grupo_126853" data-name="Grupo 126853">
            <g id="Grupo_126849" data-name="Grupo 126849">
              <g id="Grupo_126846" data-name="Grupo 126846" transform="translate(0.186 0.178)">
                <path id="Trazado_177063" data-name="Trazado 177063" d="M79.663,58.007h34.654a13.056,13.056,0,0,1,13.057,13.057V88.608a13.057,13.057,0,0,1-13.057,13.057H92.392L82.175,112.249,81.6,101.665H79.663A13.056,13.056,0,0,1,66.606,88.608V71.064A13.056,13.056,0,0,1,79.663,58.007Z" transform="translate(-66.606 -58.007)" fill="#ebebeb"/>
              </g>
              <g id="Grupo_126848" data-name="Grupo 126848">
                <g id="Grupo_126847" data-name="Grupo 126847">
                  <path id="Trazado_177064" data-name="Trazado 177064" d="M79.642,57.987a1.936,1.936,0,0,1-.287.031l-.844.06c-.372.022-.825.127-1.367.206-.27.046-.552.14-.858.217a6.379,6.379,0,0,0-.964.306,13.036,13.036,0,0,0-8.1,8.67,13.835,13.835,0,0,0-.5,4.119q.005,2.2.013,4.6c.007,3.2.015,6.644.023,10.315a19.021,19.021,0,0,0,.505,5.576,12.887,12.887,0,0,0,7.916,8.539,13.145,13.145,0,0,0,3.1.734c1.067.083,2.173.075,3.291.069h.2l.011.2c.185,3.348.383,6.922.586,10.584l-.385-.143L92.2,101.484l.068-.071h.1l14.66,0H112.2a20.9,20.9,0,0,0,5.021-.349,12.861,12.861,0,0,0,9.639-9.881,23.29,23.29,0,0,0,.266-4.705q0-4.718.008-9.231,0-2.254,0-4.45a21.545,21.545,0,0,0-.246-4.276,12.889,12.889,0,0,0-3.951-6.976,12.777,12.777,0,0,0-6.778-3.224,23.417,23.417,0,0,0-3.611-.159l-3.49-.007-21.53-.075-5.853-.044L80.16,58.01c-.343-.008-.519-.023-.519-.023s.175-.016.519-.024l1.522-.023,5.853-.044,21.53-.075,3.49-.007a23.565,23.565,0,0,1,3.663.147,13.147,13.147,0,0,1,6.987,3.295,13.279,13.279,0,0,1,4.094,7.182,21.977,21.977,0,0,1,.264,4.357q0,2.2,0,4.45,0,4.508.008,9.231a23.762,23.762,0,0,1-.27,4.8,13.313,13.313,0,0,1-9.977,10.243,21.323,21.323,0,0,1-5.127.362h-5.172l-14.66,0,.166-.07L82.315,112.385l-.357.369-.027-.513c-.2-3.663-.388-7.236-.567-10.585l.214.2c-1.113,0-2.22.011-3.335-.078a13.593,13.593,0,0,1-3.2-.765A13.274,13.274,0,0,1,66.9,92.19a19.349,19.349,0,0,1-.5-5.679c.008-3.671.016-7.118.023-10.315q.007-2.4.013-4.6a14.116,14.116,0,0,1,.534-4.191,13.137,13.137,0,0,1,8.3-8.727,6.363,6.363,0,0,1,.979-.294c.311-.071.6-.161.87-.2.548-.068,1.006-.163,1.381-.173l.848-.025A1.7,1.7,0,0,1,79.642,57.987Z" transform="translate(-66.399 -57.809)" fill="#263238"/>
                </g>
              </g>
            </g>
            <g id="Grupo_126850" data-name="Grupo 126850" transform="translate(13.337 17.44)">
              <path id="Trazado_177065" data-name="Trazado 177065" d="M89.938,81.565a4.349,4.349,0,1,1-4.349-4.35A4.349,4.349,0,0,1,89.938,81.565Z" transform="translate(-81.24 -77.215)" fill="#fff"/>
            </g>
            <g id="Grupo_126851" data-name="Grupo 126851" transform="translate(26.219 17.44)">
              <path id="Trazado_177066" data-name="Trazado 177066" d="M104.274,81.565a4.35,4.35,0,1,1-4.35-4.35A4.349,4.349,0,0,1,104.274,81.565Z" transform="translate(-95.575 -77.215)" fill="#fff"/>
            </g>
            <g id="Grupo_126852" data-name="Grupo 126852" transform="translate(39.103 17.44)">
              <path id="Trazado_177067" data-name="Trazado 177067" d="M118.61,81.565a4.35,4.35,0,1,1-4.35-4.35A4.349,4.349,0,0,1,118.61,81.565Z" transform="translate(-109.911 -77.215)" fill="#fff"/>
            </g>
          </g>
        </g>
      </g>
      <g id="Arrows" transform="translate(90.43 53.927)">
        <g id="Grupo_126857" data-name="Grupo 126857" transform="translate(46.26)">
          <g id="Grupo_126855" data-name="Grupo 126855" transform="translate(0 19.081)">
            <path id="Trazado_177068" data-name="Trazado 177068" d="M185.741,219.262l-37.7-14.634A218.418,218.418,0,0,1,246.324,92.32c5.579-3.062,11.375-5.923,17.229-8.5,4.009-1.767,8.113-3.432,12.2-4.95l14.083,37.909c-3.338,1.24-6.693,2.6-9.973,4.047-4.785,2.109-9.521,4.447-14.077,6.948A177.916,177.916,0,0,0,185.741,219.262Z" transform="translate(-148.042 -78.867)" fill="#54aa13"/>
          </g>
          <g id="Grupo_126856" data-name="Grupo 126856" transform="translate(115.19)">
            <path id="Trazado_177069" data-name="Trazado 177069" d="M301.337,133.6,276.22,57.635l65.973,22.651Z" transform="translate(-276.22 -57.635)" fill="#54aa13"/>
          </g>
        </g>
        <g id="Grupo_126860" data-name="Grupo 126860" transform="translate(0 170.931)">
          <g id="Grupo_126858" data-name="Grupo 126858" transform="translate(26.443 42.785)">
            <path id="Trazado_177070" data-name="Trazado 177070" d="M183.414,451.552a217.723,217.723,0,0,1-53-103.895c-1.267-6.239-2.276-12.625-3-18.978a220.643,220.643,0,0,1-1.265-33.232l40.411,1.53a180.2,180.2,0,0,0,1.035,27.124c.591,5.194,1.416,10.41,2.452,15.5A177.269,177.269,0,0,0,213.2,424.2Z" transform="translate(-125.99 -295.447)" fill="#54aa13"/>
          </g>
          <g id="Grupo_126859" data-name="Grupo 126859" transform="translate(0 0)">
            <path id="Trazado_177071" data-name="Trazado 177071" d="M182.362,311.259l-85.8-8.213,50.966-55.208Z" transform="translate(-96.566 -247.838)" fill="#54aa13"/>
          </g>
        </g>
        <g id="Grupo_126864" data-name="Grupo 126864" transform="translate(384.772 154.921)">
          <g id="Grupo_126861" data-name="Grupo 126861" transform="translate(0 141.884)">
            <path id="Trazado_177072" data-name="Trazado 177072" d="M524.721,387.9l70.654,37.552-63.338,29.219Z" transform="translate(-524.721 -387.904)" fill="#54aa13"/>
          </g>
          <g id="Grupo_126862" data-name="Grupo 126862" transform="translate(8.149 0)">
            <path id="Trazado_177073" data-name="Trazado 177073" d="M567.746,419.48l-33.958-21.959a180.93,180.93,0,0,0,10.466-18.5c2.3-4.694,4.421-9.531,6.294-14.377A177.927,177.927,0,0,0,552.878,243.1l38.267-13.078a218.431,218.431,0,0,1-2.879,149.211c-2.3,5.934-4.888,11.856-7.705,17.6A221.506,221.506,0,0,1,567.746,419.48Z" transform="translate(-533.788 -230.023)" fill="#54aa13"/>
          </g>
          <g id="Grupo_126863" data-name="Grupo 126863" transform="translate(55.893 57.904)">
            <path id="Trazado_177074" data-name="Trazado 177074" d="M586.915,294.456" transform="translate(-586.915 -294.456)" fill="none" stroke="#54aa13" stroke-miterlimit="10" stroke-width="45"/>
          </g>
        </g>
        <g id="Grupo_126867" data-name="Grupo 126867" transform="translate(264.272 10.073)">
          <g id="Grupo_126865" data-name="Grupo 126865">
            <path id="Trazado_177075" data-name="Trazado 177075" d="M524.505,191.492a176.3,176.3,0,0,0-85.193-70.7c-4.838-1.9-9.832-3.623-14.842-5.108a179.491,179.491,0,0,0-33.835-6.583l3.849-40.257a220.039,220.039,0,0,1,41.476,8.066c6.13,1.817,12.242,3.92,18.167,6.252a216.479,216.479,0,0,1,104.611,86.8Z" transform="translate(-390.635 -68.843)" fill="#54aa13"/>
          </g>
          <g id="Grupo_126866" data-name="Grupo 126866" transform="translate(105.241 68)">
            <path id="Trazado_177076" data-name="Trazado 177076" d="M507.742,188.345,574.68,144.51l-4.9,69.581Z" transform="translate(-507.742 -144.51)" fill="#54aa13"/>
          </g>
        </g>
      </g>
      <g id="Characters" transform="translate(198.351 137.002)">
        <g id="Grupo_127121" data-name="Grupo 127121">
          <g id="Grupo_126945" data-name="Grupo 126945" transform="translate(32.947)">
            <g id="Grupo_126944" data-name="Grupo 126944">
              <g id="Grupo_126915" data-name="Grupo 126915" transform="translate(0 6.068)">
                <g id="Grupo_126914" data-name="Grupo 126914">
                  <g id="Grupo_126871" data-name="Grupo 126871" transform="translate(8.729 1.838)">
                    <g id="Grupo_126870" data-name="Grupo 126870">
                      <g id="Grupo_126869" data-name="Grupo 126869">
                        <g id="Grupo_126868" data-name="Grupo 126868">
                          <path id="Trazado_177077" data-name="Trazado 177077" d="M287.459,158.874l1.509.059a29.163,29.163,0,0,1,28,27.932c.588,14.118,1.056,29.721.669,37.267-.8,15.629-16.535,17.452-16.535,17.452l-.057,6.38c-.094,10.535-1.711,22.106-12.245,21.957l-7.029-3.121a19.009,19.009,0,0,1-18.741-19.024l.053-58.269C262.314,173.217,271.154,159.192,287.459,158.874Z" transform="translate(-263.03 -158.874)" fill="#ffbf9d"/>
                        </g>
                      </g>
                    </g>
                  </g>
                  <g id="Grupo_126883" data-name="Grupo 126883" transform="translate(26.677 77.738)">
                    <g id="Grupo_126882" data-name="Grupo 126882">
                      <g id="Grupo_126881" data-name="Grupo 126881">
                        <g id="Grupo_126880" data-name="Grupo 126880">
                          <g id="Grupo_126879" data-name="Grupo 126879">
                            <g id="Grupo_126878" data-name="Grupo 126878">
                              <g id="Grupo_126877" data-name="Grupo 126877">
                                <g id="Grupo_126876" data-name="Grupo 126876">
                                  <g id="Grupo_126875" data-name="Grupo 126875">
                                    <g id="Grupo_126874" data-name="Grupo 126874">
                                      <g id="Grupo_126873" data-name="Grupo 126873">
                                        <g id="Grupo_126872" data-name="Grupo 126872">
                                          <path id="Trazado_177078" data-name="Trazado 177078" d="M303.256,250.125A37.962,37.962,0,0,1,283,243.332s4.381,11.44,20.038,10.639Z" transform="translate(-283.001 -243.332)" fill="#ff9a6c"/>
                                        </g>
                                      </g>
                                    </g>
                                  </g>
                                </g>
                              </g>
                            </g>
                          </g>
                        </g>
                      </g>
                    </g>
                  </g>
                  <g id="Grupo_126893" data-name="Grupo 126893" transform="translate(5.007)">
                    <g id="Grupo_126892" data-name="Grupo 126892">
                      <g id="Grupo_126891" data-name="Grupo 126891">
                        <g id="Grupo_126890" data-name="Grupo 126890">
                          <g id="Grupo_126889" data-name="Grupo 126889">
                            <g id="Grupo_126888" data-name="Grupo 126888">
                              <g id="Grupo_126887" data-name="Grupo 126887">
                                <g id="Grupo_126886" data-name="Grupo 126886">
                                  <g id="Grupo_126885" data-name="Grupo 126885">
                                    <g id="Grupo_126884" data-name="Grupo 126884">
                                      <path id="Trazado_177079" data-name="Trazado 177079" d="M315.324,179.418s-3.743-9.953-8.377-12.421c-5.609-2.988-8.314,3.19-13.7,1.456s-10.743-4.6-16.474-.607c-6.273,4.372-3.543,7.717-4.19,14.64-2.621,28.069-8.066,35.824-9.012,22.517-.1-1.458-4.087-2.769-4.446-8.925-.466-7.982-.4-17.65,1.6-23.224,1.681-4.7,4.521-7.88,9.526-11.314,7.9-5.421,18.45-5.133,25.583-4.134S316.454,167.183,315.324,179.418Z" transform="translate(-258.888 -156.829)" fill="#263238"/>
                                    </g>
                                  </g>
                                </g>
                              </g>
                            </g>
                          </g>
                        </g>
                      </g>
                    </g>
                  </g>
                  <g id="Grupo_126903" data-name="Grupo 126903" transform="translate(0 43.513)">
                    <g id="Grupo_126902" data-name="Grupo 126902">
                      <g id="Grupo_126901" data-name="Grupo 126901">
                        <g id="Grupo_126900" data-name="Grupo 126900">
                          <g id="Grupo_126899" data-name="Grupo 126899">
                            <g id="Grupo_126898" data-name="Grupo 126898">
                              <g id="Grupo_126897" data-name="Grupo 126897">
                                <g id="Grupo_126896" data-name="Grupo 126896">
                                  <g id="Grupo_126895" data-name="Grupo 126895">
                                    <g id="Grupo_126894" data-name="Grupo 126894">
                                      <path id="Trazado_177080" data-name="Trazado 177080" d="M264.019,209.523a4.247,4.247,0,0,0-4.423-4.269c-2.927.164-6.237,1.694-6.279,7.728-.074,10.7,10.687,8.57,10.708,8.263C264.039,221.037,264.027,214,264.019,209.523Z" transform="translate(-253.317 -205.248)" fill="#ffbf9d"/>
                                    </g>
                                  </g>
                                </g>
                              </g>
                            </g>
                          </g>
                        </g>
                      </g>
                    </g>
                  </g>
                  <g id="Grupo_126913" data-name="Grupo 126913" transform="translate(3.657 46.986)">
                    <g id="Grupo_126912" data-name="Grupo 126912">
                      <g id="Grupo_126911" data-name="Grupo 126911">
                        <g id="Grupo_126910" data-name="Grupo 126910">
                          <g id="Grupo_126909" data-name="Grupo 126909">
                            <g id="Grupo_126908" data-name="Grupo 126908">
                              <g id="Grupo_126907" data-name="Grupo 126907">
                                <g id="Grupo_126906" data-name="Grupo 126906">
                                  <g id="Grupo_126905" data-name="Grupo 126905">
                                    <g id="Grupo_126904" data-name="Grupo 126904">
                                      <path id="Trazado_177081" data-name="Trazado 177081" d="M262.136,217.594c-.047-.035-.188.129-.5.271a1.863,1.863,0,0,1-1.394.019c-1.128-.422-2.067-2.224-2.106-4.155a6.156,6.156,0,0,1,.54-2.665,2.154,2.154,0,0,1,1.413-1.421.949.949,0,0,1,1.1.519c.141.3.072.513.129.532.03.027.23-.178.147-.621a1.194,1.194,0,0,0-.416-.673,1.406,1.406,0,0,0-1.03-.279,2.621,2.621,0,0,0-1.959,1.645,6.327,6.327,0,0,0-.667,2.978c.053,2.159,1.144,4.184,2.688,4.642a2,2,0,0,0,1.707-.271C262.116,217.852,262.173,217.613,262.136,217.594Z" transform="translate(-257.385 -209.112)" fill="#ff9a6c"/>
                                    </g>
                                  </g>
                                </g>
                              </g>
                            </g>
                          </g>
                        </g>
                      </g>
                    </g>
                  </g>
                </g>
              </g>
              <g id="Grupo_126922" data-name="Grupo 126922" transform="translate(4.613)">
                <g id="Grupo_126921" data-name="Grupo 126921">
                  <g id="Grupo_126920" data-name="Grupo 126920">
                    <g id="Grupo_126919" data-name="Grupo 126919">
                      <g id="Grupo_126918" data-name="Grupo 126918">
                        <g id="Grupo_126917" data-name="Grupo 126917">
                          <g id="Grupo_126916" data-name="Grupo 126916">
                            <path id="Trazado_177082" data-name="Trazado 177082" d="M318.646,167.446c-1.514-1.387-3.745-1.779-5.247-3.18-2.735-2.547-2.363-7.705-5.7-9.387-1.979-1-4.386-.238-6.558-.678-3.512-.71-4.624-3.524-10.013-4.059-7-.7-9.751,4.306-9.751,4.306a8.106,8.106,0,0,0-8.133-.02c-3.377,1.836-4,6.111-4,6.111s-1.054-.666-4.672,1.664c-2.3,1.482-4.4,4.955-5.428,7.492-1.532,3.778-.239,8.049,1.06,11.914.7,2.092,1.6,4.407,3.615,5.309,2.456,1.1,5.441-.614,6.672-3.007s3.044-4.744,4.48-7.02c2.492-3.951,5.007-7.618,3.5-10.447a12.173,12.173,0,0,1,7.483.679c2.359,1.042,4.334,2.811,6.672,3.9s5.411,1.336,7.249-.474a5.236,5.236,0,0,0,7.81,2.5c1.6,3.317,5.945,5.2,9.264,3.606S321.361,169.93,318.646,167.446Z" transform="translate(-258.45 -150.076)" fill="#263238"/>
                          </g>
                        </g>
                      </g>
                    </g>
                  </g>
                </g>
              </g>
              <g id="Grupo_126929" data-name="Grupo 126929" transform="translate(5.533 28.933)">
                <g id="Grupo_126928" data-name="Grupo 126928">
                  <g id="Grupo_126927" data-name="Grupo 126927">
                    <g id="Grupo_126926" data-name="Grupo 126926">
                      <g id="Grupo_126925" data-name="Grupo 126925">
                        <g id="Grupo_126924" data-name="Grupo 126924">
                          <g id="Grupo_126923" data-name="Grupo 126923">
                            <path id="Trazado_177083" data-name="Trazado 177083" d="M259.487,182.273a13.048,13.048,0,0,1,1,2.55,5.25,5.25,0,0,0,1.542,2.319,4.663,4.663,0,0,0,3.257.7A8.009,8.009,0,0,0,268.6,186.8a12.776,12.776,0,0,0,2.271-1.8,16.441,16.441,0,0,1,1.975-1.9,9.253,9.253,0,0,1-1.652,2.21,11.428,11.428,0,0,1-2.292,1.99,8.115,8.115,0,0,1-3.561,1.169,5.087,5.087,0,0,1-3.675-.871,5.381,5.381,0,0,1-1.6-2.63A10.87,10.87,0,0,1,259.487,182.273Z" transform="translate(-259.474 -182.272)" fill="#455a64"/>
                          </g>
                        </g>
                      </g>
                    </g>
                  </g>
                </g>
              </g>
              <g id="Grupo_126936" data-name="Grupo 126936" transform="translate(5.148 32.476)">
                <g id="Grupo_126935" data-name="Grupo 126935">
                  <g id="Grupo_126934" data-name="Grupo 126934">
                    <g id="Grupo_126933" data-name="Grupo 126933">
                      <g id="Grupo_126932" data-name="Grupo 126932">
                        <g id="Grupo_126931" data-name="Grupo 126931">
                          <g id="Grupo_126930" data-name="Grupo 126930">
                            <path id="Trazado_177084" data-name="Trazado 177084" d="M259.051,190.912a8.764,8.764,0,0,0,1.989,1.367,5.982,5.982,0,0,0,2.516.464,7.286,7.286,0,0,0,3.028-.83,14.623,14.623,0,0,0,4.4-3.824,11.605,11.605,0,0,1,1.642-1.872,8.463,8.463,0,0,1-1.286,2.147,12.972,12.972,0,0,1-4.472,4.117,7.4,7.4,0,0,1-3.306.848,5.962,5.962,0,0,1-2.719-.643C259.4,191.924,258.989,190.922,259.051,190.912Z" transform="translate(-259.045 -186.214)" fill="#455a64"/>
                          </g>
                        </g>
                      </g>
                    </g>
                  </g>
                </g>
              </g>
              <g id="Grupo_126943" data-name="Grupo 126943" transform="translate(4.949 38.325)">
                <g id="Grupo_126942" data-name="Grupo 126942">
                  <g id="Grupo_126941" data-name="Grupo 126941">
                    <g id="Grupo_126940" data-name="Grupo 126940">
                      <g id="Grupo_126939" data-name="Grupo 126939">
                        <g id="Grupo_126938" data-name="Grupo 126938">
                          <g id="Grupo_126937" data-name="Grupo 126937">
                            <path id="Trazado_177085" data-name="Trazado 177085" d="M258.828,197.706a10.005,10.005,0,0,0,2,1.071,6.5,6.5,0,0,0,5.193-.661,15.015,15.015,0,0,0,4.087-3.648,9.977,9.977,0,0,1,1.557-1.743,7.644,7.644,0,0,1-1.2,2.019,13.006,13.006,0,0,1-4.137,3.93,7.377,7.377,0,0,1-3.064.937,5.89,5.89,0,0,1-2.591-.413C259.261,198.607,258.768,197.729,258.828,197.706Z" transform="translate(-258.824 -192.723)" fill="#455a64"/>
                          </g>
                        </g>
                      </g>
                    </g>
                  </g>
                </g>
              </g>
            </g>
          </g>
          <g id="Grupo_127048" data-name="Grupo 127048" transform="translate(166.408 22.624)">
            <g id="Grupo_126955" data-name="Grupo 126955">
              <g id="Grupo_126954" data-name="Grupo 126954">
                <g id="Grupo_126953" data-name="Grupo 126953">
                  <g id="Grupo_126952" data-name="Grupo 126952">
                    <g id="Grupo_126951" data-name="Grupo 126951">
                      <g id="Grupo_126950" data-name="Grupo 126950">
                        <g id="Grupo_126949" data-name="Grupo 126949">
                          <g id="Grupo_126948" data-name="Grupo 126948">
                            <g id="Grupo_126947" data-name="Grupo 126947">
                              <g id="Grupo_126946" data-name="Grupo 126946">
                                <path id="Trazado_177086" data-name="Trazado 177086" d="M472.26,193.383c3.552-2.183,4.478-7.354,2.625-11.089s-5.867-6.045-9.973-6.77a19.19,19.19,0,0,0-16.611,5.237c-2.306,2.306-4.191,5.33-7.286,6.357-2.721.9-5.7.008-8.552.335-3.818.438-7.124,3.1-9.126,6.379a27.846,27.846,0,0,0-3.373,10.937c-.466,3.5-.8,7.335-3.262,9.856-2.406,2.458-6.156,2.931-9.129,4.661-5.592,3.254-7.51,11.491-3.931,16.882,1.141,1.718,2.793,3.3,2.9,5.364.1,1.881-1.143,3.536-1.738,5.324-1.532,4.6,2.172,10.149,7.009,10.5,2.442.176,5.075-.739,7.25.386,2.16,1.117,2.931,3.754,4.294,5.768a10.467,10.467,0,0,0,12.713,3.482c1.811-.856,3.529-2.285,5.525-2.122s3.536,1.889,5.493,2.3c2.561.534,5.027-1.322,6.586-3.423s2.658-4.588,4.638-6.3c2.593-2.239,6.2-2.749,9.451-3.816a26.5,26.5,0,0,0,15.5-36.9" transform="translate(-401.826 -175.251)" fill="#263238"/>
                              </g>
                            </g>
                          </g>
                        </g>
                      </g>
                    </g>
                  </g>
                </g>
              </g>
            </g>
            <g id="Grupo_126965" data-name="Grupo 126965" transform="translate(23.538 61.447)">
              <g id="Grupo_126964" data-name="Grupo 126964">
                <g id="Grupo_126963" data-name="Grupo 126963">
                  <g id="Grupo_126962" data-name="Grupo 126962">
                    <g id="Grupo_126961" data-name="Grupo 126961">
                      <g id="Grupo_126960" data-name="Grupo 126960">
                        <g id="Grupo_126959" data-name="Grupo 126959">
                          <g id="Grupo_126958" data-name="Grupo 126958">
                            <g id="Grupo_126957" data-name="Grupo 126957">
                              <g id="Grupo_126956" data-name="Grupo 126956">
                                <path id="Trazado_177087" data-name="Trazado 177087" d="M437,245.79a7.183,7.183,0,0,0-2.829-1.921l.218-.011a4.28,4.28,0,0,0-.61-.112,2.839,2.839,0,0,0-2.236.244h.022a5.282,5.282,0,0,0-2.927,2.473,6.255,6.255,0,0,0,.643,6.455,4.78,4.78,0,0,0,8.794-1.514A5.931,5.931,0,0,0,437,245.79Z" transform="translate(-428.018 -243.627)" fill="#455a64"/>
                              </g>
                            </g>
                          </g>
                        </g>
                      </g>
                    </g>
                  </g>
                </g>
              </g>
            </g>
            <g id="Grupo_126976" data-name="Grupo 126976" transform="translate(27.937 18.84)">
              <g id="Grupo_126970" data-name="Grupo 126970">
                <g id="Grupo_126969" data-name="Grupo 126969">
                  <g id="Grupo_126968" data-name="Grupo 126968">
                    <g id="Grupo_126967" data-name="Grupo 126967">
                      <g id="Grupo_126966" data-name="Grupo 126966">
                        <path id="Trazado_177088" data-name="Trazado 177088" d="M483.3,280.219l4.745-68.6a5.829,5.829,0,0,0-4.957-6.131l-30.568-9.143c-9.852-1.472-16.958,10.431-18.011,20.338-1.171,11.005-2.166,24.488-1.212,32.778,1.916,16.67,15.511,19.389,15.511,19.389.006-.056-.147,16.945-.336,22.965l-4.056,18.609Z" transform="translate(-432.912 -196.216)" fill="#ae7461"/>
                      </g>
                    </g>
                  </g>
                </g>
              </g>
              <g id="Grupo_126975" data-name="Grupo 126975" transform="translate(15.752 67.575)">
                <g id="Grupo_126974" data-name="Grupo 126974">
                  <g id="Grupo_126973" data-name="Grupo 126973">
                    <g id="Grupo_126972" data-name="Grupo 126972">
                      <g id="Grupo_126971" data-name="Grupo 126971">
                        <path id="Trazado_177089" data-name="Trazado 177089" d="M450.487,276.435a39.786,39.786,0,0,0,21.433-5.025s-4.975,12.25-21.48,9.987Z" transform="translate(-450.44 -271.41)" fill="#6f4439"/>
                      </g>
                    </g>
                  </g>
                </g>
              </g>
            </g>
            <g id="Grupo_126983" data-name="Grupo 126983" transform="translate(17.253 9.508)">
              <g id="Grupo_126982" data-name="Grupo 126982">
                <g id="Grupo_126981" data-name="Grupo 126981">
                  <g id="Grupo_126980" data-name="Grupo 126980">
                    <g id="Grupo_126979" data-name="Grupo 126979">
                      <g id="Grupo_126978" data-name="Grupo 126978">
                        <g id="Grupo_126977" data-name="Grupo 126977">
                          <path id="Trazado_177090" data-name="Trazado 177090" d="M422.28,210.863a11.383,11.383,0,0,1,4.461-6.205,42.07,42.07,0,0,0,3.72-2.091c2.422-1.9,3.025-5.253,4.543-7.929a12.508,12.508,0,0,1,9.623-6.183c3.287-.288,6.655.747,9.867-.013,2.373-.562,4.462-2.067,6.864-2.487,4.679-.819,8.968,2.593,12.3,5.977-.036,3.339-2.73,5.535-5.323,7.641a11.582,11.582,0,0,1-9.415,2.338c-2.542-.5-5.317-1.832-7.543-.507-2.342,1.395-2.488,4.891-4.573,6.648-2.978,2.51-7.62.047-11.371,1.1-2.9.813-4.737,3.543-6.687,5.834s-4.851,4.453-7.722,3.555A33.907,33.907,0,0,1,422.28,210.863Z" transform="translate(-421.024 -185.831)" fill="#263238"/>
                        </g>
                      </g>
                    </g>
                  </g>
                </g>
              </g>
            </g>
            <g id="Grupo_126990" data-name="Grupo 126990" transform="translate(53.683 11.024)">
              <g id="Grupo_126989" data-name="Grupo 126989">
                <g id="Grupo_126988" data-name="Grupo 126988">
                  <g id="Grupo_126987" data-name="Grupo 126987">
                    <g id="Grupo_126986" data-name="Grupo 126986">
                      <g id="Grupo_126985" data-name="Grupo 126985">
                        <g id="Grupo_126984" data-name="Grupo 126984">
                          <path id="Trazado_177091" data-name="Trazado 177091" d="M461.63,197.429c2.1-.568,6.4-1.86,7.55-3.658,2.494-3.906,6.829-6.533,11.215-6.229a10.554,10.554,0,0,1,9.379,8.48,15.177,15.177,0,0,1,12.919,8.586,15.811,15.811,0,0,1,.8,1.959,11.543,11.543,0,0,1,.631,9.7c-.751,1.878-2.015,3.962-1.069,5.751.962,1.821,3.462,1.914,5.4,2.613a7.668,7.668,0,0,1,4.7,8.633c-.289,1.253-.909,2.5-.665,3.761.253,1.314,1.361,2.256,2.207,3.293a9.54,9.54,0,0,1-5.821,15.446c-1.493.249-3.1.163-4.4.936-1.49.888-2.163,2.655-3.225,4.026a8.231,8.231,0,0,1-8.958,2.662,7.547,7.547,0,0,1-1.778-.927c-1.016,1.368-2.594,2.281-5.27,2.241l1.125-34.917a2.89,2.89,0,0,1-2.141,1.628c-5.624,1.186-6.275-10.378-4.978-13.491a32.6,32.6,0,0,1-5.539-6c-1.513-2.311-2.784-8.568-2.414-11.371C469.273,200.646,460.708,197.678,461.63,197.429Z" transform="translate(-461.561 -187.518)" fill="#263238"/>
                        </g>
                      </g>
                    </g>
                  </g>
                </g>
              </g>
            </g>
            <g id="Grupo_127009" data-name="Grupo 127009" transform="translate(76.718 52.716)">
              <g id="Grupo_127008" data-name="Grupo 127008">
                <g id="Grupo_127007" data-name="Grupo 127007">
                  <g id="Grupo_127006" data-name="Grupo 127006">
                    <g id="Grupo_127005" data-name="Grupo 127005">
                      <g id="Grupo_127004" data-name="Grupo 127004">
                        <g id="Grupo_127003" data-name="Grupo 127003">
                          <g id="Grupo_127002" data-name="Grupo 127002">
                            <g id="Grupo_127001" data-name="Grupo 127001">
                              <g id="Grupo_127000" data-name="Grupo 127000">
                                <g id="Grupo_126999" data-name="Grupo 126999">
                                  <g id="Grupo_126998" data-name="Grupo 126998">
                                    <g id="Grupo_126997" data-name="Grupo 126997">
                                      <g id="Grupo_126996" data-name="Grupo 126996">
                                        <g id="Grupo_126995" data-name="Grupo 126995">
                                          <g id="Grupo_126994" data-name="Grupo 126994">
                                            <g id="Grupo_126993" data-name="Grupo 126993">
                                              <g id="Grupo_126992" data-name="Grupo 126992">
                                                <g id="Grupo_126991" data-name="Grupo 126991">
                                                  <path id="Trazado_177092" data-name="Trazado 177092" d="M487.379,237.306c.23-3.548,4.585-4.244,7.636-2.42,1.675,1,2.939,2.984,2.728,6.751-.562,10.044-10.53,7.409-10.532,7.12C487.212,248.578,487.111,241.46,487.379,237.306Z" transform="translate(-487.193 -233.911)" fill="#ae7461"/>
                                                </g>
                                              </g>
                                            </g>
                                          </g>
                                        </g>
                                      </g>
                                    </g>
                                  </g>
                                </g>
                              </g>
                            </g>
                          </g>
                        </g>
                      </g>
                    </g>
                  </g>
                </g>
              </g>
            </g>
            <g id="Grupo_127029" data-name="Grupo 127029" transform="translate(80.007 56.084)">
              <g id="Grupo_127028" data-name="Grupo 127028">
                <g id="Grupo_127027" data-name="Grupo 127027">
                  <g id="Grupo_127026" data-name="Grupo 127026">
                    <g id="Grupo_127025" data-name="Grupo 127025">
                      <g id="Grupo_127024" data-name="Grupo 127024">
                        <g id="Grupo_127023" data-name="Grupo 127023">
                          <g id="Grupo_127022" data-name="Grupo 127022">
                            <g id="Grupo_127021" data-name="Grupo 127021">
                              <g id="Grupo_127020" data-name="Grupo 127020">
                                <g id="Grupo_127019" data-name="Grupo 127019">
                                  <g id="Grupo_127018" data-name="Grupo 127018">
                                    <g id="Grupo_127017" data-name="Grupo 127017">
                                      <g id="Grupo_127016" data-name="Grupo 127016">
                                        <g id="Grupo_127015" data-name="Grupo 127015">
                                          <g id="Grupo_127014" data-name="Grupo 127014">
                                            <g id="Grupo_127013" data-name="Grupo 127013">
                                              <g id="Grupo_127012" data-name="Grupo 127012">
                                                <g id="Grupo_127011" data-name="Grupo 127011">
                                                  <g id="Grupo_127010" data-name="Grupo 127010">
                                                    <path id="Trazado_177093" data-name="Trazado 177093" d="M490.864,245.5c.046-.03.169.132.457.285a1.75,1.75,0,0,0,1.307.1c1.083-.331,2.071-1.965,2.22-3.773a5.8,5.8,0,0,0-.35-2.532,2.025,2.025,0,0,0-1.241-1.417.893.893,0,0,0-1.06.422c-.15.273-.1.477-.152.492-.03.023-.206-.181-.1-.59a1.121,1.121,0,0,1,.43-.607,1.328,1.328,0,0,1,.982-.2,2.464,2.464,0,0,1,1.741,1.66,5.949,5.949,0,0,1,.45,2.834c-.177,2.02-1.319,3.856-2.795,4.2a1.877,1.877,0,0,1-1.585-.355C490.868,245.746,490.828,245.519,490.864,245.5Z" transform="translate(-490.853 -237.659)" fill="#6f4439"/>
                                                  </g>
                                                </g>
                                              </g>
                                            </g>
                                          </g>
                                        </g>
                                      </g>
                                    </g>
                                  </g>
                                </g>
                              </g>
                            </g>
                          </g>
                        </g>
                      </g>
                    </g>
                  </g>
                </g>
              </g>
            </g>
            <g id="Grupo_127039" data-name="Grupo 127039" transform="translate(67.626 18.418)">
              <g id="Grupo_127038" data-name="Grupo 127038">
                <g id="Grupo_127037" data-name="Grupo 127037">
                  <g id="Grupo_127036" data-name="Grupo 127036">
                    <g id="Grupo_127035" data-name="Grupo 127035">
                      <g id="Grupo_127034" data-name="Grupo 127034">
                        <g id="Grupo_127033" data-name="Grupo 127033">
                          <g id="Grupo_127032" data-name="Grupo 127032">
                            <g id="Grupo_127031" data-name="Grupo 127031">
                              <g id="Grupo_127030" data-name="Grupo 127030">
                                <path id="Trazado_177094" data-name="Trazado 177094" d="M477.081,195.751a6,6,0,0,1,1.981,1.708c.975,1.384,1.311,4.013.638,6.961l-.058.253.247.066a9.716,9.716,0,0,1,6.391,5.8,7.57,7.57,0,0,1,.484,2.46,14.807,14.807,0,0,1-.353,2.651,19.923,19.923,0,0,0-.424,2.854,4.727,4.727,0,0,0,.752,2.977c1.223,1.92,3.218,2.886,4.931,3.819a16.9,16.9,0,0,1,4.623,3.125,12.561,12.561,0,0,1,3.63,8.476,13.106,13.106,0,0,1-1.414,6.192c-.688,1.362-1.258,2.009-1.2,2.051.019.016.167-.137.436-.445a10.762,10.762,0,0,0,1.008-1.476,12.752,12.752,0,0,0,1.674-6.328,12.928,12.928,0,0,0-3.665-8.927A17.3,17.3,0,0,0,492,224.685c-1.713-.933-3.593-1.888-4.656-3.583-1.091-1.541-.563-3.526-.244-5.323a15.163,15.163,0,0,0,.35-2.785,8.139,8.139,0,0,0-.548-2.691,10.186,10.186,0,0,0-6.878-6.074l.189.318c.641-3.09.209-5.814-.908-7.257a4.228,4.228,0,0,0-1.554-1.3A2.44,2.44,0,0,0,477.081,195.751Z" transform="translate(-477.077 -195.746)" fill="#455a64"/>
                              </g>
                            </g>
                          </g>
                        </g>
                      </g>
                    </g>
                  </g>
                </g>
              </g>
            </g>
            <g id="Grupo_127047" data-name="Grupo 127047" transform="translate(74.734 65.582)">
              <g id="Grupo_127046" data-name="Grupo 127046">
                <g id="Grupo_127045" data-name="Grupo 127045">
                  <g id="Grupo_127044" data-name="Grupo 127044">
                    <g id="Grupo_127043" data-name="Grupo 127043">
                      <g id="Grupo_127042" data-name="Grupo 127042">
                        <g id="Grupo_127041" data-name="Grupo 127041">
                          <g id="Grupo_127040" data-name="Grupo 127040">
                            <path id="Trazado_177095" data-name="Trazado 177095" d="M493.968,250.391a7.174,7.174,0,0,0-2.829-1.921l.218-.01a4.168,4.168,0,0,0-.61-.113,2.839,2.839,0,0,0-2.236.244h.021a5.28,5.28,0,0,0-2.926,2.473,6.253,6.253,0,0,0,.643,6.455A4.78,4.78,0,0,0,495.043,256,5.931,5.931,0,0,0,493.968,250.391Z" transform="translate(-484.986 -248.228)" fill="#455a64"/>
                          </g>
                        </g>
                      </g>
                    </g>
                  </g>
                </g>
              </g>
            </g>
          </g>
          <g id="Grupo_127066" data-name="Grupo 127066" transform="translate(105.759 177.973)">
            <g id="Grupo_127049" data-name="Grupo 127049" transform="translate(25.169 1.903)">
              <path id="Trazado_177096" data-name="Trazado 177096" d="M362.346,351.236a8.988,8.988,0,0,1,5.166-.883c2.423.531,11.219,6.266,11.219,6.266l12.235,4.058-5.338,22.869-8.595-3.842L362.346,386.8Z" transform="translate(-362.346 -350.234)" fill="#ae7461"/>
            </g>
            <g id="Grupo_127050" data-name="Grupo 127050">
              <path id="Trazado_177097" data-name="Trazado 177097" d="M337.154,356.413s6.686-.845,9.107-2.055,8.2-6.333,9.407-6.24,8.277,1.9,8.277,1.9l-4.458,4.338s8.755,5.308,11.363,7.265,10.8,10.71,11.176,12.853-.28,4.657-1.3,5.495-4.749-.838-4.749-.838a4.654,4.654,0,0,1-.838,3.818c-1.4,1.863-4.657,1.211-4.657,1.211s-.28,3.073-1.77,3.632-4.843-1.117-4.843-1.117-1.012,2.607-2.229,2.887-4.663-1.769-4.663-1.769-14.9-10.71-18.256-12.294a17.161,17.161,0,0,0-4.377-1.677Z" transform="translate(-334.339 -348.116)" fill="#ffbf9d"/>
            </g>
            <g id="Grupo_127052" data-name="Grupo 127052" transform="translate(27.344 34.291)">
              <g id="Grupo_127051" data-name="Grupo 127051">
                <path id="Trazado_177098" data-name="Trazado 177098" d="M366.947,390.543c-.067,0-.109-.263-.267-.654a11.648,11.648,0,0,0-.749-1.487,9.476,9.476,0,0,1-1.153-2.124,5.23,5.23,0,0,1,1.541,1.9,5.536,5.536,0,0,1,.665,1.623C367.076,390.254,367,390.547,366.947,390.543Z" transform="translate(-364.766 -386.273)" fill="#ff9a6c"/>
              </g>
            </g>
            <g id="Grupo_127054" data-name="Grupo 127054" transform="translate(31.802 31.245)">
              <g id="Grupo_127053" data-name="Grupo 127053">
                <path id="Trazado_177099" data-name="Trazado 177099" d="M373.642,388.387a23.559,23.559,0,0,1-1.879-2.814c-1.019-1.551-2.111-2.586-2.032-2.683a6.575,6.575,0,0,1,2.4,2.432A9.045,9.045,0,0,1,373.642,388.387Z" transform="translate(-369.726 -382.883)" fill="#ff9a6c"/>
              </g>
            </g>
            <g id="Grupo_127056" data-name="Grupo 127056" transform="translate(37.992 25.053)">
              <g id="Grupo_127055" data-name="Grupo 127055">
                <path id="Trazado_177100" data-name="Trazado 177100" d="M380.319,382.313c-.132.033-.547-1.579-1.577-3.316-1.013-1.749-2.215-2.9-2.123-3a9.144,9.144,0,0,1,3.7,6.314Z" transform="translate(-376.614 -375.994)" fill="#ff9a6c"/>
              </g>
            </g>
            <g id="Grupo_127058" data-name="Grupo 127058" transform="translate(37.276 19.749)">
              <g id="Grupo_127057" data-name="Grupo 127057">
                <path id="Trazado_177101" data-name="Trazado 177101" d="M375.874,370.092a8.379,8.379,0,0,1,.223,5.028,51.074,51.074,0,0,1-.223-5.028Z" transform="translate(-375.818 -370.092)" fill="#ff9a6c"/>
              </g>
            </g>
            <g id="Grupo_127059" data-name="Grupo 127059" transform="translate(15.648 1.904)">
              <path id="Trazado_177102" data-name="Trazado 177102" d="M351.751,359.694s2.328-7.451,3.166-8.382,10.792-1.078,10.792-1.078l.249,4.338-1.727,1.828-3.725-.244S358.177,362.3,351.751,359.694Z" transform="translate(-351.751 -350.234)" fill="#ae7461"/>
            </g>
            <g id="Grupo_127065" data-name="Grupo 127065" transform="translate(4.175 27.316)">
              <g id="Grupo_127060" data-name="Grupo 127060">
                <path id="Trazado_177103" data-name="Trazado 177103" d="M339.413,378.513s-.963.742,0,2.513,3.578.506,4.421,0c0,0-1.265,2.95.337,3.879a6.3,6.3,0,0,0,3.541.674s-.084,1.77,2.193,2.951,2.866,0,2.866,0,.257,2.916,2.867,3.2a4.663,4.663,0,0,0,2.806-.282l-1-.578s2.073-4.62.892-5.969a4.041,4.041,0,0,0-3.119-1.181s.516-2.739-.988-3.5a2.767,2.767,0,0,0-3.987,1.226s-.169-3-2.361-2.934a4.879,4.879,0,0,0-3.373,1.417Z" transform="translate(-338.985 -378.512)" fill="#ae7461"/>
              </g>
              <g id="Grupo_127062" data-name="Grupo 127062" transform="translate(8.764 2.933)">
                <g id="Grupo_127061" data-name="Grupo 127061">
                  <path id="Trazado_177104" data-name="Trazado 177104" d="M351.23,381.778a11.095,11.095,0,0,1-2.483,4.22,22.739,22.739,0,0,1,2.483-4.22Z" transform="translate(-348.736 -381.776)" fill="#6f4439"/>
                </g>
              </g>
              <g id="Grupo_127064" data-name="Grupo 127064" transform="translate(13.739 5.288)">
                <g id="Grupo_127063" data-name="Grupo 127063">
                  <path id="Trazado_177105" data-name="Trazado 177105" d="M356.834,384.4a9.192,9.192,0,0,1-2.553,4.472,87.593,87.593,0,0,1,2.553-4.472Z" transform="translate(-354.272 -384.396)" fill="#6f4439"/>
                </g>
              </g>
            </g>
          </g>
          <g id="Grupo_127088" data-name="Grupo 127088" transform="translate(0 84.869)">
            <g id="Grupo_127070" data-name="Grupo 127070" transform="translate(8.715 159.736)">
              <g id="Grupo_127068" data-name="Grupo 127068" transform="translate(70.619)">
                <g id="Grupo_127067" data-name="Grupo 127067">
                  <path id="Trazado_177106" data-name="Trazado 177106" d="M322.53,422.26H308.4l-3.467,49.251,14.433-.279c2.411-7.825,6-47.349,6-47.349Z" transform="translate(-304.935 -422.26)" fill="#263238"/>
                </g>
              </g>
              <g id="Grupo_127069" data-name="Grupo 127069">
                <path id="Trazado_177107" data-name="Trazado 177107" d="M234.553,422.26s-9.041,21.2-8.137,29.784,5.189,19.467,5.189,19.467l71.323-.115a132.851,132.851,0,0,0,2.9-15.529c1.506-10.6,5.575-33.607,5.575-33.607Z" transform="translate(-226.353 -422.26)" fill="#263238"/>
              </g>
            </g>
            <g id="Grupo_127085" data-name="Grupo 127085">
              <g id="Grupo_127071" data-name="Grupo 127071" transform="translate(4.498)">
                <path id="Trazado_177108" data-name="Trazado 177108" d="M299.461,272.831s8.666,35.336,9.9,43.555c2.259,15.081,10.75,78.587,9.592,84.182s-1.926,11.42-1.926,11.42-71.1-4.476-78.741-3.8-10.885.448-12.738-8.28.056-54.094-1.565-65.06-1.635-16.283-2.262-32.576c-.544-14.121,2.67-25.448,9.386-33.622S252.688,252.2,252.688,252.2l5.273-7.69,38.209,19.1.643-5.893,1.583,9.033Z" transform="translate(-221.66 -244.514)" fill="#f67409"/>
              </g>
              <g id="Grupo_127073" data-name="Grupo 127073" transform="translate(12.861 58.071)" opacity="0.3">
                <g id="Grupo_127072" data-name="Grupo 127072">
                  <path id="Trazado_177109" data-name="Trazado 177109" d="M317.715,377.207c-.622-1.584-2.638-1.982-4.329-2.17-15.811-1.754-32.269-5.7-43.817-16.642-4.518-4.28-8.081-9.453-11.515-14.644-7.5-11.348-14.559-22.985-21.612-34.62l-5.477,2.071c3.359,16.427,6.665,28.32,12.135,41.784,5.476,13.479,9.717,26.528,23.582,30.938,8.963,2.851,25.983.665,35.359-.069a54.83,54.83,0,0,0,11.615-1.82,7.585,7.585,0,0,0,3.144-1.6A3.1,3.1,0,0,0,317.715,377.207Z" transform="translate(-230.966 -309.132)"/>
                </g>
              </g>
              <g id="Grupo_127078" data-name="Grupo 127078" transform="translate(0 20.628)">
                <g id="Grupo_127077" data-name="Grupo 127077">
                  <g id="Grupo_127074" data-name="Grupo 127074" transform="translate(0.187)">
                    <path id="Trazado_177110" data-name="Trazado 177110" d="M238.033,267.468c-12.327,1.892-21.255,19.559-19.9,30.194.106.829-5.87,74.846,7.262,80.75,10.392,4.671,48.337,1.143,65.941.134a40.129,40.129,0,0,0,14.075-3.422l11.038-4.929c-.042.065,9.337-2.036,9.337-2.036s3.161-7.476-.669-21.145l-17.951.759-44.782-.032a4.97,4.97,0,0,0-5.618-2.132l4.79-49.415" transform="translate(-216.863 -267.468)" fill="#f67409"/>
                  </g>
                  <g id="Grupo_127076" data-name="Grupo 127076">
                    <g id="Grupo_127075" data-name="Grupo 127075">
                      <path id="Trazado_177111" data-name="Trazado 177111" d="M261.533,296.192s-.013.292-.06.861-.125,1.423-.223,2.53c-.207,2.236-.511,5.521-.9,9.766-.808,8.512-1.981,20.865-3.444,36.274l-.191-.172a6.128,6.128,0,0,1,3.16.093,5.129,5.129,0,0,1,2.63,2.1l-.139-.075,29.062-.008c5.258-.012,10.71.026,16.329-.026l17.333-.743.173-.007.047.167a50.242,50.242,0,0,1,1.82,10.372,28.453,28.453,0,0,1-1.153,10.921l-.036.106-.124.027-4.926,1.1-2.49.547-1.254.268-.645.128-.043,0a.24.24,0,0,1-.224-.352c-.006,0-.022.009-.033.013l-.075.033-.147.067-.3.135a45.9,45.9,0,0,0-4.727,2.353,17.671,17.671,0,0,1-2.174,1.175l-2.328,1.056a41.483,41.483,0,0,1-10.127,3.274,41,41,0,0,1-5.375.625l-5.415.342c-12.558.839-24.828,1.711-36.709,1.844a119.7,119.7,0,0,1-17.473-.829,30.423,30.423,0,0,1-4.2-.877,13.97,13.97,0,0,1-2.014-.742,6,6,0,0,1-1.722-1.317,13.245,13.245,0,0,1-2.211-3.593,30.241,30.241,0,0,1-1.361-3.912,89.025,89.025,0,0,1-2.475-15.762c-.416-5.157-.6-10.176-.678-15.027-.146-9.7.114-18.743.481-26.984.186-4.12.409-8.042.643-11.751.041-.917.155-1.863.126-2.716a18.711,18.711,0,0,1-.1-2.682,25.874,25.874,0,0,1,.684-5.054,36.023,36.023,0,0,1,7.5-14.931,22.254,22.254,0,0,1,8.411-6.376,15.722,15.722,0,0,1,2.643-.81c.614-.111.929-.156.929-.156s-.311.077-.918.2a16.87,16.87,0,0,0-2.618.85,22.4,22.4,0,0,0-8.308,6.407,35.985,35.985,0,0,0-7.38,14.87,25.709,25.709,0,0,0-.66,5,18.515,18.515,0,0,0,.105,2.64c.034.948-.078,1.831-.116,2.767-.222,3.709-.434,7.629-.609,11.748-.345,8.237-.586,17.27-.423,26.963.088,4.845.278,9.856.7,15a88.778,88.778,0,0,0,2.479,15.679,18.779,18.779,0,0,0,3.479,7.322,5.537,5.537,0,0,0,1.593,1.22,13.633,13.633,0,0,0,1.946.714,30.04,30.04,0,0,0,4.135.86,119.522,119.522,0,0,0,17.4.813c11.861-.139,24.123-1.014,36.682-1.853a99.761,99.761,0,0,0,10.736-.96,41.086,41.086,0,0,0,10.046-3.25l2.466-1.085a21.813,21.813,0,0,1,2.594-.954,42.229,42.229,0,0,0,4.726-1.867l.291-.129.146-.064.073-.032.019-.007.009,0c-.077-.054.185.115-.171-.122.05.03.166.065.2-.094a.189.189,0,0,0-.2-.144c-.035,0,0,0,0,0l.614-.121,1.251-.267,2.488-.546,4.926-1.094-.16.133a28.133,28.133,0,0,0,1.125-10.716,49.967,49.967,0,0,0-1.795-10.281l.22.16-17.343.724c-5.621.045-11.073,0-16.332,0l-29.068-.051h-.091l-.049-.075a4.791,4.791,0,0,0-2.454-1.977,5.81,5.81,0,0,0-2.991-.092l-.212.043.021-.215c1.524-15.4,2.746-27.751,3.587-36.261.43-4.242.762-7.524.989-9.758q.175-1.655.267-2.525C261.49,296.482,261.533,296.192,261.533,296.192Z" transform="translate(-216.655 -267.468)" fill="#263238"/>
                    </g>
                  </g>
                </g>
              </g>
              <g id="Grupo_127080" data-name="Grupo 127080" transform="translate(37.869 8.714)">
                <g id="Grupo_127079" data-name="Grupo 127079">
                  <path id="Trazado_177112" data-name="Trazado 177112" d="M299.933,267.48a5.868,5.868,0,0,1-.85-.44l-2.355-1.345.165-.073c-.466,2.354-.916,5.816-1.706,9.965l-.052.275-.241-.151c-3.464-2.183-7.621-4.679-12.056-7.359-3.306-1.979-6.4-3.978-9.244-5.7s-5.477-3.195-7.677-4.429l-5.225-2.907-1.417-.8a2.734,2.734,0,0,1-.482-.3,2.731,2.731,0,0,1,.524.224l1.457.723c1.26.639,3.073,1.583,5.3,2.783s4.856,2.656,7.737,4.351l9.264,5.676c4.432,2.679,8.582,5.2,12.03,7.416l-.292.124c.824-4.118,1.334-7.585,1.867-9.932l.035-.155.13.082,2.3,1.436A5.967,5.967,0,0,1,299.933,267.48Z" transform="translate(-258.794 -254.21)" fill="#263238"/>
                </g>
              </g>
              <g id="Grupo_127082" data-name="Grupo 127082" transform="translate(43.115 11.503)" opacity="0.3">
                <g id="Grupo_127081" data-name="Grupo 127081">
                  <path id="Trazado_177113" data-name="Trazado 177113" d="M264.631,257.314l19.473,14.51c4.285,3.193,8.672,6.439,13.76,8.072q-.14-6.767-.281-13.533l-1.993,9.5Z" transform="translate(-264.631 -257.314)"/>
                </g>
              </g>
              <g id="Grupo_127084" data-name="Grupo 127084" transform="translate(96.64 100.931)">
                <g id="Grupo_127083" data-name="Grupo 127083">
                  <path id="Trazado_177114" data-name="Trazado 177114" d="M326.473,379.854a3.436,3.436,0,0,1-.092-.912q-.036-1.038-.088-2.485c-.067-2.1-.154-4.995-.42-8.18s-.675-6.052-1.053-8.111-.691-3.321-.617-3.341a3.456,3.456,0,0,1,.314.862c.18.562.388,1.388.628,2.414a60.747,60.747,0,0,1,1.2,8.138c.268,3.2.3,6.113.285,8.215-.011,1.051-.034,1.9-.061,2.488A3.467,3.467,0,0,1,326.473,379.854Z" transform="translate(-324.192 -356.825)" fill="#263238"/>
                </g>
              </g>
            </g>
            <g id="Grupo_127087" data-name="Grupo 127087" transform="translate(23.635 24.287)">
              <g id="Grupo_127086" data-name="Grupo 127086">
                <path id="Trazado_177115" data-name="Trazado 177115" d="M255.923,287.557c-.078.023-.419-1.113-1.193-2.852a28.358,28.358,0,0,0-9.233-11.4c-1.539-1.12-2.58-1.689-2.541-1.76a2.936,2.936,0,0,1,.768.331,17.846,17.846,0,0,1,1.962,1.158,25.284,25.284,0,0,1,9.348,11.543,17.9,17.9,0,0,1,.725,2.16A2.879,2.879,0,0,1,255.923,287.557Z" transform="translate(-242.955 -271.54)" fill="#263238"/>
              </g>
            </g>
          </g>
          <g id="Grupo_127120" data-name="Grupo 127120" transform="translate(153.552 111.123)">
            <g id="Grupo_127091" data-name="Grupo 127091" transform="translate(0 77.065)">
              <g id="Grupo_127089" data-name="Grupo 127089">
                <path id="Trazado_177116" data-name="Trazado 177116" d="M393.931,359.52c-3.71-.812,45.273,12.1,45.684,12.172l23.259-7.456L442.9,405.546,387.52,387.1Z" transform="translate(-387.52 -359.483)" fill="#54aa13"/>
              </g>
              <g id="Grupo_127090" data-name="Grupo 127090" transform="translate(19.433 4.869)" opacity="0.3">
                <path id="Trazado_177117" data-name="Trazado 177117" d="M418.128,366.012,413.94,364.9l-4.8,29.224,8.314,2.769Z" transform="translate(-409.144 -364.901)"/>
              </g>
            </g>
            <g id="Grupo_127111" data-name="Grupo 127111" transform="translate(12.823)">
              <g id="Grupo_127110" data-name="Grupo 127110">
                <g id="Grupo_127093" data-name="Grupo 127093" transform="translate(40.504)">
                  <g id="Grupo_127092" data-name="Grupo 127092">
                    <path id="Trazado_177118" data-name="Trazado 177118" d="M446.859,307.182l1.509-19.012,37.915-14.441,1.347,7.094-25.829,12Z" transform="translate(-446.859 -273.728)" fill="#e0e0e0"/>
                  </g>
                </g>
                <g id="Grupo_127095" data-name="Grupo 127095" transform="translate(0 2.908)">
                  <g id="Grupo_127094" data-name="Grupo 127094">
                    <path id="Trazado_177119" data-name="Trazado 177119" d="M485.019,284.486s9.674,15.166,12.649,26.57c3.2,12.282.43,33.987.43,33.987l-10.919,49.02a14.628,14.628,0,0,1,2.8,6.5c.431,3.546-3.453,7.486-3.453,7.486s-1.69-1.014,4.783,10.608,6.8,38.132,6.8,38.132H401.789c4.588-22.479,13.962-58.2,13.962-58.786s.053-24.766.053-24.766-.423-23.435,1.735-31.9,22.305-39.53,31.995-47.411c10.3-8.379,33.53-16.957,33.53-16.957l1.956,7.522" transform="translate(-401.789 -276.964)" fill="#54aa13"/>
                  </g>
                </g>
                <g id="Grupo_127101" data-name="Grupo 127101" transform="translate(19.242 134.178)">
                  <g id="Grupo_127097" data-name="Grupo 127097" transform="translate(0.005 0.134)">
                    <g id="Grupo_127096" data-name="Grupo 127096">
                      <path id="Trazado_177120" data-name="Trazado 177120" d="M423.215,436.308c-.3-1.02,7.173-13.124,7.173-13.124l42.816,6.562,2.98,10.982Z" transform="translate(-423.206 -423.184)" fill="#54aa13"/>
                    </g>
                  </g>
                  <g id="Grupo_127100" data-name="Grupo 127100">
                    <g id="Grupo_127099" data-name="Grupo 127099">
                      <g id="Grupo_127098" data-name="Grupo 127098">
                        <path id="Trazado_177121" data-name="Trazado 177121" d="M423.214,436.293a2.076,2.076,0,0,1,.278.009l.791.052,3.03.226,11.2.881,37.692,3.073-.209.222c-.723-2.662-1.481-5.453-2.253-8.294-.246-.909-.492-1.812-.729-2.688l.16.136-42.8-6.621.137-.06c-2.478,4.007-4.388,7.243-5.636,9.5-.623,1.126-1.078,2.008-1.349,2.617a4.652,4.652,0,0,0-.267.7,1.236,1.236,0,0,0-.038.249,1.739,1.739,0,0,1,.235-.977c.25-.621.686-1.514,1.289-2.651,1.211-2.274,3.086-5.53,5.534-9.556l.046-.075.093.014,42.826,6.5.129.02.031.116c.237.876.483,1.779.729,2.687.77,2.842,1.527,5.634,2.249,8.3l.066.246-.276-.023-37.788-3.226-11.151-.984-2.991-.277-.768-.077A1.814,1.814,0,0,1,423.214,436.293Z" transform="translate(-423.201 -423.035)" fill="#263238"/>
                      </g>
                    </g>
                  </g>
                </g>
                <g id="Grupo_127104" data-name="Grupo 127104" transform="translate(15.291 10.428)">
                  <g id="Grupo_127103" data-name="Grupo 127103">
                    <g id="Grupo_127102" data-name="Grupo 127102">
                      <path id="Trazado_177122" data-name="Trazado 177122" d="M486.743,285.334a1.652,1.652,0,0,1-.265.075l-.785.19c-.69.167-1.709.408-3.014.747-2.6.679-6.378,1.688-10.876,3.329-1.122.412-2.29.867-3.479,1.388-.6.258-1.2.525-1.8.827-.3.15-.614.288-.91.451s-.588.329-.866.528a45.762,45.762,0,0,0-6.411,5.834c-4.191,4.422-8.466,9.544-12.848,14.983s-8.422,10.721-12.046,15.55c-1.811,2.417-3.513,4.723-5.084,6.895a55.009,55.009,0,0,0-4.063,6.2,66.573,66.573,0,0,0-4.26,9.712c-.414,1.177-.713,2.1-.913,2.724-.094.3-.169.535-.226.713a1.335,1.335,0,0,1-.087.241,1.184,1.184,0,0,1,.048-.25c.048-.181.11-.42.188-.723.175-.633.45-1.561.843-2.747a62.622,62.622,0,0,1,4.155-9.784,54.343,54.343,0,0,1,4.039-6.247c1.561-2.181,3.254-4.5,5.057-6.917,3.61-4.843,7.65-10.123,12.029-15.577s8.674-10.565,12.892-14.988a45.647,45.647,0,0,1,6.493-5.858c.285-.2.6-.362.9-.542.306-.164.618-.3.923-.451.608-.3,1.22-.567,1.821-.823,1.2-.517,2.376-.967,3.507-1.373a106.767,106.767,0,0,1,10.94-3.226c1.312-.318,2.338-.537,3.035-.682l.8-.154A1.449,1.449,0,0,1,486.743,285.334Z" transform="translate(-418.804 -285.332)" fill="#263238"/>
                    </g>
                  </g>
                </g>
                <g id="Grupo_127107" data-name="Grupo 127107" transform="translate(52.938 107.756)">
                  <g id="Grupo_127106" data-name="Grupo 127106">
                    <g id="Grupo_127105" data-name="Grupo 127105">
                      <path id="Trazado_177123" data-name="Trazado 177123" d="M484.975,415.677a9.148,9.148,0,0,1-1.184-.61c-.752-.408-1.813-1.041-3.1-1.859a71.754,71.754,0,0,1-9.363-7.171,68.361,68.361,0,0,1-7.907-8.51c-.9-1.166-1.6-2.131-2.054-2.816a8.068,8.068,0,0,1-.675-1.077,8.168,8.168,0,0,1,.805,1c.49.659,1.222,1.6,2.151,2.742a78.5,78.5,0,0,0,7.96,8.4A81.73,81.73,0,0,0,480.86,413c1.256.843,2.291,1.506,3.015,1.95A8.907,8.907,0,0,1,484.975,415.677Z" transform="translate(-460.695 -393.634)" fill="#263238"/>
                    </g>
                  </g>
                </g>
                <g id="Grupo_127109" data-name="Grupo 127109" transform="translate(20.63 147.55)" opacity="0.3">
                  <g id="Grupo_127108" data-name="Grupo 127108">
                    <path id="Trazado_177124" data-name="Trazado 177124" d="M424.745,437.915l1.3,4.306,48.485-.152Z" transform="translate(-424.745 -437.915)"/>
                  </g>
                </g>
              </g>
            </g>
            <g id="Grupo_127117" data-name="Grupo 127117" transform="translate(44.749 27.187)">
              <g id="Grupo_127116" data-name="Grupo 127116">
                <g id="Grupo_127115" data-name="Grupo 127115">
                  <g id="Grupo_127112" data-name="Grupo 127112" transform="translate(0.277)">
                    <path id="Trazado_177125" data-name="Trazado 177125" d="M448.584,322.869l.927,70.115-11.889,66.542h31.249s13.794-50.1,17.057-61c3.17-10.58,7.917-63.836,8.339-66.451.165-1.025,3.508-19.418-6.333-28.094" transform="translate(-437.622 -303.981)" fill="#54aa13"/>
                  </g>
                  <g id="Grupo_127114" data-name="Grupo 127114">
                    <g id="Grupo_127113" data-name="Grupo 127113">
                      <path id="Trazado_177126" data-name="Trazado 177126" d="M487.9,303.981s.2.187.591.572l.718.718c.139.146.3.293.455.471l.448.6a20.842,20.842,0,0,1,3.878,8.4,43.28,43.28,0,0,1,.738,14.673c-.14,1.437-.426,2.9-.558,4.421q-.229,2.289-.473,4.722-.483,4.865-1.019,10.274c-.728,7.2-1.548,15.1-2.537,23.564-.5,4.234-1.035,8.612-1.672,13.114-.309,2.252-.664,4.533-1.05,6.842-.2,1.154-.435,2.31-.653,3.477-.265,1.157-.547,2.334-.871,3.487-5.165,18.491-10.851,38.852-16.833,60.273l-.048.172h-4.5l-26.93,0h-.277l.049-.271c4.4-24.527,8.455-47.16,11.929-66.536l0,.036c-.246-21.233-.45-38.758-.592-50.988-.058-6.1-.1-10.879-.135-14.146-.009-1.618-.016-2.86-.022-3.712s.013-1.271.013-1.271.025.431.046,1.271.044,2.091.077,3.711c.056,3.266.137,8.043.24,14.144.182,12.229.441,29.753.756,50.986V393l0,.018c-3.451,19.38-7.482,42.018-11.852,66.55l-.226-.271,26.93,0h4.319l-.226.172c6-21.422,11.7-41.78,16.874-60.272.327-1.157.6-2.3.866-3.452.219-1.161.459-2.31.656-3.461.387-2.3.746-4.578,1.058-6.827.643-4.5,1.188-8.871,1.694-13.1,1-8.464,1.844-16.352,2.593-23.552q.554-5.4,1.052-10.27.252-2.43.491-4.722c.14-1.537.431-3,.575-4.419a43.378,43.378,0,0,0-.655-14.6,21.007,21.007,0,0,0-3.777-8.385l-.437-.607c-.148-.18-.308-.328-.445-.475l-.7-.732C488.086,304.192,487.9,303.981,487.9,303.981Z" transform="translate(-437.314 -303.981)" fill="#263238"/>
                    </g>
                  </g>
                </g>
              </g>
            </g>
            <g id="Grupo_127119" data-name="Grupo 127119" transform="translate(64.402 24.521)">
              <g id="Grupo_127118" data-name="Grupo 127118">
                <path id="Trazado_177127" data-name="Trazado 177127" d="M481.76,301.648c-.015.089-1.487-.271-3.9-.286a20.842,20.842,0,0,0-16.414,7.745c-1.523,1.871-2.181,3.236-2.26,3.191a4.079,4.079,0,0,1,.431-.968,17.559,17.559,0,0,1,1.569-2.428,20.013,20.013,0,0,1,16.681-7.871,17.538,17.538,0,0,1,2.871.333A4.023,4.023,0,0,1,481.76,301.648Z" transform="translate(-459.183 -301.014)" fill="#263238"/>
              </g>
            </g>
          </g>
        </g>
      </g>
    </g>
  </g>
</svg>
