<svg xmlns="http://www.w3.org/2000/svg" width="100.009" height="119.09" viewBox="0 0 100.009 119.09">
  <g id="Grupo_128037" data-name="Grupo 128037" transform="translate(-98.697 -184.89)">
    <path id="Trazado_190689" data-name="Trazado 190689" d="M298.2,184.89a2.389,2.389,0,0,1,1.211,2.309c-.038,6.042-.018,12.085-.019,18.127,0,.194.006.388-.012.581a1.741,1.741,0,0,1-3.48.025c-.061-1.042-.023-2.091-.024-3.136,0-5.152.023-10.3-.019-15.455a2.544,2.544,0,0,1,1.181-2.451Z" transform="translate(-147.391 0)" fill="#fece10"/>
    <path id="Trazado_190690" data-name="Trazado 190690" d="M202.347,330.934a25.5,25.5,0,1,1,25.406,25.487A25.5,25.5,0,0,1,202.347,330.934ZM229.222,315.9c0-.773.058-1.474-.014-2.161a1.6,1.6,0,0,0-1.7-1.558,1.624,1.624,0,0,0-1.753,1.508,4.489,4.489,0,0,0-.018,1.275c.1.767-.174,1.136-.933,1.426a8.325,8.325,0,0,0,1.052,15.891c.971.232,2,.211,2.984.4a4.777,4.777,0,0,1,3.761,5.644,4.833,4.833,0,0,1-5.068,3.877c-2.488-.148-4.241-1.97-4.552-4.73-.14-1.241-.864-1.933-1.927-1.841a1.75,1.75,0,0,0-1.6,2.035,7.682,7.682,0,0,0,4,6.79c1.532.839,2.645,1.492,2.352,3.514-.131.9.727,1.51,1.724,1.482a1.633,1.633,0,0,0,1.69-1.581,4.5,4.5,0,0,0,.012-1.16c-.1-.781.175-1.113.973-1.357a8.29,8.29,0,0,0,5.524-10.606c-1.131-3.431-4.083-5.539-8.049-5.75a4.81,4.81,0,0,1,.143-9.619c2.665-.007,4.523,1.812,4.865,4.762a1.74,1.74,0,1,0,3.466-.165,8.729,8.729,0,0,0-.351-2.168C234.822,318.576,232.569,316.711,229.222,315.9Z" transform="translate(-77.488 -90.14)" fill="#fece10"/>
    <path id="Trazado_190691" data-name="Trazado 190691" d="M163.376,561.529c0-2.8-.044-5.463.011-8.126.083-3.99.259-7.978.338-11.967a1.685,1.685,0,0,1,.978-1.635c7.349-4.165,14.8-4.354,22.291-.492a23.092,23.092,0,0,0,10.554,2.748c4.493.042,8.985.232,13.478.37a9.068,9.068,0,0,1,8.445,6.486c.086.289.123.593.21,1.025-.5,0-.914.01-1.323,0q-9.876-.263-19.753-.529a9.768,9.768,0,0,0-1.046,0,1.737,1.737,0,0,0-1.677,1.735,1.7,1.7,0,0,0,1.655,1.749c1.275.086,2.555.113,3.833.148q9.76.272,19.52.531c1.98.051,2.539-.547,2.478-2.562-.059-1.973-.054-1.961,1.746-2.811,4.828-2.279,9.645-4.581,14.478-6.849a6.254,6.254,0,0,1,7.457,1.258c-2.41,1.566-4.8,3.125-7.192,4.673-8.453,5.467-16.921,10.91-25.355,16.406a18.939,18.939,0,0,1-13.539,2.952,118.235,118.235,0,0,1-12.476-3.113c-4.593-1.239-9.178-2.51-13.735-3.873a11.786,11.786,0,0,0-9.937,1.127C164.356,561.049,163.868,561.272,163.376,561.529Z" transform="translate(-48.341 -262.891)" fill="#fece10"/>
    <path id="Trazado_190692" data-name="Trazado 190692" d="M99.568,526.275h12.478c-.288,10.635-.571,21.092-.853,31.488H98.7C98.992,547.1,99.281,536.662,99.568,526.275Z" transform="translate(0 -255.218)" fill="#fece10"/>
    <path id="Trazado_190693" data-name="Trazado 190693" d="M239.476,231.241c0,1.428.016,2.857,0,4.285a1.8,1.8,0,0,1-1.768,2.01c-1.034-.009-1.728-.8-1.735-2.038q-.022-4.285,0-8.571a1.773,1.773,0,0,1,1.763-2c1.041.009,1.724.785,1.74,2.029C239.49,228.384,239.476,229.812,239.476,231.241Z" transform="translate(-102.615 -29.931)" fill="#fece10"/>
    <path id="Trazado_190694" data-name="Trazado 190694" d="M359.379,231.28c0,1.434.019,2.868-.007,4.3a1.77,1.77,0,0,1-1.7,1.961,1.809,1.809,0,0,1-1.812-1.987q-.037-4.3,0-8.6a1.8,1.8,0,0,1,1.782-2.011c1.052.007,1.712.759,1.73,2.037C359.4,228.412,359.38,229.846,359.379,231.28Z" transform="translate(-192.243 -29.943)" fill="#fece10"/>
  </g>
</svg>
