<svg xmlns="http://www.w3.org/2000/svg" xmlns:xlink="http://www.w3.org/1999/xlink" width="115" height="115.056" viewBox="0 0 115 115.056">
  <defs>
    <clipPath id="clip-path">
      <circle id="Elipse_6331" data-name="Elipse 6331" cx="55" cy="55" r="55" transform="translate(252.679 2558)" fill="#fece10" stroke="#fece10" stroke-width="13"/>
    </clipPath>
    <clipPath id="clip-path-2">
      <rect id="Rectángulo_40364" data-name="Rectángulo 40364" width="57.154" height="70" fill="none"/>
    </clipPath>
  </defs>
  <g id="Grupo_130111" data-name="Grupo 130111" transform="translate(-585 -1633)">
    <g id="Grupo_130102" data-name="Grupo 130102" transform="translate(0 -0.056)">
      <circle id="Elipse_6327" data-name="Elipse 6327" cx="57.5" cy="57.5" r="57.5" transform="translate(585 1633.056)" fill="#fff"/>
      <g id="Grupo_129982" data-name="Grupo 129982" transform="translate(613.423 1655.556)">
        <g id="Grupo_129982-2" data-name="Grupo 129982" clip-path="url(#clip-path-2)">
          <path id="Trazado_195410" data-name="Trazado 195410" d="M56.128,58.276v7.052a3.646,3.646,0,0,1-3.646,3.646H4.552a3.526,3.526,0,0,1-3.526-3.526,6.863,6.863,0,0,1,1.032-3.629c.639-.638,2.755-4.066,3.729-4.066l43.57-2.316C51.371,55.437,56.128,60.29,56.128,58.276Z" fill="#fff9e3"/>
          <path id="Trazado_195411" data-name="Trazado 195411" d="M56.128,4.672V58.277a3.646,3.646,0,0,1-3.646,3.646H4.552a3.527,3.527,0,0,0-3.526,3.526V4.552A3.525,3.525,0,0,1,4.552,1.026h47.93A3.646,3.646,0,0,1,56.128,4.672Z" fill="#feeeab"/>
          <path id="Trazado_195412" data-name="Trazado 195412" d="M8.411,1.025A3.529,3.529,0,0,0,4.885,4.551V61.922H4.551a3.529,3.529,0,0,0-3.526,3.526V4.551A3.53,3.53,0,0,1,4.551,1.025Z" fill="#fece2f"/>
          <path id="Trazado_195413" data-name="Trazado 195413" d="M56.128,17.945V42.36H4.552a3.526,3.526,0,0,0-3.526,3.526V21.47a3.523,3.523,0,0,1,3.526-3.525H56.128Z" fill="#c3e1ac"/>
          <path id="Trazado_195414" data-name="Trazado 195414" d="M4.886,17.945V42.36H4.552a3.526,3.526,0,0,0-3.526,3.526V21.47a3.525,3.525,0,0,1,3.526-3.525Z" fill="#54aa13"/>
          <path id="Trazado_195415" data-name="Trazado 195415" d="M44.983,16.918H4.552a4.517,4.517,0,0,0-2.5.752V13.048a1.026,1.026,0,0,0-2.051,0v52.4A4.557,4.557,0,0,0,4.551,70H24.386a1.026,1.026,0,1,0,0-2.051H4.551A2.5,2.5,0,0,1,2.785,63.68a2.478,2.478,0,0,1,1.766-.732H52.482a4.643,4.643,0,0,0,2.621-.807v3.187a2.624,2.624,0,0,1-2.621,2.621H29.171a1.026,1.026,0,0,0,0,2.051H52.482a4.677,4.677,0,0,0,4.672-4.672V4.671A4.677,4.677,0,0,0,52.482,0H4.551A4.555,4.555,0,0,0,0,4.551v3.8a1.026,1.026,0,1,0,2.051,0v-3.8a2.5,2.5,0,0,1,2.5-2.5H52.482A2.623,2.623,0,0,1,55.1,4.671V16.918h-8.07M52.482,60.9H4.551a4.514,4.514,0,0,0-2.5.748V45.885a2.5,2.5,0,0,1,2.5-2.5H46.008a1.025,1.025,0,1,0,0-2.051H4.551a4.523,4.523,0,0,0-2.5.751V21.47a2.5,2.5,0,0,1,2.5-2.5H55.1V41.334H50.794a1.025,1.025,0,1,0,0,2.051H55.1V58.276A2.624,2.624,0,0,1,52.482,60.9Z"/>
          <path id="Trazado_195416" data-name="Trazado 195416" d="M43.866,47.449H14.734a1.025,1.025,0,1,0,0,2.051H43.866a1.025,1.025,0,0,0,0-2.051"/>
          <path id="Trazado_195417" data-name="Trazado 195417" d="M34.164,51.823H24.436a1.025,1.025,0,0,0,0,2.051h9.728a1.025,1.025,0,0,0,0-2.051"/>
        </g>
      </g>
    </g>
    <g id="Elipse_6332" data-name="Elipse 6332" transform="translate(585 1633.056)" fill="none" stroke="#fece10" stroke-width="4">
      <circle cx="57.5" cy="57.5" r="57.5" stroke="none"/>
      <circle cx="57.5" cy="57.5" r="55.5" fill="none"/>
    </g>
  </g>
</svg>
