<svg xmlns="http://www.w3.org/2000/svg" xmlns:xlink="http://www.w3.org/1999/xlink" width="115" height="115" viewBox="0 0 115 115">
  <defs>
    <clipPath id="clip-path">
      <circle id="Elipse_6337" data-name="Elipse 6337" cx="55" cy="55" r="55" transform="translate(252.679 2558)" fill="#fece10" stroke="#fece10" stroke-width="13"/>
    </clipPath>
    <clipPath id="clip-path-2">
      <rect id="Rectángulo_40368" data-name="Rectángulo 40368" width="65.028" height="70" fill="none"/>
    </clipPath>
  </defs>
  <g id="Grupo_130112" data-name="Grupo 130112" transform="translate(-900 -1633.056)">
    <g id="Grupo_130103" data-name="Grupo 130103">
      <circle id="Elipse_6333" data-name="Elipse 6333" cx="57.5" cy="57.5" r="57.5" transform="translate(900 1633.056)" fill="#fff"/>
      <g id="Grupo_129984" data-name="Grupo 129984" transform="translate(926.986 1655.556)">
        <g id="Grupo_129983" data-name="Grupo 129983" clip-path="url(#clip-path-2)">
          <path id="Trazado_195418" data-name="Trazado 195418" d="M53.507,5.445H6.55V2.407A1.381,1.381,0,0,1,7.931,1.026H52.126a1.381,1.381,0,0,1,1.381,1.381Z" fill="#fece2f"/>
          <path id="Trazado_195419" data-name="Trazado 195419" d="M54.888,9.864H5.169V6.826A1.381,1.381,0,0,1,6.55,5.445H53.507a1.381,1.381,0,0,1,1.381,1.381Z" fill="#feeeab"/>
          <path id="Trazado_195420" data-name="Trazado 195420" d="M59.031,68.975H1.178L1.026,51.021H59.031Z" fill="#c3e1ac"/>
          <path id="Trazado_195421" data-name="Trazado 195421" d="M59.031,60.1l-8.365-8.365q.157-.354.3-.711H15.057A19.345,19.345,0,0,0,40.9,61.495l7.479,7.479H59.031Z" fill="#54aa13"/>
          <path id="Trazado_195422" data-name="Trazado 195422" d="M56.269,51.021H3.788V11.245a1.38,1.38,0,0,1,1.381-1.38H54.888a1.38,1.38,0,0,1,1.381,1.38Z" fill="#fff8db"/>
          <rect id="Rectángulo_40365" data-name="Rectángulo 40365" width="13.811" height="17.125" transform="translate(8.207 14.284)" fill="#54aa13"/>
          <path id="Trazado_195423" data-name="Trazado 195423" d="M54.888,9.864h-3.64a1.381,1.381,0,0,1,1.381,1.381V51.02h3.64V11.245A1.381,1.381,0,0,0,54.888,9.864Z" fill="#feeeab"/>
          <rect id="Rectángulo_40366" data-name="Rectángulo 40366" width="8.286" height="4.971" transform="translate(41.396 58.096) rotate(-45)" fill="#2432ff"/>
          <rect id="Rectángulo_40367" data-name="Rectángulo 40367" width="4.971" height="4.971" transform="translate(46.083 60.44) rotate(-45)" fill="#d5d7fe"/>
          <path id="Trazado_195424" data-name="Trazado 195424" d="M64,68.975H52.284l-3.846-3.846,5.859-5.86Z" fill="#2431fb"/>
          <path id="Trazado_195425" data-name="Trazado 195425" d="M54.3,59.269l-1.953,1.953L60.1,68.975H64Z" fill="#111baa"/>
          <path id="Trazado_195426" data-name="Trazado 195426" d="M33.008,27.266A16.573,16.573,0,1,1,16.435,43.839,16.573,16.573,0,0,1,33.008,27.266" fill="#d5d7ff"/>
          <path id="Trazado_195427" data-name="Trazado 195427" d="M43.031,30.64A16.573,16.573,0,0,1,19.81,53.861,16.573,16.573,0,1,0,43.031,30.64Z" fill="#8b92ff"/>
          <path id="Trazado_195428" data-name="Trazado 195428" d="M33.008,31.686A12.153,12.153,0,1,1,20.855,43.839,12.153,12.153,0,0,1,33.008,31.686" fill="#e4f6ff"/>
          <path id="Trazado_195429" data-name="Trazado 195429" d="M40.348,34.152A12.153,12.153,0,0,1,23.322,51.178,12.153,12.153,0,1,0,40.348,34.152Z" fill="#d3effb"/>
          <path id="Trazado_195430" data-name="Trazado 195430" d="M3.789,38.3a1.026,1.026,0,0,0,1.025-1.026V11.246a.357.357,0,0,1,.355-.356h49.72a.356.356,0,0,1,.355.356v12.36a1.025,1.025,0,1,0,2.051,0V11.246a2.407,2.407,0,0,0-1.381-2.174V6.826a2.408,2.408,0,0,0-1.381-2.173V2.407A2.41,2.41,0,0,0,52.126,0H7.932A2.41,2.41,0,0,0,5.525,2.407V4.653A2.407,2.407,0,0,0,4.144,6.826V9.072a2.407,2.407,0,0,0-1.381,2.174V37.278A1.027,1.027,0,0,0,3.789,38.3ZM6.2,6.826a.355.355,0,0,1,.356-.355H53.507a.355.355,0,0,1,.356.355V8.839H6.2ZM7.576,2.407a.357.357,0,0,1,.356-.356H52.126a.357.357,0,0,1,.356.356V4.42H7.576Z"/>
          <path id="Trazado_195431" data-name="Trazado 195431" d="M42.327,34.52a13.179,13.179,0,1,0,3.86,9.319,13.092,13.092,0,0,0-3.86-9.319m-1.45,17.188a11.13,11.13,0,1,1,3.259-7.869,11.054,11.054,0,0,1-3.259,7.869"/>
          <path id="Trazado_195432" data-name="Trazado 195432" d="M64.728,68.25l-4.672-4.672V51.021a1.026,1.026,0,0,0-1.026-1.026H57.294v-21.6a1.025,1.025,0,0,0-2.051,0v21.6h-5.75a17.6,17.6,0,0,0-26.45-20.662V14.284a1.026,1.026,0,0,0-1.025-1.026H8.207a1.026,1.026,0,0,0-1.025,1.026V31.409a1.025,1.025,0,0,0,1.025,1.026H19.6a17.632,17.632,0,0,0-3.082,17.56H4.813V42.063a1.025,1.025,0,1,0-2.049,0v7.932H1.025A1.026,1.026,0,0,0,0,51.029L.153,68.983A1.025,1.025,0,0,0,1.178,70H7.271a1.026,1.026,0,0,0,0-2.051H2.195l-.136-15.9h15.38a17.627,17.627,0,0,0,23.81,7.344L44.2,62.338a1.026,1.026,0,0,0,1.45,0l.447-.447,2.065,2.065-.446.447a1.024,1.024,0,0,0,0,1.45l2.095,2.1H12.056a1.026,1.026,0,1,0,0,2.051h40.23a1.025,1.025,0,0,0,.723-1.75l-3.121-3.121,4.409-4.41L63.278,69.7a1.025,1.025,0,0,0,1.45-1.45ZM9.232,15.309h11.76V30.384H9.232ZM22.014,54.833a15.548,15.548,0,1,1,21.988,0,15.566,15.566,0,0,1-21.988,0m21.038,3.459a17.716,17.716,0,0,0,4.409-4.409l1.87,1.87-4.409,4.41Zm4.492,2.149,2.065-2.066,2.066,2.066-2.066,2.066Zm6.028-1.9-.447.447L51.06,56.925l.446-.447a1.024,1.024,0,0,0,0-1.45L48.559,52.08l.018-.034h9.428v9.481l-2.983-2.983A1.026,1.026,0,0,0,53.572,58.544Z"/>
          <path id="Trazado_195433" data-name="Trazado 195433" d="M51.85,13.258H26.714a1.025,1.025,0,0,0,0,2.051H51.85a1.025,1.025,0,0,0,0-2.051"/>
          <path id="Trazado_195434" data-name="Trazado 195434" d="M52.875,18.7a1.025,1.025,0,0,0-1.025-1.025H26.714a1.025,1.025,0,1,0,0,2.05H51.85A1.025,1.025,0,0,0,52.875,18.7"/>
          <path id="Trazado_195435" data-name="Trazado 195435" d="M26.714,22.1a1.026,1.026,0,0,0,0,2.051H43.563a1.026,1.026,0,1,0,0-2.051Z"/>
        </g>
      </g>
    </g>
    <g id="Elipse_6338" data-name="Elipse 6338" transform="translate(900 1633.056)" fill="none" stroke="#fece10" stroke-width="4">
      <circle cx="57.5" cy="57.5" r="57.5" stroke="none"/>
      <circle cx="57.5" cy="57.5" r="55.5" fill="none"/>
    </g>
  </g>
</svg>
