<svg xmlns="http://www.w3.org/2000/svg" xmlns:xlink="http://www.w3.org/1999/xlink" width="259.938" height="278.675" viewBox="0 0 259.938 278.675">
  <defs>
    <filter id="paris-4345139_1920" x="0" y="0" width="259.938" height="278.675" filterUnits="userSpaceOnUse">
      <feOffset dy="3" input="SourceAlpha"/>
      <feGaussianBlur stdDeviation="3" result="blur"/>
      <feFlood flood-opacity="0.161"/>
      <feComposite operator="in" in2="blur"/>
      <feComposite in="SourceGraphic"/>
    </filter>
  </defs>
  <g id="Grupo_127240" data-name="Grupo 127240" transform="translate(7904 13073.675)">
    <g transform="matrix(1, 0, 0, 1, -7904, -13073.67)" filter="url(#paris-4345139_1920)">
      <rect id="paris-4345139_1920-2" data-name="paris-4345139_1920" width="241.938" height="260.674" rx="20" transform="translate(9 6)" fill="#fff"/>
    </g>
    <g id="Grupo_127239" data-name="Grupo 127239" transform="translate(-7805 -12977.674)">
      <path id="Trazado_172011" data-name="Trazado 172011" d="M536.24,95.082c0,1.228-.01,2.426,0,3.624a1.486,1.486,0,0,1-.733,1.486,1.464,1.464,0,0,1-1.638-.24c-.809-.548-1.641-1.065-2.432-1.638a.8.8,0,0,0-1.108-.018c-.762.564-1.581,1.051-2.363,1.589-.552.38-1.1.691-1.774.3a1.584,1.584,0,0,1-.7-1.592c.02-1.167.006-2.335.006-3.592h-1.05q-16.642,0-33.284,0c-5.208,0-8.6-3.393-8.6-8.6q0-28.425,0-56.85a9.344,9.344,0,0,1,7.26-9.434,10.57,10.57,0,0,1,2.405-.26q25.11-.022,50.22-.01c1.42,0,1.837.42,1.837,1.852q0,35.72,0,71.44c0,1.434-.418,1.855-1.833,1.859q-2.976.007-5.952.011A1.592,1.592,0,0,0,536.24,95.082Zm5.326-72.55h-.857q-24.194,0-48.389,0a6.7,6.7,0,0,0-7.067,7.044q-.006,25.246,0,50.492c0,.236.021.471.038.851,2.025-1.757,4.312-2.049,6.753-2.043q24.236.054,48.473.019h1.049Zm.024,59.048h-35.6q-7.631,0-15.261,0a5.19,5.19,0,0,0-4.362,2.1,5.082,5.082,0,0,0-.551,5.607,5.164,5.164,0,0,0,4.934,3.019q17.064.015,34.129,0c.188,0,.375-.019.576-.029v-4H497.986c-1.358,0-2-.439-1.993-1.356s.638-1.328,2.019-1.328H541.59Zm-13.342,6.747v8.146c.529-.346.968-.631,1.4-.92,1.142-.756,1.3-.755,2.475.014.434.285.87.567,1.385.9V88.327ZM541.553,92.3V88.351H536.31V92.3Z" transform="translate(-482.566 -19.848)" fill="#54aa13"/>
      <path id="Trazado_172013" data-name="Trazado 172013" d="M568.532,108.015c-1.257,0-2.515.011-3.772,0a1.368,1.368,0,0,1-1.551-1.545c-.014-1.425.01-2.851-.018-4.276a.93.93,0,0,0-.324-.654c-.092-.067-.447.114-.6.265-1,.974-1.973,1.979-2.969,2.959a1.4,1.4,0,0,1-2.314,0q-2.649-2.627-5.276-5.276a1.4,1.4,0,0,1-.011-2.313c.98-1,1.987-1.965,2.956-2.972a.951.951,0,0,0,.24-.694c-.014-.109-.395-.238-.612-.242-1.4-.022-2.794,0-4.191-.013-1.154-.008-1.635-.481-1.639-1.627q-.013-3.731,0-7.462c0-1.158.477-1.634,1.622-1.643,1.4-.01,2.795.012,4.191-.016a.949.949,0,0,0,.66-.318c.068-.088-.107-.45-.257-.6-.973-1-1.977-1.975-2.958-2.97a1.4,1.4,0,0,1-.013-2.313q2.626-2.649,5.276-5.276c.852-.846,1.5-.834,2.374.031.934.923,1.843,1.872,2.792,2.78a3.1,3.1,0,0,0,.816.41,3.125,3.125,0,0,0,.242-.812c.025-1.369,0-2.739.015-4.108.01-1.053.5-1.558,1.53-1.563q3.814-.019,7.628,0c1.084,0,1.561.5,1.57,1.611.01,1.341-.015,2.683.016,4.024a3.05,3.05,0,0,0,.291.859,2.989,2.989,0,0,0,.746-.392c.965-.932,1.9-1.9,2.85-2.841A1.4,1.4,0,0,1,580.154,71q2.68,2.655,5.333,5.338a1.38,1.38,0,0,1-.024,2.254c-.919.939-1.872,1.843-2.779,2.792a3.712,3.712,0,0,0-.471.874,4.352,4.352,0,0,0,.974.25c1.285.029,2.571.006,3.856.014,1.159.007,1.65.478,1.654,1.612q.014,3.773,0,7.546c0,1.085-.5,1.564-1.609,1.574-1.285.011-2.571-.018-3.856.016a4.358,4.358,0,0,0-1.031.285,5.081,5.081,0,0,0,.57.925c.848.889,1.746,1.732,2.6,2.613a5.374,5.374,0,1,1-7.637,7.554c-.955-.942-1.885-1.909-2.853-2.838a.939.939,0,0,0-.694-.235c-.11.016-.235.4-.238.614-.021,1.4,0,2.795-.013,4.192-.008,1.15-.485,1.626-1.633,1.635C571.047,108.023,569.789,108.015,568.532,108.015Zm2.724-2.7c0-1.275.009-2.471,0-3.667-.01-.955-.124-1.942,1.184-2.362-1.035-1.01-1.955-1.867-2.823-2.774a1.811,1.811,0,0,0-1.38-.593,8.051,8.051,0,0,1-7.261-10.672c.466-1.277,1.483-1.534,2.452-.6a20.671,20.671,0,0,1,2.059,2.087,2.449,2.449,0,0,0,2.589.743,2.5,2.5,0,0,0-.864-2.874,16.657,16.657,0,0,1-1.671-1.645c-1.245-1.254-.972-2.278.744-2.785a8.07,8.07,0,0,1,10.34,7.5c.007.245-.035.578.1.719,1.057,1.091,2.151,2.144,3.291,3.265a1.642,1.642,0,0,1,1.849-1.089c1.36.034,2.721.009,4.1.009V85.2c-1.42,0-2.785,0-4.151,0-1.17,0-1.461-.217-1.847-1.3-.159-.446-.34-.886-.535-1.317a1.482,1.482,0,0,1,.389-2.149c.988-.981,1.989-1.949,2.893-2.831l-3.841-3.843c-.936.947-1.945,1.949-2.933,2.971a1.509,1.509,0,0,1-1.961.356,10.908,10.908,0,0,0-1.548-.628,1.551,1.551,0,0,1-1.179-1.7c.031-1.417.009-2.834.009-4.276h-5.367c0,1.389,0,2.726,0,4.063,0,1.289-.18,1.532-1.371,1.957-.42.15-.831.327-1.237.512a1.49,1.49,0,0,1-2.151-.382c-.984-.985-1.957-1.981-2.863-2.9l-3.829,3.831c.959.948,1.961,1.957,2.984,2.944a1.508,1.508,0,0,1,.36,1.96,11.013,11.013,0,0,0-.628,1.548,1.552,1.552,0,0,1-1.693,1.182c-1.417-.03-2.834-.008-4.279-.008V90.57c1.388,0,2.724,0,4.06,0,1.3,0,1.532.174,1.959,1.368.15.42.326.831.511,1.237a1.492,1.492,0,0,1-.378,2.153c-.985.985-1.98,1.958-2.887,2.853l3.856,3.882c.638-.674,1.392-1.352,2-2.141a2.66,2.66,0,0,1,3.872-.845c1.624.866,1.711.7,1.711,2.587v3.647Zm-2.2-22.572a13.031,13.031,0,0,1,1.243,1.215,2.23,2.23,0,0,1,.547,1.166c.051,1.254.013,2.514-.046,3.769a1.3,1.3,0,0,1-1.415,1.332c-.7.019-1.4-.06-2.094,0a3.523,3.523,0,0,1-3.513-1.439,3.037,3.037,0,0,0-.5-.432,3.006,3.006,0,0,0,0,.4,5.3,5.3,0,0,0,5.528,4.467,2.65,2.65,0,0,1,2.21.883c2.8,2.851,5.634,5.664,8.466,8.481a4.244,4.244,0,0,0,.98.77,2.673,2.673,0,0,0,3.377-.764,2.63,2.63,0,0,0-.292-3.51q-4.335-4.375-8.716-8.705a2.727,2.727,0,0,1-.926-2.275A5.011,5.011,0,0,0,569.056,82.74Z" transform="translate(-533.684 -57.019)" fill="#54aa13"/>
      <path id="Trazado_172014" data-name="Trazado 172014" d="M521.171,97.258q0,7.716,0,15.432a4.691,4.691,0,0,1-.022.837,1.331,1.331,0,0,1-2.64,0,4.187,4.187,0,0,1-.021-.753q0-15.516,0-31.032a4.2,4.2,0,0,1,.021-.753,1.331,1.331,0,0,1,2.64,0,4.717,4.717,0,0,1,.022.837Q521.172,89.542,521.171,97.258Z" transform="translate(-510.436 -66.392)" fill="#54aa13"/>
      <path id="Trazado_172015" data-name="Trazado 172015" d="M521.134,46.524c0,.475.032.953-.008,1.425a1.32,1.32,0,0,1-1.334,1.246,1.3,1.3,0,0,1-1.315-1.261c-.043-.948-.044-1.9,0-2.849a1.3,1.3,0,0,1,1.329-1.244,1.319,1.319,0,0,1,1.319,1.26C521.166,45.572,521.135,46.049,521.134,46.524Z" transform="translate(-510.407 -38.465)" fill="#54aa13"/>
      <path id="Trazado_172016" data-name="Trazado 172016" d="M518.5,250.154a12.1,12.1,0,0,1,.011-1.424,1.325,1.325,0,0,1,2.638,0,27.634,27.634,0,0,1,0,2.933,1.324,1.324,0,0,1-2.638,0A13.339,13.339,0,0,1,518.5,250.154Z" transform="translate(-510.433 -196.517)" fill="#54aa13"/>
      <path id="Trazado_172017" data-name="Trazado 172017" d="M509.179,316.006c-.447,0-.9.027-1.341-.007a1.324,1.324,0,0,1-1.279-1.3,1.308,1.308,0,0,1,1.307-1.355c.921-.037,1.845-.038,2.766,0a1.306,1.306,0,0,1,1.281,1.3A1.329,1.329,0,0,1,510.6,316C510.131,316.033,509.654,316.007,509.179,316.006Z" transform="translate(-501.184 -247.57)" fill="#54aa13"/>
      <path id="Trazado_172018" data-name="Trazado 172018" d="M671.24,188.944a1.37,1.37,0,0,1-1.985,1.389,2.577,2.577,0,0,1-.516-.42q-3.036-3-6.064-6.007c-.747-.743-.84-1.534-.273-2.126.589-.615,1.407-.531,2.188.242,2,1.981,4.009,3.96,5.992,5.962A5.4,5.4,0,0,1,671.24,188.944Z" transform="translate(-621.83 -145.188)" fill="#54aa13"/>
    </g>
  </g>
</svg>
