<svg xmlns="http://www.w3.org/2000/svg" xmlns:xlink="http://www.w3.org/1999/xlink" width="259.938" height="278.674" viewBox="0 0 259.938 278.674">
  <defs>
    <filter id="paris-4345139_1920" x="0" y="0" width="259.938" height="278.674" filterUnits="userSpaceOnUse">
      <feOffset dy="3" input="SourceAlpha"/>
      <feGaussianBlur stdDeviation="3" result="blur"/>
      <feFlood flood-opacity="0.161"/>
      <feComposite operator="in" in2="blur"/>
      <feComposite in="SourceGraphic"/>
    </filter>
  </defs>
  <g id="Grupo_127265" data-name="Grupo 127265" transform="translate(-533.051 -1449)">
    <g transform="matrix(1, 0, 0, 1, 533.05, 1449)" filter="url(#paris-4345139_1920)">
      <rect id="paris-4345139_1920-2" data-name="paris-4345139_1920" width="241.938" height="260.674" rx="20" transform="translate(9 6)" fill="#fff"/>
    </g>
    <g id="Grupo_110940" data-name="Grupo 110940" transform="translate(616.155 1523.715)">
      <path id="Trazado_172011" data-name="Trazado 172011" d="M564.07,134.092c0,1.865-.015,3.685.006,5.5a2.256,2.256,0,0,1-1.112,2.256,2.224,2.224,0,0,1-2.487-.365c-1.229-.832-2.491-1.617-3.693-2.487a1.214,1.214,0,0,0-1.683-.028c-1.158.856-2.4,1.6-3.589,2.413-.839.577-1.674,1.049-2.694.454a2.4,2.4,0,0,1-1.057-2.417c.03-1.772.009-3.545.009-5.455h-1.594q-25.271,0-50.542,0c-7.909,0-13.064-5.152-13.065-13.055q0-43.163,0-86.327c0-7.1,4.329-12.739,11.024-14.325a16.05,16.05,0,0,1,3.652-.395q38.129-.033,76.259-.016c2.157,0,2.789.638,2.789,2.813q0,54.241,0,108.482c0,2.178-.634,2.817-2.783,2.822q-4.519.01-9.038.017A2.407,2.407,0,0,0,564.07,134.092Zm8.087-110.167h-1.3q-36.739,0-73.48,0c-6.385,0-10.729,4.33-10.731,10.7q-.01,38.336,0,76.672c0,.358.031.716.058,1.292,3.074-2.667,6.548-3.111,10.255-3.1q36.8.082,73.607.028h1.594Zm.036,89.665H518.129q-11.587,0-23.174,0a7.881,7.881,0,0,0-6.623,3.193,7.716,7.716,0,0,0-.837,8.515,7.841,7.841,0,0,0,7.493,4.585q25.912.023,51.824.005c.285,0,.57-.028.874-.044v-6.067h-41.7c-2.063,0-3.041-.667-3.027-2.058s.969-2.017,3.065-2.017h66.174Zm-20.26,10.245V136.2c.8-.526,1.47-.959,2.133-1.4,1.734-1.148,1.978-1.147,3.758.021.659.433,1.321.861,2.1,1.371V123.834Zm20.205,6.032v-5.995h-7.962v5.995Z" transform="translate(-482.566 -19.848)" fill="#54aa13"/>
      <path id="Trazado_172013" data-name="Trazado 172013" d="M578.949,128.893c-1.909,0-3.819.016-5.728-.005a2.077,2.077,0,0,1-2.354-2.346c-.022-2.164.015-4.329-.028-6.492a1.412,1.412,0,0,0-.493-.994c-.14-.1-.679.173-.916.4-1.52,1.48-3,3-4.508,4.493-1.259,1.239-2.262,1.241-3.514,0q-4.022-3.989-8.011-8.012c-1.249-1.26-1.251-2.258-.017-3.512,1.488-1.512,3.017-2.984,4.488-4.513a1.445,1.445,0,0,0,.365-1.054c-.021-.165-.6-.362-.929-.367-2.121-.033-4.243-.007-6.365-.02-1.752-.012-2.483-.73-2.489-2.471q-.019-5.665,0-11.331c.006-1.758.725-2.482,2.464-2.494,2.122-.015,4.244.018,6.364-.025a1.441,1.441,0,0,0,1-.482c.1-.134-.162-.683-.391-.918-1.478-1.522-3-3-4.492-4.51-1.246-1.264-1.258-2.264-.02-3.512q3.988-4.023,8.012-8.011c1.295-1.284,2.275-1.267,3.606.047,1.419,1.4,2.8,2.843,4.239,4.221a4.711,4.711,0,0,0,1.24.622,4.737,4.737,0,0,0,.368-1.233c.038-2.079,0-4.159.023-6.238.015-1.6.753-2.366,2.324-2.374q5.792-.03,11.584,0c1.646.007,2.37.763,2.384,2.446.016,2.037-.023,4.074.025,6.11a4.624,4.624,0,0,0,.442,1.3,4.54,4.54,0,0,0,1.133-.595c1.465-1.415,2.878-2.883,4.328-4.314,1.267-1.251,2.267-1.27,3.514-.035q4.07,4.032,8.1,8.106c1.172,1.186,1.154,2.207-.036,3.422-1.4,1.425-2.844,2.8-4.22,4.24a5.631,5.631,0,0,0-.715,1.327,6.612,6.612,0,0,0,1.479.379c1.951.044,3.9.009,5.855.021,1.76.011,2.505.726,2.511,2.448q.022,5.729,0,11.458c-.008,1.648-.765,2.376-2.443,2.389-1.952.016-3.9-.028-5.855.025a6.615,6.615,0,0,0-1.566.433,7.712,7.712,0,0,0,.865,1.4c1.288,1.351,2.651,2.63,3.952,3.969a8.175,8.175,0,0,1,.141,11.74c-3.275,3.237-8.3,3.127-11.738-.269-1.45-1.43-2.863-2.9-4.331-4.309a1.426,1.426,0,0,0-1.053-.356c-.168.024-.357.6-.362.932-.033,2.121-.006,4.243-.02,6.365-.012,1.746-.736,2.47-2.48,2.483C582.768,128.9,580.858,128.893,578.949,128.893Zm4.137-4.106c0-1.936.014-3.752,0-5.569-.015-1.451-.189-2.949,1.8-3.587-1.571-1.533-2.968-2.835-4.287-4.212a2.751,2.751,0,0,0-2.1-.9,12.225,12.225,0,0,1-11.025-16.205c.707-1.939,2.252-2.329,3.724-.914a31.408,31.408,0,0,1,3.127,3.169c1.116,1.43,2.479,1.3,3.931,1.128.408-1.781.2-3.221-1.312-4.364a25.265,25.265,0,0,1-2.538-2.5c-1.891-1.9-1.476-3.459,1.129-4.229a12.254,12.254,0,0,1,15.7,11.387c.011.372-.054.877.154,1.091,1.6,1.656,3.267,3.256,5,4.957a2.494,2.494,0,0,1,2.809-1.653c2.065.051,4.132.014,6.224.014V94.25c-2.156,0-4.229,0-6.3,0-1.776,0-2.218-.329-2.8-1.967-.242-.677-.516-1.345-.813-2-.7-1.538-.627-2.055.59-3.263,1.5-1.489,3.021-2.959,4.393-4.3l-5.833-5.836c-1.422,1.437-2.954,2.959-4.454,4.512a2.291,2.291,0,0,1-2.978.541,16.554,16.554,0,0,0-2.35-.954,2.355,2.355,0,0,1-1.79-2.575c.047-2.151.013-4.3.013-6.493h-8.15c0,2.109,0,4.139,0,6.169,0,1.958-.273,2.326-2.082,2.972-.638.228-1.262.5-1.879.777-1.534.7-2.066.623-3.267-.58-1.494-1.5-2.972-3.008-4.347-4.4l-5.815,5.818c1.457,1.44,2.978,2.972,4.532,4.47a2.29,2.29,0,0,1,.547,2.977,16.7,16.7,0,0,0-.954,2.351,2.357,2.357,0,0,1-2.572,1.795c-2.151-.046-4.3-.012-6.5-.012V102.4c2.107,0,4.137,0,6.166,0,1.968,0,2.326.264,2.974,2.077.228.637.5,1.262.776,1.879.7,1.536.624,2.071-.574,3.269-1.5,1.5-3.008,2.974-4.383,4.333l5.855,5.9c.969-1.023,2.113-2.054,3.042-3.251,1.643-2.118,3.336-2.64,5.88-1.284,2.467,1.315,2.6,1.068,2.6,3.929v5.538Zm-3.34-34.276a19.8,19.8,0,0,1,1.888,1.845,3.387,3.387,0,0,1,.831,1.77c.078,1.9.019,3.817-.07,5.723a1.97,1.97,0,0,1-2.148,2.023c-1.059.028-2.128-.09-3.179,0a5.35,5.35,0,0,1-5.335-2.185,4.627,4.627,0,0,0-.757-.656,4.6,4.6,0,0,0,0,.611,8.041,8.041,0,0,0,8.4,6.783,4.024,4.024,0,0,1,3.356,1.341c4.247,4.33,8.555,8.6,12.855,12.878a6.445,6.445,0,0,0,1.488,1.169,4.059,4.059,0,0,0,5.128-1.16,3.994,3.994,0,0,0-.443-5.33q-6.583-6.643-13.235-13.219a4.14,4.14,0,0,1-1.406-3.455A7.609,7.609,0,0,0,579.745,90.511Z" transform="translate(-526.032 -51.455)" fill="#54aa13"/>
      <path id="Trazado_172014" data-name="Trazado 172014" d="M522.566,106.295q0,11.717,0,23.434a7.106,7.106,0,0,1-.034,1.271,2.021,2.021,0,0,1-4.008,0,6.37,6.37,0,0,1-.031-1.144q0-23.561,0-47.122a6.393,6.393,0,0,1,.031-1.144,2.021,2.021,0,0,1,4.009,0,7.145,7.145,0,0,1,.034,1.271Q522.567,94.578,522.566,106.295Z" transform="translate(-506.264 -59.425)" fill="#54aa13"/>
      <path id="Trazado_172015" data-name="Trazado 172015" d="M522.528,47.916c0,.722.05,1.447-.012,2.163a2,2,0,0,1-2.025,1.891,1.973,1.973,0,0,1-2-1.915c-.065-1.44-.067-2.887,0-4.327a1.966,1.966,0,0,1,2.018-1.889,2,2,0,0,1,2,1.913C522.577,46.47,522.529,47.2,522.528,47.916Z" transform="translate(-506.24 -35.678)" fill="#54aa13"/>
      <path id="Trazado_172016" data-name="Trazado 172016" d="M518.5,251.519a18.357,18.357,0,0,1,.016-2.162,2.011,2.011,0,0,1,4.006,0,41.915,41.915,0,0,1,0,4.453,2.011,2.011,0,0,1-4.006,0A20.266,20.266,0,0,1,518.5,251.519Z" transform="translate(-506.261 -170.071)" fill="#54aa13"/>
      <path id="Trazado_172017" data-name="Trazado 172017" d="M510.538,317.4c-.679,0-1.361.042-2.036-.011a2.011,2.011,0,0,1-1.943-1.977,1.986,1.986,0,0,1,1.985-2.058c1.4-.056,2.8-.058,4.2,0a1.983,1.983,0,0,1,1.945,1.97,2.018,2.018,0,0,1-1.987,2.065C511.983,317.443,511.259,317.4,510.538,317.4Z" transform="translate(-498.397 -213.481)" fill="#54aa13"/>
      <path id="Trazado_172018" data-name="Trazado 172018" d="M676.013,192.87c-.015,1.9-1.678,2.868-3.014,2.108a3.919,3.919,0,0,1-.784-.637q-4.61-4.555-9.209-9.121c-1.134-1.128-1.275-2.33-.415-3.228.893-.934,2.136-.807,3.322.368,3.042,3.009,6.087,6.013,9.1,9.053A8.225,8.225,0,0,1,676.013,192.87Z" transform="translate(-600.983 -126.425)" fill="#54aa13"/>
    </g>
  </g>
</svg>
