<svg xmlns="http://www.w3.org/2000/svg" xmlns:xlink="http://www.w3.org/1999/xlink" width="259.938" height="278.674" viewBox="0 0 259.938 278.674">
  <defs>
    <filter id="paris-4345139_1920" x="0" y="0" width="259.938" height="278.674" filterUnits="userSpaceOnUse">
      <feOffset dy="3" input="SourceAlpha"/>
      <feGaussianBlur stdDeviation="3" result="blur"/>
      <feFlood flood-opacity="0.161"/>
      <feComposite operator="in" in2="blur"/>
      <feComposite in="SourceGraphic"/>
    </filter>
  </defs>
  <g id="Grupo_127264" data-name="Grupo 127264" transform="translate(-276 -1449)">
    <g transform="matrix(1, 0, 0, 1, 276, 1449)" filter="url(#paris-4345139_1920)">
      <rect id="paris-4345139_1920-2" data-name="paris-4345139_1920" width="241.938" height="260.674" rx="20" transform="translate(9 6)" fill="#fff"/>
    </g>
    <g id="Grupo_110941" data-name="Grupo 110941" transform="translate(-583.925 1224.123)">
      <path id="Trazado_168793" data-name="Trazado 168793" d="M1020.735,300.412a2.679,2.679,0,0,1,1.176,2.524c-.049,3.2-.017,6.4-.018,9.6,0,.237.012.476-.01.711a1.855,1.855,0,0,1-1.823,1.82,1.763,1.763,0,0,1-1.724-1.877c-.029-2.608-.011-5.217-.013-7.825v-1.333H935.6v81.237c0,.4.016.793-.012,1.185a1.72,1.72,0,0,1-1.725,1.737,1.762,1.762,0,0,1-1.805-1.674,8.234,8.234,0,0,1-.017-.948q0-41.263-.016-82.525a2.717,2.717,0,0,1,1.18-2.636Z" transform="translate(0 0)" fill="#54aa13"/>
      <path id="Trazado_168794" data-name="Trazado 168794" d="M1054.637,333.983c1,0,1.859-.016,2.718,0a4.217,4.217,0,0,1,4.458,4.476q.024,11.619,0,23.239c0,1.611-1.075,2.547-2.369,2.089-1.037-.367-1.193-1.224-1.192-2.205q.023-11.086.008-22.172c0-.276-.012-.553,0-.829.033-.686-.274-1.041-.972-1.04-.822,0-1.644,0-2.651,0v1.6q0,21.282-.005,42.565a6.517,6.517,0,0,1-.14,1.643,1.472,1.472,0,0,1-1.786,1.183,3.408,3.408,0,0,1-1.551-1.357c-.216-.292-.1-.841-.1-1.275q-.008-5.868,0-11.738v-1.345h-7.93v1.438c0,9.722.137,19.448-.066,29.166-.083,4.023,1.03,7.279,4.09,9.979,2.024-2.231,4-4.512,3.922-7.917s-.033-6.8,0-10.2a1.7,1.7,0,0,1,1.673-1.91,1.78,1.78,0,0,1,1.883,1.849c.025.275.013.553.013.829,0,3.043.006,6.087,0,9.13,0,.592-.041,1.185-.088,1.775a11.108,11.108,0,0,1-2.215,5.782,8.284,8.284,0,0,1-.884,1.112,7.51,7.51,0,0,0-2.6,7.067,1.819,1.819,0,0,1-.03.59,1.736,1.736,0,0,1-3.383.258,2.373,2.373,0,0,1-.123-1.047,7.42,7.42,0,0,0-2.387-6.68c-2.553-2.633-3.409-5.883-3.4-9.543q.091-35.51.018-71.02c0-1.3.186-2.385,1.684-2.714,0-2.411,0-4.741,0-7.071,0-1.862.554-2.438,2.368-2.448,2.372-.013,4.742-.017,7.114,0,1.639.013,2.215.581,2.233,2.215.024,2.095.016,4.189,0,6.284a1.475,1.475,0,0,0,.659,1.339,3.075,3.075,0,0,1,.99,1.95C1054.734,330.628,1054.637,332.244,1054.637,333.983Zm-3.664,23.935V330.467h-7.789V357.82a3,3,0,0,0,.493.094C1046.046,357.919,1048.415,357.918,1050.973,357.918Zm-7.766,7.112c2.442,0,4.835.014,7.228-.029.175,0,.456-.391.5-.633.4-2.37.144-2.681-2.211-2.792-.2-.009-.395-.02-.591-.02-1.638,0-3.276,0-4.925,0Zm1.736-44.068v5.726h4.256v-5.726Z" transform="translate(-14.064 -2.201)" fill="#54aa13"/>
      <path id="Trazado_168795" data-name="Trazado 168795" d="M935.605,421.169h82.718V419.68q0-46.962,0-93.925c0-.436-.022-.873.016-1.3a1.637,1.637,0,0,1,1.654-1.671,1.684,1.684,0,0,1,1.849,1.48,4.85,4.85,0,0,1,.05,1.062q0,48.446,0,96.891c0,2.046-.537,2.571-2.614,2.571H934.6c-2,0-2.556-.544-2.557-2.505q0-11.919,0-23.837a4.7,4.7,0,0,1,.052-1.063,1.689,1.689,0,0,1,1.771-1.445,1.66,1.66,0,0,1,1.717,1.622,9.9,9.9,0,0,1,.017,1.066q0,10.554,0,21.109Z" transform="translate(-0.002 -2.926)" fill="#54aa13"/>
      <path id="Trazado_168796" data-name="Trazado 168796" d="M957.533,365.728q-7.344,0-14.689,0c-2.009,0-2.517-.512-2.524-2.523s-.021-4.029.006-6.042c.021-1.534.656-2.166,2.171-2.168q15.163-.012,30.325,0c1.584,0,2.218.64,2.231,2.235q.025,3.139,0,6.278c-.014,1.6-.629,2.212-2.239,2.216C967.721,365.735,962.628,365.727,957.533,365.728Zm.178-7.081c-4.108,0-8.217.036-12.324-.024-1.063-.016-1.459.316-1.307,1.345a1.93,1.93,0,0,1,0,.591c-.214,1.245.36,1.5,1.522,1.489,7.861-.049,15.722-.016,23.583-.031,2.211,0,2.037.4,2.114-2.086.033-1.087-.379-1.317-1.381-1.3C965.85,358.677,961.781,358.647,957.712,358.647Z" transform="translate(-1.083 -7.141)" fill="#54aa13"/>
      <path id="Trazado_168797" data-name="Trazado 168797" d="M1004.544,354.99q7.463,0,14.926,0c1.844,0,2.421.561,2.435,2.382q.022,3.021,0,6.042c-.016,1.725-.576,2.308-2.255,2.309q-15.1.012-30.208,0c-1.665,0-2.256-.62-2.264-2.309q-.015-3.079,0-6.16c.011-1.648.64-2.26,2.32-2.262Q997.022,354.983,1004.544,354.99Zm-.058,7.032c4.189,0,8.376-.016,12.564.014.8.005,1.209-.2,1.107-1.06a3.051,3.051,0,0,1,0-.828c.185-1.185-.26-1.538-1.484-1.53-8.06.058-16.121.03-24.18.031-1.54,0-1.54,0-1.544,1.578a5.547,5.547,0,0,1,0,.592c-.1.911.257,1.237,1.212,1.226C996.268,361.994,1000.377,362.022,1004.485,362.022Z" transform="translate(-7.214 -7.141)" fill="#54aa13"/>
      <path id="Trazado_168798" data-name="Trazado 168798" d="M957.644,380.088q7.521,0,15.045,0c1.76,0,2.356.589,2.367,2.332.011,2.053.015,4.107,0,6.16-.014,1.609-.623,2.23-2.224,2.232q-15.163.012-30.326,0c-1.549,0-2.157-.6-2.178-2.148q-.042-3.2,0-6.4c.019-1.594.639-2.175,2.274-2.177Q950.121,380.08,957.644,380.088Zm-.024,7.037c4.187,0,8.374-.017,12.562.016.825.006,1.18-.268,1.1-1.089-.015-.156,0-.315,0-.474.006-1.825.006-1.825-1.764-1.825q-11.672,0-23.345.005c-2.3,0-2.015-.36-2.106,2.074-.041,1.072.329,1.33,1.352,1.316C949.482,387.093,953.551,387.125,957.62,387.124Z" transform="translate(-1.083 -10.424)" fill="#54aa13"/>
      <path id="Trazado_168799" data-name="Trazado 168799" d="M1004.589,390.818q-7.462,0-14.926,0c-1.924,0-2.482-.553-2.487-2.445-.006-2.014-.013-4.028,0-6.042.011-1.606.631-2.237,2.217-2.238q15.164-.01,30.327,0c1.535,0,2.156.606,2.177,2.149q.042,3.2,0,6.4c-.021,1.607-.619,2.173-2.266,2.176Q1012.112,390.828,1004.589,390.818Zm-.1-3.692c4.188,0,8.376-.016,12.563.014.8.005,1.209-.2,1.107-1.061a3.072,3.072,0,0,1,0-.829c.187-1.187-.264-1.536-1.486-1.527-8.06.057-16.12.029-24.18.029-1.538,0-1.539,0-1.542,1.578a5.615,5.615,0,0,1,0,.593c-.1.912.259,1.233,1.212,1.222C996.268,387.1,1000.378,387.125,1004.486,387.125Z" transform="translate(-7.214 -10.424)" fill="#54aa13"/>
      <path id="Trazado_168800" data-name="Trazado 168800" d="M957.648,340.642q-7.4,0-14.807,0c-2.01,0-2.514-.509-2.521-2.528s-.021-4.029.006-6.042c.021-1.528.663-2.172,2.174-2.173q15.162-.014,30.325,0c1.575,0,2.216.655,2.229,2.247q.025,3.138,0,6.278c-.013,1.592-.63,2.21-2.242,2.215C967.757,340.65,962.7,340.642,957.648,340.642Zm-.03-3.721q6.156,0,12.313-.007c.382,0,1.079-.054,1.1-.163a11.538,11.538,0,0,0,.134-2.773c-.017-.18-.845-.4-1.3-.4q-11.84-.036-23.678-.015c-2.336,0-2.027-.26-2.121,2.077-.043,1.086.356,1.318,1.363,1.305C949.488,336.891,953.554,336.921,957.618,336.921Z" transform="translate(-1.083 -3.857)" fill="#54aa13"/>
      <path id="Trazado_168801" data-name="Trazado 168801" d="M1004.532,340.642q-7.4,0-14.807,0c-2,0-2.545-.538-2.549-2.5,0-2.014-.014-4.028,0-6.042.014-1.523.658-2.194,2.154-2.2q15.222-.016,30.444,0c1.448,0,2.1.642,2.119,2.1q.048,3.258,0,6.515c-.022,1.539-.625,2.116-2.2,2.121C1014.641,340.65,1009.587,340.642,1004.532,340.642Zm-.074-3.72c3.868,0,7.737.011,11.6-.005,2.33-.01,2.033.334,2.106-2.066.028-.944-.219-1.319-1.244-1.314q-12.374.055-24.748.005c-.917,0-1.337.275-1.232,1.215a3.484,3.484,0,0,1,0,.827c-.125,1.013.251,1.376,1.318,1.36C996.327,336.887,1000.393,336.921,1004.458,336.921Z" transform="translate(-7.214 -3.857)" fill="#54aa13"/>
      <path id="Trazado_168802" data-name="Trazado 168802" d="M973.266,400.223q15.05,0,30.1,0a9.247,9.247,0,0,1,1.3.041,1.737,1.737,0,0,1,.283,3.378,4.5,4.5,0,0,1-1.285.138q-30.4.009-60.8,0a4.565,4.565,0,0,1-1.285-.137,1.738,1.738,0,0,1,.279-3.379,9.973,9.973,0,0,1,1.3-.04Q958.216,400.222,973.266,400.223Z" transform="translate(-1.091 -13.058)" fill="#54aa13"/>
      <path id="Trazado_168803" data-name="Trazado 168803" d="M973.333,412.031H943.112a6.884,6.884,0,0,1-1.183-.027,1.68,1.68,0,0,1-1.559-1.782,1.66,1.66,0,0,1,1.6-1.732,7.3,7.3,0,0,1,.948-.02h60.68a6.853,6.853,0,0,1,.947.019,1.765,1.765,0,0,1,.07,3.51,6.43,6.43,0,0,1-1.182.032Z" transform="translate(-1.091 -14.137)" fill="#54aa13"/>
      <path id="Trazado_168804" data-name="Trazado 168804" d="M962.4,420.264H943.082a8.96,8.96,0,0,1-1.183-.027,1.619,1.619,0,0,1-1.518-1.554,1.6,1.6,0,0,1,1.171-1.828,4.193,4.193,0,0,1,1.28-.148q19.675-.01,39.35,0a3.932,3.932,0,0,1,1.168.119,1.749,1.749,0,0,1-.327,3.415,9.082,9.082,0,0,1-1.065.023Z" transform="translate(-1.091 -15.215)" fill="#54aa13"/>
      <path id="Trazado_168805" data-name="Trazado 168805" d="M981.3,312.227q-6.695,0-13.389,0a8.092,8.092,0,0,1-1.3-.054,1.473,1.473,0,0,1-1.391-1.625,3.256,3.256,0,0,1,1.157-1.7c.289-.252.9-.172,1.371-.172q13.567-.013,27.133-.006c.118,0,.237,0,.355,0,1.383.03,2.2.683,2.216,1.77.014,1.107-.772,1.783-2.172,1.786C990.62,312.234,985.959,312.226,981.3,312.227Z" transform="translate(-4.34 -1.079)" fill="#54aa13"/>
      <path id="Trazado_168806" data-name="Trazado 168806" d="M1012.447,427.787c3,0,6-.01,9.006,0,1.455.006,2.2.6,2.23,1.716.03,1.147-.786,1.838-2.248,1.84q-9.125.013-18.251,0c-1.488,0-2.326-.808-2.143-2.033.172-1.156.973-1.527,2.043-1.525Q1007.766,427.795,1012.447,427.787Z" transform="translate(-9.026 -16.665)" fill="#54aa13"/>
      <path id="Trazado_168807" data-name="Trazado 168807" d="M996.162,346.753c2.288,0,4.574-.01,6.861,0,1.3.008,2.093.674,2.112,1.72a1.852,1.852,0,0,1-2.049,1.826q-6.919.036-13.84,0a1.852,1.852,0,0,1-2.053-1.821c.015-1.04.819-1.717,2.108-1.725C991.588,346.743,993.875,346.753,996.162,346.753Z" transform="translate(-7.217 -6.063)" fill="#54aa13"/>
      <path id="Trazado_168808" data-name="Trazado 168808" d="M949.239,321.661c2.326,0,4.652-.01,6.978,0,1.237.009,1.986.641,2.038,1.662a1.788,1.788,0,0,1-1.966,1.883q-6.978.041-13.955,0a1.791,1.791,0,0,1-1.976-1.872c.046-1.033.783-1.665,2.022-1.672C944.666,321.65,946.953,321.661,949.239,321.661Z" transform="translate(-1.089 -2.78)" fill="#54aa13"/>
      <path id="Trazado_168809" data-name="Trazado 168809" d="M949.317,346.753c2.286,0,4.572-.011,6.859,0,1.311.009,2.073.663,2.079,1.735a1.806,1.806,0,0,1-2.044,1.811q-6.918.038-13.836,0a1.807,1.807,0,0,1-2.019-1.836c.022-1.07.778-1.7,2.1-1.711C944.744,346.744,947.031,346.753,949.317,346.753Z" transform="translate(-1.09 -6.062)" fill="#54aa13"/>
      <path id="Trazado_168810" data-name="Trazado 168810" d="M949.361,371.819c2.253,0,4.507-.015,6.76.006,1.35.013,2.1.64,2.134,1.7.036,1.12-.749,1.84-2.128,1.845q-6.819.026-13.637,0c-1.367,0-2.164-.728-2.132-1.841.03-1.064.78-1.7,2.126-1.709C944.775,371.8,947.068,371.819,949.361,371.819Z" transform="translate(-1.09 -9.342)" fill="#54aa13"/>
      <path id="Trazado_168811" data-name="Trazado 168811" d="M996.3,371.819c2.208,0,4.415-.013,6.623,0,1.388.011,2.207.68,2.217,1.75s-.829,1.8-2.183,1.8q-6.8.022-13.6,0c-1.356,0-2.184-.741-2.158-1.825.026-1.034.822-1.711,2.124-1.724C991.643,371.8,993.969,371.82,996.3,371.819Z" transform="translate(-7.217 -9.342)" fill="#54aa13"/>
      <path id="Trazado_168812" data-name="Trazado 168812" d="M996.246,321.661c2.248,0,4.5-.008,6.744,0,1.312.006,2.1.643,2.145,1.69.044,1.077-.8,1.857-2.131,1.862q-6.861.026-13.724,0a1.859,1.859,0,0,1-2.088-1.786c-.007-1.045.8-1.755,2.074-1.763C991.593,321.651,993.919,321.661,996.246,321.661Z" transform="translate(-7.217 -2.78)" fill="#54aa13"/>
    </g>
  </g>
</svg>
