<svg xmlns="http://www.w3.org/2000/svg" xmlns:xlink="http://www.w3.org/1999/xlink" width="261.746" height="283.32" viewBox="0 0 261.746 283.32">
  <defs>
    <linearGradient id="linear-gradient" x1="1.705" y1="0.062" x2="-0.299" y2="0.79" gradientUnits="objectBoundingBox">
      <stop offset="0" stop-color="#30610c"/>
      <stop offset="1" stop-color="#163301"/>
    </linearGradient>
    <linearGradient id="linear-gradient-2" y1="0.5" x2="1" y2="0.5" gradientUnits="objectBoundingBox">
      <stop offset="0" stop-color="#ab316d"/>
      <stop offset="1" stop-color="#792d3d"/>
    </linearGradient>
    <linearGradient id="linear-gradient-3" x1="0.157" y1="0.033" x2="0.86" y2="1.027" gradientUnits="objectBoundingBox">
      <stop offset="0" stop-color="#ffc444"/>
      <stop offset="0.996" stop-color="#f36f56"/>
    </linearGradient>
    <linearGradient id="linear-gradient-4" x1="0" y1="0.5" x2="1" y2="0.5" xlink:href="#linear-gradient-3"/>
    <linearGradient id="linear-gradient-5" y1="0.5" x2="1" y2="0.5" gradientUnits="objectBoundingBox">
      <stop offset="0" stop-color="#444b8c"/>
      <stop offset="0.996" stop-color="#26264f"/>
    </linearGradient>
    <linearGradient id="linear-gradient-6" x1="0.888" y1="-0.283" x2="0.052" y2="1.048" gradientUnits="objectBoundingBox">
      <stop offset="0" stop-color="#438815"/>
      <stop offset="1" stop-color="#30610c"/>
    </linearGradient>
    <linearGradient id="linear-gradient-7" x1="-265.319" y1="176.678" x2="-264.113" y2="176.678" gradientUnits="objectBoundingBox">
      <stop offset="0.004" stop-color="#f36f56"/>
      <stop offset="1" stop-color="#ffc444"/>
    </linearGradient>
    <linearGradient id="linear-gradient-8" x1="-136.444" y1="148.562" x2="-138.087" y2="154.852" xlink:href="#linear-gradient-5"/>
    <linearGradient id="linear-gradient-9" x1="0.923" y1="0.274" x2="-0.277" y2="0.87" xlink:href="#linear-gradient-2"/>
    <linearGradient id="linear-gradient-10" x1="49.264" y1="-253.701" x2="48.022" y2="-240.803" xlink:href="#linear-gradient-5"/>
    <linearGradient id="linear-gradient-11" x1="72.43" y1="-212.966" x2="73.398" y2="-212.966" xlink:href="#linear-gradient-7"/>
    <linearGradient id="linear-gradient-12" x1="-36.597" y1="22.845" x2="-38.3" y2="22.326" xlink:href="#linear-gradient-2"/>
    <linearGradient id="linear-gradient-13" x1="-38.89" y1="23.732" x2="-39.785" y2="24.348" xlink:href="#linear-gradient-2"/>
    <linearGradient id="linear-gradient-14" x1="-51.483" y1="23.978" x2="-52.642" y2="24.589" xlink:href="#linear-gradient-2"/>
    <linearGradient id="linear-gradient-15" x1="0.489" y1="0.996" x2="0.545" y2="-0.591" gradientUnits="objectBoundingBox">
      <stop offset="0" stop-color="#338bf9"/>
      <stop offset="0.996" stop-color="#055ad7"/>
    </linearGradient>
    <linearGradient id="linear-gradient-16" x1="-2410.227" y1="0.38" x2="-2410.084" y2="1.756" xlink:href="#linear-gradient-7"/>
    <linearGradient id="linear-gradient-17" x1="-1410.272" y1="48.967" x2="-1410.389" y2="47.873" xlink:href="#linear-gradient-5"/>
    <linearGradient id="linear-gradient-18" x1="-2249.933" y1="0.882" x2="-2249.56" y2="1.619" xlink:href="#linear-gradient-7"/>
    <linearGradient id="linear-gradient-19" x1="-0.113" y1="1.166" x2="0.806" y2="0.027" xlink:href="#linear-gradient-15"/>
    <linearGradient id="linear-gradient-20" x1="-259.753" y1="0.009" x2="-259.485" y2="1.163" xlink:href="#linear-gradient-15"/>
    <linearGradient id="linear-gradient-21" x1="1.381" y1="1.921" x2="0.876" y2="1.105" gradientUnits="objectBoundingBox">
      <stop offset="0" stop-color="#30610c"/>
      <stop offset="1" stop-color="#0f2102"/>
    </linearGradient>
    <linearGradient id="linear-gradient-22" x1="0.179" y1="0.098" x2="1.335" y2="1.636" gradientUnits="objectBoundingBox">
      <stop offset="0" stop-color="#74a0e3"/>
      <stop offset="0.004" stop-color="#30610c"/>
      <stop offset="1" stop-color="#438815"/>
    </linearGradient>
    <linearGradient id="linear-gradient-23" x1="-6.351" y1="-0.333" x2="-5.343" y2="1.03" gradientUnits="objectBoundingBox">
      <stop offset="0" stop-color="#54aa13"/>
      <stop offset="0.004" stop-color="#54aa13"/>
      <stop offset="1" stop-color="#54aa13"/>
    </linearGradient>
    <linearGradient id="linear-gradient-24" x1="498.623" y1="0.5" x2="499.623" y2="0.5" gradientUnits="objectBoundingBox">
      <stop offset="0" stop-color="#311944"/>
      <stop offset="1" stop-color="#6b3976"/>
    </linearGradient>
    <linearGradient id="linear-gradient-25" x1="1650.611" y1="1.387" x2="1653.35" y2="-4.631" xlink:href="#linear-gradient-3"/>
    <linearGradient id="linear-gradient-26" x1="498.623" y1="0.5" x2="499.623" y2="0.5" xlink:href="#linear-gradient-24"/>
    <linearGradient id="linear-gradient-27" x1="1120.3" y1="1.496" x2="1122.347" y2="-5.226" xlink:href="#linear-gradient-3"/>
    <linearGradient id="linear-gradient-28" x1="-626.066" y1="-0.126" x2="-625.287" y2="0.819" xlink:href="#linear-gradient-24"/>
    <linearGradient id="linear-gradient-29" x1="-560.88" y1="0.5" x2="-559.88" y2="0.5" xlink:href="#linear-gradient-24"/>
    <linearGradient id="linear-gradient-30" x1="-1321.28" y1="-1.023" x2="-1321.988" y2="4.364" xlink:href="#linear-gradient-2"/>
    <linearGradient id="linear-gradient-31" x1="-470.313" y1="1.268" x2="-468.862" y2="0.258" gradientUnits="objectBoundingBox">
      <stop offset="0" stop-color="#3b85f9"/>
      <stop offset="0.996" stop-color="#255cd7"/>
    </linearGradient>
    <linearGradient id="linear-gradient-32" x1="-219.503" y1="0.69" x2="-218.828" y2="-0.006" xlink:href="#linear-gradient-31"/>
    <linearGradient id="linear-gradient-33" x1="-410.64" y1="0.18" x2="-410.28" y2="1.967" xlink:href="#linear-gradient-3"/>
    <linearGradient id="linear-gradient-34" x1="-1438.081" y1="-0.567" x2="-1438.845" y2="4.963" xlink:href="#linear-gradient-2"/>
    <linearGradient id="linear-gradient-35" x1="-386.993" y1="0.655" x2="-385.805" y2="-0.119" xlink:href="#linear-gradient-31"/>
    <linearGradient id="linear-gradient-36" x1="-484.744" y1="385.619" x2="-484.689" y2="383.516" xlink:href="#linear-gradient-2"/>
    <linearGradient id="linear-gradient-37" x1="648.835" y1="407.902" x2="648.199" y2="406.146" xlink:href="#linear-gradient-5"/>
    <linearGradient id="linear-gradient-38" x1="-1565.992" y1="411.234" x2="-1566.025" y2="414.26" xlink:href="#linear-gradient-2"/>
    <linearGradient id="linear-gradient-39" x1="-378.585" y1="0.858" x2="-377.424" y2="-0.261" xlink:href="#linear-gradient-31"/>
  </defs>
  <g id="Grupo_127244" data-name="Grupo 127244" transform="translate(9607.639 6201.716)">
    <g id="Grupo_111837" data-name="Grupo 111837" transform="translate(-9607.639 -6201.716)">
      <g id="Grupo_89982" data-name="Grupo 89982" transform="translate(0)">
        <path id="Trazado_152888" data-name="Trazado 152888" d="M1821.586,1882.185h-14.176a6.089,6.089,0,0,1-6.09-6.09v-47.336h20.265Z" transform="translate(-1801.321 -1749.875)" fill="url(#linear-gradient)"/>
        <g id="Grupo_89979" data-name="Grupo 89979" transform="translate(6.398)">
          <path id="Trazado_152889" data-name="Trazado 152889" d="M1992.156,1815.536l-180.247-10.429c-4.152-.2-7.891,4.329-7.891,8.132v232.1c0,5.276,5.39,6.339,9.542,5.915l178.6-18.239a6.781,6.781,0,0,0,5.9-6.671V1821.889A6.346,6.346,0,0,0,1992.156,1815.536Z" transform="translate(-1804.018 -1782.344)" fill="url(#linear-gradient-2)"/>
          <path id="Trazado_152890" data-name="Trazado 152890" d="M1993.406,1813.868l-180.606-8.885c-4.152-.207-7.532,2.735-7.532,6.569v233.917c0,3.834,3.38,6.593,7.532,6.166l180.606-18.587a6.815,6.815,0,0,0,5.9-6.724V1820.271A6.373,6.373,0,0,0,1993.406,1813.868Z" transform="translate(-1802.302 -1782.519)" fill="url(#linear-gradient-3)"/>
          <path id="Trazado_152891" data-name="Trazado 152891" d="M1810.8,2046.626a3.484,3.484,0,0,1-4.066-3.335v-233.42a3.706,3.706,0,0,1,4.066-3.554l180.606,8.531a3.451,3.451,0,0,1,3.2,3.463v206.443a3.692,3.692,0,0,1-3.2,3.637Z" transform="translate(-1800.297 -1780.681)" opacity="0.3" fill="url(#linear-gradient-4)" style="mix-blend-mode: multiply;isolation: isolate"/>
          <path id="Trazado_152892" data-name="Trazado 152892" d="M1969.024,2013.554l-154.472,14.883V1813.088l154.472,5.818Z" transform="translate(-1789.562 -1771.381)" fill="#fff"/>
          <path id="Trazado_152893" data-name="Trazado 152893" d="M1889.333,1829.26l-61.734.771,1.386-13.921a3.768,3.768,0,0,1,3.134-3.558l10.455-1.606a3.761,3.761,0,0,0,2.828-2.173l1.135-2.46,27.347,1.686Z" transform="translate(-1771.655 -1780.681)" fill="#97a6b7" opacity="0.3" style="mix-blend-mode: multiply;isolation: isolate"/>
          <path id="Trazado_152894" data-name="Trazado 152894" d="M1922.3,1835.053a3.308,3.308,0,0,0-3.146-2.752l-9.864-.441a7.921,7.921,0,0,1-7.6-8.446l.382-10.676a3.466,3.466,0,0,0-3.279-3.672l-3.241-.195a4.1,4.1,0,0,1-3.77-4.844,7.321,7.321,0,0,0-6.783-8.5,8.879,8.879,0,0,0-9.174,7.525,5.072,5.072,0,0,1-5.236,4.33l-3.343-.2a4.433,4.433,0,0,0-4.465,3.3l-2.78,10.837a10.615,10.615,0,0,1-10.552,7.86l-10.821-.487a4.7,4.7,0,0,0-4.327,2.574l-6.521,12.939a1.5,1.5,0,0,0,1.288,2.242l93.842,3.117a1.74,1.74,0,0,0,1.708-2.007Zm-38.627-30.286a2.148,2.148,0,0,1-2-2.51,2.6,2.6,0,0,1,2.683-2.21,2.146,2.146,0,0,1,1.993,2.507A2.6,2.6,0,0,1,1883.675,1804.767Z" transform="translate(-1771.656 -1795.508)" fill="url(#linear-gradient-5)"/>
          <path id="Trazado_152895" data-name="Trazado 152895" d="M1922.537,1835.175a3.311,3.311,0,0,0-3.146-2.751l-9.864-.441a7.922,7.922,0,0,1-7.6-8.446l.382-10.676a3.465,3.465,0,0,0-3.279-3.672l-3.24-.195a4.1,4.1,0,0,1-3.77-4.845,7.321,7.321,0,0,0-6.783-8.5,8.881,8.881,0,0,0-9.174,7.526,4.952,4.952,0,0,1-.685,1.9,5.071,5.071,0,0,1-4.55,2.43l-3.343-.2a4.434,4.434,0,0,0-4.465,3.3l-2.778,10.837a10.619,10.619,0,0,1-10.553,7.859l-10.822-.486a4.7,4.7,0,0,0-4.327,2.574l-6.522,12.939a1.5,1.5,0,0,0,1.288,2.242l93.842,3.117a1.743,1.743,0,0,0,1.711-2.007Zm-38.627-30.286a2.145,2.145,0,0,1-2-2.51,2.6,2.6,0,0,1,2.681-2.211,2.144,2.144,0,0,1,1.993,2.508A2.6,2.6,0,0,1,1883.909,1804.889Z" transform="translate(-1771.335 -1795.341)" fill="#97a6b7"/>
          <g id="Grupo_89971" data-name="Grupo 89971" transform="translate(56.498 17.065)">
            <path id="Trazado_152896" data-name="Trazado 152896" d="M1906.476,1831.419c-8.37-5.167-14.792-1.5-20.011-7.333-5.584-6.24-1.817-14.452-7.6-18.329-3.7-2.481-7-.292-11.3-.963a11.9,11.9,0,0,1-5-2.093l-2.318,9.036a10.619,10.619,0,0,1-10.553,7.86l-10.822-.486a4.7,4.7,0,0,0-4.327,2.574l-6.522,12.939a1.5,1.5,0,0,0,1.288,2.242l85.283,2.833A25.408,25.408,0,0,0,1906.476,1831.419Z" transform="translate(-1827.833 -1802.701)" fill="#fff" opacity="0.5" style="mix-blend-mode: soft-light;isolation: isolate"/>
          </g>
          <g id="Grupo_89978" data-name="Grupo 89978" transform="translate(42.973 67.503)">
            <g id="Grupo_89977" data-name="Grupo 89977">
              <g id="Grupo_89972" data-name="Grupo 89972" transform="translate(64.353)">
                <path id="Trazado_152897" data-name="Trazado 152897" d="M1906.329,1831.794l-57.072-.728v-7.1l57.072.989Z" transform="translate(-1849.258 -1823.962)" fill="#d8dee8"/>
                <path id="Trazado_152898" data-name="Trazado 152898" d="M1906.329,1836.58l-57.072-.272v-7.1l57.072.533Z" transform="translate(-1849.258 -1816.767)" fill="#d8dee8"/>
                <path id="Trazado_152899" data-name="Trazado 152899" d="M1906.329,1841.365l-57.072.185v-7.1l57.072.075Z" transform="translate(-1849.258 -1809.573)" fill="#d8dee8"/>
                <path id="Trazado_152900" data-name="Trazado 152900" d="M1906.329,1846.372l-57.072.641v-7.1l57.072-.38Z" transform="translate(-1849.258 -1802.598)" fill="#d8dee8"/>
              </g>
              <g id="Grupo_89973" data-name="Grupo 89973" transform="translate(0 56.571)">
                <path id="Trazado_152901" data-name="Trazado 152901" d="M1923.326,1854.742l-101.194,2.438v-7.4l101.194-1.974Z" transform="translate(-1822.132 -1847.807)" fill="#d8dee8"/>
                <path id="Trazado_152902" data-name="Trazado 152902" d="M1923.326,1859.861l-101.194,3.247v-7.4l101.194-2.785Z" transform="translate(-1822.132 -1840.783)" fill="#d8dee8"/>
                <path id="Trazado_152903" data-name="Trazado 152903" d="M1923.326,1864.979l-101.194,4.057v-7.4l101.194-3.594Z" transform="translate(-1822.132 -1833.759)" fill="#d8dee8"/>
                <path id="Trazado_152904" data-name="Trazado 152904" d="M1923.326,1870.1l-101.194,4.866v-7.4l101.194-4.4Z" transform="translate(-1822.132 -1826.735)" fill="#d8dee8"/>
              </g>
              <g id="Grupo_89974" data-name="Grupo 89974" transform="translate(108.113 56.176)">
                <path id="Trazado_152905" data-name="Trazado 152905" d="M1881.015,1854.484l-13.312.321v-6.9l13.312-.26Z" transform="translate(-1867.703 -1847.641)" fill="#d8dee8"/>
                <path id="Trazado_152906" data-name="Trazado 152906" d="M1881.015,1859.534l-13.312.427v-6.9l13.312-.366Z" transform="translate(-1867.703 -1840.71)" fill="#d8dee8"/>
                <path id="Trazado_152907" data-name="Trazado 152907" d="M1881.015,1864.583l-13.312.534v-6.9l13.312-.473Z" transform="translate(-1867.703 -1833.779)" fill="#d8dee8"/>
                <path id="Trazado_152908" data-name="Trazado 152908" d="M1881.015,1869.633l-13.312.64v-6.9l13.312-.579Z" transform="translate(-1867.703 -1826.849)" fill="#d8dee8"/>
              </g>
              <g id="Grupo_89975" data-name="Grupo 89975" transform="translate(0 112.702)">
                <path id="Trazado_152909" data-name="Trazado 152909" d="M1923.326,1878.4l-101.194,6.18v-7.4l101.194-5.718Z" transform="translate(-1822.132 -1871.467)" fill="#d8dee8"/>
                <path id="Trazado_152910" data-name="Trazado 152910" d="M1923.326,1883.521l-101.194,6.99v-7.4l101.194-6.527Z" transform="translate(-1822.132 -1864.443)" fill="#d8dee8"/>
                <path id="Trazado_152911" data-name="Trazado 152911" d="M1923.326,1888.639l-101.194,7.8v-7.4l101.194-7.336Z" transform="translate(-1822.132 -1857.419)" fill="#d8dee8"/>
                <path id="Trazado_152912" data-name="Trazado 152912" d="M1923.326,1893.757l-101.194,8.609v-7.4l101.194-8.146Z" transform="translate(-1822.132 -1850.395)" fill="#d8dee8"/>
              </g>
              <g id="Grupo_89976" data-name="Grupo 89976" transform="translate(108.113 111.559)">
                <path id="Trazado_152913" data-name="Trazado 152913" d="M1881.015,1877.828l-13.312.813v-6.9l13.312-.752Z" transform="translate(-1867.703 -1870.985)" fill="#d8dee8"/>
                <path id="Trazado_152914" data-name="Trazado 152914" d="M1881.015,1882.879l-13.312.919v-6.9l13.312-.858Z" transform="translate(-1867.703 -1864.055)" fill="#d8dee8"/>
                <path id="Trazado_152915" data-name="Trazado 152915" d="M1881.015,1887.928l-13.312,1.026v-6.9l13.312-.966Z" transform="translate(-1867.703 -1857.124)" fill="#d8dee8"/>
                <path id="Trazado_152916" data-name="Trazado 152916" d="M1881.015,1892.979l-13.312,1.132v-6.9l13.312-1.072Z" transform="translate(-1867.703 -1850.194)" fill="#d8dee8"/>
              </g>
            </g>
          </g>
        </g>
        <g id="Grupo_89981" data-name="Grupo 89981" transform="translate(0 61.896)">
          <path id="Trazado_152917" data-name="Trazado 152917" d="M1892.326,1823.386l-82.875-1.786a7.956,7.956,0,0,0-8.13,7.955v57.44h0a7.931,7.931,0,0,1,7.805-7.929l83.2-1.311,17.565-27.139Z" transform="translate(-1801.321 -1821.598)" fill="url(#linear-gradient-6)"/>
          <g id="Grupo_89980" data-name="Grupo 89980" transform="translate(18.97 13.196)">
            <path id="Trazado_152918" data-name="Trazado 152918" d="M1843.077,1857.1a5.688,5.688,0,0,0-.392-1.829,4.64,4.64,0,0,0,3.616-4.477,4.468,4.468,0,0,0-.7-2.41,4.572,4.572,0,0,0,2.745-4.165,4.45,4.45,0,0,0-.329-1.687l.064-.149,13.919-.781a4.6,4.6,0,0,0,4.169-5.184c-.247-2.381-2.15-3.608-4.42-3.63l-24.29-.235-.591-1.047c-2.049-3.634-6.531-5.549-10.087-3.53l-10.951,6.211v25.12l15.957,3.444C1833.972,1863.229,1843.646,1863.293,1843.077,1857.1Z" transform="translate(-1800.388 -1827.16)" fill="#fff"/>
            <path id="Trazado_152919" data-name="Trazado 152919" d="M1823.618,1854.761v-23.292a1.57,1.57,0,0,0-1.539-1.584l-11.2-.1a1.557,1.557,0,0,0-1.563,1.573v23.515a1.556,1.556,0,0,0,1.563,1.571l11.2-.1A1.57,1.57,0,0,0,1823.618,1854.761Z" transform="translate(-1809.317 -1823.559)" fill="#fff"/>
          </g>
        </g>
      </g>
      <g id="Grupo_89988" data-name="Grupo 89988" transform="translate(73.76 83.731)">
        <g id="Grupo_89986" data-name="Grupo 89986" transform="translate(0 72.1)">
          <path id="Trazado_152920" data-name="Trazado 152920" d="M1851.915,1906.581l-.282,4.524a1.707,1.707,0,0,0,1.879.206l1.35-4.441Z" transform="translate(-1806.034 -1798.903)" fill="url(#linear-gradient-7)"/>
          <path id="Trazado_152921" data-name="Trazado 152921" d="M1853.056,1907.983s-2.216.9-1.786,1.884a24.438,24.438,0,0,0,1.722,2.7,2.59,2.59,0,0,0,2.863,1c.358-.106.724-.213,1.048-.3a.7.7,0,0,0,.057-1.343,5.344,5.344,0,0,0-.9-.245c-.811-.126-1.928-2.042-2.059-2.808A1.158,1.158,0,0,0,1853.056,1907.983Z" transform="translate(-1806.608 -1796.979)" fill="url(#linear-gradient-8)"/>
          <path id="Trazado_152922" data-name="Trazado 152922" d="M1854.94,1888.276c3.264,1.127,15.335,5.689,18.023,16.154a19.134,19.134,0,0,1,.529,4.65c.068,10.562-6.073,19.5-10.541,24.7l-4.225-.071a23.918,23.918,0,0,1-.34-11.264c1.545-6.934,5.554-8.735,4.781-12.137-1.405-6.18-15.756-5.246-17.108-10.78C1845.572,1897.531,1846.644,1894.138,1854.94,1888.276Z" transform="translate(-1813.818 -1824.025)" fill="url(#linear-gradient-9)"/>
          <path id="Trazado_152923" data-name="Trazado 152923" d="M1833.163,1916.354l6.128-.142a.409.409,0,0,0,.251-.723,1.549,1.549,0,0,0-1.184-.382c-1.165.121-3.779-1.512-4.965-1.16-.387.114-.7,1.025-.864,1.279A.733.733,0,0,0,1833.163,1916.354Z" transform="translate(-1832.412 -1788.864)" fill="url(#linear-gradient-10)"/>
          <path id="Trazado_152924" data-name="Trazado 152924" d="M1835.35,1912.947l-2.524,2.3a2.808,2.808,0,0,0,2.166.375l2.579-1.774Z" transform="translate(-1831.845 -1790.167)" fill="url(#linear-gradient-11)"/>
          <g id="Grupo_89983" data-name="Grupo 89983" transform="translate(32.144 69.15)" opacity="0.3" style="mix-blend-mode: color-burn;isolation: isolate">
            <path id="Trazado_152925" data-name="Trazado 152925" d="M1865.768,1912.7c1.694-4.572,3.722-10.206,1.4-13.406-2.346-3.238-7.487-.506-12.643-3.113a12.822,12.822,0,0,1-5.513-5.837c-2.895,2.99-3.288,5-2.957,6.356,1.352,5.535,15.7,4.6,17.108,10.78.774,3.4-3.236,5.2-4.781,12.137a23.465,23.465,0,0,0,.052,10.05,34.665,34.665,0,0,1,2.475-7.584C1862.764,1918.072,1863.983,1917.51,1865.768,1912.7Z" transform="translate(-1845.961 -1890.34)" fill="url(#linear-gradient-12)"/>
          </g>
          <path id="Trazado_152926" data-name="Trazado 152926" d="M1874.179,1887.887a109.314,109.314,0,0,1-37.173,61.139,5.162,5.162,0,0,1-3.7-.285,35.239,35.239,0,0,1,3.456-10.474c3.9-7.506,7.374-7.265,11.293-13.891,2.868-4.851,3.8-10.006,5.665-20.315,1.442-7.959,1.442-9.862,3.415-12.144C1861.121,1887.3,1868.611,1887.251,1874.179,1887.887Z" transform="translate(-1831.187 -1824.955)" fill="url(#linear-gradient-13)"/>
          <g id="Grupo_89984" data-name="Grupo 89984" transform="translate(2.118 63.352)" opacity="0.3" style="mix-blend-mode: multiply;isolation: isolate">
            <path id="Trazado_152927" data-name="Trazado 152927" d="M1838.259,1939.556c1.39-2.2,3.86-4.484,8.733-9,5.034-4.664,4.842-3.82,5.831-5.2,4.439-6.171,2.036-12.766,3.132-20.723.612-4.439,2.574-10.239,8.279-16.74a12.35,12.35,0,0,0-7.1,3.611c-2.29,2.527-2.121,5-3.415,12.144-1.865,10.309-2.8,15.464-5.665,20.315-3.919,6.626-7.393,6.384-11.293,13.891a35.234,35.234,0,0,0-3.456,10.474,5.135,5.135,0,0,0,3.008.439C1835.993,1943.553,1837.552,1940.671,1838.259,1939.556Z" transform="translate(-1833.305 -1887.897)" fill="url(#linear-gradient-14)"/>
          </g>
          <path id="Trazado_152928" data-name="Trazado 152928" d="M1859.257,1862.736s1.632,12.154-11.171,20.721l13.625,3.25s4.36-8.154,1.2-21.662Z" transform="translate(-1810.902 -1859.076)" fill="url(#linear-gradient-15)"/>
          <path id="Trazado_152929" data-name="Trazado 152929" d="M1855.735,1867.161a7.759,7.759,0,0,0,.614-2.629c-.118-.816-2.059-1.9-3.383-3.029s.05,1.132.355,1.644a3.982,3.982,0,0,1,1.234,3.029Z" transform="translate(-1804.98 -1861.193)" fill="url(#linear-gradient-16)"/>
          <path id="Trazado_152930" data-name="Trazado 152930" d="M1850.67,1870.867c.669-1.319.944-1.309,1.108-2.007.375-1.585-.591-3.6-1.412-3.625-.529-.019-.572.8-1.692,2.086-1.371,1.568-2.2,1.361-3.01,2.723-.187.318-1.036,1.753-.515,2.824.667,1.366,3.3,1.582,4.394.529C1850.063,1872.9,1849.845,1872.49,1850.67,1870.867Z" transform="translate(-1815.161 -1855.646)" fill="url(#linear-gradient-17)"/>
          <path id="Trazado_152931" data-name="Trazado 152931" d="M1849.059,1868.21a15.571,15.571,0,0,1,.135,4.543c-.3,1.839-3.71,3.751-4.365,4.3s1.734,1.144,3.924.859,8.185-2.206,9.1-3.273-1.06-.544-2.718-.745-3.243-2.982-3.291-4.4S1849.059,1868.21,1849.059,1868.21Z" transform="translate(-1815.521 -1851.568)" fill="#fec444"/>
          <g id="Grupo_89985" data-name="Grupo 89985" transform="translate(32.624 13.69)">
            <path id="Trazado_152932" data-name="Trazado 152932" d="M1847.791,1871.785a3.232,3.232,0,0,0,3.16-.451c1.331-1.063-.645-4.327-2-4.37a2.142,2.142,0,0,0-1.5.783c-.23.28-.242.465-.627.914-.355.415-.51.453-.564.652-.066.252.047.674.958,1.4a.924.924,0,0,0-1,.3.591.591,0,0,0-.059.308C1846.221,1871.811,1846.866,1872.039,1847.791,1871.785Z" transform="translate(-1846.164 -1866.964)" fill="#fec444"/>
          </g>
          <path id="Trazado_152933" data-name="Trazado 152933" d="M1862.377,1868.769s1.016-.142.7-2.081c-.249-1.518-.061-2.031.3-1.76s.408,1.148.408,1.148a7.189,7.189,0,0,0,1.848-2.579c.538-1.463.885-.232,1,.5a6.608,6.608,0,0,1-1.27,3.423,9.162,9.162,0,0,0-1.231,2.289Z" transform="translate(-1791.289 -1858.969)" fill="url(#linear-gradient-18)"/>
          <path id="Trazado_152934" data-name="Trazado 152934" d="M1894.126,1866.947q-1.729-1.213-3.464-2.427c-1.4,8.638-4.6,12.028-7.312,13.511-6.542,3.578-12.384-2.8-24.91-.2-3.452.717-9.469,2.052-12.8,6.97-.878,1.293-1.188,2.271-2.646,11.544-1.862,11.852-1.928,13.921-1.665,16.472.479,4.671.771,7.5,2.925,10.007,5.717,6.652,17.871,3.221,19.4,2.771,2.814-.833,7.188-2.13,8.927-5.85.819-1.749.731-3.35-.526-9.75-2.489-12.678-2.807-13.5-2.111-14.887,2.343-4.686,9.776-2.005,16.056-6.363C1889.663,1886.2,1893.8,1880.647,1894.126,1866.947Z" transform="translate(-1820.333 -1856.628)" fill="url(#linear-gradient-19)"/>
          <path id="Trazado_152935" data-name="Trazado 152935" d="M1850.331,1913.538c1.224-2.513-.423-4.83,1.385-7.85,2.3-3.85,6.446-2.543,8-5.388,2.667-4.866-7.829-11.651-5.7-19.4,1.018-3.7,4.574-6.375,7.544-7.388,6.593-2.252,10.906,3.488,17.086,1.691a10.592,10.592,0,0,0,4.847-3.134,15.434,15.434,0,0,1-5.129,6.308c-6.28,4.358-13.713,1.677-16.056,6.363-.7,1.388-.377,2.209,2.111,14.887,1.258,6.4,1.345,8,.527,9.751-1.739,3.72-6.114,5.017-8.927,5.85a32.175,32.175,0,0,1-9.26,1.274A6.33,6.33,0,0,0,1850.331,1913.538Z" transform="translate(-1812.712 -1846.262)" opacity="0.3" fill="url(#linear-gradient-20)" style="mix-blend-mode: multiply;isolation: isolate"/>
        </g>
        <g id="Grupo_89987" data-name="Grupo 89987" transform="translate(28.127)">
          <path id="Trazado_152936" data-name="Trazado 152936" d="M1907.7,1890.18a6.315,6.315,0,0,0,5.7-11.226c-.149-.076-.3-.14-.451-.2a36.225,36.225,0,0,0,1.2-5.174,4.9,4.9,0,0,0,.5-.019,6.586,6.586,0,0,0,5.791-6.7,5.58,5.58,0,0,0-6.038-5.651c-.171.016-.34.043-.506.074a33.6,33.6,0,0,0-1.4-4.942c.149-.088.3-.178.443-.28a6.592,6.592,0,0,0,2-8.633,5.579,5.579,0,0,0-8.125-1.54c-.145.1-.278.209-.41.318a29.768,29.768,0,0,0-3.625-3.382c.093-.152.183-.3.264-.466,1.575-3.1,3.632-6.486.745-7.895-6.675-3.258-9.539-.47-11.112,2.631-.083.161-.152.325-.221.489a29.5,29.5,0,0,0-4.871-.93c.011-.173.019-.347.014-.52-.067-3.411.944-5.259-2.335-5.323-7.15-.138-9.563,2.965-9.494,6.376,0,.178.019.354.035.527a33.2,33.2,0,0,0-4.813,1.786c-.073-.152-.152-.3-.24-.451a5.58,5.58,0,0,0-8.125-1.542,6.591,6.591,0,0,0-2,8.633c.085.143.183.278.278.41a36.361,36.361,0,0,0-3.468,4.024c-.138-.088-.278-.171-.427-.247a6.315,6.315,0,0,0-5.7,11.226,4.64,4.64,0,0,0,.451.2,36.517,36.517,0,0,0-1.2,5.174c-.163,0-.327,0-.5.018a6.586,6.586,0,0,0-5.791,6.7,5.579,5.579,0,0,0,6.04,5.649c.172-.014.337-.04.506-.071a32.935,32.935,0,0,0,1.4,4.942c-.15.088-.3.178-.447.28a6.59,6.59,0,0,0-1.995,8.633c1.692,2.809,7.295,4.114,10.089,2.157.145-.1-1.687-.826-1.554-.935a29.572,29.572,0,0,0,3.625,3.383c-.092.152-.182.3-.263.465a5.832,5.832,0,1,0,10.367,5.264c.081-.162.152-.325.221-.489a29.2,29.2,0,0,0,4.868.93c-.01.173-.017.347-.014.519a5.579,5.579,0,0,0,6.04,5.651,6.587,6.587,0,0,0,5.789-6.7c0-.178-.017-.354-.036-.527a32.8,32.8,0,0,0,4.814-1.786c.076.151.151.3.242.451a5.576,5.576,0,0,0,8.122,1.542,6.59,6.59,0,0,0,2-8.634c-.088-.142-.183-.277-.28-.41a36.146,36.146,0,0,0,3.468-4.024C1907.409,1890.021,1907.549,1890.1,1907.7,1890.18Zm-35.692.453c-10.394-5.278-14.189-18.683-8.474-29.937s18.775-16.1,29.171-10.825,14.189,18.682,8.474,29.937S1882.4,1895.912,1872,1890.633Z" transform="translate(-1844.268 -1830.802)" fill="url(#linear-gradient-21)"/>
          <path id="Trazado_152937" data-name="Trazado 152937" d="M1897.011,1869.845a6.586,6.586,0,0,0,5.792-6.7,5.577,5.577,0,0,0-6.038-5.649,5.082,5.082,0,0,0-.505.071,33.577,33.577,0,0,0-1.4-4.942c.149-.088.3-.178.443-.28,2.795-1.96,6.254-6.69,4.282-9.309-3.744-4.975-7.615-2.821-10.41-.864-.145.1-.278.209-.41.318a29.762,29.762,0,0,0-3.625-3.382c.093-.152.183-.3.264-.466a6.509,6.509,0,0,0,.367-5.129q-4.049,7.127-7.978,14.32c8.294,6.078,10.932,18.054,5.749,28.262-4.392,8.651-13.125,13.511-21.651,12.9-.38.984-.755,1.976-1.16,2.953-1.106,2.653-2.36,5.248-3.618,7.841q1.185.224,2.38.349c-.01.173-.017.346-.014.519.069,3.414,2.14,6.311,8.061,6,3.274-.173,3.836-3.64,3.767-7.051,0-.177-.016-.353-.035-.527a32.794,32.794,0,0,0,4.814-1.786c.076.152.152.3.242.451,1.691,2.809,7.563,4,10.357,2.045s1.454-6.327-.237-9.136c-.088-.142-.183-.277-.28-.41a36.142,36.142,0,0,0,3.468-4.023c.14.088.28.171.427.246a6.315,6.315,0,0,0,5.7-11.226,4.907,4.907,0,0,0-.45-.2,36.2,36.2,0,0,0,1.2-5.174C1896.679,1869.865,1896.845,1869.862,1897.011,1869.845Z" transform="translate(-1826.638 -1827.086)" fill="#0f2102"/>
          <path id="Trazado_152938" data-name="Trazado 152938" d="M1908.993,1890.528a6.316,6.316,0,0,0,5.7-11.228c-.149-.074-.3-.138-.45-.2a36.189,36.189,0,0,0,1.2-5.171c.166,0,.33-.005.5-.019a6.587,6.587,0,0,0,5.791-6.7,5.577,5.577,0,0,0-6.038-5.651c-.171.017-.34.043-.505.072a33.631,33.631,0,0,0-1.4-4.94c.149-.088.3-.18.443-.282a6.585,6.585,0,0,0,2-8.631,5.58,5.58,0,0,0-8.126-1.542c-.142.1-.277.209-.41.32a29.553,29.553,0,0,0-3.625-3.383c.092-.152.182-.3.263-.465a5.832,5.832,0,1,0-10.367-5.264c-.083.161-.152.323-.221.487a29.439,29.439,0,0,0-4.871-.93c.012-.171.019-.344.016-.52a5.578,5.578,0,0,0-6.04-5.649,6.586,6.586,0,0,0-5.791,6.7c0,.178.019.351.036.524a33.527,33.527,0,0,0-4.814,1.786c-.073-.151-.151-.3-.239-.449a5.578,5.578,0,0,0-8.125-1.542,6.587,6.587,0,0,0-2,8.631c.088.145.182.28.277.413a36.18,36.18,0,0,0-3.466,4.023,4.673,4.673,0,0,0-.429-.247,6.315,6.315,0,0,0-5.7,11.226c.147.076.3.138.45.2a36.533,36.533,0,0,0-1.2,5.174c-.164,0-.327,0-.5.016a6.59,6.59,0,0,0-5.791,6.7,5.579,5.579,0,0,0,6.04,5.651c.171-.015.337-.043.505-.072a33.24,33.24,0,0,0,1.4,4.942c-.149.087-.3.178-.446.28a6.587,6.587,0,0,0-1.995,8.631,5.58,5.58,0,0,0,8.125,1.542c.142-.1.277-.209.41-.318a29.537,29.537,0,0,0,3.625,3.383c-.093.149-.182.3-.264.463a5.832,5.832,0,1,0,10.367,5.264c.081-.159.152-.323.221-.487a29.483,29.483,0,0,0,4.868.93c-.01.173-.017.344-.014.52a5.58,5.58,0,0,0,6.04,5.651,6.588,6.588,0,0,0,5.789-6.7c0-.18-.016-.353-.036-.527a33.338,33.338,0,0,0,4.814-1.786c.076.152.152.3.242.451a5.578,5.578,0,0,0,8.126,1.54,6.587,6.587,0,0,0,2-8.63c-.088-.145-.182-.278-.278-.41a36.541,36.541,0,0,0,3.466-4.024C1908.706,1890.367,1908.846,1890.453,1908.993,1890.528Zm-35.689.453c-10.4-5.279-14.192-18.682-8.477-29.939s18.774-16.1,29.17-10.823,14.19,18.68,8.474,29.937S1883.7,1896.258,1873.3,1890.981Z" transform="translate(-1842.486 -1830.799)" fill="url(#linear-gradient-22)"/>
        </g>
      </g>
      <g id="Grupo_89989" data-name="Grupo 89989" transform="translate(150.051 153.587)">
        <path id="Trazado_152939" data-name="Trazado 152939" d="M1956.657,1941.671c4.244,1.7,9.179-.643,11.022-5.236s-.1-9.7-4.344-11.4c-.22-.088-.444-.159-.666-.226a51.67,51.67,0,0,0,1.056-7.49c.232-.019.467-.045.7-.087a9.379,9.379,0,0,0,7.373-10.235,7.945,7.945,0,0,0-9.273-7.257c-.24.042-.475.1-.708.166a47.522,47.522,0,0,0-2.6-6.832c.2-.145.4-.292.6-.456a9.381,9.381,0,0,0,1.749-12.493,7.944,7.944,0,0,0-11.718-1.167c-.19.161-.367.332-.543.5a41.98,41.98,0,0,0-5.565-4.344c.111-.226.221-.453.318-.69,1.843-4.6,4.336-9.656.066-11.292-9.876-3.787-13.589.531-15.432,5.124-.1.239-.176.479-.251.719a41.892,41.892,0,0,0-7.025-.707c-.007-.247-.017-.493-.043-.74-.527-4.83.678-7.575-3.981-7.254-10.158.7-13.191,5.4-12.666,10.234.028.252.071.5.116.74a47.3,47.3,0,0,0-6.6,3.139c-.126-.207-.254-.413-.4-.61a7.944,7.944,0,0,0-11.717-1.167,9.383,9.383,0,0,0-1.748,12.493c.142.194.294.372.446.547a52.134,52.134,0,0,0-4.412,6.142c-.209-.106-.418-.208-.639-.3-4.242-1.7-9.176.641-11.022,5.236s.1,9.7,4.347,11.4c.218.09.441.159.665.228a51.56,51.56,0,0,0-1.056,7.487c-.233.021-.465.047-.7.088a9.379,9.379,0,0,0-7.371,10.237,7.943,7.943,0,0,0,9.271,7.257c.241-.043.477-.1.709-.166a47.257,47.257,0,0,0,2.6,6.832c-.2.145-.4.292-.6.456a9.382,9.382,0,0,0-1.749,12.493c2.754,3.772,10.866,4.921,14.583,1.791.19-.159-2.5-.956-2.322-1.129a41.707,41.707,0,0,0,5.566,4.344c-.112.228-.221.456-.316.692-1.845,4.6.1,9.7,4.344,11.4s9.179-.641,11.022-5.233c.095-.24.173-.479.249-.719a42.168,42.168,0,0,0,7.025.707c.007.247.016.491.045.74a7.944,7.944,0,0,0,9.271,7.257,9.381,9.381,0,0,0,7.373-10.237c-.026-.251-.071-.5-.116-.74a47.421,47.421,0,0,0,6.6-3.139c.124.207.251.413.4.61a7.944,7.944,0,0,0,11.718,1.167,9.382,9.382,0,0,0,1.748-12.493c-.14-.194-.292-.373-.446-.55a52.009,52.009,0,0,0,4.415-6.14C1956.227,1941.479,1956.436,1941.584,1956.657,1941.671Zm-50.567,5.117c-15.407-6.182-22.47-24.718-15.774-41.4s24.611-25.193,40.017-19.01,22.469,24.718,15.774,41.4S1921.5,1952.971,1906.09,1946.789Z" transform="translate(-1864.57 -1860.247)" fill="#0f2102"/>
        <path id="Trazado_152940" data-name="Trazado 152940" d="M1937.225,1913.263a9.379,9.379,0,0,0,7.373-10.234,7.945,7.945,0,0,0-9.273-7.257c-.24.043-.475.1-.707.166a47.511,47.511,0,0,0-2.6-6.832c.2-.145.4-.292.6-.456,3.718-3.127,8.03-10.272,4.9-13.741-5.931-6.585-11.155-3.046-14.873.081-.19.161-.367.331-.543.5a41.947,41.947,0,0,0-5.566-4.344c.112-.225.221-.453.318-.69a9.263,9.263,0,0,0-.123-7.322q-4.851,10.615-9.521,21.309c12.524,7.579,17.771,24.236,11.7,39.367-5.146,12.823-16.922,20.808-29.09,21.012-.418,1.448-.823,2.9-1.276,4.336-1.236,3.9-2.693,7.739-4.15,11.575q1.708.168,3.421.2c.007.247.016.491.045.74.524,4.83,3.824,8.681,12.182,7.495,4.624-.657,4.987-5.644,4.463-10.474-.026-.252-.069-.5-.116-.74a47.41,47.41,0,0,0,6.6-3.139c.123.207.251.413.4.61,2.752,3.772,11.231,4.728,14.948,1.6s1.27-9.155-1.483-12.927c-.14-.194-.292-.372-.446-.55a52.106,52.106,0,0,0,4.415-6.14c.206.1.415.208.636.3,4.244,1.7,9.179-.643,11.022-5.236s-.1-9.7-4.344-11.4c-.22-.088-.444-.159-.667-.226a51.646,51.646,0,0,0,1.056-7.488C1936.755,1913.332,1936.991,1913.306,1937.225,1913.263Z" transform="translate(-1837.369 -1856.282)" fill="#0f2102"/>
        <path id="Trazado_152941" data-name="Trazado 152941" d="M1958.518,1941.777c4.242,1.7,9.177-.641,11.02-5.236s-.1-9.7-4.344-11.4c-.219-.088-.442-.159-.664-.225a51.978,51.978,0,0,0,1.055-7.49c.233-.021.466-.045.7-.088a9.379,9.379,0,0,0,7.371-10.235,7.942,7.942,0,0,0-9.273-7.257c-.24.043-.475.1-.707.164a47.382,47.382,0,0,0-2.6-6.832c.2-.142.4-.292.6-.453a9.382,9.382,0,0,0,1.748-12.493,7.944,7.944,0,0,0-11.717-1.167c-.192.159-.367.33-.543.5a42.086,42.086,0,0,0-5.566-4.343c.112-.226.221-.454.316-.693,1.843-4.593-.1-9.7-4.344-11.4s-9.178.641-11.022,5.236c-.095.237-.176.477-.249.719a42.146,42.146,0,0,0-7.024-.71c-.007-.244-.017-.491-.045-.737a7.942,7.942,0,0,0-9.273-7.257,9.376,9.376,0,0,0-7.371,10.234c.026.254.069.5.116.743a47.664,47.664,0,0,0-6.6,3.136c-.123-.207-.252-.411-.4-.608a7.944,7.944,0,0,0-11.718-1.167,9.381,9.381,0,0,0-1.748,12.493c.14.192.292.372.446.548a51.422,51.422,0,0,0-4.415,6.142c-.207-.107-.417-.209-.636-.3-4.244-1.7-9.179.641-11.022,5.236s.1,9.7,4.344,11.4c.221.087.444.159.666.226a51.407,51.407,0,0,0-1.055,7.489c-.233.022-.468.045-.7.088a9.38,9.38,0,0,0-7.374,10.235,7.941,7.941,0,0,0,9.273,7.257c.24-.043.475-.1.707-.164a47.649,47.649,0,0,0,2.6,6.833c-.2.142-.4.291-.6.452a9.381,9.381,0,0,0-1.748,12.493,7.943,7.943,0,0,0,11.718,1.167c.189-.159.367-.33.543-.5a42.063,42.063,0,0,0,5.563,4.344c-.111.225-.218.453-.316.693-1.843,4.593.1,9.7,4.346,11.4s9.177-.641,11.02-5.236c.1-.237.175-.477.251-.719a41.818,41.818,0,0,0,7.025.709c.007.245.016.492.043.739a7.943,7.943,0,0,0,9.273,7.257,9.377,9.377,0,0,0,7.374-10.234c-.028-.254-.071-.5-.118-.742a47.592,47.592,0,0,0,6.6-3.136c.126.206.254.41.4.607a7.941,7.941,0,0,0,11.717,1.167,9.382,9.382,0,0,0,1.749-12.493c-.142-.192-.294-.373-.446-.548a51.552,51.552,0,0,0,4.413-6.142C1958.088,1941.587,1958.3,1941.689,1958.518,1941.777Zm-50.567,5.117c-15.406-6.182-22.469-24.717-15.774-41.4s24.612-25.194,40.018-19.01,22.469,24.718,15.774,41.4S1923.357,1953.079,1907.95,1946.894Z" transform="translate(-1862.018 -1860.244)" fill="url(#linear-gradient-23)"/>
      </g>
      <g id="Grupo_89994" data-name="Grupo 89994" transform="translate(159.244 47.032)">
        <g id="Grupo_89990" data-name="Grupo 89990" transform="translate(61.405 102.084)">
          <path id="Trazado_152942" data-name="Trazado 152942" d="M1895.679,1861.255l3.3-1.981h1.487a17.887,17.887,0,0,1,.451,1.981c-.664,1.086-3.751,1.912-5.677,1.981-.318.012-.764.012-.88-.219C1894.162,1862.624,1895.032,1861.8,1895.679,1861.255Z" transform="translate(-1894.328 -1857.113)" fill="url(#linear-gradient-24)"/>
          <path id="Trazado_152943" data-name="Trazado 152943" d="M1896.514,1858.363a4.376,4.376,0,0,1-.334,2.325c-.2.253,1.753.821,1.763-.164a11.152,11.152,0,0,1,.214-2.085Z" transform="translate(-1891.807 -1858.363)" fill="url(#linear-gradient-25)"/>
        </g>
        <g id="Grupo_89991" data-name="Grupo 89991" transform="translate(39.363 101.774)">
          <path id="Trazado_152944" data-name="Trazado 152944" d="M1886.389,1861.119l3.3-1.981h1.487a17.942,17.942,0,0,1,.451,1.981c-.665,1.085-3.751,1.912-5.675,1.981-.32.01-.766.012-.883-.22C1884.871,1862.488,1885.741,1861.664,1886.389,1861.119Z" transform="translate(-1885.037 -1856.989)" fill="url(#linear-gradient-26)"/>
          <path id="Trazado_152945" data-name="Trazado 152945" d="M1888.165,1858.232a22.194,22.194,0,0,1-1.274,2.313c-.2.251,1.421.759,1.76-.164.277-.749,1.053-1.746,1.155-2.073Z" transform="translate(-1882.517 -1858.232)" fill="url(#linear-gradient-27)"/>
        </g>
        <path id="Trazado_152946" data-name="Trazado 152946" d="M1888.88,1837.019a147.082,147.082,0,0,1-2.033,54.6l3.051.79a7.531,7.531,0,0,0,4.3-2.486c1.62-2.05.88-3.938,2.033-7.347,1.1-3.255,2.415-3.426,3.732-6.218,1.715-3.639.667-5.867.79-10.737.209-8.237,3.385-8.878,4.408-19.1.536-5.355.8-8.429-1.129-10.4C1901.323,1833.353,1895.378,1833.844,1888.88,1837.019Z" transform="translate(-1843.19 -1789.288)" fill="url(#linear-gradient-28)"/>
        <path id="Trazado_152947" data-name="Trazado 152947" d="M1890.658,1836.039a150.291,150.291,0,0,1,12.208,57.194h3.39a21.316,21.316,0,0,0,3.053-6.555c.778-2.909.29-3.658.79-8.251.686-6.263,1.58-6.55,1.471-10.286-.128-4.295-1.433-4.278-1.921-8.591-.723-6.382,1.912-8.353,1.807-14.244a22.67,22.67,0,0,0-3.617-11.527Q1899.248,1834.906,1890.658,1836.039Z" transform="translate(-1837.96 -1790.019)" fill="url(#linear-gradient-29)"/>
        <path id="Trazado_152948" data-name="Trazado 152948" d="M1876.608,1834.312l-1.331,1.179a22.224,22.224,0,0,0-3.969.151,19.635,19.635,0,0,0-2.863,1.179.985.985,0,0,0,1.1.416,5.4,5.4,0,0,1,1.827-.5,3.236,3.236,0,0,0,2.171,1.507c1.531.2,2.242-1.6,2.242-1.6l1.45-1.231Z" transform="translate(-1868.445 -1789.286)" fill="url(#linear-gradient-30)"/>
        <path id="Trazado_152949" data-name="Trazado 152949" d="M1887.869,1821.245c-.538.066-1.594.391-3.983,4.833-3.094,5.746-3.9,9.99-5.086,13.478a37.936,37.936,0,0,1-7.461,12.718l2.119,2.2c6.062-.152,9.063-2.083,10.683-3.815,2.365-2.529,1.634-4.467,4.493-8.308,3.343-4.493,5.876-3.905,7.036-6.868C1897.84,1829.93,1891.7,1820.776,1887.869,1821.245Z" transform="translate(-1864.474 -1807.243)" fill="url(#linear-gradient-31)"/>
        <path id="Trazado_152950" data-name="Trazado 152950" d="M1909.866,1818.346c-3.468-1.112-6.182-.8-11.019-.256-7.063.8-11.591,3.144-15.516,5.172-3.855,1.995-4.878,3.119-5.425,4.408-1.277,3.006.28,6.289,1.271,8.308,2.534,5.16,4.887,4.979,10.258,11.191,4.726,5.464,7.089,8.2,8.648,12.208.691,1.774,1.365,4.073,3.561,5.426a8.874,8.874,0,0,0,5.933.846c5.8-.757,6.311-4.5,10.09-4.237,3.008.207,3.661,2.65,8.816,3.476,2.3.367,2.975.007,3.307-.257,1.253-.994,1.108-3.376-.085-8.222-1.834-7.449-3.468-9.867-5-15.767-1.594-6.131-.367-5.592-1.7-9.073C1922.559,1830.4,1918.9,1821.238,1909.866,1818.346Z" transform="translate(-1856.122 -1812.228)" fill="url(#linear-gradient-32)"/>
        <path id="Trazado_152951" data-name="Trazado 152951" d="M1907.084,1838.993l-12.22-13.411a1.309,1.309,0,0,0-1.264-.505l-13.995,2.286a.8.8,0,0,0-.5,1.282l11.378,14.638a1.315,1.315,0,0,0,1.293.486l14.514-2.686A1.319,1.319,0,0,0,1907.084,1838.993Z" transform="translate(-1854.052 -1801.986)" fill="url(#linear-gradient-33)"/>
        <path id="Trazado_152952" data-name="Trazado 152952" d="M1895.722,1830.785l-2.617-1.141s-1-1.426-1.807-1.665a17.343,17.343,0,0,0-3.71.1s.287,1.142.856,1.331,2.333.332,2.617.9a1.769,1.769,0,0,0,1.713.809c.379-.192,2.8.617,2.8.617Z" transform="translate(-1842.175 -1798.095)" fill="url(#linear-gradient-34)"/>
        <path id="Trazado_152953" data-name="Trazado 152953" d="M1895.467,1859.783c1.207-1.473.555-3.238,2.206-4.747,2.686-2.458,7.547-.641,7.8-1.525.3-1.063-6.977-2.6-7.8-6.783-.372-1.9,1-2.218.847-4.747-.142-2.372-1.622-4.327-4.579-8.14-2.332-3.011-2.963-3.255-3.051-4.408-.264-3.468,4.119-5.881,5.933-7.121a16.651,16.651,0,0,1,6.709-2.665,25.487,25.487,0,0,1,6.178,9.108c1.329,3.48.1,2.942,1.7,9.073,1.533,5.9,3.167,8.317,5,15.767,1.193,4.847,1.338,7.229.085,8.222-.332.263-1,.624-3.307.257-5.155-.826-5.808-3.27-8.816-3.476-3.78-.263-4.292,3.48-10.09,4.237a8.874,8.874,0,0,1-5.933-.846,6.111,6.111,0,0,1-1.235-1.009C1892.239,1861.921,1894.456,1861.017,1895.467,1859.783Z" transform="translate(-1842.826 -1809.412)" opacity="0.3" fill="url(#linear-gradient-35)" style="mix-blend-mode: multiply;isolation: isolate"/>
        <g id="Grupo_89993" data-name="Grupo 89993" transform="translate(21.945)">
          <path id="Trazado_152954" data-name="Trazado 152954" d="M1882.452,1816.363c.774,1.86,3.672,6.557,9.938,4.256,1.677-.617,1.964-.4,2.061-.271.472.631-2.887,4.823-7.639,6.1-2.9.778-6,.387-6.166-.42s1.9-.738,2.145-2.434c.164-1.179-2.221-2.593-3.45-3.39C1879.543,1818.664,1882.25,1817.91,1882.452,1816.363Z" transform="translate(-1875.435 -1813.919)" fill="url(#linear-gradient-36)"/>
          <g id="Grupo_89992" data-name="Grupo 89992">
            <path id="Trazado_152955" data-name="Trazado 152955" d="M1879.5,1821.456a2.7,2.7,0,0,1-1.787-2.761,3.34,3.34,0,0,1,1.521-2.074c1.5-1.139,3.955-1.76,5.566-.854.956.536,1.151,2.726,1.205,3.105.064.432-.152.721-.254,1.134-.14.576-.353,1.483-.688,2.987a7.225,7.225,0,0,0-1.03-.764,6.883,6.883,0,0,0-1.547-.695C1881.023,1821.119,1880.518,1821.788,1879.5,1821.456Z" transform="translate(-1877.695 -1815.333)" fill="url(#linear-gradient-37)"/>
            <path id="Trazado_152956" data-name="Trazado 152956" d="M1884.893,1819.505a4.016,4.016,0,0,1-2.218,3.335c-1.969,1.02-4.806-2.614-4.142-4.142a2.942,2.942,0,0,1,1.725-1.336c.453-.135.681-.069,1.421-.3.681-.216.809-.373,1.077-.346.335.036.776.349,1.153,1.682a1.222,1.222,0,0,1,.89-.984.8.8,0,0,1,.4.069C1885.759,1817.757,1885.69,1818.577,1884.893,1819.505Z" transform="translate(-1876.68 -1813.443)" fill="url(#linear-gradient-38)"/>
          </g>
        </g>
        <path id="Trazado_152957" data-name="Trazado 152957" d="M1886.661,1819.722c2.292-3.869,13.079-2.452,20.346,1.779,2.368,1.379,9.584,5.585,10.09,12.887a12.111,12.111,0,0,1-1.7,7.037c-3.182,5.074-10.7,7.314-18.652,5.34l.256-2.543a8.7,8.7,0,0,0,5.765-1.95c.479-.4,3.328-2.764,2.883-4.916-.752-3.613-9.76-1.644-15.6-7.714C1887.434,1826.917,1885.152,1822.267,1886.661,1819.722Z" transform="translate(-1844.107 -1812.417)" fill="url(#linear-gradient-39)"/>
      </g>
    </g>
  </g>
</svg>
