<svg xmlns="http://www.w3.org/2000/svg" width="91" height="57.62" viewBox="0 0 91 57.62">
  <g id="Grupo_128208" data-name="Grupo 128208" transform="translate(-701.24 -341.032)">
    <path id="Trazado_190815" data-name="Trazado 190815" d="M701.24,342.479a2.226,2.226,0,0,1,2.374-1.447q25.363.028,50.726.014c1.788,0,2.385.6,2.386,2.408q0,22.169,0,44.337c0,1.758-.6,2.367-2.331,2.368q-10.883.008-21.765,0c-1.663,0-2.158-.41-2.455-2.03-1.12-6.119-6.842-9.35-12.688-8.07-4.438.971-7.079,3.813-7.9,8.308a1.9,1.9,0,0,1-2.136,1.789c-1.243.02-2.489-.041-3.73.019a2.38,2.38,0,0,1-2.479-1.3Z" fill="#30610c"/>
    <path id="Trazado_190816" data-name="Trazado 190816" d="M1020.238,414.528q0-8.575,0-17.149c0-1.838.62-2.469,2.434-2.47,4.028,0,8.055.013,12.083-.011a2.937,2.937,0,0,1,2.454,1.144q7.014,8.436,14.079,16.83a3.2,3.2,0,0,1,.793,2.186c-.021,5.539-.009,11.077-.012,16.616,0,1.736-.617,2.349-2.351,2.363q-.444,0-.888,0c-1.587-.014-2.157-.465-2.412-2-1.006-6.042-6.808-9.426-12.732-8.092a9.652,9.652,0,0,0-7.831,8.176c-.289,1.471-.811,1.89-2.294,1.913-3.023.047-3.32-.244-3.32-3.248Zm13.171-3.243c2.486,0,4.973-.013,7.459.007a1.94,1.94,0,0,0,2.052-1.076,1.982,1.982,0,0,0-.486-2.2q-3.54-4.216-7.046-8.46a2.562,2.562,0,0,0-2.158-.991c-2.368.027-4.736,0-7.1.012-1.592.007-2.266.674-2.274,2.268q-.022,4.086,0,8.171c.008,1.593.682,2.259,2.276,2.267C1028.554,411.293,1030.982,411.285,1033.409,411.285Z" transform="translate(-259.839 -43.875)" fill="#30610c"/>
    <path id="Trazado_190817" data-name="Trazado 190817" d="M1072.084,583.861a7.726,7.726,0,1,1,7.767-7.727A7.764,7.764,0,0,1,1072.084,583.861Zm.032-5.469a2.252,2.252,0,1,0-2.247-2.251A2.277,2.277,0,0,0,1072.116,578.392Z" transform="translate(-295.812 -185.209)" fill="#30610c"/>
    <path id="Trazado_190818" data-name="Trazado 190818" d="M775.6,576.164a7.716,7.716,0,1,1-7.645-7.753A7.737,7.737,0,0,1,775.6,576.164Zm-7.708,2.228a2.25,2.25,0,1,0-2.279-2.247A2.321,2.321,0,0,0,767.895,578.392Z" transform="translate(-48.002 -185.211)" fill="#30610c"/>
  </g>
</svg>
