<svg xmlns="http://www.w3.org/2000/svg" xmlns:xlink="http://www.w3.org/1999/xlink" width="259.938" height="278.675" viewBox="0 0 259.938 278.675">
  <defs>
    <filter id="paris-4345139_1920" x="0" y="0" width="259.938" height="278.675" filterUnits="userSpaceOnUse">
      <feOffset dy="3" input="SourceAlpha"/>
      <feGaussianBlur stdDeviation="3" result="blur"/>
      <feFlood flood-opacity="0.161"/>
      <feComposite operator="in" in2="blur"/>
      <feComposite in="SourceGraphic"/>
    </filter>
  </defs>
  <g id="Grupo_128234" data-name="Grupo 128234" transform="translate(6499 10738.078)">
    <g transform="matrix(1, 0, 0, 1, -6499, -10738.08)" filter="url(#paris-4345139_1920)">
      <rect id="paris-4345139_1920-2" data-name="paris-4345139_1920" width="241.938" height="260.674" rx="20" transform="translate(9 6)" fill="#54aa13"/>
    </g>
    <g id="Grupo_128231" data-name="Grupo 128231" transform="translate(-6790.76 -12098.753)">
      <g id="Grupo_128212" data-name="Grupo 128212" transform="translate(377.001 1434)">
        <path id="Trazado_168793" data-name="Trazado 168793" d="M1000.6,300.412a2.072,2.072,0,0,1,.909,1.951c-.038,2.474-.013,4.949-.014,7.424,0,.183.009.368-.008.55a1.434,1.434,0,0,1-1.409,1.407,1.364,1.364,0,0,1-1.333-1.451c-.022-2.016-.009-4.032-.01-6.049v-1.031h-63.94v62.795c0,.306.013.613-.009.916a1.33,1.33,0,0,1-1.333,1.342,1.361,1.361,0,0,1-1.4-1.294,6.348,6.348,0,0,1-.014-.733q0-31.9-.012-63.79a2.1,2.1,0,0,1,.912-2.038Z" transform="translate(-932.029 -300.412)" fill="#fff"/>
        <path id="Trazado_168794" data-name="Trazado 168794" d="M1051.207,330.18c.772,0,1.436-.012,2.1,0a3.26,3.26,0,0,1,3.446,3.46q.019,8.981,0,17.963c0,1.245-.831,1.969-1.831,1.615-.8-.284-.922-.946-.921-1.7q.018-8.569.006-17.139c0-.214-.01-.428,0-.641.026-.53-.212-.8-.751-.8-.635,0-1.271,0-2.048,0v1.233q0,16.451,0,32.9a5.053,5.053,0,0,1-.109,1.27,1.138,1.138,0,0,1-1.38.914,2.635,2.635,0,0,1-1.2-1.049c-.167-.226-.077-.65-.077-.986q-.006-4.536,0-9.073V357.1h-6.129v1.111c0,7.515.105,15.033-.051,22.545a9.281,9.281,0,0,0,3.162,7.713c1.565-1.725,3.091-3.488,3.031-6.12s-.026-5.255,0-7.882a1.314,1.314,0,0,1,1.293-1.476,1.376,1.376,0,0,1,1.456,1.429c.019.212.01.427.01.641,0,2.352,0,4.7,0,7.057,0,.458-.032.916-.068,1.372a8.584,8.584,0,0,1-1.712,4.47,6.385,6.385,0,0,1-.683.86,5.805,5.805,0,0,0-2.01,5.463,1.427,1.427,0,0,1-.024.456,1.342,1.342,0,0,1-2.615.2,1.857,1.857,0,0,1-.095-.81,5.736,5.736,0,0,0-1.845-5.164,9.988,9.988,0,0,1-2.628-7.376q.07-27.449.013-54.9c0-1.005.144-1.844,1.3-2.1,0-1.864,0-3.665,0-5.466,0-1.439.429-1.884,1.831-1.893,1.834-.01,3.667-.013,5.5,0,1.267.01,1.712.449,1.726,1.712.018,1.619.012,3.238,0,4.857a1.139,1.139,0,0,0,.509,1.035,2.372,2.372,0,0,1,.765,1.507C1051.281,327.587,1051.207,328.836,1051.207,330.18Zm-2.833,18.5V327.462h-6.021v21.144a2.292,2.292,0,0,0,.382.073C1044.566,348.683,1046.4,348.682,1048.374,348.682Zm-6,5.5c1.887,0,3.738.011,5.587-.022.136,0,.353-.3.385-.489.31-1.832.112-2.072-1.709-2.158-.152-.007-.305-.016-.457-.016-1.267,0-2.532,0-3.807,0Zm1.342-34.064v4.426H1047v-4.426Z" transform="translate(-967.304 -305.932)" fill="#fff"/>
        <path id="Trazado_168795" data-name="Trazado 168795" d="M934.8,398.832h63.94v-1.151q0-36.3,0-72.6c0-.337-.017-.675.012-1.008a1.266,1.266,0,0,1,1.279-1.292,1.3,1.3,0,0,1,1.43,1.144,3.764,3.764,0,0,1,.038.821q0,37.448,0,74.9c0,1.582-.415,1.987-2.021,1.987H934.022c-1.544,0-1.976-.421-1.977-1.936q0-9.213,0-18.426a3.641,3.641,0,0,1,.04-.822,1.306,1.306,0,0,1,1.369-1.117,1.283,1.283,0,0,1,1.328,1.254,7.661,7.661,0,0,1,.013.824q0,8.158,0,16.317Z" transform="translate(-932.033 -307.75)" fill="#fff"/>
        <path id="Trazado_168796" data-name="Trazado 168796" d="M953.624,363.29q-5.677,0-11.355,0c-1.552,0-1.946-.4-1.951-1.95s-.016-3.114,0-4.67c.016-1.186.507-1.674,1.678-1.676q11.72-.009,23.441,0c1.224,0,1.715.495,1.724,1.727q.019,2.427,0,4.853c-.011,1.234-.486,1.71-1.731,1.713C961.5,363.3,957.561,363.29,953.624,363.29Zm.138-5.474c-3.175,0-6.352.027-9.526-.019-.822-.012-1.128.245-1.01,1.04a1.493,1.493,0,0,1,0,.457c-.165.962.278,1.157,1.177,1.151,6.076-.038,12.153-.013,18.229-.024,1.709,0,1.575.308,1.634-1.612.025-.84-.293-1.018-1.068-1.008C960.052,357.84,956.907,357.817,953.761,357.817Z" transform="translate(-934.747 -318.321)" fill="#fff"/>
        <path id="Trazado_168797" data-name="Trazado 168797" d="M1000.6,354.99q5.768,0,11.538,0c1.426,0,1.872.433,1.883,1.841q.017,2.335,0,4.67c-.012,1.334-.445,1.784-1.743,1.785q-11.675.009-23.35,0c-1.287,0-1.743-.479-1.75-1.785q-.012-2.381,0-4.761c.009-1.274.495-1.747,1.794-1.749Q994.785,354.984,1000.6,354.99Zm-.045,5.436c3.238,0,6.475-.012,9.712.011.615,0,.935-.155.855-.82a2.372,2.372,0,0,1,0-.64c.143-.916-.2-1.189-1.148-1.182-6.23.044-12.461.023-18.691.024-1.19,0-1.191,0-1.193,1.219a4.3,4.3,0,0,1,0,.458c-.074.7.2.956.937.947C994.2,360.4,997.378,360.426,1000.554,360.426Z" transform="translate(-950.123 -318.321)" fill="#fff"/>
        <path id="Trazado_168798" data-name="Trazado 168798" d="M953.708,380.087q5.814,0,11.629,0c1.361,0,1.821.455,1.829,1.8.009,1.587.011,3.175,0,4.761-.011,1.244-.482,1.724-1.719,1.725q-11.72.009-23.441,0c-1.2,0-1.668-.466-1.684-1.661q-.032-2.472,0-4.945c.015-1.232.494-1.681,1.757-1.682Q947.893,380.081,953.708,380.087Zm-.019,5.439c3.237,0,6.473-.013,9.71.012.637,0,.912-.207.846-.842-.012-.121,0-.244,0-.366,0-1.411,0-1.411-1.363-1.411q-9.023,0-18.045,0c-1.78,0-1.557-.278-1.628,1.6-.031.828.255,1.028,1.046,1.017C947.4,385.5,950.544,385.527,953.689,385.527Z" transform="translate(-934.745 -326.557)" fill="#fff"/>
        <path id="Trazado_168799" data-name="Trazado 168799" d="M1000.635,388.381q-5.769,0-11.538,0c-1.488,0-1.918-.428-1.922-1.89,0-1.557-.01-3.113,0-4.67.009-1.242.488-1.729,1.713-1.73q11.722-.008,23.442,0c1.187,0,1.667.468,1.683,1.662q.032,2.472,0,4.945c-.016,1.242-.478,1.68-1.752,1.682Q1006.45,388.39,1000.635,388.381Zm-.08-2.854c3.238,0,6.475-.013,9.712.011.616,0,.935-.156.855-.82a2.377,2.377,0,0,1,0-.64c.144-.918-.2-1.187-1.149-1.181-6.23.044-12.46.022-18.69.023-1.189,0-1.19,0-1.193,1.22a4.312,4.312,0,0,1,0,.458c-.075.7.2.953.937.945C994.2,385.506,997.379,385.527,1000.555,385.527Z" transform="translate(-950.123 -326.557)" fill="#fff"/>
        <path id="Trazado_168800" data-name="Trazado 168800" d="M953.712,338.2q-5.722,0-11.446,0c-1.554,0-1.943-.394-1.948-1.954s-.016-3.114,0-4.67c.016-1.181.513-1.679,1.68-1.68q11.721-.011,23.441,0c1.217,0,1.713.506,1.723,1.737q.019,2.426,0,4.853c-.01,1.231-.487,1.708-1.733,1.712C961.527,338.207,957.62,338.2,953.712,338.2Zm-.024-2.876q4.759,0,9.518-.005c.295,0,.834-.042.846-.126a8.889,8.889,0,0,0,.1-2.144c-.013-.139-.653-.31-1-.312q-9.151-.028-18.3-.011c-1.806,0-1.567-.2-1.639,1.606-.033.84.275,1.019,1.053,1.009C947.4,335.3,950.547,335.325,953.689,335.325Z" transform="translate(-934.747 -310.086)" fill="#fff"/>
        <path id="Trazado_168801" data-name="Trazado 168801" d="M1000.591,338.2q-5.722,0-11.446,0c-1.549,0-1.967-.416-1.97-1.936,0-1.557-.011-3.113,0-4.67.011-1.177.509-1.7,1.665-1.7q11.766-.012,23.533,0c1.12,0,1.621.5,1.638,1.624q.037,2.518,0,5.036c-.017,1.19-.484,1.636-1.7,1.639C1008.405,338.208,1004.5,338.2,1000.591,338.2Zm-.057-2.876c2.99,0,5.98.009,8.97,0,1.8-.007,1.571.258,1.628-1.6.021-.73-.169-1.019-.961-1.016q-9.565.042-19.13,0c-.709,0-1.033.213-.952.939a2.728,2.728,0,0,1,0,.64c-.1.783.194,1.063,1.019,1.051C994.249,335.3,997.392,335.325,1000.534,335.326Z" transform="translate(-950.123 -310.086)" fill="#fff"/>
        <path id="Trazado_168802" data-name="Trazado 168802" d="M965.8,400.222h23.268a7.149,7.149,0,0,1,1.005.032,1.343,1.343,0,0,1,.219,2.611,3.477,3.477,0,0,1-.993.107q-23.5.007-46.994,0a3.527,3.527,0,0,1-.993-.106,1.344,1.344,0,0,1,.215-2.612,7.709,7.709,0,0,1,1.006-.031Z" transform="translate(-934.766 -333.164)" fill="#fff"/>
        <path id="Trazado_168803" data-name="Trazado 168803" d="M965.85,411.221H942.489a5.309,5.309,0,0,1-.914-.021,1.3,1.3,0,0,1-1.2-1.377,1.283,1.283,0,0,1,1.24-1.339,5.67,5.67,0,0,1,.732-.015h46.9a5.328,5.328,0,0,1,.732.015,1.364,1.364,0,0,1,.054,2.713,4.978,4.978,0,0,1-.913.025Z" transform="translate(-934.766 -335.868)" fill="#fff"/>
        <path id="Trazado_168804" data-name="Trazado 168804" d="M957.4,419.455H942.466a6.954,6.954,0,0,1-.915-.021,1.252,1.252,0,0,1-1.174-1.2,1.239,1.239,0,0,1,.906-1.413,3.246,3.246,0,0,1,.99-.114q15.208-.008,30.417,0a3.041,3.041,0,0,1,.9.092,1.352,1.352,0,0,1-.253,2.64,7.01,7.01,0,0,1-.824.018Z" transform="translate(-934.765 -338.572)" fill="#fff"/>
        <path id="Trazado_168805" data-name="Trazado 168805" d="M977.645,311.416q-5.175,0-10.349,0a6.25,6.25,0,0,1-1-.042,1.139,1.139,0,0,1-1.075-1.256,2.516,2.516,0,0,1,.894-1.318c.223-.195.7-.133,1.06-.133q10.487-.01,20.973,0c.091,0,.183,0,.275,0,1.069.023,1.7.528,1.712,1.368.011.856-.6,1.378-1.679,1.381C984.85,311.422,981.247,311.416,977.645,311.416Z" transform="translate(-942.915 -303.118)" fill="#fff"/>
        <path id="Trazado_168806" data-name="Trazado 168806" d="M1009.852,427.787c2.321,0,4.641-.007,6.962,0,1.125,0,1.7.463,1.724,1.326.023.887-.607,1.421-1.738,1.422q-7.054.01-14.108,0c-1.15,0-1.8-.625-1.657-1.571.133-.894.752-1.18,1.58-1.179Q1006.234,427.792,1009.852,427.787Z" transform="translate(-954.667 -342.209)" fill="#fff"/>
        <path id="Trazado_168807" data-name="Trazado 168807" d="M994.126,346.753c1.768,0,3.536-.007,5.3,0,1,.006,1.618.521,1.633,1.33a1.431,1.431,0,0,1-1.583,1.411q-5.349.028-10.7,0a1.432,1.432,0,0,1-1.587-1.407c.011-.8.633-1.328,1.629-1.334C990.591,346.745,992.359,346.753,994.126,346.753Z" transform="translate(-950.131 -315.618)" fill="#fff"/>
        <path id="Trazado_168808" data-name="Trazado 168808" d="M947.223,321.661c1.8,0,3.6-.008,5.394,0,.956.007,1.535.5,1.576,1.285a1.383,1.383,0,0,1-1.52,1.455q-5.393.031-10.786,0a1.384,1.384,0,0,1-1.527-1.447c.036-.8.6-1.287,1.563-1.293C943.688,321.652,945.456,321.661,947.223,321.661Z" transform="translate(-934.762 -307.384)" fill="#fff"/>
        <path id="Trazado_168809" data-name="Trazado 168809" d="M947.283,346.752c1.767,0,3.534-.009,5.3,0,1.014.007,1.6.513,1.608,1.341a1.4,1.4,0,0,1-1.58,1.4q-5.347.029-10.695,0a1.4,1.4,0,0,1-1.561-1.419c.018-.827.6-1.317,1.625-1.322C943.748,346.745,945.515,346.752,947.283,346.752Z" transform="translate(-934.762 -315.617)" fill="#fff"/>
        <path id="Trazado_168810" data-name="Trazado 168810" d="M947.316,371.818c1.742,0,3.484-.011,5.225,0,1.043.01,1.623.495,1.649,1.318.028.866-.579,1.422-1.645,1.426q-5.271.02-10.542,0c-1.057,0-1.673-.562-1.648-1.423.024-.822.6-1.311,1.643-1.321C943.772,371.806,945.544,371.818,947.316,371.818Z" transform="translate(-934.761 -323.842)" fill="#fff"/>
        <path id="Trazado_168811" data-name="Trazado 168811" d="M994.229,371.818c1.707,0,3.413-.01,5.12,0,1.073.009,1.706.526,1.714,1.353s-.641,1.389-1.688,1.393q-5.257.017-10.513,0c-1.048,0-1.688-.572-1.668-1.411.021-.8.635-1.323,1.641-1.332C990.633,371.806,992.431,371.819,994.229,371.818Z" transform="translate(-950.131 -323.842)" fill="#fff"/>
        <path id="Trazado_168812" data-name="Trazado 168812" d="M994.191,321.661c1.737,0,3.475-.006,5.213,0,1.014,0,1.624.5,1.657,1.306.034.832-.62,1.435-1.647,1.439q-5.3.02-10.608,0a1.437,1.437,0,0,1-1.614-1.381c-.005-.808.621-1.357,1.6-1.363C990.594,321.653,992.392,321.661,994.191,321.661Z" transform="translate(-950.131 -307.384)" fill="#fff"/>
      </g>
    </g>
  </g>
</svg>
