<svg xmlns="http://www.w3.org/2000/svg" width="57.176" height="60" viewBox="0 0 57.176 60">
  <g id="Grupo_128227" data-name="Grupo 128227" transform="translate(-377.001 -1434)">
    <g id="Grupo_128212" data-name="Grupo 128212" transform="translate(-555.028 1133.588)">
      <path id="Trazado_168793" data-name="Trazado 168793" d="M975.854,300.412a1.324,1.324,0,0,1,.581,1.247c-.025,1.581-.009,3.163-.009,4.745,0,.117.006.235-.005.351a.917.917,0,0,1-.9.9.871.871,0,0,1-.852-.927c-.014-1.289-.005-2.577-.006-3.866V302.2H933.8v40.135c0,.2.008.392-.006.586a.85.85,0,0,1-.852.858.87.87,0,0,1-.892-.827,4.048,4.048,0,0,1-.009-.469q0-20.386-.008-40.771a1.342,1.342,0,0,1,.583-1.3Z" transform="translate(0)" fill="#fff"/>
      <path id="Trazado_168794" data-name="Trazado 168794" d="M1046.991,325.508c.493,0,.918-.008,1.342,0a2.083,2.083,0,0,1,2.2,2.211q.012,5.74,0,11.481c0,.8-.531,1.258-1.17,1.032-.512-.181-.59-.6-.589-1.089q.012-5.477,0-10.954c0-.137-.006-.274,0-.41.016-.339-.135-.514-.48-.514h-1.309v.788q0,10.515,0,21.029a3.228,3.228,0,0,1-.069.812.727.727,0,0,1-.882.584,1.684,1.684,0,0,1-.766-.67c-.107-.144-.049-.416-.049-.63q0-2.9,0-5.8v-.664H1041.3v.71c0,4.8.067,9.608-.033,14.409a5.932,5.932,0,0,0,2.021,4.93c1-1.1,1.975-2.229,1.938-3.911s-.016-3.358,0-5.037a.84.84,0,0,1,.827-.943.879.879,0,0,1,.931.913c.012.136.006.273.006.41,0,1.5,0,3.007,0,4.511,0,.292-.02.585-.044.877a5.487,5.487,0,0,1-1.094,2.857,4.075,4.075,0,0,1-.437.55,3.71,3.71,0,0,0-1.285,3.492.913.913,0,0,1-.015.292.858.858,0,0,1-1.672.128,1.185,1.185,0,0,1-.061-.517,3.666,3.666,0,0,0-1.179-3.3,6.383,6.383,0,0,1-1.679-4.714q.044-17.544.009-35.087c0-.642.092-1.178.832-1.341,0-1.191,0-2.342,0-3.493,0-.92.274-1.2,1.17-1.21,1.172-.006,2.343-.008,3.515,0,.81.007,1.094.287,1.1,1.094.012,1.035.008,2.07,0,3.1a.728.728,0,0,0,.325.662,1.516,1.516,0,0,1,.489.963C1047.039,323.85,1046.991,324.649,1046.991,325.508Zm-1.81,11.825V323.771h-3.848v13.514a1.468,1.468,0,0,0,.244.046C1042.747,337.334,1043.917,337.333,1045.181,337.333Zm-3.837,3.514c1.206,0,2.389.007,3.571-.014.087,0,.225-.193.246-.313.2-1.171.071-1.324-1.092-1.379-.1,0-.195-.01-.292-.01h-2.433Zm.857-21.771V321.9h2.1v-2.829Z" transform="translate(-61.336 -9.598)" fill="#fff"/>
      <path id="Trazado_168795" data-name="Trazado 168795" d="M933.8,371.386h40.867v-.736q0-23.2,0-46.4c0-.215-.011-.431.008-.645a.809.809,0,0,1,.817-.826.832.832,0,0,1,.914.731,2.4,2.4,0,0,1,.025.525q0,23.935,0,47.869c0,1.011-.265,1.27-1.292,1.27H933.308c-.987,0-1.263-.269-1.263-1.238q0-5.888,0-11.777a2.325,2.325,0,0,1,.026-.525.835.835,0,0,1,.875-.714.82.82,0,0,1,.849.8,4.887,4.887,0,0,1,.009.527q0,5.214,0,10.429Z" transform="translate(-0.008 -12.76)" fill="#fff"/>
      <path id="Trazado_168796" data-name="Trazado 168796" d="M948.82,360.295q-3.628,0-7.257,0c-.992,0-1.244-.253-1.247-1.247s-.01-1.99,0-2.985c.01-.758.324-1.07,1.073-1.071q7.491-.006,14.982,0c.782,0,1.1.316,1.1,1.1q.012,1.551,0,3.1c-.007.788-.311,1.093-1.106,1.1C953.852,360.3,951.336,360.294,948.82,360.295Zm.088-3.5c-2.029,0-4.06.018-6.089-.012-.525-.008-.721.156-.646.665a.952.952,0,0,1,0,.292c-.106.615.178.739.752.736,3.884-.024,7.767-.008,11.651-.015,1.093,0,1.007.2,1.044-1.031.016-.537-.187-.651-.682-.645C952.928,356.811,950.918,356.8,948.908,356.8Z" transform="translate(-4.725 -31.141)" fill="#fff"/>
      <path id="Trazado_168797" data-name="Trazado 168797" d="M995.753,354.989q3.687,0,7.374,0c.911,0,1.2.277,1.2,1.177q.011,1.492,0,2.985c-.008.852-.285,1.14-1.114,1.141q-7.462.006-14.924,0c-.823,0-1.114-.306-1.119-1.141q-.008-1.521,0-3.043c.006-.814.316-1.116,1.147-1.118Q992.037,354.986,995.753,354.989Zm-.029,3.474c2.069,0,4.138-.008,6.208.007.393,0,.6-.1.547-.524a1.516,1.516,0,0,1,0-.409c.091-.586-.129-.76-.734-.756-3.982.028-7.964.015-11.946.015-.76,0-.761,0-.763.779a2.748,2.748,0,0,1,0,.292c-.048.45.127.611.6.605C991.664,358.45,993.694,358.464,995.724,358.464Z" transform="translate(-31.462 -31.141)" fill="#fff"/>
      <path id="Trazado_168798" data-name="Trazado 168798" d="M948.872,380.087q3.716,0,7.433,0c.87,0,1.164.291,1.169,1.152.005,1.014.007,2.029,0,3.043-.007.795-.308,1.1-1.1,1.1q-7.491.006-14.982,0c-.765,0-1.066-.3-1.076-1.061q-.021-1.58,0-3.16c.009-.788.315-1.074,1.123-1.075Q945.155,380.083,948.872,380.087Zm-.012,3.477c2.069,0,4.137-.009,6.206.008.407,0,.583-.132.541-.538-.008-.077,0-.156,0-.234,0-.9,0-.9-.871-.9q-5.767,0-11.533,0c-1.138,0-1-.178-1.041,1.025-.02.529.163.657.668.65C944.839,383.548,946.849,383.564,948.86,383.564Z" transform="translate(-4.723 -45.461)" fill="#fff"/>
      <path id="Trazado_168799" data-name="Trazado 168799" d="M995.776,385.388q-3.687,0-7.374,0c-.951,0-1.226-.274-1.229-1.208,0-.995-.006-1.99,0-2.985.005-.794.312-1.105,1.095-1.106q7.492-.005,14.983,0c.758,0,1.065.3,1.076,1.062q.021,1.58,0,3.16c-.01.794-.306,1.073-1.12,1.075Q999.493,385.393,995.776,385.388Zm-.051-1.824c2.069,0,4.138-.008,6.207.007.394,0,.6-.1.547-.524a1.516,1.516,0,0,1,0-.409c.092-.587-.131-.759-.734-.755-3.982.028-7.964.014-11.946.015-.76,0-.76,0-.762.78a2.756,2.756,0,0,1,0,.293c-.048.45.128.609.6.6C991.665,383.55,993.7,383.564,995.725,383.564Z" transform="translate(-31.463 -45.461)" fill="#fff"/>
      <path id="Trazado_168800" data-name="Trazado 168800" d="M948.876,335.2q-3.657,0-7.315,0c-.993,0-1.242-.252-1.245-1.249s-.01-1.99,0-2.985c.01-.755.328-1.073,1.074-1.073q7.491-.007,14.982,0c.778,0,1.095.324,1.1,1.11q.012,1.55,0,3.1c-.007.787-.311,1.092-1.108,1.094C953.871,335.206,951.374,335.2,948.876,335.2Zm-.015-1.838q3.042,0,6.083,0c.188,0,.533-.027.541-.08a5.681,5.681,0,0,0,.066-1.37c-.008-.089-.417-.2-.642-.2q-5.849-.018-11.7-.007c-1.154,0-1-.128-1.048,1.026-.021.537.176.651.673.645C944.845,333.349,946.853,333.364,948.861,333.364Z" transform="translate(-4.725 -16.82)" fill="#fff"/>
      <path id="Trazado_168801" data-name="Trazado 168801" d="M995.748,335.2q-3.657,0-7.315,0c-.99,0-1.257-.266-1.259-1.238,0-.995-.007-1.99,0-2.985.007-.752.325-1.084,1.064-1.085q7.52-.008,15.041,0c.716,0,1.036.317,1.047,1.038q.024,1.61,0,3.219c-.011.76-.309,1.046-1.088,1.048C1000.742,335.207,998.245,335.2,995.748,335.2Zm-.036-1.838c1.911,0,3.822.006,5.733,0,1.151,0,1,.165,1.04-1.021.014-.466-.108-.651-.615-.649q-6.113.027-12.227,0c-.453,0-.66.136-.608.6a1.742,1.742,0,0,1,0,.409c-.062.5.124.68.651.672C991.694,333.347,993.7,333.364,995.711,333.365Z" transform="translate(-31.463 -16.82)" fill="#fff"/>
      <path id="Trazado_168802" data-name="Trazado 168802" d="M956.621,400.222h14.872a4.568,4.568,0,0,1,.642.02.858.858,0,0,1,.14,1.669,2.223,2.223,0,0,1-.635.068q-15.018,0-30.036,0a2.254,2.254,0,0,1-.635-.068.859.859,0,0,1,.138-1.67,4.928,4.928,0,0,1,.643-.02Z" transform="translate(-4.758 -56.95)" fill="#fff"/>
      <path id="Trazado_168803" data-name="Trazado 168803" d="M956.655,410.225H941.724a3.394,3.394,0,0,1-.584-.013.83.83,0,0,1-.77-.88.82.82,0,0,1,.792-.856,3.621,3.621,0,0,1,.468-.01h29.979a3.405,3.405,0,0,1,.468.009.872.872,0,0,1,.035,1.734,3.183,3.183,0,0,1-.584.016Z" transform="translate(-4.759 -61.652)" fill="#fff"/>
      <path id="Trazado_168804" data-name="Trazado 168804" d="M951.254,418.461h-9.545a4.444,4.444,0,0,1-.585-.013.8.8,0,0,1-.75-.768.792.792,0,0,1,.579-.9,2.075,2.075,0,0,1,.633-.073q9.72-.005,19.441,0a1.943,1.943,0,0,1,.577.059.864.864,0,0,1-.161,1.687,4.473,4.473,0,0,1-.526.012Z" transform="translate(-4.758 -66.353)" fill="#fff"/>
      <path id="Trazado_168805" data-name="Trazado 168805" d="M973.155,310.421q-3.308,0-6.615,0a3.994,3.994,0,0,1-.642-.027.728.728,0,0,1-.687-.8,1.609,1.609,0,0,1,.572-.842c.143-.124.446-.085.677-.085q6.7-.006,13.4,0c.058,0,.117,0,.176,0,.683.015,1.088.337,1.094.875s-.381.881-1.073.882C977.76,310.424,975.458,310.42,973.155,310.421Z" transform="translate(-18.929 -4.705)" fill="#fff"/>
      <path id="Trazado_168806" data-name="Trazado 168806" d="M1006.664,427.786c1.483,0,2.966,0,4.449,0,.719,0,1.087.3,1.1.848s-.388.908-1.111.909q-4.508.006-9.017,0c-.735,0-1.149-.4-1.059-1,.085-.571.48-.754,1.01-.754Q1004.351,427.789,1006.664,427.786Z" transform="translate(-39.364 -72.677)" fill="#fff"/>
      <path id="Trazado_168807" data-name="Trazado 168807" d="M991.625,346.752c1.13,0,2.26,0,3.39,0,.641,0,1.034.333,1.043.85a.915.915,0,0,1-1.012.9q-3.418.018-6.837,0a.915.915,0,0,1-1.014-.9c.007-.514.4-.849,1.041-.852C989.365,346.746,990.495,346.752,991.625,346.752Z" transform="translate(-31.476 -26.44)" fill="#fff"/>
      <path id="Trazado_168808" data-name="Trazado 168808" d="M944.745,321.66c1.149,0,2.3-.005,3.447,0,.611,0,.981.317,1.007.821a.884.884,0,0,1-.971.93q-3.447.02-6.894,0a.885.885,0,0,1-.976-.925c.023-.51.387-.822,1-.826C942.486,321.654,943.616,321.66,944.745,321.66Z" transform="translate(-4.752 -12.123)" fill="#fff"/>
      <path id="Trazado_168809" data-name="Trazado 168809" d="M944.784,346.751c1.129,0,2.259-.006,3.388,0,.648,0,1.024.328,1.027.857a.892.892,0,0,1-1.01.895q-3.418.019-6.835,0a.893.893,0,0,1-1-.907c.011-.529.384-.842,1.038-.845C942.524,346.746,943.654,346.751,944.784,346.751Z" transform="translate(-4.752 -26.439)" fill="#fff"/>
      <path id="Trazado_168810" data-name="Trazado 168810" d="M944.8,371.816c1.113,0,2.227-.007,3.34,0,.667.006,1.037.316,1.054.842.018.553-.37.909-1.051.912q-3.369.013-6.738,0c-.675,0-1.069-.359-1.053-.91.015-.526.386-.838,1.05-.844C942.539,371.809,943.672,371.816,944.8,371.816Z" transform="translate(-4.751 -40.741)" fill="#fff"/>
      <path id="Trazado_168811" data-name="Trazado 168811" d="M991.69,371.817c1.091,0,2.181-.006,3.272,0,.686.006,1.09.336,1.1.865s-.41.888-1.079.89q-3.36.011-6.719,0c-.67,0-1.079-.366-1.066-.9.013-.511.406-.846,1.049-.852C989.392,371.809,990.541,371.817,991.69,371.817Z" transform="translate(-31.476 -40.741)" fill="#fff"/>
      <path id="Trazado_168812" data-name="Trazado 168812" d="M991.665,321.66c1.11,0,2.221,0,3.332,0,.648,0,1.038.318,1.059.835.022.532-.4.917-1.052.92q-3.39.013-6.78,0a.918.918,0,0,1-1.031-.882c0-.516.4-.867,1.025-.871C989.366,321.654,990.516,321.66,991.665,321.66Z" transform="translate(-31.476 -12.123)" fill="#fff"/>
    </g>
  </g>
</svg>
