<svg id="Grupo_79644" data-name="Grupo 79644" xmlns="http://www.w3.org/2000/svg" width="400" height="300.97" viewBox="0 0 400 300.97">
  <path id="Trazado_145968" data-name="Trazado 145968" d="M66.711,0A66.711,66.711,0,1,1,0,66.711,66.711,66.711,0,0,1,66.711,0Z" transform="translate(256.325 161.835)" fill="#fece10" opacity="0.444" style="mix-blend-mode: multiply;isolation: isolate"/>
  <path id="Trazado_145969" data-name="Trazado 145969" d="M45.584,0A45.584,45.584,0,1,1,0,45.584,45.584,45.584,0,0,1,45.584,0Z" transform="translate(37.272 17.406)" fill="#fece10" opacity="0.444" style="mix-blend-mode: multiply;isolation: isolate"/>
  <rect id="Rectángulo_34812" data-name="Rectángulo 34812" width="400" height="300" transform="translate(0 0.485)" fill="none"/>
  <path id="Trazado_145967" data-name="Trazado 145967" d="M150.485,0A150.485,150.485,0,1,1,0,150.485,150.485,150.485,0,0,1,150.485,0Z" transform="translate(49.515)" fill="#f67409"/>
  <path id="Trazado_145971" data-name="Trazado 145971" d="M12.533,0A12.533,12.533,0,1,1,0,12.533,12.533,12.533,0,0,1,12.533,0Z" transform="translate(49.515 250.582)" fill="#fece10" opacity="0.444" style="mix-blend-mode: multiply;isolation: isolate"/>
  <g id="Grupo_78276" data-name="Grupo 78276" transform="translate(287.809 208.593)">
    <g id="Grupo_53306" data-name="Grupo 53306" transform="translate(0)">
      <path id="Trazado_99200" data-name="Trazado 99200" d="M416.026,51.09a.907.907,0,1,1-.906-.866A.887.887,0,0,1,416.026,51.09Z" transform="translate(-414.214 -50.224)" fill="#2432ff"/>
      <path id="Trazado_99201" data-name="Trazado 99201" d="M424.472,51.09a.907.907,0,1,1-.905-.866A.886.886,0,0,1,424.472,51.09Z" transform="translate(-414.508 -50.224)" fill="#2432ff"/>
      <path id="Trazado_99202" data-name="Trazado 99202" d="M432.918,51.09a.907.907,0,1,1-.905-.866A.886.886,0,0,1,432.918,51.09Z" transform="translate(-414.801 -50.224)" fill="#2432ff"/>
      <path id="Trazado_99203" data-name="Trazado 99203" d="M441.365,51.09a.907.907,0,1,1-.906-.866A.887.887,0,0,1,441.365,51.09Z" transform="translate(-415.095 -50.224)" fill="#2432ff"/>
      <path id="Trazado_99204" data-name="Trazado 99204" d="M449.811,51.09a.907.907,0,1,1-.905-.866A.887.887,0,0,1,449.811,51.09Z" transform="translate(-415.388 -50.224)" fill="#2432ff"/>
      <path id="Trazado_99205" data-name="Trazado 99205" d="M458.257,51.09a.907.907,0,1,1-.905-.866A.886.886,0,0,1,458.257,51.09Z" transform="translate(-415.682 -50.224)" fill="#2432ff"/>
      <path id="Trazado_99206" data-name="Trazado 99206" d="M466.7,51.09a.907.907,0,1,1-.906-.866A.887.887,0,0,1,466.7,51.09Z" transform="translate(-415.976 -50.224)" fill="#2432ff"/>
      <path id="Trazado_99207" data-name="Trazado 99207" d="M475.15,51.09a.907.907,0,1,1-.905-.866A.887.887,0,0,1,475.15,51.09Z" transform="translate(-416.269 -50.224)" fill="#2432ff"/>
      <path id="Trazado_99208" data-name="Trazado 99208" d="M483.6,51.09a.907.907,0,1,1-.906-.866A.887.887,0,0,1,483.6,51.09Z" transform="translate(-416.563 -50.224)" fill="#2432ff"/>
      <path id="Trazado_99209" data-name="Trazado 99209" d="M492.043,51.09a.907.907,0,1,1-.906-.866A.887.887,0,0,1,492.043,51.09Z" transform="translate(-416.856 -50.224)" fill="#2432ff"/>
      <path id="Trazado_99210" data-name="Trazado 99210" d="M500.489,51.09a.907.907,0,1,1-.906-.866A.887.887,0,0,1,500.489,51.09Z" transform="translate(-417.15 -50.224)" fill="#2432ff"/>
    </g>
    <g id="Grupo_53307" data-name="Grupo 53307" transform="translate(0 6.93)">
      <path id="Trazado_99211" data-name="Trazado 99211" d="M416.026,58.6a.907.907,0,1,1-.906-.866A.887.887,0,0,1,416.026,58.6Z" transform="translate(-414.214 -57.732)" fill="#2432ff"/>
      <path id="Trazado_99212" data-name="Trazado 99212" d="M424.472,58.6a.907.907,0,1,1-.905-.866A.886.886,0,0,1,424.472,58.6Z" transform="translate(-414.508 -57.732)" fill="#2432ff"/>
      <path id="Trazado_99213" data-name="Trazado 99213" d="M432.918,58.6a.907.907,0,1,1-.905-.866A.886.886,0,0,1,432.918,58.6Z" transform="translate(-414.801 -57.732)" fill="#2432ff"/>
      <path id="Trazado_99214" data-name="Trazado 99214" d="M441.365,58.6a.907.907,0,1,1-.906-.866A.887.887,0,0,1,441.365,58.6Z" transform="translate(-415.095 -57.732)" fill="#2432ff"/>
      <path id="Trazado_99215" data-name="Trazado 99215" d="M449.811,58.6a.907.907,0,1,1-.905-.866A.887.887,0,0,1,449.811,58.6Z" transform="translate(-415.388 -57.732)" fill="#2432ff"/>
      <path id="Trazado_99216" data-name="Trazado 99216" d="M458.257,58.6a.907.907,0,1,1-.905-.866A.886.886,0,0,1,458.257,58.6Z" transform="translate(-415.682 -57.732)" fill="#2432ff"/>
      <path id="Trazado_99217" data-name="Trazado 99217" d="M466.7,58.6a.907.907,0,1,1-.906-.866A.887.887,0,0,1,466.7,58.6Z" transform="translate(-415.976 -57.732)" fill="#2432ff"/>
      <path id="Trazado_99218" data-name="Trazado 99218" d="M475.15,58.6a.907.907,0,1,1-.905-.866A.887.887,0,0,1,475.15,58.6Z" transform="translate(-416.269 -57.732)" fill="#2432ff"/>
      <path id="Trazado_99219" data-name="Trazado 99219" d="M483.6,58.6a.907.907,0,1,1-.906-.866A.887.887,0,0,1,483.6,58.6Z" transform="translate(-416.563 -57.732)" fill="#2432ff"/>
      <path id="Trazado_99220" data-name="Trazado 99220" d="M492.043,58.6a.907.907,0,1,1-.906-.866A.887.887,0,0,1,492.043,58.6Z" transform="translate(-416.856 -57.732)" fill="#2432ff"/>
      <path id="Trazado_99221" data-name="Trazado 99221" d="M500.489,58.6a.907.907,0,1,1-.906-.866A.887.887,0,0,1,500.489,58.6Z" transform="translate(-417.15 -57.732)" fill="#2432ff"/>
    </g>
    <g id="Grupo_53308" data-name="Grupo 53308" transform="translate(0 13.861)">
      <ellipse id="Elipse_3955" data-name="Elipse 3955" cx="0.906" cy="0.866" rx="0.906" ry="0.866" fill="#2432ff"/>
      <path id="Trazado_99222" data-name="Trazado 99222" d="M424.472,66.106a.907.907,0,1,1-.905-.866A.887.887,0,0,1,424.472,66.106Z" transform="translate(-414.508 -65.24)" fill="#2432ff"/>
      <ellipse id="Elipse_3956" data-name="Elipse 3956" cx="0.906" cy="0.866" rx="0.906" ry="0.866" transform="translate(16.305)" fill="#2432ff"/>
      <path id="Trazado_99223" data-name="Trazado 99223" d="M441.365,66.106a.907.907,0,1,1-.906-.866A.887.887,0,0,1,441.365,66.106Z" transform="translate(-415.095 -65.24)" fill="#2432ff"/>
      <path id="Trazado_99224" data-name="Trazado 99224" d="M449.811,66.106a.907.907,0,1,1-.905-.866A.887.887,0,0,1,449.811,66.106Z" transform="translate(-415.388 -65.24)" fill="#2432ff"/>
      <ellipse id="Elipse_3957" data-name="Elipse 3957" cx="0.906" cy="0.866" rx="0.906" ry="0.866" transform="translate(40.764)" fill="#2432ff"/>
      <path id="Trazado_99225" data-name="Trazado 99225" d="M466.7,66.106a.907.907,0,1,1-.906-.866A.888.888,0,0,1,466.7,66.106Z" transform="translate(-415.975 -65.24)" fill="#2432ff"/>
      <ellipse id="Elipse_3958" data-name="Elipse 3958" cx="0.906" cy="0.866" rx="0.906" ry="0.866" transform="translate(57.069)" fill="#2432ff"/>
      <ellipse id="Elipse_3959" data-name="Elipse 3959" cx="0.906" cy="0.866" rx="0.906" ry="0.866" transform="translate(65.222)" fill="#2432ff"/>
      <path id="Trazado_99226" data-name="Trazado 99226" d="M492.043,66.106a.907.907,0,1,1-.906-.866A.888.888,0,0,1,492.043,66.106Z" transform="translate(-416.856 -65.24)" fill="#2432ff"/>
      <path id="Trazado_99227" data-name="Trazado 99227" d="M500.489,66.106a.907.907,0,1,1-.906-.866A.887.887,0,0,1,500.489,66.106Z" transform="translate(-417.15 -65.24)" fill="#2432ff"/>
    </g>
    <g id="Grupo_53309" data-name="Grupo 53309" transform="translate(0 20.791)">
      <ellipse id="Elipse_3960" data-name="Elipse 3960" cx="0.906" cy="0.866" rx="0.906" ry="0.866" transform="translate(0 0)" fill="#2432ff"/>
      <path id="Trazado_99228" data-name="Trazado 99228" d="M424.472,73.614a.907.907,0,1,1-.905-.867A.886.886,0,0,1,424.472,73.614Z" transform="translate(-414.508 -72.747)" fill="#2432ff"/>
      <ellipse id="Elipse_3961" data-name="Elipse 3961" cx="0.906" cy="0.866" rx="0.906" ry="0.866" transform="translate(16.305 0)" fill="#2432ff"/>
      <path id="Trazado_99229" data-name="Trazado 99229" d="M441.365,73.614a.907.907,0,1,1-.906-.867A.887.887,0,0,1,441.365,73.614Z" transform="translate(-415.095 -72.747)" fill="#2432ff"/>
      <path id="Trazado_99230" data-name="Trazado 99230" d="M449.811,73.614a.907.907,0,1,1-.905-.867A.886.886,0,0,1,449.811,73.614Z" transform="translate(-415.388 -72.747)" fill="#2432ff"/>
      <ellipse id="Elipse_3962" data-name="Elipse 3962" cx="0.906" cy="0.866" rx="0.906" ry="0.866" transform="translate(40.764 0)" fill="#2432ff"/>
      <path id="Trazado_99231" data-name="Trazado 99231" d="M466.7,73.614a.907.907,0,1,1-.906-.867A.887.887,0,0,1,466.7,73.614Z" transform="translate(-415.975 -72.747)" fill="#2432ff"/>
      <ellipse id="Elipse_3963" data-name="Elipse 3963" cx="0.906" cy="0.866" rx="0.906" ry="0.866" transform="translate(57.069 0)" fill="#2432ff"/>
      <ellipse id="Elipse_3964" data-name="Elipse 3964" cx="0.906" cy="0.866" rx="0.906" ry="0.866" transform="translate(65.222 0)" fill="#2432ff"/>
      <path id="Trazado_99232" data-name="Trazado 99232" d="M492.043,73.614a.907.907,0,1,1-.906-.867A.887.887,0,0,1,492.043,73.614Z" transform="translate(-416.856 -72.747)" fill="#2432ff"/>
      <path id="Trazado_99233" data-name="Trazado 99233" d="M500.489,73.614a.907.907,0,1,1-.906-.867A.887.887,0,0,1,500.489,73.614Z" transform="translate(-417.15 -72.747)" fill="#2432ff"/>
    </g>
    <g id="Grupo_53310" data-name="Grupo 53310" transform="translate(0 27.721)">
      <path id="Trazado_99234" data-name="Trazado 99234" d="M416.026,81.122a.907.907,0,1,1-.906-.867A.887.887,0,0,1,416.026,81.122Z" transform="translate(-414.214 -80.255)" fill="#2432ff"/>
      <path id="Trazado_99235" data-name="Trazado 99235" d="M424.472,81.122a.907.907,0,1,1-.905-.867A.886.886,0,0,1,424.472,81.122Z" transform="translate(-414.508 -80.255)" fill="#2432ff"/>
      <path id="Trazado_99236" data-name="Trazado 99236" d="M432.918,81.122a.907.907,0,1,1-.905-.867A.886.886,0,0,1,432.918,81.122Z" transform="translate(-414.801 -80.255)" fill="#2432ff"/>
      <path id="Trazado_99237" data-name="Trazado 99237" d="M441.365,81.122a.907.907,0,1,1-.906-.867A.887.887,0,0,1,441.365,81.122Z" transform="translate(-415.095 -80.255)" fill="#2432ff"/>
      <path id="Trazado_99238" data-name="Trazado 99238" d="M449.811,81.122a.907.907,0,1,1-.905-.867A.886.886,0,0,1,449.811,81.122Z" transform="translate(-415.388 -80.255)" fill="#2432ff"/>
      <path id="Trazado_99239" data-name="Trazado 99239" d="M458.257,81.122a.907.907,0,1,1-.905-.867A.886.886,0,0,1,458.257,81.122Z" transform="translate(-415.682 -80.255)" fill="#2432ff"/>
      <path id="Trazado_99240" data-name="Trazado 99240" d="M466.7,81.122a.907.907,0,1,1-.906-.867A.887.887,0,0,1,466.7,81.122Z" transform="translate(-415.976 -80.255)" fill="#2432ff"/>
      <path id="Trazado_99241" data-name="Trazado 99241" d="M475.15,81.122a.907.907,0,1,1-.905-.867A.886.886,0,0,1,475.15,81.122Z" transform="translate(-416.269 -80.255)" fill="#2432ff"/>
      <path id="Trazado_99242" data-name="Trazado 99242" d="M483.6,81.122a.907.907,0,1,1-.906-.867A.886.886,0,0,1,483.6,81.122Z" transform="translate(-416.563 -80.255)" fill="#2432ff"/>
      <path id="Trazado_99243" data-name="Trazado 99243" d="M492.043,81.122a.907.907,0,1,1-.906-.867A.887.887,0,0,1,492.043,81.122Z" transform="translate(-416.856 -80.255)" fill="#2432ff"/>
      <path id="Trazado_99244" data-name="Trazado 99244" d="M500.489,81.122a.907.907,0,1,1-.906-.867A.887.887,0,0,1,500.489,81.122Z" transform="translate(-417.15 -80.255)" fill="#2432ff"/>
    </g>
    <g id="Grupo_53311" data-name="Grupo 53311" transform="translate(0 34.651)">
      <ellipse id="Elipse_3965" data-name="Elipse 3965" cx="0.906" cy="0.866" rx="0.906" ry="0.866" transform="translate(0 0)" fill="#2432ff"/>
      <path id="Trazado_99245" data-name="Trazado 99245" d="M424.472,88.63a.907.907,0,1,1-.905-.867A.886.886,0,0,1,424.472,88.63Z" transform="translate(-414.508 -87.763)" fill="#2432ff"/>
      <ellipse id="Elipse_3966" data-name="Elipse 3966" cx="0.906" cy="0.866" rx="0.906" ry="0.866" transform="translate(16.305 0)" fill="#2432ff"/>
      <path id="Trazado_99246" data-name="Trazado 99246" d="M441.365,88.63a.907.907,0,1,1-.906-.867A.887.887,0,0,1,441.365,88.63Z" transform="translate(-415.095 -87.763)" fill="#2432ff"/>
      <path id="Trazado_99247" data-name="Trazado 99247" d="M449.811,88.63a.907.907,0,1,1-.905-.867A.886.886,0,0,1,449.811,88.63Z" transform="translate(-415.388 -87.763)" fill="#2432ff"/>
      <ellipse id="Elipse_3967" data-name="Elipse 3967" cx="0.906" cy="0.866" rx="0.906" ry="0.866" transform="translate(40.764 0)" fill="#2432ff"/>
      <path id="Trazado_99248" data-name="Trazado 99248" d="M466.7,88.63a.907.907,0,1,1-.906-.867A.887.887,0,0,1,466.7,88.63Z" transform="translate(-415.975 -87.763)" fill="#2432ff"/>
      <ellipse id="Elipse_3968" data-name="Elipse 3968" cx="0.906" cy="0.866" rx="0.906" ry="0.866" transform="translate(57.069 0)" fill="#2432ff"/>
      <ellipse id="Elipse_3969" data-name="Elipse 3969" cx="0.906" cy="0.866" rx="0.906" ry="0.866" transform="translate(65.222 0)" fill="#2432ff"/>
      <path id="Trazado_99249" data-name="Trazado 99249" d="M492.043,88.63a.907.907,0,1,1-.906-.867A.887.887,0,0,1,492.043,88.63Z" transform="translate(-416.856 -87.763)" fill="#2432ff"/>
      <path id="Trazado_99250" data-name="Trazado 99250" d="M500.489,88.63a.907.907,0,1,1-.906-.867A.887.887,0,0,1,500.489,88.63Z" transform="translate(-417.15 -87.763)" fill="#2432ff"/>
    </g>
    <g id="Grupo_53312" data-name="Grupo 53312" transform="translate(0 41.582)">
      <ellipse id="Elipse_3970" data-name="Elipse 3970" cx="0.906" cy="0.866" rx="0.906" ry="0.866" fill="#2432ff"/>
      <path id="Trazado_99251" data-name="Trazado 99251" d="M424.472,96.137a.907.907,0,1,1-.905-.866A.886.886,0,0,1,424.472,96.137Z" transform="translate(-414.508 -95.271)" fill="#2432ff"/>
      <ellipse id="Elipse_3971" data-name="Elipse 3971" cx="0.906" cy="0.866" rx="0.906" ry="0.866" transform="translate(16.305)" fill="#2432ff"/>
      <path id="Trazado_99252" data-name="Trazado 99252" d="M441.365,96.137a.907.907,0,1,1-.906-.866A.887.887,0,0,1,441.365,96.137Z" transform="translate(-415.095 -95.271)" fill="#2432ff"/>
      <path id="Trazado_99253" data-name="Trazado 99253" d="M449.811,96.137a.907.907,0,1,1-.905-.866A.887.887,0,0,1,449.811,96.137Z" transform="translate(-415.388 -95.271)" fill="#2432ff"/>
      <ellipse id="Elipse_3972" data-name="Elipse 3972" cx="0.906" cy="0.866" rx="0.906" ry="0.866" transform="translate(40.764)" fill="#2432ff"/>
      <path id="Trazado_99254" data-name="Trazado 99254" d="M466.7,96.137a.907.907,0,1,1-.906-.866A.887.887,0,0,1,466.7,96.137Z" transform="translate(-415.975 -95.271)" fill="#2432ff"/>
      <ellipse id="Elipse_3973" data-name="Elipse 3973" cx="0.906" cy="0.866" rx="0.906" ry="0.866" transform="translate(57.069)" fill="#2432ff"/>
      <ellipse id="Elipse_3974" data-name="Elipse 3974" cx="0.906" cy="0.866" rx="0.906" ry="0.866" transform="translate(65.222)" fill="#2432ff"/>
      <path id="Trazado_99255" data-name="Trazado 99255" d="M492.043,96.137a.907.907,0,1,1-.906-.866A.887.887,0,0,1,492.043,96.137Z" transform="translate(-416.856 -95.271)" fill="#2432ff"/>
      <path id="Trazado_99256" data-name="Trazado 99256" d="M500.489,96.137a.907.907,0,1,1-.906-.866A.887.887,0,0,1,500.489,96.137Z" transform="translate(-417.15 -95.271)" fill="#2432ff"/>
    </g>
    <g id="Grupo_53313" data-name="Grupo 53313" transform="translate(0 48.512)">
      <path id="Trazado_99257" data-name="Trazado 99257" d="M416.026,103.645a.907.907,0,1,1-.906-.866A.887.887,0,0,1,416.026,103.645Z" transform="translate(-414.214 -102.779)" fill="#2432ff"/>
      <path id="Trazado_99258" data-name="Trazado 99258" d="M424.472,103.645a.907.907,0,1,1-.905-.866A.886.886,0,0,1,424.472,103.645Z" transform="translate(-414.508 -102.779)" fill="#2432ff"/>
      <path id="Trazado_99259" data-name="Trazado 99259" d="M432.918,103.645a.907.907,0,1,1-.905-.866A.886.886,0,0,1,432.918,103.645Z" transform="translate(-414.801 -102.779)" fill="#2432ff"/>
      <path id="Trazado_99260" data-name="Trazado 99260" d="M441.365,103.645a.907.907,0,1,1-.906-.866A.887.887,0,0,1,441.365,103.645Z" transform="translate(-415.095 -102.779)" fill="#2432ff"/>
      <path id="Trazado_99261" data-name="Trazado 99261" d="M449.811,103.645a.907.907,0,1,1-.905-.866A.887.887,0,0,1,449.811,103.645Z" transform="translate(-415.388 -102.779)" fill="#2432ff"/>
      <path id="Trazado_99262" data-name="Trazado 99262" d="M458.257,103.645a.907.907,0,1,1-.905-.866A.886.886,0,0,1,458.257,103.645Z" transform="translate(-415.682 -102.779)" fill="#2432ff"/>
      <path id="Trazado_99263" data-name="Trazado 99263" d="M466.7,103.645a.907.907,0,1,1-.906-.866A.887.887,0,0,1,466.7,103.645Z" transform="translate(-415.976 -102.779)" fill="#2432ff"/>
      <path id="Trazado_99264" data-name="Trazado 99264" d="M475.15,103.645a.907.907,0,1,1-.905-.866A.887.887,0,0,1,475.15,103.645Z" transform="translate(-416.269 -102.779)" fill="#2432ff"/>
      <path id="Trazado_99265" data-name="Trazado 99265" d="M483.6,103.645a.907.907,0,1,1-.906-.866A.887.887,0,0,1,483.6,103.645Z" transform="translate(-416.563 -102.779)" fill="#2432ff"/>
      <path id="Trazado_99266" data-name="Trazado 99266" d="M492.043,103.645a.907.907,0,1,1-.906-.866A.887.887,0,0,1,492.043,103.645Z" transform="translate(-416.856 -102.779)" fill="#2432ff"/>
      <path id="Trazado_99267" data-name="Trazado 99267" d="M500.489,103.645a.907.907,0,1,1-.906-.866A.887.887,0,0,1,500.489,103.645Z" transform="translate(-417.15 -102.779)" fill="#2432ff"/>
    </g>
    <g id="Grupo_53314" data-name="Grupo 53314" transform="translate(0 55.443)">
      <ellipse id="Elipse_3975" data-name="Elipse 3975" cx="0.906" cy="0.866" rx="0.906" ry="0.866" fill="#2432ff"/>
      <path id="Trazado_99268" data-name="Trazado 99268" d="M424.472,111.153a.907.907,0,1,1-.905-.866A.887.887,0,0,1,424.472,111.153Z" transform="translate(-414.508 -110.287)" fill="#2432ff"/>
      <ellipse id="Elipse_3976" data-name="Elipse 3976" cx="0.906" cy="0.866" rx="0.906" ry="0.866" transform="translate(16.305)" fill="#2432ff"/>
      <path id="Trazado_99269" data-name="Trazado 99269" d="M441.365,111.153a.907.907,0,1,1-.906-.866A.887.887,0,0,1,441.365,111.153Z" transform="translate(-415.095 -110.287)" fill="#2432ff"/>
      <path id="Trazado_99270" data-name="Trazado 99270" d="M449.811,111.153a.907.907,0,1,1-.905-.866A.887.887,0,0,1,449.811,111.153Z" transform="translate(-415.388 -110.287)" fill="#2432ff"/>
      <ellipse id="Elipse_3977" data-name="Elipse 3977" cx="0.906" cy="0.866" rx="0.906" ry="0.866" transform="translate(40.764)" fill="#2432ff"/>
      <path id="Trazado_99271" data-name="Trazado 99271" d="M466.7,111.153a.907.907,0,1,1-.906-.866A.888.888,0,0,1,466.7,111.153Z" transform="translate(-415.975 -110.287)" fill="#2432ff"/>
      <ellipse id="Elipse_3978" data-name="Elipse 3978" cx="0.906" cy="0.866" rx="0.906" ry="0.866" transform="translate(57.069)" fill="#2432ff"/>
      <ellipse id="Elipse_3979" data-name="Elipse 3979" cx="0.906" cy="0.866" rx="0.906" ry="0.866" transform="translate(65.222)" fill="#2432ff"/>
      <path id="Trazado_99272" data-name="Trazado 99272" d="M492.043,111.153a.907.907,0,1,1-.906-.866A.888.888,0,0,1,492.043,111.153Z" transform="translate(-416.856 -110.287)" fill="#2432ff"/>
      <path id="Trazado_99273" data-name="Trazado 99273" d="M500.489,111.153a.907.907,0,1,1-.906-.866A.887.887,0,0,1,500.489,111.153Z" transform="translate(-417.15 -110.287)" fill="#2432ff"/>
    </g>
    <g id="Grupo_53315" data-name="Grupo 53315" transform="translate(0 62.372)">
      <path id="Trazado_99274" data-name="Trazado 99274" d="M416.026,118.661a.907.907,0,1,1-.906-.867A.887.887,0,0,1,416.026,118.661Z" transform="translate(-414.214 -117.794)" fill="#2432ff"/>
      <path id="Trazado_99275" data-name="Trazado 99275" d="M424.472,118.661a.907.907,0,1,1-.905-.867A.887.887,0,0,1,424.472,118.661Z" transform="translate(-414.508 -117.794)" fill="#2432ff"/>
      <path id="Trazado_99276" data-name="Trazado 99276" d="M432.918,118.661a.907.907,0,1,1-.905-.867A.887.887,0,0,1,432.918,118.661Z" transform="translate(-414.801 -117.794)" fill="#2432ff"/>
      <path id="Trazado_99277" data-name="Trazado 99277" d="M441.365,118.661a.907.907,0,1,1-.906-.867A.887.887,0,0,1,441.365,118.661Z" transform="translate(-415.095 -117.794)" fill="#2432ff"/>
      <path id="Trazado_99278" data-name="Trazado 99278" d="M449.811,118.661a.907.907,0,1,1-.905-.867A.887.887,0,0,1,449.811,118.661Z" transform="translate(-415.388 -117.794)" fill="#2432ff"/>
      <path id="Trazado_99279" data-name="Trazado 99279" d="M458.257,118.661a.907.907,0,1,1-.905-.867A.887.887,0,0,1,458.257,118.661Z" transform="translate(-415.682 -117.794)" fill="#2432ff"/>
      <path id="Trazado_99280" data-name="Trazado 99280" d="M466.7,118.661a.907.907,0,1,1-.906-.867A.888.888,0,0,1,466.7,118.661Z" transform="translate(-415.976 -117.794)" fill="#2432ff"/>
      <path id="Trazado_99281" data-name="Trazado 99281" d="M475.15,118.661a.907.907,0,1,1-.905-.867A.887.887,0,0,1,475.15,118.661Z" transform="translate(-416.269 -117.794)" fill="#2432ff"/>
      <path id="Trazado_99282" data-name="Trazado 99282" d="M483.6,118.661a.907.907,0,1,1-.906-.867A.887.887,0,0,1,483.6,118.661Z" transform="translate(-416.563 -117.794)" fill="#2432ff"/>
      <path id="Trazado_99283" data-name="Trazado 99283" d="M492.043,118.661a.907.907,0,1,1-.906-.867A.888.888,0,0,1,492.043,118.661Z" transform="translate(-416.856 -117.794)" fill="#2432ff"/>
      <path id="Trazado_99284" data-name="Trazado 99284" d="M500.489,118.661a.907.907,0,1,1-.906-.867A.887.887,0,0,1,500.489,118.661Z" transform="translate(-417.15 -117.794)" fill="#2432ff"/>
    </g>
    <g id="Grupo_53316" data-name="Grupo 53316" transform="translate(0 69.303)">
      <ellipse id="Elipse_3980" data-name="Elipse 3980" cx="0.906" cy="0.866" rx="0.906" ry="0.866" transform="translate(0 0)" fill="#2432ff"/>
      <path id="Trazado_99285" data-name="Trazado 99285" d="M424.472,126.169a.907.907,0,1,1-.905-.867A.886.886,0,0,1,424.472,126.169Z" transform="translate(-414.508 -125.302)" fill="#2432ff"/>
      <ellipse id="Elipse_3981" data-name="Elipse 3981" cx="0.906" cy="0.866" rx="0.906" ry="0.866" transform="translate(16.305 0)" fill="#2432ff"/>
      <path id="Trazado_99286" data-name="Trazado 99286" d="M441.365,126.169a.907.907,0,1,1-.906-.867A.887.887,0,0,1,441.365,126.169Z" transform="translate(-415.095 -125.302)" fill="#2432ff"/>
      <path id="Trazado_99287" data-name="Trazado 99287" d="M449.811,126.169a.907.907,0,1,1-.905-.867A.886.886,0,0,1,449.811,126.169Z" transform="translate(-415.388 -125.302)" fill="#2432ff"/>
      <ellipse id="Elipse_3982" data-name="Elipse 3982" cx="0.906" cy="0.866" rx="0.906" ry="0.866" transform="translate(40.764 0)" fill="#2432ff"/>
      <path id="Trazado_99288" data-name="Trazado 99288" d="M466.7,126.169a.907.907,0,1,1-.906-.867A.887.887,0,0,1,466.7,126.169Z" transform="translate(-415.975 -125.302)" fill="#2432ff"/>
      <ellipse id="Elipse_3983" data-name="Elipse 3983" cx="0.906" cy="0.866" rx="0.906" ry="0.866" transform="translate(57.069 0)" fill="#2432ff"/>
      <ellipse id="Elipse_3984" data-name="Elipse 3984" cx="0.906" cy="0.866" rx="0.906" ry="0.866" transform="translate(65.222 0)" fill="#2432ff"/>
      <path id="Trazado_99289" data-name="Trazado 99289" d="M492.043,126.169a.907.907,0,1,1-.906-.867A.887.887,0,0,1,492.043,126.169Z" transform="translate(-416.856 -125.302)" fill="#2432ff"/>
      <path id="Trazado_99290" data-name="Trazado 99290" d="M500.489,126.169a.907.907,0,1,1-.906-.867A.887.887,0,0,1,500.489,126.169Z" transform="translate(-417.15 -125.302)" fill="#2432ff"/>
    </g>
    <g id="Grupo_53317" data-name="Grupo 53317" transform="translate(0 76.234)">
      <ellipse id="Elipse_3985" data-name="Elipse 3985" cx="0.906" cy="0.866" rx="0.906" ry="0.866" transform="translate(0 0)" fill="#2432ff"/>
      <path id="Trazado_99291" data-name="Trazado 99291" d="M424.472,133.677a.907.907,0,1,1-.905-.867A.886.886,0,0,1,424.472,133.677Z" transform="translate(-414.508 -132.81)" fill="#2432ff"/>
      <ellipse id="Elipse_3986" data-name="Elipse 3986" cx="0.906" cy="0.866" rx="0.906" ry="0.866" transform="translate(16.305 0)" fill="#2432ff"/>
      <path id="Trazado_99292" data-name="Trazado 99292" d="M441.365,133.677a.907.907,0,1,1-.906-.867A.887.887,0,0,1,441.365,133.677Z" transform="translate(-415.095 -132.81)" fill="#2432ff"/>
      <path id="Trazado_99293" data-name="Trazado 99293" d="M449.811,133.677a.907.907,0,1,1-.905-.867A.886.886,0,0,1,449.811,133.677Z" transform="translate(-415.388 -132.81)" fill="#2432ff"/>
      <ellipse id="Elipse_3987" data-name="Elipse 3987" cx="0.906" cy="0.866" rx="0.906" ry="0.866" transform="translate(40.764 0)" fill="#2432ff"/>
      <path id="Trazado_99294" data-name="Trazado 99294" d="M466.7,133.677a.907.907,0,1,1-.906-.867A.887.887,0,0,1,466.7,133.677Z" transform="translate(-415.975 -132.81)" fill="#2432ff"/>
      <ellipse id="Elipse_3988" data-name="Elipse 3988" cx="0.906" cy="0.866" rx="0.906" ry="0.866" transform="translate(57.069 0)" fill="#2432ff"/>
      <ellipse id="Elipse_3989" data-name="Elipse 3989" cx="0.906" cy="0.866" rx="0.906" ry="0.866" transform="translate(65.222 0)" fill="#2432ff"/>
      <path id="Trazado_99295" data-name="Trazado 99295" d="M492.043,133.677a.907.907,0,1,1-.906-.867A.887.887,0,0,1,492.043,133.677Z" transform="translate(-416.856 -132.81)" fill="#2432ff"/>
      <path id="Trazado_99296" data-name="Trazado 99296" d="M500.489,133.677a.907.907,0,1,1-.906-.867A.887.887,0,0,1,500.489,133.677Z" transform="translate(-417.15 -132.81)" fill="#2432ff"/>
    </g>
  </g>
  <line id="Línea_138" data-name="Línea 138" y2="177.229" transform="translate(13.097 70.359)" fill="none" stroke="#fff" stroke-width="1" stroke-dasharray="8"/>
</svg>
