<svg xmlns="http://www.w3.org/2000/svg" width="238.699" height="146.699" viewBox="0 0 238.699 146.699">
  <g id="Grupo_127239" data-name="Grupo 127239" transform="translate(6532.699 9752.174)">
    <g id="Grupo_111246" data-name="Grupo 111246" transform="translate(-7344.84 -10175.812)">
      <g id="Grupo_111245" data-name="Grupo 111245">
        <g id="Grupo_111212" data-name="Grupo 111212">
          <path id="Trazado_170060" data-name="Trazado 170060" d="M927.564,441.109a37.6,37.6,0,0,0-37.611,37.59v.019c0,20.766,37.611,66.93,37.611,66.93s17.082-20.971,28.191-40.995c5.407-9.684,9.418-19.162,9.418-25.935A37.616,37.616,0,0,0,927.564,441.109Zm0,54.78a17.7,17.7,0,1,1,3.832-.446A16.275,16.275,0,0,1,927.564,495.889Z" fill="#b8c1c9"/>
        </g>
        <g id="Grupo_111228" data-name="Grupo 111228">
          <path id="Trazado_170061" data-name="Trazado 170061" d="M916.323,525.454H875.959v34.178h45.225Z" fill="#30610c"/>
          <path id="Trazado_170062" data-name="Trazado 170062" d="M914.557,526.624H868.809v33.008H919.3Z" fill="#132d1a"/>
          <g id="Grupo_111216" data-name="Grupo 111216">
            <g id="Grupo_111215" data-name="Grupo 111215">
              <g id="Grupo_111214" data-name="Grupo 111214">
                <g id="Grupo_111213" data-name="Grupo 111213">
                  <rect id="Rectángulo_36728" data-name="Rectángulo 36728" width="6.221" height="6.307" transform="translate(894.826 553.325)" fill="#b8c1c9"/>
                  <rect id="Rectángulo_36729" data-name="Rectángulo 36729" width="3.765" height="6.307" transform="translate(900.788 553.325)" fill="#698574"/>
                </g>
              </g>
            </g>
          </g>
          <g id="Grupo_111220" data-name="Grupo 111220">
            <g id="Grupo_111219" data-name="Grupo 111219">
              <g id="Grupo_111218" data-name="Grupo 111218">
                <g id="Grupo_111217" data-name="Grupo 111217">
                  <rect id="Rectángulo_36730" data-name="Rectángulo 36730" width="10.316" height="8.011" transform="translate(894.495 545.4)" fill="#b8c1c9"/>
                  <rect id="Rectángulo_36731" data-name="Rectángulo 36731" width="2.848" height="6.221" transform="translate(904.552 547.19)" fill="#698574"/>
                </g>
              </g>
            </g>
          </g>
          <rect id="Rectángulo_36732" data-name="Rectángulo 36732" width="14.458" height="6.413" rx="3.206" transform="translate(837.21 555.605)" fill="#b8c1c9"/>
          <path id="Trazado_170063" data-name="Trazado 170063" d="M888.316,564.136a5.8,5.8,0,1,1,5.8,5.8,5.8,5.8,0,0,1-5.8-5.8Z" fill="#132d1a"/>
          <path id="Trazado_170064" data-name="Trazado 170064" d="M907.8,564.136a5.8,5.8,0,1,1,5.8,5.8,5.8,5.8,0,0,1-5.8-5.8Z" fill="#132d1a"/>
          <path id="Trazado_170065" data-name="Trazado 170065" d="M839.184,564.136a5.8,5.8,0,1,1,5.8,5.8,5.8,5.8,0,0,1-5.8-5.8Z" fill="#132d1a"/>
          <path id="Trazado_170066" data-name="Trazado 170066" d="M842.055,564.136a2.926,2.926,0,1,1,2.926,2.926,2.925,2.925,0,0,1-2.926-2.926Z" fill="#d3b5a0"/>
          <path id="Trazado_170067" data-name="Trazado 170067" d="M842.055,564.136a2.926,2.926,0,1,1,2.926,2.926,2.925,2.925,0,0,1-2.926-2.926Z" fill="#698574"/>
          <path id="Trazado_170068" data-name="Trazado 170068" d="M844.073,564.136a.907.907,0,1,1,.907.907h0A.907.907,0,0,1,844.073,564.136Z" fill="#b8c1c9"/>
          <path id="Trazado_170069" data-name="Trazado 170069" d="M843.086,565.69a.351.351,0,1,1,.352.351.351.351,0,0,1-.352-.351Z" fill="#b8c1c9"/>
          <path id="Trazado_170070" data-name="Trazado 170070" d="M842.678,563.083a.351.351,0,1,1,.351.351.351.351,0,0,1-.351-.351Z" fill="#b8c1c9"/>
          <path id="Trazado_170071" data-name="Trazado 170071" d="M846.538,563.083a.351.351,0,1,1,.351.351.351.351,0,0,1-.351-.351Z" fill="#b8c1c9"/>
          <path id="Trazado_170072" data-name="Trazado 170072" d="M846.245,565.69a.351.351,0,1,1,.352.351.351.351,0,0,1-.352-.351Z" fill="#b8c1c9"/>
          <path id="Trazado_170073" data-name="Trazado 170073" d="M844.629,561.9a.351.351,0,1,1,.352.351.351.351,0,0,1-.352-.351Z" fill="#b8c1c9"/>
          <path id="Trazado_170074" data-name="Trazado 170074" d="M891.077,564.136A2.925,2.925,0,1,1,894,567.062a2.925,2.925,0,0,1-2.926-2.926Z" fill="#d3b5a0"/>
          <path id="Trazado_170075" data-name="Trazado 170075" d="M891.077,564.136A2.925,2.925,0,1,1,894,567.062a2.925,2.925,0,0,1-2.926-2.926Z" fill="#698574"/>
          <path id="Trazado_170076" data-name="Trazado 170076" d="M893.095,564.136a.907.907,0,1,1,.907.907h0A.907.907,0,0,1,893.095,564.136Z" fill="#b8c1c9"/>
          <path id="Trazado_170077" data-name="Trazado 170077" d="M892.108,565.69a.351.351,0,1,1,.352.351.351.351,0,0,1-.352-.351Z" fill="#b8c1c9"/>
          <path id="Trazado_170078" data-name="Trazado 170078" d="M891.976,563.083a.351.351,0,1,1,.352.351.351.351,0,0,1-.352-.351Z" fill="#b8c1c9"/>
          <path id="Trazado_170079" data-name="Trazado 170079" d="M895.267,565.69a.351.351,0,1,1,.351.351.351.351,0,0,1-.351-.351Z" fill="#b8c1c9"/>
          <path id="Trazado_170080" data-name="Trazado 170080" d="M890.964,561.9a.351.351,0,1,1,.352.351.351.351,0,0,1-.352-.351Z" fill="#b8c1c9"/>
          <path id="Trazado_170081" data-name="Trazado 170081" d="M855.651,564.136a5.8,5.8,0,1,1,5.8,5.8,5.8,5.8,0,0,1-5.8-5.8Z" fill="#132d1a"/>
          <path id="Trazado_170082" data-name="Trazado 170082" d="M844.916,532.842s3.145-4.744,6.78-4.783l-.324,5.132Z" fill="#698574"/>
          <path id="Trazado_170083" data-name="Trazado 170083" d="M863.442,554.513H838.273l2.095-17a5.512,5.512,0,0,1,5.471-4.839h17.6Z" fill="#b8c1c9"/>
          <path id="Trazado_170084" data-name="Trazado 170084" d="M848.81,544.122h-7.058l.935-6.713A2.8,2.8,0,0,1,845.458,535h3.571Z" fill="#698574"/>
          <path id="Trazado_170085" data-name="Trazado 170085" d="M848.289,543.615h-4.648a1.161,1.161,0,0,1-1.16-1.16,1.122,1.122,0,0,1,.011-.153l.615-4.645a2.407,2.407,0,0,1,2.344-2.14h3.021Z" fill="#eaeaea"/>
          <path id="Trazado_170086" data-name="Trazado 170086" d="M897.677,559.632H849.264l2.16-34.178h43.392Z" fill="#30610c"/>
          <path id="Trazado_170087" data-name="Trazado 170087" d="M895.783,558.336h-44.74l2-31.586h40.1l2.143,25.6Z" fill="#54aa13"/>
          <path id="Trazado_170088" data-name="Trazado 170088" d="M853.629,554.513H838.272c-1.353.09-1.483.758-1.483.758l-1.314,6.352a.421.421,0,0,0,.444.4h3.861a.6.6,0,0,0,.524-.405,6.389,6.389,0,0,1,.993-1,6.238,6.238,0,0,1,3.682-1.089,7.166,7.166,0,0,1,4.756,1.583h3.894c.47,0,.855-.245.855-.546v-5.506C854.484,554.758,854.1,554.513,853.629,554.513Z" fill="#698574"/>
          <path id="Trazado_170089" data-name="Trazado 170089" d="M901.918,566.982h-4.867a4.5,4.5,0,0,0-.61-1.567c-1.472-2.359-4.912-3.079-6.873-3.3a13.736,13.736,0,0,0-1.434-.1H896.5a6.139,6.139,0,0,1,4.333,2.633A7.129,7.129,0,0,1,901.918,566.982Z" fill="#438815"/>
          <path id="Trazado_170090" data-name="Trazado 170090" d="M921.186,566.982h-4.867a4.538,4.538,0,0,0-.732-1.753c-2.223-3.207-8.185-3.211-8.185-3.211h8.367a6.11,6.11,0,0,1,3.9,2.071A7.244,7.244,0,0,1,921.186,566.982Z" fill="#438815"/>
          <rect id="Rectángulo_36733" data-name="Rectángulo 36733" width="72.678" height="3.315" rx="1.657" transform="translate(849.709 559.632)" fill="#438815"/>
          <path id="Rectángulo_36734" data-name="Rectángulo 36734" d="M856.456,560.465h7.116a3.67,3.67,0,0,1,3.671,3.671h0a3.671,3.671,0,0,1-3.671,3.671h-7.116a3.672,3.672,0,0,1-3.671-3.671h0A3.671,3.671,0,0,1,856.456,560.465Z" fill="#438815"/>
          <g id="Grupo_111222" data-name="Grupo 111222">
            <path id="Trazado_170091" data-name="Trazado 170091" d="M838.732,540.83s-.628,3.381-.6,3.933a.921.921,0,0,0,.948.82Z" fill="#54aa13"/>
            <path id="Rectángulo_36735" data-name="Rectángulo 36735" d="M839.875,540.548h0a1.171,1.171,0,0,1,1.171,1.171v2.693a1.171,1.171,0,0,1-1.171,1.171h0a1.171,1.171,0,0,1-1.171-1.171v-2.693A1.171,1.171,0,0,1,839.875,540.548Z" fill="#698574"/>
            <path id="Rectángulo_36736" data-name="Rectángulo 36736" d="M839.917,540.83h0a.952.952,0,0,1,.952.953v2.6a.953.953,0,0,1-.952.953h0a.953.953,0,0,1-.953-.953v-2.6A.953.953,0,0,1,839.917,540.83Z" fill="#eaeaea"/>
            <g id="Grupo_111221" data-name="Grupo 111221">
              <path id="Trazado_170092" data-name="Trazado 170092" d="M839.874,540.64a.086.086,0,0,1-.077-.092v-1.434a.9.9,0,0,1,.948-.791c.779.024,1.114,0,1.117,0a.083.083,0,0,1,.083.085h0a.088.088,0,0,1-.073.1c-.014,0-.346.024-1.131,0a.719.719,0,0,0-.789.625v1.415A.086.086,0,0,1,839.874,540.64Z" fill="#54aa13"/>
            </g>
          </g>
          <path id="Trazado_170093" data-name="Trazado 170093" d="M848.157,546.306h-1.425a.364.364,0,0,1-.362-.363h0a.363.363,0,0,1,.362-.362h1.425a.362.362,0,0,1,.362.362h0A.363.363,0,0,1,848.157,546.306Z" fill="#698574"/>
          <g id="Grupo_111226" data-name="Grupo 111226">
            <g id="Grupo_111225" data-name="Grupo 111225">
              <g id="Grupo_111224" data-name="Grupo 111224">
                <g id="Grupo_111223" data-name="Grupo 111223">
                  <rect id="Rectángulo_36737" data-name="Rectángulo 36737" width="6.221" height="6.221" transform="translate(905.152 553.411)" fill="#b8c1c9"/>
                  <rect id="Rectángulo_36738" data-name="Rectángulo 36738" width="2.848" height="6.221" transform="translate(911.114 553.411)" fill="#698574"/>
                </g>
              </g>
            </g>
          </g>
        </g>
        <path id="Trazado_170102" data-name="Trazado 170102" d="M1038.708,492.755a9.205,9.205,0,0,0-9.2,9.2h0c0,5.084,9.2,16.387,9.2,16.387s9.206-11.3,9.206-16.387A9.206,9.206,0,0,0,1038.708,492.755Zm0,13.415a4.3,4.3,0,1,1,4.3-4.3,4.3,4.3,0,0,1-4.3,4.3Z" fill="#698574"/>
        <path id="Trazado_170103" data-name="Trazado 170103" d="M826.3,514.281a7.762,7.762,0,0,0-7.762,7.763c0,4.287,7.762,13.819,7.762,13.819s7.763-9.532,7.763-13.819a7.762,7.762,0,0,0-7.763-7.763Zm0,11.312a3.628,3.628,0,1,1,3.629-3.628,3.629,3.629,0,0,1-3.629,3.628Z" fill="#54aa13"/>
        <g id="Grupo_111233" data-name="Grupo 111233">
          <g id="Grupo_111232" data-name="Grupo 111232">
            <g id="Grupo_111231" data-name="Grupo 111231">
              <g id="Grupo_111229" data-name="Grupo 111229">
                <path id="Trazado_170104" data-name="Trazado 170104" d="M889.7,569.754h-9.177a1.571,1.571,0,0,1,1.42-1.06c1.416-.23,3.87-1.052,4.417-2.863.017-.058.033-.118.046-.179.435-1.936,3.6.593,3.6.593s.01.078.023.21C890.094,567.162,890.28,569.428,889.7,569.754Z" fill="#a07f75"/>
                <path id="Trazado_170105" data-name="Trazado 170105" d="M882.314,517.98s.48,5.989,1.044,13.189c.767,9.779,1.689,21.792,1.78,24.068.158,3.952.791,10.273.791,10.273a4.972,4.972,0,0,0,4.5.869,103.424,103.424,0,0,0,3.441-18.571c.012-.156.024-.314.036-.472.712-9.719,1.817-30.185,1.817-30.185Z" fill="#36543b"/>
                <path id="Trazado_170106" data-name="Trazado 170106" d="M882.314,517.98s.48,5.989,1.044,13.189l10.515,16.639c.012-.156.024-.314.036-.472.712-9.719,1.817-30.185,1.817-30.185Z" fill="#132d1a"/>
                <path id="Trazado_170107" data-name="Trazado 170107" d="M884.506,518.689s8.653,21.69,14.342,31.884,7.468,13.038,7.468,13.038,3.259-1.3,3.556-2.193c0,0-2.176-19.679-5.986-24.476-2.153-2.71-4.682-10.845-4.8-13.69s-.77-8.475-.77-8.475Z" fill="#36543b"/>
              </g>
              <path id="Trazado_170108" data-name="Trazado 170108" d="M895.891,485.263s-5.854,2.869-9.23,1.8a7.99,7.99,0,0,1,2.285-1.856c-.117-.688-.208-1.285-.26-1.792a16.725,16.725,0,0,1-.143-1.83l2.259-1.8,2.142-1.727A8.814,8.814,0,0,0,895.891,485.263Z" fill="#ffdbd1"/>
              <path id="Trazado_170109" data-name="Trazado 170109" d="M898.976,515.89c.013.363-.753.779-1.09.935a23.629,23.629,0,0,1-7.49,2.155c-3.128.325-6.828-.389-8.1-.363a.521.521,0,0,1-.351-.143c-.091-.065-.156-3.894-.091-8.71,0-.2,0-.39.014-.584v-.065c.025-1.882.09-3.855.181-5.828a65.545,65.545,0,0,1,1.091-10.826,11.748,11.748,0,0,1,3.661-5.842l1.168-1.039a5.534,5.534,0,0,0,3.635-.441c1.35-.662,2.827-1.4,3.061-1.223,1.765,1.311,2.936,4.287,3.572,8.051a42.44,42.44,0,0,1,.532,7.139c0,.935-.026,1.9-.078,2.843a90.823,90.823,0,0,0,.182,12.189C898.919,514.891,898.962,515.475,898.976,515.89Z" fill="#c3e1ac"/>
              <path id="Trazado_170110" data-name="Trazado 170110" d="M898.872,514.137c-28.364-.039-5.23-21.146-5.23-21.146l4.594-1.026a42.238,42.238,0,0,1,.533,7.139c0,.935-.025,1.9-.077,2.843A90.99,90.99,0,0,0,898.872,514.137Z" fill="#c3e1ac"/>
              <g id="Grupo_111230" data-name="Grupo 111230">
                <rect id="Rectángulo_36739" data-name="Rectángulo 36739" width="17.636" height="17.636" transform="translate(863.979 496.364)" fill="#b8c1c9"/>
                <rect id="Rectángulo_36740" data-name="Rectángulo 36740" width="8.074" height="17.636" transform="translate(880.88 496.364)" fill="#698574"/>
              </g>
              <path id="Trazado_170111" data-name="Trazado 170111" d="M878.965,505.447l-1.05-.337a2.213,2.213,0,0,0-3.219-1.343s-1.008.535-.564,1.168.365.3.97,1.21a1.979,1.979,0,0,0,2.333,1l.873.025Z" fill="#ffdbd1"/>
              <path id="Trazado_170112" data-name="Trazado 170112" d="M895.892,485.257a22.1,22.1,0,0,1-.419,22.02c-2.136,3.685-18.269.183-18.269.183s-.628-1.136,1.055-2.333c0,0,10.74-1.818,12.021-2.123,1.135-.271.378-10.709,1.676-13.738A7.634,7.634,0,0,1,895.892,485.257Z" fill="#c3e1ac"/>
              <path id="Trazado_170113" data-name="Trazado 170113" d="M892.982,479.915a7.791,7.791,0,0,1-4.3,3.5,16.725,16.725,0,0,1-.143-1.83l2.259-1.8Z" fill="#efc7bd"/>
              <path id="Trazado_170114" data-name="Trazado 170114" d="M887.513,481.511s5.585.928,6.109-2.559,1.6-5.715-1.945-6.456-4.438.487-4.9,1.608S886.074,481.18,887.513,481.511Z" fill="#ffdbd1"/>
              <path id="Trazado_170115" data-name="Trazado 170115" d="M893.587,479.193a5.781,5.781,0,0,0-5.2-5.421c-3.486-.513-3.2-3.038-2.8-3.5a39.233,39.233,0,0,1,7.212.72C896.894,472.024,894.19,478.493,893.587,479.193Z" fill="#132d1a"/>
            </g>
          </g>
          <path id="Trazado_170116" data-name="Trazado 170116" d="M909.872,562.151l-.271-.349-3.076,1.723c-.029.589-.044,1.268-.011,1.865a5.145,5.145,0,0,1-.074,1.208c-.064.3-.39,1.607-1.342,1.949-1.082.388-1.168,1.219.677,1.205h.962a2.564,2.564,0,0,0,2.449-1.9,4.394,4.394,0,0,1,.748-1.447,5.357,5.357,0,0,0,1.24-1.688C911.491,563.651,909.872,562.151,909.872,562.151Z" fill="#a07f75"/>
        </g>
        <g id="Grupo_111242" data-name="Grupo 111242">
          <g id="Grupo_111234" data-name="Grupo 111234">
            <path id="Trazado_170117" data-name="Trazado 170117" d="M944.6,539.992l.607-.494-8.13-10.625-2.934-.123Z" fill="#30610c"/>
          </g>
          <g id="Grupo_111235" data-name="Grupo 111235">
            <path id="Trazado_170118" data-name="Trazado 170118" d="M955.223,539.992l.5-.494L949,528.873l-2.428-.123Z" fill="#30610c"/>
          </g>
          <g id="Grupo_111239" data-name="Grupo 111239">
            <path id="Trazado_170119" data-name="Trazado 170119" d="M1004.864,512.3a3.566,3.566,0,1,0-3.564,3.651A3.609,3.609,0,0,0,1004.864,512.3Z" fill="#54aa13"/>
            <path id="Trazado_170120" data-name="Trazado 170120" d="M959.638,561.52h36.251a.72.72,0,0,0,.716-.722v-3.426a.72.72,0,0,0-.716-.722H963.867a.721.721,0,0,0-.716.722Z" fill="#c3e1ac"/>
            <path id="Trazado_170121" data-name="Trazado 170121" d="M959.318,558.836a10.833,10.833,0,1,0-10.833,10.833A10.833,10.833,0,0,0,959.318,558.836Z" fill="#132d1a"/>
            <path id="Trazado_170122" data-name="Trazado 170122" d="M954.007,558.838a5.523,5.523,0,1,0-5.523,5.523h0A5.523,5.523,0,0,0,954.007,558.838Z" fill="#698574"/>
            <g id="Grupo_111236" data-name="Grupo 111236">
              <path id="Trazado_170123" data-name="Trazado 170123" d="M1004.171,543.545a16.039,16.039,0,0,1,20.706,12.9,2.091,2.091,0,0,1-1.759,2.377,2.165,2.165,0,0,1-.311.023h-.071a1.332,1.332,0,0,1-1.322-1.211,12.457,12.457,0,0,0-24.856,1.211h-3.583A16.067,16.067,0,0,1,1004.171,543.545Z" fill="#30610c"/>
            </g>
            <g id="Grupo_111237" data-name="Grupo 111237">
              <path id="Trazado_170124" data-name="Trazado 170124" d="M987.547,556.651l5.428,2.186c3.759-7.31,7.6-10.9,10.882-12.666,5.906-3.184,10.019-.487,8.634-2.995L1002.358,521.8a9.305,9.305,0,0,0-8.416-3.834,3.026,3.026,0,0,0-2.723,3.3,3.058,3.058,0,0,0,.141.669,36.882,36.882,0,0,1,1.837,11.74A53.452,53.452,0,0,1,987.547,556.651Z" fill="#c3e1ac"/>
            </g>
            <path id="Trazado_170125" data-name="Trazado 170125" d="M993.082,520.436l4.089-1.562c.556,0,1.617.5,1.617-.054l-.606-9.985a1.014,1.014,0,0,0-1.011-1.011h-2.635c-.557,0-2.787,1.067-2.63,3.064l-.7,10.066C991.2,521.51,992.524,520.436,993.082,520.436Z" fill="#c3e1ac"/>
            <path id="Rectángulo_36741" data-name="Rectángulo 36741" d="M950.177,529.246H923.929A1.925,1.925,0,0,1,922,527.321h0a1.925,1.925,0,0,1,1.925-1.925h26.248a1.925,1.925,0,0,1,1.925,1.925h0A1.925,1.925,0,0,1,950.177,529.246Z" fill="#30610c"/>
            <circle id="Elipse_5086" data-name="Elipse 5086" cx="10.834" cy="10.834" r="10.834" transform="translate(998.181 548.003)" fill="#132d1a"/>
            <path id="Trazado_170126" data-name="Trazado 170126" d="M1003.493,558.837a5.5,5.5,0,0,0,.636,2.575c.028.051.054.1.083.148a5.522,5.522,0,1,0,6.925-7.821c-.02-.01-.042-.018-.063-.026a5.523,5.523,0,0,0-7.581,5.124Z" fill="#698574"/>
            <path id="Trazado_170127" data-name="Trazado 170127" d="M969.335,537.016s-2.8,11.092,6.638,21.32l-23.2-1.684,2.956-22.389Z" fill="#c3e1ac"/>
            <path id="Trazado_170128" data-name="Trazado 170128" d="M926.645,560.088a1.439,1.439,0,0,0,1.433,1.433h34.754a1.437,1.437,0,0,0,1.433-1.433l-.461-22.731-11.7-.717C936.512,536.64,926.645,544.5,926.645,560.088Z" fill="#c3e1ac"/>
            <path id="Trazado_170129" data-name="Trazado 170129" d="M997.733,512.094a5.6,5.6,0,0,0,5.594,5.606h.013V506.489A5.606,5.606,0,0,0,997.733,512.094Z" fill="#30610c"/>
            <g id="Grupo_111238" data-name="Grupo 111238">
              <path id="Trazado_170130" data-name="Trazado 170130" d="M988.88,512.851c.021,0,.254-.046.276-.05l6.167-1.711a.6.6,0,0,0,.378-.678c-.036-.326-.263-.552-.509-.5l-6.182,1.207c-.245.048-.439.42-.5.74C988.422,512.393,988.666,512.851,988.88,512.851Z" fill="#132d1a"/>
            </g>
            <path id="Trazado_170131" data-name="Trazado 170131" d="M1003.788,546.6c-.056.345-.109.679-.161,1l.048-.022a12.455,12.455,0,0,1,17.74,10.043,1.332,1.332,0,0,0,1.322,1.211h.071a2.092,2.092,0,0,0,2.093-2.089,2.175,2.175,0,0,0-.023-.311,16.082,16.082,0,0,0-12.323-13.248l-.065-.016-10.132-21.379a9.291,9.291,0,0,0-3.569-2.977,42.337,42.337,0,0,1,5.383,24.725q-.117,1.29-.314,2.626C1003.834,546.314,1003.808,546.459,1003.788,546.6Z" fill="#30610c"/>
            <rect id="Rectángulo_36742" data-name="Rectángulo 36742" width="24.34" height="5.508" rx="1.58" transform="translate(946.061 531.509)" fill="#a07f75"/>
            <path id="Trazado_170132" data-name="Trazado 170132" d="M929.4,561.521h33.436s2.04-12.38-5.485-16.56a11.237,11.237,0,0,0-6.569-1.111C942.96,544.616,933.116,551.24,929.4,561.521Z" fill="#30610c"/>
            <path id="Trazado_170133" data-name="Trazado 170133" d="M997.827,513.126a5.607,5.607,0,0,0,5.512,4.575v-3.128C1001.692,514.638,999.319,514.459,997.827,513.126Z" fill="#30610c"/>
            <path id="Trazado_170134" data-name="Trazado 170134" d="M1003.788,546.6c-.056.345-.109.679-.161,1l.048-.022c2-1.85,6.228-3.489,8.878-4.392l-.064-.016-10.133-21.379a9.276,9.276,0,0,0-3.569-2.977,42.337,42.337,0,0,1,5.383,24.725q-.115,1.29-.314,2.626C1003.834,546.314,1003.808,546.459,1003.788,546.6Z" fill="#30610c"/>
          </g>
          <g id="Grupo_111241" data-name="Grupo 111241">
            <path id="Trazado_170138" data-name="Trazado 170138" d="M967.4,498.19c-2.992,1.215-8.462-1.383-8.462-1.383a7.677,7.677,0,0,0,2.163-4.652c.018-.154.031-.31.041-.47l1.547-.55,2.65,1.8a20.487,20.487,0,0,1-.031,2.441c-.016.271-.037.562-.065.873A5.363,5.363,0,0,1,967.4,498.19Z" fill="#ffdbd1"/>
            <path id="Trazado_170139" data-name="Trazado 170139" d="M965.341,492.94a20.49,20.49,0,0,1-.031,2.441,6.338,6.338,0,0,1-4.207-3.226c.018-.154.031-.31.04-.47l1.547-.55Z" fill="#efc7bd"/>
            <path id="Trazado_170140" data-name="Trazado 170140" d="M965.831,494.233s-5.154-.168-5-3.375-.408-5.391,2.889-5.419,3.876,1.226,4.085,2.31S967.175,494.194,965.831,494.233Z" fill="#ffdbd1"/>
            <path id="Trazado_170141" data-name="Trazado 170141" d="M961.1,492.159a2.407,2.407,0,0,1,.379-1.771s-.375-1.046.028-1.281.612.659.789.491a4.4,4.4,0,0,0,1.2-2c.24-1.044,3.813-.3,4.235-.169s-2.37-5.086-5.386-3.851-3.242,2.782-2.895,4.037S959.765,491.9,961.1,492.159Z" fill="#132d1a"/>
            <path id="Trazado_170142" data-name="Trazado 170142" d="M956.175,522.773s.357,6.3,1.79,8.089,28.9,1.1,28.9,1.1.12-4.037-.956-5.074-6.092-4.019-22.108-5.709Z" fill="#132d1a"/>
            <path id="Trazado_170143" data-name="Trazado 170143" d="M955.807,509.6c.448,5.407-.142,13.632.367,15.057.438,1.229,5.435.5,7.428.088.738-.153,1.633-.369,2.556-.626,2.576-.716,5.382-1.738,5.683-2.5a.387.387,0,0,0,.028-.087.613.613,0,0,0,0-.318c-.074-.287-.3-.59-.44-1.117a3.366,3.366,0,0,1-.093-.647c-.045-.979-.043-2.118-.077-3.343,0-.113-.008-.226-.01-.339a3.222,3.222,0,0,0-.023-.471v-.143c-.043-1.511-.132-3.1-.233-4.674-.032-.491-.067-.98-.1-1.462-.011-.171-.026-.34-.039-.509-.026-.315-.053-.628-.082-.936a35.37,35.37,0,0,0-.927-5.939,9.535,9.535,0,0,0-3.412-4.728l-.951-.732a6.081,6.081,0,0,1-3.45-.412c-1.227-.524-1.651-.9-1.865-.757C957.315,496.967,955.277,502.985,955.807,509.6Z" fill="#30610c"/>
            <path id="Trazado_170144" data-name="Trazado 170144" d="M976.985,552.669s.243,3.919,1,3.975c.1.007,3.845.007,3.845.007l4.78-.028a1.549,1.549,0,0,0-1.428-1.395c-1.4-.244-3.736-1.225-4.582-3.072C979.71,550.213,976.985,552.669,976.985,552.669Z" fill="#a07f75"/>
            <path id="Trazado_170145" data-name="Trazado 170145" d="M975.985,552.925a5.267,5.267,0,0,0,2.807.8,7.546,7.546,0,0,0,1.319-.052,6.221,6.221,0,0,0,1.687-.431l5.071-21.285s-5.493-4.8-8.36-1.815a5.04,5.04,0,0,0-.966,1.944C975.725,537.955,975.985,552.925,975.985,552.925Z" fill="#132d1a"/>
            <path id="Trazado_170146" data-name="Trazado 170146" d="M963.8,505.486s3.559,13.023,7.619,14.61a3.366,3.366,0,0,1-.093-.647c-.047-.979-.044-2.118-.078-3.343,0-.113-.007-.226-.01-.339a3.223,3.223,0,0,0-.023-.471v-.143c-.042-1.511-.132-3.1-.233-4.674-.032-.491-.066-.98-.1-1.462C969.091,506.857,966.665,505.3,963.8,505.486Z" fill="#438815"/>
            <path id="Trazado_170147" data-name="Trazado 170147" d="M985.14,510.5a10.379,10.379,0,0,0,1.947,0c.4-.12,2.27-1.234,2.947-1s2.389,1.991,1.951,2.787a2.252,2.252,0,0,1-1.533-.737c-.737-.756-1.533-.239-1.452-.139s1.233.558,1.034.756a3.393,3.393,0,0,1-2.071-.079,12.3,12.3,0,0,0-3.025.059Z" fill="#ffdbd1"/>
            <path id="Trazado_170148" data-name="Trazado 170148" d="M963.808,498.618s9.633,8.211,12.168,9,11.494,2.533,11.494,2.533.247,2.12-.593,2.917c0,0-11.51-.667-12.943-.97s-12.113-5.838-12.985-6.256S960.209,497.941,963.808,498.618Z" fill="#30610c"/>
          </g>
        </g>
        <g id="Grupo_111243" data-name="Grupo 111243">
          <path id="Trazado_170151" data-name="Trazado 170151" d="M934.8,435.074a.407.407,0,0,1-.21-.757c.008,0,.218-.13.617-.353a.408.408,0,1,1,.4.711c-.386.216-.592.339-.594.34A.41.41,0,0,1,934.8,435.074Z" fill="#36543b"/>
          <path id="Trazado_170152" data-name="Trazado 170152" d="M1039.622,486.048h0a.407.407,0,0,1-.4-.409h0v-.261c0-.372,0-.754-.013-1.137a.408.408,0,1,1,.815-.018c.009.389.013.777.014,1.155v.266a.407.407,0,0,1-.409.4Zm-.063-2.82a.407.407,0,0,1-.406-.388c-.022-.462-.051-.932-.084-1.4a.408.408,0,1,1,.813-.059c.034.473.063.951.085,1.418a.407.407,0,0,1-.386.427h0Zm-.2-2.814a.408.408,0,0,1-.406-.369c-.044-.462-.094-.93-.148-1.394a.408.408,0,1,1,.81-.1c.054.469.1.944.15,1.411a.408.408,0,0,1-.367.444Zm-.331-2.8a.409.409,0,0,1-.4-.35c-.064-.461-.135-.927-.209-1.386a.408.408,0,0,1,.789-.2.453.453,0,0,1,.012.074c.074.464.146.936.211,1.4a.407.407,0,0,1-.346.46h0a.381.381,0,0,1-.059,0Zm-.452-2.782a.406.406,0,0,1-.4-.334c-.084-.456-.176-.918-.269-1.375a.408.408,0,1,1,.8-.165h0c.1.462.187.93.273,1.392a.412.412,0,0,1-.335.475.365.365,0,0,1-.065.006Zm-.572-2.76a.407.407,0,0,1-.4-.316c-.1-.454-.216-.912-.33-1.362a.408.408,0,0,1,.791-.2c.115.456.227.92.332,1.379a.406.406,0,0,1-.3.488.472.472,0,0,1-.092.008Zm-.69-2.733a.409.409,0,0,1-.394-.3c-.124-.449-.253-.9-.387-1.345a.408.408,0,0,1,.781-.235c.135.449.267.908.393,1.363a.408.408,0,0,1-.284.5.421.421,0,0,1-.112.011Zm-.812-2.7a.406.406,0,0,1-.386-.281c-.145-.442-.294-.888-.448-1.327a.407.407,0,0,1,.769-.269c.156.444.308.9.454,1.344a.392.392,0,0,1-.391.527Zm-.93-2.66a.41.41,0,0,1-.383-.264c-.163-.435-.333-.874-.507-1.3a.407.407,0,0,1,.736-.349.4.4,0,0,1,.019.049c.175.437.349.881.514,1.322a.407.407,0,0,1-.237.525h0a.433.433,0,0,1-.144.015Zm-1.052-2.614a.407.407,0,0,1-.375-.247c-.185-.429-.375-.859-.569-1.279a.407.407,0,1,1,.741-.339c.195.425.388.862.575,1.3a.407.407,0,0,1-.213.535.4.4,0,0,1-.161.033Zm-1.174-2.561a.407.407,0,0,1-.366-.229c-.2-.417-.414-.838-.627-1.251a.408.408,0,0,1,.724-.374c.216.419.43.845.636,1.268a.408.408,0,0,1-.19.545.4.4,0,0,1-.176.041Zm-1.292-2.5a.405.405,0,0,1-.357-.212c-.225-.409-.455-.818-.686-1.219a.407.407,0,0,1,.66-.476.412.412,0,0,1,.039.068c.236.406.469.821.7,1.236a.406.406,0,0,1-.165.551.4.4,0,0,1-.191.049Zm-1.412-2.438a.41.41,0,0,1-.348-.194c-.241-.4-.491-.793-.745-1.184a.408.408,0,0,1,.685-.442c.257.4.51.8.755,1.2a.407.407,0,0,1-.133.56A.414.414,0,0,1,1030.642,453.866Zm-1.529-2.365a.41.41,0,0,1-.337-.178c-.262-.384-.532-.77-.8-1.146a.407.407,0,1,1,.662-.475c.273.381.549.772.813,1.162a.406.406,0,0,1-.335.637Zm-1.644-2.288a.4.4,0,0,1-.325-.161c-.279-.369-.568-.741-.858-1.1a.407.407,0,1,1,.637-.507c.294.369.586.746.87,1.121a.407.407,0,0,1-.078.57.4.4,0,0,1-.245.083Zm-1.754-2.2a.409.409,0,0,1-.313-.146c-.3-.355-.6-.711-.911-1.06a.408.408,0,0,1,.613-.539c.312.355.623.717.924,1.076a.408.408,0,0,1-.312.669Zm-1.861-2.114a.406.406,0,0,1-.3-.131c-.314-.34-.638-.681-.962-1.015a.408.408,0,0,1,.585-.568c.329.338.657.685.976,1.029a.406.406,0,0,1-.021.575.411.411,0,0,1-.279.109Zm-1.962-2.02a.409.409,0,0,1-.286-.117c-.33-.324-.668-.649-1.01-.968a.408.408,0,0,1,.557-.6c.345.322.689.652,1.024.98a.407.407,0,0,1,.007.577A.411.411,0,0,1,1021.892,442.879Zm-2.058-1.924a.409.409,0,0,1-.271-.1c-.346-.31-.7-.618-1.055-.918a.408.408,0,0,1,.528-.621c.358.3.717.617,1.07.93a.407.407,0,0,1-.271.711Zm-2.146-1.823a.411.411,0,0,1-.256-.09c-.36-.291-.729-.583-1.1-.868a.408.408,0,0,1,.5-.645c.375.289.749.585,1.112.88a.407.407,0,0,1-.256.724Zm-2.229-1.721a.414.414,0,0,1-.242-.079c-.373-.275-.755-.55-1.135-.817a.408.408,0,1,1,.469-.667h0c.385.27.772.549,1.15.828a.407.407,0,0,1-.242.735Zm-2.3-1.619a.407.407,0,0,1-.227-.069c-.385-.258-.778-.517-1.17-.767a.407.407,0,0,1,.438-.686c.4.253.8.514,1.186.776a.407.407,0,0,1-.227.746Zm-2.373-1.516a.416.416,0,0,1-.212-.059c-.4-.242-.8-.483-1.2-.716a.408.408,0,0,1,.41-.7c.406.236.815.48,1.217.725a.408.408,0,0,1-.212.755Zm-74.138-.206a.407.407,0,0,1-.189-.769c.406-.213.832-.429,1.265-.643a.407.407,0,0,1,.386.717l-.025.012c-.427.212-.847.425-1.249.635a.413.413,0,0,1-.193.039Zm71.7-1.209a.413.413,0,0,1-.2-.051c-.408-.227-.823-.45-1.231-.666a.407.407,0,1,1,.379-.721c.414.218.833.445,1.247.674a.408.408,0,0,1-.2.764Zm-69.177-.044a.407.407,0,0,1-.174-.775c.422-.2.855-.4,1.287-.594a.408.408,0,1,1,.372.726l-.037.017c-.428.193-.856.39-1.274.587a.407.407,0,0,1-.176.03Zm2.57-1.159a.407.407,0,0,1-.161-.781c.431-.186.87-.371,1.3-.55a.407.407,0,1,1,.31.753h0c-.43.177-.865.361-1.292.545a.407.407,0,0,1-.159.024Zm64.115-.112a.412.412,0,0,1-.182-.043c-.417-.209-.841-.416-1.258-.614a.407.407,0,0,1,.35-.735c.423.2.851.41,1.273.622a.407.407,0,0,1-.183.771Zm-61.508-.963a.407.407,0,0,1-.15-.786c.44-.173.884-.344,1.322-.509a.408.408,0,0,1,.287.763h0c-.434.162-.874.332-1.309.5a.413.413,0,0,1-.152.023Zm58.964-.247a.421.421,0,0,1-.167-.036c-.424-.191-.855-.38-1.282-.561a.407.407,0,1,1,.318-.75h0c.432.183.869.375,1.3.568a.407.407,0,0,1-.167.779Zm-56.327-.746a.408.408,0,0,1-.137-.791c.445-.16.895-.317,1.336-.468a.407.407,0,0,1,.263.771c-.437.149-.882.3-1.324.463a.434.434,0,0,1-.139.017Zm53.734-.355a.414.414,0,0,1-.151-.029c-.431-.173-.871-.343-1.306-.506a.408.408,0,1,1,.288-.763c.44.165.885.337,1.322.512a.408.408,0,0,1-.152.786Zm-51.067-.556a.407.407,0,0,1-.125-.795c.448-.145.9-.289,1.35-.426a.407.407,0,1,1,.239.779h0c-.444.136-.894.278-1.336.423a.431.431,0,0,1-.129.01Zm48.43-.434a.416.416,0,0,1-.135-.023c-.442-.155-.888-.306-1.325-.45a.407.407,0,0,1,.253-.774h0c.443.145.9.3,1.342.455a.408.408,0,0,1-.135.792Zm-45.737-.394a.407.407,0,0,1-.113-.8c.453-.132.912-.262,1.362-.385a.407.407,0,0,1,.215.785c-.446.123-.9.251-1.35.382a.444.444,0,0,1-.115.008Zm43.06-.483a.4.4,0,0,1-.119-.018c-.443-.135-.9-.267-1.344-.393a.407.407,0,0,1,.221-.784h0c.454.128.912.262,1.36.4a.407.407,0,0,1-.118.8Zm-40.342-.262a.407.407,0,0,1-.1-.8c.454-.117.916-.232,1.374-.342a.407.407,0,1,1,.191.792h0c-.454.109-.912.223-1.361.339a.41.41,0,0,1-.1,0Zm37.63-.5a.42.42,0,0,1-.1-.013c-.452-.117-.909-.23-1.359-.336a.407.407,0,0,1,.187-.793c.455.107.918.222,1.375.34a.407.407,0,0,1-.1.8Zm-34.89-.16a.407.407,0,0,1-.089-.8c.463-.1.928-.2,1.385-.3a.408.408,0,1,1,.165.8c-.452.093-.913.193-1.371.3a.4.4,0,0,1-.091-.013Zm32.148-.486a.408.408,0,0,1-.085-.009c-.453-.1-.915-.189-1.373-.278a.407.407,0,0,1,.154-.8c.463.089.931.183,1.389.281a.407.407,0,0,1-.085.806Zm-29.389-.084a.407.407,0,0,1-.075-.807c.465-.088.933-.173,1.394-.253a.407.407,0,1,1,.2.79.38.38,0,0,1-.059.01c-.456.078-.92.162-1.38.25a.408.408,0,0,1-.078,0Zm26.623-.446a.4.4,0,0,1-.069-.006c-.46-.078-.925-.152-1.383-.221a.407.407,0,0,1,.12-.806h0c.463.069.934.144,1.4.223a.407.407,0,0,1-.067.809ZM963.34,425.4a.407.407,0,0,1-.062-.81c.466-.073.938-.142,1.4-.206a.407.407,0,1,1,.111.807c-.458.063-.924.132-1.387.2a.329.329,0,0,1-.063,0Zm21.059-.381h-.052c-.459-.059-.927-.114-1.391-.163a.408.408,0,0,1,.087-.81c.469.051.942.106,1.407.165a.408.408,0,0,1-.051.812Zm-18.268,0a.407.407,0,0,1-.048-.812c.47-.057.944-.11,1.408-.157a.407.407,0,1,1,.083.81c-.459.047-.928.1-1.393.155a.416.416,0,0,1-.049-.009Zm2.8-.288a.407.407,0,0,1-.034-.813c.474-.04.949-.076,1.413-.107a.407.407,0,0,1,.054.813c-.459.03-.928.066-1.4.106Zm12.664-.009h-.035c-.461-.04-.931-.076-1.4-.107a.407.407,0,1,1,.036-.813h.018c.471.031.946.068,1.413.108a.407.407,0,0,1-.035.813Zm-9.852-.179a.407.407,0,1,1-.02-.814c.473-.023.949-.042,1.416-.055a.407.407,0,0,1,.024.814h0c-.461.013-.933.032-1.4.055Zm7.041-.008h-.02c-.464-.021-.935-.039-1.4-.052a.407.407,0,1,1,.022-.814h0c.469.013.947.03,1.416.053a.407.407,0,0,1-.02.814Zm-4.225-.076a.407.407,0,1,1,0-.814q.7-.008,1.417,0a.407.407,0,0,1,0,.814h0q-.7-.006-1.4,0Z" fill="#36543b"/>
          <path id="Trazado_170153" data-name="Trazado 170153" d="M1039.552,488.136h-.035a.409.409,0,0,1-.372-.441s.02-.241.039-.679a.408.408,0,0,1,.814.034c-.02.458-.041.7-.041.714A.408.408,0,0,1,1039.552,488.136Z" fill="#36543b"/>
        </g>
        <g id="Grupo_111244" data-name="Grupo 111244">
          <path id="Trazado_170154" data-name="Trazado 170154" d="M886.646,465.846h-.038l-.552-.063a.325.325,0,1,1,.037-.649l.035,0,.555.063a.324.324,0,0,1-.037.646Z" fill="#36543b"/>
          <path id="Trazado_170155" data-name="Trazado 170155" d="M826.066,507.856a.292.292,0,0,1-.042,0,.324.324,0,0,1-.28-.363h0c.047-.362.1-.738.16-1.116a.325.325,0,1,1,.644.085l0,.015c-.059.373-.111.744-.158,1.1A.325.325,0,0,1,826.066,507.856Zm.344-2.211a.557.557,0,0,1-.058,0,.326.326,0,0,1-.261-.377c.065-.365.136-.736.21-1.1a.325.325,0,0,1,.637.128c-.074.364-.144.731-.208,1.092a.325.325,0,0,1-.32.254Zm.441-2.191a.337.337,0,0,1-.071-.008.323.323,0,0,1-.246-.386v0c.08-.361.166-.729.255-1.094a.325.325,0,0,1,.636.132l-.005.022c-.088.36-.173.724-.252,1.082a.325.325,0,0,1-.317.254Zm.529-2.17a.332.332,0,0,1-.083-.011.325.325,0,0,1-.231-.4v0c.1-.36.2-.724.3-1.082a.325.325,0,0,1,.624.178c-.1.355-.2.715-.295,1.071a.323.323,0,0,1-.316.244Zm.614-2.147a.34.34,0,0,1-.1-.014.323.323,0,0,1-.215-.4v0c.109-.356.223-.716.34-1.069a.324.324,0,0,1,.616.2c-.115.349-.228.705-.336,1.058a.325.325,0,0,1-.306.231Zm.7-2.12a.33.33,0,0,1-.107-.018.325.325,0,0,1-.2-.414h0c.124-.351.252-.707.382-1.055a.325.325,0,0,1,.608.227c-.129.344-.256.7-.378,1.043a.326.326,0,0,1-.31.217Zm.781-2.09a.324.324,0,0,1-.322-.328.31.31,0,0,1,.022-.116c.138-.347.281-.7.425-1.039a.325.325,0,1,1,.6.252h0c-.143.339-.284.684-.42,1.027a.325.325,0,0,1-.31.2Zm.865-2.056a.325.325,0,0,1-.3-.457c.152-.341.309-.684.467-1.02a.324.324,0,1,1,.587.276h0c-.156.332-.311.671-.461,1.008a.325.325,0,0,1-.3.192Zm.951-2.019a.324.324,0,0,1-.325-.323.32.32,0,0,1,.034-.146c.167-.335.339-.672.511-1a.325.325,0,0,1,.6.261.369.369,0,0,1-.02.039c-.17.324-.34.655-.5.986a.326.326,0,0,1-.3.182Zm1.036-1.975a.324.324,0,0,1-.283-.482h0c.182-.328.368-.656.555-.976a.325.325,0,0,1,.561.327c-.184.315-.369.64-.547.963a.325.325,0,0,1-.295.168Zm1.124-1.926a.324.324,0,0,1-.276-.495c.2-.319.4-.638.6-.949a.325.325,0,0,1,.562.327l-.017.026c-.2.307-.4.622-.591.937a.327.327,0,0,1-.283.153Zm1.211-1.872a.326.326,0,0,1-.325-.326.321.321,0,0,1,.057-.182c.211-.31.427-.62.642-.92a.325.325,0,0,1,.528.378c-.212.3-.426.6-.634.908a.326.326,0,0,1-.273.141Zm1.3-1.812a.324.324,0,0,1-.259-.52c.224-.3.455-.6.687-.888a.325.325,0,0,1,.509.4c-.229.288-.457.582-.678.876a.325.325,0,0,1-.264.131Zm1.385-1.746a.325.325,0,0,1-.249-.533c.238-.285.484-.572.73-.852a.325.325,0,0,1,.488.428c-.244.276-.486.559-.72.841a.325.325,0,0,1-.254.114Zm1.472-1.674a.324.324,0,0,1-.238-.545c.253-.274.514-.548.773-.814a.325.325,0,0,1,.487.43l-.022.023c-.255.262-.511.532-.761.8a.329.329,0,0,1-.24.1Zm1.555-1.6a.325.325,0,0,1-.226-.558c.268-.261.542-.52.814-.773a.324.324,0,0,1,.441.476h0c-.269.249-.538.5-.8.762a.325.325,0,0,1-.234.1Zm1.636-1.514a.324.324,0,0,1-.214-.568c.28-.245.567-.49.854-.73a.325.325,0,0,1,.415.5c-.283.235-.565.477-.841.718a.324.324,0,0,1-.218.083Zm1.713-1.425a.325.325,0,0,1-.2-.58c.293-.231.593-.461.892-.683a.325.325,0,1,1,.387.521c-.293.219-.588.446-.877.673a.328.328,0,0,1-.207.072Zm1.786-1.332a.325.325,0,0,1-.187-.59c.3-.215.616-.429.926-.635a.324.324,0,1,1,.36.54c-.3.2-.611.413-.912.626a.327.327,0,0,1-.191.062Zm1.854-1.237a.325.325,0,0,1-.173-.6c.312-.2.635-.394.958-.587a.325.325,0,1,1,.357.543l-.025.015c-.319.19-.635.384-.944.577a.312.312,0,0,1-.178.055Zm1.915-1.139a.325.325,0,0,1-.159-.608c.324-.181.656-.361.986-.536a.325.325,0,0,1,.3.574c-.325.171-.652.349-.972.528a.322.322,0,0,1-.16.045Zm1.971-1.04a.324.324,0,0,1-.144-.615c.331-.165.67-.328,1.011-.486a.325.325,0,0,1,.295.579l-.022.01c-.334.156-.669.317-1,.479a.329.329,0,0,1-.145.037Zm2.02-.939a.325.325,0,0,1-.13-.622c.342-.149.69-.3,1.034-.436a.324.324,0,0,1,.245.6c-.34.139-.683.283-1.02.43a.329.329,0,0,1-.134.032Zm2.063-.841a.324.324,0,0,1-.115-.628c.345-.131.7-.262,1.052-.386a.325.325,0,0,1,.249.6.218.218,0,0,1-.033.012c-.348.123-.7.251-1.038.381a.331.331,0,0,1-.12.025Zm2.1-.743a.325.325,0,0,1-.1-.633c.355-.117.714-.23,1.068-.338a.325.325,0,0,1,.222.611l-.033.01c-.35.107-.7.218-1.055.334a.323.323,0,0,1-.107.021Zm2.131-.647a.325.325,0,0,1-.087-.638c.357-.1.721-.2,1.083-.291a.325.325,0,0,1,.162.629c-.357.092-.717.188-1.069.287a.332.332,0,0,1-.094.017Zm2.155-.548a.325.325,0,0,1-.074-.64c.361-.085.729-.168,1.094-.245a.325.325,0,1,1,.136.635c-.361.078-.724.159-1.081.243A.374.374,0,0,1,861.718,466.842Zm2.178-.466a.325.325,0,0,1-.061-.644c.364-.07.735-.138,1.1-.2a.325.325,0,0,1,.111.64c-.364.063-.73.129-1.09.2a.313.313,0,0,1-.061,0Zm2.2-.381a.325.325,0,0,1-.049-.645c.366-.057.739-.111,1.108-.16a.325.325,0,1,1,.125.638l-.038.005c-.365.05-.734.1-1.1.158a.448.448,0,0,1-.052,0Zm2.208-.3a.325.325,0,0,1-.037-.647c.368-.043.742-.084,1.114-.121a.325.325,0,0,1,.065.646c-.368.037-.739.077-1.1.12Zm16.687-.025h-.032c-.371-.036-.744-.071-1.106-.1a.325.325,0,0,1,.056-.647l1.114.1a.324.324,0,0,1-.031.647Zm-2.221-.193h-.025c-.365-.027-.738-.053-1.106-.076a.325.325,0,0,1,.008-.65l.032,0c.373.024.748.049,1.116.077a.325.325,0,0,1-.023.649Zm-12.248,0a.325.325,0,0,1-.026-.648c.367-.03.743-.059,1.116-.083a.324.324,0,0,1,.043.647c-.37.024-.741.053-1.105.082Zm10.022-.135h-.016c-.369-.018-.742-.034-1.11-.048a.325.325,0,0,1,.023-.649c.371.013.747.03,1.119.048a.325.325,0,0,1-.016.649Zm-7.8-.011a.325.325,0,0,1-.016-.649c.372-.018.748-.034,1.118-.047a.325.325,0,0,1,.051.648h-.029c-.366.013-.739.029-1.108.047Zm5.57-.07h-.008c-.371-.008-.745-.014-1.11-.018a.325.325,0,0,1-.029-.65h.035c.369,0,.745.009,1.119.018a.325.325,0,0,1-.008.649Zm-3.344-.007a.325.325,0,0,1-.006-.649c.367-.007.743-.012,1.119-.013h0a.325.325,0,0,1,0,.649c-.373,0-.746.006-1.109.013Z" fill="#36543b"/>
          <path id="Trazado_170156" data-name="Trazado 170156" d="M825.894,509.516h-.02a.324.324,0,0,1-.3-.343c0-.008.012-.2.047-.566a.325.325,0,1,1,.65.028c0,.012,0,.023,0,.035-.034.349-.045.54-.045.542A.325.325,0,0,1,825.894,509.516Z" fill="#36543b"/>
        </g>
      </g>
      <path id="Trazado_170157" data-name="Trazado 170157" d="M1050.57,570.337H812.412a.32.32,0,0,1-.269-.35h0a.32.32,0,0,1,.269-.35h238.157a.319.319,0,0,1,.269.35h0A.318.318,0,0,1,1050.57,570.337Z" fill="#132d1a"/>
    </g>
  </g>
</svg>
