<svg xmlns="http://www.w3.org/2000/svg" xmlns:xlink="http://www.w3.org/1999/xlink" width="259.938" height="278.675" viewBox="0 0 259.938 278.675">
  <defs>
    <filter id="paris-4345139_1920" x="0" y="0" width="259.938" height="278.675" filterUnits="userSpaceOnUse">
      <feOffset dy="3" input="SourceAlpha"/>
      <feGaussianBlur stdDeviation="3" result="blur"/>
      <feFlood flood-opacity="0.161"/>
      <feComposite operator="in" in2="blur"/>
      <feComposite in="SourceGraphic"/>
    </filter>
  </defs>
  <g id="Grupo_127242" data-name="Grupo 127242" transform="translate(7543 13043)">
    <g transform="matrix(1, 0, 0, 1, -7543, -13043)" filter="url(#paris-4345139_1920)">
      <rect id="paris-4345139_1920-2" data-name="paris-4345139_1920" width="241.938" height="260.674" rx="20" transform="translate(9 6)" fill="#fff"/>
    </g>
    <g id="Grupo_127241" data-name="Grupo 127241" transform="translate(-7448 -12947)">
      <path id="Trazado_172034" data-name="Trazado 172034" d="M638.953,159.662c2.11.716,2.909,2.207,2.854,4.4-.088,3.536-.021,7.075-.025,10.614,0,.9-.381,1.417-1.064,1.488-.753.079-1.289-.492-1.291-1.415q-.009-5.465,0-10.929c0-.209.012-.421-.007-.629a1.163,1.163,0,0,0-1.15-1.162,6.241,6.241,0,0,0-.629-.007q-17.1,0-34.208,0c-1.431,0-1.754.322-1.754,1.749q0,20.678,0,41.357c0,1.375.338,1.712,1.715,1.712h34.366c1.315,0,1.667-.355,1.667-1.683q0-12.461,0-24.924c0-1.365.34-1.7,1.726-1.7q3.105,0,6.212,0c.932,0,1.469.421,1.493,1.14.024.75-.537,1.213-1.5,1.216-1.829.005-3.657,0-5.531,0v4.718h.888c1.6,0,3.2-.009,4.8,0a1.185,1.185,0,1,1,.01,2.35c-1.882.013-3.764,0-5.693,0v4.718h.72c1.625,0,3.251-.006,4.875,0,.9.005,1.447.476,1.43,1.2-.016.7-.544,1.147-1.4,1.151-1.856.008-3.713,0-5.619,0v4.718h4.955c.263,0,.525-.009.787,0a1.182,1.182,0,1,1-.036,2.351c-1.6.015-3.2.005-4.8.005h-.971v4.717H646.6a10.22,10.22,0,0,1,1.179.015A1.1,1.1,0,0,1,648.846,208a1.114,1.114,0,0,1-1.036,1.181,4.119,4.119,0,0,1-.706.017h-14.72v4.717h14.673a5.33,5.33,0,0,1,.707.011,1.138,1.138,0,0,1,1.086,1.139,1.161,1.161,0,0,1-1.109,1.2,6.9,6.9,0,0,1-.708.009H632.388v7.391h19.536c1.305,0,1.656-.359,1.656-1.694q0-25.435,0-50.87c0-1.4-.317-1.725-1.695-1.728-2.018,0-4.037,0-6.055,0a3.2,3.2,0,0,1-.7-.04,1.1,1.1,0,0,1-.963-1.236,1.039,1.039,0,0,1,1.065-1.055c2.568-.017,5.139-.066,7.7.038a3.4,3.4,0,0,1,3,3.242c.016.261.009.523.009.785q0,25.4,0,50.792c0,2.782-1.355,4.127-4.158,4.127H632.4V233.1h.7q5.9,0,11.8,0c1.222,0,1.6-.378,1.605-1.586,0-.551,0-1.1,0-1.652.009-.92.438-1.462,1.158-1.474s1.188.534,1.2,1.436c.008.681.011,1.363,0,2.044a3.519,3.519,0,0,1-3.59,3.585c-3.985.019-7.969.006-11.954.006h-.969c0,.342,0,.644,0,.946a3.551,3.551,0,0,1-3.805,3.77q-9.318.008-18.637,0-10.381,0-20.761,0c-2.577,0-3.982-1.407-3.982-3.987q0-29.053,0-58.1c0-2.6,1.376-3.985,3.966-3.995q3.066-.011,6.133,0c.88.006,1.38.443,1.386,1.155.006.742-.513,1.191-1.439,1.2-2.018.011-4.037,0-6.055.005-1.277,0-1.63.359-1.63,1.632q0,29.053,0,58.1c0,1.266.366,1.63,1.637,1.63q19.62,0,39.241,0c1.183,0,1.585-.384,1.586-1.526q0-13.288,0-26.576c0-.13-.011-.261-.022-.518H603.348c-2.635,0-4.03-1.39-4.03-4.017,0-13.707.023-27.414-.025-41.121-.008-2.191.748-3.681,2.855-4.4Z" transform="translate(-585.161 -159.662)" fill="#54aa13"/>
      <path id="Trazado_172035" data-name="Trazado 172035" d="M620.413,204.448H605.555c-1.272,0-1.654-.364-1.636-1.629.025-1.779-.025-3.569.149-5.335a6.7,6.7,0,0,1,4-5.62c1.292-.619,2.673-1.054,4-1.6a4.34,4.34,0,0,0,2.5-1.786.971.971,0,0,0-.277-1.452,8.755,8.755,0,0,1-3.623-6.614,38.349,38.349,0,0,1,.218-8.134c.821-4.778,5.305-7.894,10.339-7.623a9.693,9.693,0,0,1,8.94,8.652,43.914,43.914,0,0,1-.035,7.526,8.836,8.836,0,0,1-3.653,6.273c-.485.377-.585.765-.265,1.175a5.739,5.739,0,0,0,1.467,1.454,16.883,16.883,0,0,0,2.456,1.023c.753.3,1.522.564,2.259.9a7.275,7.275,0,0,1,4.513,6.717c.082,1.594.041,3.2.023,4.794-.01.895-.487,1.281-1.508,1.282Q627.92,204.451,620.413,204.448Zm-14.021-2.413h28.164c0-1.281.06-2.512-.013-3.736a5.024,5.024,0,0,0-3.414-4.649c-.68-.271-1.368-.525-2.058-.769-2.251-.794-4.454-1.648-5.282-4.252a10.341,10.341,0,0,1-6.676.033,6.447,6.447,0,0,1-4.212,3.817c-1.22.471-2.463.886-3.656,1.416a4.461,4.461,0,0,0-2.831,3.856C606.3,199.151,606.392,200.567,606.392,202.035Zm21.651-25.076-.1-.006c0-.838.023-1.678,0-2.515a7.517,7.517,0,0,0-7-7.431,7.375,7.375,0,0,0-7.954,6.806,35.421,35.421,0,0,0,0,6.2,7.466,7.466,0,0,0,14.725,1A29.438,29.438,0,0,0,628.043,176.959Z" transform="translate(-585.04 -159.63)" fill="#54aa13"/>
    </g>
  </g>
</svg>
