<svg xmlns="http://www.w3.org/2000/svg" width="85.862" height="40.981" viewBox="0 0 85.862 40.981">
  <g id="Grupo_128203" data-name="Grupo 128203" transform="translate(-525.886 -442.709)">
    <path id="Trazado_190806" data-name="Trazado 190806" d="M605.5,476.837a10.957,10.957,0,1,0-21.548-.024H556.41a10.935,10.935,0,0,0-3.574-10.2,10.52,10.52,0,0,0-7.921-2.7,11.006,11.006,0,0,0-10.046,12.874,7.6,7.6,0,0,1-8.972-7.61q-.019-3.584,0-7.167a6.132,6.132,0,0,1,6.3-6.3c1.617-.01,3.236-.031,4.852.013a1.547,1.547,0,0,0,1.359-.646c2.578-3.066,5.223-6.077,7.772-9.166a8.3,8.3,0,0,1,6.9-3.194c6.215.062,12.431.045,18.646.005a8.508,8.508,0,0,1,5.781,2.068c3.907,3.3,7.87,6.526,11.771,9.83a6.044,6.044,0,0,0,3,1.42c4.776.824,9.542,1.71,14.31,2.583a6.1,6.1,0,0,1,5.151,6.175c.012,2.019.03,4.039-.008,6.058a6.142,6.142,0,0,1-5.477,5.984A6.9,6.9,0,0,1,605.5,476.837Zm-33.2-21.134v.03q4.726,0,9.453,0c.556,0,1.115.005,1.355-.625.249-.651-.119-1.069-.6-1.445-2.857-2.248-5.691-4.525-8.576-6.736a3.081,3.081,0,0,0-1.708-.587c-3.093-.057-6.188-.034-9.282-.024a2.08,2.08,0,0,0-2.3,2.339q-.013,2.347,0,4.694a2.093,2.093,0,0,0,2.37,2.35C566.1,455.711,569.2,455.7,572.293,455.7Zm-22.878,0c1.446,0,2.892.019,4.337-.006a2,2,0,0,0,2.1-2q.059-2.683,0-5.368a2,2,0,0,0-2.014-2c-.679-.03-1.361.007-2.041-.012a2.318,2.318,0,0,0-1.932.884c-1.852,2.187-3.735,4.349-5.552,6.565a1.566,1.566,0,0,0-.317,1.33,1.667,1.667,0,0,0,1.249.585C546.634,455.748,548.026,455.7,549.415,455.7Zm15.319,7.5v0c.481,0,.963.027,1.442-.005a2.045,2.045,0,0,0,1.951-2.065,2.021,2.021,0,0,0-1.923-2c-.988-.048-1.981-.05-2.968,0a2.034,2.034,0,0,0-.028,4.059C563.712,463.237,564.224,463.2,564.733,463.2Z" transform="translate(0 0)" fill="#30610c"/>
    <path id="Trazado_190807" data-name="Trazado 190807" d="M582.741,544.843a8.873,8.873,0,1,1-8.905,8.78A8.886,8.886,0,0,1,582.741,544.843Zm4.035,8.9a4.083,4.083,0,1,0-4.061,4.069A4.1,4.1,0,0,0,586.776,553.741Z" transform="translate(-37.042 -78.898)" fill="#30610c"/>
    <path id="Trazado_190808" data-name="Trazado 190808" d="M807.17,553.769a8.855,8.855,0,1,1-8.849-8.925A8.878,8.878,0,0,1,807.17,553.769ZM802.4,553.7a4.083,4.083,0,1,0-4.023,4.109A4.1,4.1,0,0,0,802.4,553.7Z" transform="translate(-203.612 -78.899)" fill="#30610c"/>
  </g>
</svg>
