<svg xmlns="http://www.w3.org/2000/svg" width="45.997" height="60" viewBox="0 0 45.997 60">
  <g id="Grupo_128228" data-name="Grupo 128228" transform="translate(-646 -1436)">
    <g id="Grupo_128211" data-name="Grupo 128211" transform="translate(646 1436)">
      <path id="Trazado_172011" data-name="Trazado 172011" d="M522.563,75.911c0,.915-.007,1.808,0,2.7a1.107,1.107,0,0,1-.546,1.107,1.091,1.091,0,0,1-1.22-.179c-.6-.409-1.223-.793-1.812-1.22a.6.6,0,0,0-.826-.014c-.568.42-1.178.783-1.761,1.184-.412.283-.821.515-1.322.223a1.18,1.18,0,0,1-.519-1.186c.015-.87,0-1.74,0-2.677h-.782q-12.4,0-24.8,0a6.02,6.02,0,0,1-6.411-6.407q0-21.182,0-42.363a6.963,6.963,0,0,1,5.41-7.03,7.876,7.876,0,0,1,1.792-.194q18.711-.016,37.423-.008c1.059,0,1.369.313,1.369,1.38q0,26.618,0,53.236c0,1.069-.311,1.383-1.366,1.385l-4.435.008A1.186,1.186,0,0,0,522.563,75.911Zm3.969-54.063h-.639q-18.029,0-36.059,0a5,5,0,0,0-5.266,5.249q0,18.813,0,37.626c0,.176.015.351.029.634a7.094,7.094,0,0,1,5.032-1.523q18.061.04,36.121.014h.782Zm.018,44H500.018q-5.686,0-11.372,0a3.868,3.868,0,0,0-3.25,1.567,3.787,3.787,0,0,0-.411,4.179,3.848,3.848,0,0,0,3.677,2.25q12.716.011,25.432,0c.14,0,.279-.014.429-.022V70.85H494.056c-1.012,0-1.492-.327-1.485-1.01s.476-.99,1.5-.99h32.474Zm-9.942,5.028v6.07c.394-.258.721-.47,1.047-.686.851-.563.971-.563,1.844.011.324.212.648.423,1.032.673V70.877Zm9.915,2.96V70.9h-3.907v2.942Z" transform="translate(-482.566 -19.848)" fill="#fff"/>
      <path id="Trazado_172013" data-name="Trazado 172013" d="M563.412,97.755c-.937,0-1.874.008-2.811,0a1.019,1.019,0,0,1-1.156-1.151c-.011-1.062.008-2.124-.013-3.186a.693.693,0,0,0-.242-.488c-.069-.05-.333.085-.449.2-.746.726-1.47,1.475-2.212,2.2a1.042,1.042,0,0,1-1.724,0q-1.974-1.958-3.931-3.932a1.041,1.041,0,0,1-.008-1.723c.73-.742,1.48-1.465,2.2-2.214a.709.709,0,0,0,.179-.517c-.01-.081-.294-.177-.456-.18-1.041-.016-2.082,0-3.123-.01-.86-.006-1.219-.358-1.221-1.212q-.009-2.78,0-5.56c0-.863.356-1.218,1.209-1.224,1.041-.007,2.082.009,3.123-.012a.707.707,0,0,0,.492-.237c.051-.066-.08-.335-.192-.45-.725-.747-1.473-1.472-2.2-2.213a1.041,1.041,0,0,1-.01-1.723q1.957-1.974,3.932-3.931c.635-.63,1.116-.622,1.769.023.7.688,1.373,1.4,2.08,2.072a2.313,2.313,0,0,0,.608.305,2.328,2.328,0,0,0,.181-.605c.019-1.02,0-2.041.011-3.061.007-.784.369-1.161,1.14-1.165q2.842-.015,5.685,0c.808,0,1.163.374,1.17,1.2.008,1-.011,2,.012,3a2.273,2.273,0,0,0,.217.64,2.228,2.228,0,0,0,.556-.292c.719-.694,1.412-1.415,2.124-2.117a1.041,1.041,0,0,1,1.724-.017q2,1.979,3.974,3.978a1.029,1.029,0,0,1-.018,1.679c-.685.7-1.4,1.373-2.071,2.081a2.765,2.765,0,0,0-.351.651,3.244,3.244,0,0,0,.726.186c.957.022,1.916,0,2.873.01.864.005,1.229.356,1.232,1.2q.01,2.812,0,5.623c0,.809-.375,1.166-1.2,1.173-.958.008-1.916-.014-2.873.012a3.247,3.247,0,0,0-.769.213,3.784,3.784,0,0,0,.424.689c.632.663,1.3,1.29,1.939,1.948a4,4,0,1,1-5.691,5.629c-.712-.7-1.4-1.423-2.126-2.115a.7.7,0,0,0-.517-.175c-.082.012-.175.3-.178.457-.016,1.041,0,2.082-.01,3.124-.006.857-.361,1.212-1.217,1.219C565.287,97.761,564.349,97.755,563.412,97.755Zm2.03-2.015c0-.95.007-1.841,0-2.733-.007-.712-.093-1.447.883-1.76-.771-.752-1.457-1.391-2.1-2.067a1.35,1.35,0,0,0-1.029-.442,6,6,0,0,1-5.411-7.952c.347-.952,1.1-1.143,1.827-.449a15.4,15.4,0,0,1,1.534,1.555,1.825,1.825,0,0,0,1.929.553,1.864,1.864,0,0,0-.644-2.141,12.424,12.424,0,0,1-1.245-1.226c-.928-.935-.724-1.7.554-2.075a6.013,6.013,0,0,1,7.705,5.588c.005.182-.026.431.076.536.787.813,1.6,1.6,2.452,2.433a1.224,1.224,0,0,1,1.378-.811c1.013.025,2.027.007,3.054.007v-4c-1.058,0-2.075,0-3.093,0-.872,0-1.089-.162-1.376-.965-.119-.332-.253-.66-.4-.982a1.1,1.1,0,0,1,.29-1.6c.737-.731,1.482-1.452,2.156-2.11l-2.863-2.864c-.7.705-1.45,1.452-2.186,2.214a1.124,1.124,0,0,1-1.461.266,8.125,8.125,0,0,0-1.153-.468,1.156,1.156,0,0,1-.878-1.263c.023-1.056.006-2.112.006-3.186h-4c0,1.035,0,2.031,0,3.027,0,.961-.134,1.142-1.022,1.459-.313.112-.619.243-.922.381a1.11,1.11,0,0,1-1.6-.284c-.733-.734-1.459-1.476-2.133-2.16l-2.853,2.855c.715.706,1.461,1.458,2.224,2.194a1.124,1.124,0,0,1,.268,1.461,8.2,8.2,0,0,0-.468,1.154,1.157,1.157,0,0,1-1.262.881c-1.056-.023-2.112-.006-3.188-.006v4h3.026c.966,0,1.141.129,1.46,1.019.112.313.243.62.381.922a1.112,1.112,0,0,1-.282,1.6c-.734.734-1.476,1.459-2.151,2.126l2.874,2.893c.476-.5,1.037-1.008,1.493-1.6a1.982,1.982,0,0,1,2.885-.63c1.21.645,1.275.524,1.275,1.928v2.717ZM563.8,78.92a9.706,9.706,0,0,1,.927.905,1.663,1.663,0,0,1,.408.869c.038.934.009,1.873-.035,2.808a.967.967,0,0,1-1.054.993c-.52.014-1.044-.044-1.56,0a2.625,2.625,0,0,1-2.618-1.072,2.263,2.263,0,0,0-.371-.322,2.252,2.252,0,0,0,0,.3,3.946,3.946,0,0,0,4.12,3.328,1.975,1.975,0,0,1,1.647.658c2.084,2.125,4.2,4.22,6.308,6.32a3.162,3.162,0,0,0,.73.574,1.992,1.992,0,0,0,2.516-.569A1.96,1.96,0,0,0,574.6,91.1q-3.231-3.26-6.495-6.487a2.032,2.032,0,0,1-.69-1.7A3.734,3.734,0,0,0,563.8,78.92Z" transform="translate(-537.444 -59.754)" fill="#fff"/>
      <path id="Trazado_172014" data-name="Trazado 172014" d="M520.486,92.817q0,5.75,0,11.5a3.493,3.493,0,0,1-.017.624.992.992,0,0,1-1.967,0,3.118,3.118,0,0,1-.015-.561q0-11.562,0-23.124a3.135,3.135,0,0,1,.015-.561.992.992,0,0,1,1.967,0,3.513,3.513,0,0,1,.016.624Q520.487,87.067,520.486,92.817Z" transform="translate(-512.486 -69.817)" fill="#fff"/>
      <path id="Trazado_172015" data-name="Trazado 172015" d="M520.449,45.84c0,.354.024.71-.006,1.062a.984.984,0,0,1-.994.928.968.968,0,0,1-.98-.94c-.032-.706-.033-1.417,0-2.123a.965.965,0,0,1,.99-.927.983.983,0,0,1,.983.939C520.473,45.131,520.45,45.486,520.449,45.84Z" transform="translate(-512.456 -39.835)" fill="#fff"/>
      <path id="Trazado_172016" data-name="Trazado 172016" d="M518.491,249.484a9.016,9.016,0,0,1,.008-1.061.987.987,0,0,1,1.966,0,20.585,20.585,0,0,1,0,2.185.987.987,0,0,1-1.966,0A9.951,9.951,0,0,1,518.491,249.484Z" transform="translate(-512.483 -209.514)" fill="#fff"/>
      <path id="Trazado_172017" data-name="Trazado 172017" d="M508.511,315.32c-.333,0-.668.02-1-.005a.987.987,0,0,1-.953-.97.975.975,0,0,1,.974-1.01c.686-.028,1.375-.028,2.061,0a.973.973,0,0,1,.954.967.99.99,0,0,1-.975,1.013C509.221,315.34,508.865,315.321,508.511,315.32Z" transform="translate(-502.553 -264.323)" fill="#fff"/>
      <path id="Trazado_172018" data-name="Trazado 172018" d="M668.9,187.015a1.021,1.021,0,0,1-1.479,1.035,1.921,1.921,0,0,1-.385-.313q-2.262-2.235-4.519-4.476c-.556-.553-.626-1.143-.2-1.584.439-.458,1.048-.4,1.63.18,1.493,1.476,2.987,2.951,4.465,4.442A4.029,4.029,0,0,1,668.9,187.015Z" transform="translate(-632.076 -154.408)" fill="#fff"/>
    </g>
  </g>
</svg>
