<svg xmlns="http://www.w3.org/2000/svg" xmlns:xlink="http://www.w3.org/1999/xlink" width="259.938" height="278.675" viewBox="0 0 259.938 278.675">
  <defs>
    <filter id="paris-4345139_1920" x="0" y="0" width="259.938" height="278.675" filterUnits="userSpaceOnUse">
      <feOffset dy="3" input="SourceAlpha"/>
      <feGaussianBlur stdDeviation="3" result="blur"/>
      <feFlood flood-opacity="0.161"/>
      <feComposite operator="in" in2="blur"/>
      <feComposite in="SourceGraphic"/>
    </filter>
  </defs>
  <g id="Grupo_127239" data-name="Grupo 127239" transform="translate(8366 12515.675)">
    <g transform="matrix(1, 0, 0, 1, -8366, -12515.67)" filter="url(#paris-4345139_1920)">
      <rect id="paris-4345139_1920-2" data-name="paris-4345139_1920" width="241.938" height="260.674" rx="20" transform="translate(9 6)" fill="#fff"/>
    </g>
    <g id="Grupo_127238" data-name="Grupo 127238" transform="translate(-9207.028 -12720.412)">
      <path id="Trazado_168793" data-name="Trazado 168793" d="M990.842,300.412a1.777,1.777,0,0,1,.78,1.673c-.033,2.122-.012,4.245-.012,6.368,0,.157.008.316-.007.471a1.23,1.23,0,0,1-1.209,1.207,1.169,1.169,0,0,1-1.143-1.244c-.019-1.729-.008-3.459-.009-5.188v-.884H934.4v53.861c0,.262.011.526-.008.786a1.141,1.141,0,0,1-1.144,1.151,1.168,1.168,0,0,1-1.2-1.11,5.436,5.436,0,0,1-.012-.629q0-27.357-.01-54.715a1.8,1.8,0,0,1,.782-1.748Z" fill="#54aa13"/>
      <path id="Trazado_168794" data-name="Trazado 168794" d="M1049.545,328.338c.662,0,1.232-.01,1.8,0a2.8,2.8,0,0,1,2.956,2.968q.016,7.7,0,15.408c0,1.068-.713,1.688-1.571,1.385-.687-.243-.791-.811-.79-1.462q.015-7.35.005-14.7c0-.183-.008-.367,0-.55.022-.455-.182-.69-.644-.69h-1.757v1.057q0,14.11,0,28.221a4.334,4.334,0,0,1-.093,1.089.976.976,0,0,1-1.184.784,2.259,2.259,0,0,1-1.029-.9c-.143-.194-.066-.558-.066-.845q-.005-3.891,0-7.783v-.891h-5.257v.953c0,6.446.09,12.894-.044,19.337a7.961,7.961,0,0,0,2.712,6.616c1.342-1.479,2.651-2.991,2.6-5.249s-.022-4.507,0-6.76a1.127,1.127,0,0,1,1.109-1.266,1.18,1.18,0,0,1,1.249,1.226c.016.182.009.367.009.55,0,2.018,0,4.036,0,6.053,0,.392-.027.785-.058,1.177a7.365,7.365,0,0,1-1.469,3.834,5.465,5.465,0,0,1-.586.738,4.98,4.98,0,0,0-1.724,4.686,1.225,1.225,0,0,1-.02.391,1.151,1.151,0,0,1-2.243.171,1.588,1.588,0,0,1-.081-.694,4.92,4.92,0,0,0-1.582-4.429,8.566,8.566,0,0,1-2.254-6.327q.06-23.544.011-47.087c0-.862.123-1.581,1.117-1.8,0-1.6,0-3.144,0-4.688,0-1.234.368-1.616,1.57-1.623,1.573-.009,3.145-.011,4.717,0,1.087.009,1.468.385,1.48,1.468.016,1.389.01,2.778,0,4.166a.977.977,0,0,0,.436.888,2.035,2.035,0,0,1,.656,1.293C1049.608,326.114,1049.545,327.185,1049.545,328.338Zm-2.43,15.869v-18.2h-5.164v18.136a1.971,1.971,0,0,0,.327.062C1043.849,344.208,1045.419,344.207,1047.115,344.207Zm-5.149,4.716c1.619,0,3.206.009,4.792-.019.116,0,.3-.259.33-.42.266-1.572.1-1.777-1.465-1.851-.131-.006-.262-.013-.392-.013h-3.265Zm1.151-29.217v3.8h2.823v-3.8Z" transform="translate(-45.55 -7.127)" fill="#54aa13"/>
      <path id="Trazado_168795" data-name="Trazado 168795" d="M934.4,388.011h54.843v-.987q0-31.137,0-62.274c0-.289-.014-.579.01-.865a1.086,1.086,0,0,1,1.1-1.108,1.117,1.117,0,0,1,1.226.981,3.217,3.217,0,0,1,.033.7q0,32.12,0,64.24c0,1.357-.356,1.7-1.733,1.7H933.74c-1.324,0-1.695-.361-1.7-1.661q0-7.9,0-15.8a3.117,3.117,0,0,1,.035-.7,1.12,1.12,0,0,1,1.174-.958,1.1,1.1,0,0,1,1.139,1.076,6.558,6.558,0,0,1,.011.707q0,7,0,14Z" transform="translate(-0.006 -9.476)" fill="#54aa13"/>
      <path id="Trazado_168796" data-name="Trazado 168796" d="M951.729,362.109q-4.869,0-9.739,0c-1.332,0-1.669-.339-1.673-1.673s-.014-2.671,0-4.006c.014-1.017.435-1.436,1.44-1.437q10.053-.008,20.106,0c1.05,0,1.471.424,1.479,1.482q.016,2.081,0,4.162c-.009,1.058-.417,1.467-1.484,1.469C958.484,362.114,955.107,362.109,951.729,362.109Zm.118-4.695c-2.723,0-5.448.024-8.171-.016-.7-.01-.968.21-.867.892a1.276,1.276,0,0,1,0,.392c-.142.825.239.992,1.009.987,5.212-.033,10.424-.011,15.636-.021,1.466,0,1.351.264,1.4-1.383.022-.721-.251-.873-.916-.865C957.243,357.434,954.546,357.414,951.848,357.414Z" transform="translate(-3.509 -23.126)" fill="#54aa13"/>
      <path id="Trazado_168797" data-name="Trazado 168797" d="M998.689,354.99q4.948,0,9.9,0c1.223,0,1.605.372,1.615,1.579q.015,2,0,4.006c-.01,1.144-.382,1.53-1.495,1.531q-10.014.008-20.028,0c-1.1,0-1.5-.411-1.5-1.531q-.01-2.042,0-4.084c.008-1.093.424-1.5,1.539-1.5Q993.7,354.985,998.689,354.99Zm-.039,4.663c2.777,0,5.553-.01,8.331.009.527,0,.8-.133.734-.7a2.04,2.04,0,0,1,0-.549c.123-.786-.172-1.02-.984-1.014-5.344.038-10.688.02-16.032.02-1.021,0-1.021,0-1.023,1.046a3.706,3.706,0,0,1,0,.392c-.064.6.17.82.8.813C993.2,359.634,995.926,359.652,998.65,359.652Z" transform="translate(-23.365 -23.126)" fill="#54aa13"/>
      <path id="Trazado_168798" data-name="Trazado 168798" d="M951.8,380.087q4.987,0,9.975,0c1.167,0,1.562.39,1.569,1.546.008,1.361.01,2.723,0,4.084-.009,1.067-.413,1.479-1.475,1.48q-10.053.008-20.106,0c-1.027,0-1.43-.4-1.444-1.424q-.028-2.12,0-4.241c.013-1.057.424-1.442,1.508-1.443Q946.813,380.082,951.8,380.087Zm-.016,4.665c2.776,0,5.552-.012,8.329.01.547,0,.783-.177.726-.722-.01-.1,0-.209,0-.314,0-1.21,0-1.21-1.169-1.21q-7.739,0-15.478,0c-1.527,0-1.336-.239-1.4,1.375-.027.711.218.882.9.872C946.389,384.732,949.087,384.753,951.785,384.753Z" transform="translate(-3.507 -33.761)" fill="#54aa13"/>
      <path id="Trazado_168799" data-name="Trazado 168799" d="M998.72,387.2q-4.948,0-9.9,0c-1.276,0-1.645-.367-1.649-1.621,0-1.335-.009-2.67,0-4.006.007-1.065.418-1.483,1.469-1.484q10.054-.007,20.107,0c1.018,0,1.43.4,1.444,1.425q.028,2.12,0,4.241c-.014,1.066-.41,1.441-1.5,1.443Q1003.707,387.208,998.72,387.2Zm-.069-2.448c2.777,0,5.553-.011,8.33.009.528,0,.8-.134.734-.7a2.04,2.04,0,0,1,0-.549c.124-.787-.175-1.018-.985-1.013-5.344.037-10.687.019-16.031.02-1.02,0-1.021,0-1.023,1.047a3.718,3.718,0,0,1,0,.393c-.065.6.172.818.8.81C993.2,384.735,995.927,384.753,998.651,384.753Z" transform="translate(-23.365 -33.76)" fill="#54aa13"/>
      <path id="Trazado_168800" data-name="Trazado 168800" d="M951.806,337.019q-4.908,0-9.817,0c-1.333,0-1.667-.338-1.671-1.676s-.014-2.671,0-4.006c.014-1.013.44-1.44,1.441-1.441q10.053-.009,20.106,0c1.044,0,1.469.435,1.478,1.49q.016,2.081,0,4.162c-.009,1.056-.418,1.465-1.486,1.468C958.508,337.024,955.157,337.019,951.806,337.019Zm-.02-2.467q4.082,0,8.163,0c.253,0,.716-.036.726-.108a7.638,7.638,0,0,0,.089-1.839c-.011-.119-.56-.266-.862-.267q-7.85-.024-15.7-.01c-1.549,0-1.344-.172-1.406,1.377-.029.72.236.874.9.866C946.4,334.532,949.091,334.552,951.785,334.552Z" transform="translate(-3.509 -12.491)" fill="#54aa13"/>
      <path id="Trazado_168801" data-name="Trazado 168801" d="M998.681,337.019q-4.908,0-9.817,0c-1.329,0-1.687-.357-1.69-1.661,0-1.335-.009-2.67,0-4.006.009-1.01.436-1.455,1.428-1.456q10.092-.01,20.185,0c.961,0,1.391.426,1.4,1.393q.032,2.16,0,4.32c-.014,1.021-.415,1.4-1.46,1.406C1005.384,337.025,1002.033,337.019,998.681,337.019Zm-.049-2.466c2.564,0,5.129.008,7.694,0,1.545-.006,1.348.221,1.4-1.37.018-.626-.145-.874-.825-.871q-8.2.036-16.408,0c-.608,0-.886.183-.817.806a2.33,2.33,0,0,1,0,.549c-.083.671.167.912.874.9C993.241,334.529,995.937,334.552,998.632,334.552Z" transform="translate(-23.365 -12.491)" fill="#54aa13"/>
      <path id="Trazado_168802" data-name="Trazado 168802" d="M962.18,400.222h19.958a6.135,6.135,0,0,1,.862.027,1.152,1.152,0,0,1,.187,2.239,2.983,2.983,0,0,1-.852.092q-20.154.006-40.308,0a3.025,3.025,0,0,1-.852-.091,1.153,1.153,0,0,1,.184-2.241,6.619,6.619,0,0,1,.863-.027Z" transform="translate(-3.534 -42.292)" fill="#54aa13"/>
      <path id="Trazado_168803" data-name="Trazado 168803" d="M962.225,410.828H942.187a4.56,4.56,0,0,1-.784-.018,1.114,1.114,0,0,1-1.033-1.181,1.1,1.1,0,0,1,1.063-1.148,4.853,4.853,0,0,1,.628-.013h40.232a4.562,4.562,0,0,1,.628.013,1.17,1.17,0,0,1,.047,2.327,4.275,4.275,0,0,1-.784.021Z" transform="translate(-3.534 -45.784)" fill="#54aa13"/>
      <path id="Trazado_168804" data-name="Trazado 168804" d="M954.976,419.063H942.168a5.939,5.939,0,0,1-.785-.018,1.074,1.074,0,0,1-1.007-1.03,1.063,1.063,0,0,1,.777-1.212,2.782,2.782,0,0,1,.849-.1q13.045-.007,26.089,0a2.608,2.608,0,0,1,.774.079,1.159,1.159,0,0,1-.217,2.264,6.013,6.013,0,0,1-.706.016Z" transform="translate(-3.534 -49.275)" fill="#54aa13"/>
      <path id="Trazado_168805" data-name="Trazado 168805" d="M975.875,311.024q-4.439,0-8.877,0a5.364,5.364,0,0,1-.862-.036.977.977,0,0,1-.922-1.078,2.159,2.159,0,0,1,.767-1.13c.191-.167.6-.114.909-.114q8.995-.009,17.989,0c.078,0,.157,0,.236,0,.917.02,1.46.453,1.469,1.174s-.512,1.182-1.44,1.184C982.055,311.028,978.965,311.023,975.875,311.024Z" transform="translate(-14.057 -3.494)" fill="#54aa13"/>
      <path id="Trazado_168806" data-name="Trazado 168806" d="M1008.6,427.786c1.99,0,3.981-.006,5.971,0,.965,0,1.459.4,1.479,1.138.02.761-.521,1.219-1.491,1.22q-6.05.009-12.1,0c-.987,0-1.542-.536-1.421-1.348.114-.766.645-1.013,1.355-1.011Q1005.492,427.791,1008.6,427.786Z" transform="translate(-29.232 -53.971)" fill="#54aa13"/>
      <path id="Trazado_168807" data-name="Trazado 168807" d="M993.14,346.752c1.517,0,3.033-.006,4.549,0,.86.005,1.388.447,1.4,1.14a1.228,1.228,0,0,1-1.358,1.211q-4.588.024-9.176,0a1.228,1.228,0,0,1-1.361-1.207c.01-.69.543-1.139,1.4-1.144C990.107,346.745,991.624,346.752,993.14,346.752Z" transform="translate(-23.375 -19.635)" fill="#54aa13"/>
      <path id="Trazado_168808" data-name="Trazado 168808" d="M946.246,321.66c1.542,0,3.084-.007,4.626,0,.82.006,1.317.425,1.351,1.1a1.186,1.186,0,0,1-1.3,1.248q-4.626.027-9.252,0a1.187,1.187,0,0,1-1.31-1.241c.031-.685.519-1.1,1.34-1.109C943.214,321.653,944.73,321.66,946.246,321.66Z" transform="translate(-3.529 -9.002)" fill="#54aa13"/>
      <path id="Trazado_168809" data-name="Trazado 168809" d="M946.3,346.752c1.516,0,3.031-.007,4.547,0,.87.006,1.374.44,1.379,1.15a1.2,1.2,0,0,1-1.355,1.2q-4.587.025-9.173,0a1.2,1.2,0,0,1-1.339-1.217c.015-.709.516-1.129,1.393-1.134C943.266,346.746,944.781,346.752,946.3,346.752Z" transform="translate(-3.529 -19.634)" fill="#54aa13"/>
      <path id="Trazado_168810" data-name="Trazado 168810" d="M946.326,371.817c1.494,0,2.988-.01,4.482,0,.895.009,1.392.424,1.415,1.13.024.743-.5,1.22-1.411,1.223q-4.521.017-9.042,0c-.906,0-1.435-.482-1.414-1.221.02-.705.518-1.124,1.41-1.133C943.286,371.807,944.806,371.817,946.326,371.817Z" transform="translate(-3.528 -30.255)" fill="#54aa13"/>
      <path id="Trazado_168811" data-name="Trazado 168811" d="M993.228,371.818c1.464,0,2.927-.009,4.391,0,.92.008,1.463.451,1.47,1.161s-.55,1.192-1.448,1.195q-4.509.015-9.017,0c-.9,0-1.448-.491-1.43-1.21.017-.686.545-1.135,1.408-1.143C990.144,371.807,991.686,371.818,993.228,371.818Z" transform="translate(-23.375 -30.255)" fill="#54aa13"/>
      <path id="Trazado_168812" data-name="Trazado 168812" d="M993.195,321.66c1.49,0,2.98-.005,4.471,0,.87,0,1.393.426,1.422,1.12.029.714-.532,1.231-1.412,1.234q-4.549.017-9.1,0a1.233,1.233,0,0,1-1.384-1.184c0-.693.532-1.163,1.375-1.169C990.11,321.653,991.652,321.66,993.195,321.66Z" transform="translate(-23.374 -9.003)" fill="#54aa13"/>
    </g>
  </g>
</svg>
