<svg xmlns="http://www.w3.org/2000/svg" xmlns:xlink="http://www.w3.org/1999/xlink" width="259.938" height="278.675" viewBox="0 0 259.938 278.675">
  <defs>
    <filter id="paris-4345139_1920" x="0" y="0" width="259.938" height="278.675" filterUnits="userSpaceOnUse">
      <feOffset dy="3" input="SourceAlpha"/>
      <feGaussianBlur stdDeviation="3" result="blur"/>
      <feFlood flood-opacity="0.161"/>
      <feComposite operator="in" in2="blur"/>
      <feComposite in="SourceGraphic"/>
    </filter>
  </defs>
  <g id="Grupo_128237" data-name="Grupo 128237" transform="translate(5715.911 10738.078)">
    <g transform="matrix(1, 0, 0, 1, -5715.91, -10738.08)" filter="url(#paris-4345139_1920)">
      <rect id="paris-4345139_1920-2" data-name="paris-4345139_1920" width="241.938" height="260.674" rx="20" transform="translate(9 6)" fill="#54aa13"/>
    </g>
    <g id="Grupo_128232" data-name="Grupo 128232" transform="translate(-5618 -10660.877)">
      <path id="Trazado_172036" data-name="Trazado 172036" d="M644.213,159.659c.29.244.6.467.866.732,3.442,3.435,6.872,6.883,10.326,10.306a2.4,2.4,0,0,1,.775,1.862c-.033,2.958-.014,5.917-.014,8.876v.822a24.857,24.857,0,0,1,3.246,1.339,8.925,8.925,0,0,1,4.6,8.155c.023,7.938.007,15.877.007,23.816a3.577,3.577,0,0,1-.014.439,1.346,1.346,0,0,1-1.387,1.3,1.29,1.29,0,0,1-1.222-1.352c-.029-1.553-.014-3.105-.014-4.657q0-8.086,0-16.171v-1.1H588.055c-.015.323-.041.636-.041.949q0,25.177,0,50.357c0,1.447.245,1.692,1.673,1.692q35.029,0,70.055,0c1.381,0,1.641-.255,1.641-1.637q0-11.207,0-22.411a8.324,8.324,0,0,1,.026-.965,1.286,1.286,0,0,1,2.54-.137,4.463,4.463,0,0,1,.068.958q.005,11.294,0,22.586c0,2.837-1.424,4.242-4.283,4.242q-35.029,0-70.055,0c-2.91,0-4.305-1.392-4.305-4.308q0-26.541,0-53.081c0-5.4,2.533-8.629,7.855-9.894v-.907c0-3.134-.008-6.268,0-9.4a4.233,4.233,0,0,1,4.53-4.489c1.082,0,2.165,0,3.377,0,0-.872.056-1.713-.01-2.544-.208-2.632.8-4.476,3.35-5.373Zm1.361,21.709c-.088-.043-.138-.087-.188-.087-2.109-.01-4.218-.012-6.327-.024a4.261,4.261,0,0,1-4.491-4.458c-.015-1.874,0-3.75,0-5.624v-.963H597.957c-1.574,0-2.089.523-2.089,2.119q0,9.052,0,18.1v.842h49.708ZM603.78,167.576h1.12q15.246,0,30.491-.011a2.324,2.324,0,0,1,1.788.737c3.445,3.472,6.925,6.907,10.345,10.4a2.7,2.7,0,0,1,.7,1.68c.065,3.309.031,6.618.031,9.927v.946h5.214V173.348c-2.194,0-4.328.012-6.462,0a4.277,4.277,0,0,1-4.531-4.511c-.006-.674,0-1.348,0-2.02V162.3H605.922c-.176,0-.352-.007-.526,0a1.567,1.567,0,0,0-1.608,1.621C603.756,165.09,603.78,166.262,603.78,167.576ZM593.23,191.32V185.2c-2.754.15-5.332,3.231-5.109,6.072a2.157,2.157,0,0,0,.325.05C590,191.32,591.544,191.32,593.23,191.32Zm68.082-.031c-.064-3.049-2.546-5.95-5.089-6.045v6.045Zm-16.18-26.82c0,1.554-.043,3.176.019,4.794a1.381,1.381,0,0,0,1.342,1.393c1.643.073,3.292.023,4.849.023Zm-1.813,14.143-6.115-6.129c0,1.252,0,2.648,0,4.043,0,.176-.008.352.009.525a1.554,1.554,0,0,0,1.5,1.546C640.306,178.648,641.9,178.612,643.319,178.612Z" transform="translate(-585.375 -159.659)" fill="#fff"/>
      <path id="Trazado_172037" data-name="Trazado 172037" d="M621.846,211.134c-.02.412-.048.7-.048.983,0,6.794.01,13.589-.018,20.383,0,.793.2,1.036,1.023,1.033q13.179-.047,26.361,0c.757,0,1-.172,1-.966q-.047-10.235,0-20.47c0-.792-.237-.984-1-.974-3.164.038-6.327.018-9.491.013a4.181,4.181,0,0,1-.958-.074,1.282,1.282,0,0,1,.062-2.506,3.988,3.988,0,0,1,.787-.051c3.31,0,6.619-.009,9.929,0,2.213.006,3.282,1.08,3.283,3.3q.007,10.5,0,21c0,2.268-1.082,3.35-3.333,3.351q-13.488,0-26.977,0c-2.223,0-3.306-1.061-3.309-3.274q-.01-10.587,0-21.173a2.851,2.851,0,0,1,3.19-3.2c3.4-.012,6.8,0,10.194-.007.738,0,1.349.186,1.6.953.287.883-.378,1.665-1.47,1.677-2.108.026-4.218.009-6.327.009C624.882,211.135,623.422,211.134,621.846,211.134Z" transform="translate(-581.153 -153.555)" fill="#fff"/>
      <path id="Trazado_172038" data-name="Trazado 172038" d="M635.169,215.763c-2.985,0-5.97-.006-8.955,0a1.346,1.346,0,0,1-1.5-.941,1.3,1.3,0,0,1,1.361-1.689c1.316-.035,2.634-.01,3.951-.011q6.98,0,13.959,0a3.54,3.54,0,0,1,.954.083,1.2,1.2,0,0,1,.936,1.391,1.165,1.165,0,0,1-1.137,1.132c-.671.052-1.345.027-2.018.027Q638.943,215.765,635.169,215.763Z" transform="translate(-580.466 -152.977)" fill="#fff"/>
      <path id="Trazado_172039" data-name="Trazado 172039" d="M635.349,217.46q4.433,0,8.867,0c1.1,0,1.7.495,1.682,1.339-.02.8-.629,1.294-1.657,1.295q-8.956.007-17.911,0c-1.092,0-1.685-.5-1.667-1.357.018-.828.578-1.275,1.642-1.276Q630.826,217.454,635.349,217.46Z" transform="translate(-580.464 -152.435)" fill="#fff"/>
      <path id="Trazado_172040" data-name="Trazado 172040" d="M635.277,221.76c2.867,0,5.734,0,8.6,0,.378,0,.863-.073,1.108.124.387.31.854.829.839,1.244s-.532.869-.926,1.184c-.206.163-.621.078-.942.078q-8.691.005-17.38,0a4.256,4.256,0,0,1-.96-.063,1.287,1.287,0,0,1-.073-2.464,4.2,4.2,0,0,1,1.13-.1C629.542,221.757,632.409,221.76,635.277,221.76Z" transform="translate(-580.464 -151.898)" fill="#fff"/>
      <path id="Trazado_172041" data-name="Trazado 172041" d="M635.229,228.714q-4.433,0-8.868,0c-1.119,0-1.7-.456-1.7-1.309s.594-1.323,1.7-1.324q8.955-.005,17.912,0c1.3,0,2.084,1.063,1.4,1.966a2.006,2.006,0,0,1-1.405.638C641.259,228.742,638.244,228.714,635.229,228.714Z" transform="translate(-580.465 -151.358)" fill="#fff"/>
      <path id="Trazado_172042" data-name="Trazado 172042" d="M618.311,183.045h17.134c.235,0,.469,0,.7,0,1.018.025,1.629.532,1.612,1.331s-.626,1.3-1.658,1.3q-17.793.008-35.587,0c-1.057,0-1.622-.474-1.635-1.3-.014-.866.549-1.326,1.681-1.328Q609.435,183.04,618.311,183.045Z" transform="translate(-583.687 -156.736)" fill="#fff"/>
      <path id="Trazado_172043" data-name="Trazado 172043" d="M615.539,178.723h14.5a4.133,4.133,0,0,1,.876.03,1.306,1.306,0,0,1,.056,2.558,3.367,3.367,0,0,1-.874.045q-14.679,0-29.36,0a3.527,3.527,0,0,1-.787-.033,1.309,1.309,0,0,1,.028-2.578,4.006,4.006,0,0,1,.79-.024Z" transform="translate(-583.687 -157.277)" fill="#fff"/>
    </g>
  </g>
</svg>
