<svg xmlns="http://www.w3.org/2000/svg" width="400" height="774.001" viewBox="0 0 400 774.001">
  <g id="Grupo_128241" data-name="Grupo 128241" transform="translate(-180 -2686)">
    <path id="Trazado_190770" data-name="Trazado 190770" d="M100,0H255V772H0V125.5C0,56.189,44.772,0,100,0Z" transform="translate(325 2686)" fill="#feeeab" opacity="0.5"/>
    <g id="Grupo_128182" data-name="Grupo 128182" transform="translate(-505.838 2767.599)">
      <g id="Grupo_110909" data-name="Grupo 110909" transform="translate(685.838 18.701)">
        <path id="Trazado_168718" data-name="Trazado 168718" d="M1307.486,467.779h-251c-64.378,4.284-64.093,75.2-64.093,75.2h0V881.867h251.309V542.981S1244.9,471.825,1307.486,467.779Z" transform="translate(-937.366 -276.077)" fill="#6bb52d"/>
        <g id="Grupo_110809" data-name="Grupo 110809" transform="translate(30.414 294.27)">
          <rect id="Rectángulo_34813" data-name="Rectángulo 34813" width="2.83" height="243.36" fill="#54cc44"/>
        </g>
        <g id="Grupo_110810" data-name="Grupo 110810" transform="translate(156.736 4.798)">
          <path id="Trazado_168719" data-name="Trazado 168719" d="M1427.316,205.988H1305.934V138.7h121.382Zm-118.983-2.4h116.584V141.1H1308.333Z" transform="translate(-1305.934 -138.701)" fill="#54cc44"/>
        </g>
        <g id="Grupo_110811" data-name="Grupo 110811" transform="translate(10.742 42.413)">
          <path id="Trazado_168720" data-name="Trazado 168720" d="M660.441,392.062H549.286V314.583H660.441Zm-108.958-2.2h106.76V316.78H551.483Z" transform="translate(-549.286 -314.583)" fill="#54cc44"/>
        </g>
        <g id="Grupo_110812" data-name="Grupo 110812" transform="translate(246.786 110.625)">
          <path id="Trazado_168721" data-name="Trazado 168721" d="M1811.332,885.41H1695.141V820.76h116.191Zm-113.895-2.3h111.6V823.057h-111.6Z" transform="translate(-1695.141 -820.76)" fill="#54cc44"/>
        </g>
        <path id="Trazado_168722" data-name="Trazado 168722" d="M1281.016,455.642c-62.589,4.046-63.779,75.2-63.779,75.2V869.731H965.927V530.845s-.285-70.919,64.094-75.2Z" transform="translate(-920.93 -268.542)" fill="#fff9f5"/>
        <rect id="Rectángulo_34814" data-name="Rectángulo 34814" width="172.616" height="15.231" transform="translate(77.997 275.63)" fill="#77cc76"/>
        <rect id="Rectángulo_34815" data-name="Rectángulo 34815" width="147.39" height="10.789" transform="translate(77.997 310.852)" fill="#77cc76"/>
        <rect id="Rectángulo_34816" data-name="Rectángulo 34816" width="74.092" height="16.024" transform="translate(77.997 339.33)" fill="#77cc76"/>
        <rect id="Rectángulo_34817" data-name="Rectángulo 34817" width="76.63" height="16.024" transform="translate(173.983 339.33)" fill="#77cc76"/>
        <rect id="Rectángulo_34818" data-name="Rectángulo 34818" width="118.039" height="11.423" transform="translate(77.997 370.189)" fill="#77cc76"/>
        <rect id="Rectángulo_34819" data-name="Rectángulo 34819" width="132.992" height="6.346" transform="translate(77.997 398.746)" fill="#77cc76"/>
        <rect id="Rectángulo_34820" data-name="Rectángulo 34820" width="159.924" height="6.346" transform="translate(77.997 427.304)" fill="#77cc76"/>
        <g id="Grupo_110813" data-name="Grupo 110813" transform="translate(77.428 455.293)">
          <path id="Trazado_168723" data-name="Trazado 168723" d="M1126.705,1199.123h-75.229v-36.041h75.229Zm-74.092-1.137h72.954v-33.766h-72.954Z" transform="translate(-1051.476 -1163.082)" fill="#77cc76"/>
        </g>
        <rect id="Rectángulo_34821" data-name="Rectángulo 34821" width="67.27" height="8.25" transform="translate(170.651 455.862)" fill="#77cc76"/>
        <rect id="Rectángulo_34822" data-name="Rectángulo 34822" width="47.68" height="8.25" transform="translate(170.651 473.314)" fill="#77cc76"/>
        <rect id="Rectángulo_34823" data-name="Rectángulo 34823" width="143.82" height="6.346" transform="translate(77.997 512.978)" fill="#77cc76"/>
        <rect id="Rectángulo_34824" data-name="Rectángulo 34824" width="75.757" height="6.346" transform="translate(77.997 541.536)" fill="#77cc76"/>
        <g id="Grupo_110820" data-name="Grupo 110820" transform="translate(260.35 124.268)">
          <g id="Grupo_110818" data-name="Grupo 110818" transform="translate(10.569 14.581)">
            <g id="Grupo_110817" data-name="Grupo 110817">
              <g id="Grupo_110816" data-name="Grupo 110816">
                <g id="Grupo_110815" data-name="Grupo 110815">
                  <g id="Grupo_110814" data-name="Grupo 110814">
                    <path id="Trazado_168724" data-name="Trazado 168724" d="M1785.052,930.7l-5.613-9.189a1.6,1.6,0,1,1,2.729-1.667l3.969,6.5,10.551-6.245a1.6,1.6,0,0,1,1.628,2.752Z" transform="translate(-1779.205 -919.076)" fill="#44cc49"/>
                  </g>
                </g>
              </g>
            </g>
          </g>
          <g id="Grupo_110819" data-name="Grupo 110819" transform="translate(0 0)">
            <path id="Trazado_168725" data-name="Trazado 168725" d="M1762.574,908.652a20.184,20.184,0,1,1,20.184-20.184A20.207,20.207,0,0,1,1762.574,908.652Zm0-37.484a17.3,17.3,0,1,0,17.3,17.3A17.32,17.32,0,0,0,1762.574,871.167Z" transform="translate(-1742.39 -868.284)" fill="#44cc49"/>
          </g>
        </g>
        <path id="Trazado_168726" data-name="Trazado 168726" d="M1386.989,213.047l.412,8.862,3.518-.164-.692-14.867-15.182.706.164,3.518,9.177-.427-16.178,17.757L1351.375,213.1,1349,215.7l19.436,17.707Z" transform="translate(-1179.35 -181.633)" fill="#44cc49"/>
        <g id="Grupo_110821" data-name="Grupo 110821" transform="translate(25.934 56.557)">
          <path id="Trazado_168727" data-name="Trazado 168727" d="M629.589,380.413a7.272,7.272,0,0,0-1.389-1.134,16.049,16.049,0,0,0-2.124-1.163,17.486,17.486,0,0,0-2.651-.954,15.3,15.3,0,0,0-2.967-.509l-.035,10.877,1,.213a46.4,46.4,0,0,1,5.118,1.541,14.6,14.6,0,0,1,3.856,2.062,8.356,8.356,0,0,1,2.434,2.977,9.623,9.623,0,0,1,.853,4.285,10.427,10.427,0,0,1-1.014,4.752,9.269,9.269,0,0,1-2.77,3.275,12.368,12.368,0,0,1-4.105,1.957,19.978,19.978,0,0,1-5.021.693l-.018,5.517-2.732-.009.018-5.623a26.457,26.457,0,0,1-7.194-1.521,22.652,22.652,0,0,1-6.242-3.462l2.7-5.036a9.293,9.293,0,0,0,1.677,1.372,19.162,19.162,0,0,0,2.57,1.427,23.806,23.806,0,0,0,3.228,1.219,20.667,20.667,0,0,0,3.65.748l.035-10.877c-.21-.071-.429-.133-.656-.186s-.446-.115-.656-.186a44.38,44.38,0,0,1-4.856-1.566,12.132,12.132,0,0,1-3.435-1.981,7.726,7.726,0,0,1-2.067-2.713,8.983,8.983,0,0,1-.7-3.76A11.083,11.083,0,0,1,607,378.08a10.011,10.011,0,0,1,2.533-3.433,12.014,12.014,0,0,1,3.817-2.247,17.739,17.739,0,0,1,4.811-1.009l.017-5.307,2.732.009L620.9,371.4a20.241,20.241,0,0,1,6.3,1.387,22.841,22.841,0,0,1,5.088,2.8Zm-17.345,1.31a3.8,3.8,0,0,0,1.539,3.316,14.972,14.972,0,0,0,4.7,1.96l.034-10.352a7.617,7.617,0,0,0-4.734,1.482A4.552,4.552,0,0,0,612.244,381.723Zm15.129,17.5a3.889,3.889,0,0,0-1.828-3.5,19.738,19.738,0,0,0-5.143-2.145l-.034,10.4a9.576,9.576,0,0,0,5.18-1.244A3.967,3.967,0,0,0,627.374,399.218Z" transform="translate(-604.604 -366.083)" fill="#44cc49"/>
        </g>
        <rect id="Rectángulo_34825" data-name="Rectángulo 34825" width="43.618" height="6.206" transform="translate(67.584 64.49)" fill="#a8ab9f"/>
        <rect id="Rectángulo_34826" data-name="Rectángulo 34826" width="34.282" height="6.206" transform="translate(67.584 78.049)" fill="#a8ab9f"/>
        <rect id="Rectángulo_34827" data-name="Rectángulo 34827" width="38.467" height="6.206" transform="translate(67.584 91.608)" fill="#a8ab9f"/>
        <rect id="Rectángulo_34828" data-name="Rectángulo 34828" width="32.578" height="6.488" transform="translate(309.087 132.619)" fill="#a8ab9f"/>
        <rect id="Rectángulo_34829" data-name="Rectángulo 34829" width="36.554" height="6.488" transform="translate(309.087 146.793)" fill="#a8ab9f"/>
        <rect id="Rectángulo_34830" data-name="Rectángulo 34830" width="43.301" height="6.777" transform="translate(221.82 20.247)" fill="#a8ab9f"/>
        <rect id="Rectángulo_34831" data-name="Rectángulo 34831" width="34.033" height="6.777" transform="translate(221.82 35.053)" fill="#a8ab9f"/>
        <rect id="Rectángulo_34832" data-name="Rectángulo 34832" width="38.188" height="6.778" transform="translate(221.82 49.86)" fill="#a8ab9f"/>
        <g id="Grupo_110822" data-name="Grupo 110822" transform="translate(310.901 177.271)">
          <path id="Trazado_168728" data-name="Trazado 168728" d="M1830.62,1388.476h-12.63v-2.3h10.334l3.488-348.354h2.3Z" transform="translate(-1817.989 -1037.826)" fill="#a8ab9f"/>
        </g>
        <g id="Grupo_110823" data-name="Grupo 110823" transform="translate(121.896 74.69)">
          <path id="Trazado_168729" data-name="Trazado 168729" d="M1207.488,513.51h-2.83V380.9H1298.8V315.224h2.83v68.509h-94.147Z" transform="translate(-1204.658 -315.224)" fill="#a8ab9f"/>
        </g>
        <g id="Grupo_110824" data-name="Grupo 110824" transform="translate(25.451 130.53)">
          <path id="Trazado_168730" data-name="Trazado 168730" d="M822.855,944.518H775.921l-.645-334.031h2.83l.645,331.2h44.1Z" transform="translate(-775.276 -610.487)" fill="#a8ab9f"/>
        </g>
        <g id="Grupo_110825" data-name="Grupo 110825" transform="translate(312.029 202.662)">
          <path id="Trazado_168731" data-name="Trazado 168731" d="M1673.4,607.655h-3.033V573.148c-.041-.569-3.723-66.819,52.186-76.459l.516,2.989c-53.252,9.181-49.715,72.73-49.673,73.371Z" transform="translate(-1670.308 -496.689)" fill="#54cc44"/>
        </g>
        <g id="Grupo_110826" data-name="Grupo 110826" transform="translate(318.758 105.277)">
          <path id="Trazado_168732" data-name="Trazado 168732" d="M1995.651,848.693h-2.3V804.427h-47.509v-2.3h49.806Z" transform="translate(-1945.846 -802.131)" fill="#54cc44"/>
        </g>
        <g id="Grupo_110827" data-name="Grupo 110827" transform="translate(4.823 85.451)">
          <path id="Trazado_168733" data-name="Trazado 168733" d="M570.982,512.043H527.733V471.292h2.2v38.554h41.052Z" transform="translate(-527.733 -471.292)" fill="#54cc44"/>
        </g>
        <g id="Grupo_110828" data-name="Grupo 110828" transform="translate(151.257)">
          <path id="Trazado_168734" data-name="Trazado 168734" d="M1290.063,157.755h-2.4V122.7h58.6v2.4h-56.2Z" transform="translate(-1287.664 -122.701)" fill="#54cc44"/>
        </g>
        <g id="Grupo_110829" data-name="Grupo 110829" transform="translate(262.194 530.547)">
          <path id="Trazado_168735" data-name="Trazado 168735" d="M1593.2,1446.872h-54.349v-3.033h51.316v-82.253h3.033Z" transform="translate(-1538.854 -1361.586)" fill="#54cc44"/>
        </g>
        <g id="Grupo_110830" data-name="Grupo 110830" transform="translate(227.555 510.896)">
          <path id="Trazado_168736" data-name="Trazado 168736" d="M1494.947,1357.216h-47.466V1309.75h47.466Zm-42.916-4.549H1490.4V1314.3h-38.367Z" transform="translate(-1447.481 -1309.75)" fill="#77cc76"/>
        </g>
        <g id="Grupo_110831" data-name="Grupo 110831" transform="translate(235.32 513.222)">
          <path id="Trazado_168737" data-name="Trazado 168737" d="M1484.672,1347.327l-16.707-15.751,5.2-5.517,11.851,11.172L1511,1315.885l4.814,5.858Z" transform="translate(-1467.965 -1315.885)" fill="#77cc76"/>
        </g>
        <g id="Grupo_110849" data-name="Grupo 110849" transform="translate(151.257 462.227)">
          <g id="Grupo_110832" data-name="Grupo 110832" transform="translate(88.99 193.041)">
            <path id="Trazado_168738" data-name="Trazado 168738" d="M1759,1698.663s-3.337,3.5-6.725,4.239-5.758,1.671-5.783,3.682,9.75,3.336,13.627,1.309c5.787-3.026,6.375-2.113,7.016-3.626s-.771-5.557-.729-6.038C1766.457,1697.634,1759,1698.663,1759,1698.663Z" transform="translate(-1746.491 -1698.044)" fill="#202338"/>
          </g>
          <g id="Grupo_110833" data-name="Grupo 110833" transform="translate(101.492 190.996)">
            <path id="Trazado_168739" data-name="Trazado 168739" d="M1782.218,1693.251a13.816,13.816,0,0,0-.375,1.677c.066.035,7.635.883,7.406-.435-.185-1.068-.451-2.23-.451-2.23Z" transform="translate(-1781.836 -1692.263)" fill="#2f6b8c"/>
          </g>
          <g id="Grupo_110834" data-name="Grupo 110834" transform="translate(127.962 194.329)">
            <path id="Trazado_168740" data-name="Trazado 168740" d="M1867.9,1701.93s-2.455,3.413-5.739,4.2c-3.238.776-5.336,2.254-5.495,4.208s7.634,4.514,13.108,1.081c3.6-2.256,4.939-2.128,5.664-3.561s-.38-5.451-.307-5.916C1875.227,1701.368,1867.9,1701.93,1867.9,1701.93Z" transform="translate(-1856.669 -1701.684)" fill="#202338"/>
          </g>
          <g id="Grupo_110835" data-name="Grupo 110835" transform="translate(139.184 192.27)">
            <path id="Trazado_168741" data-name="Trazado 168741" d="M1888.509,1696.48a15.068,15.068,0,0,0-.1,1.688c.061.037,7.275,1.314,7.232.013a10.058,10.058,0,0,0-.457-2.318Z" transform="translate(-1888.395 -1695.863)" fill="#2f6b8c"/>
          </g>
          <g id="Grupo_110836" data-name="Grupo 110836" transform="translate(101.177 86.102)">
            <path id="Trazado_168742" data-name="Trazado 168742" d="M1789.278,1403s-3.505,25.462-4.937,34.069c-1.673,10.065-2.241,18.38-2.708,23.589-.587,6.552-.261,40.081-.672,42s8.288.92,8.288.92,6.38-43.711,8.129-50.688c1.628-6.5,6.107-33.282,7.593-31.508s6.3,32.286,7.4,37.41,5.544,45.461,5.544,45.461,7.394,1.605,9.412,0c0,0-.451-35.969-1.152-45.576-.267-3.661,2.316-43.829-3.875-60.028C1819.025,1390.083,1789.278,1403,1789.278,1403Z" transform="translate(-1780.946 -1395.712)" fill="#323657"/>
          </g>
          <path id="Trazado_168743" data-name="Trazado 168743" d="M1802.918,1419.744l-.4,3.823s10.68,4.327,36.678,4.329v-4.375Z" transform="translate(-1693.713 -1325.141)" fill="#faa146"/>
          <g id="Grupo_110839" data-name="Grupo 110839" transform="translate(66.465 46.491)">
            <g id="Grupo_110838" data-name="Grupo 110838">
              <g id="Grupo_110837" data-name="Grupo 110837">
                <path id="Trazado_168744" data-name="Trazado 168744" d="M1695.6,1283.724s-1.556,3.434-2.478,3.648-2.02,1.361-2.81,1.714-3.279.546-3.946,1.2c-.273.266-1.317,2.557-1.93,3.038s-1.969,1.306-1.548,1.821,1.831.108,1.831.108a1.01,1.01,0,0,0-.3,1.042c.445,1.108,1.189,1.156,1.189,1.156s-.236.833.064,1.246a2,2,0,0,0,1.386.934,1.9,1.9,0,0,0,.641,1.145,1.7,1.7,0,0,0,1.653.273s.741,1.021,1.423.821a6.112,6.112,0,0,0,1.565-1.01,23.288,23.288,0,0,0,5.14-7.89,28.093,28.093,0,0,1,3.429-6.649Z" transform="translate(-1682.807 -1283.724)" fill="#f8d2bf"/>
              </g>
            </g>
          </g>
          <g id="Grupo_110840" data-name="Grupo 110840" transform="translate(79.962 34.494)">
            <path id="Trazado_168745" data-name="Trazado 168745" d="M1720.966,1279.168s12.084,5.5,16.379,4.44c1.985-.488,4.6-3.228,7.084-6.449.819-1.061,1.623-2.175,2.386-3.277a.007.007,0,0,0,0-.005c3.048-4.4,5.437-8.62,5.437-8.62s9.01-10.559,1.779-15.266a4.808,4.808,0,0,0-5.033,1.6c-2.412,2.582-5.241,7.986-5.873,9.363s-9.482,14.141-9.941,14.429-4.326-.73-7.427-.989c-5.056-.422-4.052-.635-4.052-.635Z" transform="translate(-1720.966 -1249.808)" fill="#f08d29"/>
          </g>
          <path id="Trazado_168746" data-name="Trazado 168746" d="M1808.338,1243.1s-9.275,1.918-10.376,2.893c-1.195,1.037-3.3,11.2-3.427,14.026a109.186,109.186,0,0,0,2.313,19.053c1.194,4.4-1.573,23.14.643,26.229,0,0,19.117,6.132,37.479,3.743,0,0-3.942-17.684-3.207-23.716.941-7.728,3.207-25.531,3.207-25.531s-2.453-11.988-4.088-13.372-13-3.634-13-3.634Z" transform="translate(-1688.545 -1210.78)" fill="#f08d29"/>
          <path id="Trazado_168747" data-name="Trazado 168747" d="M1891.969,1312.064s1.752,11.4,1.629,12.131S1901.529,1321.905,1891.969,1312.064Z" transform="translate(-1751.521 -1255.549)" fill="#b86c1f"/>
          <g id="Grupo_110841" data-name="Grupo 110841" transform="translate(0 1.201)">
            <path id="Trazado_168748" data-name="Trazado 168748" d="M1953.147,1429.63l8.057-13.373a4.791,4.791,0,0,0-1.631-6.575l-20.19-12.165a4.79,4.79,0,0,0-6.575,1.631l-8.057,13.373a4.79,4.79,0,0,0,1.631,6.575l20.189,12.165A4.791,4.791,0,0,0,1953.147,1429.63Z" transform="translate(-1772.263 -1311.533)" fill="#c4b4af"/>
            <rect id="Rectángulo_34833" data-name="Rectángulo 34833" width="26.999" height="160.939" transform="translate(177.175 90.989) rotate(121.07)" fill="#eb4747"/>
            <rect id="Rectángulo_34834" data-name="Rectángulo 34834" width="9" height="160.939" transform="translate(34.68 15.641) rotate(-58.931)" fill="#2b69cf"/>
            <rect id="Rectángulo_34835" data-name="Rectángulo 34835" width="9" height="160.938" transform="translate(172.531 98.697) rotate(121.069)" fill="#3676e0"/>
            <rect id="Rectángulo_34836" data-name="Rectángulo 34836" width="9" height="160.938" transform="matrix(-0.516, 0.857, -0.857, -0.516, 167.886, 106.407)" fill="#4785eb"/>
            <path id="Trazado_168749" data-name="Trazado 168749" d="M1520.294,1186.741l13.933-23.125-31.281-6.31-8.044-1.623,5.194,6.353Z" transform="translate(-1494.902 -1155.684)" fill="#eddad3"/>
            <path id="Trazado_168750" data-name="Trazado 168750" d="M1592.948,1185.819a4.5,4.5,0,0,0,4.645-7.709Z" transform="translate(-1558.268 -1170.177)" fill="#deccc6"/>
            <path id="Trazado_168751" data-name="Trazado 168751" d="M1579.817,1207.611a4.5,4.5,0,0,0,4.645-7.709Z" transform="translate(-1549.782 -1184.261)" fill="#e3d1ca"/>
            <path id="Trazado_168752" data-name="Trazado 168752" d="M1566.687,1229.405a4.5,4.5,0,0,0,4.645-7.709Z" transform="translate(-1541.296 -1198.347)" fill="#eddad3"/>
            <rect id="Rectángulo_34837" data-name="Rectángulo 34837" width="9" height="9.89" transform="matrix(0.516, -0.857, 0.857, 0.516, 168.801, 96.45)" fill="#b39696"/>
            <rect id="Rectángulo_34838" data-name="Rectángulo 34838" width="9" height="9.889" transform="translate(177.272 101.554) rotate(121.07)" fill="#dbb8b8"/>
            <rect id="Rectángulo_34839" data-name="Rectángulo 34839" width="9" height="9.889" transform="translate(172.627 109.262) rotate(121.067)" fill="#f2cbcb"/>
            <path id="Trazado_168753" data-name="Trazado 168753" d="M1529.583,1171.324l-34.681-15.641,39.325,7.933Z" transform="translate(-1494.902 -1155.684)" fill="#deccc6"/>
            <path id="Trazado_168754" data-name="Trazado 168754" d="M1524.939,1179.033l-30.036-23.349,34.681,15.641Z" transform="translate(-1494.902 -1155.684)" fill="#e3d1ca"/>
            <path id="Trazado_168755" data-name="Trazado 168755" d="M1524.939,1179.033l-30.036-23.349,25.391,31.058Z" transform="translate(-1494.902 -1155.684)" fill="#eddad3"/>
            <path id="Trazado_168756" data-name="Trazado 168756" d="M1500.1,1162.037l2.85-4.73-8.044-1.623Z" transform="translate(-1494.902 -1155.684)" fill="#4785eb"/>
          </g>
          <g id="Grupo_110846" data-name="Grupo 110846" transform="translate(117.345 84.135)">
            <g id="Grupo_110845" data-name="Grupo 110845">
              <g id="Grupo_110844" data-name="Grupo 110844">
                <g id="Grupo_110843" data-name="Grupo 110843">
                  <g id="Grupo_110842" data-name="Grupo 110842">
                    <path id="Trazado_168757" data-name="Trazado 168757" d="M1830.755,1400.845a3.9,3.9,0,0,0,1.216-.287s.624-.44,1.086-.727a3.763,3.763,0,0,1,.366-.206,7.152,7.152,0,0,0,2.02-1.076,47.834,47.834,0,0,0,3.425-4.329l-1.582-1.994-1.215-2.077s-6.157.953-6.954,1.476a2.413,2.413,0,0,0-.219.161,9.078,9.078,0,0,0-1.191,1.457c-.111.113-1.129,1.3-1.049,1.767a1.533,1.533,0,0,0,.857,1.219,3.655,3.655,0,0,0,.946,1.777,2.277,2.277,0,0,0,1.241,1.581S1830.052,1400.737,1830.755,1400.845Z" transform="translate(-1826.654 -1390.149)" fill="#f8d2bf"/>
                  </g>
                </g>
              </g>
            </g>
          </g>
          <path id="Trazado_168758" data-name="Trazado 168758" d="M1862.657,1251.5c-1.217.471-2.505,3.414-1.547,9.185a24.881,24.881,0,0,0,3.894,10.285c.821,1.447,5.341,10.369,4.529,11.543s-8.485,8.744-8.93,9.36-9.011,8.371-9.011,8.371l4.362,6.1s18.5-14.45,19.942-15.892,5.757-4.474,4.162-9.513c-1.622-5.122-4.536-17.113-5.054-18.051S1870.7,1248.383,1862.657,1251.5Z" transform="translate(-1725.426 -1216.106)" fill="#f08d29"/>
          <g id="Grupo_110848" data-name="Grupo 110848" transform="translate(67.923 54.318)">
            <g id="Grupo_110847" data-name="Grupo 110847">
              <path id="Trazado_168759" data-name="Trazado 168759" d="M1687.573,1309.1s2.966-3.3,4.445-3.243.473,1.312.473,1.312.974-1.254,2.028-.592-.2,2.064-.2,2.064a1.223,1.223,0,0,1,1.768.287c.78,1.041-.517,1.97-.517,1.97s1.959-.292,1.542,1.309c-.7,2.7-3.62,3.991-3.62,3.991s-.834.326-1.515-.73a1.732,1.732,0,0,1-2.35-1.43s-2.21-.511-1.533-2.222A1.536,1.536,0,0,1,1687.573,1309.1Z" transform="translate(-1686.932 -1305.853)" fill="#f8d2bf"/>
            </g>
          </g>
          <path id="Trazado_168760" data-name="Trazado 168760" d="M1821.692,1240.411s-.557-2.538,7.386-3.125,13.316,1.2,13.466,3.476-20.121,7.968-20.121,7.968Z" transform="translate(-1706.097 -1207.147)" fill="#faa146"/>
          <path id="Trazado_168761" data-name="Trazado 168761" d="M1825.247,1161.618s-11.157-4.129-10.46,10.7,3.312,16.334,10.652,14.263,7.955-11.428,8.911-15.93S1828.9,1162.265,1825.247,1161.618Z" transform="translate(-1701.62 -1157.976)" fill="#f8d2bf"/>
          <path id="Trazado_168762" data-name="Trazado 168762" d="M1828.383,1221.82s2.673,1.178,11.38-2.657a39.41,39.41,0,0,1,1.462-11.544c1.708-5.575-11.684,7.433-11.684,7.433.141.1.168.656.087,1.434a15.806,15.806,0,0,1-.429,2.3C1828.71,1220.654,1828.824,1220.323,1828.383,1221.82Z" transform="translate(-1710.426 -1187.15)" fill="#f8d2bf"/>
          <path id="Trazado_168763" data-name="Trazado 168763" d="M1832.246,1172.315s.032-3.961-1.616-4.325-2.495,1.925-2.495,1.925l-1.326-.071s1.185-4.014-.385-4.934-10.964-.112-12.143-1.463.531-9.378,3.094-10.165,9.564-2.385,14.01,1.574c0,0,3.819,1.65,3.974,4.8S1833.586,1170.167,1832.246,1172.315Z" transform="translate(-1701.066 -1152.288)" fill="#163342"/>
          <path id="Trazado_168764" data-name="Trazado 168764" d="M1830.691,1229.956c8.648-1.454,9.94-6.372,9.959-6.449-3.362,4.335-9.53,4.145-9.53,4.145A15.829,15.829,0,0,1,1830.691,1229.956Z" transform="translate(-1711.918 -1198.316)" fill="#b07c63"/>
          <path id="Trazado_168765" data-name="Trazado 168765" d="M1854.2,1190.4c.493-1.307,3.276-1.142,2.991.93s-2.585,5.261-3.509,4.663S1853.522,1192.2,1854.2,1190.4Z" transform="translate(-1726.502 -1176.378)" fill="#f8d2bf"/>
        </g>
        <g id="Grupo_110908" data-name="Grupo 110908" transform="translate(0 448.39)">
          <g id="Grupo_110854" data-name="Grupo 110854" transform="translate(38.653 15.283)">
            <g id="Grupo_110853" data-name="Grupo 110853">
              <g id="Grupo_110852" data-name="Grupo 110852">
                <g id="Grupo_110851" data-name="Grupo 110851">
                  <g id="Grupo_110850" data-name="Grupo 110850">
                    <path id="Trazado_168766" data-name="Trazado 168766" d="M1202.583,1157.842s6.669,3.262,5.02,12.137-2.379,10.071-.534,13.539,4.021,18.26,2.361,21.064-20.548-12.321-23.167-25.012,1.66-18.335,3.173-20.438S1196.694,1154.854,1202.583,1157.842Z" transform="translate(-1185.432 -1156.378)" fill="#0e2d3d"/>
                  </g>
                </g>
              </g>
            </g>
          </g>
          <g id="Grupo_110856" data-name="Grupo 110856">
            <g id="Grupo_110855" data-name="Grupo 110855">
              <path id="Trazado_168767" data-name="Trazado 168767" d="M1076.153,1113.17h28.087v24.645l-4.288-4.288h-23.8Z" transform="translate(-1076.153 -1113.17)" fill="#78c2ff"/>
            </g>
          </g>
          <g id="Grupo_110857" data-name="Grupo 110857" transform="translate(51.724 204.271)">
            <path id="Trazado_168768" data-name="Trazado 168768" d="M1229.325,1691.993a16.666,16.666,0,0,0,1.947,3.255c.933,1.219,3.837,6.221,5.116,6.57s5.232,1.046,5.581,3.256.523,3.778-3.372,3.953-6.454.407-8.314-2.325a20.246,20.246,0,0,0-4.825-4.709v7.129h-1.511s-.7-7.42-1.1-7.943-1.453-6.22,2.151-9.186S1229.325,1691.993,1229.325,1691.993Z" transform="translate(-1222.383 -1690.675)" fill="#163342"/>
          </g>
          <g id="Grupo_110858" data-name="Grupo 110858" transform="translate(53.514 204.805)">
            <path id="Trazado_168769" data-name="Trazado 168769" d="M1239.661,1702.794s-3.489.872-4.825,0-5.883-8.556-7.389-9.016c0,0,1.459-2.96,5.151-.809C1232.6,1692.969,1238.672,1701.515,1239.661,1702.794Z" transform="translate(-1227.446 -1692.185)" fill="#eea886"/>
          </g>
          <g id="Grupo_110862" data-name="Grupo 110862" transform="translate(99.582 79.889)">
            <g id="Grupo_110861" data-name="Grupo 110861">
              <g id="Grupo_110860" data-name="Grupo 110860">
                <g id="Grupo_110859" data-name="Grupo 110859">
                  <path id="Trazado_168770" data-name="Trazado 168770" d="M1357.878,1343.042s2.42.465,3.247-.673a7.9,7.9,0,0,1,2.805-1.939c.661-.307,2.34-2,2.735-1.175s-2.632,2.932-3.18,3.5,2.97.819,3.576,1.371-.14,6.352-2.533,5.9-4.652-2.513-5.089-2.51a15.079,15.079,0,0,1-1.755-.26Z" transform="translate(-1357.686 -1339.029)" fill="#eea886"/>
                </g>
              </g>
            </g>
          </g>
          <g id="Grupo_110866" data-name="Grupo 110866" transform="translate(106.54 84.749)">
            <g id="Grupo_110865" data-name="Grupo 110865">
              <g id="Grupo_110864" data-name="Grupo 110864">
                <g id="Grupo_110863" data-name="Grupo 110863">
                  <path id="Trazado_168771" data-name="Trazado 168771" d="M1379.24,1352.769s7.236,1.869,7.613,2.4.253.914-.43.767-7.043-1.6-7.043-1.6,8.191,3.652,8.6,4.016c.236.214.04.975-.334.931s-8.7-3.2-8.7-3.2,7.642,3.423,7.889,3.829a.576.576,0,0,1-.723.794c-.585-.215-7.857-2.99-7.857-2.99s5.406,2.841,5.412,3.308c0,.285-.135.952-1.507.175s-4.8-2.27-4.8-2.27Z" transform="translate(-1377.356 -1352.769)" fill="#eea886"/>
                </g>
              </g>
            </g>
          </g>
          <g id="Grupo_110867" data-name="Grupo 110867" transform="translate(33.276 210.071)">
            <path id="Trazado_168772" data-name="Trazado 168772" d="M1176.12,1707.211s3.895,5.784,5.465,7.18c0,0,3.488,1.279,3.837,3.72s.291,4.071-3.837,4.188-6.834-.625-7.589-3.125a11.391,11.391,0,0,0-2.41-4.2v5.232h-.93s-.233-5.058-.291-5.988-.668-4.507,1.294-6.09A5.444,5.444,0,0,1,1176.12,1707.211Z" transform="translate(-1170.23 -1707.071)" fill="#163342"/>
          </g>
          <g id="Grupo_110868" data-name="Grupo 110868" transform="translate(28.086 96.497)">
            <path id="Trazado_168773" data-name="Trazado 168773" d="M1164.021,1388.045a36.5,36.5,0,0,0-6.252,13.982c-1.334,7.587.788,33.05.73,36.8s-3.546,13.081-2.849,20.144,3.451,42.219,3.451,42.219l7.537-1.5s-.436-35.841,0-38.806,1.311-13.773,1.485-14.993,11.072-33.279,11.072-38.748S1175.881,1379.122,1164.021,1388.045Z" transform="translate(-1155.557 -1385.98)" fill="#1d3b54"/>
          </g>
          <g id="Grupo_110869" data-name="Grupo 110869" transform="translate(44.346 99.46)">
            <path id="Trazado_168774" data-name="Trazado 168774" d="M1218.438,1395.959s8.081,30.841,9.04,35.114,2.349,7.8,2.349,9.611a63.535,63.535,0,0,1-1.564,10.969L1218,1500.731h-9.773s5.445-29.443,5.592-35.2,4.588-13.964,3.717-16.406-14.04-30.609-14.04-30.609S1193.527,1387.006,1218.438,1395.959Z" transform="translate(-1201.527 -1394.358)" fill="#1d3b54"/>
          </g>
          <g id="Grupo_110870" data-name="Grupo 110870" transform="translate(34.705 210.211)">
            <path id="Trazado_168775" data-name="Trazado 168775" d="M1184.2,1714.647s-3.989,2.23-6.557-.633a20.23,20.23,0,0,1-3.369-5.631l4.462-.915Z" transform="translate(-1174.269 -1707.467)" fill="#eea886"/>
          </g>
          <g id="Grupo_110872" data-name="Grupo 110872" transform="translate(54.986 48.651)">
            <g id="Grupo_110871" data-name="Grupo 110871">
              <path id="Trazado_168776" data-name="Trazado 168776" d="M1234.542,1250.714a10.08,10.08,0,0,1,5.849,3.011,38.64,38.64,0,0,1,5.539,8.436c.659,1.439,9.9,14.77,10.38,15.07s5.125,1.852,8.2,2.887c4.75,1.6,14.272,5.059,14.272,5.059l-1.89,5.987s-17.906-5.859-22.39-6.964c-5.483-1.351-18.106-17.545-18.106-17.545S1226.989,1255.629,1234.542,1250.714Z" transform="translate(-1231.607 -1250.714)" fill="#285173"/>
            </g>
          </g>
          <g id="Grupo_110874" data-name="Grupo 110874" transform="translate(28.976 46.088)">
            <g id="Grupo_110873" data-name="Grupo 110873">
              <path id="Trazado_168777" data-name="Trazado 168777" d="M1181.2,1243.693a45.163,45.163,0,0,0,5.814,2.338c1.5.3,7.312,7.852,8.331,10.609s0,6.893-2.1,11.748-.119,6.473-1.078,11.328-.651,23.018-.471,25.715-28.055,6.785-33.629,1.87c0,0,3.774-16.369,8.242-21.04.966-1.01.864-7.744.2-9.422s-8.092-14.206-8.092-14.206-.546-12.706,2.7-15.224c2.817-2.188,10.495-2.968,11.874-3.447A23.554,23.554,0,0,1,1181.2,1243.693Z" transform="translate(-1158.071 -1243.467)" fill="#ff7e55"/>
            </g>
          </g>
          <g id="Grupo_110876" data-name="Grupo 110876" transform="translate(43.902 35.428)">
            <g id="Grupo_110875" data-name="Grupo 110875">
              <path id="Trazado_168778" data-name="Trazado 168778" d="M1210.535,1219.235s-.129,1.188-.278,2.795c-.057.635-.12,1.337-.177,2.055a48.481,48.481,0,0,0-.226,5.645s-4.486,4.495-9.584-5.245a13.38,13.38,0,0,0,.529-9.484C1199.184,1209.53,1210.535,1219.235,1210.535,1219.235Z" transform="translate(-1200.269 -1213.329)" fill="#eea886"/>
            </g>
          </g>
          <g id="Grupo_110877" data-name="Grupo 110877" transform="translate(64.592 61.253)">
            <path id="Trazado_168779" data-name="Trazado 168779" d="M1260.891,1297.885s1.079-7.179-.068-11.546a27.883,27.883,0,0,1-2.058,9.086Z" transform="translate(-1258.764 -1286.34)" fill="#183c59"/>
          </g>
          <g id="Grupo_110878" data-name="Grupo 110878" transform="translate(40.455 46.472)">
            <path id="Trazado_168780" data-name="Trazado 168780" d="M1190.526,1245.355s3.085,9.111,11.555,8.441,4.015-7.693,4.015-7.693a18.743,18.743,0,0,0-2.7-1.325c-.594-.114-9.364-.225-9.364-.225Z" transform="translate(-1190.526 -1244.553)" fill="#eea886"/>
          </g>
          <g id="Grupo_110879" data-name="Grupo 110879" transform="translate(56.024 48.022)">
            <path id="Trazado_168781" data-name="Trazado 168781" d="M1234.542,1248.934s4.436,12.271,4.436,24.777.358,32.878,1.906,39.312,5.957,26.329,5.957,26.329l3.455-1.787s-8.308-31.753-8.936-34.042.477-26.479,1.073-28.5,3.129-11.04,2.736-13.542c-.5-3.153-3.447-7.819-8.213-11.83Z" transform="translate(-1234.542 -1248.934)" fill="#285173"/>
          </g>
          <g id="Grupo_110880" data-name="Grupo 110880" transform="translate(23.409 46.89)">
            <path id="Trazado_168782" data-name="Trazado 168782" d="M1161.054,1245.736a127.557,127.557,0,0,1,4.154,20.135c1.4,11.307-4.288,63.788-8.1,75.7l-14.772-2.383s3.179-37.1,7.5-43.848,5.69-12.724,1.031-26.814,2.042-21.069,2.042-21.069S1159.759,1245.883,1161.054,1245.736Z" transform="translate(-1142.335 -1245.736)" fill="#285173"/>
          </g>
          <g id="Grupo_110881" data-name="Grupo 110881" transform="translate(20.242 72.383)">
            <path id="Trazado_168783" data-name="Trazado 168783" d="M1171.205,1329.752l-17.912,31.025-19.912-11.5,17.134-31.474Z" transform="translate(-1133.381 -1317.807)" fill="#616161"/>
          </g>
          <g id="Grupo_110882" data-name="Grupo 110882" transform="translate(22.314 74.786)">
            <path id="Trazado_168784" data-name="Trazado 168784" d="M1172.832,1335.211l-15.908,27.554-17.685-10.21,15.217-27.953Z" transform="translate(-1139.239 -1324.601)" fill="#e0cec7"/>
          </g>
          <g id="Grupo_110883" data-name="Grupo 110883" transform="translate(42.609 76.858)">
            <path id="Trazado_168785" data-name="Trazado 168785" d="M1204.045,1336.522l1.117-1.934-7.15-4.128-1.4,1.773Z" transform="translate(-1196.616 -1330.46)" fill="#616161"/>
          </g>
          <g id="Grupo_110889" data-name="Grupo 110889" transform="translate(40.972 95.289)">
            <g id="Grupo_110888" data-name="Grupo 110888">
              <g id="Grupo_110887" data-name="Grupo 110887">
                <g id="Grupo_110886" data-name="Grupo 110886">
                  <g id="Grupo_110885" data-name="Grupo 110885">
                    <g id="Grupo_110884" data-name="Grupo 110884">
                      <path id="Trazado_168786" data-name="Trazado 168786" d="M1200.2,1392.209a3.686,3.686,0,0,1-1.172-.169s-.626-.363-1.086-.594a3.54,3.54,0,0,0-.363-.164,6.8,6.8,0,0,1-2-.844,45.481,45.481,0,0,1-3.6-3.8l1.325-2.014.972-2.063s5.889.38,6.686.807a2.212,2.212,0,0,1,.22.134,8.689,8.689,0,0,1,1.247,1.274c.113.1,1.175,1.136,1.138,1.579a1.451,1.451,0,0,1-.705,1.222,3.473,3.473,0,0,1-.743,1.757,2.157,2.157,0,0,1-1.038,1.6S1200.854,1392.048,1200.2,1392.209Z" transform="translate(-1191.986 -1382.565)" fill="#eea886"/>
                    </g>
                  </g>
                </g>
              </g>
            </g>
          </g>
          <g id="Grupo_110891" data-name="Grupo 110891" transform="translate(19.785 48.469)">
            <g id="Grupo_110890" data-name="Grupo 110890">
              <path id="Trazado_168787" data-name="Trazado 168787" d="M1149.349,1250.381s-5.439-1.558-8.556,4.436a27.356,27.356,0,0,0-3.518,11.478c-.393,2.764-2.169,10.309-2.349,11.089s-4.2,10.07-2.357,13.318c1.853,3.264,20.68,12.873,20.56,13.592s3.26-7.264,3.26-7.264-7.618-4.246-8.865-5.553c-2.026-2.124-6.3-4.412-5.424-7.046,1.032-3.095,4.131-13.535,4.85-15.063S1153.935,1252.329,1149.349,1250.381Z" transform="translate(-1132.087 -1250.199)" fill="#285173"/>
            </g>
          </g>
          <g id="Grupo_110896" data-name="Grupo 110896" transform="translate(42.064 17.449)">
            <g id="Grupo_110895" data-name="Grupo 110895">
              <g id="Grupo_110894" data-name="Grupo 110894">
                <g id="Grupo_110893" data-name="Grupo 110893">
                  <g id="Grupo_110892" data-name="Grupo 110892">
                    <path id="Trazado_168788" data-name="Trazado 168788" d="M1207.847,1162.783s9.684,3.043,4.427,19.755-18.483-1.937-17.1-12.119S1207.847,1162.783,1207.847,1162.783Z" transform="translate(-1195.074 -1162.5)" fill="#eea987"/>
                  </g>
                </g>
              </g>
            </g>
          </g>
          <g id="Grupo_110901" data-name="Grupo 110901" transform="translate(41.301 16.107)">
            <g id="Grupo_110900" data-name="Grupo 110900">
              <g id="Grupo_110899" data-name="Grupo 110899">
                <g id="Grupo_110898" data-name="Grupo 110898">
                  <g id="Grupo_110897" data-name="Grupo 110897">
                    <path id="Trazado_168789" data-name="Trazado 168789" d="M1211.869,1170.081a21.846,21.846,0,0,1-12.865,5.313s-3.095,3.629-3.333,5.053c0,0-7.185-12.247,1.647-19.588S1215.115,1167.056,1211.869,1170.081Z" transform="translate(-1192.916 -1158.706)" fill="#0e2d3d"/>
                  </g>
                </g>
              </g>
            </g>
          </g>
          <g id="Grupo_110906" data-name="Grupo 110906" transform="translate(44.125 29.784)">
            <g id="Grupo_110905" data-name="Grupo 110905">
              <g id="Grupo_110904" data-name="Grupo 110904">
                <g id="Grupo_110903" data-name="Grupo 110903">
                  <g id="Grupo_110902" data-name="Grupo 110902">
                    <path id="Trazado_168790" data-name="Trazado 168790" d="M1204.262,1200.716c-.062-1.216-.812-3.984-2.619-3.209s.111,6.412,1.31,6.065C1202.953,1203.572,1204.41,1203.594,1204.262,1200.716Z" transform="translate(-1200.902 -1197.372)" fill="#eea987"/>
                  </g>
                </g>
              </g>
            </g>
          </g>
          <g id="Grupo_110907" data-name="Grupo 110907" transform="translate(46.581 39.57)">
            <path id="Trazado_168791" data-name="Trazado 168791" d="M1215.152,1229.6c-.057.635-.12,1.337-.177,2.055,0,0-4.274-.255-7.131-6.613C1208.03,1225.319,1211.162,1229.919,1215.152,1229.6Z" transform="translate(-1207.844 -1225.041)" fill="#a77860"/>
          </g>
        </g>
      </g>
    </g>
  </g>
</svg>
