<svg xmlns="http://www.w3.org/2000/svg" width="52.744" height="60" viewBox="0 0 52.744 60">
  <g id="Grupo_128229" data-name="Grupo 128229" transform="translate(-896 -1434)">
    <g id="Grupo_128214" data-name="Grupo 128214" transform="translate(896 1434)">
      <path id="Trazado_172034" data-name="Trazado 172034" d="M625.246,159.662a2.975,2.975,0,0,1,2.127,3.279c-.065,2.635-.016,5.273-.019,7.91,0,.668-.284,1.056-.793,1.109-.561.059-.961-.367-.962-1.055q-.007-4.072,0-8.144c0-.156.009-.314-.005-.469a.867.867,0,0,0-.857-.866,4.652,4.652,0,0,0-.469-.005H598.776c-1.066,0-1.307.24-1.307,1.3q0,15.409,0,30.818c0,1.024.252,1.276,1.278,1.276h25.609c.98,0,1.242-.265,1.242-1.254q0-9.286,0-18.573c0-1.017.253-1.266,1.286-1.266q2.314,0,4.629,0c.695,0,1.1.314,1.112.85.018.559-.4.9-1.116.906-1.363,0-2.725,0-4.121,0V179h.661c1.192,0,2.383-.007,3.575,0a.883.883,0,1,1,.008,1.751c-1.4.01-2.8,0-4.242,0v3.516h.536c1.211,0,2.422,0,3.633,0,.67,0,1.078.355,1.066.9-.012.521-.405.855-1.046.858-1.383.006-2.767,0-4.187,0v3.516h3.692c.2,0,.391-.007.587,0a.881.881,0,1,1-.027,1.752c-1.191.011-2.383,0-3.575,0h-.724v3.515h3.595a7.615,7.615,0,0,1,.878.011.821.821,0,0,1,.8.853.83.83,0,0,1-.772.88,3.069,3.069,0,0,1-.526.013H620.352v3.515h10.934a3.972,3.972,0,0,1,.527.008.848.848,0,0,1,.809.849.865.865,0,0,1-.827.893,5.143,5.143,0,0,1-.527.007H620.354v5.508h14.558c.973,0,1.234-.268,1.234-1.262q0-18.954,0-37.907c0-1.043-.236-1.285-1.263-1.288-1.5,0-3.008,0-4.512,0a2.388,2.388,0,0,1-.524-.03.821.821,0,0,1-.718-.921.774.774,0,0,1,.794-.786c1.914-.013,3.829-.049,5.74.029A2.532,2.532,0,0,1,637.9,167.6c.012.194.007.39.007.585q0,18.925,0,37.85c0,2.073-1.01,3.075-3.1,3.075H620.362v5.274h.524q4.394,0,8.79,0c.911,0,1.192-.282,1.2-1.182,0-.41,0-.82,0-1.231.007-.685.326-1.09.863-1.1s.885.4.892,1.07c.006.508.008,1.016,0,1.523a2.622,2.622,0,0,1-2.675,2.671c-2.969.014-5.938,0-8.908,0h-.722c0,.255,0,.48,0,.7a2.646,2.646,0,0,1-2.836,2.81q-6.944.006-13.888,0-7.735,0-15.471,0a2.672,2.672,0,0,1-2.967-2.971q0-21.65,0-43.3a2.662,2.662,0,0,1,2.955-2.977q2.285-.008,4.57,0c.656,0,1.028.33,1.033.861,0,.553-.383.887-1.073.891-1.5.008-3.008,0-4.512,0-.952,0-1.215.268-1.215,1.216q0,21.65,0,43.3c0,.944.273,1.215,1.22,1.215h29.242c.881,0,1.181-.286,1.182-1.137q0-9.9,0-19.8c0-.1-.008-.194-.016-.386H598.714a2.681,2.681,0,0,1-3-2.993c0-10.214.017-20.429-.019-30.643a3.009,3.009,0,0,1,2.128-3.277Z" transform="translate(-585.161 -159.662)" fill="#fff"/>
      <path id="Trazado_172035" data-name="Trazado 172035" d="M616.21,194.3H605.138c-.948,0-1.232-.271-1.219-1.214.019-1.326-.019-2.66.111-3.976a4.989,4.989,0,0,1,2.983-4.188c.963-.461,1.992-.785,2.984-1.19a3.234,3.234,0,0,0,1.862-1.331.724.724,0,0,0-.206-1.082,6.524,6.524,0,0,1-2.7-4.929,28.577,28.577,0,0,1,.163-6.062,7.295,7.295,0,0,1,14.367.767,32.715,32.715,0,0,1-.026,5.608,6.584,6.584,0,0,1-2.722,4.675c-.362.281-.436.57-.2.875a4.276,4.276,0,0,0,1.094,1.084,12.578,12.578,0,0,0,1.83.762c.561.224,1.134.42,1.684.668a5.421,5.421,0,0,1,3.363,5.006c.061,1.188.031,2.382.017,3.572-.008.667-.363.955-1.124.955Q621.8,194.306,616.21,194.3Zm-10.448-1.8h20.987c0-.955.045-1.872-.01-2.784a3.744,3.744,0,0,0-2.544-3.464c-.507-.2-1.019-.392-1.534-.573-1.678-.592-3.319-1.228-3.936-3.169a7.706,7.706,0,0,1-4.975.025,4.8,4.8,0,0,1-3.139,2.844c-.909.351-1.835.66-2.724,1.055a3.325,3.325,0,0,0-2.11,2.873C605.693,190.356,605.762,191.412,605.762,192.506ZM621.9,173.82l-.071,0c0-.625.017-1.25,0-1.874A5.6,5.6,0,0,0,616.6,166.4a5.5,5.5,0,0,0-5.927,5.072,26.391,26.391,0,0,0,0,4.619,5.563,5.563,0,0,0,10.973.749A21.936,21.936,0,0,0,621.9,173.82Z" transform="translate(-589.851 -160.906)" fill="#fff"/>
    </g>
  </g>
</svg>
