<svg xmlns="http://www.w3.org/2000/svg" xmlns:xlink="http://www.w3.org/1999/xlink" width="259.938" height="278.675" viewBox="0 0 259.938 278.675">
  <defs>
    <filter id="paris-4345139_1920" x="0" y="0" width="259.938" height="278.675" filterUnits="userSpaceOnUse">
      <feOffset dy="3" input="SourceAlpha"/>
      <feGaussianBlur stdDeviation="3" result="blur"/>
      <feFlood flood-opacity="0.161"/>
      <feComposite operator="in" in2="blur"/>
      <feComposite in="SourceGraphic"/>
    </filter>
  </defs>
  <g id="Grupo_127244" data-name="Grupo 127244" transform="translate(7155 13040)">
    <g transform="matrix(1, 0, 0, 1, -7155, -13040)" filter="url(#paris-4345139_1920)">
      <rect id="paris-4345139_1920-2" data-name="paris-4345139_1920" width="241.938" height="260.674" rx="20" transform="translate(9 6)" fill="#fff"/>
    </g>
    <g id="Grupo_127243" data-name="Grupo 127243" transform="translate(-7060 -12944)">
      <path id="Trazado_172036" data-name="Trazado 172036" d="M638.014,159.659c.26.218.536.418.775.655,3.08,3.073,6.148,6.158,9.238,9.22a2.144,2.144,0,0,1,.694,1.666c-.029,2.646-.012,5.294-.012,7.941v.736a22.238,22.238,0,0,1,2.9,1.2,7.985,7.985,0,0,1,4.116,7.3c.02,7.1.006,14.2.006,21.307a3.2,3.2,0,0,1-.012.393,1.2,1.2,0,0,1-1.241,1.16,1.154,1.154,0,0,1-1.093-1.21c-.026-1.389-.012-2.778-.012-4.167q0-7.234,0-14.467V190.4h-65.6c-.013.289-.036.569-.036.849q0,22.525,0,45.051c0,1.294.219,1.514,1.5,1.514h62.675c1.236,0,1.468-.228,1.468-1.464q0-10.026,0-20.05a7.469,7.469,0,0,1,.023-.864,1.151,1.151,0,0,1,2.273-.123,3.992,3.992,0,0,1,.06.857q0,10.1,0,20.207c0,2.538-1.274,3.8-3.832,3.8q-31.338,0-62.675,0c-2.6,0-3.852-1.245-3.852-3.854q0-23.744,0-47.489c0-4.83,2.267-7.72,7.027-8.852v-.811c0-2.8-.007-5.608,0-8.412a3.787,3.787,0,0,1,4.053-4.016c.968,0,1.936,0,3.021,0,0-.78.05-1.533-.009-2.276a4.215,4.215,0,0,1,3-4.807Zm1.218,19.422c-.079-.038-.124-.077-.168-.077-1.887-.009-3.773-.011-5.66-.021a3.812,3.812,0,0,1-4.018-3.989c-.013-1.677,0-3.355,0-5.031V169.1H596.631c-1.408,0-1.869.468-1.869,1.9q0,8.1,0,16.2v.753h44.471Zm-37.391-12.339h1q13.64,0,27.278-.01a2.079,2.079,0,0,1,1.6.659c3.082,3.106,6.2,6.18,9.255,9.307a2.417,2.417,0,0,1,.627,1.5c.058,2.96.028,5.921.028,8.881v.846H646.3V171.906c-1.963,0-3.872.011-5.781,0a3.827,3.827,0,0,1-4.054-4.036c-.005-.6,0-1.206,0-1.808v-4.042h-32.7c-.157,0-.315-.006-.471,0a1.4,1.4,0,0,0-1.438,1.45C601.82,164.518,601.841,165.566,601.841,166.742ZM592.4,187.984v-5.478a5.353,5.353,0,0,0-4.57,5.432,1.931,1.931,0,0,0,.291.044C589.509,187.984,590.894,187.984,592.4,187.984Zm60.909-.028c-.057-2.728-2.278-5.323-4.553-5.408v5.408Zm-14.475-23.994c0,1.39-.038,2.841.017,4.289a1.235,1.235,0,0,0,1.2,1.246c1.469.065,2.945.02,4.338.02Zm-1.622,12.653-5.471-5.483c0,1.12,0,2.369,0,3.617,0,.157-.007.315.008.47a1.39,1.39,0,0,0,1.342,1.383C634.519,176.647,635.947,176.615,637.214,176.615Z" transform="translate(-585.375 -159.659)" fill="#54aa13"/>
      <path id="Trazado_172037" data-name="Trazado 172037" d="M621.562,210.856c-.018.368-.043.624-.043.88,0,6.078.009,12.157-.016,18.235,0,.71.175.927.915.924q11.791-.042,23.583,0c.677,0,.9-.154.893-.865q-.042-9.156,0-18.314c0-.709-.212-.881-.891-.872-2.83.034-5.66.016-8.491.012a3.743,3.743,0,0,1-.857-.066,1.147,1.147,0,0,1,.055-2.242,3.57,3.57,0,0,1,.7-.045c2.961,0,5.922-.008,8.883,0,1.98.005,2.936.966,2.937,2.952q.006,9.393,0,18.786c0,2.029-.968,3-2.982,3q-12.067,0-24.135,0c-1.989,0-2.958-.949-2.96-2.929q-.009-9.472,0-18.943a2.551,2.551,0,0,1,2.854-2.863c3.041-.011,6.08,0,9.12-.006.66,0,1.207.166,1.428.852.257.79-.338,1.49-1.315,1.5-1.886.023-3.773.008-5.66.008C624.279,210.857,622.973,210.856,621.562,210.856Z" transform="translate(-585.157 -159.343)" fill="#54aa13"/>
      <path id="Trazado_172038" data-name="Trazado 172038" d="M634.06,215.484c-2.67,0-5.341-.005-8.011,0a1.2,1.2,0,0,1-1.342-.841,1.165,1.165,0,0,1,1.218-1.511c1.178-.031,2.356-.009,3.535-.01q6.244,0,12.488,0a3.167,3.167,0,0,1,.854.074,1.074,1.074,0,0,1,.837,1.244,1.042,1.042,0,0,1-1.018,1.013c-.6.046-1.2.024-1.806.024Q637.437,215.486,634.06,215.484Z" transform="translate(-585.121 -159.313)" fill="#54aa13"/>
      <path id="Trazado_172039" data-name="Trazado 172039" d="M634.223,217.46q3.966,0,7.933,0c.98,0,1.524.443,1.5,1.2-.018.719-.563,1.157-1.483,1.158q-8.012.006-16.024,0c-.977,0-1.508-.445-1.492-1.214.016-.741.517-1.14,1.469-1.141Q630.177,217.454,634.223,217.46Z" transform="translate(-585.121 -159.285)" fill="#54aa13"/>
      <path id="Trazado_172040" data-name="Trazado 172040" d="M634.159,221.759c2.565,0,5.13,0,7.7,0,.338,0,.772-.065.991.111.346.278.764.742.751,1.113s-.476.777-.828,1.059c-.184.146-.556.069-.842.069q-7.775,0-15.549,0a3.808,3.808,0,0,1-.859-.056,1.152,1.152,0,0,1-.065-2.2,3.753,3.753,0,0,1,1.01-.092C629.028,221.756,631.594,221.759,634.159,221.759Z" transform="translate(-585.121 -159.258)" fill="#54aa13"/>
      <path id="Trazado_172041" data-name="Trazado 172041" d="M634.116,228.436q-3.966,0-7.934,0c-1,0-1.52-.408-1.52-1.172s.531-1.184,1.521-1.185q8.012,0,16.025,0c1.163,0,1.864.951,1.256,1.759a1.8,1.8,0,0,1-1.257.571C639.51,228.461,636.813,228.436,634.116,228.436Z" transform="translate(-585.121 -159.23)" fill="#54aa13"/>
      <path id="Trazado_172042" data-name="Trazado 172042" d="M616.264,183.045h15.328c.21,0,.42,0,.629,0,.911.022,1.457.476,1.442,1.191s-.56,1.162-1.484,1.162q-15.918.008-31.837,0c-.946,0-1.451-.424-1.462-1.164-.012-.775.491-1.187,1.5-1.188Q608.323,183.04,616.264,183.045Z" transform="translate(-585.288 -159.508)" fill="#54aa13"/>
      <path id="Trazado_172043" data-name="Trazado 172043" d="M613.784,178.722h12.975a3.7,3.7,0,0,1,.784.027,1.168,1.168,0,0,1,.05,2.289,3.013,3.013,0,0,1-.782.04q-13.133,0-26.267,0a3.154,3.154,0,0,1-.7-.029,1.171,1.171,0,0,1,.025-2.307,3.585,3.585,0,0,1,.707-.021Z" transform="translate(-585.288 -159.536)" fill="#54aa13"/>
    </g>
  </g>
</svg>
