<svg xmlns="http://www.w3.org/2000/svg" xmlns:xlink="http://www.w3.org/1999/xlink" width="259.938" height="278.674" viewBox="0 0 259.938 278.674">
  <defs>
    <filter id="paris-4345139_1920" x="0" y="0" width="259.938" height="278.674" filterUnits="userSpaceOnUse">
      <feOffset dy="3" input="SourceAlpha"/>
      <feGaussianBlur stdDeviation="3" result="blur"/>
      <feFlood flood-opacity="0.161"/>
      <feComposite operator="in" in2="blur"/>
      <feComposite in="SourceGraphic"/>
    </filter>
  </defs>
  <g id="Grupo_127266" data-name="Grupo 127266" transform="translate(-801 -1449)">
    <g transform="matrix(1, 0, 0, 1, 801, 1449)" filter="url(#paris-4345139_1920)">
      <rect id="paris-4345139_1920-2" data-name="paris-4345139_1920" width="241.938" height="260.674" rx="20" transform="translate(9 6)" fill="#fff"/>
    </g>
    <g id="Grupo_110938" data-name="Grupo 110938" transform="translate(877.579 1523.715)">
      <path id="Trazado_172034" data-name="Trazado 172034" d="M666.313,159.662c3.182,1.071,4.388,3.3,4.306,6.586-.132,5.292-.032,10.591-.038,15.888,0,1.342-.576,2.121-1.605,2.227-1.135.117-1.945-.737-1.948-2.118q-.013-8.18,0-16.359c0-.313.018-.63-.011-.942a1.747,1.747,0,0,0-1.735-1.74c-.313-.032-.632-.011-.949-.011q-25.8,0-51.607,0c-2.159,0-2.646.482-2.646,2.618q0,30.952,0,61.9c0,2.058.511,2.563,2.587,2.563H664.51c1.984,0,2.514-.532,2.514-2.519q0-18.652,0-37.307c0-2.043.513-2.543,2.6-2.543q4.685,0,9.371,0c1.406,0,2.217.63,2.252,1.707.036,1.122-.811,1.815-2.26,1.82-2.759.008-5.517,0-8.343,0V198.5h1.339c2.413,0,4.825-.013,7.238.006a1.776,1.776,0,1,1,.015,3.518c-2.839.02-5.679.006-8.588.006v7.063h1.085c2.453,0,4.9-.009,7.355,0,1.357.008,2.183.713,2.157,1.8-.024,1.047-.82,1.717-2.117,1.723-2.8.012-5.6,0-8.477,0v7.063h7.475c.4,0,.793-.014,1.188,0a1.77,1.77,0,1,1-.055,3.519c-2.411.023-4.824.008-7.237.008h-1.465v7.061l7.278,0a15.525,15.525,0,0,1,1.778.023,1.655,1.655,0,0,1,1.617,1.713,1.672,1.672,0,0,1-1.562,1.767,6.262,6.262,0,0,1-1.065.026q-10.44,0-20.88,0H656.4v7.061h22.137a8.1,8.1,0,0,1,1.065.017,1.71,1.71,0,0,1,1.639,1.705,1.743,1.743,0,0,1-1.673,1.794,10.505,10.505,0,0,1-1.068.014h-22.1v11.064h29.473c1.97,0,2.5-.538,2.5-2.535q0-38.072,0-76.143c0-2.1-.478-2.582-2.557-2.587-3.044,0-6.09,0-9.134,0a4.87,4.87,0,0,1-1.062-.06,1.651,1.651,0,0,1-1.453-1.85,1.562,1.562,0,0,1,1.606-1.579c3.875-.026,7.753-.1,11.622.057a5.1,5.1,0,0,1,4.523,4.852c.024.39.014.783.014,1.175q0,38.013,0,76.027c0,4.164-2.044,6.177-6.272,6.177q-13.939,0-27.878,0h-1.364v10.594h1.061q8.9,0,17.8,0c1.843,0,2.413-.566,2.422-2.374,0-.824-.006-1.648,0-2.472.014-1.377.66-2.189,1.748-2.207s1.791.8,1.807,2.15c.012,1.02.017,2.04,0,3.06a5.288,5.288,0,0,1-5.416,5.366c-6.011.029-12.023.009-18.034.009h-1.462c0,.512,0,.964,0,1.416a5.336,5.336,0,0,1-5.74,5.643q-14.057.011-28.116,0-15.661,0-31.321,0c-3.887,0-6.007-2.106-6.007-5.967q0-43.487,0-86.972c0-3.887,2.076-5.964,5.982-5.979q4.626-.016,9.253,0c1.327.009,2.082.663,2.091,1.729.009,1.11-.774,1.782-2.171,1.79-3.044.017-6.09,0-9.135.008-1.926,0-2.46.538-2.46,2.444q0,43.487,0,86.972c0,1.9.553,2.44,2.47,2.44q29.6,0,59.2,0c1.784,0,2.391-.575,2.393-2.284q.005-19.89,0-39.779c0-.194-.016-.39-.033-.776h-1.361q-19.4,0-38.794,0c-3.975,0-6.08-2.08-6.08-6.012,0-20.517.035-41.034-.038-61.551-.012-3.28,1.128-5.509,4.308-6.582Z" transform="translate(-585.161 -159.662)" fill="#54aa13"/>
      <path id="Trazado_172035" data-name="Trazado 172035" d="M628.8,224.226q-11.208,0-22.416,0c-1.919,0-2.495-.545-2.467-2.439.038-2.664-.038-5.342.225-7.986a10.026,10.026,0,0,1,6.038-8.412c1.95-.927,4.033-1.577,6.04-2.391,1.464-.592,2.962-1.169,3.77-2.674a1.447,1.447,0,0,0-.418-2.174,13.08,13.08,0,0,1-5.466-9.9,56.957,56.957,0,0,1,.33-12.176c1.239-7.151,8-11.816,15.6-11.41a14.571,14.571,0,0,1,13.488,12.95,65.195,65.195,0,0,1-.053,11.266,13.205,13.205,0,0,1-5.511,9.39c-.732.565-.882,1.145-.4,1.758a8.623,8.623,0,0,0,2.214,2.177,25.583,25.583,0,0,0,3.7,1.531c1.136.449,2.3.844,3.409,1.341A10.89,10.89,0,0,1,653.7,215.13c.123,2.386.062,4.785.035,7.175-.015,1.339-.735,1.918-2.275,1.919Q640.128,224.231,628.8,224.226Zm-21.153-3.611h42.488c0-1.918.091-3.76-.02-5.592a7.527,7.527,0,0,0-5.15-6.958c-1.027-.405-2.064-.786-3.105-1.151-3.4-1.189-6.719-2.466-7.969-6.365a15.717,15.717,0,0,1-10.071.05c-1.612,3.233-2.921,4.4-6.354,5.713-1.84.705-3.716,1.326-5.515,2.12a6.683,6.683,0,0,0-4.271,5.771C607.51,216.3,607.65,218.417,607.65,220.615Zm32.663-37.534-.144-.009c0-1.255.035-2.511,0-3.765A11.291,11.291,0,0,0,629.6,168.184c-6.345-.274-11.43,3.917-12,10.187a52.607,52.607,0,0,0,0,9.279,11.276,11.276,0,0,0,22.214,1.5A43.727,43.727,0,0,0,640.313,183.08Z" transform="translate(-575.438 -157.141)" fill="#54aa13"/>
    </g>
  </g>
</svg>
