<svg xmlns="http://www.w3.org/2000/svg" xmlns:xlink="http://www.w3.org/1999/xlink" width="259.938" height="278.675" viewBox="0 0 259.938 278.675">
  <defs>
    <filter id="paris-4345139_1920" x="0" y="0" width="259.938" height="278.675" filterUnits="userSpaceOnUse">
      <feOffset dy="3" input="SourceAlpha"/>
      <feGaussianBlur stdDeviation="3" result="blur"/>
      <feFlood flood-opacity="0.161"/>
      <feComposite operator="in" in2="blur"/>
      <feComposite in="SourceGraphic"/>
    </filter>
  </defs>
  <g id="Grupo_128235" data-name="Grupo 128235" transform="translate(6233 10738.078)">
    <g transform="matrix(1, 0, 0, 1, -6233, -10738.08)" filter="url(#paris-4345139_1920)">
      <rect id="paris-4345139_1920-2" data-name="paris-4345139_1920" width="241.938" height="260.674" rx="20" transform="translate(9 6)" fill="#54aa13"/>
    </g>
    <g id="Grupo_128230" data-name="Grupo 128230" transform="translate(-6766.062 -12124.877)">
      <g id="Grupo_128211" data-name="Grupo 128211" transform="translate(627 1460)">
        <path id="Trazado_172011" data-name="Trazado 172011" d="M545.228,107.68c0,1.434-.012,2.833,0,4.231a1.734,1.734,0,0,1-.855,1.734,1.709,1.709,0,0,1-1.912-.28c-.945-.64-1.915-1.243-2.839-1.912a.933.933,0,0,0-1.294-.021c-.89.658-1.846,1.227-2.759,1.855-.645.444-1.287.807-2.072.349a1.849,1.849,0,0,1-.812-1.858c.023-1.363.007-2.726.007-4.194H531.47q-19.429,0-38.858,0c-6.08,0-10.044-3.961-10.045-10.037q0-33.185,0-66.369a10.908,10.908,0,0,1,8.475-11.013,12.339,12.339,0,0,1,2.808-.3q29.315-.025,58.629-.012c1.658,0,2.145.49,2.145,2.163q0,41.7,0,83.4c0,1.674-.488,2.166-2.139,2.17q-3.474.008-6.949.013A1.862,1.862,0,0,0,545.228,107.68Zm6.217-84.7h-1q-28.246,0-56.492,0a7.826,7.826,0,0,0-8.25,8.224q-.007,29.473,0,58.947c0,.275.024.55.045.993,2.364-2.051,5.034-2.392,7.884-2.385q28.295.063,56.59.022h1.225Zm.028,68.936H509.907q-8.909,0-17.817,0A6.059,6.059,0,0,0,487,94.374a5.933,5.933,0,0,0-.644,6.546,6.029,6.029,0,0,0,5.76,3.525q19.922.018,39.844,0c.219,0,.438-.022.672-.034V99.751H500.568c-1.586,0-2.338-.513-2.327-1.583s.745-1.551,2.357-1.551h50.876ZM535.9,99.794v9.51c.617-.4,1.13-.737,1.64-1.074,1.333-.882,1.521-.882,2.889.016.507.333,1.015.662,1.617,1.054V99.794Zm15.534,4.637V99.822h-6.121v4.609Z" transform="translate(-482.566 -19.848)" fill="#fff"/>
        <path id="Trazado_172013" data-name="Trazado 172013" d="M571.9,114.758c-1.468,0-2.936.013-4.4,0a1.6,1.6,0,0,1-1.81-1.8c-.017-1.664.012-3.328-.021-4.991a1.086,1.086,0,0,0-.379-.764c-.107-.078-.522.133-.7.31-1.169,1.137-2.3,2.31-3.466,3.454a1.633,1.633,0,0,1-2.7,0q-3.093-3.067-6.159-6.16a1.631,1.631,0,0,1-.013-2.7c1.144-1.163,2.319-2.294,3.451-3.469a1.111,1.111,0,0,0,.28-.81c-.016-.127-.461-.278-.714-.282-1.631-.025-3.262-.005-4.893-.016-1.347-.009-1.909-.561-1.914-1.9q-.015-4.355,0-8.711c0-1.351.557-1.908,1.894-1.918,1.631-.011,3.263.014,4.893-.019a1.108,1.108,0,0,0,.771-.371c.079-.1-.125-.525-.3-.706-1.137-1.17-2.308-2.306-3.453-3.467a1.631,1.631,0,0,1-.015-2.7q3.066-3.093,6.16-6.159c1-.987,1.749-.974,2.772.036,1.091,1.078,2.152,2.186,3.259,3.245a3.622,3.622,0,0,0,.953.478,3.648,3.648,0,0,0,.283-.948c.029-1.6,0-3.2.018-4.8.012-1.229.579-1.819,1.787-1.825q4.453-.023,8.906,0c1.266.005,1.822.586,1.833,1.881.012,1.566-.017,3.132.019,4.7a3.564,3.564,0,0,0,.34,1,3.491,3.491,0,0,0,.871-.457c1.126-1.088,2.212-2.217,3.327-3.316.974-.961,1.743-.977,2.7-.027q3.129,3.1,6.225,6.232a1.612,1.612,0,0,1-.027,2.631c-1.073,1.1-2.186,2.152-3.245,3.26a4.335,4.335,0,0,0-.549,1.02,5.083,5.083,0,0,0,1.137.291c1.5.034,3,.007,4.5.016,1.353.008,1.926.558,1.931,1.882q.016,4.4,0,8.809c-.006,1.267-.588,1.826-1.878,1.837-1.5.012-3-.021-4.5.019a5.088,5.088,0,0,0-1.2.333,5.933,5.933,0,0,0,.665,1.08c.99,1.038,2.039,2.022,3.038,3.051a6.274,6.274,0,1,1-8.916,8.819c-1.115-1.1-2.2-2.229-3.33-3.313a1.1,1.1,0,0,0-.81-.274c-.129.019-.274.463-.279.717-.025,1.631,0,3.262-.016,4.894-.009,1.342-.566,1.9-1.907,1.909C574.832,114.766,573.364,114.758,571.9,114.758Zm3.18-3.157c0-1.488.011-2.885,0-4.281-.011-1.115-.145-2.268,1.383-2.758-1.208-1.179-2.282-2.18-3.3-3.238a2.114,2.114,0,0,0-1.612-.692,9.4,9.4,0,0,1-8.476-12.459c.544-1.491,1.731-1.791,2.863-.7a24.133,24.133,0,0,1,2.4,2.436c.858,1.1,1.906,1,3.022.867a2.92,2.92,0,0,0-1.009-3.355A19.469,19.469,0,0,1,568.4,85.5c-1.454-1.464-1.134-2.66.868-3.251A9.421,9.421,0,0,1,581.34,91c.008.286-.041.674.118.839,1.234,1.273,2.512,2.5,3.842,3.811a1.917,1.917,0,0,1,2.159-1.271c1.587.039,3.176.01,4.785.01V88.124c-1.658,0-3.251,0-4.846,0-1.365,0-1.705-.253-2.156-1.512-.186-.521-.4-1.034-.625-1.538-.537-1.183-.482-1.58.454-2.509,1.154-1.145,2.323-2.275,3.377-3.306l-4.485-4.487c-1.093,1.1-2.271,2.275-3.424,3.469a1.761,1.761,0,0,1-2.29.416,12.726,12.726,0,0,0-1.807-.733,1.81,1.81,0,0,1-1.376-1.979c.036-1.654.01-3.309.01-4.992H568.81c0,1.622,0,3.182,0,4.743,0,1.505-.21,1.788-1.6,2.285-.49.175-.97.381-1.444.6a1.739,1.739,0,0,1-2.512-.446c-1.148-1.15-2.285-2.312-3.342-3.383l-4.47,4.473c1.12,1.107,2.289,2.285,3.484,3.437a1.761,1.761,0,0,1,.42,2.289,12.85,12.85,0,0,0-.734,1.807,1.812,1.812,0,0,1-1.977,1.38c-1.654-.035-3.309-.009-5-.009v6.267c1.62,0,3.18,0,4.74,0,1.513,0,1.788.2,2.287,1.6.175.49.381.971.6,1.445a1.742,1.742,0,0,1-.441,2.513c-1.15,1.149-2.312,2.286-3.37,3.331l4.5,4.532c.745-.787,1.625-1.579,2.339-2.5,1.263-1.628,2.565-2.029,4.52-.987,1.9,1.011,2,.821,2,3.021V111.6ZM572.508,85.25a15.2,15.2,0,0,1,1.451,1.418,2.605,2.605,0,0,1,.639,1.361c.06,1.464.015,2.934-.054,4.4a1.514,1.514,0,0,1-1.652,1.555c-.814.022-1.636-.07-2.444,0a4.113,4.113,0,0,1-4.1-1.68,3.54,3.54,0,0,0-.582-.5,3.532,3.532,0,0,0,0,.47,6.182,6.182,0,0,0,6.454,5.215,3.094,3.094,0,0,1,2.58,1.031c3.265,3.329,6.577,6.612,9.883,9.9a4.955,4.955,0,0,0,1.144.9,3.121,3.121,0,0,0,3.942-.892,3.071,3.071,0,0,0-.341-4.1q-5.061-5.107-10.175-10.163a3.184,3.184,0,0,1-1.081-2.656A5.85,5.85,0,0,0,572.508,85.25Z" transform="translate(-531.213 -55.222)" fill="#fff"/>
        <path id="Trazado_172014" data-name="Trazado 172014" d="M521.622,100.177q0,9.008,0,18.016a5.472,5.472,0,0,1-.026.977,1.554,1.554,0,0,1-3.082,0,4.881,4.881,0,0,1-.024-.879q0-18.114,0-36.228a4.9,4.9,0,0,1,.024-.879,1.554,1.554,0,0,1,3.082,0,5.51,5.51,0,0,1,.026.977Q521.623,91.168,521.622,100.177Z" transform="translate(-509.088 -64.142)" fill="#fff"/>
        <path id="Trazado_172015" data-name="Trazado 172015" d="M521.585,46.974c0,.555.038,1.113-.009,1.663a1.541,1.541,0,0,1-1.557,1.454,1.517,1.517,0,0,1-1.535-1.472c-.05-1.107-.052-2.22,0-3.327a1.511,1.511,0,0,1,1.552-1.452,1.539,1.539,0,0,1,1.54,1.471C521.622,45.862,521.585,46.419,521.585,46.974Z" transform="translate(-509.061 -37.565)" fill="#fff"/>
        <path id="Trazado_172016" data-name="Trazado 172016" d="M518.5,250.595a14.131,14.131,0,0,1,.012-1.662,1.546,1.546,0,0,1,3.08,0,32.194,32.194,0,0,1,0,3.424,1.546,1.546,0,0,1-3.08,0A15.6,15.6,0,0,1,518.5,250.595Z" transform="translate(-509.085 -187.976)" fill="#fff"/>
        <path id="Trazado_172017" data-name="Trazado 172017" d="M509.618,316.457c-.522,0-1.046.032-1.565-.008a1.546,1.546,0,0,1-1.494-1.52,1.527,1.527,0,0,1,1.526-1.582c1.075-.043,2.154-.044,3.229,0a1.525,1.525,0,0,1,1.495,1.514,1.552,1.552,0,0,1-1.527,1.588C510.729,316.489,510.172,316.458,509.618,316.457Z" transform="translate(-500.284 -236.561)" fill="#fff"/>
        <path id="Trazado_172018" data-name="Trazado 172018" d="M672.782,190.212a1.6,1.6,0,0,1-2.317,1.621,3.013,3.013,0,0,1-.6-.49q-3.544-3.5-7.08-7.013c-.872-.867-.98-1.791-.319-2.482.687-.718,1.642-.62,2.554.283,2.339,2.313,4.68,4.623,6.995,6.96A6.316,6.316,0,0,1,672.782,190.212Z" transform="translate(-615.098 -139.128)" fill="#fff"/>
      </g>
    </g>
  </g>
</svg>
