<svg xmlns="http://www.w3.org/2000/svg" xmlns:xlink="http://www.w3.org/1999/xlink" width="259.938" height="278.674" viewBox="0 0 259.938 278.674">
  <defs>
    <filter id="paris-4345139_1920" x="0" y="0" width="259.938" height="278.674" filterUnits="userSpaceOnUse">
      <feOffset dy="3" input="SourceAlpha"/>
      <feGaussianBlur stdDeviation="3" result="blur"/>
      <feFlood flood-opacity="0.161"/>
      <feComposite operator="in" in2="blur"/>
      <feComposite in="SourceGraphic"/>
    </filter>
  </defs>
  <g id="Grupo_127267" data-name="Grupo 127267" transform="translate(-1058.051 -1449)">
    <g transform="matrix(1, 0, 0, 1, 1058.05, 1449)" filter="url(#paris-4345139_1920)">
      <rect id="paris-4345139_1920-2" data-name="paris-4345139_1920" width="241.938" height="260.674" rx="20" transform="translate(9 6)" fill="#fff"/>
    </g>
    <g id="Grupo_110939" data-name="Grupo 110939" transform="translate(1141.351 1523.715)">
      <path id="Trazado_172036" data-name="Trazado 172036" d="M664.194,159.659c.389.327.8.625,1.16.981,4.611,4.6,9.206,9.217,13.833,13.8a3.209,3.209,0,0,1,1.039,2.493c-.044,3.961-.018,7.924-.018,11.886v1.1a33.339,33.339,0,0,1,4.348,1.793,11.952,11.952,0,0,1,6.164,10.92c.03,10.63.009,21.261.009,31.892a4.764,4.764,0,0,1-.018.588,1.8,1.8,0,0,1-1.858,1.737,1.728,1.728,0,0,1-1.637-1.811c-.039-2.079-.018-4.158-.018-6.237q0-10.829,0-21.654v-1.473h-98.23c-.02.432-.055.851-.055,1.271q0,33.715,0,67.433c0,1.937.329,2.266,2.241,2.266q46.924,0,93.845,0c1.851,0,2.2-.342,2.2-2.192q0-15.007,0-30.011a11.176,11.176,0,0,1,.035-1.293,1.723,1.723,0,0,1,3.4-.184,5.959,5.959,0,0,1,.09,1.284q.007,15.124,0,30.246c0,3.8-1.908,5.681-5.737,5.681q-46.924,0-93.845,0c-3.9,0-5.767-1.863-5.767-5.768q0-35.541,0-71.082c0-7.23,3.393-11.555,10.522-13.25v-1.214c0-4.2-.011-8.394,0-12.591.011-3.658,2.387-6,6.069-6.011,1.45,0,2.9,0,4.524,0,0-1.168.075-2.294-.014-3.406-.279-3.525,1.071-5.994,4.488-7.195Zm1.823,29.071c-.117-.057-.185-.116-.252-.116-2.826-.014-5.65-.017-8.475-.032a5.707,5.707,0,0,1-6.016-5.97c-.02-2.51,0-5.021,0-7.531v-1.29h-1.239q-23.9,0-47.8,0c-2.108,0-2.8.7-2.8,2.838q0,12.121,0,24.241V202h66.588ZM610.03,170.26h1.5q20.424,0,40.845-.015a3.114,3.114,0,0,1,2.395.987c4.615,4.649,9.277,9.25,13.859,13.931a3.615,3.615,0,0,1,.939,2.249c.088,4.431.043,8.863.043,13.293v1.267h6.985V177.99c-2.939,0-5.8.017-8.656,0a5.729,5.729,0,0,1-6.07-6.041c-.008-.9,0-1.8,0-2.706v-6.05H612.9c-.235,0-.472-.009-.706.006a2.1,2.1,0,0,0-2.153,2.171C610,166.932,610.03,168.5,610.03,170.26Zm-14.133,31.8v-8.2c-3.69.2-7.143,4.327-6.843,8.13a2.877,2.877,0,0,0,.435.066C591.564,202.056,593.639,202.056,595.9,202.056Zm91.2-.042c-.086-4.083-3.41-7.968-6.818-8.094v8.094ZM665.425,166.1c0,2.08-.057,4.253.026,6.419a1.849,1.849,0,0,0,1.8,1.865c2.2.1,4.409.03,6.5.03ZM663,185.039l-8.192-8.207c0,1.677,0,3.546,0,5.414,0,.235-.01.472.012.7a2.081,2.081,0,0,0,2.009,2.07C658.96,185.087,661.1,185.039,663,185.039Z" transform="translate(-585.375 -159.659)" fill="#54aa13"/>
      <path id="Trazado_172037" data-name="Trazado 172037" d="M622.76,212.029c-.027.551-.065.934-.065,1.317,0,9.1.013,18.2-.024,27.294,0,1.062.262,1.387,1.37,1.383q17.655-.063,35.313,0c1.015,0,1.341-.23,1.337-1.294q-.064-13.705,0-27.412c0-1.061-.318-1.318-1.334-1.3-4.238.051-8.476.024-12.713.018a5.609,5.609,0,0,1-1.284-.1,1.717,1.717,0,0,1,.083-3.356,5.344,5.344,0,0,1,1.055-.068c4.433,0,8.867-.012,13.3,0,2.964.008,4.4,1.446,4.4,4.419q.009,14.06,0,28.119c0,3.037-1.45,4.486-4.465,4.488q-18.069,0-36.139,0c-2.978,0-4.429-1.421-4.432-4.384q-.014-14.178,0-28.354c0-2.819,1.463-4.277,4.274-4.286,4.553-.017,9.1,0,13.655-.009.989,0,1.807.249,2.139,1.276.384,1.183-.507,2.23-1.97,2.246-2.824.035-5.65.012-8.476.012C626.828,212.031,624.872,212.029,622.76,212.029Z" transform="translate(-568.248 -134.924)" fill="#54aa13"/>
      <path id="Trazado_172038" data-name="Trazado 172038" d="M638.74,216.66c-4,0-8-.007-12,0a1.8,1.8,0,0,1-2.009-1.259,1.744,1.744,0,0,1,1.823-2.261c1.763-.047,3.528-.014,5.293-.015q9.35,0,18.7,0a4.745,4.745,0,0,1,1.278.112,1.608,1.608,0,0,1,1.254,1.862,1.56,1.56,0,0,1-1.524,1.516c-.9.069-1.8.036-2.7.036Q643.8,216.663,638.74,216.66Z" transform="translate(-565.461 -132.583)" fill="#54aa13"/>
      <path id="Trazado_172039" data-name="Trazado 172039" d="M638.978,217.461q5.939,0,11.879,0c1.467,0,2.281.663,2.253,1.793-.027,1.076-.842,1.732-2.22,1.734q-12,.009-23.993,0c-1.463,0-2.258-.666-2.233-1.817.024-1.109.774-1.707,2.2-1.708Q632.919,217.452,638.978,217.461Z" transform="translate(-565.455 -130.384)" fill="#54aa13"/>
      <path id="Trazado_172040" data-name="Trazado 172040" d="M638.88,221.763c3.841,0,7.681,0,11.523.006.506,0,1.156-.1,1.484.166.519.416,1.144,1.11,1.124,1.666s-.713,1.163-1.24,1.585c-.276.218-.832.1-1.261.1q-11.642.007-23.282,0a5.7,5.7,0,0,1-1.286-.084,1.724,1.724,0,0,1-.1-3.3,5.618,5.618,0,0,1,1.513-.137C631.2,221.758,635.038,221.763,638.88,221.763Z" transform="translate(-565.454 -128.21)" fill="#54aa13"/>
      <path id="Trazado_172041" data-name="Trazado 172041" d="M638.817,229.609q-5.939,0-11.88,0c-1.5,0-2.276-.61-2.276-1.754s.8-1.772,2.277-1.773q12-.007,23.994,0c1.742,0,2.791,1.424,1.881,2.633a2.688,2.688,0,0,1-1.883.854C646.895,229.646,642.856,229.609,638.817,229.609Z" transform="translate(-565.456 -126.02)" fill="#54aa13"/>
      <path id="Trazado_172042" data-name="Trazado 172042" d="M624.909,183.046h22.952c.315,0,.628-.006.942,0,1.364.033,2.182.713,2.159,1.782s-.838,1.74-2.221,1.74q-23.835.011-47.672,0c-1.416,0-2.173-.634-2.189-1.743-.018-1.16.735-1.776,2.251-1.778Q613.019,183.039,624.909,183.046Z" transform="translate(-578.527 -147.815)" fill="#54aa13"/>
      <path id="Trazado_172043" data-name="Trazado 172043" d="M621.195,178.725h19.428a5.541,5.541,0,0,1,1.174.041,1.748,1.748,0,0,1,.075,3.426,4.513,4.513,0,0,1-1.171.06q-19.664,0-39.331,0a4.728,4.728,0,0,1-1.055-.044,1.752,1.752,0,0,1,.038-3.453,5.365,5.365,0,0,1,1.058-.032Z" transform="translate(-578.527 -150.007)" fill="#54aa13"/>
    </g>
  </g>
</svg>
