<svg xmlns="http://www.w3.org/2000/svg" width="295" height="182.384" viewBox="0 0 295 182.384">
  <g id="Grupo_128225" data-name="Grupo 128225" transform="translate(-1125 -399)">
    <g id="Grupo_127231" data-name="Grupo 127231" transform="translate(901.296 234.925)">
      <g id="Grupo_70934" data-name="Grupo 70934" transform="translate(229.408 186.695)">
        <g id="Grupo_85400" data-name="Grupo 85400">
          <path id="Trazado_120728" data-name="Trazado 120728" d="M504.736,347.386a138.378,138.378,0,1,0-275.094-21.393h0a139.429,139.429,0,0,0,1.647,21.393Z" transform="translate(-229.642 -187.622)" fill="#feeeab"/>
        </g>
      </g>
      <g id="Grupo_85419" data-name="Grupo 85419" transform="translate(223.704 164.075)">
        <g id="Grupo_85403" data-name="Grupo 85403" transform="translate(122.529 63.934)">
          <g id="Grupo_85401" data-name="Grupo 85401" transform="translate(0 20.892)">
            <path id="Trazado_151644" data-name="Trazado 151644" d="M424,272.133a13.471,13.471,0,0,1,5.526,3.983c1.379,1.673,18.241,33.981,19.325,36.084s1.081,7.42-1.475,10.692c-.991,1.271-3.843,4.828-6.96,8.7h-10.1c3.669-5.5,8.458-12.7,8.8-13.283a2.826,2.826,0,0,0-.183-3.463c-1.026-1.6-14.525-18.059-14.525-18.059S417.777,278.237,424,272.133Z" transform="translate(-354.015 -253.156)" fill="#0f1630" stroke="#0e1632" stroke-miterlimit="22.926" stroke-width="0.216" fill-rule="evenodd"/>
            <path id="Trazado_151645" data-name="Trazado 151645" d="M404.157,269.427s17.005,2.418,17.738,2.6,1.974,1.891,2.643,3.045,1.454,17.751,1.836,22.4-1.118,24.909-.672,30.351c.074.9.213,2.174.393,3.667H375.229c-.652-6.017-5.189-24.847-5.559-29.37-.381-4.648-2.308-21.152-1.836-22.4s1.418-3.137,2.111-3.436,17.277-5.467,17.277-5.467l8.5.938Z" transform="translate(-351.905 -253.049)" fill="#e6bd3c" fill-rule="evenodd"/>
            <path id="Trazado_151646" data-name="Trazado 151646" d="M404.844,269.427l2.811.4a2.421,2.421,0,0,1-.582,1.154c-6.606,7.573-13.358,8.126-21.109,1.731a2.44,2.44,0,0,1-.766-1.051l2.711-.846,8.5.938Z" transform="translate(-352.592 -253.049)" fill="#fff" fill-rule="evenodd"/>
            <path id="Trazado_151647" data-name="Trazado 151647" d="M401.982,252.378l.145,4.233s.708,8.638.816,9.949c.052.634.786,1.495,2.013,2.2-5.559,6.372-10.413,6.77-16.935,1.388a3.609,3.609,0,0,0,1.629-2.495c-.108-1.311-.816-9.95-.816-9.95l-.546-4.2s3.414.266,6.954.745C398.656,253.2,401.982,252.378,401.982,252.378Z" transform="translate(-352.703 -252.378)" fill="#e89089" fill-rule="evenodd"/>
            <path id="Trazado_151648" data-name="Trazado 151648" d="M406.934,269.636s-1.965,8.5-2.111,10.227-2.456,19.138-2.215,22.08c.109,1.339,2.77,14.942,5.666,29.554h23.167c-.569-3.561-1.057-6.632-1.318-8.366a200,200,0,0,1-1.368-27.194c.207-8-1.783-20.012-2.019-21.152s-2.508-2.564-3.211-2.828Z" transform="translate(-353.277 -253.057)" fill="#0f1630" fill-rule="evenodd"/>
            <path id="Trazado_151649" data-name="Trazado 151649" d="M404.4,283.851c-.7,5.736-1.972,16.22-1.79,18.444,0,0,11.269-12.269,11.1-13.479s-4.756-10.234-4.756-10.234S406.98,280.846,404.4,283.851Z" transform="translate(-353.277 -253.41)" fill="#3d4155" fill-rule="evenodd"/>
            <path id="Trazado_151650" data-name="Trazado 151650" d="M406.421,269.533s.5-.446.677-.461,3.235,1.02,3.235,1.02,4.459,7.012,4.533,7.907-10.952,9.916-10.952,9.916l.978-8.248s1.6-8.063,2.093-10.053Z" transform="translate(-353.329 -253.035)" fill="#545a6c" fill-rule="evenodd"/>
            <path id="Trazado_151651" data-name="Trazado 151651" d="M369.494,276.548a13.459,13.459,0,0,0-4.805,4.83c-1.087,1.875-12.466,36.5-13.192,38.748s.141,7.5,3.2,10.31c.331.3.834.76,1.466,1.332h12.608c-3.339-3.581-6.363-6.832-6.669-7.2a2.826,2.826,0,0,1-.383-3.448c.75-1.745,11.39-20.183,11.39-20.183S376.632,281.557,369.494,276.548Z" transform="translate(-351.255 -253.33)" fill="#0f1630" fill-rule="evenodd"/>
            <path id="Trazado_151652" data-name="Trazado 151652" d="M385.842,271.317s3.324,8.064,3.749,9.746,5.538,18.482,5.78,21.425c.108,1.308-.282,14.575-.746,29.075H371.706c-.01-1.513-.021-2.784-.033-3.691a199.989,199.989,0,0,0-3.08-27.054c-1.505-7.863-1.5-20.035-1.45-21.2s2.057-2.939,2.708-3.313Z" transform="translate(-351.88 -253.124)" fill="#0f1630" fill-rule="evenodd"/>
            <path id="Trazado_151653" data-name="Trazado 151653" d="M391.222,284.942c1.622,5.547,4.586,15.682,4.769,17.906,0,0-13.115-10.27-13.144-11.492s3.026-10.872,3.026-10.872S388.183,282.4,391.222,284.942Z" transform="translate(-352.499 -253.485)" fill="#3d4155" fill-rule="evenodd"/>
            <path id="Trazado_151654" data-name="Trazado 151654" d="M386.891,271.124a2.507,2.507,0,0,0-.743-.345c-.179.014-3.027,1.533-3.027,1.533s-3.258,7.644-3.184,8.54,12.419,8,12.419,8l-2.306-7.979s-2.89-7.695-3.7-9.577Z" transform="translate(-352.385 -253.102)" fill="#545a6c" fill-rule="evenodd"/>
          </g>
          <g id="Grupo_85402" data-name="Grupo 85402" transform="translate(25.536 21.178)">
            <path id="Trazado_151655" data-name="Trazado 151655" d="M380.562,255.063c-.086.019-.169.041-.253.066h0a3.5,3.5,0,1,0,2.971.435c.182,1.02.135,2.308-1.165,2.555l-.145-2.012A1.2,1.2,0,0,0,380.562,255.063Z" transform="translate(-377.838 -252.77)" fill="#e89089" fill-rule="evenodd"/>
            <path id="Trazado_151656" data-name="Trazado 151656" d="M406.7,252.676c.087,0,.174.01.259.019h0a3.5,3.5,0,1,1-2.843.965c0,1.037.284,2.294,1.609,2.3l-.222-2A1.2,1.2,0,0,1,406.7,252.676Z" transform="translate(-378.831 -252.676)" fill="#e89089" fill-rule="evenodd"/>
          </g>
          <path id="Trazado_151657" data-name="Trazado 151657" d="M391.662,235.753h0a12.01,12.01,0,0,0-10.837,13.014l.988,10.848a12.011,12.011,0,0,0,13.014,10.838h0a12.011,12.011,0,0,0,10.838-13.015l-.989-10.847A12.012,12.012,0,0,0,391.662,235.753Z" transform="translate(-352.418 -230.83)" fill="#f4ad85" fill-rule="evenodd"/>
          <path id="Trazado_151658" data-name="Trazado 151658" d="M381.561,243.68a11.868,11.868,0,0,0-.738,5.339l.988,10.847a12.018,12.018,0,0,0,11.876,10.888c-6.934-.533-8.217-8.728-8.747-13.042s1.086-5.281,1.729-5.495,10.711-1.885,12.939-2.142a3.971,3.971,0,0,1,3.348.979l.937-1.365-.9-2.913s.769.025,1.675,0a11.9,11.9,0,0,0-.44-2.255,19.05,19.05,0,0,1-3.935-1.776c-2.655-1.714-15.337.428-17.394.428A3.233,3.233,0,0,0,381.561,243.68Z" transform="translate(-352.418 -231.081)" fill="#ed9072" fill-rule="evenodd"/>
          <path id="Trazado_151659" data-name="Trazado 151659" d="M403.674,252.147s.072.8.14,1.538.83,1.5,1.4,1.451l-.154-1.68a1.679,1.679,0,0,1,1.658-1.4c4.2-5.825,2.8-14.335-2.615-18.32s-16.2-3.287-18.026-2.49-3.467,4.163-3.467,4.163-1.725-1.279-3.138-.4-5.515,10.666-5.3,13,5.154,6.55,5.154,6.55a1.677,1.677,0,0,1,1.884,1.077l.154,1.68a1.653,1.653,0,0,0,1.112-1.68c-.068-.741-.141-1.538-.141-1.538.054-.03.106-.061.158-.091,1.447-.94,1.159-3.81,1.159-3.81l-1.333-1.866,2.646-3.479,3.044-1,6.915.265s8.154,1.013,7.44,3.386S403.674,252.147,403.674,252.147Z" transform="translate(-352.157 -230.63)" fill="#0e1632" fill-rule="evenodd"/>
          <path id="Trazado_151660" data-name="Trazado 151660" d="M403.674,252.389c.084.914.695,5,1.758,4.9,3.173-6.682,6.1-13.657,1.377-20.5-.556,4.405-4.944,7.092-9.339,8.017,2.326.506,5.335,1.457,4.89,2.939-.714,2.374,1.315,4.648,1.315,4.648Zm-29.2-6.191a6.934,6.934,0,0,0-.3,2.05c.164,1.8,6.155,10.488,7.484,12.463.693-.063.785-5.21.678-6.375.054-.03.106-.061.158-.091,1.447-.94,1.159-3.81,1.159-3.81l-1.333-1.866,2.646-3.479,2.9-.955a4.252,4.252,0,0,1-1.884-1.209C379.979,249,376.5,248.666,374.472,246.2Z" transform="translate(-352.157 -230.872)" fill="#010518" fill-rule="evenodd"/>
          <path id="Trazado_151661" data-name="Trazado 151661" d="M379.585,252.5s-5.016-10.877,5.076-12.736c0,0,2.671-5.275,8.022-3.952s8.7,1.285,11.1-1.08a4.841,4.841,0,0,1-.295,4.856c5.065,3.931,3.306,8.97,1.233,11.691-.831-5.637-15.681.638-17.623-4.78C386.909,251.673,381.48,250.384,379.585,252.5Z" transform="translate(-352.322 -230.791)" fill="#0e1632" fill-rule="evenodd"/>
          <path id="Trazado_151662" data-name="Trazado 151662" d="M379.586,252.75a15.746,15.746,0,0,1-1.208-4.739c1.951-.185,4.481-1.586,7.769-4.912,0,0,1.343,1.973,7.541,2.228,3.765.155,8.552-1.239,11.25-4.142,3.226,3.676,1.631,7.926-.211,10.344-.831-5.637-15.681.638-17.624-4.78C386.91,251.927,381.482,250.638,379.586,252.75Z" transform="translate(-352.323 -231.046)" fill="#010518" fill-rule="evenodd"/>
        </g>
        <g id="Grupo_85404" data-name="Grupo 85404" transform="translate(183.531)">
          <path id="Trazado_151663" data-name="Trazado 151663" d="M435.878,271.09l-1.588,13.955s2.4,32.68,3.581,46.509h17.822l.391-55.62Z" transform="translate(-415.526 -168.289)" fill="#0e1632" fill-rule="evenodd"/>
          <path id="Trazado_151664" data-name="Trazado 151664" d="M445.75,283.685l-.785,4.933,1.562,43.428h21.727c.362-3.006.689-5.576.954-7.429a284.389,284.389,0,0,0,2.184-31.055c-.008-3.757-4.359-9.333-5.855-9.742S445.75,283.685,445.75,283.685Z" transform="translate(-415.947 -168.781)" fill="#0e1632" fill-rule="evenodd"/>
          <path id="Trazado_151665" data-name="Trazado 151665" d="M437.292,213.842s-.742-1.38-1.328-1.122-20.258,29.206-20.924,31.7-.393,6.906,3.415,13.033,11.954,21.166,12.241,21.491,4.74-2.694,5.214-3.537c0,0,.195-.278-.09-.841s-9.97-23.5-10.583-25.151,16.641-22.069,17.464-23.7S446.7,215.507,437.292,213.842Z" transform="translate(-414.757 -165.989)" fill="#171c3a" fill-rule="evenodd"/>
          <path id="Trazado_151666" data-name="Trazado 151666" d="M453.931,205.258l-8.567,6.12s-6.112,23.929-6.136,25.017-2.364,14.283-2.364,14.283,8.567,3.4,9.791.136,14.959-26.654,15.639-30.325-.952-12.375-1.769-13.327S453.931,205.258,453.931,205.258Z" transform="translate(-415.628 -165.697)" fill="#e6bd3c" fill-rule="evenodd"/>
          <path id="Trazado_151667" data-name="Trazado 151667" d="M445.047,209.454s-7.759,2.731-8.473,3.138-4.9,15.679-5.244,17.107,1.9,27.6,1.9,29.917-2.924,31.209-2.992,31.685a.856.856,0,0,0,.885,1.02c.679,0,8.3-14.347,8.907-15.979s-1.369-26.243-1.369-26.243l5.177-35.222Z" transform="translate(-415.366 -165.862)" fill="#171c3a" fill-rule="evenodd"/>
          <path id="Trazado_151668" data-name="Trazado 151668" d="M468.343,213.483s11.121,11.209,11.529,11.889-11.15,38.96-11.285,40.728,5.712,27.809,5.916,28.489a1.31,1.31,0,0,1-.17.679,2.531,2.531,0,0,1-.917.817c-.238.17-27.436-4.215-29.611-5.576s-6.868-22.506-6.868-25.362,1.645-13.785,1.645-13.785L451.962,228.7S461.629,214.2,468.343,213.483Z" transform="translate(-415.63 -166.021)" fill="#1c2344" fill-rule="evenodd"/>
          <path id="Trazado_151669" data-name="Trazado 151669" d="M467.475,211.648s12.883,12.971,13.29,13.651-11.15,38.96-11.285,40.728,5.712,27.809,5.916,28.489a1.31,1.31,0,0,1-.17.679,2.526,2.526,0,0,1-.918.817c-.122.087-7.356-1.027-14.659-2.316,6.335-9.131,6-24.259,5.452-25.178-.643-1.072-4.028-3.385-3.514-3.556s3.985-.257,4.241-1.114,5.139-27.965,5.139-27.965l3.258-2.2s1.457-10.54.428-12.082-7.81-7.375-7.865-7.422C467.632,213.767,466.693,211.733,467.475,211.648Z" transform="translate(-416.525 -165.948)" fill="#101937" fill-rule="evenodd"/>
          <path id="Trazado_151670" data-name="Trazado 151670" d="M479.625,224.081a19.367,19.367,0,0,1,2.849,2.862c1.165,1.519,15.676,31.852,15.975,34.695s-.762,7.632-5.99,13.686-16.748,21.119-17.118,21.425-4.726-3.768-5.1-4.773c0,0-.165-.337.244-.906s14.979-24.022,15.935-25.72S472,238.3,471.382,236.372,469.038,224.282,479.625,224.081Z" transform="translate(-416.94 -166.438)" fill="#383d5d" fill-rule="evenodd"/>
          <path id="Trazado_151671" data-name="Trazado 151671" d="M462.481,194.17c.078,4.239-1.021,8.619-.744,12.864.057.866.472,1.154,1.54,1.848,1.479,2.2-2.568,9.165-5.229,9.579-.176.028-4.512-3.372-7.582-4.161-1.576-.4-2.874,1.608-2.992,1.523-.639-.464.735-4.066.287-5.433.54-.144,1.021-1.352,1.4-1.7,2.488-2.295,1.676-8.022-.362-10.187C447.282,196.885,462.481,194.17,462.481,194.17Z" transform="translate(-416.038 -165.26)" fill="#ed9072" fill-rule="evenodd"/>
          <path id="Trazado_151672" data-name="Trazado 151672" d="M465.415,210.968c-.338.959-8.558,11.93-8.558,11.93s-.294.394-.723-.106-5.494-7.568-5.494-7.568l11.247-8.381-.257-1.928C461.795,204.739,465.763,209.982,465.415,210.968Z" transform="translate(-416.17 -165.683)" fill="#fff" fill-rule="evenodd"/>
          <path id="Trazado_151673" data-name="Trazado 151673" d="M450.166,207.5c0-.006-.012-.016-.043-.018-3.844-.272-4.427,10.622-3.751,12.757a34.56,34.56,0,0,1,3.944-4.99C451.043,214.608,448.767,209.686,450.166,207.5Z" transform="translate(-415.992 -165.784)" fill="#fff" fill-rule="evenodd"/>
          <path id="Trazado_151674" data-name="Trazado 151674" d="M463.975,207.957s-14.381,17.826-15.4,19.322-8.839,19.921-9.927,23.866c0,0,12.036-15.027,13.735-16.386s7.991-6.6,7.991-6.6a.9.9,0,0,0,.085-.578c-.085-.237-1.835-4.2-1.835-4.2s5.235.782,5.711.747,2.827-11.715,2.894-12.055S463.975,207.957,463.975,207.957Z" transform="translate(-415.698 -165.803)" fill="#383d5d" fill-rule="evenodd"/>
          <path id="Trazado_151675" data-name="Trazado 151675" d="M449.917,207.476A41.991,41.991,0,0,0,445.5,208.7c-.612.34-5.439,8.363-5.575,9.043a.427.427,0,0,0,.2.459,14.032,14.032,0,0,1,1.378.866,8.249,8.249,0,0,1-1.683.306s-.2.077-.169.391-.645,30.258-.645,30.258,5.935-33.11,6.813-35.29a39.95,39.95,0,0,1,3.24-5.626Z" transform="translate(-415.712 -165.784)" fill="#383d5d" fill-rule="evenodd"/>
          <path id="Trazado_151676" data-name="Trazado 151676" d="M443.491,187.749a3.391,3.391,0,1,1-3.373,3.41A3.393,3.393,0,0,1,443.491,187.749Z" transform="translate(-415.756 -165.007)" fill="#e89089" fill-rule="evenodd"/>
          <path id="Trazado_151677" data-name="Trazado 151677" d="M467.051,187.615a3.391,3.391,0,1,1-3.372,3.409A3.391,3.391,0,0,1,467.051,187.615Z" transform="translate(-416.683 -165.002)" fill="#e89089" fill-rule="evenodd"/>
          <path id="Trazado_151678" data-name="Trazado 151678" d="M453.717,169.6h0c6.388-.038,11.644,5.629,11.68,12.6l.059,11.512c.036,6.966-5.162,12.7-11.551,12.737h0c-6.388.039-11.645-5.629-11.68-12.6l-.06-11.512C442.13,175.374,447.328,169.642,453.717,169.6Z" transform="translate(-415.836 -164.293)" fill="#f4ad85" fill-rule="evenodd"/>
          <path id="Trazado_151679" data-name="Trazado 151679" d="M464.945,178.916a13.627,13.627,0,0,1,.452,3.423l.059,11.512c.033,6.406-4.359,11.768-10.034,12.619-.557.059-.915.094-.992.1h-.006c6.344-.627,7.687-8.961,7.687-11.474v-6.526c0-6.166-3.412-6.81-5.747-6.81H444.781a2.263,2.263,0,0,0-2.037,1.377l-.577-.438v-.221a13.2,13.2,0,0,1,3.746-9.367c5.816,1.136,15.487,3.069,16.155,3.486C462.429,176.825,463.613,177.8,464.945,178.916Z" transform="translate(-415.836 -164.431)" fill="#ed9072" fill-rule="evenodd"/>
          <path id="Trazado_151680" data-name="Trazado 151680" d="M440.493,178.953l2.086,2.094s1-3.894,9.413-2.693-7.757-7.819-9.589-6.835S438.976,175.4,440.493,178.953Z" transform="translate(-415.747 -164.365)" fill="#01020e" fill-rule="evenodd"/>
          <path id="Trazado_151681" data-name="Trazado 151681" d="M462.231,178.851s-8.28.908-12.493-1.768-7.781-3.916-8.862-2.462c-1.024,1.378,3.1,5.1,1.438,11.435-.089.343-.306,6.2-.432,6.559-.04-2.291-.775-8.147-1.534-9.613-2.266-4.375-5.812-7.664-1.208-14.224,2.827-4.027,7.627-5.914,9.857-3.876,7.267,6.638,17.271-1.987,17.333,9.014,0,0,5.389,1.815.38,12.843a1.432,1.432,0,0,0-1.48,1.59l.044,5.888C461.227,194.238,461.145,183.627,462.231,178.851Z" transform="translate(-415.629 -164.075)" fill="#0e1632" fill-rule="evenodd"/>
        </g>
        <g id="Grupo_85407" data-name="Grupo 85407" transform="translate(210.477 114.486)">
          <g id="Grupo_85405" data-name="Grupo 85405" transform="translate(9.341)">
            <rect id="Rectángulo_31827" data-name="Rectángulo 31827" width="27.549" height="44.4" rx="2.144" transform="translate(4.689)" fill="#e2e1e7"/>
            <rect id="Rectángulo_31828" data-name="Rectángulo 31828" width="22.419" height="44.4" rx="1.804" transform="translate(28.961)" fill="#fff"/>
            <path id="Trazado_151682" data-name="Trazado 151682" d="M452.532,300.61h24.273c0-4.35,4.688-4.831,4.688-4.831H457.221S452.532,296.26,452.532,300.61Z" transform="translate(-452.532 -283.747)" fill="#fff" fill-rule="evenodd"/>
            <path id="Rectángulo_31829" data-name="Rectángulo 31829" d="M1.411,0H26.42a1.411,1.411,0,0,1,1.411,1.411v8.7a1.412,1.412,0,0,1-1.412,1.412H1.411A1.411,1.411,0,0,1,0,10.113v-8.7A1.411,1.411,0,0,1,1.411,0Z" transform="translate(3.333 37.255)" fill="#b93d2f"/>
            <path id="Trazado_151683" data-name="Trazado 151683" d="M482.684,322.036H488.2a2.6,2.6,0,0,1,2.222,1.695c.792,1.722.707,3.446,3.051,3.446h1.009c2.345,0,2.279-1.764,3.051-3.446a2.532,2.532,0,0,1,2.222-1.695h5.234a1.359,1.359,0,0,1,1.355,1.355V332.2a1.36,1.36,0,0,1-1.355,1.356h-22.3a1.36,1.36,0,0,1-1.356-1.356v-8.812A1.36,1.36,0,0,1,482.684,322.036Z" transform="translate(-453.666 -284.781)" fill="#e75d4d" fill-rule="evenodd"/>
            <path id="Trazado_151684" data-name="Trazado 151684" d="M452.532,316.445h24.273c0-4.35,4.688-4.83,4.688-4.83H457.221S452.532,312.1,452.532,316.445Z" transform="translate(-452.532 -284.371)" fill="#fff" fill-rule="evenodd"/>
            <path id="Trazado_151685" data-name="Trazado 151685" d="M509.045,308.9H486.971c0-4.35-4.291-4.83-4.291-4.83h22.074S509.045,304.545,509.045,308.9Z" transform="translate(-453.719 -284.073)" fill="#acabbb" fill-rule="evenodd"/>
            <path id="Trazado_151686" data-name="Trazado 151686" d="M486.306,288.275h16.92a.748.748,0,0,1,.746.746h0a.748.748,0,0,1-.746.745h-16.92a.747.747,0,0,1-.745-.745h0A.748.748,0,0,1,486.306,288.275Z" transform="translate(-453.832 -283.452)" fill="#e2e1e7" fill-rule="evenodd"/>
            <path id="Trazado_151687" data-name="Trazado 151687" d="M486.306,296.831h16.92a.748.748,0,0,1,.746.745h0a.748.748,0,0,1-.746.746h-16.92a.748.748,0,0,1-.745-.746h0A.747.747,0,0,1,486.306,296.831Z" transform="translate(-453.832 -283.789)" fill="#e2e1e7" fill-rule="evenodd"/>
            <path id="Trazado_151688" data-name="Trazado 151688" d="M486.306,314.7h16.92a.748.748,0,0,1,.746.745h0a.748.748,0,0,1-.746.746h-16.92a.748.748,0,0,1-.745-.746h0A.747.747,0,0,1,486.306,314.7Z" transform="translate(-453.832 -284.492)" fill="#e2e1e7" fill-rule="evenodd"/>
            <path id="Trazado_151689" data-name="Trazado 151689" d="M461.116,287.646h16.344a.748.748,0,0,1,.746.745h0a.748.748,0,0,1-.746.746H461.116a.748.748,0,0,1-.746-.746h0A.748.748,0,0,1,461.116,287.646Z" transform="translate(-452.841 -283.427)" fill="#acabbb" fill-rule="evenodd"/>
            <rect id="Rectángulo_31830" data-name="Rectángulo 31830" width="17.836" height="1.492" rx="0.746" transform="translate(7.53 22.73)" fill="#acabbb"/>
            <path id="Trazado_151690" data-name="Trazado 151690" d="M461.116,319.246h16.344a.748.748,0,0,1,.746.746h0a.748.748,0,0,1-.746.745H461.116a.748.748,0,0,1-.746-.745h0A.748.748,0,0,1,461.116,319.246Z" transform="translate(-452.841 -284.671)" fill="#acabbb" fill-rule="evenodd"/>
          </g>
          <g id="Grupo_85406" data-name="Grupo 85406" transform="translate(0 19.259)">
            <path id="Rectángulo_31831" data-name="Rectángulo 31831" d="M1.3,0H15.374a1.3,1.3,0,0,1,1.3,1.3V25.572a1.3,1.3,0,0,1-1.3,1.3H1.3a1.3,1.3,0,0,1-1.3-1.3V1.3A1.3,1.3,0,0,1,1.3,0Z" transform="translate(2.837)" fill="#e2e1e7"/>
            <path id="Rectángulo_31832" data-name="Rectángulo 31832" d="M1.092,0H12.476a1.091,1.091,0,0,1,1.091,1.091V25.779a1.091,1.091,0,0,1-1.091,1.091H1.092A1.092,1.092,0,0,1,0,25.778V1.092A1.092,1.092,0,0,1,1.092,0Z" transform="translate(17.526)" fill="#fff"/>
            <path id="Trazado_151691" data-name="Trazado 151691" d="M442.808,313.805H457.5c0-2.632,2.838-2.923,2.838-2.923h-14.69S442.808,311.173,442.808,313.805Z" transform="translate(-442.808 -303.601)" fill="#fff" fill-rule="evenodd"/>
            <rect id="Rectángulo_31833" data-name="Rectángulo 31833" width="16.843" height="6.974" rx="0.854" transform="translate(2.017 22.546)" fill="#b93d2f"/>
            <path id="Trazado_151692" data-name="Trazado 151692" d="M461.054,326.772h3.339a1.574,1.574,0,0,1,1.345,1.026c.477,1.042.427,2.086,1.845,2.086h.611c1.418,0,1.379-1.067,1.846-2.086a1.534,1.534,0,0,1,1.344-1.026h3.168a.822.822,0,0,1,.82.82v5.333a.823.823,0,0,1-.82.82h-13.5a.823.823,0,0,1-.82-.82v-5.333A.823.823,0,0,1,461.054,326.772Z" transform="translate(-443.494 -304.226)" fill="#e75d4d" fill-rule="evenodd"/>
            <path id="Trazado_151693" data-name="Trazado 151693" d="M442.808,323.388H457.5c0-2.632,2.838-2.922,2.838-2.922h-14.69S442.808,320.756,442.808,323.388Z" transform="translate(-442.808 -303.978)" fill="#fff" fill-rule="evenodd"/>
            <path id="Trazado_151694" data-name="Trazado 151694" d="M477.008,318.82H463.649a2.921,2.921,0,0,0-2.6-2.923h13.358A2.921,2.921,0,0,1,477.008,318.82Z" transform="translate(-443.526 -303.798)" fill="#acabbb" fill-rule="evenodd"/>
            <path id="Trazado_151695" data-name="Trazado 151695" d="M463.247,306.341h10.238a.453.453,0,0,1,.452.452h0a.453.453,0,0,1-.452.451H463.247a.453.453,0,0,1-.451-.451h0A.453.453,0,0,1,463.247,306.341Z" transform="translate(-443.595 -303.422)" fill="#e2e1e7" fill-rule="evenodd"/>
            <path id="Trazado_151696" data-name="Trazado 151696" d="M463.247,311.519h10.238a.452.452,0,0,1,.452.451h0a.453.453,0,0,1-.452.452H463.247a.453.453,0,0,1-.451-.452h0A.452.452,0,0,1,463.247,311.519Z" transform="translate(-443.595 -303.626)" fill="#e2e1e7" fill-rule="evenodd"/>
            <path id="Trazado_151697" data-name="Trazado 151697" d="M463.247,322.33h10.238a.453.453,0,0,1,.452.452h0a.453.453,0,0,1-.452.452H463.247a.453.453,0,0,1-.451-.452h0A.453.453,0,0,1,463.247,322.33Z" transform="translate(-443.595 -304.052)" fill="#e2e1e7" fill-rule="evenodd"/>
            <rect id="Rectángulo_31834" data-name="Rectángulo 31834" width="10.793" height="0.903" rx="0.452" transform="translate(4.557 2.553)" fill="#acabbb"/>
            <rect id="Rectángulo_31835" data-name="Rectángulo 31835" width="10.793" height="0.903" rx="0.452" transform="translate(4.557 13.756)" fill="#acabbb"/>
            <path id="Trazado_151698" data-name="Trazado 151698" d="M448,325.084h9.892a.452.452,0,0,1,.451.451h0a.453.453,0,0,1-.451.452H448a.453.453,0,0,1-.452-.452h0A.452.452,0,0,1,448,325.084Z" transform="translate(-442.995 -304.16)" fill="#acabbb" fill-rule="evenodd"/>
          </g>
        </g>
        <g id="Grupo_85409" data-name="Grupo 85409" transform="translate(22.468 96.167)">
          <path id="Trazado_151699" data-name="Trazado 151699" d="M281.531,265.294l19.393.092a.463.463,0,0,1,.463.463l0,2.029a.463.463,0,0,1-.463.463l-19.393-.092a.462.462,0,0,1-.463-.462l0-2.029a.465.465,0,0,1,.463-.464Zm18.929,1.016-18.467-.088,0,1.1,18.467.089Z" transform="translate(-248.43 -264.227)" fill="#0e1632" fill-rule="evenodd"/>
          <g id="Grupo_85408" data-name="Grupo 85408" transform="translate(6.82)">
            <path id="Trazado_151700" data-name="Trazado 151700" d="M255.022,294.254l25.622-29.2a.462.462,0,0,1,.652-.045l1.525,1.339a.462.462,0,0,1,.044.652l-25.621,29.2a.464.464,0,0,1-.653.044l-1.525-1.338a.463.463,0,0,1-.044-.653Zm26.013-28.239-25.011,28.5.829.727,25.011-28.5Z" transform="translate(-254.22 -264.211)" fill="#0e1632" fill-rule="evenodd"/>
            <path id="Trazado_151701" data-name="Trazado 151701" d="M281.727,264.2a2.582,2.582,0,1,1-2.236,2.887A2.581,2.581,0,0,1,281.727,264.2Z" transform="translate(-255.188 -264.183)" fill="#383d5d" fill-rule="evenodd"/>
            <path id="Trazado_151702" data-name="Trazado 151702" d="M255.008,295.535l18.016,34.413a.463.463,0,0,0,.624.2l1.8-.941a.463.463,0,0,0,.2-.624l-18.016-34.413a.462.462,0,0,0-.624-.2l-1.8.94a.463.463,0,0,0-.2.624ZM273.63,329.11l-17.586-33.593.977-.512L274.607,328.6Z" transform="translate(-254.222 -265.354)" fill="#0e1632" fill-rule="evenodd"/>
            <path id="Trazado_151703" data-name="Trazado 151703" d="M273.611,332.084a2.583,2.583,0,1,0-1.492-3.333A2.583,2.583,0,0,0,273.611,332.084Z" transform="translate(-254.891 -266.66)" fill="#383d5d" fill-rule="evenodd"/>
            <path id="Trazado_151704" data-name="Trazado 151704" d="M256.449,293.009a2.582,2.582,0,1,1-2.236,2.887A2.582,2.582,0,0,1,256.449,293.009Z" transform="translate(-254.192 -265.317)" fill="#383d5d" fill-rule="evenodd"/>
          </g>
          <rect id="Rectángulo_31836" data-name="Rectángulo 31836" width="42.515" height="6.523" rx="3.262" transform="translate(0 63.237)" fill="#383d5d"/>
          <rect id="Rectángulo_31837" data-name="Rectángulo 31837" width="42.515" height="6.523" rx="3.262" transform="translate(12.823 63.237)" fill="#0e1632"/>
          <path id="Trazado_151705" data-name="Trazado 151705" d="M297.189,271.981h9.486a5.018,5.018,0,0,0,5-5H292.185A5.019,5.019,0,0,0,297.189,271.981Z" transform="translate(-248.868 -264.293)" fill="#fff" fill-rule="evenodd"/>
          <path id="Trazado_151706" data-name="Trazado 151706" d="M297.457,271.024h5.7a3.015,3.015,0,0,0,3.006-3.007H294.451A3.015,3.015,0,0,0,297.457,271.024Z" transform="translate(-248.958 -264.334)" fill="#dff0f2" fill-rule="evenodd"/>
          <path id="Trazado_151707" data-name="Trazado 151707" d="M293.916,264.587h15.867a3.839,3.839,0,0,1,3.827,3.827H290.089A3.838,3.838,0,0,1,293.916,264.587Z" transform="translate(-248.786 -264.199)" fill="#383d5d" fill-rule="evenodd"/>
          <path id="Trazado_151708" data-name="Trazado 151708" d="M293.916,264.587h7.255A3.839,3.839,0,0,1,305,268.414H290.089A3.838,3.838,0,0,1,293.916,264.587Z" transform="translate(-248.786 -264.199)" fill="#01020e" fill-rule="evenodd"/>
        </g>
        <g id="Grupo_85410" data-name="Grupo 85410" transform="translate(256.2 18.747)">
          <path id="Trazado_151709" data-name="Trazado 151709" d="M493.313,190.211a.35.35,0,0,1-.571-.406,14.824,14.824,0,1,1-2.328,12.2.351.351,0,0,1,.681-.167,14.146,14.146,0,1,0,2.217-11.623Z" transform="translate(-490.405 -183.591)" fill="#f67409" fill-rule="evenodd"/>
          <path id="Trazado_151710" data-name="Trazado 151710" d="M512.1,192.225a7.747,7.747,0,0,0-2.128,3.752c.582.388,2.186,1.616,1.434,2.919l-3.132,5.42c-.761,1.267-2.605.5-3.229.193a7.726,7.726,0,0,0-2.185,3.719,4.907,4.907,0,0,0,2.873.607,3.092,3.092,0,0,0,2.286-1.285l6.08-10.531a3.107,3.107,0,0,0-.038-2.61,4.9,4.9,0,0,0-1.962-2.184Zm-2.77,3.809a8.037,8.037,0,0,1,2.559-4.412.3.3,0,0,1,.343-.024,5.589,5.589,0,0,1,2.385,2.574,3.722,3.722,0,0,1,.008,3.142l-6.083,10.537a3.712,3.712,0,0,1-2.738,1.583,5.584,5.584,0,0,1-3.41-.772.3.3,0,0,1-.163-.293,7.906,7.906,0,0,1,2.533-4.434.3.3,0,0,1,.375-.058c.006,0,2.01,1.159,2.624.124l3.121-5.407c.582-1.008-1.242-2.119-1.4-2.214A.3.3,0,0,1,509.325,196.033Z" transform="translate(-490.87 -183.905)" fill="#f67409" fill-rule="evenodd"/>
          <text id="_24" data-name="24" transform="translate(2.263 16.614)" fill="#f67409" font-size="11" font-family="OpenSans-Extrabold, Open Sans" font-weight="800"><tspan x="0" y="0">24</tspan></text>
        </g>
        <g id="Grupo_85412" data-name="Grupo 85412" transform="translate(170.658 7.105)">
          <path id="Trazado_151711" data-name="Trazado 151711" d="M407.425,173.6h20.208a3.158,3.158,0,0,1,3.149,3.149v17.6a.351.351,0,0,1-.6.248l-5.366-5.366h-17.39a3.158,3.158,0,0,1-3.149-3.149v-9.335A3.158,3.158,0,0,1,407.425,173.6Z" transform="translate(-401.472 -171.556)" fill="#fece10" fill-rule="evenodd"/>
          <g id="Grupo_85411" data-name="Grupo 85411">
            <path id="Trazado_151712" data-name="Trazado 151712" d="M404.922,171.472H425.13a3.573,3.573,0,0,1,3.565,3.565v17.6a.764.764,0,0,1-.13.427.754.754,0,0,1-.344.281h0a.755.755,0,0,1-.441.046.773.773,0,0,1-.395-.211l-5.244-5.245H404.922a3.572,3.572,0,0,1-3.565-3.565v-9.335a3.573,3.573,0,0,1,3.565-3.565Zm20.208.832H404.922a2.742,2.742,0,0,0-2.733,2.733v9.335a2.742,2.742,0,0,0,2.733,2.733h17.563l5.378,5.379V175.037a2.742,2.742,0,0,0-2.733-2.733Z" transform="translate(-401.357 -171.472)" fill="#987b18" fill-rule="evenodd"/>
            <path id="Trazado_151713" data-name="Trazado 151713" d="M404.884,175.076a.228.228,0,0,1,0-.455h20.544a.228.228,0,1,1,0,.455Z" transform="translate(-401.487 -171.596)" fill="#987b18" fill-rule="evenodd"/>
            <path id="Trazado_151714" data-name="Trazado 151714" d="M404.884,177.387a.227.227,0,1,1,0-.454h2.177a.227.227,0,0,1,0,.454Zm5.074,0a.227.227,0,1,1,0-.454h15.47a.227.227,0,1,1,0,.454Z" transform="translate(-401.487 -171.687)" fill="#987b18" fill-rule="evenodd"/>
            <path id="Trazado_151715" data-name="Trazado 151715" d="M404.884,179.7a.227.227,0,1,1,0-.454h20.544a.227.227,0,1,1,0,.454Z" transform="translate(-401.487 -171.778)" fill="#987b18" fill-rule="evenodd"/>
            <path id="Trazado_151716" data-name="Trazado 151716" d="M410.832,182.832a.228.228,0,0,1,0-.455h14.83a.228.228,0,1,1,0,.455Z" transform="translate(-401.721 -171.901)" fill="#987b18" fill-rule="evenodd"/>
            <path id="Trazado_151717" data-name="Trazado 151717" d="M417.725,185.339a.228.228,0,0,1,0-.455h8.209a.228.228,0,1,1,0,.455Z" transform="translate(-401.992 -172)" fill="#987b18" fill-rule="evenodd"/>
            <path id="Trazado_151718" data-name="Trazado 151718" d="M412.829,185.339a.228.228,0,0,1,0-.455h2.935a.228.228,0,0,1,0,.455Z" transform="translate(-401.8 -172)" fill="#987b18" fill-rule="evenodd"/>
          </g>
        </g>
        <path id="Trazado_151719" data-name="Trazado 151719" d="M528.872,336.462a.519.519,0,1,0-1.037,0v1.22h-1.219a.518.518,0,1,0,0,1.037h1.219v1.22a.519.519,0,1,0,1.037,0v-1.22h1.219a.518.518,0,1,0,0-1.037h-1.219Z" transform="translate(-235.61 -170.842)" fill="#bfcce8" fill-rule="evenodd"/>
        <g id="Grupo_85415" data-name="Grupo 85415" transform="translate(51.161 152.813)">
          <g id="Grupo_85413" data-name="Grupo 85413" transform="translate(0 4.599)">
            <path id="Trazado_151720" data-name="Trazado 151720" d="M317.369,327.939H299.8a2.626,2.626,0,0,0,0,5.253h17.572a2.626,2.626,0,0,0,0-5.253Z" transform="translate(-277.758 -327.939)" fill="#adf0ee" fill-rule="evenodd"/>
            <path id="Trazado_151721" data-name="Trazado 151721" d="M277.281,328.258h22.471a2.327,2.327,0,0,1,2.32,2.32h0a2.327,2.327,0,0,1-2.32,2.321H277.281Z" transform="translate(-276.975 -327.952)" fill="#fff" fill-rule="evenodd"/>
            <path id="Trazado_151722" data-name="Trazado 151722" d="M277.268,327.939a.306.306,0,1,0,0,.612h22.471a2.014,2.014,0,0,1,0,4.029H277.268a.306.306,0,1,0,0,.612h22.471a2.626,2.626,0,0,0,0-5.253Z" transform="translate(-276.962 -327.939)" fill="#adf0ee" fill-rule="evenodd"/>
            <path id="Trazado_151723" data-name="Trazado 151723" d="M317.247,330.565a2.634,2.634,0,0,0-2.626-2.626h2.284a2.626,2.626,0,0,1,0,5.253h-2.284a2.634,2.634,0,0,0,2.626-2.626Z" transform="translate(-278.445 -327.939)" fill="#004a82" fill-rule="evenodd"/>
            <path id="Trazado_151724" data-name="Trazado 151724" d="M313.8,330.565a2.634,2.634,0,0,0-2.626-2.626h2.284a2.626,2.626,0,0,1,0,5.253h-2.284a2.634,2.634,0,0,0,2.626-2.626Z" transform="translate(-278.309 -327.939)" fill="#004a82" fill-rule="evenodd"/>
          </g>
          <g id="Grupo_85414" data-name="Grupo 85414" transform="translate(2.626)">
            <path id="Trazado_151725" data-name="Trazado 151725" d="M282,323.151h15.387a2.3,2.3,0,0,1,0,4.6H282a2.3,2.3,0,0,1,0-4.6Z" transform="translate(-279.696 -323.151)" fill="#e75d4d" fill-rule="evenodd"/>
            <path id="Trazado_151726" data-name="Trazado 151726" d="M317.029,323.43H297.352a2.037,2.037,0,0,0-2.032,2.032h0a2.037,2.037,0,0,0,2.032,2.032h19.678Z" transform="translate(-280.311 -323.162)" fill="#fff" fill-rule="evenodd"/>
            <path id="Trazado_151727" data-name="Trazado 151727" d="M317.018,323.151a.268.268,0,0,1,0,.536H297.341a1.764,1.764,0,0,0,0,3.527h19.678a.268.268,0,1,1,0,.536H297.341a2.3,2.3,0,0,1,0-4.6Z" transform="translate(-280.3 -323.151)" fill="#b93d2f" fill-rule="evenodd"/>
            <path id="Trazado_151728" data-name="Trazado 151728" d="M282.746,325.451a2.306,2.306,0,0,1,2.3-2.3h-2a2.3,2.3,0,0,0,0,4.6h2a2.306,2.306,0,0,1-2.3-2.3Z" transform="translate(-279.737 -323.151)" fill="#b93d2f" fill-rule="evenodd"/>
            <path id="Trazado_151729" data-name="Trazado 151729" d="M285.763,325.451a2.306,2.306,0,0,1,2.3-2.3h-2a2.3,2.3,0,0,0,0,4.6h2a2.306,2.306,0,0,1-2.3-2.3Z" transform="translate(-279.856 -323.151)" fill="#b93d2f" fill-rule="evenodd"/>
          </g>
        </g>
        <g id="Grupo_85416" data-name="Grupo 85416" transform="translate(116.905 113.033)">
          <path id="Trazado_151730" data-name="Trazado 151730" d="M423.521,333.835H347.949a2.59,2.59,0,0,1-2.544-2.4h0a2.241,2.241,0,0,1,2.257-2.4h75.573a2.59,2.59,0,0,1,2.544,2.4h0A2.242,2.242,0,0,1,423.521,333.835Z" transform="translate(-345.4 -283.603)" fill="#a8a6b5" fill-rule="evenodd"/>
          <path id="Trazado_151731" data-name="Trazado 151731" d="M423.539,333.939H347.967a2.578,2.578,0,0,1-2.1-1.132,2.242,2.242,0,0,1,1.967-1.132H423.4a2.58,2.58,0,0,1,2.1,1.132A2.242,2.242,0,0,1,423.539,333.939Z" transform="translate(-345.419 -283.707)" fill="#96929f" fill-rule="evenodd"/>
          <path id="Trazado_151732" data-name="Trazado 151732" d="M425.768,327.173H365.322a2.92,2.92,0,0,1-2.941-3.14l2.475-39.152a3.4,3.4,0,0,1,3.338-3.139h60.446a2.92,2.92,0,0,1,2.941,3.139l-2.475,39.152A3.4,3.4,0,0,1,425.768,327.173Z" transform="translate(-346.069 -281.741)" fill="#96929f" fill-rule="evenodd"/>
          <path id="Trazado_151733" data-name="Trazado 151733" d="M425.841,327.173H367.178a2.921,2.921,0,0,1-2.941-3.14l2.475-39.152a3.4,3.4,0,0,1,3.338-3.139h58.663a2.92,2.92,0,0,1,2.941,3.139l-2.475,39.152A3.4,3.4,0,0,1,425.841,327.173Z" transform="translate(-346.142 -281.741)" fill="#fff" fill-rule="evenodd"/>
          <path id="Trazado_151734" data-name="Trazado 151734" d="M422.741,327.173H416.7l-50.042-40,.145-2.3a3.3,3.3,0,0,1,.717-1.84l55.217,44.132ZM374.3,281.741l54.588,43.63a3.264,3.264,0,0,0,.385-1.338l.385-6.088-45.3-36.2Z" transform="translate(-346.238 -281.741)" fill="#f0eef0" fill-rule="evenodd"/>
          <path id="Trazado_151735" data-name="Trazado 151735" d="M361.683,333.835H347.949a2.59,2.59,0,0,1-2.544-2.4h0a2.241,2.241,0,0,1,2.257-2.4H361.4a2.59,2.59,0,0,1,2.544,2.4h0A2.242,2.242,0,0,1,361.683,333.835Z" transform="translate(-345.4 -283.603)" fill="#fff" fill-rule="evenodd"/>
          <path id="Trazado_151736" data-name="Trazado 151736" d="M425.118,330.186H362.233a1.294,1.294,0,0,1-1.272-1.2h0a1.12,1.12,0,0,1,1.128-1.2h62.886a1.3,1.3,0,0,1,1.272,1.2h0A1.12,1.12,0,0,1,425.118,330.186Z" transform="translate(-346.013 -283.554)" fill="#d2ced6" fill-rule="evenodd"/>
        </g>
        <g id="Grupo_85417" data-name="Grupo 85417" transform="translate(0 70.063)">
          <path id="Trazado_151737" data-name="Trazado 151737" d="M352.058,276.9a12.448,12.448,0,0,1,.1-5.788l-9.91-.837,13.793-6.045a31.884,31.884,0,0,0,4.307-7.119c1.379-3.527-2.362-12.5-3.768-14.724s-4.328-1.892-6.252-.689c0,0-2.89-4.354-6.338-4.645s-14.411.719-17.6,8.765,1.939,16.087-3.19,24.362a2.062,2.062,0,0,0,.214,1.929c.666.882,8.752,10.306,27.181,6.508a1.873,1.873,0,0,0,1.463-1.718Z" transform="translate(-227.615 -237.009)" fill="#0e1632" fill-rule="evenodd"/>
          <path id="Trazado_151738" data-name="Trazado 151738" d="M339.07,280.11c1.015-11.082,1.731-20.714,1.731-20.714l-.94-3.123s-8.486,6.859-14.511-.357c.286,4.951.994,9.936-2.15,15.008a2.062,2.062,0,0,0,.214,1.929l.027.036.01.012.024.03.024.03.015.019.043.052,0,0,.053.062.014.017.044.05.036.042.029.032.063.071.009.009.078.085.017.018.067.072.047.05.044.045.032.033.066.067.1.1.072.07.055.055a23.54,23.54,0,0,0,12.791,5.955l.02,0q.9.143,1.865.235Z" transform="translate(-227.615 -237.754)" fill="#010518" fill-rule="evenodd"/>
          <path id="Trazado_151739" data-name="Trazado 151739" d="M352.248,278.081c-.63-3.135-.189-4.395.69-8.583l-15.771-2.481-6.891,1.335a46.224,46.224,0,0,1-2.4,8.533c4.2,2.6,11.607,5.243,22.912,2.914a1.873,1.873,0,0,0,1.463-1.718Z" transform="translate(-227.805 -238.191)" fill="#010518" fill-rule="evenodd"/>
          <path id="Trazado_151740" data-name="Trazado 151740" d="M330.632,279.224c4.364,1.369,10.33,3.006,15.473,5.534.355.176-.369,1.545-.038,1.727a12.1,12.1,0,0,1,2.257,1.835c2.4,2.376,7.291,20.969,6.855,22.822-.7,2.98-6.879,11.166-6.879,11.166-1.227,2.369-2.747,5.82-4.24,9.548H313.382c2.136-6.945,2.932-11.651,2.988-15.892h0c1.638-14.416-6.112-17.553-6.112-17.553l8.028-18.891c3.123-1.106,9.351-.69,9.351-.69A6.391,6.391,0,0,1,330.632,279.224Z" transform="translate(-227.112 -238.653)" fill="#e75d4d" fill-rule="evenodd"/>
          <path id="Trazado_151741" data-name="Trazado 151741" d="M344.786,332.172h-4.33c.807-2.16,4.56-12.37,5.363-14.55-3.649-.635-8.672-1.506-9.557-1.717s-4.277,1.727-4.277,1.727l.377-2.2-3.641,3.667,6.225-11.626s10.159,2.294,12.317,2.687.842.094,1.243.062c1.2-3.377-.765-4.321-.531-5.956s.3-17.482.3-17.482c1.313.68,1.906,2.159,2.648,4.491.489,1.535,3.083,11.622,4.157,17.588.256,1.419.457,2.481.585,3.329C353.26,318.325,347.857,324.5,344.786,332.172Z" transform="translate(-227.839 -238.969)" fill="#b93d2f" fill-rule="evenodd"/>
          <path id="Trazado_151742" data-name="Trazado 151742" d="M339.1,261.115l-1.535,4.614s-2.323,10.888-2.861,12.3c-.186.49-.8.639-1.745.617,1.359,1.946,4,4.916,7.815,5.639a7.4,7.4,0,0,0,5.3-.675c-.815-.43-1.594-.941-1.59-1.361.033-3.716.672-10.256,2.685-11.465C349.473,269.4,339.1,261.115,339.1,261.115Z" transform="translate(-228.006 -237.959)" fill="#e89089" fill-rule="evenodd"/>
          <path id="Trazado_151743" data-name="Trazado 151743" d="M333.666,279.328a9.631,9.631,0,0,1-2.2-.085,16.6,16.6,0,0,0,4.885,4.413c6.016,3.813,8.914,1.735,9.83.755a6.653,6.653,0,0,1-1.467-.941h0c-5.615,2.744-11.049-4.141-11.049-4.141Z" transform="translate(-227.947 -238.672)" fill="#fff" fill-rule="evenodd"/>
          <path id="Trazado_151744" data-name="Trazado 151744" d="M347.1,284.882s2.4,24.146,2.109,26.186-4.106,12.089-7.45,21.029h5.749c1.135-2.188,2-3.9,2.161-4.308.1-.266.5-1.038,1.046-2.05.983-1.819,2.451-4.413,3.556-6.229,3.525-5.787,3.515-4.435,2.295-11.214-1.073-5.965-4.369-17.005-4.857-18.54C350.969,287.423,347.724,284.712,347.1,284.882Z" transform="translate(-228.352 -238.894)" fill="#1c2344" fill-rule="evenodd"/>
          <path id="Trazado_151745" data-name="Trazado 151745" d="M346.86,319.758c-.791,2.208-1.709,4.724-2.663,7.307a19.217,19.217,0,0,1,3.639.52c1.748.687,1.931,1.471,1.931,1.471.1-.266.5-1.038,1.046-2.05.983-1.819,2.45-4.413,3.556-6.229,1.06-1.741,1.8-2.835,2.284-3.7a10.006,10.006,0,0,1-2.287,1.653C353.729,318.924,348.83,319.522,346.86,319.758Z" transform="translate(-228.448 -240.162)" fill="#0e1632" fill-rule="evenodd"/>
          <path id="Trazado_151746" data-name="Trazado 151746" d="M329.687,278.694s4.4,21.328,5.006,27.528-1.336,10.637-3.517,15.3c-.735,1.571-3.093,5.577-6,10.323H311.623l1.451-33.5-3.888-.9c.232-1.683.42-3.077.549-4.053l7.653-13.532S320.274,277.511,329.687,278.694Z" transform="translate(-227.07 -238.638)" fill="#1c2344" fill-rule="evenodd"/>
          <path id="Trazado_151747" data-name="Trazado 151747" d="M321.446,289.276c-2.162,8.685-.661,12.286-.661,12.286l1.159-5.4s1.1,7.978,2.314,8.994c.605.505,7.811,1.888,10.511,2.391a22.646,22.646,0,0,1-1.327,8.935c-1.939.2-13.6-1.443-14.155,2.324-.278,1.879-.215-4.165-.215-4.165l-.691,17.519h-6.758l1.451-33.5-3.888-.9.011-.079.012-.078.011-.078.011-.078h0l.011-.077.011-.077.01-.076.011-.075.011-.076.011-.074.01-.075h0l.011-.074.01-.073.01-.073h0l.011-.072.01-.072h0l.01-.071h0l.01-.072h0l.01-.07h0l.01-.07h0l.01-.069h0l.01-.07h0l.009-.068h0l.01-.068h0l.01-.067h0l.009-.067h0l.01-.066h0l.009-.066h0l.009-.065h0l.01-.064h0l.009-.065h0l.009-.063h0l.009-.063h0l.008-.062h0l.009-.062h0l.009-.062h0l.009-.061h0l.008-.061h0l.009-.06h0l.008-.061h0l.008-.059h0l.009-.059h0l.008-.059h0l.008-.058h0l.008-.057h0l.008-.057h0l.008-.056h0l.008-.056h0l.007-.055h0l.008-.054h0l.007-.054h0l.008-.053h0l.007-.052h0l.007-.052h0l.007-.051h0l.008-.05h0l.007-.051h0l.007-.049h0l.006-.048h0l.007-.048h0l.007-.048h0l.006-.047h0l.007-.046h0l.006-.045,4.144-7.328Z" transform="translate(-227.07 -238.953)" fill="#0e1632" fill-rule="evenodd"/>
          <path id="Trazado_151748" data-name="Trazado 151748" d="M310.694,289.347c-2.481,6.781-3.157,30.038-1.111,42.524h10.889c-4.453-24.784,4.9-42.513,2.845-48.793C320.026,273.024,312.326,284.889,310.694,289.347Z" transform="translate(-227.038 -238.668)" fill="#383d5d" fill-rule="evenodd"/>
          <path id="Trazado_151749" data-name="Trazado 151749" d="M355.986,265.652l1.213-.532a34.931,34.931,0,0,0,3.531-5.41c-.288.549-2.2,3.893-5,1.85-3.044-2.223-3.167,1.3-3.167,1.3a14.07,14.07,0,0,0,2.911,2.58c.138.063.312.136.512.215Zm4.781-6.015,0,0h0Z" transform="translate(-228.777 -237.9)" fill="#010518" fill-rule="evenodd"/>
          <path id="Trazado_151750" data-name="Trazado 151750" d="M354.625,263.794a3.471,3.471,0,1,0,3.1,3.811A3.472,3.472,0,0,0,354.625,263.794Z" transform="translate(-228.708 -238.063)" fill="#e89089" fill-rule="evenodd"/>
          <path id="Trazado_151751" data-name="Trazado 151751" d="M329.479,261.23c-.086,0-.172.012-.257.022h0a3.473,3.473,0,1,0,2.828.939c0,1.028-.267,2.279-1.581,2.295l.207-1.991A1.193,1.193,0,0,0,329.479,261.23Z" transform="translate(-227.739 -237.963)" fill="#e89089" fill-rule="evenodd"/>
          <path id="Trazado_151752" data-name="Trazado 151752" d="M344.593,244.427h0a11.925,11.925,0,0,0-13.051,10.6l-1.113,10.747a11.925,11.925,0,0,0,10.6,13.051h0a11.926,11.926,0,0,0,13.051-10.6l1.112-10.748A11.923,11.923,0,0,0,344.593,244.427Z" transform="translate(-227.904 -237.299)" fill="#f4ad85" fill-rule="evenodd"/>
          <path id="Trazado_151753" data-name="Trazado 151753" d="M331.347,257.173l-.918,8.863a11.936,11.936,0,0,0,7.578,12.327c-6.919-2.866-3.372-14.894-3.372-14.894,1.4-.239,3.611-2.851,4.9-4.371s2.28-3.054,4.5-3.009a45.8,45.8,0,0,1,6.9,1.209,13.048,13.048,0,0,0,3.81,4.826l.454-4.387a11.8,11.8,0,0,0-.225-3.817c-.287-.168-.581-.339-.892-.514C344.554,248.053,336.472,252.384,331.347,257.173Z" transform="translate(-227.904 -237.558)" fill="#ed9072" fill-rule="evenodd"/>
          <path id="Trazado_151754" data-name="Trazado 151754" d="M353.814,254.387l-1.923.817a5.67,5.67,0,0,0-3.876-.623s-4.222-1.552-6.459-.688-.921-2.241-.511-2.378a27.27,27.27,0,0,1,6.5-.049c1.848.354,4.631.789,4.631.789Z" transform="translate(-228.294 -237.572)" fill="#010518" fill-rule="evenodd"/>
          <path id="Trazado_151755" data-name="Trazado 151755" d="M330.948,260.632l1.139.2s.792,3.6-1.446,3.63l.207-1.991a1.125,1.125,0,0,0-.023-.381Z" transform="translate(-227.914 -237.94)" fill="#010518" fill-rule="evenodd"/>
          <path id="Trazado_151756" data-name="Trazado 151756" d="M347.6,254.24c-1.738-2.346-4.577-2.825-6.786.469-2.017,3.009-5.013,8.215-10.054,7.79l-.026-.092.012,0,.283-3.359s-.424.11-.939.232a21.7,21.7,0,0,1-.174-6.02c.584-4.222,6.457-10.389,13.083-10.626s11.418,3.7,12.368,5.941a50.091,50.091,0,0,1,1.886,7.334l-1.165,1.667-1.256,3.314c-3.048-2.965-2.735-5.769-4.06-7.182C350.056,252.944,348.984,252.942,347.6,254.24Z" transform="translate(-227.88 -237.23)" fill="#0e1632" fill-rule="evenodd"/>
          <path id="Trazado_151757" data-name="Trazado 151757" d="M340.133,256.289c-2,3.025-4.868,7.127-9.364,6.747l-.026-.092.012,0,.283-3.359s-.424.11-.939.232c-.044-.29-.086-.594-.125-.908C335.052,260.384,340.116,256.3,340.133,256.289Z" transform="translate(-227.888 -237.769)" fill="#010518" fill-rule="evenodd"/>
          <path id="Trazado_151758" data-name="Trazado 151758" d="M345.972,284.167s3.094,25.38,3.033,26.2-.883,4.793-.883,4.793a16.753,16.753,0,0,0,1.86-4.579c.366-2.075,1.343-16.116,1.343-16.116l-1.648-.885,1.526-.092-2.519-7.884a2.232,2.232,0,0,0-.686-.815c-.4-.23-1.842-.955-1.866-.965a.946.946,0,0,0-.565.068S345.867,284.1,345.972,284.167Z" transform="translate(-228.502 -238.852)" fill="#484e6a" fill-rule="evenodd"/>
          <path id="Trazado_151759" data-name="Trazado 151759" d="M330.352,278.7s4.4,21.328,5.006,27.528a22.011,22.011,0,0,1-.381,6.873c.811-6.342-8.113-21.264-8.113-21.264l2.319-1.1-3.112-1.4s1.434-8.027,1.525-9.37c.089-1.306-.6-1.548-.642-1.561C327.978,278.445,329.107,278.54,330.352,278.7Z" transform="translate(-227.734 -238.639)" fill="#484e6a" fill-rule="evenodd"/>
          <path id="Trazado_151760" data-name="Trazado 151760" d="M238.239,343.427h3.854a2.8,2.8,0,0,0,2.794-2.794h0a2.8,2.8,0,0,0-2.794-2.793H231.912a2.225,2.225,0,0,1-2.217-2.217h0a2.224,2.224,0,0,1,2.217-2.217h269a2.224,2.224,0,0,1,2.217,2.217h0a2.225,2.225,0,0,1-2.217,2.217H486.945a2.8,2.8,0,0,0-2.794,2.793h0a2.8,2.8,0,0,0,2.794,2.794h3.272a4.446,4.446,0,0,1,4.433,4.433h0a4.447,4.447,0,0,1-4.433,4.434H238.239a4.448,4.448,0,0,1-4.433-4.434h0a4.447,4.447,0,0,1,4.433-4.433Zm-12.318-10.02a2.217,2.217,0,1,1-2.217,2.217A2.217,2.217,0,0,1,225.921,333.407Z" transform="translate(-223.704 -240.805)" fill="#01020e" fill-rule="evenodd"/>
        </g>
        <g id="Grupo_85418" data-name="Grupo 85418" transform="translate(128.449 46.459)">
          <path id="Trazado_151761" data-name="Trazado 151761" d="M381.192,212.438H360.984A3.575,3.575,0,0,0,357.418,216v17.6a.766.766,0,0,0,.474.709h0a.762.762,0,0,0,.836-.166l5.244-5.244h17.218a3.575,3.575,0,0,0,3.565-3.565V216a3.575,3.575,0,0,0-3.565-3.566Zm-20.208.833h20.208A2.742,2.742,0,0,1,383.925,216v9.335a2.742,2.742,0,0,1-2.733,2.733H363.628l-5.378,5.378V216a2.742,2.742,0,0,1,2.733-2.733Z" transform="translate(-357.418 -212.438)" fill="#f67409" fill-rule="evenodd"/>
          <path id="Trazado_151762" data-name="Trazado 151762" d="M381.49,216.043a.228.228,0,0,0,0-.455H360.946a.228.228,0,1,0,0,.455Z" transform="translate(-357.548 -212.562)" fill="#f67409" fill-rule="evenodd"/>
          <path id="Trazado_151763" data-name="Trazado 151763" d="M381.49,218.354a.228.228,0,0,0,0-.455h-2.177a.228.228,0,0,0,0,.455Zm-5.074,0a.228.228,0,0,0,0-.455h-15.47a.228.228,0,1,0,0,.455Z" transform="translate(-357.548 -212.653)" fill="#f67409" fill-rule="evenodd"/>
          <path id="Trazado_151764" data-name="Trazado 151764" d="M381.49,220.665a.228.228,0,0,0,0-.455H360.946a.228.228,0,1,0,0,.455Z" transform="translate(-357.548 -212.744)" fill="#f67409" fill-rule="evenodd"/>
          <path id="Trazado_151765" data-name="Trazado 151765" d="M375.776,223.8a.228.228,0,0,0,0-.455h-14.83a.228.228,0,1,0,0,.455Z" transform="translate(-357.548 -212.867)" fill="#f67409" fill-rule="evenodd"/>
          <path id="Trazado_151766" data-name="Trazado 151766" d="M369.153,226.305a.228.228,0,1,0,0-.455h-8.208a.228.228,0,1,0,0,.455Z" transform="translate(-357.548 -212.966)" fill="#f67409" fill-rule="evenodd"/>
          <path id="Trazado_151767" data-name="Trazado 151767" d="M374.266,226.305a.228.228,0,0,0,0-.455h-2.935a.228.228,0,0,0,0,.455Z" transform="translate(-357.957 -212.966)" fill="#f67409" fill-rule="evenodd"/>
        </g>
      </g>
    </g>
  </g>
</svg>
