<svg xmlns="http://www.w3.org/2000/svg" width="371.563" height="279.574" viewBox="0 0 371.563 279.574">
  <g id="Grupo_127228" data-name="Grupo 127228" transform="translate(-921.498 -1137.646)">
    <g id="Grupo_79644" data-name="Grupo 79644" transform="translate(921.498 1137.647)">
      <path id="Trazado_145968" data-name="Trazado 145968" d="M61.969,0A61.969,61.969,0,1,1,0,61.969,61.969,61.969,0,0,1,61.969,0Z" transform="translate(238.103 150.33)" fill="#fece10" opacity="0.444" style="mix-blend-mode: multiply;isolation: isolate"/>
      <path id="Trazado_145969" data-name="Trazado 145969" d="M42.343,0A42.343,42.343,0,1,1,0,42.343,42.344,42.344,0,0,1,42.343,0Z" transform="translate(34.622 16.168)" fill="#fece10" opacity="0.444" style="mix-blend-mode: multiply;isolation: isolate"/>
      <rect id="Rectángulo_34812" data-name="Rectángulo 34812" width="371.563" height="278.672" transform="translate(0 0.451)" fill="none"/>
      <path id="Trazado_145967" data-name="Trazado 145967" d="M139.787,0A139.787,139.787,0,1,1,0,139.787,139.787,139.787,0,0,1,139.787,0Z" transform="translate(45.995)" fill="#f67409"/>
      <path id="Trazado_145971" data-name="Trazado 145971" d="M11.642,0A11.642,11.642,0,1,1,0,11.642,11.642,11.642,0,0,1,11.642,0Z" transform="translate(45.995 232.768)" fill="#fece10" opacity="0.444" style="mix-blend-mode: multiply;isolation: isolate"/>
      <g id="Grupo_78276" data-name="Grupo 78276" transform="translate(267.348 193.764)">
        <g id="Grupo_53306" data-name="Grupo 53306" transform="translate(0)">
          <path id="Trazado_99200" data-name="Trazado 99200" d="M415.9,51.028a.842.842,0,1,1-.842-.8A.824.824,0,0,1,415.9,51.028Z" transform="translate(-414.214 -50.224)" fill="#2432ff"/>
          <path id="Trazado_99201" data-name="Trazado 99201" d="M424.343,51.028a.842.842,0,1,1-.841-.8A.823.823,0,0,1,424.343,51.028Z" transform="translate(-415.087 -50.224)" fill="#2432ff"/>
          <path id="Trazado_99202" data-name="Trazado 99202" d="M432.789,51.028a.842.842,0,1,1-.841-.8A.823.823,0,0,1,432.789,51.028Z" transform="translate(-415.96 -50.224)" fill="#2432ff"/>
          <path id="Trazado_99203" data-name="Trazado 99203" d="M441.236,51.028a.842.842,0,1,1-.842-.8A.824.824,0,0,1,441.236,51.028Z" transform="translate(-416.834 -50.224)" fill="#2432ff"/>
          <path id="Trazado_99204" data-name="Trazado 99204" d="M449.682,51.028a.842.842,0,1,1-.841-.8A.824.824,0,0,1,449.682,51.028Z" transform="translate(-417.707 -50.224)" fill="#2432ff"/>
          <path id="Trazado_99205" data-name="Trazado 99205" d="M458.128,51.028a.842.842,0,1,1-.841-.8A.823.823,0,0,1,458.128,51.028Z" transform="translate(-418.58 -50.224)" fill="#2432ff"/>
          <path id="Trazado_99206" data-name="Trazado 99206" d="M466.575,51.028a.842.842,0,1,1-.842-.8A.824.824,0,0,1,466.575,51.028Z" transform="translate(-419.453 -50.224)" fill="#2432ff"/>
          <path id="Trazado_99207" data-name="Trazado 99207" d="M475.021,51.028a.842.842,0,1,1-.841-.8A.823.823,0,0,1,475.021,51.028Z" transform="translate(-420.326 -50.224)" fill="#2432ff"/>
          <path id="Trazado_99208" data-name="Trazado 99208" d="M483.467,51.028a.842.842,0,1,1-.841-.8A.824.824,0,0,1,483.467,51.028Z" transform="translate(-421.199 -50.224)" fill="#2432ff"/>
          <path id="Trazado_99209" data-name="Trazado 99209" d="M491.914,51.028a.842.842,0,1,1-.842-.8A.824.824,0,0,1,491.914,51.028Z" transform="translate(-422.073 -50.224)" fill="#2432ff"/>
          <path id="Trazado_99210" data-name="Trazado 99210" d="M500.36,51.028a.842.842,0,1,1-.842-.8A.824.824,0,0,1,500.36,51.028Z" transform="translate(-422.946 -50.224)" fill="#2432ff"/>
        </g>
        <g id="Grupo_53307" data-name="Grupo 53307" transform="translate(0 6.438)">
          <path id="Trazado_99211" data-name="Trazado 99211" d="M415.9,58.536a.842.842,0,1,1-.842-.8A.824.824,0,0,1,415.9,58.536Z" transform="translate(-414.214 -57.732)" fill="#2432ff"/>
          <path id="Trazado_99212" data-name="Trazado 99212" d="M424.343,58.536a.842.842,0,1,1-.841-.8A.823.823,0,0,1,424.343,58.536Z" transform="translate(-415.087 -57.732)" fill="#2432ff"/>
          <path id="Trazado_99213" data-name="Trazado 99213" d="M432.789,58.536a.842.842,0,1,1-.841-.8A.823.823,0,0,1,432.789,58.536Z" transform="translate(-415.96 -57.732)" fill="#2432ff"/>
          <path id="Trazado_99214" data-name="Trazado 99214" d="M441.236,58.536a.842.842,0,1,1-.842-.8A.824.824,0,0,1,441.236,58.536Z" transform="translate(-416.834 -57.732)" fill="#2432ff"/>
          <path id="Trazado_99215" data-name="Trazado 99215" d="M449.682,58.536a.842.842,0,1,1-.841-.8A.824.824,0,0,1,449.682,58.536Z" transform="translate(-417.707 -57.732)" fill="#2432ff"/>
          <path id="Trazado_99216" data-name="Trazado 99216" d="M458.128,58.536a.842.842,0,1,1-.841-.8A.823.823,0,0,1,458.128,58.536Z" transform="translate(-418.58 -57.732)" fill="#2432ff"/>
          <path id="Trazado_99217" data-name="Trazado 99217" d="M466.575,58.536a.842.842,0,1,1-.842-.8A.824.824,0,0,1,466.575,58.536Z" transform="translate(-419.453 -57.732)" fill="#2432ff"/>
          <path id="Trazado_99218" data-name="Trazado 99218" d="M475.021,58.536a.842.842,0,1,1-.841-.8A.823.823,0,0,1,475.021,58.536Z" transform="translate(-420.326 -57.732)" fill="#2432ff"/>
          <path id="Trazado_99219" data-name="Trazado 99219" d="M483.467,58.536a.842.842,0,1,1-.841-.8A.824.824,0,0,1,483.467,58.536Z" transform="translate(-421.199 -57.732)" fill="#2432ff"/>
          <path id="Trazado_99220" data-name="Trazado 99220" d="M491.914,58.536a.842.842,0,1,1-.842-.8A.824.824,0,0,1,491.914,58.536Z" transform="translate(-422.073 -57.732)" fill="#2432ff"/>
          <path id="Trazado_99221" data-name="Trazado 99221" d="M500.36,58.536a.842.842,0,1,1-.842-.8A.824.824,0,0,1,500.36,58.536Z" transform="translate(-422.946 -57.732)" fill="#2432ff"/>
        </g>
        <g id="Grupo_53308" data-name="Grupo 53308" transform="translate(0 12.875)">
          <ellipse id="Elipse_3955" data-name="Elipse 3955" cx="0.841" cy="0.805" rx="0.841" ry="0.805" fill="#2432ff"/>
          <path id="Trazado_99222" data-name="Trazado 99222" d="M424.343,66.044a.842.842,0,1,1-.841-.8A.824.824,0,0,1,424.343,66.044Z" transform="translate(-415.087 -65.24)" fill="#2432ff"/>
          <ellipse id="Elipse_3956" data-name="Elipse 3956" cx="0.841" cy="0.805" rx="0.841" ry="0.805" transform="translate(15.146)" fill="#2432ff"/>
          <path id="Trazado_99223" data-name="Trazado 99223" d="M441.236,66.044a.842.842,0,1,1-.842-.8A.824.824,0,0,1,441.236,66.044Z" transform="translate(-416.833 -65.24)" fill="#2432ff"/>
          <path id="Trazado_99224" data-name="Trazado 99224" d="M449.682,66.044a.842.842,0,1,1-.841-.8A.824.824,0,0,1,449.682,66.044Z" transform="translate(-417.707 -65.24)" fill="#2432ff"/>
          <ellipse id="Elipse_3957" data-name="Elipse 3957" cx="0.841" cy="0.805" rx="0.841" ry="0.805" transform="translate(37.866)" fill="#2432ff"/>
          <path id="Trazado_99225" data-name="Trazado 99225" d="M466.575,66.044a.842.842,0,1,1-.842-.8A.825.825,0,0,1,466.575,66.044Z" transform="translate(-419.453 -65.24)" fill="#2432ff"/>
          <ellipse id="Elipse_3958" data-name="Elipse 3958" cx="0.841" cy="0.805" rx="0.841" ry="0.805" transform="translate(53.012)" fill="#2432ff"/>
          <ellipse id="Elipse_3959" data-name="Elipse 3959" cx="0.841" cy="0.805" rx="0.841" ry="0.805" transform="translate(60.585)" fill="#2432ff"/>
          <path id="Trazado_99226" data-name="Trazado 99226" d="M491.914,66.044a.842.842,0,1,1-.842-.8A.825.825,0,0,1,491.914,66.044Z" transform="translate(-422.073 -65.24)" fill="#2432ff"/>
          <path id="Trazado_99227" data-name="Trazado 99227" d="M500.36,66.044a.842.842,0,1,1-.842-.8A.824.824,0,0,1,500.36,66.044Z" transform="translate(-422.946 -65.24)" fill="#2432ff"/>
        </g>
        <g id="Grupo_53309" data-name="Grupo 53309" transform="translate(0 19.313)">
          <ellipse id="Elipse_3960" data-name="Elipse 3960" cx="0.841" cy="0.805" rx="0.841" ry="0.805" transform="translate(0 0)" fill="#2432ff"/>
          <path id="Trazado_99228" data-name="Trazado 99228" d="M424.343,73.552a.842.842,0,1,1-.841-.805A.823.823,0,0,1,424.343,73.552Z" transform="translate(-415.087 -72.747)" fill="#2432ff"/>
          <ellipse id="Elipse_3961" data-name="Elipse 3961" cx="0.841" cy="0.805" rx="0.841" ry="0.805" transform="translate(15.146 0)" fill="#2432ff"/>
          <path id="Trazado_99229" data-name="Trazado 99229" d="M441.236,73.552a.842.842,0,1,1-.842-.805A.824.824,0,0,1,441.236,73.552Z" transform="translate(-416.833 -72.747)" fill="#2432ff"/>
          <path id="Trazado_99230" data-name="Trazado 99230" d="M449.682,73.552a.842.842,0,1,1-.841-.805A.823.823,0,0,1,449.682,73.552Z" transform="translate(-417.707 -72.747)" fill="#2432ff"/>
          <ellipse id="Elipse_3962" data-name="Elipse 3962" cx="0.841" cy="0.805" rx="0.841" ry="0.805" transform="translate(37.866 0)" fill="#2432ff"/>
          <path id="Trazado_99231" data-name="Trazado 99231" d="M466.575,73.552a.842.842,0,1,1-.842-.805A.824.824,0,0,1,466.575,73.552Z" transform="translate(-419.453 -72.747)" fill="#2432ff"/>
          <ellipse id="Elipse_3963" data-name="Elipse 3963" cx="0.841" cy="0.805" rx="0.841" ry="0.805" transform="translate(53.012 0)" fill="#2432ff"/>
          <ellipse id="Elipse_3964" data-name="Elipse 3964" cx="0.841" cy="0.805" rx="0.841" ry="0.805" transform="translate(60.585 0)" fill="#2432ff"/>
          <path id="Trazado_99232" data-name="Trazado 99232" d="M491.914,73.552a.842.842,0,1,1-.842-.805A.824.824,0,0,1,491.914,73.552Z" transform="translate(-422.073 -72.747)" fill="#2432ff"/>
          <path id="Trazado_99233" data-name="Trazado 99233" d="M500.36,73.552a.842.842,0,1,1-.842-.805A.824.824,0,0,1,500.36,73.552Z" transform="translate(-422.946 -72.747)" fill="#2432ff"/>
        </g>
        <g id="Grupo_53310" data-name="Grupo 53310" transform="translate(0 25.75)">
          <path id="Trazado_99234" data-name="Trazado 99234" d="M415.9,81.06a.842.842,0,1,1-.842-.805A.824.824,0,0,1,415.9,81.06Z" transform="translate(-414.214 -80.255)" fill="#2432ff"/>
          <path id="Trazado_99235" data-name="Trazado 99235" d="M424.343,81.06a.842.842,0,1,1-.841-.805A.823.823,0,0,1,424.343,81.06Z" transform="translate(-415.087 -80.255)" fill="#2432ff"/>
          <path id="Trazado_99236" data-name="Trazado 99236" d="M432.789,81.06a.842.842,0,1,1-.841-.805A.823.823,0,0,1,432.789,81.06Z" transform="translate(-415.96 -80.255)" fill="#2432ff"/>
          <path id="Trazado_99237" data-name="Trazado 99237" d="M441.236,81.06a.842.842,0,1,1-.842-.805A.824.824,0,0,1,441.236,81.06Z" transform="translate(-416.834 -80.255)" fill="#2432ff"/>
          <path id="Trazado_99238" data-name="Trazado 99238" d="M449.682,81.06a.842.842,0,1,1-.841-.805A.823.823,0,0,1,449.682,81.06Z" transform="translate(-417.707 -80.255)" fill="#2432ff"/>
          <path id="Trazado_99239" data-name="Trazado 99239" d="M458.128,81.06a.842.842,0,1,1-.841-.805A.823.823,0,0,1,458.128,81.06Z" transform="translate(-418.58 -80.255)" fill="#2432ff"/>
          <path id="Trazado_99240" data-name="Trazado 99240" d="M466.575,81.06a.842.842,0,1,1-.842-.805A.824.824,0,0,1,466.575,81.06Z" transform="translate(-419.453 -80.255)" fill="#2432ff"/>
          <path id="Trazado_99241" data-name="Trazado 99241" d="M475.021,81.06a.842.842,0,1,1-.841-.805A.823.823,0,0,1,475.021,81.06Z" transform="translate(-420.326 -80.255)" fill="#2432ff"/>
          <path id="Trazado_99242" data-name="Trazado 99242" d="M483.467,81.06a.842.842,0,1,1-.841-.805A.823.823,0,0,1,483.467,81.06Z" transform="translate(-421.199 -80.255)" fill="#2432ff"/>
          <path id="Trazado_99243" data-name="Trazado 99243" d="M491.914,81.06a.842.842,0,1,1-.842-.805A.824.824,0,0,1,491.914,81.06Z" transform="translate(-422.073 -80.255)" fill="#2432ff"/>
          <path id="Trazado_99244" data-name="Trazado 99244" d="M500.36,81.06a.842.842,0,1,1-.842-.805A.824.824,0,0,1,500.36,81.06Z" transform="translate(-422.946 -80.255)" fill="#2432ff"/>
        </g>
        <g id="Grupo_53311" data-name="Grupo 53311" transform="translate(0 32.188)">
          <ellipse id="Elipse_3965" data-name="Elipse 3965" cx="0.841" cy="0.805" rx="0.841" ry="0.805" transform="translate(0 0)" fill="#2432ff"/>
          <path id="Trazado_99245" data-name="Trazado 99245" d="M424.343,88.568a.842.842,0,1,1-.841-.805A.823.823,0,0,1,424.343,88.568Z" transform="translate(-415.087 -87.763)" fill="#2432ff"/>
          <ellipse id="Elipse_3966" data-name="Elipse 3966" cx="0.841" cy="0.805" rx="0.841" ry="0.805" transform="translate(15.146 0)" fill="#2432ff"/>
          <path id="Trazado_99246" data-name="Trazado 99246" d="M441.236,88.568a.842.842,0,1,1-.842-.805A.824.824,0,0,1,441.236,88.568Z" transform="translate(-416.833 -87.763)" fill="#2432ff"/>
          <path id="Trazado_99247" data-name="Trazado 99247" d="M449.682,88.568a.842.842,0,1,1-.841-.805A.823.823,0,0,1,449.682,88.568Z" transform="translate(-417.707 -87.763)" fill="#2432ff"/>
          <ellipse id="Elipse_3967" data-name="Elipse 3967" cx="0.841" cy="0.805" rx="0.841" ry="0.805" transform="translate(37.866 0)" fill="#2432ff"/>
          <path id="Trazado_99248" data-name="Trazado 99248" d="M466.575,88.568a.842.842,0,1,1-.842-.805A.824.824,0,0,1,466.575,88.568Z" transform="translate(-419.453 -87.763)" fill="#2432ff"/>
          <ellipse id="Elipse_3968" data-name="Elipse 3968" cx="0.841" cy="0.805" rx="0.841" ry="0.805" transform="translate(53.012 0)" fill="#2432ff"/>
          <ellipse id="Elipse_3969" data-name="Elipse 3969" cx="0.841" cy="0.805" rx="0.841" ry="0.805" transform="translate(60.585 0)" fill="#2432ff"/>
          <path id="Trazado_99249" data-name="Trazado 99249" d="M491.914,88.568a.842.842,0,1,1-.842-.805A.824.824,0,0,1,491.914,88.568Z" transform="translate(-422.073 -87.763)" fill="#2432ff"/>
          <path id="Trazado_99250" data-name="Trazado 99250" d="M500.36,88.568a.842.842,0,1,1-.842-.805A.824.824,0,0,1,500.36,88.568Z" transform="translate(-422.946 -87.763)" fill="#2432ff"/>
        </g>
        <g id="Grupo_53312" data-name="Grupo 53312" transform="translate(0 38.626)">
          <ellipse id="Elipse_3970" data-name="Elipse 3970" cx="0.841" cy="0.805" rx="0.841" ry="0.805" fill="#2432ff"/>
          <path id="Trazado_99251" data-name="Trazado 99251" d="M424.343,96.075a.842.842,0,1,1-.841-.8A.823.823,0,0,1,424.343,96.075Z" transform="translate(-415.087 -95.271)" fill="#2432ff"/>
          <ellipse id="Elipse_3971" data-name="Elipse 3971" cx="0.841" cy="0.805" rx="0.841" ry="0.805" transform="translate(15.146)" fill="#2432ff"/>
          <path id="Trazado_99252" data-name="Trazado 99252" d="M441.236,96.075a.842.842,0,1,1-.842-.8A.824.824,0,0,1,441.236,96.075Z" transform="translate(-416.833 -95.271)" fill="#2432ff"/>
          <path id="Trazado_99253" data-name="Trazado 99253" d="M449.682,96.075a.842.842,0,1,1-.841-.8A.824.824,0,0,1,449.682,96.075Z" transform="translate(-417.707 -95.271)" fill="#2432ff"/>
          <ellipse id="Elipse_3972" data-name="Elipse 3972" cx="0.841" cy="0.805" rx="0.841" ry="0.805" transform="translate(37.866)" fill="#2432ff"/>
          <path id="Trazado_99254" data-name="Trazado 99254" d="M466.575,96.075a.842.842,0,1,1-.842-.8A.824.824,0,0,1,466.575,96.075Z" transform="translate(-419.453 -95.271)" fill="#2432ff"/>
          <ellipse id="Elipse_3973" data-name="Elipse 3973" cx="0.841" cy="0.805" rx="0.841" ry="0.805" transform="translate(53.012)" fill="#2432ff"/>
          <ellipse id="Elipse_3974" data-name="Elipse 3974" cx="0.841" cy="0.805" rx="0.841" ry="0.805" transform="translate(60.585)" fill="#2432ff"/>
          <path id="Trazado_99255" data-name="Trazado 99255" d="M491.914,96.075a.842.842,0,1,1-.842-.8A.824.824,0,0,1,491.914,96.075Z" transform="translate(-422.073 -95.271)" fill="#2432ff"/>
          <path id="Trazado_99256" data-name="Trazado 99256" d="M500.36,96.075a.842.842,0,1,1-.842-.8A.824.824,0,0,1,500.36,96.075Z" transform="translate(-422.946 -95.271)" fill="#2432ff"/>
        </g>
        <g id="Grupo_53313" data-name="Grupo 53313" transform="translate(0 45.063)">
          <path id="Trazado_99257" data-name="Trazado 99257" d="M415.9,103.583a.842.842,0,1,1-.842-.8A.824.824,0,0,1,415.9,103.583Z" transform="translate(-414.214 -102.779)" fill="#2432ff"/>
          <path id="Trazado_99258" data-name="Trazado 99258" d="M424.343,103.583a.842.842,0,1,1-.841-.8A.823.823,0,0,1,424.343,103.583Z" transform="translate(-415.087 -102.779)" fill="#2432ff"/>
          <path id="Trazado_99259" data-name="Trazado 99259" d="M432.789,103.583a.842.842,0,1,1-.841-.8A.823.823,0,0,1,432.789,103.583Z" transform="translate(-415.96 -102.779)" fill="#2432ff"/>
          <path id="Trazado_99260" data-name="Trazado 99260" d="M441.236,103.583a.842.842,0,1,1-.842-.8A.824.824,0,0,1,441.236,103.583Z" transform="translate(-416.834 -102.779)" fill="#2432ff"/>
          <path id="Trazado_99261" data-name="Trazado 99261" d="M449.682,103.583a.842.842,0,1,1-.841-.8A.824.824,0,0,1,449.682,103.583Z" transform="translate(-417.707 -102.779)" fill="#2432ff"/>
          <path id="Trazado_99262" data-name="Trazado 99262" d="M458.128,103.583a.842.842,0,1,1-.841-.8A.823.823,0,0,1,458.128,103.583Z" transform="translate(-418.58 -102.779)" fill="#2432ff"/>
          <path id="Trazado_99263" data-name="Trazado 99263" d="M466.575,103.583a.842.842,0,1,1-.842-.8A.824.824,0,0,1,466.575,103.583Z" transform="translate(-419.453 -102.779)" fill="#2432ff"/>
          <path id="Trazado_99264" data-name="Trazado 99264" d="M475.021,103.583a.842.842,0,1,1-.841-.8A.824.824,0,0,1,475.021,103.583Z" transform="translate(-420.326 -102.779)" fill="#2432ff"/>
          <path id="Trazado_99265" data-name="Trazado 99265" d="M483.467,103.583a.842.842,0,1,1-.841-.8A.824.824,0,0,1,483.467,103.583Z" transform="translate(-421.199 -102.779)" fill="#2432ff"/>
          <path id="Trazado_99266" data-name="Trazado 99266" d="M491.914,103.583a.842.842,0,1,1-.842-.8A.824.824,0,0,1,491.914,103.583Z" transform="translate(-422.073 -102.779)" fill="#2432ff"/>
          <path id="Trazado_99267" data-name="Trazado 99267" d="M500.36,103.583a.842.842,0,1,1-.842-.8A.824.824,0,0,1,500.36,103.583Z" transform="translate(-422.946 -102.779)" fill="#2432ff"/>
        </g>
        <g id="Grupo_53314" data-name="Grupo 53314" transform="translate(0 51.501)">
          <ellipse id="Elipse_3975" data-name="Elipse 3975" cx="0.841" cy="0.805" rx="0.841" ry="0.805" fill="#2432ff"/>
          <path id="Trazado_99268" data-name="Trazado 99268" d="M424.343,111.091a.842.842,0,1,1-.841-.8A.824.824,0,0,1,424.343,111.091Z" transform="translate(-415.087 -110.287)" fill="#2432ff"/>
          <ellipse id="Elipse_3976" data-name="Elipse 3976" cx="0.841" cy="0.805" rx="0.841" ry="0.805" transform="translate(15.146)" fill="#2432ff"/>
          <path id="Trazado_99269" data-name="Trazado 99269" d="M441.236,111.091a.842.842,0,1,1-.842-.8A.824.824,0,0,1,441.236,111.091Z" transform="translate(-416.833 -110.287)" fill="#2432ff"/>
          <path id="Trazado_99270" data-name="Trazado 99270" d="M449.682,111.091a.842.842,0,1,1-.841-.8A.824.824,0,0,1,449.682,111.091Z" transform="translate(-417.707 -110.287)" fill="#2432ff"/>
          <ellipse id="Elipse_3977" data-name="Elipse 3977" cx="0.841" cy="0.805" rx="0.841" ry="0.805" transform="translate(37.866)" fill="#2432ff"/>
          <path id="Trazado_99271" data-name="Trazado 99271" d="M466.575,111.091a.842.842,0,1,1-.842-.8A.825.825,0,0,1,466.575,111.091Z" transform="translate(-419.453 -110.287)" fill="#2432ff"/>
          <ellipse id="Elipse_3978" data-name="Elipse 3978" cx="0.841" cy="0.805" rx="0.841" ry="0.805" transform="translate(53.012)" fill="#2432ff"/>
          <ellipse id="Elipse_3979" data-name="Elipse 3979" cx="0.841" cy="0.805" rx="0.841" ry="0.805" transform="translate(60.585)" fill="#2432ff"/>
          <path id="Trazado_99272" data-name="Trazado 99272" d="M491.914,111.091a.842.842,0,1,1-.842-.8A.825.825,0,0,1,491.914,111.091Z" transform="translate(-422.073 -110.287)" fill="#2432ff"/>
          <path id="Trazado_99273" data-name="Trazado 99273" d="M500.36,111.091a.842.842,0,1,1-.842-.8A.824.824,0,0,1,500.36,111.091Z" transform="translate(-422.946 -110.287)" fill="#2432ff"/>
        </g>
        <g id="Grupo_53315" data-name="Grupo 53315" transform="translate(0 57.938)">
          <path id="Trazado_99274" data-name="Trazado 99274" d="M415.9,118.6a.842.842,0,1,1-.842-.805A.824.824,0,0,1,415.9,118.6Z" transform="translate(-414.214 -117.794)" fill="#2432ff"/>
          <path id="Trazado_99275" data-name="Trazado 99275" d="M424.343,118.6a.842.842,0,1,1-.841-.805A.824.824,0,0,1,424.343,118.6Z" transform="translate(-415.087 -117.794)" fill="#2432ff"/>
          <path id="Trazado_99276" data-name="Trazado 99276" d="M432.789,118.6a.842.842,0,1,1-.841-.805A.824.824,0,0,1,432.789,118.6Z" transform="translate(-415.96 -117.794)" fill="#2432ff"/>
          <path id="Trazado_99277" data-name="Trazado 99277" d="M441.236,118.6a.842.842,0,1,1-.842-.805A.824.824,0,0,1,441.236,118.6Z" transform="translate(-416.834 -117.794)" fill="#2432ff"/>
          <path id="Trazado_99278" data-name="Trazado 99278" d="M449.682,118.6a.842.842,0,1,1-.841-.805A.824.824,0,0,1,449.682,118.6Z" transform="translate(-417.707 -117.794)" fill="#2432ff"/>
          <path id="Trazado_99279" data-name="Trazado 99279" d="M458.128,118.6a.842.842,0,1,1-.841-.805A.824.824,0,0,1,458.128,118.6Z" transform="translate(-418.58 -117.794)" fill="#2432ff"/>
          <path id="Trazado_99280" data-name="Trazado 99280" d="M466.575,118.6a.842.842,0,1,1-.842-.805A.825.825,0,0,1,466.575,118.6Z" transform="translate(-419.453 -117.794)" fill="#2432ff"/>
          <path id="Trazado_99281" data-name="Trazado 99281" d="M475.021,118.6a.842.842,0,1,1-.841-.805A.824.824,0,0,1,475.021,118.6Z" transform="translate(-420.326 -117.794)" fill="#2432ff"/>
          <path id="Trazado_99282" data-name="Trazado 99282" d="M483.467,118.6a.842.842,0,1,1-.841-.805A.824.824,0,0,1,483.467,118.6Z" transform="translate(-421.199 -117.794)" fill="#2432ff"/>
          <path id="Trazado_99283" data-name="Trazado 99283" d="M491.914,118.6a.842.842,0,1,1-.842-.805A.825.825,0,0,1,491.914,118.6Z" transform="translate(-422.073 -117.794)" fill="#2432ff"/>
          <path id="Trazado_99284" data-name="Trazado 99284" d="M500.36,118.6a.842.842,0,1,1-.842-.805A.824.824,0,0,1,500.36,118.6Z" transform="translate(-422.946 -117.794)" fill="#2432ff"/>
        </g>
        <g id="Grupo_53316" data-name="Grupo 53316" transform="translate(0 64.376)">
          <ellipse id="Elipse_3980" data-name="Elipse 3980" cx="0.841" cy="0.805" rx="0.841" ry="0.805" transform="translate(0 0)" fill="#2432ff"/>
          <path id="Trazado_99285" data-name="Trazado 99285" d="M424.343,126.107a.842.842,0,1,1-.841-.805A.823.823,0,0,1,424.343,126.107Z" transform="translate(-415.087 -125.302)" fill="#2432ff"/>
          <ellipse id="Elipse_3981" data-name="Elipse 3981" cx="0.841" cy="0.805" rx="0.841" ry="0.805" transform="translate(15.146 0)" fill="#2432ff"/>
          <path id="Trazado_99286" data-name="Trazado 99286" d="M441.236,126.107a.842.842,0,1,1-.842-.805A.824.824,0,0,1,441.236,126.107Z" transform="translate(-416.833 -125.302)" fill="#2432ff"/>
          <path id="Trazado_99287" data-name="Trazado 99287" d="M449.682,126.107a.842.842,0,1,1-.841-.805A.823.823,0,0,1,449.682,126.107Z" transform="translate(-417.707 -125.302)" fill="#2432ff"/>
          <ellipse id="Elipse_3982" data-name="Elipse 3982" cx="0.841" cy="0.805" rx="0.841" ry="0.805" transform="translate(37.866 0)" fill="#2432ff"/>
          <path id="Trazado_99288" data-name="Trazado 99288" d="M466.575,126.107a.842.842,0,1,1-.842-.805A.824.824,0,0,1,466.575,126.107Z" transform="translate(-419.453 -125.302)" fill="#2432ff"/>
          <ellipse id="Elipse_3983" data-name="Elipse 3983" cx="0.841" cy="0.805" rx="0.841" ry="0.805" transform="translate(53.012 0)" fill="#2432ff"/>
          <ellipse id="Elipse_3984" data-name="Elipse 3984" cx="0.841" cy="0.805" rx="0.841" ry="0.805" transform="translate(60.585 0)" fill="#2432ff"/>
          <path id="Trazado_99289" data-name="Trazado 99289" d="M491.914,126.107a.842.842,0,1,1-.842-.805A.824.824,0,0,1,491.914,126.107Z" transform="translate(-422.073 -125.302)" fill="#2432ff"/>
          <path id="Trazado_99290" data-name="Trazado 99290" d="M500.36,126.107a.842.842,0,1,1-.842-.805A.824.824,0,0,1,500.36,126.107Z" transform="translate(-422.946 -125.302)" fill="#2432ff"/>
        </g>
        <g id="Grupo_53317" data-name="Grupo 53317" transform="translate(0 70.814)">
          <ellipse id="Elipse_3985" data-name="Elipse 3985" cx="0.841" cy="0.805" rx="0.841" ry="0.805" transform="translate(0 0)" fill="#2432ff"/>
          <path id="Trazado_99291" data-name="Trazado 99291" d="M424.343,133.615a.842.842,0,1,1-.841-.805A.823.823,0,0,1,424.343,133.615Z" transform="translate(-415.087 -132.81)" fill="#2432ff"/>
          <ellipse id="Elipse_3986" data-name="Elipse 3986" cx="0.841" cy="0.805" rx="0.841" ry="0.805" transform="translate(15.146 0)" fill="#2432ff"/>
          <path id="Trazado_99292" data-name="Trazado 99292" d="M441.236,133.615a.842.842,0,1,1-.842-.805A.824.824,0,0,1,441.236,133.615Z" transform="translate(-416.833 -132.81)" fill="#2432ff"/>
          <path id="Trazado_99293" data-name="Trazado 99293" d="M449.682,133.615a.842.842,0,1,1-.841-.805A.823.823,0,0,1,449.682,133.615Z" transform="translate(-417.707 -132.81)" fill="#2432ff"/>
          <ellipse id="Elipse_3987" data-name="Elipse 3987" cx="0.841" cy="0.805" rx="0.841" ry="0.805" transform="translate(37.866 0)" fill="#2432ff"/>
          <path id="Trazado_99294" data-name="Trazado 99294" d="M466.575,133.615a.842.842,0,1,1-.842-.805A.824.824,0,0,1,466.575,133.615Z" transform="translate(-419.453 -132.81)" fill="#2432ff"/>
          <ellipse id="Elipse_3988" data-name="Elipse 3988" cx="0.841" cy="0.805" rx="0.841" ry="0.805" transform="translate(53.012 0)" fill="#2432ff"/>
          <ellipse id="Elipse_3989" data-name="Elipse 3989" cx="0.841" cy="0.805" rx="0.841" ry="0.805" transform="translate(60.585 0)" fill="#2432ff"/>
          <path id="Trazado_99295" data-name="Trazado 99295" d="M491.914,133.615a.842.842,0,1,1-.842-.805A.824.824,0,0,1,491.914,133.615Z" transform="translate(-422.073 -132.81)" fill="#2432ff"/>
          <path id="Trazado_99296" data-name="Trazado 99296" d="M500.36,133.615a.842.842,0,1,1-.842-.805A.824.824,0,0,1,500.36,133.615Z" transform="translate(-422.946 -132.81)" fill="#2432ff"/>
        </g>
      </g>
      <line id="Línea_138" data-name="Línea 138" y2="164.629" transform="translate(12.166 65.357)" fill="none" stroke="#fff" stroke-width="1" stroke-dasharray="8"/>
    </g>
  </g>
</svg>
