<svg xmlns="http://www.w3.org/2000/svg" width="399.746" height="325.13" viewBox="0 0 399.746 325.13">
  <g id="Grupo_127228" data-name="Grupo 127228" transform="translate(-489.659 -122.701)">
    <g id="Grupo_110909" data-name="Grupo 110909" transform="translate(527.733 122.701)">
      <path id="Trazado_168718" data-name="Trazado 168718" d="M1158.442,467.779H1026.173c-33.926,2.258-33.776,39.63-33.776,39.63h0V685.994h132.434V507.409S1125.459,469.911,1158.442,467.779Z" transform="translate(-899.568 -398.84)" fill="#6bb52d"/>
      <g id="Grupo_110809" data-name="Grupo 110809" transform="translate(83.565 110.826)">
        <rect id="Rectángulo_34813" data-name="Rectángulo 34813" width="1.598" height="137.45" fill="#54cc44"/>
      </g>
      <g id="Grupo_110810" data-name="Grupo 110810" transform="translate(155.468 3.196)">
        <path id="Trazado_168719" data-name="Trazado 168719" d="M1386.792,183.524h-80.858V138.7h80.858Zm-79.26-1.6h77.662V140.3h-77.662Z" transform="translate(-1305.934 -138.701)" fill="#54cc44"/>
      </g>
      <g id="Grupo_110811" data-name="Grupo 110811" transform="translate(-33.768 38.334)">
        <path id="Trazado_168720" data-name="Trazado 168720" d="M630.144,370.944H549.286V314.583h80.858Zm-79.26-1.6h77.661V316.181H550.884Z" transform="translate(-549.286 -314.583)" fill="#54cc44"/>
      </g>
      <g id="Grupo_110812" data-name="Grupo 110812" transform="translate(276.926 126.101)">
        <path id="Trazado_168721" data-name="Trazado 168721" d="M1776,865.75h-80.858V820.76H1776Zm-79.26-1.6H1774.4V822.358h-77.661Z" transform="translate(-1695.141 -820.76)" fill="#54cc44"/>
      </g>
      <path id="Trazado_168722" data-name="Trazado 168722" d="M1131.971,455.642c-32.983,2.132-33.61,39.63-33.61,39.63V673.857H965.927V495.272s-.15-37.373,33.776-39.63Z" transform="translate(-878.385 -389.128)" fill="#fff9f5"/>
      <rect id="Rectángulo_34814" data-name="Rectángulo 34814" width="90.965" height="8.026" transform="translate(104.932 113.167)" fill="#77cc76"/>
      <rect id="Rectángulo_34815" data-name="Rectángulo 34815" width="77.671" height="5.685" transform="translate(104.932 131.728)" fill="#77cc76"/>
      <rect id="Rectángulo_34816" data-name="Rectángulo 34816" width="39.045" height="8.444" transform="translate(104.932 146.736)" fill="#77cc76"/>
      <rect id="Rectángulo_34817" data-name="Rectángulo 34817" width="40.382" height="8.444" transform="translate(155.514 146.736)" fill="#77cc76"/>
      <rect id="Rectángulo_34818" data-name="Rectángulo 34818" width="62.204" height="6.02" transform="translate(104.932 162.997)" fill="#77cc76"/>
      <rect id="Rectángulo_34819" data-name="Rectángulo 34819" width="70.084" height="3.344" transform="translate(104.932 178.047)" fill="#77cc76"/>
      <rect id="Rectángulo_34820" data-name="Rectángulo 34820" width="84.276" height="3.344" transform="translate(104.932 193.096)" fill="#77cc76"/>
      <g id="Grupo_110813" data-name="Grupo 110813" transform="translate(104.632 207.846)">
        <path id="Trazado_168723" data-name="Trazado 168723" d="M1091.12,1182.075h-39.644v-18.993h39.644Zm-39.045-.6h38.445v-17.794h-38.445Z" transform="translate(-1051.476 -1163.082)" fill="#77cc76"/>
      </g>
      <rect id="Rectángulo_34821" data-name="Rectángulo 34821" width="35.45" height="4.348" transform="translate(153.759 208.145)" fill="#77cc76"/>
      <rect id="Rectángulo_34822" data-name="Rectángulo 34822" width="25.126" height="4.348" transform="translate(153.759 217.342)" fill="#77cc76"/>
      <rect id="Rectángulo_34823" data-name="Rectángulo 34823" width="75.79" height="3.344" transform="translate(104.932 238.244)" fill="#77cc76"/>
      <rect id="Rectángulo_34824" data-name="Rectángulo 34824" width="39.922" height="3.344" transform="translate(104.932 253.293)" fill="#77cc76"/>
      <g id="Grupo_110820" data-name="Grupo 110820" transform="translate(286.365 135.595)">
        <g id="Grupo_110818" data-name="Grupo 110818" transform="translate(7.355 10.147)">
          <g id="Grupo_110817" data-name="Grupo 110817">
            <g id="Grupo_110816" data-name="Grupo 110816">
              <g id="Grupo_110815" data-name="Grupo 110815">
                <g id="Grupo_110814" data-name="Grupo 110814">
                  <path id="Trazado_168724" data-name="Trazado 168724" d="M1783.274,927.163l-3.906-6.394a1.113,1.113,0,1,1,1.9-1.16l2.762,4.522,7.342-4.346a1.113,1.113,0,0,1,1.133,1.915Z" transform="translate(-1779.205 -919.076)" fill="#44cc49"/>
                </g>
              </g>
            </g>
          </g>
        </g>
        <g id="Grupo_110819" data-name="Grupo 110819">
          <path id="Trazado_168725" data-name="Trazado 168725" d="M1756.436,896.376a14.046,14.046,0,1,1,14.046-14.046A14.062,14.062,0,0,1,1756.436,896.376Zm0-26.085a12.039,12.039,0,1,0,12.04,12.039A12.053,12.053,0,0,0,1756.436,870.291Z" transform="translate(-1742.39 -868.284)" fill="#44cc49"/>
        </g>
      </g>
      <path id="Trazado_168726" data-name="Trazado 168726" d="M1374.307,210.987l.275,5.9,2.343-.109-.461-9.9-10.114.471.109,2.343,6.113-.284L1361.8,221.236l-11.213-10.216-1.58,1.734,12.947,11.8Z" transform="translate(-1184.932 -190.061)" fill="#44cc49"/>
      <g id="Grupo_110821" data-name="Grupo 110821" transform="translate(-22.717 48.622)">
        <path id="Trazado_168727" data-name="Trazado 168727" d="M622.779,376.507a5.293,5.293,0,0,0-1.01-.825,11.683,11.683,0,0,0-1.545-.846,12.718,12.718,0,0,0-1.928-.694,11.126,11.126,0,0,0-2.159-.37l-.026,7.913.726.155a33.744,33.744,0,0,1,3.723,1.121,10.619,10.619,0,0,1,2.8,1.5,6.077,6.077,0,0,1,1.77,2.166,7,7,0,0,1,.62,3.117,7.585,7.585,0,0,1-.737,3.457A6.743,6.743,0,0,1,623,395.582a9,9,0,0,1-2.986,1.424,14.535,14.535,0,0,1-3.652.5l-.013,4.013-1.988-.006.013-4.09a19.249,19.249,0,0,1-5.233-1.107A16.479,16.479,0,0,1,604.6,393.8l1.962-3.663a6.756,6.756,0,0,0,1.22,1,13.942,13.942,0,0,0,1.87,1.038,17.309,17.309,0,0,0,2.348.887,15.042,15.042,0,0,0,2.655.544l.026-7.912c-.153-.051-.312-.1-.477-.135s-.325-.083-.477-.135a32.272,32.272,0,0,1-3.532-1.139,8.825,8.825,0,0,1-2.5-1.441,5.619,5.619,0,0,1-1.5-1.974,6.535,6.535,0,0,1-.507-2.735,8.063,8.063,0,0,1,.661-3.323,7.282,7.282,0,0,1,1.843-2.5,8.739,8.739,0,0,1,2.777-1.635,12.9,12.9,0,0,1,3.5-.734l.013-3.861,1.988.007-.013,3.861a14.723,14.723,0,0,1,4.584,1.009,16.615,16.615,0,0,1,3.7,2.038Zm-12.617.953a2.762,2.762,0,0,0,1.12,2.412A10.889,10.889,0,0,0,614.7,381.3l.025-7.53a5.54,5.54,0,0,0-3.444,1.078A3.311,3.311,0,0,0,610.162,377.46Zm11.006,12.727a2.829,2.829,0,0,0-1.33-2.546,14.357,14.357,0,0,0-3.741-1.56l-.025,7.568a6.966,6.966,0,0,0,3.768-.905A2.886,2.886,0,0,0,621.167,390.187Z" transform="translate(-604.604 -366.083)" fill="#44cc49"/>
      </g>
      <rect id="Rectángulo_34825" data-name="Rectángulo 34825" width="31.729" height="4.515" transform="translate(7.58 54.394)" fill="#a8ab9f"/>
      <rect id="Rectángulo_34826" data-name="Rectángulo 34826" width="24.938" height="4.515" transform="translate(7.58 64.257)" fill="#a8ab9f"/>
      <rect id="Rectángulo_34827" data-name="Rectángulo 34827" width="27.982" height="4.515" transform="translate(7.58 74.12)" fill="#a8ab9f"/>
      <rect id="Rectángulo_34828" data-name="Rectángulo 34828" width="22.671" height="4.515" transform="translate(320.281 141.407)" fill="#a8ab9f"/>
      <rect id="Rectángulo_34829" data-name="Rectángulo 34829" width="25.438" height="4.515" transform="translate(320.281 151.271)" fill="#a8ab9f"/>
      <rect id="Rectángulo_34830" data-name="Rectángulo 34830" width="28.845" height="4.515" transform="translate(198.823 13.487)" fill="#a8ab9f"/>
      <rect id="Rectángulo_34831" data-name="Rectángulo 34831" width="22.671" height="4.515" transform="translate(198.823 23.351)" fill="#a8ab9f"/>
      <rect id="Rectángulo_34832" data-name="Rectángulo 34832" width="25.439" height="4.515" transform="translate(198.823 33.214)" fill="#a8ab9f"/>
      <g id="Grupo_110822" data-name="Grupo 110822" transform="translate(229.842 185.404)">
        <path id="Trazado_168728" data-name="Trazado 168728" d="M1781.136,1078.043l-102.92,1.6v-1.6l101.322-1.6v-38.619h1.6Z" transform="translate(-1678.216 -1050.75)" fill="#a8ab9f"/>
      </g>
      <g id="Grupo_110823" data-name="Grupo 110823" transform="translate(135.235 50.295)">
        <path id="Trazado_168729" data-name="Trazado 168729" d="M1206.256,388h-1.6V380.01h53.174v-5.557h1.6v7.156h-53.174Z" transform="translate(-1204.658 -374.453)" fill="#a8ab9f"/>
      </g>
      <g id="Grupo_110824" data-name="Grupo 110824" transform="translate(11.379 97.449)">
        <path id="Trazado_168730" data-name="Trazado 168730" d="M846.331,670.721l-71.055-.029v-60.2h1.6v58.607l69.457.029Z" transform="translate(-775.276 -610.487)" fill="#a8ab9f"/>
      </g>
      <g id="Grupo_110825" data-name="Grupo 110825" transform="translate(228.262 74.715)">
        <path id="Trazado_168731" data-name="Trazado 168731" d="M1671.939,555.165h-1.6V536.981c-.021-.3-1.962-35.212,27.5-40.292l.272,1.575c-28.062,4.838-26.2,38.327-26.177,38.665Z" transform="translate(-1670.308 -496.689)" fill="#54cc44"/>
      </g>
      <g id="Grupo_110826" data-name="Grupo 110826" transform="translate(327.011 122.379)">
        <path id="Trazado_168732" data-name="Trazado 168732" d="M1980.505,834.534h-1.6v-30.8h-33.062v-1.6h34.66Z" transform="translate(-1945.846 -802.131)" fill="#54cc44"/>
      </g>
      <g id="Grupo_110827" data-name="Grupo 110827" transform="translate(-38.074 69.641)">
        <path id="Trazado_168733" data-name="Trazado 168733" d="M559.194,500.936H527.733V471.292h1.6v28.045h29.863Z" transform="translate(-527.733 -471.292)" fill="#54cc44"/>
      </g>
      <g id="Grupo_110828" data-name="Grupo 110828" transform="translate(151.818 0)">
        <path id="Trazado_168734" data-name="Trazado 168734" d="M1289.262,146.052h-1.6V122.7H1326.7v1.6h-37.436Z" transform="translate(-1287.664 -122.701)" fill="#54cc44"/>
      </g>
      <g id="Grupo_110829" data-name="Grupo 110829" transform="translate(202 247.502)">
        <path id="Trazado_168735" data-name="Trazado 168735" d="M1567.494,1406.53h-28.641v-1.6H1565.9v-43.346h1.6Z" transform="translate(-1538.854 -1361.586)" fill="#54cc44"/>
      </g>
      <g id="Grupo_110830" data-name="Grupo 110830" transform="translate(183.746 237.147)">
        <path id="Trazado_168736" data-name="Trazado 168736" d="M1472.494,1334.763h-25.013V1309.75h25.013Zm-22.616-2.4H1470.1v-20.219h-20.219Z" transform="translate(-1447.481 -1309.75)" fill="#77cc76"/>
      </g>
      <g id="Grupo_110831" data-name="Grupo 110831" transform="translate(187.838 238.372)">
        <path id="Trazado_168737" data-name="Trazado 168737" d="M1476.769,1332.454l-8.8-8.3,2.741-2.907,6.245,5.887,13.69-11.249,2.537,3.087Z" transform="translate(-1467.965 -1315.886)" fill="#77cc76"/>
      </g>
      <g id="Grupo_110849" data-name="Grupo 110849" transform="translate(193.219 205.689)">
        <g id="Grupo_110832" data-name="Grupo 110832" transform="translate(50.262 109.03)">
          <path id="Trazado_168738" data-name="Trazado 168738" d="M1753.556,1698.394a9.242,9.242,0,0,1-3.8,2.394c-1.913.415-3.252.944-3.267,2.079s5.507,1.884,7.7.739c3.268-1.709,3.6-1.194,3.963-2.048s-.435-3.139-.412-3.41C1757.768,1697.812,1753.556,1698.394,1753.556,1698.394Z" transform="translate(-1746.491 -1698.044)" fill="#202338"/>
        </g>
        <g id="Grupo_110833" data-name="Grupo 110833" transform="translate(57.323 107.875)">
          <path id="Trazado_168739" data-name="Trazado 168739" d="M1782.052,1692.821a7.808,7.808,0,0,0-.212.947c.037.02,4.312.5,4.183-.246-.1-.6-.254-1.259-.254-1.259Z" transform="translate(-1781.836 -1692.263)" fill="#2f6b8c"/>
        </g>
        <g id="Grupo_110834" data-name="Grupo 110834" transform="translate(72.273 109.758)">
          <path id="Trazado_168740" data-name="Trazado 168740" d="M1863.015,1701.823a6.683,6.683,0,0,1-3.241,2.373c-1.829.438-3.014,1.273-3.1,2.377s4.312,2.55,7.4.61c2.032-1.274,2.79-1.2,3.2-2.011s-.214-3.078-.173-3.341C1867.151,1701.506,1863.015,1701.823,1863.015,1701.823Z" transform="translate(-1856.669 -1701.684)" fill="#202338"/>
        </g>
        <g id="Grupo_110835" data-name="Grupo 110835" transform="translate(78.611 108.595)">
          <path id="Trazado_168741" data-name="Trazado 168741" d="M1888.459,1696.211a8.507,8.507,0,0,0-.057.953c.035.021,4.109.742,4.085.008a5.677,5.677,0,0,0-.258-1.309Z" transform="translate(-1888.395 -1695.863)" fill="#2f6b8c"/>
        </g>
        <g id="Grupo_110836" data-name="Grupo 110836" transform="translate(57.145 48.631)">
          <path id="Trazado_168742" data-name="Trazado 168742" d="M1785.652,1399.827s-1.98,14.381-2.789,19.242c-.945,5.684-1.266,10.381-1.529,13.323-.332,3.7-.147,22.638-.38,23.72s4.681.52,4.681.52,3.6-24.688,4.591-28.629c.92-3.67,3.449-18.8,4.288-17.8s3.557,18.235,4.178,21.129,3.131,25.677,3.131,25.677,4.176.907,5.316,0c0,0-.255-20.315-.651-25.741-.151-2.068,1.308-24.755-2.189-33.9C1802.453,1392.532,1785.652,1399.827,1785.652,1399.827Z" transform="translate(-1780.946 -1395.712)" fill="#323657"/>
        </g>
        <path id="Trazado_168743" data-name="Trazado 168743" d="M1802.746,1419.744l-.223,2.159s6.032,2.444,20.716,2.445v-2.471Z" transform="translate(-1741.067 -1366.312)" fill="#faa146"/>
        <g id="Grupo_110839" data-name="Grupo 110839" transform="translate(37.539 26.258)">
          <g id="Grupo_110838" data-name="Grupo 110838">
            <g id="Grupo_110837" data-name="Grupo 110837">
              <path id="Trazado_168744" data-name="Trazado 168744" d="M1690.032,1283.724s-.879,1.939-1.4,2.06-1.141.769-1.587.968-1.852.308-2.229.676a14.146,14.146,0,0,1-1.09,1.716c-.346.272-1.112.738-.875,1.029s1.034.061,1.034.061a.57.57,0,0,0-.171.589c.251.626.672.653.672.653s-.134.471.036.7a1.13,1.13,0,0,0,.783.528,1.076,1.076,0,0,0,.362.647.959.959,0,0,0,.934.154s.418.576.8.464a3.449,3.449,0,0,0,.884-.57,13.151,13.151,0,0,0,2.9-4.456,15.872,15.872,0,0,1,1.937-3.755Z" transform="translate(-1682.807 -1283.724)" fill="#f8d2bf"/>
            </g>
          </g>
        </g>
        <g id="Grupo_110840" data-name="Grupo 110840" transform="translate(45.163 19.482)">
          <path id="Trazado_168745" data-name="Trazado 168745" d="M1720.966,1266.39s6.825,3.1,9.251,2.508c1.121-.276,2.6-1.823,4-3.643.463-.6.917-1.228,1.348-1.851a0,0,0,0,0,0,0c1.721-2.486,3.071-4.869,3.071-4.869s5.089-5.964,1.005-8.622a2.716,2.716,0,0,0-2.843.9,26.127,26.127,0,0,0-3.317,5.289c-.357.777-5.355,7.987-5.615,8.15s-2.444-.412-4.195-.558c-2.855-.238-2.289-.359-2.289-.359Z" transform="translate(-1720.966 -1249.807)" fill="#f08d29"/>
        </g>
        <path id="Trazado_168746" data-name="Trazado 168746" d="M1802.327,1242.968s-5.239,1.083-5.86,1.634c-.675.586-1.865,6.324-1.936,7.922a61.683,61.683,0,0,0,1.306,10.761c.675,2.486-.889,13.07.363,14.814,0,0,10.8,3.464,21.168,2.114,0,0-2.226-9.988-1.811-13.395.532-4.365,1.811-14.42,1.811-14.42s-1.385-6.771-2.309-7.552-7.343-2.052-7.343-2.052Z" transform="translate(-1734.667 -1224.712)" fill="#f08d29"/>
        <path id="Trazado_168747" data-name="Trazado 168747" d="M1891.969,1312.064s.989,6.438.92,6.851S1897.368,1317.622,1891.969,1312.064Z" transform="translate(-1812.644 -1280.144)" fill="#b86c1f"/>
        <g id="Grupo_110841" data-name="Grupo 110841" transform="translate(0 0.678)">
          <path id="Trazado_168748" data-name="Trazado 168748" d="M1940.49,1415.355l4.551-7.553a2.706,2.706,0,0,0-.921-3.714l-11.4-6.871a2.705,2.705,0,0,0-3.714.921l-4.551,7.553a2.705,2.705,0,0,0,.921,3.714l11.4,6.871A2.706,2.706,0,0,0,1940.49,1415.355Z" transform="translate(-1838.326 -1348.653)" fill="#c4b4af"/>
          <rect id="Rectángulo_34833" data-name="Rectángulo 34833" width="15.249" height="90.899" transform="translate(100.069 51.391) rotate(121.07)" fill="#eb4747"/>
          <rect id="Rectángulo_34834" data-name="Rectángulo 34834" width="5.083" height="90.899" transform="translate(19.587 8.834) rotate(-58.931)" fill="#2b69cf"/>
          <rect id="Rectángulo_34835" data-name="Rectángulo 34835" width="5.083" height="90.898" transform="translate(97.446 55.744) rotate(121.069)" fill="#3676e0"/>
          <rect id="Rectángulo_34836" data-name="Rectángulo 34836" width="5.083" height="90.898" transform="matrix(-0.516, 0.857, -0.857, -0.516, 94.823, 60.099)" fill="#4785eb"/>
          <path id="Trazado_168749" data-name="Trazado 168749" d="M1509.244,1173.225l7.87-13.061-17.667-3.564-4.543-.917,2.934,3.588Z" transform="translate(-1494.902 -1155.684)" fill="#eddad3"/>
          <path id="Trazado_168750" data-name="Trazado 168750" d="M1592.948,1182.464a2.543,2.543,0,0,0,2.623-4.354Z" transform="translate(-1573.361 -1173.63)" fill="#deccc6"/>
          <path id="Trazado_168751" data-name="Trazado 168751" d="M1579.817,1204.256a2.543,2.543,0,0,0,2.623-4.354Z" transform="translate(-1562.853 -1191.068)" fill="#e3d1ca"/>
          <path id="Trazado_168752" data-name="Trazado 168752" d="M1566.687,1226.05a2.543,2.543,0,0,0,2.623-4.354Z" transform="translate(-1552.346 -1208.508)" fill="#eddad3"/>
          <rect id="Rectángulo_34837" data-name="Rectángulo 34837" width="5.083" height="5.586" transform="matrix(0.516, -0.857, 0.857, 0.516, 95.339, 54.475)" fill="#b39696"/>
          <rect id="Rectángulo_34838" data-name="Rectángulo 34838" width="5.083" height="5.585" transform="translate(100.124 57.358) rotate(121.07)" fill="#dbb8b8"/>
          <rect id="Rectángulo_34839" data-name="Rectángulo 34839" width="5.083" height="5.585" transform="translate(97.5 61.712) rotate(121.067)" fill="#f2cbcb"/>
          <path id="Trazado_168753" data-name="Trazado 168753" d="M1514.49,1164.518l-19.588-8.834,22.211,4.48Z" transform="translate(-1494.902 -1155.684)" fill="#deccc6"/>
          <path id="Trazado_168754" data-name="Trazado 168754" d="M1511.867,1168.871l-16.964-13.188,19.588,8.834Z" transform="translate(-1494.902 -1155.684)" fill="#e3d1ca"/>
          <path id="Trazado_168755" data-name="Trazado 168755" d="M1511.867,1168.871l-16.964-13.188,14.341,17.542Z" transform="translate(-1494.902 -1155.684)" fill="#eddad3"/>
          <path id="Trazado_168756" data-name="Trazado 168756" d="M1497.836,1159.272l1.609-2.672-4.543-.917Z" transform="translate(-1494.902 -1155.684)" fill="#4785eb"/>
        </g>
        <g id="Grupo_110846" data-name="Grupo 110846" transform="translate(66.277 47.52)">
          <g id="Grupo_110845" data-name="Grupo 110845">
            <g id="Grupo_110844" data-name="Grupo 110844">
              <g id="Grupo_110843" data-name="Grupo 110843">
                <g id="Grupo_110842" data-name="Grupo 110842">
                  <path id="Trazado_168757" data-name="Trazado 168757" d="M1828.97,1396.19a2.2,2.2,0,0,0,.687-.162s.352-.249.613-.411a2.152,2.152,0,0,1,.207-.116,4.04,4.04,0,0,0,1.141-.607,27.064,27.064,0,0,0,1.935-2.445l-.894-1.126-.686-1.173a27.3,27.3,0,0,0-3.928.833,1.358,1.358,0,0,0-.124.091,5.147,5.147,0,0,0-.673.823c-.062.064-.638.737-.592,1a.866.866,0,0,0,.484.688,2.065,2.065,0,0,0,.534,1,1.286,1.286,0,0,0,.7.893S1828.573,1396.129,1828.97,1396.19Z" transform="translate(-1826.654 -1390.149)" fill="#f8d2bf"/>
                </g>
              </g>
            </g>
          </g>
        </g>
        <path id="Trazado_168758" data-name="Trazado 168758" d="M1857.841,1251.3c-.687.266-1.415,1.928-.874,5.188a14.052,14.052,0,0,0,2.2,5.809c.464.817,3.017,5.856,2.558,6.519s-4.793,4.938-5.044,5.287-5.089,4.728-5.089,4.728l2.464,3.443s10.448-8.161,11.264-8.976,3.252-2.527,2.351-5.373c-.916-2.893-2.562-9.666-2.855-10.2S1862.383,1249.537,1857.841,1251.3Z" transform="translate(-1780.333 -1231.306)" fill="#f08d29"/>
        <g id="Grupo_110848" data-name="Grupo 110848" transform="translate(38.363 30.679)">
          <g id="Grupo_110847" data-name="Grupo 110847">
            <path id="Trazado_168759" data-name="Trazado 168759" d="M1687.294,1307.685s1.675-1.866,2.511-1.832.267.741.267.741.55-.708,1.146-.334-.113,1.166-.113,1.166a.691.691,0,0,1,1,.162c.441.588-.292,1.113-.292,1.113s1.107-.165.871.739a3.9,3.9,0,0,1-2.045,2.254s-.471.184-.856-.412a.978.978,0,0,1-1.327-.808s-1.248-.289-.866-1.255A.868.868,0,0,1,1687.294,1307.685Z" transform="translate(-1686.932 -1305.853)" fill="#f8d2bf"/>
          </g>
        </g>
        <path id="Trazado_168760" data-name="Trazado 168760" d="M1821.688,1239s-.314-1.433,4.172-1.765,7.521.676,7.605,1.963-11.365,4.5-11.365,4.5Z" transform="translate(-1756.399 -1220.214)" fill="#faa146"/>
        <path id="Trazado_168761" data-name="Trazado 168761" d="M1820.682,1161.388s-6.3-2.332-5.908,6.043,1.871,9.226,6.016,8.056,4.493-6.455,5.033-9S1822.742,1161.754,1820.682,1161.388Z" transform="translate(-1750.856 -1159.331)" fill="#f8d2bf"/>
        <path id="Trazado_168762" data-name="Trazado 168762" d="M1828.383,1215.036s1.51.665,6.427-1.5a22.261,22.261,0,0,1,.826-6.52c.964-3.149-6.6,4.2-6.6,4.2.079.056.095.371.049.81a8.943,8.943,0,0,1-.242,1.3C1828.568,1214.377,1828.632,1214.19,1828.383,1215.036Z" transform="translate(-1761.761 -1195.454)" fill="#f8d2bf"/>
        <path id="Trazado_168763" data-name="Trazado 168763" d="M1824.262,1163.6s.018-2.237-.912-2.443-1.409,1.087-1.409,1.087l-.749-.04s.669-2.267-.218-2.787-6.193-.063-6.858-.827.3-5.3,1.747-5.741,5.4-1.347,7.913.889c0,0,2.157.932,2.244,2.71A19.078,19.078,0,0,1,1824.262,1163.6Z" transform="translate(-1750.171 -1152.288)" fill="#163342"/>
        <path id="Trazado_168764" data-name="Trazado 168764" d="M1830.691,1227.149c4.885-.821,5.614-3.6,5.625-3.642-1.9,2.448-5.383,2.341-5.383,2.341A8.922,8.922,0,0,1,1830.691,1227.149Z" transform="translate(-1763.608 -1209.279)" fill="#b07c63"/>
        <path id="Trazado_168765" data-name="Trazado 168765" d="M1853.79,1190.034c.278-.738,1.85-.645,1.689.525s-1.46,2.972-1.982,2.634S1853.406,1191.051,1853.79,1190.034Z" transform="translate(-1781.665 -1182.115)" fill="#f8d2bf"/>
      </g>
      <g id="Grupo_110908" data-name="Grupo 110908" transform="translate(109.562 197.874)">
        <g id="Grupo_110854" data-name="Grupo 110854" transform="translate(21.831 8.632)">
          <g id="Grupo_110853" data-name="Grupo 110853">
            <g id="Grupo_110852" data-name="Grupo 110852">
              <g id="Grupo_110851" data-name="Grupo 110851">
                <g id="Grupo_110850" data-name="Grupo 110850">
                  <path id="Trazado_168766" data-name="Trazado 168766" d="M1195.119,1157.205s3.767,1.842,2.835,6.855-1.344,5.688-.3,7.647,2.271,10.314,1.333,11.9-11.606-6.959-13.085-14.127.938-10.356,1.792-11.543S1191.793,1155.517,1195.119,1157.205Z" transform="translate(-1185.432 -1156.378)" fill="#0e2d3d"/>
                </g>
              </g>
            </g>
          </g>
        </g>
        <g id="Grupo_110856" data-name="Grupo 110856">
          <g id="Grupo_110855" data-name="Grupo 110855">
            <path id="Trazado_168767" data-name="Trazado 168767" d="M1076.153,1113.17h15.863v13.92l-2.422-2.422h-13.442Z" transform="translate(-1076.153 -1113.17)" fill="#78c2ff"/>
          </g>
        </g>
        <g id="Grupo_110857" data-name="Grupo 110857" transform="translate(29.214 115.373)">
          <path id="Trazado_168768" data-name="Trazado 168768" d="M1226.3,1691.419a9.415,9.415,0,0,0,1.1,1.839c.527.688,2.167,3.513,2.89,3.711s2.955.591,3.152,1.839.3,2.134-1.9,2.233-3.645.23-4.7-1.313a11.437,11.437,0,0,0-2.725-2.66v4.027h-.854a36.512,36.512,0,0,0-.624-4.486c-.23-.3-.821-3.513,1.215-5.188S1226.3,1691.419,1226.3,1691.419Z" transform="translate(-1222.383 -1690.675)" fill="#163342"/>
        </g>
        <g id="Grupo_110858" data-name="Grupo 110858" transform="translate(30.225 115.675)">
          <path id="Trazado_168769" data-name="Trazado 168769" d="M1234.345,1698.177s-1.97.492-2.725,0-3.323-4.832-4.173-5.092c0,0,.824-1.672,2.909-.457C1230.355,1692.628,1233.787,1697.454,1234.345,1698.177Z" transform="translate(-1227.446 -1692.185)" fill="#eea886"/>
        </g>
        <g id="Grupo_110862" data-name="Grupo 110862" transform="translate(56.244 45.122)">
          <g id="Grupo_110861" data-name="Grupo 110861">
            <g id="Grupo_110860" data-name="Grupo 110860">
              <g id="Grupo_110859" data-name="Grupo 110859">
                <path id="Trazado_168770" data-name="Trazado 168770" d="M1357.795,1341.3s1.367.262,1.834-.38a4.458,4.458,0,0,1,1.584-1.095c.374-.173,1.322-1.132,1.545-.663s-1.487,1.656-1.8,1.977,1.677.462,2.02.774-.079,3.588-1.43,3.333-2.627-1.42-2.874-1.417a8.5,8.5,0,0,1-.991-.147Z" transform="translate(-1357.686 -1339.029)" fill="#eea886"/>
              </g>
            </g>
          </g>
        </g>
        <g id="Grupo_110866" data-name="Grupo 110866" transform="translate(60.174 47.867)">
          <g id="Grupo_110865" data-name="Grupo 110865">
            <g id="Grupo_110864" data-name="Grupo 110864">
              <g id="Grupo_110863" data-name="Grupo 110863">
                <path id="Trazado_168771" data-name="Trazado 168771" d="M1378.42,1352.769a30.681,30.681,0,0,1,4.3,1.354c.213.3.143.516-.243.433s-3.978-.906-3.978-.906,4.626,2.062,4.855,2.268c.134.121.022.551-.188.526s-4.913-1.807-4.913-1.807,4.316,1.933,4.456,2.163a.325.325,0,0,1-.408.448c-.33-.121-4.438-1.689-4.438-1.689s3.053,1.6,3.057,1.868c0,.161-.077.537-.852.1s-2.712-1.282-2.712-1.282Z" transform="translate(-1377.356 -1352.769)" fill="#eea886"/>
              </g>
            </g>
          </g>
        </g>
        <g id="Grupo_110867" data-name="Grupo 110867" transform="translate(18.795 118.649)">
          <path id="Trazado_168772" data-name="Trazado 168772" d="M1173.557,1707.15a36.882,36.882,0,0,0,3.087,4.055s1.97.722,2.167,2.1.164,2.3-2.167,2.365-3.86-.353-4.286-1.765a6.433,6.433,0,0,0-1.361-2.373v2.955h-.525s-.131-2.857-.164-3.382-.377-2.545.731-3.44A3.075,3.075,0,0,1,1173.557,1707.15Z" transform="translate(-1170.23 -1707.071)" fill="#163342"/>
        </g>
        <g id="Grupo_110868" data-name="Grupo 110868" transform="translate(15.863 54.502)">
          <path id="Trazado_168773" data-name="Trazado 168773" d="M1160.338,1387.147a20.616,20.616,0,0,0-3.531,7.9c-.754,4.285.445,18.667.412,20.785s-2,7.388-1.609,11.377,1.949,23.845,1.949,23.845l4.257-.844s-.246-20.243,0-21.917.74-7.779.839-8.468,6.254-18.8,6.254-21.885S1167.036,1382.107,1160.338,1387.147Z" transform="translate(-1155.557 -1385.98)" fill="#1d3b54"/>
        </g>
        <g id="Grupo_110869" data-name="Grupo 110869" transform="translate(25.047 56.175)">
          <path id="Trazado_168774" data-name="Trazado 168774" d="M1211.078,1395.262s4.564,17.419,5.106,19.833,1.326,4.4,1.326,5.428a35.884,35.884,0,0,1-.883,6.2l-5.8,27.719h-5.52s3.075-16.63,3.158-19.882,2.592-7.887,2.1-9.266-7.93-17.288-7.93-17.288S1197.009,1390.206,1211.078,1395.262Z" transform="translate(-1201.527 -1394.358)" fill="#1d3b54"/>
        </g>
        <g id="Grupo_110870" data-name="Grupo 110870" transform="translate(19.601 118.728)">
          <path id="Trazado_168775" data-name="Trazado 168775" d="M1179.875,1711.522s-2.253,1.259-3.7-.358a11.427,11.427,0,0,1-1.9-3.181l2.52-.517Z" transform="translate(-1174.269 -1707.467)" fill="#eea886"/>
        </g>
        <g id="Grupo_110872" data-name="Grupo 110872" transform="translate(31.056 27.478)">
          <g id="Grupo_110871" data-name="Grupo 110871">
            <path id="Trazado_168776" data-name="Trazado 168776" d="M1233.265,1250.714a5.694,5.694,0,0,1,3.3,1.7,21.823,21.823,0,0,1,3.129,4.765c.372.813,5.592,8.342,5.863,8.512s2.895,1.046,4.634,1.631c2.683.9,8.061,2.858,8.061,2.858l-1.068,3.382s-10.113-3.309-12.646-3.933c-3.1-.763-10.226-9.909-10.226-9.909S1229,1253.49,1233.265,1250.714Z" transform="translate(-1231.607 -1250.714)" fill="#285173"/>
          </g>
        </g>
        <g id="Grupo_110874" data-name="Grupo 110874" transform="translate(16.365 26.031)">
          <g id="Grupo_110873" data-name="Grupo 110873">
            <path id="Trazado_168777" data-name="Trazado 168777" d="M1171.135,1243.594a25.519,25.519,0,0,0,3.284,1.32c.846.169,4.13,4.435,4.706,5.992s0,3.893-1.185,6.635-.068,3.656-.609,6.4-.368,13-.266,14.524-15.846,3.832-18.994,1.057c0,0,2.131-9.245,4.655-11.884.546-.571.488-4.374.116-5.322s-4.57-8.023-4.57-8.023-.308-7.176,1.523-8.6c1.591-1.236,5.927-1.676,6.706-1.947A13.305,13.305,0,0,1,1171.135,1243.594Z" transform="translate(-1158.071 -1243.467)" fill="#ff7e55"/>
          </g>
        </g>
        <g id="Grupo_110876" data-name="Grupo 110876" transform="translate(24.796 20.01)">
          <g id="Grupo_110875" data-name="Grupo 110875">
            <path id="Trazado_168778" data-name="Trazado 168778" d="M1206.067,1216.665s-.073.671-.157,1.578c-.032.359-.068.755-.1,1.161a27.378,27.378,0,0,0-.128,3.188s-2.534,2.539-5.413-2.962a7.557,7.557,0,0,0,.3-5.357C1199.656,1211.183,1206.067,1216.665,1206.067,1216.665Z" transform="translate(-1200.269 -1213.329)" fill="#eea886"/>
          </g>
        </g>
        <g id="Grupo_110877" data-name="Grupo 110877" transform="translate(36.482 34.596)">
          <path id="Trazado_168779" data-name="Trazado 168779" d="M1259.965,1292.861a20.706,20.706,0,0,0-.039-6.521,15.747,15.747,0,0,1-1.163,5.132Z" transform="translate(-1258.764 -1286.34)" fill="#183c59"/>
        </g>
        <g id="Grupo_110878" data-name="Grupo 110878" transform="translate(22.849 26.247)">
          <path id="Trazado_168780" data-name="Trazado 168780" d="M1190.526,1245.006s1.742,5.146,6.526,4.768,2.268-4.345,2.268-4.345a10.575,10.575,0,0,0-1.528-.748c-.336-.064-5.289-.127-5.289-.127Z" transform="translate(-1190.526 -1244.553)" fill="#eea886"/>
        </g>
        <g id="Grupo_110879" data-name="Grupo 110879" transform="translate(31.643 27.123)">
          <path id="Trazado_168781" data-name="Trazado 168781" d="M1234.542,1248.934a47.145,47.145,0,0,1,2.505,13.994c0,7.064.2,18.57,1.077,22.2s3.365,14.87,3.365,14.87l1.951-1.009s-4.692-17.934-5.047-19.227.269-14.955.606-16.1,1.768-6.236,1.545-7.648c-.281-1.781-1.947-4.416-4.639-6.682Z" transform="translate(-1234.542 -1248.934)" fill="#285173"/>
        </g>
        <g id="Grupo_110880" data-name="Grupo 110880" transform="translate(13.222 26.484)">
          <path id="Trazado_168782" data-name="Trazado 168782" d="M1152.908,1245.736a72.039,72.039,0,0,1,2.346,11.372c.789,6.386-2.422,36.028-4.575,42.757l-8.344-1.346s1.8-20.952,4.234-24.765,3.214-7.186.582-15.145,1.154-11.9,1.154-11.9S1152.176,1245.819,1152.908,1245.736Z" transform="translate(-1142.335 -1245.736)" fill="#285173"/>
        </g>
        <g id="Grupo_110881" data-name="Grupo 110881" transform="translate(11.433 40.882)">
          <path id="Trazado_168783" data-name="Trazado 168783" d="M1154.744,1324.553l-10.117,17.523-11.246-6.493,9.677-17.776Z" transform="translate(-1133.381 -1317.807)" fill="#616161"/>
        </g>
        <g id="Grupo_110882" data-name="Grupo 110882" transform="translate(12.603 42.239)">
          <path id="Trazado_168784" data-name="Trazado 168784" d="M1158.213,1330.594l-8.985,15.563-9.988-5.767,8.595-15.788Z" transform="translate(-1139.239 -1324.601)" fill="#e0cec7"/>
        </g>
        <g id="Grupo_110883" data-name="Grupo 110883" transform="translate(24.066 43.41)">
          <path id="Trazado_168785" data-name="Trazado 168785" d="M1200.812,1333.884l.631-1.092-4.038-2.331-.788,1Z" transform="translate(-1196.616 -1330.46)" fill="#616161"/>
        </g>
        <g id="Grupo_110889" data-name="Grupo 110889" transform="translate(23.141 53.819)">
          <g id="Grupo_110888" data-name="Grupo 110888">
            <g id="Grupo_110887" data-name="Grupo 110887">
              <g id="Grupo_110886" data-name="Grupo 110886">
                <g id="Grupo_110885" data-name="Grupo 110885">
                  <g id="Grupo_110884" data-name="Grupo 110884">
                    <path id="Trazado_168786" data-name="Trazado 168786" d="M1196.625,1388.012a2.085,2.085,0,0,1-.662-.1s-.354-.2-.613-.335a2.013,2.013,0,0,0-.205-.092,3.833,3.833,0,0,1-1.128-.477,25.675,25.675,0,0,1-2.031-2.144l.748-1.138.549-1.165a25.832,25.832,0,0,1,3.776.456,1.236,1.236,0,0,1,.124.076,4.893,4.893,0,0,1,.7.72c.064.055.664.642.643.892a.82.82,0,0,1-.4.69,1.962,1.962,0,0,1-.42.993,1.218,1.218,0,0,1-.586.9S1196.995,1387.921,1196.625,1388.012Z" transform="translate(-1191.986 -1382.565)" fill="#eea886"/>
                  </g>
                </g>
              </g>
            </g>
          </g>
        </g>
        <g id="Grupo_110891" data-name="Grupo 110891" transform="translate(11.174 27.375)">
          <g id="Grupo_110890" data-name="Grupo 110890">
            <path id="Trazado_168787" data-name="Trazado 168787" d="M1141.837,1250.3a4.243,4.243,0,0,0-4.833,2.505,15.452,15.452,0,0,0-1.987,6.483c-.222,1.561-1.225,5.823-1.327,6.263s-2.373,5.688-1.331,7.522,11.68,7.271,11.613,7.677,1.842-4.1,1.842-4.1a45.555,45.555,0,0,1-5.007-3.136c-1.145-1.2-3.559-2.492-3.063-3.98.583-1.748,2.333-7.645,2.74-8.508S1144.427,1251.4,1141.837,1250.3Z" transform="translate(-1132.087 -1250.198)" fill="#285173"/>
          </g>
        </g>
        <g id="Grupo_110896" data-name="Grupo 110896" transform="translate(23.758 9.855)">
          <g id="Grupo_110895" data-name="Grupo 110895">
            <g id="Grupo_110894" data-name="Grupo 110894">
              <g id="Grupo_110893" data-name="Grupo 110893">
                <g id="Grupo_110892" data-name="Grupo 110892">
                  <path id="Trazado_168788" data-name="Trazado 168788" d="M1202.288,1162.66s5.469,1.719,2.5,11.157-10.439-1.094-9.658-6.844S1202.288,1162.66,1202.288,1162.66Z" transform="translate(-1195.074 -1162.5)" fill="#eea987"/>
                </g>
              </g>
            </g>
          </g>
        </g>
        <g id="Grupo_110901" data-name="Grupo 110901" transform="translate(23.327 9.097)">
          <g id="Grupo_110900" data-name="Grupo 110900">
            <g id="Grupo_110899" data-name="Grupo 110899">
              <g id="Grupo_110898" data-name="Grupo 110898">
                <g id="Grupo_110897" data-name="Grupo 110897">
                  <path id="Trazado_168789" data-name="Trazado 168789" d="M1203.62,1165.131a12.338,12.338,0,0,1-7.266,3,11.529,11.529,0,0,0-1.882,2.854s-4.058-6.917.93-11.063S1205.454,1163.422,1203.62,1165.131Z" transform="translate(-1192.916 -1158.706)" fill="#0e2d3d"/>
                </g>
              </g>
            </g>
          </g>
        </g>
        <g id="Grupo_110906" data-name="Grupo 110906" transform="translate(24.922 16.822)">
          <g id="Grupo_110905" data-name="Grupo 110905">
            <g id="Grupo_110904" data-name="Grupo 110904">
              <g id="Grupo_110903" data-name="Grupo 110903">
                <g id="Grupo_110902" data-name="Grupo 110902">
                  <path id="Trazado_168790" data-name="Trazado 168790" d="M1202.8,1199.261c-.035-.687-.458-2.25-1.479-1.813s.063,3.621.74,3.425C1202.06,1200.874,1202.883,1200.886,1202.8,1199.261Z" transform="translate(-1200.902 -1197.372)" fill="#eea987"/>
                </g>
              </g>
            </g>
          </g>
        </g>
        <g id="Grupo_110907" data-name="Grupo 110907" transform="translate(26.309 22.349)">
          <path id="Trazado_168791" data-name="Trazado 168791" d="M1211.972,1227.615c-.032.359-.068.755-.1,1.161,0,0-2.414-.144-4.028-3.735C1207.949,1225.2,1209.718,1227.8,1211.972,1227.615Z" transform="translate(-1207.844 -1225.041)" fill="#a77860"/>
        </g>
      </g>
    </g>
  </g>
</svg>
