<svg xmlns="http://www.w3.org/2000/svg" width="105.623" height="105.628" viewBox="0 0 105.623 105.628">
  <path id="Trazado_151483" data-name="Trazado 151483" d="M888.568,204.81a44.736,44.736,0,0,0,3.678-11.924l8.417-2.527-.888-9.506-.887-9.507-8.74-.926a44.71,44.71,0,0,0-5.821-11.037l4.159-7.733-7.35-6.1-7.349-6.095-6.829,5.52a44.739,44.739,0,0,0-11.923-3.677l-2.528-8.417-9.5.889-9.5.887-.926,8.74a44.67,44.67,0,0,0-11.037,5.82l-7.733-4.159-6.095,7.35-6.1,7.349,5.522,6.829a44.7,44.7,0,0,0-3.678,11.922l-8.417,2.528.887,9.507.888,9.506,8.74.926a44.707,44.707,0,0,0,5.821,11.037l-4.159,7.733,7.35,6.1,7.349,6.1,6.829-5.521a44.691,44.691,0,0,0,11.923,3.677l2.527,8.418,9.506-.887,9.507-.888.926-8.74a44.707,44.707,0,0,0,11.037-5.821l7.733,4.159,6.1-7.35,6.094-7.349Zm-55.661-1.09a23.411,23.411,0,1,1,32.965-3.077,23.412,23.412,0,0,1-32.965,3.077Z" transform="translate(-795.04 -132.886)" fill="#f77400"/>
</svg>
