<svg xmlns="http://www.w3.org/2000/svg" width="60.258" height="63.955" viewBox="0 0 60.258 63.955">
  <path id="Trazado_151462" data-name="Trazado 151462" d="M746.008,180.068a3.207,3.207,0,1,1-.008,0Zm4.911-1.794a12.45,12.45,0,1,0,4.736-.936,12.378,12.378,0,0,0-4.736.936Zm-1.507-10.041a21.929,21.929,0,0,0-2.515.9,22.534,22.534,0,0,0-6.767,4.485,1.421,1.421,0,0,1-.816.389,1.438,1.438,0,0,1-.889-.182c-2-1.157-4.11-2.3-6.073-3.506a.82.82,0,0,0-.294-.092.9.9,0,0,0-.335.026.862.862,0,0,0-.307.15.83.83,0,0,0-.221.251c-1.461,2.21-2.926,5.065-4.28,7.408a.84.84,0,0,0-.106.315.878.878,0,0,0,.025.346.857.857,0,0,0,.15.306.834.834,0,0,0,.252.221c1.8,1.192,4.124,2.385,6.034,3.487a1.422,1.422,0,0,1,.6.676,1.393,1.393,0,0,1,.09.3l.124.042-.139.562c-.109.444-.206.886-.287,1.327s-.146.877-.2,1.346-.1.909-.124,1.357-.04.9-.04,1.371.014.935.04,1.37.068.9.124,1.358.123.917.2,1.346.177.884.286,1.326a1.424,1.424,0,0,1-.737,1.613l-5.344,3.086h0l-.633.365a.85.85,0,0,0-.4.528.9.9,0,0,0-.026.346.858.858,0,0,0,.107.315l3.957,6.855h0l.321.553a.846.846,0,0,0,.221.252.906.906,0,0,0,.307.15.924.924,0,0,0,.343.025.857.857,0,0,0,.314-.108c1.913-1.2,4.077-2.351,6.049-3.49a1.425,1.425,0,0,1,1.7.2h0a22.543,22.543,0,0,0,2.08,1.774,22.14,22.14,0,0,0,7.272,3.632,1.427,1.427,0,0,1,1.037,1.376v6.975a.846.846,0,0,0,.065.326.861.861,0,0,0,.8.537h8.561a.873.873,0,0,0,.327-.064.912.912,0,0,0,.283-.189.922.922,0,0,0,.189-.284.846.846,0,0,0,.065-.326V212.59a1.44,1.44,0,0,1,1.1-1.393,22.246,22.246,0,0,0,4.929-2.1,22.552,22.552,0,0,0,4.353-3.281,1.433,1.433,0,0,1,1.779-.163l5.969,3.447a.839.839,0,0,0,.316.106.893.893,0,0,0,.652-.175.843.843,0,0,0,.221-.251c1.419-2.474,2.859-4.936,4.28-7.41a.864.864,0,0,0,.107-.316.9.9,0,0,0-.026-.343.889.889,0,0,0-.148-.308.836.836,0,0,0-.245-.221l-6.04-3.488a1.426,1.426,0,0,1-.678-.906l-.158-.032.158-.64c.109-.442.206-.885.286-1.326s.147-.878.2-1.346.1-.91.124-1.358.04-.9.04-1.371-.013-.933-.04-1.37-.068-.9-.124-1.356-.125-.925-.2-1.351-.176-.881-.286-1.324a1.426,1.426,0,0,1,.091-.943,1.441,1.441,0,0,1,.642-.667l5.979-3.451a.833.833,0,0,0,.249-.22.882.882,0,0,0,.149-.308.906.906,0,0,0,.025-.344.861.861,0,0,0-.107-.315c-1.46-2.172-2.923-5.074-4.28-7.41a.842.842,0,0,0-.221-.251.9.9,0,0,0-.307-.15.928.928,0,0,0-.344-.025.848.848,0,0,0-.316.108l-6.044,3.488a1.417,1.417,0,0,1-.9.181,1.446,1.446,0,0,1-.816-.4,22.156,22.156,0,0,0-2.069-1.765,22.608,22.608,0,0,0-2.266-1.5,22.219,22.219,0,0,0-2.432-1.212,21.876,21.876,0,0,0-2.557-.907,1.426,1.426,0,0,1-1.038-1.376v-6.974a.838.838,0,0,0-.066-.327.878.878,0,0,0-.19-.281.844.844,0,0,0-.608-.255h-8.561a.874.874,0,0,0-.327.064.914.914,0,0,0-.283.19.87.87,0,0,0-.253.61v6.975a1.434,1.434,0,0,1-.308.886,1.455,1.455,0,0,1-.793.507Zm-3.009-.264a23.57,23.57,0,0,0-7.148,4.743.162.162,0,0,1-.1.044.167.167,0,0,1-.1-.02l-6.095-3.52a2.094,2.094,0,0,0-.763-.24,2.15,2.15,0,0,0-1.547.427,2.1,2.1,0,0,0-.547.622c-1.472,2.385-2.87,4.969-4.279,7.408a2.1,2.1,0,0,0-.265.788,2.143,2.143,0,0,0,.422,1.576,2.09,2.09,0,0,0,.623.546c1.943,1.2,4.052,2.34,6.039,3.488a.159.159,0,0,1,.07.081.176.176,0,0,1,.009.106l-.14.564h.008c-.06.272-.116.551-.168.835q-.133.726-.219,1.426t-.129,1.431q-.045.739-.045,1.445t.045,1.444q.044.74.129,1.433c.057.463.131.941.219,1.425s.19.947.3,1.4a.161.161,0,0,1-.012.11.164.164,0,0,1-.074.082c-2.22,1.186-4.472,2.579-6.667,3.848l.081.1-.068.081a2.14,2.14,0,0,0-.422,1.575,2.08,2.08,0,0,0,.266.788l4.6,7.964.082-.051c.045.041.093.081.142.118a2.158,2.158,0,0,0,.746.367,2.122,2.122,0,0,0,.828.054,2.076,2.076,0,0,0,.766-.251c2.012-1.067,4.082-2.357,6.069-3.506a.177.177,0,0,1,.1-.018.181.181,0,0,1,.1.045,23.456,23.456,0,0,0,9.87,5.7.162.162,0,0,1,.088.059.17.17,0,0,1,.034.1v6.974a2.125,2.125,0,0,0,.627,1.5,2.147,2.147,0,0,0,.689.462,2.113,2.113,0,0,0,.811.163h8.562a2.128,2.128,0,0,0,.815-.163,2.193,2.193,0,0,0,.691-.462,2.147,2.147,0,0,0,.461-.691,2.078,2.078,0,0,0,.163-.812V212.59a.16.16,0,0,1,.123-.163l.028-.009a23.755,23.755,0,0,0,2.691-.955,23.262,23.262,0,0,0,2.551-1.277,23.7,23.7,0,0,0,2.4-1.59,24.042,24.042,0,0,0,2.194-1.876.167.167,0,0,1,.1-.047.179.179,0,0,1,.108.028l6.04,3.487a2.091,2.091,0,0,0,.785.263,2.135,2.135,0,0,0,2.111-1.026c1.587-2.552,3.086-5.346,4.6-7.967l-.082-.048a1.708,1.708,0,0,0,.036-.2,2.157,2.157,0,0,0-.056-.827,2.128,2.128,0,0,0-.367-.745,2.074,2.074,0,0,0-.621-.547l-6.041-3.487a.178.178,0,0,1-.078-.19l.157-.638h-.009c.054-.245.105-.5.152-.758.089-.481.163-.958.219-1.425s.1-.941.13-1.432.044-.979.044-1.444-.015-.953-.044-1.445-.073-.969-.13-1.435-.13-.938-.219-1.425-.189-.945-.3-1.4a.177.177,0,0,1,.012-.111.158.158,0,0,1,.077-.082l6.034-3.483a2.071,2.071,0,0,0,.62-.548,2.13,2.13,0,0,0,.166-2.341c-1.437-2.664-3.086-5.349-4.607-7.984l-.086.052a1.77,1.77,0,0,0-.143-.119,2.144,2.144,0,0,0-1.573-.423,2.1,2.1,0,0,0-.785.261l-.447.257v0l-5.6,3.235a.175.175,0,0,1-.107.022.159.159,0,0,1-.1-.049l-.015-.013A23.518,23.518,0,0,0,762.186,167a.162.162,0,0,1-.087-.06.151.151,0,0,1-.035-.1v-6.975a2.093,2.093,0,0,0-.163-.815,2.135,2.135,0,0,0-1.968-1.315h-8.562a2.094,2.094,0,0,0-.811.163,2.18,2.18,0,0,0-.691.461,2.12,2.12,0,0,0-.625,1.5v6.975a.187.187,0,0,1-.034.107.171.171,0,0,1-.1.057l-.028.01a23.467,23.467,0,0,0-2.684.956Z" transform="translate(-725.541 -157.736)" fill="#f77400" fill-rule="evenodd"/>
</svg>
