<svg xmlns="http://www.w3.org/2000/svg" width="139.909" height="139.911" viewBox="0 0 139.909 139.911">
  <path id="Trazado_151482" data-name="Trazado 151482" d="M1192.2,308.042a59.867,59.867,0,0,0,6.531-15.379l11.559-2.216.12-12.785.119-12.786-11.515-2.43a59.92,59.92,0,0,0-6.243-15.5l6.6-9.731-8.957-9.125-8.957-9.125-9.853,6.42a59.85,59.85,0,0,0-15.379-6.53l-2.214-11.56-12.786-.12-12.787-.12-2.429,11.517a59.861,59.861,0,0,0-15.5,6.242l-9.732-6.6-9.125,8.957-9.13,8.959,6.422,9.85a59.818,59.818,0,0,0-6.53,15.38l-11.561,2.215-.119,12.786-.12,12.785,11.517,2.43a59.882,59.882,0,0,0,6.242,15.5l-6.6,9.732,8.957,9.125,8.957,9.125,9.853-6.42a59.858,59.858,0,0,0,15.38,6.531l2.214,11.559,12.786.12,12.787.12,2.429-11.517a59.806,59.806,0,0,0,15.5-6.243l9.732,6.605,9.126-8.957,9.126-8.961Zm-74-9.071a31.351,31.351,0,1,1,44.334.413h0A31.35,31.35,0,0,1,1118.206,298.971Z" transform="translate(-1070.625 -207.055)" fill="#30610c"/>
</svg>
