<svg xmlns="http://www.w3.org/2000/svg" xmlns:xlink="http://www.w3.org/1999/xlink" width="115" height="115" viewBox="0 0 115 115">
  <defs>
    <clipPath id="clip-path">
      <rect id="Rectángulo_40355" data-name="Rectángulo 40355" width="70" height="70" fill="none"/>
    </clipPath>
    <clipPath id="clip-path-3">
      <rect id="Rectángulo_40353" data-name="Rectángulo 40353" width="9.622" height="25.968" transform="translate(15.807 24.839)" fill="#a2a8fa"/>
    </clipPath>
  </defs>
  <g id="Grupo_130101" data-name="Grupo 130101" transform="translate(-270 -1633.056)">
    <g id="Elipse_6087" data-name="Elipse 6087" transform="translate(270 1633.056)" fill="none" stroke="#fece10" stroke-width="4">
      <circle cx="57.5" cy="57.5" r="57.5" stroke="none"/>
      <circle cx="57.5" cy="57.5" r="55.5" fill="none"/>
    </g>
    <g id="Grupo_129970" data-name="Grupo 129970" transform="translate(291 1655)">
      <g id="Grupo_129969" data-name="Grupo 129969" clip-path="url(#clip-path)">
        <g id="Grupo_129968" data-name="Grupo 129968">
          <g id="Grupo_129967" data-name="Grupo 129967" clip-path="url(#clip-path)">
            <path id="Trazado_195369" data-name="Trazado 195369" d="M21.452,25.553V2.258a1.128,1.128,0,0,1,1.129-1.129H67.742a1.128,1.128,0,0,1,1.129,1.129V67.742a1.129,1.129,0,0,1-1.129,1.129H21.452Z" fill="#eaebef"/>
            <path id="Trazado_195370" data-name="Trazado 195370" d="M67.742,1.129H35V43.345A14.236,14.236,0,0,0,49.236,57.581H68.871V2.258a1.128,1.128,0,0,0-1.129-1.129" fill="#f6f8ff"/>
            <path id="Trazado_195371" data-name="Trazado 195371" d="M2.258,59.839H33.871A1.129,1.129,0,0,1,35,60.968v6.774a1.129,1.129,0,0,1-1.129,1.129H2.258a1.128,1.128,0,0,1-1.129-1.129V60.968a1.128,1.128,0,0,1,1.129-1.129" fill="#ffddc1"/>
            <path id="Trazado_195372" data-name="Trazado 195372" d="M4.516,59.839V55.323a1.128,1.128,0,0,1,1.129-1.129H30.484a1.129,1.129,0,0,1,1.129,1.129v4.516Z" fill="#ffb271"/>
            <path id="Trazado_195373" data-name="Trazado 195373" d="M22.581,54.193,25.37,32.815a7.061,7.061,0,0,0-7-7.976h-.6a7.061,7.061,0,0,0-7,7.976l2.789,21.378Z" fill="#2432ff"/>
            <path id="Trazado_195374" data-name="Trazado 195374" d="M55.323,46.29a9.033,9.033,0,1,1-9.032,9.032,9.032,9.032,0,0,1,9.032-9.032" fill="#fcd770"/>
            <path id="Trazado_195382" data-name="Trazado 195382" d="M0,0H18.065V4.516H0Z" transform="translate(25.968 5.645)" fill="#b4dd7f"/>
            <rect id="Rectángulo_40350" data-name="Rectángulo 40350" width="38.387" height="4.516" transform="translate(25.968 14.677)" fill="#fcd770"/>
            <rect id="Rectángulo_40351" data-name="Rectángulo 40351" width="21.452" height="4.516" transform="translate(41.774 23.71)" fill="#fcd770"/>
            <rect id="Rectángulo_40352" data-name="Rectángulo 40352" width="21.452" height="4.516" transform="translate(41.774 32.742)" fill="#fcd770"/>
            <g id="Grupo_129966" data-name="Grupo 129966" opacity="0.5" style="isolation: isolate">
              <g id="Grupo_129965" data-name="Grupo 129965">
                <g id="Grupo_129964" data-name="Grupo 129964" clip-path="url(#clip-path-3)">
                  <path id="Trazado_195375" data-name="Trazado 195375" d="M22,25.845a7.07,7.07,0,0,0-3.634-1.006h-.6a7.046,7.046,0,0,0-1.957.281V45.049a5.758,5.758,0,0,0,5.758,5.758h1.46l2.345-17.992A7.065,7.065,0,0,0,22,25.845" fill="#a2a8fa"/>
                </g>
              </g>
            </g>
            <path id="Trazado_195376" data-name="Trazado 195376" d="M67.742,0H22.581a2.258,2.258,0,0,0-2.258,2.258v21.7a8.218,8.218,0,0,0-1.956-.249h-.605a8.189,8.189,0,0,0-8.121,9.25l2.623,20.1H5.645a2.258,2.258,0,0,0-2.258,2.258V58.71H2.258A2.258,2.258,0,0,0,0,60.968v6.774A2.258,2.258,0,0,0,2.258,70H33.871A2.233,2.233,0,0,0,35,69.686V70H67.742A2.258,2.258,0,0,0,70,67.742V2.258A2.258,2.258,0,0,0,67.742,0M11.879,32.669A5.933,5.933,0,0,1,17,26.018a5.773,5.773,0,0,1,.766-.05h.605a5.941,5.941,0,0,1,5.884,6.7l-2.662,20.4H14.54ZM5.645,55.323H30.484V58.71H5.645ZM2.258,60.968H33.871v6.774H2.258Zm65.484,6.774H36.129V60.968a2.258,2.258,0,0,0-2.258-2.258H32.742V55.323a2.258,2.258,0,0,0-2.258-2.258H23.866l2.622-20.1a8.186,8.186,0,0,0-3.907-8.084V2.258H67.742Z"/>
            <path id="Trazado_195377" data-name="Trazado 195377" d="M55.323,45.161A10.162,10.162,0,1,0,65.484,55.323,10.162,10.162,0,0,0,55.323,45.161m0,18.065a7.9,7.9,0,1,1,7.9-7.9,7.9,7.9,0,0,1-7.9,7.9"/>
            <path id="Trazado_195378" data-name="Trazado 195378" d="M25.968,11.29H44.032a1.128,1.128,0,0,0,1.129-1.129V5.645a1.129,1.129,0,0,0-1.129-1.129H25.968a1.129,1.129,0,0,0-1.129,1.129v4.516a1.128,1.128,0,0,0,1.129,1.129M27.1,6.774H42.9V9.032H27.1Z"/>
            <path id="Trazado_195379" data-name="Trazado 195379" d="M25.968,20.323H64.355a1.13,1.13,0,0,0,1.129-1.129V14.677a1.13,1.13,0,0,0-1.129-1.129H25.968a1.129,1.129,0,0,0-1.129,1.129v4.517a1.129,1.129,0,0,0,1.129,1.129M27.1,15.806H63.226v2.258H27.1Z"/>
            <path id="Trazado_195380" data-name="Trazado 195380" d="M41.774,29.355H63.226a1.13,1.13,0,0,0,1.129-1.129V23.71a1.129,1.129,0,0,0-1.129-1.129H41.774a1.129,1.129,0,0,0-1.129,1.129v4.516a1.13,1.13,0,0,0,1.129,1.129M42.9,24.839H62.1V27.1H42.9Z"/>
            <path id="Trazado_195381" data-name="Trazado 195381" d="M64.355,37.258V32.742a1.129,1.129,0,0,0-1.129-1.129H41.774a1.129,1.129,0,0,0-1.129,1.129v4.516a1.129,1.129,0,0,0,1.129,1.129H63.226a1.129,1.129,0,0,0,1.129-1.129M62.1,36.129H42.9V33.871H62.1Z"/>
          </g>
        </g>
      </g>
    </g>
  </g>
</svg>
