<svg xmlns="http://www.w3.org/2000/svg" xmlns:xlink="http://www.w3.org/1999/xlink" width="115" height="115.056" viewBox="0 0 115 115.056">
  <defs>
    <clipPath id="clip-path">
      <circle id="Elipse_6343" data-name="Elipse 6343" cx="55" cy="55" r="55" transform="translate(252.679 2558)" fill="#fece10" stroke="#fece10" stroke-width="13"/>
    </clipPath>
    <clipPath id="clip-path-2">
      <rect id="Rect치ngulo_40363" data-name="Rect치ngulo 40363" width="63.149" height="70" fill="none"/>
    </clipPath>
  </defs>
  <g id="Grupo_130113" data-name="Grupo 130113" transform="translate(-1215 -1633)">
    <g id="Grupo_130104" data-name="Grupo 130104" transform="translate(0 -0.056)">
      <circle id="Elipse_6339" data-name="Elipse 6339" cx="57.5" cy="57.5" r="57.5" transform="translate(1215 1633.056)" fill="#fff"/>
      <g id="Grupo_129981" data-name="Grupo 129981" transform="translate(1240.925 1655.556)">
        <g id="Grupo_129980" data-name="Grupo 129980" clip-path="url(#clip-path-2)">
          <path id="Trazado_195392" data-name="Trazado 195392" d="M35.021,18.646a1.013,1.013,0,0,0,.76-.343l2.361-2.673a.74.74,0,0,1,.555-.25H62.123V6.534a2.05,2.05,0,0,0-2.05-2.05H27.687a.875.875,0,0,1-.673-.316L24.656,1.341a.879.879,0,0,0-.674-.316H1.9a.878.878,0,0,0-.878.878V18.646Z" fill="#ffe177"/>
          <path id="Trazado_195393" data-name="Trazado 195393" d="M11,1.025H1.9a.877.877,0,0,0-.877.877V18.646h9.1V1.9A.878.878,0,0,1,11,1.025" fill="#ffd15b"/>
          <path id="Trazado_195394" data-name="Trazado 195394" d="M35.021,18.646a1.013,1.013,0,0,0,.76-.343l2.361-2.673a.74.74,0,0,1,.555-.25H57.7V10.357a.878.878,0,0,0-.877-.878H6.322a.878.878,0,0,0-.878.878v8.289Z" fill="#eaf9fa"/>
          <path id="Trazado_195395" data-name="Trazado 195395" d="M6.322,9.479a.878.878,0,0,0-.878.878v8.289h4.681V9.479Z" fill="#d4f2f6"/>
          <path id="Trazado_195396" data-name="Trazado 195396" d="M24.437,29.724a.74.74,0,0,1,.569.266l2.358,2.828a1.013,1.013,0,0,0,.779.364h33.98V15.243H38.7a.88.88,0,0,0-.658.3l-2.36,2.673a.876.876,0,0,1-.658.3H1.026V29.724Z" fill="#fff0ad"/>
          <rect id="Rect치ngulo_40362" data-name="Rect치ngulo 40362" width="9.1" height="11.215" transform="translate(1.025 18.509)" fill="#ffe177"/>
          <path id="Trazado_195397" data-name="Trazado 195397" d="M24.437,29.724a.74.74,0,0,1,.569.266l2.358,2.828a1.013,1.013,0,0,0,.779.364H57.7V24.958a.877.877,0,0,0-.877-.877H6.322a.877.877,0,0,0-.877.877v4.766Z" fill="#eaf9fa"/>
          <path id="Trazado_195398" data-name="Trazado 195398" d="M6.322,24.081a.878.878,0,0,0-.878.878v4.765h4.681V24.081Z" fill="#d4f2f6"/>
          <path id="Trazado_195399" data-name="Trazado 195399" d="M27.468,32.73,25.11,29.9a.88.88,0,0,0-.674-.315H1.025V66.924a2.05,2.05,0,0,0,2.051,2.05h57a2.051,2.051,0,0,0,2.051-2.05V33.047H28.142a.877.877,0,0,1-.674-.317" fill="#ffe177"/>
          <path id="Trazado_195400" data-name="Trazado 195400" d="M10.125,66.924V29.588h-9.1V66.924a2.05,2.05,0,0,0,2.05,2.051h9.1a2.051,2.051,0,0,1-2.051-2.051" fill="#ffd15b"/>
          <path id="Trazado_195401" data-name="Trazado 195401" d="M53.56,60.329H41.1a.878.878,0,0,1-.877-.878V41.993a.877.877,0,0,1,.877-.877H53.56a.878.878,0,0,1,.878.877V59.451a.879.879,0,0,1-.878.878" fill="#fff"/>
          <path id="Trazado_195402" data-name="Trazado 195402" d="M44.837,59.451V41.993a.878.878,0,0,1,.878-.878H41.1a.878.878,0,0,0-.878.878V59.451a.877.877,0,0,0,.878.877h4.617a.877.877,0,0,1-.878-.877" fill="#eaf9fa"/>
          <path id="Trazado_195403" data-name="Trazado 195403" d="M40.22,59.451a.878.878,0,0,0,.878.878H53.56a.878.878,0,0,0,.878-.878V52.71H40.22Z" fill="#c3e1ac"/>
          <path id="Trazado_195404" data-name="Trazado 195404" d="M40.22,52.71v6.741a.878.878,0,0,0,.877.878h4.617a.878.878,0,0,1-.877-.878V52.71Z" fill="#54aa13"/>
          <path id="Trazado_195405" data-name="Trazado 195405" d="M1.025,56.268V66.924a2.051,2.051,0,0,0,2.051,2.051H13.732Z" fill="#c3e1ac"/>
          <path id="Trazado_195406" data-name="Trazado 195406" d="M41.1,40.09a1.9,1.9,0,0,0-1.9,1.9V59.451a1.9,1.9,0,0,0,1.9,1.9H53.56a1.9,1.9,0,0,0,1.9-1.9V41.993a1.9,1.9,0,0,0-1.9-1.9ZM53.412,59.3H41.245V53.735H53.412Zm0-7.619H41.245V42.141H53.412Z"/>
          <path id="Trazado_195407" data-name="Trazado 195407" d="M52.834,29.463a1.025,1.025,0,0,0,0-2.051h-15.8a1.025,1.025,0,0,0,0,2.051Z"/>
          <path id="Trazado_195408" data-name="Trazado 195408" d="M26.111,13.057h-15.8a1.025,1.025,0,0,0,0,2.051h15.8a1.026,1.026,0,0,0,0-2.051"/>
          <path id="Trazado_195409" data-name="Trazado 195409" d="M62.123,52.842a1.025,1.025,0,0,0,1.025-1.025V6.535a3.08,3.08,0,0,0-3.076-3.076H27.756L25.444.685A1.9,1.9,0,0,0,23.981,0H1.9A1.906,1.906,0,0,0,0,1.9V66.924A3.08,3.08,0,0,0,3.076,70h57a3.08,3.08,0,0,0,3.076-3.076V56.6a1.025,1.025,0,0,0-2.051,0V66.924a1.027,1.027,0,0,1-1.025,1.026H14.157L2.05,55.843V30.613h11.2a1.025,1.025,0,1,0,0-2.05H6.18V25.284H56.388v6.737H28.211L25.9,29.247a1.9,1.9,0,0,0-1.461-.684h-6.4a1.025,1.025,0,0,0,0,2.05h6.329l2.312,2.775a1.9,1.9,0,0,0,1.462.684H61.1V51.817a1.025,1.025,0,0,0,1.026,1.025M11.257,67.95H3.076A1.027,1.027,0,0,1,2.05,66.924V58.743ZM2.05,2.051H23.912l2.314,2.774a1.9,1.9,0,0,0,1.461.685H60.072A1.026,1.026,0,0,1,61.1,6.535v7.683H58.729V10.357a1.906,1.906,0,0,0-1.9-1.9H49.621a1.025,1.025,0,1,0,0,2.051h7.057v3.713H38.7a1.9,1.9,0,0,0-1.426.644l-2.316,2.623H6.469v-6.98H44.835a1.025,1.025,0,1,0,0-2.051H6.321a1.9,1.9,0,0,0-1.9,1.9v7.127H2.05Zm56.389,29.97V25.136a1.9,1.9,0,0,0-1.9-1.9H6.031a1.9,1.9,0,0,0-1.9,1.9v3.427H2.05V19.535H35.021a1.9,1.9,0,0,0,1.426-.643l2.316-2.623H61.1V32.021Z"/>
        </g>
      </g>
    </g>
    <g id="Elipse_6344" data-name="Elipse 6344" transform="translate(1215 1633.056)" fill="none" stroke="#fece10" stroke-width="4">
      <circle cx="57.5" cy="57.5" r="57.5" stroke="none"/>
      <circle cx="57.5" cy="57.5" r="55.5" fill="none"/>
    </g>
  </g>
</svg>
