<svg xmlns="http://www.w3.org/2000/svg" xmlns:xlink="http://www.w3.org/1999/xlink" width="175.771" height="192.98" viewBox="0 0 175.771 192.98">
  <defs>
    <linearGradient id="linear-gradient" x1="0.5" y1="1.147" x2="0.5" y2="0.24" gradientUnits="objectBoundingBox">
      <stop offset="0" stop-color="#e5f2db"/>
      <stop offset="1" stop-color="#e5f2db"/>
    </linearGradient>
  </defs>
  <g id="Grupo_128239" data-name="Grupo 128239" transform="translate(-713 -1909)">
    <g id="Grupo_128216" data-name="Grupo 128216" transform="translate(-386.85 1675.296)">
      <rect id="Rectángulo_36779" data-name="Rectángulo 36779" width="61.963" height="61.963" rx="9" transform="translate(1118.661 264.572)" fill="#e5f2db" opacity="0.95"/>
      <rect id="Rectángulo_36780" data-name="Rectángulo 36780" width="28.688" height="1.417" transform="translate(1135.298 312.428)" fill="#30610c"/>
      <rect id="Rectángulo_36781" data-name="Rectángulo 36781" width="20.561" height="1.417" transform="translate(1139.362 316.894)" fill="#30610c"/>
      <rect id="Rectángulo_36788" data-name="Rectángulo 36788" width="45.524" height="41" rx="9" transform="translate(1186.71 241.626)" opacity="0.95" fill="url(#linear-gradient)"/>
      <g id="Grupo_111295" data-name="Grupo 111295" transform="translate(1207.494 274.872)">
        <rect id="Rectángulo_36789" data-name="Rectángulo 36789" width="3.61" height="0.669" transform="translate(0)" fill="#30610c"/>
      </g>
      <g id="Grupo_111296" data-name="Grupo 111296" transform="translate(1194.148 249.046)">
        <path id="Trazado_170311" data-name="Trazado 170311" d="M1928.712,364.3v.654h3.85v3.613h.654V364.3Zm-26.145,4.267h.654v-3.613h3.85V364.3h-4.5Zm30,18.645v3.615h-3.85v.654h4.5v-4.269Zm-29.341,0h-.654v4.269h4.5v-.654h-3.85Z" transform="translate(-1902.567 -364.297)" fill="#30610c"/>
      </g>
      <g id="Grupo_111297" data-name="Grupo 111297" transform="translate(1147.231 305.505)">
        <rect id="Rectángulo_36790" data-name="Rectángulo 36790" width="4.823" height="0.893" transform="translate(0 0)" fill="#30610c"/>
      </g>
      <g id="Grupo_111298" data-name="Grupo 111298" transform="translate(1129.173 271.009)">
        <path id="Trazado_170312" data-name="Trazado 170312" d="M1384.388,551.257v.873h5.142v4.826h.873v-5.7Zm-34.922,5.7h.873V552.13h5.143v-.873h-6.016Zm40.064,24.9v4.828h-5.142v.873h6.016v-5.7Zm-39.191,0h-.873v5.7h6.016v-.873h-5.143Z" transform="translate(-1349.467 -551.257)" fill="#30610c"/>
      </g>
      <g id="Grupo_111328" data-name="Grupo 111328" transform="translate(1130.361 258.613)">
        <g id="Grupo_111311" data-name="Grupo 111311" transform="translate(12.411 8.409)">
          <g id="Grupo_111310" data-name="Grupo 111310">
            <path id="Trazado_170324" data-name="Trazado 170324" d="M1466.359,521.641l-.016,0c-.169-.041-.436-.85-.488-1.011-.012-.044-.039-.126-.075-.238a6.86,6.86,0,0,1-.509-2.744c.06-.183.154-.289.28-.315.268-.055.575.285.588.3l.007.007v.01a28.637,28.637,0,0,1,.263,3.973A.071.071,0,0,1,1466.359,521.641Zm-.747-4.256a.249.249,0,0,0-.049,0c-.1.021-.181.113-.233.274a7.013,7.013,0,0,0,.508,2.706c.037.113.063.2.076.24a2.8,2.8,0,0,0,.443.969s0,0,.009,0a30.572,30.572,0,0,0-.28-3.912A.837.837,0,0,0,1465.612,517.386Z" transform="translate(-1465.228 -517.324)" fill="#eea886"/>
          </g>
        </g>
        <g id="Grupo_111313" data-name="Grupo 111313" transform="translate(10.438 0)">
          <g id="Grupo_111312" data-name="Grupo 111312">
            <path id="Trazado_170325" data-name="Trazado 170325" d="M1457.1,445.755a5.5,5.5,0,0,1,5.6,3.543c1.483,3.974,2.879,5.275,3.054,7.363.707,8.445,4.65,6.535,3.541,11.4s-1.877,5.6-1.877,5.6l-9.428-1.849-9.551.031s3.737-1.866,2.9-5.84-2.9-10.488-1.734-14.925S1454.636,446.094,1457.1,445.755Z" transform="translate(-1448.433 -445.741)" fill="#16202e"/>
          </g>
        </g>
        <g id="Grupo_111315" data-name="Grupo 111315" transform="translate(24.041 8.409)">
          <g id="Grupo_111314" data-name="Grupo 111314">
            <path id="Trazado_170326" data-name="Trazado 170326" d="M1564.31,521.64a.07.07,0,0,1-.05-.022,28.592,28.592,0,0,1,.263-3.973v-.01l.006-.007c.013-.014.32-.356.588-.3.125.026.219.132.279.315a6.858,6.858,0,0,1-.509,2.744c-.036.112-.062.194-.074.237-.052.163-.319.971-.488,1.013Zm.273-3.978a30.52,30.52,0,0,0-.279,3.913.007.007,0,0,0,.008,0,2.814,2.814,0,0,0,.444-.97c.012-.043.038-.125.075-.239a7.019,7.019,0,0,0,.509-2.706c-.053-.161-.131-.253-.233-.274C1564.892,517.345,1564.628,517.615,1564.583,517.663Z" transform="translate(-1564.223 -517.323)" fill="#eea886"/>
          </g>
        </g>
        <g id="Grupo_111317" data-name="Grupo 111317" transform="translate(0 21.33)">
          <g id="Grupo_111316" data-name="Grupo 111316">
            <path id="Trazado_170327" data-name="Trazado 170327" d="M1398.027,643.966h-5.875c-1.218-2.22-2.208-3.957-2.208-3.957a17.733,17.733,0,0,0-1.406,3.957h-19.777a17.078,17.078,0,0,1-.257-4.138s-1.057,1.91-2.283,4.138h-6.644c1.763-3.3,5.067-9.314,5.818-10.1a36.347,36.347,0,0,1,10.309-6c3.9-1.233,6.122-.043,6.122-.043a46.237,46.237,0,0,1,7.714,2.191C1391,630.6,1395.019,638.03,1398.027,643.966Z" transform="translate(-1359.576 -627.313)" fill="#faa146"/>
          </g>
        </g>
        <g id="Grupo_111319" data-name="Grupo 111319" transform="translate(13.15 2.294)">
          <g id="Grupo_111318" data-name="Grupo 111318">
            <path id="Trazado_170328" data-name="Trazado 170328" d="M1478.013,465.31s5.451.786,4.653,8.833-5.608,7.407-5.93,7.4-4.826.167-5.216-9.651C1471.52,471.893,1471.339,464.632,1478.013,465.31Z" transform="translate(-1471.52 -465.266)" fill="#8e4f3a"/>
          </g>
        </g>
        <g id="Grupo_111321" data-name="Grupo 111321" transform="translate(15.859 16.779)">
          <g id="Grupo_111320" data-name="Grupo 111320">
            <path id="Trazado_170329" data-name="Trazado 170329" d="M1500.784,588.939s-.337,4.185.469,5.439-.689,2.956-3.771,2.374-2.9-2.329-2.9-2.329a12.769,12.769,0,0,0,.61-4.65C1494.938,587.705,1500.784,588.939,1500.784,588.939Z" transform="translate(-1494.578 -588.574)" fill="#8e4f3a"/>
          </g>
        </g>
        <g id="Grupo_111323" data-name="Grupo 111323" transform="translate(12.609 1.021)">
          <g id="Grupo_111322" data-name="Grupo 111322">
            <path id="Trazado_170330" data-name="Trazado 170330" d="M1473.32,458.669s2.547,2.677,3.73,4.033a7.813,7.813,0,0,1,1.319,3.974,6.276,6.276,0,0,0,1.159-5.268c-.833-2.834-2.8-8.349-7.8-6.655s-5.176,9.15-4.591,12.847C1467.141,467.6,1469.382,459.439,1473.32,458.669Z" transform="translate(-1466.908 -454.436)" fill="#16202e"/>
          </g>
        </g>
        <g id="Grupo_111325" data-name="Grupo 111325" transform="translate(15.084 21.452)">
          <g id="Grupo_111324" data-name="Grupo 111324">
            <path id="Trazado_170331" data-name="Trazado 170331" d="M1496.875,629.112s-3.78,9.574-6.078,11.237c0,0-3.018-9.764-2.807-11.194A13.377,13.377,0,0,1,1496.875,629.112Z" transform="translate(-1487.98 -628.35)" fill="#8e4f3a"/>
          </g>
        </g>
        <g id="Grupo_111326" data-name="Grupo 111326" transform="translate(10.712 19.899)">
          <path id="Trazado_170332" data-name="Trazado 170332" d="M1456.04,615.131s-6.739,6-4.99,9.736c1.492,3.192,6.784,1.235,5.912-2.11A37.646,37.646,0,0,1,1456.04,615.131Z" transform="translate(-1450.76 -615.131)" fill="#16202e"/>
        </g>
        <g id="Grupo_111327" data-name="Grupo 111327" transform="translate(16.872 17.683)">
          <path id="Trazado_170333" data-name="Trazado 170333" d="M1503.2,596.794a4.761,4.761,0,0,0,4.582-.524,2.948,2.948,0,0,1-2.291,1.481A2.258,2.258,0,0,1,1503.2,596.794Z" transform="translate(-1503.202 -596.27)" fill="#633029"/>
        </g>
      </g>
      <g id="Grupo_111337" data-name="Grupo 111337" transform="translate(1198.165 233.704)">
        <g id="Grupo_111329" data-name="Grupo 111329" transform="translate(0 20.969)">
          <path id="Trazado_170334" data-name="Trazado 170334" d="M1945.636,412.207s-2.235,8.41-2.7,10.305a15.767,15.767,0,0,1-1.156,2.683.2.2,0,0,1-.014.026,2.152,2.152,0,0,0-.209.683c-.09.7.179,1.254-.287,2.086l-.084.35h-4.423c.517-1.533,1.172-3.485,1.7-5.056.44-1.326.788-2.382.88-2.687.273-.912,1.276-3.866,2.128-5.828a5.415,5.415,0,0,1,2.458-1.847C1944.833,412.49,1945.636,412.207,1945.636,412.207Z" transform="translate(-1936.762 -412.207)" fill="#323657"/>
        </g>
        <g id="Grupo_111330" data-name="Grupo 111330" transform="translate(5.811 0)">
          <path id="Trazado_170335" data-name="Trazado 170335" d="M1986.334,242.66s-1.411-9.122,6.145-8.953,7.454,4.679,7.319,9.155-3.03,4.14.236,10.367-2.827,6.227-2.827,6.227l-4.728-6.5Z" transform="translate(-1986.23 -233.704)" fill="#fccca2"/>
        </g>
        <g id="Grupo_111331" data-name="Grupo 111331" transform="translate(5.898 0.771)">
          <path id="Trazado_170336" data-name="Trazado 170336" d="M1992.307,240.375s-5.116.808-5.318,8.078,1.38,8.819,5.856,7.3,5.89-9.122,5.991-10.3S1999.208,239.5,1992.307,240.375Z" transform="translate(-1986.973 -240.269)" fill="#eea886"/>
        </g>
        <g id="Grupo_111332" data-name="Grupo 111332" transform="translate(1.164 18.54)">
          <path id="Trazado_170337" data-name="Trazado 170337" d="M1965.729,399.15c.018,2.5-2.858,8.487-3.3,10.336-.052.215-.108.414-.165.6H1948.3c-.073-.862-.141-1.6-.175-2.016-.11-1.367-1.5-4.311-1.449-5.681a8.229,8.229,0,0,1,1.692-4.094c.3-.462.611-.933.922-1.391a26.5,26.5,0,0,1,2.53-3.312,8.154,8.154,0,0,1,1.019-.812l0,0a4.7,4.7,0,0,1,1.049-.553l4.4-.7s2.741.993,4.319,1.36C1962.605,392.884,1965.682,393.335,1965.729,399.15Z" transform="translate(-1946.674 -391.524)" fill="#e55353"/>
        </g>
        <g id="Grupo_111333" data-name="Grupo 111333" transform="translate(2.431 19.796)">
          <path id="Trazado_170338" data-name="Trazado 170338" d="M1962.353,402.216l-2.548,4.017-2.353,3.707c.006-.02.162-.581.428-2.207.051-.309.1-.656.163-1.044a2.68,2.68,0,0,1,.074-.342h0c1.007-2.321,4.12-4.071,4.233-4.13Z" transform="translate(-1957.452 -402.216)" fill="#e55353"/>
        </g>
        <g id="Grupo_111334" data-name="Grupo 111334" transform="translate(8.075 12.878)">
          <path id="Trazado_170339" data-name="Trazado 170339" d="M2012.077,343.435c-.443.837-.912,6.036-.912,6.036s-6.257,2.365-5.617,1.027a5.115,5.115,0,0,0,.382-2.074,10.061,10.061,0,0,0-.069-1.263c-.016-.137-.029-.215-.029-.215S2012.521,342.6,2012.077,343.435Z" transform="translate(-2005.502 -343.327)" fill="#eea886"/>
        </g>
        <g id="Grupo_111335" data-name="Grupo 111335" transform="translate(5.915 0.649)">
          <path id="Trazado_170340" data-name="Trazado 170340" d="M1990.348,244.671s2.626,4.275,5.015,5.958,1.178,3.029,1.178,3.029,6.236-13.127.307-14.036-9.563-.976-9.732,7.91C1987.117,247.532,1989.81,244.6,1990.348,244.671Z" transform="translate(-1987.117 -239.225)" fill="#fccca2"/>
        </g>
        <g id="Grupo_111336" data-name="Grupo 111336" transform="translate(8.434 16.176)">
          <path id="Trazado_170341" data-name="Trazado 170341" d="M2012.122,371.4c-.961,1.417-3.5,1.8-3.5,1.8h0a10.061,10.061,0,0,0-.069-1.263A7.149,7.149,0,0,0,2012.122,371.4Z" transform="translate(-2008.554 -371.402)" fill="#a77860"/>
        </g>
        <path id="Trazado_170342" data-name="Trazado 170342" d="M1961.342,406.329h0a5.27,5.27,0,0,0-.247,1.414l.922-1.391s1.646-2.36,2.21-2.974a9.362,9.362,0,0,1,1.339-1.151S1962.326,403.783,1961.342,406.329Z" transform="translate(-1958.236 -382.43)" fill="#ebeeff"/>
        <path id="Trazado_170343" data-name="Trazado 170343" d="M2058.483,410.886a35.323,35.323,0,0,1,5.2-1.667s-.808-6.45-4.753-5.766S2058.483,410.886,2058.483,410.886Z" transform="translate(-2042.924 -383.467)" fill="#e55353"/>
        <path id="Trazado_170344" data-name="Trazado 170344" d="M1991.894,392.124s-2.949,4.534-1.951,4.93,6.4-.529,8.7-4.835A8.094,8.094,0,0,0,1991.894,392.124Z" transform="translate(-1983.514 -372.882)" fill="#eea886"/>
        <path id="Trazado_170345" data-name="Trazado 170345" d="M2034.025,400.972a49.478,49.478,0,0,1-2.046,10.022c-.121.448-.237.892-.346,1.329h-8.177c-.02-1.226-.016-2.307.023-3.209.411-9.867,3.539-15.056,3.539-15.056s1,.335,3.873,1.149c1.969.557,2.713,3.063,2.984,4.582a.111.111,0,0,1,0,.018A10.857,10.857,0,0,1,2034.025,400.972Z" transform="translate(-2013.262 -375.22)" fill="#323657"/>
        <path id="Trazado_170346" data-name="Trazado 170346" d="M1953.088,397.529a23.645,23.645,0,0,0-1.216,2.44,26.5,26.5,0,0,0-2.281,9.612,56.588,56.588,0,0,1-.655,5.806H1947.3a25.912,25.912,0,0,0-.9-5.056c-.223-.794-.428-1.387-.539-1.762-.52-1.771,1.144-4.128,1.7-4.972S1949.461,398.879,1953.088,397.529Z" transform="translate(-1944.71 -378.284)" fill="#323657"/>
        <path id="Trazado_170347" data-name="Trazado 170347" d="M2064.8,420.018H2060.4a5.838,5.838,0,0,0-.259-1.328c-.8-2.836-3.16-8.356-3.16-8.356s-3.532-5.774-.184-7.245,4.789,2.641,5.239,4.4c0,0,0,.006,0,.018C2062.155,407.922,2064.148,415.522,2064.8,420.018Z" transform="translate(-2041.428 -382.915)" fill="#323657"/>
      </g>
      <g id="Grupo_111369" data-name="Grupo 111369" transform="translate(1099.85 307.586)">
        <g id="Grupo_111338" data-name="Grupo 111338" transform="translate(49.66 42.738)">
          <path id="Trazado_170348" data-name="Trazado 170348" d="M1522.993,1229.241s1.535-.022,2.081-.613a7.16,7.16,0,0,1,1.821-1.272c.414-.2,1.559-1.315,1.7-.771s-1.823,1.922-2.2,2.295,1.634.535,1.928.9-.73,4.161-2.068,3.867-2.434-1.644-2.687-1.641a7.129,7.129,0,0,1-.988-.169Z" transform="translate(-1522.585 -1226.438)" fill="#eea886"/>
        </g>
        <g id="Grupo_111339" data-name="Grupo 111339" transform="translate(53.4 45.922)">
          <path id="Trazado_170349" data-name="Trazado 170349" d="M1556.139,1253.535s3.994,1.22,4.159,1.566.053.6-.327.5-3.91-1.046-3.91-1.046,4.365,2.386,4.562,2.625c.115.14-.077.639-.288.61s-4.7-2.09-4.7-2.09a44.834,44.834,0,0,1,4.172,2.5c.089.233-.184.661-.5.521s-4.239-1.954-4.239-1.954,2.836,1.858,2.793,2.164c-.027.187-.176.623-.89.115s-2.545-1.483-2.545-1.483Z" transform="translate(-1554.42 -1253.535)" fill="#eea886"/>
        </g>
        <g id="Grupo_111340" data-name="Grupo 111340" transform="translate(37.262 112.574)">
          <path id="Trazado_170350" data-name="Trazado 170350" d="M1421.45,1821.269a6.057,6.057,0,0,0,3.079,2.331c1.8.415,3.568,1.073,3.581,2.207s-5.2,1.811-7.253.667c-3.07-1.707-3.382-1.192-3.723-2.045s.409-3.134.387-3.406C1417.494,1820.688,1421.45,1821.269,1421.45,1821.269Z" transform="translate(-1417.046 -1820.919)" fill="#353a3d"/>
        </g>
        <g id="Grupo_111341" data-name="Grupo 111341" transform="translate(37.735 111.421)">
          <path id="Trazado_170351" data-name="Trazado 170351" d="M1424.8,1811.659a8.185,8.185,0,0,1,.2.946c-.035.019-4.05.5-3.929-.245.1-.6.239-1.257.239-1.257Z" transform="translate(-1421.071 -1811.102)" fill="#81807e"/>
        </g>
        <g id="Grupo_111342" data-name="Grupo 111342" transform="translate(12.06 112.321)">
          <path id="Trazado_170352" data-name="Trazado 170352" d="M1206.905,1819.239a5.643,5.643,0,0,0,2.476,2.458c1.669.668,3.008,1.435,2.977,2.54s-4.081,2.225-7.027.1c-1.862-1.34-2.452-1.347-2.75-2.191s.518-3.037.507-3.3C1203.074,1818.522,1206.905,1819.239,1206.905,1819.239Z" transform="translate(-1202.515 -1818.764)" fill="#353a3d"/>
        </g>
        <g id="Grupo_111343" data-name="Grupo 111343" transform="translate(12.632 111.131)">
          <path id="Trazado_170353" data-name="Trazado 170353" d="M1211.243,1809.349a8.935,8.935,0,0,1-.046.952c-.035.018-3.916.338-3.817-.39a5.987,5.987,0,0,1,.377-1.275Z" transform="translate(-1207.378 -1808.636)" fill="#81807e"/>
        </g>
        <g id="Grupo_111344" data-name="Grupo 111344" transform="translate(11.127 51.564)">
          <path id="Trazado_170354" data-name="Trazado 170354" d="M1214.17,1305.825s5.1,19.529,7.039,24.044c1.8,4.183,2.392,10.032,2.639,12.97.311,3.7,2.165,18.087,2.383,19.167s-6,.6-6,.6-4.285-24.883-6.064-28.514c-1.187-2.423-8.076-19.8-8.863-18.8s-1.766,18.412-2.35,21.3-2.376,25.728-2.376,25.728-4.007.591-5.077-.315c0,0-.487-19.5-.115-24.919.141-2.065-2.42-24.761.865-33.9C1197.99,1298.362,1214.17,1305.825,1214.17,1305.825Z" transform="translate(-1194.571 -1301.564)" fill="#2d3133"/>
        </g>
        <g id="Grupo_111345" data-name="Grupo 111345" transform="translate(2.333 18.862)">
          <path id="Trazado_170355" data-name="Trazado 170355" d="M1119.714,1046.15a11.835,11.835,0,0,0,1.095,2.4c.984-1.969,1.758-3.586,2.01-4.181.83-1.959,5.1-6.451,5.1-6.451a.032.032,0,0,0,0,.009.017.017,0,0,0,0,.006.01.01,0,0,1,0,.005.185.185,0,0,1,0,.018l.011.038c0,.007,0,.016.006.024a.14.14,0,0,1,0,.018c.233.867,1.662,6.288,1.715,8.957.058,2.907.816,8.284.816,8.284h0l.893.125,1.975.278.237.033.575.081,5.238.737,1.858.261.251.036,1.062.149,2.932.412.748.1h.007l.56.079.775.109h0a5.244,5.244,0,0,0,.64-3.256c-.072-1.437-.245-4.136-.173-6.641,0-.013,0-.026,0-.039,0-.032,0-.063,0-.095,0-.011,0-.021,0-.032v-.006a17.876,17.876,0,0,1,.424-3.671,15.211,15.211,0,0,0,.364-1.957c0-.031.008-.061.011-.09.013-.116.026-.23.036-.342a17.3,17.3,0,0,0,.028-3.137l0,.006c.053.115.436,1.517.936,3.246.847,2.924,2.033,6.787,2.538,6.973.735.271,12.635,3.795,15.2,4.156.3.042.47.041.486-.011.012-.037.024-.076.036-.116.312-1.03.741-2.779.81-3.062.007-.025.01-.039.01-.039l-.461-.138-12.948-3.88-5.919-17.069c-.124-.1-1.577-.8-2.639-1.308-1.083-.515-2.388-1.272-3.57-1.92-.6-.33-1.173-.631-1.666-.857l-.076-.034h0l-1.357-.619h0l-.354-.034c-1.137-.108-4.67-.439-5.854-.508-.1-.006-.18-.01-.243-.011s-.094,0-.119,0a14.788,14.788,0,0,0-1.835.627h0l-.109.042-.136.051-.253.1-.526.206-.186.074a37.682,37.682,0,0,0-4.632,2.074,28.456,28.456,0,0,0-2.662,4.771c-1.6,5.133-3.633,12.989-3.7,14.927C1119.715,1046.093,1119.714,1046.122,1119.714,1046.15Z" transform="translate(-1119.714 -1023.191)" fill="#decbc4"/>
        </g>
        <g id="Grupo_111346" data-name="Grupo 111346" transform="translate(12.805 50.951)">
          <path id="Trazado_170356" data-name="Trazado 170356" d="M1226.267,1298.754a4.865,4.865,0,0,1,.508,2.468s-16.2-1.891-17.917-2.635c0,0-.067-2.2.3-2.238C1209.554,1296.307,1226.267,1298.754,1226.267,1298.754Z" transform="translate(-1208.853 -1296.348)" fill="#495055"/>
        </g>
        <g id="Grupo_111347" data-name="Grupo 111347" transform="translate(16.4 12.51)">
          <path id="Trazado_170357" data-name="Trazado 170357" d="M1239.459,974.922c.05,2.543,4.974,3.934,4.974,3.934s2.06-2.582,1.568-2.829c-.193-.1-.271-.483-.3-.914a8.945,8.945,0,0,1,.028-1.154c.015-.18.028-.3.028-.3s-.7-.742-1.6-1.627c-1.564-1.546-3.714-3.527-3.718-2.739a.691.691,0,0,0,.018.149C1240.841,971.22,1239.459,974.922,1239.459,974.922Z" transform="translate(-1239.459 -969.119)" fill="#eea886"/>
        </g>
        <g id="Grupo_111348" data-name="Grupo 111348" transform="translate(15.675 51.249)">
          <path id="Trazado_170358" data-name="Trazado 170358" d="M1234.417,1298.974s-.354,2.23-.384,2.812l-.75-.15s.206-2.36.328-2.755Z" transform="translate(-1233.283 -1298.881)" fill="#353a3d"/>
        </g>
        <g id="Grupo_111349" data-name="Grupo 111349" transform="translate(28.111 52.991)">
          <path id="Trazado_170359" data-name="Trazado 170359" d="M1339.9,1313.82s.284,2.027.291,2.793l-.793-.1s-.162-2.532-.253-2.8Z" transform="translate(-1339.149 -1313.714)" fill="#353a3d"/>
        </g>
        <g id="Grupo_111350" data-name="Grupo 111350" transform="translate(18.297 14.588)">
          <path id="Trazado_170360" data-name="Trazado 170360" d="M1255.6,986.8h0c.01.015.219.327.575.776a10.312,10.312,0,0,0,3.774,3.14,8.941,8.941,0,0,1,.028-1.153,2.565,2.565,0,0,0,.489-.059,15.137,15.137,0,0,0-1.07-1.568l-.988-.3Z" transform="translate(-1255.602 -986.803)" fill="#a77860"/>
        </g>
        <g id="Grupo_111351" data-name="Grupo 111351" transform="translate(15.675 4.177)">
          <path id="Trazado_170361" data-name="Trazado 170361" d="M1234.959,906.729c.426.926.831,1.6.945,1.864h0a3.282,3.282,0,0,0,.575.776,5.675,5.675,0,0,0,3.8,1.987,2.548,2.548,0,0,0,.489-.059,2.326,2.326,0,0,0,1.695-1.171,13.317,13.317,0,0,0,.848-10.932s-8.4-2.375-9.714.153C1232.679,901.121,1233.958,904.552,1234.959,906.729Z" transform="translate(-1233.283 -898.182)" fill="#eea886"/>
        </g>
        <g id="Grupo_111352" data-name="Grupo 111352" transform="translate(14.417)">
          <path id="Trazado_170362" data-name="Trazado 170362" d="M1233.861,867.814s.78-.043.973-1.522c.191-1.461-.195-1.866-.195-1.866a34.718,34.718,0,0,0-4.713-1.64c-1.245-.189-4.307-.37-5.025.451,0,0-1.743-.405-2.219,2.49-.754,4.592,2.568,9.052,2.568,9.052s-.028-3,.633-3.4,1.233.548,1.233.548l1.354.242s-2.056-4.439.41-4.6S1232.449,868.072,1233.861,867.814Z" transform="translate(-1222.572 -862.625)" fill="#252e3b"/>
        </g>
        <g id="Grupo_111353" data-name="Grupo 111353" transform="translate(16.558 6.84)">
          <path id="Trazado_170363" data-name="Trazado 170363" d="M1243.169,922.121c-.129-1.322-2.519-1.826-2.359-.441s1.337,2.716,1.881,2.67S1243.267,923.128,1243.169,922.121Z" transform="translate(-1240.802 -920.855)" fill="#eea886"/>
        </g>
        <g id="Grupo_111354" data-name="Grupo 111354" transform="translate(2.333 19.491)">
          <path id="Trazado_170364" data-name="Trazado 170364" d="M1120.809,1053.272c1.041,1.986,2.684,4.909,4.306,7.743-.214.4-.422.794-.622,1.185a23.752,23.752,0,0,0-1.228,2.74c-.37,1.036-.884,3.689.1,4.182l5.184,2.861s.036-.1.1-.289c.172-.465.544-1.461,1.059-2.751.017-.042.069-.165.146-.346.1-.243.251-.591.422-.987.076-.178.156-.365.239-.557l.288-.672c.141-.328.282-.655.412-.958.354-.823.63-1.464.63-1.464l.052-.114q.253-.547.518-1.1c.272-.566.553-1.128.839-1.678q.043-.084.087-.168l.154-.289.1-.176.021-.039.039-.069c1.5-2.733,3.187-5.019,3.725-8.371q.078-.485.148-.964c.078-.533.15-1.058.216-1.572.024-.195.049-.387.072-.579.27-2.236.431-4.229.561-5.617.406-4.324-2.243-9.006-4.276-11.9a32.038,32.038,0,0,0-2.174-2.778l-.011-.011-.109.042-.136.051-.253.1-.526.206-.186.074c-1.969.772-6.116,1.913-6.637,2.287-.3.216-.975,2.189-1.752,4.681a74.88,74.88,0,0,0-2.6,14.8c0,.031,0,.06,0,.088A11.829,11.829,0,0,0,1120.809,1053.272Zm7.876-.966a8.948,8.948,0,0,1-.8,3.246l-.037.089c-.332-.709-.645-1.388-.926-2.017a.007.007,0,0,1,0,0,16.21,16.21,0,0,1-1.331-3.606c-.19-3.424,2.331-7.365,2.331-7.365a.017.017,0,0,0,0,.006.01.01,0,0,1,0,.005.188.188,0,0,1,0,.019c0,.013.008.025.011.038s0,.015.006.024a.127.127,0,0,1,0,.018C1128.472,1044.794,1128.685,1052.306,1128.685,1052.306Z" transform="translate(-1119.714 -1028.54)" fill="#3c4145"/>
        </g>
        <path id="Trazado_170365" data-name="Trazado 170365" d="M1121,1248.577l-14.775,6.576a1.657,1.657,0,0,1-2.187-.84l-4.045-9.088a1.656,1.656,0,0,1,.84-2.187l14.775-6.576a1.657,1.657,0,0,1,2.187.839l4.045,9.088A1.657,1.657,0,0,1,1121,1248.577Z" transform="translate(-1099.85 -1192.42)" fill="#b3a5a0"/>
        <g id="Grupo_111355" data-name="Grupo 111355" transform="translate(24.336 20.072)">
          <path id="Trazado_170366" data-name="Trazado 170366" d="M1307.014,1033.521a69.239,69.239,0,0,1,1.589,8.065s0,0,0,0c.031.194.061.391.091.592,0,.023.007.047.011.07.02.133.041.268.061.4l.007.048c.014.092.028.184.041.278q.05.342.1.7c.4,2.8.961,7.573,1.5,12.388v0c.426,3.8,1.4,7.69,1.705,10.6,0,0,0,0,0,.005a20.033,20.033,0,0,0,.4,2.185c.022.1.045.2.068.294.868,3.668,2.554,8.861,2.554,8.861l.491-.453,1.454-1.342a1.178,1.178,0,0,0,.327-1.216c-.806-2.6-3.547-11.809-4.05-18.283a.018.018,0,0,1,0-.006c.247-2.275.876-5.327.782-5.766.006.016.012.031.018.047.288.8.608,1.675.93,2.525h0c.865,2.281,1.75,4.395,2.119,4.53.82.3,15.552,4.648,15.659,4.042.011-.061.023-.126.037-.195s.028-.139.044-.213c.182-.83.512-2.021.743-2.825l.094-.328c.1-.333.16-.544.16-.544l-12.458-4.089-6.286-16.438c-.124-.1-1.728-.961-2.79-1.467-1.106-.527-2.505-1.176-3.746-1.749-.593-.274-1.151-.531-1.623-.747Z" transform="translate(-1307.014 -1033.49)" fill="#3c4145"/>
        </g>
        <g id="Grupo_111356" data-name="Grupo 111356" transform="translate(13.51 19.49)">
          <path id="Trazado_170367" data-name="Trazado 170367" d="M1217.247,1034.848l2.4,1.351-1.023,1.044,2.725,14.713c.556-3.449.809-6.724,1-8.732.627-6.685-6.045-14.225-6.461-14.687-.32.122-.666.256-1.024.4Z" transform="translate(-1214.856 -1028.537)" fill="#51565c"/>
        </g>
        <g id="Grupo_111357" data-name="Grupo 111357" transform="translate(24.299 20.038)">
          <path id="Trazado_170368" data-name="Trazado 170368" d="M1306.7,1033.2a77.485,77.485,0,0,1,1.938,10.219c.4,2.8.961,7.573,1.5,12.388l.557-13.779-1.141-1.237,1.014-1.267-2.171-5.543c-.593-.274-1.151-.531-1.623-.747Z" transform="translate(-1306.698 -1033.199)" fill="#51565c"/>
        </g>
        <g id="Grupo_111358" data-name="Grupo 111358" transform="translate(14.401 18.314)">
          <path id="Trazado_170369" data-name="Trazado 170369" d="M1222.438,1019.748l2-1.228s.055,1.089,4.974,3.934l-1.4,3.934Z" transform="translate(-1222.438 -1018.521)" fill="#f5e2d9"/>
        </g>
        <g id="Grupo_111359" data-name="Grupo 111359" transform="translate(21.375 18.862)">
          <path id="Trazado_170370" data-name="Trazado 170370" d="M1283.11,1023.192a9.256,9.256,0,0,1-1.308,3.385l2.726,3.554.2-5.764Z" transform="translate(-1281.802 -1023.192)" fill="#f5e2d9"/>
        </g>
        <g id="Grupo_111360" data-name="Grupo 111360" transform="translate(20.988 22.248)">
          <path id="Trazado_170371" data-name="Trazado 170371" d="M1278.888,1052.011a9.274,9.274,0,0,0-.338,2.7,2.578,2.578,0,0,0,2-.106A9.284,9.284,0,0,0,1278.888,1052.011Z" transform="translate(-1278.509 -1052.011)" fill="#faa146"/>
        </g>
        <g id="Grupo_111362" data-name="Grupo 111362" transform="translate(23.847 46.577)">
          <g id="Grupo_111361" data-name="Grupo 111361">
            <path id="Trazado_170372" data-name="Trazado 170372" d="M1303.1,1265.263a40.084,40.084,0,0,0,0-6.148l-.253.016a40.894,40.894,0,0,1,0,6.083Z" transform="translate(-1302.852 -1259.115)" fill="#ad9f99"/>
          </g>
        </g>
        <g id="Grupo_111363" data-name="Grupo 111363" transform="translate(21.977 52.038)">
          <path id="Trazado_170373" data-name="Trazado 170373" d="M1286.982,1305.6s2.384.285,3.172.481l-.1,2.672-3.122-.333Z" transform="translate(-1286.929 -1305.601)" fill="#69737a"/>
        </g>
        <g id="Grupo_111364" data-name="Grupo 111364" transform="translate(21.227 24.361)">
          <path id="Trazado_170374" data-name="Trazado 170374" d="M1281.869,1070.3a37.518,37.518,0,0,1,2.226,14.231c-.45,7.793-1.187,10.619-1.187,10.619l-1.64,2.056-.723-2.527a62,62,0,0,0,.78-19.6c-.258-1.752-.64-5.072-.64-5.072Z" transform="translate(-1280.545 -1070)" fill="#faa146"/>
        </g>
        <g id="Grupo_111365" data-name="Grupo 111365" transform="translate(11.969 56.361)">
          <path id="Trazado_170375" data-name="Trazado 170375" d="M1204.328,1342.409s.571,1.141,1.141,1.332a4.942,4.942,0,0,1,1.4,1.117l-4.018,2.116a11,11,0,0,1-1.117-3.423C1201.689,1342.219,1204.328,1342.409,1204.328,1342.409Z" transform="translate(-1201.736 -1342.4)" fill="#eea886"/>
        </g>
        <g id="Grupo_111366" data-name="Grupo 111366" transform="translate(11.733 56.477)">
          <path id="Trazado_170376" data-name="Trazado 170376" d="M1202.937,1343.392l.266.535a18.417,18.417,0,0,1-3.239,1.985l-.236-.714Z" transform="translate(-1199.727 -1343.392)" fill="#decbc4"/>
        </g>
        <g id="Grupo_111367" data-name="Grupo 111367" transform="translate(4.466 43.634)">
          <path id="Trazado_170377" data-name="Trazado 170377" d="M1148.611,1246.928a19.587,19.587,0,0,1-3.524,2.31l-7.219-12.658,4.608-2.519S1148.484,1245.976,1148.611,1246.928Z" transform="translate(-1137.869 -1234.061)" fill="#3c4145"/>
        </g>
        <g id="Grupo_111368" data-name="Grupo 111368" transform="translate(30.774 29.636)">
          <path id="Trazado_170378" data-name="Trazado 170378" d="M1362.438,1119.38c.088,1.8.076,3.4.076,3.4h0c0,.009,0,.057.006.138,0-.031.007-.061.011-.091.289.8.608,1.675.931,2.525a27.071,27.071,0,0,0,.073-2.751,16.875,16.875,0,0,0-1.72-7.708A17.156,17.156,0,0,1,1362.438,1119.38Z" transform="translate(-1361.814 -1114.899)" fill="#2d3133"/>
        </g>
      </g>
      <rect id="Rectángulo_36791" data-name="Rectángulo 36791" width="85.151" height="67.366" rx="9" transform="translate(1190.47 286.063)" fill="#e5f2db" opacity="0.95"/>
      <g id="Grupo_111416" data-name="Grupo 111416" transform="translate(1229.268 344.785)">
        <rect id="Rectángulo_36783" data-name="Rectángulo 36783" width="6.726" height="1.246" transform="translate(0 0)" fill="#30610c"/>
      </g>
      <g id="Grupo_111417" data-name="Grupo 111417" transform="translate(1204.406 295.989)">
        <path id="Trazado_170308" data-name="Trazado 170308" d="M2038.595,763.9v1.218h7.172v6.731h1.218V763.9Zm-48.7,7.949h1.219V765.12h7.171V763.9h-8.39Zm55.875,34.732v6.734h-7.172v1.218h8.39v-7.951Zm-54.657,0h-1.219v7.951h8.39v-1.218h-7.171Z" transform="translate(-1989.892 -763.902)" fill="#30610c"/>
      </g>
      <g id="Grupo_111418" data-name="Grupo 111418" transform="translate(1204.914 274.215)">
        <g id="Grupo_111299" data-name="Grupo 111299" transform="translate(0 27.723)">
          <path id="Trazado_170313" data-name="Trazado 170313" d="M2048.128,846.274h-8.045c-.53-3.852-1.18-8.249-1.18-8.249s-.325,3.629-.721,8.249h-32.193a56.526,56.526,0,0,0-.775-7.328c-.185-.092-1.333,3.594-2.286,7.328h-8.715c2.242-9.655,6.422-25.146,8.839-26.074,3.441-1.323,17.471-5.647,17.471-5.647h8.007s14.228,4.059,15.552,8.473A156.324,156.324,0,0,1,2048.128,846.274Z" transform="translate(-1994.213 -814.553)" fill="#e65353"/>
        </g>
        <g id="Grupo_111300" data-name="Grupo 111300" transform="translate(21.735 1.678)">
          <path id="Trazado_170314" data-name="Trazado 170314" d="M2188.178,592.912s7.476,1.178,6.338,12.875-7.738,10.739-8.178,10.727-6.624.213-7.106-14.069C2179.232,602.446,2179.021,591.885,2188.178,592.912Z" transform="translate(-2179.231 -592.842)" fill="#eea987"/>
        </g>
        <g id="Grupo_111301" data-name="Grupo 111301" transform="translate(24.216 20.637)">
          <path id="Trazado_170315" data-name="Trazado 170315" d="M2210.3,755.5s-.205,4.811.26,5.853-6.169,4.387-10.216.659c0,0,.977-5.229.705-7.082S2210.3,755.5,2210.3,755.5Z" transform="translate(-2200.349 -754.23)" fill="#eea987"/>
        </g>
        <g id="Grupo_111302" data-name="Grupo 111302" transform="translate(36.701 10.934)">
          <path id="Trazado_170316" data-name="Trazado 170316" d="M2307.063,672.02s.818-.874,1.119.011-1.27,4.841-1.168,5.019c0,0-.149.343-.346.154A42.8,42.8,0,0,1,2307.063,672.02Z" transform="translate(-2306.628 -671.634)" fill="#eea987"/>
        </g>
        <g id="Grupo_111303" data-name="Grupo 111303" transform="translate(20.656 10.773)">
          <path id="Trazado_170317" data-name="Trazado 170317" d="M2171.214,670.66s-.8-.89-1.119-.011,1.177,4.864,1.07,5.04c0,0,.143.346.343.161A42.983,42.983,0,0,0,2171.214,670.66Z" transform="translate(-2170.051 -670.262)" fill="#eea987"/>
        </g>
        <g id="Grupo_111304" data-name="Grupo 111304" transform="translate(20.872 0)">
          <path id="Trazado_170318" data-name="Trazado 170318" d="M2188.143,591.67l-1.07,1.431a28.593,28.593,0,0,0-.142-3.629c-.172-.492-.434-1.995-.578-2.349s-6.42-2.113-11.964.514c0,0,.243,2.256-.288,2.457s-.271,3.674-.271,3.674l-.88-.993s-1.347-9-1.014-9.938,1.393-6.577,12.767-3.23c0,0,3.545-.751,4.258,1.7S2188.143,591.67,2188.143,591.67Z" transform="translate(-2171.883 -578.556)" fill="#d98b52"/>
        </g>
        <g id="Grupo_111305" data-name="Grupo 111305" transform="translate(24.212 27.722)">
          <path id="Trazado_170319" data-name="Trazado 170319" d="M2210.536,814.578s1.687.36-5.372,7.125c0,0-5.007-5.538-4.844-6.466S2210.536,814.578,2210.536,814.578Z" transform="translate(-2200.316 -814.542)" fill="#eea987"/>
        </g>
        <g id="Grupo_111306" data-name="Grupo 111306" transform="translate(29.06 26.748)">
          <path id="Trazado_170320" data-name="Trazado 170320" d="M2241.587,814.388l1.927,3.294,5.714-9.7-2.474-1.726Z" transform="translate(-2241.587 -806.254)" fill="#b84343"/>
        </g>
        <g id="Grupo_111307" data-name="Grupo 111307" transform="translate(21.735 27.444)">
          <path id="Trazado_170321" data-name="Trazado 170321" d="M2186.557,819.617l-4.675-7.438-2.651,1.7,4.752,9.029Z" transform="translate(-2179.232 -812.179)" fill="#b84343"/>
        </g>
        <g id="Grupo_111308" data-name="Grupo 111308" transform="translate(27.285 34.856)">
          <path id="Trazado_170322" data-name="Trazado 170322" d="M2226.8,895.908c.057,1.1.083,2.443.085,3.954h-.264c0-1.5-.028-2.847-.087-3.941-.433-8.253,1.566-18.294,1.579-20.647l.258.051C2228.361,877.678,2226.369,887.691,2226.8,895.908Z" transform="translate(-2226.476 -875.274)" fill="#b84343"/>
        </g>
        <path id="Trazado_170323" data-name="Trazado 170323" d="M2212.281,780.589a4.978,4.978,0,0,0,4.285,1.377,7.231,7.231,0,0,0,3.623-1.65,4.664,4.664,0,0,1-3.892,2.711A4.13,4.13,0,0,1,2212.281,780.589Z" transform="translate(-2186.664 -756.615)" fill="#c78d71"/>
      </g>
      <g id="Grupo_111755" data-name="Grupo 111755" transform="translate(1157.779 307.901)">
        <g id="Grupo_111370" data-name="Grupo 111370" transform="translate(36.172 13.128)">
          <path id="Trazado_170379" data-name="Trazado 170379" d="M1900.912,981.07a5.952,5.952,0,0,1,.034-1.363c.189-.749-.09-1.962.852-2.55s3.65,1.876,3.863,2.564-.8,1.862-2.917,2.847S1900.912,981.07,1900.912,981.07Z" transform="translate(-1900.887 -977.067)" fill="#eea886"/>
        </g>
        <g id="Grupo_111371" data-name="Grupo 111371" transform="translate(36.795 8.295)">
          <path id="Trazado_170380" data-name="Trazado 170380" d="M1906.2,941.09a32.193,32.193,0,0,1,2.121-2.781c1.059-1.233,2.545-2.616,2.859-2.354.476.4-.872,1.393-1.839,2.687-.89,1.191-.513,1.107-.513,1.107s-.109.018,1.117-1.089c1.317-1.191,2.782-2.415,3.043-2.2.323.261.342.32-.065.831.3-.243.407-.2.522-.08.593.6-1.066,2.649-1.725,3.464.51-.623.953-1.025,1.08-.426.146.685-2.333,3.482-3.123,4.569C1908.81,946,1906.2,941.09,1906.2,941.09Z" transform="translate(-1906.195 -935.922)" fill="#eea886"/>
        </g>
        <g id="Grupo_111375" data-name="Grupo 111375" transform="translate(0 111.936)">
          <g id="Grupo_111374" data-name="Grupo 111374">
            <g id="Grupo_111373" data-name="Grupo 111373">
              <g id="Grupo_111372" data-name="Grupo 111372">
                <path id="Trazado_170381" data-name="Trazado 170381" d="M1598.095,1818.5s2.577,1.524,3.744,2.09,5.7.729,6.149,1.154.284,1.781-.468,1.92-6.261.637-8.1.206-5.277.294-6.038.035-.271-4.364.023-5.285S1598.095,1818.5,1598.095,1818.5Z" transform="translate(-1592.975 -1818.175)" fill="#181929"/>
              </g>
            </g>
          </g>
        </g>
        <g id="Grupo_111379" data-name="Grupo 111379" transform="translate(0.631 110.581)">
          <g id="Grupo_111378" data-name="Grupo 111378">
            <g id="Grupo_111377" data-name="Grupo 111377">
              <g id="Grupo_111376" data-name="Grupo 111376">
                <path id="Trazado_170382" data-name="Trazado 170382" d="M1603.047,1806.641l-.214,1.679s-3.445.644-4.489.114l.258-1.744Z" transform="translate(-1598.343 -1806.641)" fill="#22243b"/>
              </g>
            </g>
          </g>
        </g>
        <g id="Grupo_111380" data-name="Grupo 111380" transform="translate(0 45.9)">
          <path id="Trazado_170383" data-name="Trazado 170383" d="M1612.132,1263.387c-.037,1.162-.248,3.684-.495,6.333-.055.589-.113,1.184-.17,1.771-.344,3.564-.69,6.861-.69,6.861-.435,2.837-1.333,7.763-2.336,11.487h0c-.29,1.075-.587,2.049-.886,2.845a7.047,7.047,0,0,1-.865,1.741c-2.135,2.727-7.03,26.906-7.03,26.906l-6.682-.051s1.469-16.372,2.947-20.522c1.648-4.635,4.511-10.881,3.8-15.351-.445-2.805-1.019-11.735-1.019-11.735s-.559-10.034,2.066-17.383C1601.426,1254.453,1612.132,1263.387,1612.132,1263.387Z" transform="translate(-1592.977 -1256.041)" fill="#292c47"/>
        </g>
        <g id="Grupo_111384" data-name="Grupo 111384" transform="translate(18.733 112.526)">
          <g id="Grupo_111383" data-name="Grupo 111383">
            <g id="Grupo_111382" data-name="Grupo 111382">
              <g id="Grupo_111381" data-name="Grupo 111381">
                <path id="Trazado_170384" data-name="Trazado 170384" d="M1757.608,1823.558s2.558,1.555,3.718,2.135,5.692.8,6.134,1.228.263,1.784-.49,1.913-6.269.562-8.1.11-5.28.23-6.038-.037-.218-4.367.087-5.284S1757.608,1823.558,1757.608,1823.558Z" transform="translate(-1752.443 -1823.196)" fill="#181929"/>
              </g>
            </g>
          </g>
        </g>
        <g id="Grupo_111388" data-name="Grupo 111388" transform="translate(19.408 111.207)">
          <g id="Grupo_111387" data-name="Grupo 111387">
            <g id="Grupo_111386" data-name="Grupo 111386">
              <g id="Grupo_111385" data-name="Grupo 111385">
                <path id="Trazado_170385" data-name="Trazado 170385" d="M1762.912,1811.969l-.235,1.676s-3.453.6-4.491.06l.28-1.741Z" transform="translate(-1758.187 -1811.964)" fill="#22243b"/>
              </g>
            </g>
          </g>
        </g>
        <g id="Grupo_111389" data-name="Grupo 111389" transform="translate(9.396 46.722)">
          <path id="Trazado_170386" data-name="Trazado 170386" d="M1679.711,1303.547c-.174-5.347-.646-8.9-2.022-11.99-1.156-2.594-2.145-10.742-2.145-10.742s-3.132-9.547-2.5-17.326c.159-1.943,12.264,2.941,12.264,2.941a71.678,71.678,0,0,1,1.362,7.34,162.163,162.163,0,0,1,1.025,24.943c-.936,3.335,1.429,29.573,1.429,29.573h-6.813a126.588,126.588,0,0,1-1.974-15.139S1679.643,1304.472,1679.711,1303.547Z" transform="translate(-1672.962 -1263.033)" fill="#292c47"/>
        </g>
        <g id="Grupo_111391" data-name="Grupo 111391" transform="translate(5.687 16.733)">
          <g id="Grupo_111390" data-name="Grupo 111390">
            <path id="Trazado_170387" data-name="Trazado 170387" d="M1651.69,1009.059a53.623,53.623,0,0,1,4.1,8.108c.928,2.9.18,11.348.344,13.045.508,5.265,1.249,11.062,1.249,11.062l-10.642,6.8a105.206,105.206,0,0,1-3.575-10.017,46.717,46.717,0,0,1-1.784-13.9c.049-10.483,5.715-16.4,5.715-16.4Z" transform="translate(-1641.384 -1007.753)" fill="#cfbeb6"/>
          </g>
        </g>
        <g id="Grupo_111393" data-name="Grupo 111393" transform="translate(9.293 2.042)">
          <g id="Grupo_111392" data-name="Grupo 111392">
            <path id="Trazado_170388" data-name="Trazado 170388" d="M1682.693,884.733s2.182,2.335,1.566,2.95c-.509.507,1.5,2.835,1.782,3.226s-.891,1.039-1.084,1.39-.08,4.014-1.09,4.39-6.11-.021-7.73-1.01-4.233-6.692-4.046-9.435S1678.855,880.661,1682.693,884.733Z" transform="translate(-1672.081 -882.695)" fill="#eea886"/>
          </g>
        </g>
        <g id="Grupo_111395" data-name="Grupo 111395" transform="translate(12.017 6.005)">
          <g id="Grupo_111394" data-name="Grupo 111394">
            <path id="Trazado_170389" data-name="Trazado 170389" d="M1701.1,925.671s-.038.311-.088.794c-.019.2-.043.433-.065.685-.013.149-.025.308-.041.47,0,.043-.009.087-.012.131l-.019.227c-.025.352-.049.716-.068,1.077a11.339,11.339,0,0,0,.047,2.316c.267,1.357-5.578-4.37-5.578-4.37a66.992,66.992,0,0,0,.255-9.434C1695.285,912.574,1701.1,925.671,1701.1,925.671Z" transform="translate(-1695.273 -916.432)" fill="#eea886"/>
          </g>
        </g>
        <g id="Grupo_111397" data-name="Grupo 111397" transform="translate(8.362 0)">
          <g id="Grupo_111396" data-name="Grupo 111396">
            <path id="Trazado_170390" data-name="Trazado 170390" d="M1676.15,869.905s1.032-2.435-2.152-4.126c-3.748-1.99-7.721,3.007-8.249,3.3s-2.923,2.991-.579,6.565c2.959,4.51,2.8,4.359,2.8,4.359s.3-3.327.277-3.969c-.035-1.173,3.043-1.313,3.043-1.313s-1.264-1.683.141-2.437S1674.484,869.74,1676.15,869.905Z" transform="translate(-1664.16 -865.312)" fill="#3a3f47"/>
          </g>
        </g>
        <g id="Grupo_111399" data-name="Grupo 111399" transform="translate(11.541 8.007)">
          <g id="Grupo_111398" data-name="Grupo 111398">
            <path id="Trazado_170391" data-name="Trazado 170391" d="M1693.559,934.452c-.224-.315-1.046-1.705-2.1-.484s1.778,3.5,2.013,3.48S1695.445,937.1,1693.559,934.452Z" transform="translate(-1691.22 -933.475)" fill="#eea886"/>
          </g>
        </g>
        <g id="Grupo_111400" data-name="Grupo 111400" transform="translate(6.075 49.635)">
          <path id="Trazado_170392" data-name="Trazado 170392" d="M1660.886,1290.694s-.529-2.49-.632-2.862l-15.563,2.59.159,2.012S1656.064,1291.762,1660.886,1290.694Z" transform="translate(-1644.692 -1287.832)" fill="#23263d"/>
        </g>
        <g id="Grupo_111401" data-name="Grupo 111401" transform="translate(3.323 41.529)">
          <path id="Trazado_170393" data-name="Trazado 170393" d="M1622.626,1218.827a47.065,47.065,0,0,1-1.353,22.371c-.457,1.47,10.365-.229,10.365-.229Z" transform="translate(-1621.259 -1218.827)" fill="#faa146"/>
        </g>
        <g id="Grupo_111403" data-name="Grupo 111403" transform="translate(4.046 16.733)">
          <g id="Grupo_111402" data-name="Grupo 111402">
            <path id="Trazado_170394" data-name="Trazado 170394" d="M1641.811,1053.938s-7.687,1.687-9.846.924a154.429,154.429,0,0,1-4.237-23.028c-.085-.9-.157-1.793-.215-2.685v0c-.611-9.437,1.79-19.01,7.263-21.391.154.1,7.862,6.9,7.716,13.12-.011.421-.017.844-.02,1.266-.005.765,0,1.531.017,2.3h0c.049,2.366.2,4.727.4,7.018.021.239.044.478.067.714.037.386.077.768.117,1.148q.083.76.171,1.506A51.339,51.339,0,0,1,1641.811,1053.938Z" transform="translate(-1627.42 -1007.757)" fill="#faa146"/>
          </g>
        </g>
        <g id="Grupo_111404" data-name="Grupo 111404" transform="translate(18.121 22.472)">
          <path id="Trazado_170395" data-name="Trazado 170395" d="M1747.235,1056.72a85.514,85.514,0,0,1,2,12.946c.462,6.035,1.079,10.3,1.079,10.3l.924,2.987.38-2.881s-.339-7.788-.791-10.957c-.456-3.194-.655-7.25-3.208-12.51Z" transform="translate(-1747.235 -1056.608)" fill="#d44040"/>
        </g>
        <g id="Grupo_111405" data-name="Grupo 111405" transform="translate(17.719 20.768)">
          <path id="Trazado_170396" data-name="Trazado 170396" d="M1744.051,1043.921a.856.856,0,0,0,.422.2c.247.037.6-.358-.662-2.025Z" transform="translate(-1743.811 -1042.1)" fill="#d44040"/>
        </g>
        <g id="Grupo_111407" data-name="Grupo 111407" transform="translate(11.403 15.872)">
          <g id="Grupo_111406" data-name="Grupo 111406">
            <path id="Trazado_170397" data-name="Trazado 170397" d="M1690.727,1000.42s3.579,3.371,5.709,4.115l.406,3.229-6.8-6.482Z" transform="translate(-1690.045 -1000.42)" fill="#eddad3"/>
          </g>
        </g>
        <g id="Grupo_111408" data-name="Grupo 111408" transform="translate(8.512 15.952)">
          <path id="Trazado_170398" data-name="Trazado 170398" d="M1671.409,1014.072c-1.411-.5-7.274-3.348-5.715-6.671s5.58-1.555,8.606-.2c3.166,1.414,10.64,5.76,11.232,5.355a35.887,35.887,0,0,0,3.644-4.929c.467-.824,3.289-6.094,3.555-6.492s4.359,3.055,4.359,3.055-7.361,13.072-9.341,15.153S1671.409,1014.072,1671.409,1014.072Z" transform="translate(-1665.433 -1001.102)" fill="#faa146"/>
        </g>
        <g id="Grupo_111409" data-name="Grupo 111409" transform="translate(12.247 68.64)">
          <path id="Trazado_170399" data-name="Trazado 170399" d="M1700.445,1460.671h0c-.289,1.075-.587,2.05-.886,2.845h0l-2.331-13.9C1697.817,1450.931,1700.445,1460.671,1700.445,1460.671Z" transform="translate(-1697.228 -1449.613)" fill="#181929"/>
        </g>
        <g id="Grupo_111410" data-name="Grupo 111410" transform="translate(12.372 27.907)">
          <path id="Trazado_170400" data-name="Trazado 170400" d="M1705.038,1108.384l-6.744-5.509c1.786.957,6.177,2.962,6.727,3.213C1705.016,1106.853,1705.021,1107.62,1705.038,1108.384Z" transform="translate(-1698.294 -1102.876)" fill="#8f5c28"/>
        </g>
        <g id="Grupo_111411" data-name="Grupo 111411" transform="translate(13.58 15.154)">
          <path id="Trazado_170401" data-name="Trazado 170401" d="M1712.747,995.2c-.019.2-.044.433-.065.685-.013.149-.025.308-.041.47a6.98,6.98,0,0,1-4.068-2.039C1709.483,995.038,1712.747,995.2,1712.747,995.2Z" transform="translate(-1708.573 -994.316)" fill="#a77860"/>
        </g>
      </g>
    </g>
  </g>
</svg>
