<svg xmlns="http://www.w3.org/2000/svg" width="52.434" height="60" viewBox="0 0 52.434 60">
  <g id="Grupo_128231" data-name="Grupo 128231" transform="translate(-1169 -1434)">
    <g id="Grupo_128213" data-name="Grupo 128213" transform="translate(1169 1434)">
      <g id="Grupo_128230" data-name="Grupo 128230">
        <path id="Trazado_172036" data-name="Trazado 172036" d="M624.6,159.659c.193.163.4.311.577.488,2.295,2.29,4.582,4.588,6.884,6.871a1.6,1.6,0,0,1,.517,1.241c-.022,1.972-.009,3.945-.009,5.917v.548a16.571,16.571,0,0,1,2.164.893,5.95,5.95,0,0,1,3.067,5.437c.015,5.292,0,10.585,0,15.877a2.385,2.385,0,0,1-.009.292.9.9,0,0,1-.925.865.86.86,0,0,1-.815-.9c-.019-1.035-.009-2.07-.009-3.1q0-5.391,0-10.78v-.733H587.161c-.01.215-.027.424-.027.633q0,16.785,0,33.571c0,.964.164,1.128,1.115,1.128h46.7c.921,0,1.094-.17,1.094-1.091q0-7.471,0-14.941a5.554,5.554,0,0,1,.017-.644.857.857,0,0,1,1.693-.091,2.977,2.977,0,0,1,.045.639q0,7.53,0,15.058c0,1.891-.949,2.828-2.855,2.828h-46.7c-1.94,0-2.87-.928-2.87-2.872q0-17.694,0-35.388c0-3.6,1.689-5.752,5.236-6.6v-.6c0-2.089-.005-4.179,0-6.268a2.822,2.822,0,0,1,3.02-2.992c.722,0,1.443,0,2.252,0,0-.581.037-1.142-.007-1.7a3.141,3.141,0,0,1,2.233-3.582Zm.907,14.473c-.059-.028-.092-.058-.125-.058-1.406-.007-2.812-.008-4.218-.016a2.841,2.841,0,0,1-2.994-2.972c-.01-1.249,0-2.5,0-3.749v-.642H593.763c-1.049,0-1.393.349-1.393,1.413q0,6.034,0,12.068v.561h33.138Zm-27.863-9.195h.747q10.164,0,20.327-.007a1.549,1.549,0,0,1,1.192.491c2.3,2.314,4.617,4.6,6.9,6.935a1.8,1.8,0,0,1,.467,1.12c.044,2.206.021,4.412.021,6.618v.631h3.476V168.785c-1.463,0-2.885.008-4.308,0a2.852,2.852,0,0,1-3.021-3.007c0-.449,0-.9,0-1.347v-3.012h-24.37c-.117,0-.235,0-.351,0a1.045,1.045,0,0,0-1.072,1.081C597.629,163.28,597.645,164.061,597.645,164.937Zm-7.033,15.829v-4.082a3.989,3.989,0,0,0-3.406,4.048,1.438,1.438,0,0,0,.217.033C588.455,180.766,589.488,180.766,590.611,180.766ZM636,180.745c-.043-2.033-1.7-3.967-3.393-4.03v4.03Zm-10.786-17.88c0,1.036-.028,2.117.013,3.2a.92.92,0,0,0,.895.928c1.1.049,2.194.015,3.232.015ZM624,172.294l-4.077-4.086c0,.835,0,1.765,0,2.7,0,.117-.005.235.006.35a1.036,1.036,0,0,0,1,1.031C622,172.318,623.06,172.294,624,172.294Z" transform="translate(-585.375 -159.659)" fill="#fff"/>
      </g>
      <path id="Trazado_172037" data-name="Trazado 172037" d="M620.949,210.254c-.013.274-.032.465-.032.655,0,4.529.007,9.059-.012,13.588,0,.529.13.691.682.689q8.786-.031,17.574,0c.5,0,.668-.115.665-.644q-.031-6.823,0-13.647c0-.528-.158-.656-.664-.649-2.109.025-4.218.012-6.327.009a2.788,2.788,0,0,1-.639-.05.855.855,0,0,1,.041-1.671,2.659,2.659,0,0,1,.525-.034c2.206,0,4.413-.006,6.619,0a1.93,1.93,0,0,1,2.188,2.2q0,7,0,14a1.954,1.954,0,0,1-2.222,2.234H621.364a1.928,1.928,0,0,1-2.206-2.182q-.007-7.058,0-14.116a1.9,1.9,0,0,1,2.127-2.134c2.266-.008,4.531,0,6.8,0,.492,0,.9.124,1.064.635.191.589-.252,1.11-.98,1.118-1.405.017-2.812.006-4.218.006Z" transform="translate(-593.82 -171.868)" fill="#fff"/>
      <path id="Trazado_172038" data-name="Trazado 172038" d="M631.663,214.881c-1.99,0-3.98,0-5.97,0a.9.9,0,0,1-1-.627.868.868,0,0,1,.907-1.126c.878-.023,1.756-.007,2.634-.008q4.653,0,9.306,0a2.36,2.36,0,0,1,.636.055.8.8,0,0,1,.624.927.776.776,0,0,1-.758.754c-.447.035-.9.018-1.346.018Q634.179,214.883,631.663,214.881Z" transform="translate(-595.194 -173.024)" fill="#fff"/>
      <path id="Trazado_172039" data-name="Trazado 172039" d="M631.787,217.46q2.955,0,5.911,0c.73,0,1.135.33,1.121.892-.014.535-.419.862-1.1.863q-5.97,0-11.941,0c-.728,0-1.124-.332-1.111-.9.012-.552.385-.85,1.095-.85Q628.772,217.456,631.787,217.46Z" transform="translate(-595.197 -174.109)" fill="#fff"/>
      <path id="Trazado_172040" data-name="Trazado 172040" d="M631.74,221.757c1.912,0,3.823,0,5.734,0,.252,0,.575-.049.739.082.258.207.569.553.559.829s-.355.579-.617.789c-.137.109-.414.052-.628.052q-5.794,0-11.587,0a2.837,2.837,0,0,1-.64-.042.858.858,0,0,1-.049-1.642,2.8,2.8,0,0,1,.753-.068C627.917,221.755,629.828,221.757,631.74,221.757Z" transform="translate(-595.198 -175.183)" fill="#fff"/>
      <path id="Trazado_172041" data-name="Trazado 172041" d="M631.707,227.835q-2.955,0-5.912,0c-.746,0-1.132-.3-1.132-.873s.4-.882,1.133-.883q5.97,0,11.941,0c.867,0,1.389.709.936,1.311a1.337,1.337,0,0,1-.937.425C635.727,227.854,633.717,227.835,631.707,227.835Z" transform="translate(-595.197 -176.264)" fill="#fff"/>
      <path id="Trazado_172042" data-name="Trazado 172042" d="M611.834,183.045h11.422c.157,0,.313,0,.469,0,.679.016,1.086.355,1.075.887s-.417.866-1.106.866q-11.862.006-23.724,0c-.705,0-1.081-.316-1.09-.868-.009-.578.366-.884,1.12-.885Q605.917,183.041,611.834,183.045Z" transform="translate(-588.751 -165.505)" fill="#fff"/>
      <path id="Trazado_172043" data-name="Trazado 172043" d="M609.986,178.72h9.669a2.755,2.755,0,0,1,.584.02.87.87,0,0,1,.037,1.705,2.245,2.245,0,0,1-.583.03q-9.786,0-19.573,0a2.35,2.35,0,0,1-.525-.022.872.872,0,0,1,.019-1.719,2.671,2.671,0,0,1,.526-.016Z" transform="translate(-588.752 -164.423)" fill="#fff"/>
    </g>
  </g>
</svg>
