<svg xmlns="http://www.w3.org/2000/svg" width="85.862" height="85.607" viewBox="0 0 85.862 85.607">
  <g id="Grupo_128204" data-name="Grupo 128204" transform="translate(-965.985 -407.857)">
    <path id="Trazado_190809" data-name="Trazado 190809" d="M1196.417,541.1c0,2.683.022,5.327-.005,7.971-.041,3.9.233,7.852-.242,11.705-1.435,11.643-7.735,19.806-18.507,24.505a1.575,1.575,0,0,1-1.123-.06c-9.723-4.236-15.762-11.532-17.995-21.877a32.124,32.124,0,0,1-.574-6.228c-.08-4.982-.026-9.967-.026-14.951v-1.086c1.326-.209,2.625-.394,3.916-.621a55.1,55.1,0,0,0,14.683-4.821,1.637,1.637,0,0,1,1.26-.013,55.182,55.182,0,0,0,18.243,5.355A2.506,2.506,0,0,1,1196.417,541.1Zm-32,20.411c.15.163.326.368.517.559q3.167,3.166,6.339,6.329c1.16,1.155,1.777,1.155,2.944-.009q7.616-7.6,15.228-15.2c.189-.189.36-.4.5-.556l-2.21-2.161L1172.486,565.7l-6.089-6.148Z" transform="translate(-144.607 -96.171)" fill="#30610c"/>
    <path id="Trazado_190810" data-name="Trazado 190810" d="M1025.949,567.379h-2.941v11.728h-14.794V558.5h1.04c7.491,0,14.981.015,22.472-.006a7.376,7.376,0,0,0,.441-14.745c-1.324-.046-2.652.02-3.975-.04a1.253,1.253,0,0,1-.913-.518q-5.194-9.875-10.325-19.782a2.15,2.15,0,0,1-.1-.294c1.379.365,2.711.8,4.078,1.066a18.974,18.974,0,0,0,13.029-2.157,3.906,3.906,0,0,1,1.642-.425,15.6,15.6,0,0,1,7.931,1.3,13.474,13.474,0,0,1,4.978,4.187l-6.319.839v.971c0,6.03.013,12.06,0,18.09a31.892,31.892,0,0,0,1.789,10.862c.061.171.1.349.175.627h-3.425v20.656h-14.778Z" transform="translate(-31.814 -85.66)" fill="#30610c"/>
    <path id="Trazado_190811" data-name="Trazado 190811" d="M1020,421.115a13.316,13.316,0,1,1,13.238,13.323A13.309,13.309,0,0,1,1020,421.115Z" transform="translate(-40.696 0)" fill="#30610c"/>
    <path id="Trazado_190812" data-name="Trazado 190812" d="M1012.9,555.313c-3.885,0-7.61.015-11.334-.03-.28,0-.662-.376-.817-.672q-4.373-8.319-8.7-16.664c-2.311-4.439-4.621-8.879-6.966-13.385a12.273,12.273,0,0,1,6.419-3.009c1.148-.176,2.52-.53,3.44-.083.839.408,1.258,1.759,1.772,2.742q7.854,15.024,15.675,30.065C1012.54,554.573,1012.68,554.875,1012.9,555.313Z" transform="translate(-14.387 -85.432)" fill="#30610c"/>
    <path id="Trazado_190813" data-name="Trazado 190813" d="M968.548,543.952l14.793,28.408c-.381.023-.64.052-.9.052-3.418,0-6.836.01-10.253,0a5.908,5.908,0,0,1-6.2-6.21q-.012-7.191,0-14.382A13.156,13.156,0,0,1,968.548,543.952Z" transform="translate(0 -102.532)" fill="#30610c"/>
    <path id="Trazado_190814" data-name="Trazado 190814" d="M1097.37,632.017l-4.385-8.425a24.523,24.523,0,0,1,3.549.031,4.3,4.3,0,0,1,3.582,3.817A4.474,4.474,0,0,1,1097.37,632.017Z" transform="translate(-95.68 -162.491)" fill="#30610c"/>
  </g>
</svg>
