<svg xmlns="http://www.w3.org/2000/svg" width="89.029" height="86" viewBox="0 0 89.029 86">
  <g id="Grupo_128220" data-name="Grupo 128220" transform="translate(-106 -236.085)">
    <path id="Trazado_190776" data-name="Trazado 190776" d="M106,408.539h5.862v2.956H106Z" transform="translate(0 -132.395)" fill="#30610c"/>
    <path id="Trazado_190777" data-name="Trazado 190777" d="M321.739,330.046a16.233,16.233,0,0,1,9.661-4.736,37.519,37.519,0,0,1,12.365.263,21.507,21.507,0,0,1,16.868,21.909,17.054,17.054,0,0,1-33.9,1.563,22.457,22.457,0,0,1-.181-2.855c-.023-2.9.015-5.793-.015-8.689a7.729,7.729,0,0,0-4.267-7.141C322.117,330.278,321.975,330.187,321.739,330.046Zm22.592,27.616v-2.785a18.585,18.585,0,0,0,2.474-.724,5.881,5.881,0,0,0,3.346-6.514,5.963,5.963,0,0,0-5.824-4.789c-1.07-.04-2.145.021-3.213-.04a2.734,2.734,0,0,1-2.533-1.932,2.778,2.778,0,0,1,.661-3.049c1.315-1.38,5.94-1.4,7.2.025a10.14,10.14,0,0,1,1.081,1.965h2.683a5.145,5.145,0,0,0-1-3.287,6.139,6.139,0,0,0-4.928-2.629v-2.882h-2.927v2.865c-.372.062-.657.108-.942.158a5.909,5.909,0,0,0,.639,11.739c1.01.059,2.026.015,3.04.035a2.982,2.982,0,1,1-.038,5.946c-.608.011-1.216,0-1.825,0-2.465,0-3.246-.575-3.937-2.907h-2.8c-.132,3,1.882,5.046,5.88,5.961v2.841Z" transform="translate(-165.626 -68.205)" fill="#30610c"/>
    <path id="Trazado_190778" data-name="Trazado 190778" d="M305.008,474.459a24.62,24.62,0,0,1-3.286,1.631c-3.239,1.064-6.52,2-9.878,3.006l5.242,13.131-6.078,2.026c-.132-.267-.244-.463-.33-.671q-2.554-6.126-5.1-12.255c-1.68-4.061,0-7.865,4.148-9.367q4.322-1.566,8.664-3.072a1,1,0,0,1,.879.117,20.975,20.975,0,0,0,5.631,5.108Z" transform="translate(-137.37 -178.69)" fill="#30610c"/>
    <path id="Trazado_190779" data-name="Trazado 190779" d="M382.109,497.989c.256.076.517.141.768.231a19.717,19.717,0,0,0,7.321,1.219.813.813,0,0,1,.929.542q3.692,8.377,7.419,16.738c.056.125.09.261.214.628h-7.273l-9.572-19.156Z" transform="translate(-211.824 -201.067)" fill="#30610c"/>
    <path id="Trazado_190780" data-name="Trazado 190780" d="M223.86,402.114l6.342,3.526a9.641,9.641,0,0,1-4.652,3.284,11.343,11.343,0,0,1-3.225.571c-3.791.068-7.583.043-11.375.021-1.744-.01-2.819-1.308-2.73-3.2a2.612,2.612,0,0,1,2.865-2.674,7.465,7.465,0,0,1,1.9.9,3.6,3.6,0,0,0,1.285.511c2.459.049,4.921,0,7.38.039a1.078,1.078,0,0,0,1.234-.78C223.149,403.582,223.51,402.893,223.86,402.114Z" transform="translate(-78.472 -127.463)" fill="#30610c"/>
    <path id="Trazado_190781" data-name="Trazado 190781" d="M287.771,369.005l-7.218-4.013a56.674,56.674,0,0,1,2.733-5.622,4.657,4.657,0,0,1,6.61-1.123,4.972,4.972,0,0,1,1.173,6.876C290.082,366.471,288.906,367.682,287.771,369.005Z" transform="translate(-134.007 -93.098)" fill="#30610c"/>
    <path id="Trazado_190782" data-name="Trazado 190782" d="M243.858,241.959c.967-3.094,5.268-5.777,9.344-5.871,4.118-.1,8.544,2.555,9.722,5.871Z" transform="translate(-105.836)" fill="#30610c"/>
    <path id="Trazado_190783" data-name="Trazado 190783" d="M240.827,309.19a13.722,13.722,0,0,0,11.067-8.657,2.625,2.625,0,0,1,1.344,4.449c-.823.888-1.728,1.7-2.635,2.584l2.607,3.934a7.191,7.191,0,0,1-3.069,1.521c-1.26.136-2.491.517-3.75.682A5.1,5.1,0,0,1,240.827,309.19Z" transform="translate(-103.509 -49.477)" fill="#30610c"/>
    <path id="Trazado_190784" data-name="Trazado 190784" d="M301.8,413.729l6.478-7.068c-.182,4.138.22,8,2.149,11.638l-4.84,1.732Z" transform="translate(-150.319 -130.953)" fill="#30610c"/>
    <path id="Trazado_190785" data-name="Trazado 190785" d="M301.354,300.1h4.995a10.026,10.026,0,0,1-5.415,9.759l-1.464-2.2C301.846,305.59,302.722,303.129,301.354,300.1Z" transform="translate(-148.53 -49.143)" fill="#30610c"/>
    <path id="Trazado_190786" data-name="Trazado 190786" d="M319.26,582.935c0,1.48-.059,1.574-1.459,2.042q-2.8.934-5.6,1.843c-1.261.41-1.818.006-1.831-1.306-.018-1.852-.018-1.851,1.738-2.439,1.673-.56,3.344-1.127,5.017-1.684C318.836,580.82,319.26,581.129,319.26,582.935Z" transform="translate(-156.893 -264.897)" fill="#30610c"/>
    <path id="Trazado_190787" data-name="Trazado 190787" d="M240.275,305.8v-5.64h7.8C247.254,302.853,242.981,305.949,240.275,305.8Z" transform="translate(-103.085 -49.189)" fill="#30610c"/>
    <path id="Trazado_190788" data-name="Trazado 190788" d="M434.364,596.588H425.5a11.989,11.989,0,0,1,.016-1.728A1.367,1.367,0,0,1,427,593.667c1.937-.026,3.875-.037,5.812,0a1.479,1.479,0,0,1,1.552,1.614C434.379,595.683,434.364,596.083,434.364,596.588Z" transform="translate(-245.267 -274.503)" fill="#30610c"/>
    <path id="Trazado_190789" data-name="Trazado 190789" d="M157.273,396.9a4.968,4.968,0,0,1,2.708,1.629,1.158,1.158,0,0,1,.2.712c.021,1.038-.064,2.084.03,3.114a1.941,1.941,0,0,1-1.03,2c-.577.352-1.181.659-1.9,1.058Z" transform="translate(-39.363 -123.462)" fill="#30610c"/>
    <path id="Trazado_190790" data-name="Trazado 190790" d="M110.58,434.17l-1.646-2.46,4.447-2.969,1.642,2.458Z" transform="translate(-2.252 -147.905)" fill="#30610c"/>
    <path id="Trazado_190791" data-name="Trazado 190791" d="M114.962,380.631l-1.643,2.465-4.448-2.963,1.642-2.47Z" transform="translate(-2.204 -108.691)" fill="#30610c"/>
    <path id="Trazado_190792" data-name="Trazado 190792" d="M186.284,408.793l-.665,2.843H182.81v-2.843Z" transform="translate(-58.968 -132.59)" fill="#30610c"/>
    <path id="Trazado_190793" data-name="Trazado 190793" d="M227.657,274.578h2.826v2.874h-2.826Z" transform="translate(-93.398 -29.551)" fill="#30610c"/>
    <path id="Trazado_190794" data-name="Trazado 190794" d="M253.139,274.634h2.835V277.5h-2.835Z" transform="translate(-112.961 -29.594)" fill="#30610c"/>
    <path id="Trazado_190795" data-name="Trazado 190795" d="M332.745,274.7v2.828h-2.884V274.7Z" transform="translate(-171.861 -29.649)" fill="#30610c"/>
    <path id="Trazado_190796" data-name="Trazado 190796" d="M278.693,274.616h2.842v2.869h-2.842Z" transform="translate(-132.579 -29.581)" fill="#30610c"/>
    <path id="Trazado_190797" data-name="Trazado 190797" d="M307.174,277.5h-2.84v-2.879h2.84Z" transform="translate(-152.264 -29.588)" fill="#30610c"/>
  </g>
</svg>
