<svg xmlns="http://www.w3.org/2000/svg" width="85.862" height="86" viewBox="0 0 85.862 86">
  <g id="Grupo_128202" data-name="Grupo 128202" transform="translate(-76.804 -185.841)">
    <path id="Trazado_190799" data-name="Trazado 190799" d="M175.848,393.279q-15.044,0-30.089,0c-3.311,0-5.161-1.857-5.162-5.192q-.005-18.628,0-37.257c0-3.33,1.853-5.19,5.168-5.191q30.089,0,60.177,0c3.37,0,5.2,1.85,5.2,5.242q0,18.583,0,37.167c0,3.39-1.833,5.231-5.207,5.231Zm-24.484-30.747c1.5,0,2.993.017,4.489,0a3.028,3.028,0,0,0,3.157-3.09c.04-2.008.036-4.018,0-6.026a3.052,3.052,0,0,0-3.2-3.148q-4.443-.024-8.887,0a3.017,3.017,0,0,0-3.234,3.1c-.052,2.008-.047,4.018,0,6.026a3,3,0,0,0,3.192,3.137C148.371,362.547,149.867,362.533,151.364,362.532Zm21.454,12.317c-.988,0-1.977-.024-2.964.007a1.526,1.526,0,1,0-.07,3.047q3.008.061,6.018,0a1.526,1.526,0,1,0-.02-3.048C174.795,374.823,173.806,374.849,172.818,374.849ZM160.571,381c-.984,0-1.969-.017-2.952,0a1.477,1.477,0,0,0-1.652,1.486,1.5,1.5,0,0,0,1.594,1.565q3,.052,5.994,0a1.534,1.534,0,0,0,1.581-1.594,1.516,1.516,0,0,0-1.613-1.452C162.54,380.983,161.555,381,160.571,381Zm0-6.155c-.958,0-1.916-.018-2.874,0-1.113.025-1.73.581-1.734,1.515s.623,1.533,1.715,1.548q2.874.04,5.748,0a1.556,1.556,0,0,0,1.707-1.572,1.536,1.536,0,0,0-1.688-1.486C162.492,374.827,161.533,374.848,160.575,374.846Zm-12.3,3.076c.928,0,1.856.016,2.784,0,1.134-.025,1.825-.636,1.813-1.563-.012-.893-.683-1.492-1.765-1.5q-2.828-.03-5.657,0c-1.093.011-1.741.592-1.754,1.5-.013.94.66,1.542,1.8,1.566C146.418,377.938,147.346,377.922,148.274,377.922Zm.012,6.149h2.784c1.118-.037,1.82-.655,1.8-1.581-.02-.9-.694-1.478-1.776-1.486q-2.829-.02-5.658,0c-1.083.008-1.737.595-1.741,1.507a1.552,1.552,0,0,0,1.718,1.555C146.37,384.09,147.328,384.07,148.286,384.071ZM146.7,368.677h.011a15.257,15.257,0,0,0-.012-1.7,1.452,1.452,0,0,0-1.526-1.343,1.39,1.39,0,0,0-1.446,1.325,28.794,28.794,0,0,0,.005,3.5,1.391,1.391,0,0,0,1.468,1.287,1.414,1.414,0,0,0,1.486-1.271A14.959,14.959,0,0,0,146.7,368.677Zm24.559.058c0-.569.036-1.141-.009-1.707a1.52,1.52,0,0,0-1.489-1.407,1.489,1.489,0,0,0-1.524,1.364,32.641,32.641,0,0,0,0,3.413,1.446,1.446,0,0,0,1.527,1.342,1.465,1.465,0,0,0,1.486-1.389C171.293,369.817,171.257,369.275,171.258,368.735Zm-15.291-.039c0,.539-.028,1.08.006,1.617a1.445,1.445,0,0,0,1.352,1.418,1.4,1.4,0,0,0,1.623-1.208,23.893,23.893,0,0,0-.006-3.672,1.427,1.427,0,0,0-1.538-1.224,1.5,1.5,0,0,0-1.431,1.453C155.939,367.616,155.967,368.157,155.967,368.7Zm6.125-.005c0,.539-.029,1.08.007,1.617a1.459,1.459,0,0,0,1.442,1.429,1.429,1.429,0,0,0,1.563-1.3,27.97,27.97,0,0,0,0-3.5,1.477,1.477,0,0,0-1.562-1.315,1.514,1.514,0,0,0-1.443,1.448C162.064,367.61,162.092,368.151,162.092,368.691Zm21.416.05c0-.569.032-1.14-.008-1.706a1.429,1.429,0,0,0-1.382-1.4,1.372,1.372,0,0,0-1.563,1.171,22.014,22.014,0,0,0,0,3.755,1.332,1.332,0,0,0,1.556,1.169,1.417,1.417,0,0,0,1.389-1.375C183.541,369.821,183.507,369.279,183.508,368.74Zm15.393-.032c0,.539-.03,1.08.007,1.616a1.439,1.439,0,0,0,1.36,1.407,1.394,1.394,0,0,0,1.61-1.223,23.753,23.753,0,0,0,.014-3.584,1.448,1.448,0,0,0-1.569-1.3,1.5,1.5,0,0,0-1.418,1.465C198.871,367.629,198.9,368.169,198.9,368.708Zm-49.058-.022c0,.569-.041,1.141.01,1.7a1.376,1.376,0,0,0,1.33,1.334,1.329,1.329,0,0,0,1.589-1.112,23.279,23.279,0,0,0,0-3.84c-.064-.782-.73-1.138-1.494-1.141a1.44,1.44,0,0,0-1.425,1.349C149.8,367.546,149.845,368.118,149.844,368.687Zm39.8-.043c0-.538.039-1.081-.009-1.615a1.491,1.491,0,0,0-1.476-1.405,1.431,1.431,0,0,0-1.491,1.278,25.825,25.825,0,0,0,0,3.583,1.495,1.495,0,0,0,2.966-.136C189.679,369.783,189.642,369.212,189.642,368.643Zm6.134.077h.011a15.8,15.8,0,0,0-.012-1.7,1.5,1.5,0,0,0-1.494-1.393,1.479,1.479,0,0,0-1.507,1.466c-.048,1.075-.048,2.156,0,3.231a1.5,1.5,0,0,0,2.986.1A13.874,13.874,0,0,0,195.777,368.721Z" transform="translate(-48.479 -121.439)" fill="#30610c"/>
    <path id="Trazado_190800" data-name="Trazado 190800" d="M222.191,253.272l25.1-25.128a3.445,3.445,0,0,1,.262.233q8.923,8.937,17.84,17.879a4.61,4.61,0,0,1,.485,6.4,1.9,1.9,0,0,1-1.272.595q-20.877.046-41.755.025Z" transform="translate(-110.489 -32.149)" fill="#30610c"/>
    <path id="Trazado_190801" data-name="Trazado 190801" d="M78.143,237.067a4.473,4.473,0,0,1-.477-5.836,7,7,0,0,1,.764-.88q21.394-21.45,42.795-42.893a4.7,4.7,0,0,1,6.41-.63c.117.089.24.169.541.38a8.787,8.787,0,0,0-.906.682q-16.644,16.665-33.285,33.333c-.587.587-1.353.994-1.931,1.588-.829.851-1.511,1.848-2.345,2.694-3.747,3.8-7.526,7.56-11.295,11.335C78.331,236.922,78.233,236.992,78.143,237.067Z" fill="#30610c"/>
    <path id="Trazado_190802" data-name="Trazado 190802" d="M200.269,201.722l4.057,4.069c-.153.16-.365.391-.586.613q-13.041,13.077-26.073,26.162a1.978,1.978,0,0,1-1.572.639c-2.481-.033-4.963-.013-7.29-.013Z" transform="translate(-69.917 -12.069)" fill="#30610c"/>
    <path id="Trazado_190803" data-name="Trazado 190803" d="M101.019,373.4c0,2.634.006,5.326-.012,8.018a1,1,0,0,1-.286.619c-1.339,1.369-2.7,2.721-3.972,4l-4.189-4.17Z" transform="translate(-11.973 -142.535)" fill="#30610c"/>
    <path id="Trazado_190804" data-name="Trazado 190804" d="M121.2,431.647l-1.989-2.012,1.989-1.823Z" transform="translate(-32.229 -183.889)" fill="#30610c"/>
    <path id="Trazado_190805" data-name="Trazado 190805" d="M166.442,383.964V377.95h9.092v6.014Z" transform="translate(-68.122 -145.995)" fill="#30610c"/>
  </g>
</svg>
