<svg xmlns="http://www.w3.org/2000/svg" width="65.446" height="70" viewBox="0 0 65.446 70">
  <g id="Grupo_111841" data-name="Grupo 111841" transform="translate(-126.556 -204)">
    <path id="Trazado_153779" data-name="Trazado 153779" d="M145.05,274a3.378,3.378,0,0,1-2.174-1.626,9.549,9.549,0,0,1-.476-2.026,4.636,4.636,0,0,1-.008-.833c-.964-.048-1.868-.054-2.764-.143a14.513,14.513,0,0,1-13.059-14.942c.246-5.915,3.172-10.172,8.448-12.812a.92.92,0,0,0,.6-.979c-.018-5.7-.011-11.391-.011-17.087,0-.228-.011-.457.009-.683a1.011,1.011,0,0,1,2-.133,3.192,3.192,0,0,1,.039.747q0,8.133,0,16.266v.9a14.665,14.665,0,0,1,16.026,6.684,11.1,11.1,0,0,1,1.681-.282c2.62-.028,5.24-.013,7.86-.012.2,0,.411,0,.615.011a.967.967,0,0,1,.977.95,1.01,1.01,0,0,1-.93,1.075,6.46,6.46,0,0,1-.819.015h-8.428c2.16,5.945,1.2,11.24-3.005,16,.239.021.427.052.615.053q14.627,0,29.254,0c1.275,0,1.673-.4,1.673-1.678q0-27.851,0-55.7c0-1.321-.394-1.715-1.708-1.715h-42.1c-1.334,0-1.706.37-1.706,1.7q0,5.3,0,10.594a2.77,2.77,0,0,1-.083.807.923.923,0,0,1-1.048.687.952.952,0,0,1-.9-.879,4.445,4.445,0,0,1-.016-.614c0-3.417.063-6.836-.024-10.251-.052-2.039.682-3.42,2.636-4.093H182.65a3.769,3.769,0,0,1,2.583,4.275c-.059.811-.01,1.63-.01,2.54,1.271,0,2.473-.03,3.673.008a3.155,3.155,0,0,1,2.977,2.393,6.194,6.194,0,0,1,.122,1.491q.008,27.375,0,54.75c0,.5.018,1-.024,1.5a3.16,3.16,0,0,1-2.068,2.807l-.557.234Zm40.173-61.138v46.2c0,1.572.014,3.144,0,4.716a3.169,3.169,0,0,1-2.066,3.16,5.022,5.022,0,0,1-1.8.254q-15.857.022-31.713.019a2.688,2.688,0,0,0-.977.193c-1.262.508-2.512,1.044-3.762,1.579-.155.066-.366.148-.421.278a1.823,1.823,0,0,0,1.774,2.693h41.9c.182,0,.365.008.547,0a1.218,1.218,0,0,0,1.242-1.195c.02-.226.014-.455.014-.683q0-27.679,0-55.358c0-.228.006-.457-.015-.683a1.148,1.148,0,0,0-1.189-1.157C187.607,212.841,186.469,212.862,185.223,212.862ZM153.7,254.845a12.553,12.553,0,1,0-12.543,12.581A12.564,12.564,0,0,0,153.7,254.845Z" fill="#54aa13"/>
    <path id="Trazado_153781" data-name="Trazado 153781" d="M270.928,235.354c-1.821,0-3.642.006-5.464,0a2.115,2.115,0,0,1-2.321-2.331c0-.705-.013-1.411,0-2.117a2.076,2.076,0,0,1,2.06-2.115q5.737-.04,11.473,0a2.075,2.075,0,0,1,2.077,2.1c.019.8.02,1.594,0,2.39a2.05,2.05,0,0,1-2.092,2.068c-1.912.023-3.824.006-5.737.006Zm-5.706-2.1h11.437v-2.384H265.222Z" transform="translate(-111.684 -20.255)" fill="#54aa13"/>
    <path id="Trazado_153782" data-name="Trazado 153782" d="M331.968,477.3c1.41,0,2.821-.008,4.231,0a2.161,2.161,0,0,1,2.419,2.388c.008.682.019,1.365-.007,2.047a2.04,2.04,0,0,1-2.036,2.133q-4.639.068-9.279,0a2.039,2.039,0,0,1-2.033-2.132c-.02-.75-.018-1.5,0-2.251a2.087,2.087,0,0,1,2.2-2.178C328.966,477.28,330.467,477.3,331.968,477.3Zm-4.624,4.5h9.171v-2.394h-9.171Z" transform="translate(-162.472 -223.475)" fill="#54aa13"/>
    <path id="Trazado_153783" data-name="Trazado 153783" d="M286.8,290.98c3.326,0,6.653-.019,9.979.025a1.6,1.6,0,0,1,1.118.57.966.966,0,0,1-.75,1.434,3.657,3.657,0,0,1-.614.021H277.126a3.586,3.586,0,0,1-.614-.018,1.017,1.017,0,0,1,.04-2.024,4.4,4.4,0,0,1,.546-.008Z" transform="translate(-121.888 -71.12)" fill="#54aa13"/>
    <path id="Trazado_153784" data-name="Trazado 153784" d="M286.787,353.145q4.989,0,9.978,0c.619,0,1.078.2,1.193.861a.982.982,0,0,1-.81,1.156,3.392,3.392,0,0,1-.68.035q-9.7,0-19.41,0c-.114,0-.228,0-.342,0-.716-.036-1.181-.473-1.152-1.08.028-.589.464-.965,1.175-.966Q281.764,353.138,286.787,353.145Z" transform="translate(-121.845 -121.955)" fill="#54aa13"/>
    <path id="Trazado_153785" data-name="Trazado 153785" d="M286.759,415.25q4.852,0,9.7,0a4.252,4.252,0,0,1,.749.038,1,1,0,0,1,.106,1.932,2.959,2.959,0,0,1-.81.076q-9.7.006-19.407,0a3.065,3.065,0,0,1-.744-.063,1,1,0,0,1,.086-1.95,4.864,4.864,0,0,1,.749-.034Q281.976,415.248,286.759,415.25Z" transform="translate(-121.885 -172.741)" fill="#54aa13"/>
    <path id="Trazado_153786" data-name="Trazado 153786" d="M229.019,297.533c-.387,0-.774.011-1.16,0a2.116,2.116,0,0,1-2.109-2.072c-.029-.795-.027-1.593,0-2.388a2.118,2.118,0,0,1,2.147-2.1c.773-.013,1.547-.016,2.32,0a2.081,2.081,0,0,1,2.095,2.072c.022.773.018,1.547,0,2.32a2.1,2.1,0,0,1-2.2,2.175c-.364.007-.728,0-1.092,0Zm1.209-2.081v-2.393h-2.383v2.393Z" transform="translate(-81.094 -71.104)" fill="#54aa13"/>
    <path id="Trazado_153787" data-name="Trazado 153787" d="M232.308,356.36c0,.409.011.819,0,1.228a2.1,2.1,0,0,1-2.074,2.1c-.795.028-1.592.026-2.388,0a2.119,2.119,0,0,1-2.1-2.085c-.028-.818-.033-1.639,0-2.456a2.093,2.093,0,0,1,2.082-2.021c.773-.02,1.547-.016,2.32,0a2.085,2.085,0,0,1,2.16,2.142C232.316,355.632,232.308,356,232.308,356.36Zm-2.108,1.256v-2.4h-2.366v2.4Z" transform="translate(-81.086 -121.932)" fill="#54aa13"/>
    <path id="Trazado_153788" data-name="Trazado 153788" d="M281.106,315.8c1.434,0,2.868-.005,4.3,0,.785,0,1.262.411,1.25,1.042-.011.61-.465,1-1.214,1q-4.336.01-8.673,0c-.75,0-1.2-.391-1.215-1-.012-.632.464-1.04,1.248-1.043C278.238,315.8,279.672,315.8,281.106,315.8Z" transform="translate(-121.838 -91.419)" fill="#54aa13"/>
    <path id="Trazado_153789" data-name="Trazado 153789" d="M281.107,380.018c-1.411,0-2.823,0-4.234,0-.843,0-1.33-.394-1.32-1.043.009-.629.477-1,1.281-1q4.268-.006,8.536,0c.806,0,1.273.372,1.286,1,.013.649-.475,1.045-1.315,1.048C283.93,380.022,282.519,380.018,281.107,380.018Z" transform="translate(-121.836 -142.254)" fill="#54aa13"/>
    <path id="Trazado_153790" data-name="Trazado 153790" d="M151.277,437.676a10.094,10.094,0,0,1,14.714-8.934q.243.125.477.266c.686.411.89.974.556,1.522s-.852.567-1.559.283a14.339,14.339,0,0,0-3.143-1.047,8.006,8.006,0,0,0-2.019,15.883,8.045,8.045,0,0,0,8.08-11.854c-.052-.1-.115-.2-.161-.3a1.019,1.019,0,0,1,.433-1.4.987.987,0,0,1,1.35.425,9.6,9.6,0,0,1,1.391,4.174,10.086,10.086,0,0,1-20.042,2.28C151.3,438.543,151.3,438.108,151.277,437.676Z" transform="translate(-20.214 -182.846)" fill="#54aa13"/>
    <path id="Trazado_153791" data-name="Trazado 153791" d="M195.181,450.614a1.067,1.067,0,0,1-.909,1.155,1.023,1.023,0,0,1-1.108-.884,3.8,3.8,0,0,0-.109-.534,1.183,1.183,0,0,0-1.273-.823,1.224,1.224,0,0,0-1.11,1.116,1.209,1.209,0,0,0,.9,1.284,6.672,6.672,0,0,0,.743.1,3.267,3.267,0,0,1,1.207,6.089c-.34.192-.6.353-.661.816a.891.891,0,0,1-.993.757.9.9,0,0,1-.95-.815c-.037-.427-.264-.545-.575-.72a3.174,3.174,0,0,1-1.692-2.423c-.115-.822.195-1.372.836-1.47.6-.092,1.011.293,1.181,1.113a1.23,1.23,0,0,0,1.444,1.105,1.2,1.2,0,0,0,.976-1.469,1.155,1.155,0,0,0-1.032-.948,9.5,9.5,0,0,1-1.076-.17,3.2,3.2,0,0,1-2.349-2.878,3.132,3.132,0,0,1,1.67-3.123c.318-.187.579-.308.621-.767a1,1,0,0,1,1.947-.017.95.95,0,0,0,.613.772A3.193,3.193,0,0,1,195.181,450.614Z" transform="translate(-50.75 -198.161)" fill="#54aa13"/>
  </g>
</svg>
