<svg xmlns="http://www.w3.org/2000/svg" width="88.783" height="86" viewBox="0 0 88.783 86">
  <g id="Grupo_128210" data-name="Grupo 128210" transform="translate(-689.667 -421.988)">
    <path id="Trazado_190822" data-name="Trazado 190822" d="M821.691,532.358c4.418-.945,8.166-3.518,12.03-5.856a17.77,17.77,0,0,1,9.374-2.679,4.876,4.876,0,0,1,5.065,4.979c.022,4.351.046,8.7-.008,13.052a13.4,13.4,0,0,1-12.4,13.078,13.138,13.138,0,0,1-13.99-11.483A107.078,107.078,0,0,1,821.691,532.358Zm18.283,10.151a5.4,5.4,0,0,1-5.067,3.4,5.482,5.482,0,0,1-5.071-3.4l-2.573,1.331a8.273,8.273,0,0,0,8.408,5.011,8,8,0,0,0,6.837-5.07Zm-11.047-5.329a1.472,1.472,0,1,0-1.487,1.461A1.488,1.488,0,0,0,828.927,537.179Zm13.312,1.461a1.475,1.475,0,1,0-1.461-1.485A1.491,1.491,0,0,0,842.239,538.64Z" transform="translate(-99.321 -76.681)" fill="#30610c"/>
    <path id="Trazado_190823" data-name="Trazado 190823" d="M787.243,485.437c-.481-1.828-1.078-3.745-1.482-5.7a8.624,8.624,0,0,1,5.3-9.9c5.087-1.936,10.2-3.809,15.372-5.508a14.333,14.333,0,0,1,15.392,4.736c.329.408.654.821.956,1.248a3.915,3.915,0,0,0,3.146,2.079,4.555,4.555,0,0,1,4,4.882,29.145,29.145,0,0,1-1.654,8.218l-4.165-1.248a22.374,22.374,0,0,0-.362-2.786,7.805,7.805,0,0,0-7.584-5.9,22.177,22.177,0,0,0-12.41,3.9,31.677,31.677,0,0,1-8.443,4.3c-1.317.366-2.711.442-4.056.716C789.945,484.741,788.656,485.093,787.243,485.437Z" transform="translate(-72.217 -31.386)" fill="#30610c"/>
    <path id="Trazado_190824" data-name="Trazado 190824" d="M719.56,424.971v5.842H713.7v5.941h-5.905v8.864h11.733c.069,1.024.133,1.962.2,2.953H701.884V421.988h32.437c.017.239.051.5.052.764,0,3.149-.013,6.3.016,9.446a.913.913,0,0,1-.72,1.058c-1.716.569-3.41,1.206-5.2,1.847V424.971Z" transform="translate(-9.2)" fill="#30610c"/>
    <path id="Trazado_190825" data-name="Trazado 190825" d="M953.981,637.6h2v-2.932h3.052a44.748,44.748,0,0,0-.326-5.735,3.959,3.959,0,0,0-3.416-3.113c-2.268-.469-2.359-.569-2.221-2.9,2.142-.557,2.73-.021,2.984,2.765h2.8c.411-2.552-.286-4.048-2.478-5.454a1.021,1.021,0,0,1-.361-.721c-.044-.854-.017-1.712-.017-2.613h-2.924V619.8h-2.956c0,1.758-.111,3.425.029,5.071A4.032,4.032,0,0,0,953.8,628.6c2.156.1,2.4,1.326,2.11,2.98-2.336.357-2.751-.032-2.917-2.8h-2.8a4.712,4.712,0,0,0,2.357,5.392,1.516,1.516,0,0,1,.467.935,7.416,7.416,0,0,1,.018,1.356c-.328-.312-.543-.5-.745-.712a22.451,22.451,0,0,0-9.806-6.033,1.533,1.533,0,0,1-1.266-1.665A13.32,13.32,0,1,1,957,640.335c-.776.156-1.327.078-1.707-.74A16.789,16.789,0,0,0,953.981,637.6Z" transform="translate(-189.396 -144.504)" fill="#30610c"/>
    <path id="Trazado_190826" data-name="Trazado 190826" d="M919.933,710.674H893.35a3.847,3.847,0,0,1,.26-.56q6.305-9.191,12.611-18.383a.724.724,0,0,1,1.043-.344,20.766,20.766,0,0,1,12.7,18.831C919.964,710.338,919.948,710.459,919.933,710.674Z" transform="translate(-153.372 -202.782)" fill="#30610c"/>
    <path id="Trazado_190827" data-name="Trazado 190827" d="M776.322,710.686H749.644a19,19,0,0,1,1.082-6.82,20.488,20.488,0,0,1,11.455-12.387c.5-.225.831-.266,1.21.291q6.3,9.251,12.659,18.463C776.12,710.334,776.177,710.443,776.322,710.686Z" transform="translate(-45.158 -202.807)" fill="#30610c"/>
    <path id="Trazado_190828" data-name="Trazado 190828" d="M700.035,650.006l-6.712-5.6c-.45-.375-.908-.741-1.343-1.132a6.5,6.5,0,0,1-1.239-8.537,6.687,6.687,0,0,1,8.485-2.331,1.605,1.605,0,0,0,1.6.005,6.67,6.67,0,0,1,8.481,2.326,6.439,6.439,0,0,1-1.243,8.529C705.441,645.547,702.743,647.74,700.035,650.006Z" transform="translate(0 -157.943)" fill="#30610c"/>
    <path id="Trazado_190829" data-name="Trazado 190829" d="M983.923,451.913h7.361a13.29,13.29,0,0,1,.124,8.439.856.856,0,0,1-.666.41q-3.138.047-6.276,0a.861.861,0,0,1-.673-.4A13.3,13.3,0,0,1,983.923,451.913Z" transform="translate(-221.004 -22.533)" fill="#30610c"/>
    <path id="Trazado_190830" data-name="Trazado 190830" d="M863.258,658.468c.2.962.411,1.825.542,2.7a.817.817,0,0,1-.357.628c-1.593.988-3.2,1.962-4.827,2.886a1.169,1.169,0,0,1-.979-.025c-1.6-.912-3.181-1.868-4.745-2.845a.9.9,0,0,1-.385-.693c.115-.847.325-1.682.526-2.644A16.217,16.217,0,0,0,863.258,658.468Z" transform="translate(-122.616 -178.067)" fill="#30610c"/>
    <path id="Trazado_190831" data-name="Trazado 190831" d="M827.484,683.711l-7.911,4.533-3.9-5.676c1.746-.419,3.4-.718,4.987-1.227a4,4,0,0,1,4.02.647A28.522,28.522,0,0,0,827.484,683.711Z" transform="translate(-94.879 -195.09)" fill="#30610c"/>
    <path id="Trazado_190832" data-name="Trazado 190832" d="M899.05,682.231l-3.9,5.687-7.913-4.532c1.531-.92,2.917-1.771,4.325-2.581a1.317,1.317,0,0,1,.867-.132C894.582,681.157,896.726,681.679,899.05,682.231Z" transform="translate(-148.769 -194.768)" fill="#30610c"/>
    <path id="Trazado_190833" data-name="Trazado 190833" d="M863.653,734.011h3.714c.476,1.57.972,3.148,1.415,4.74a1.12,1.12,0,0,1-.256.735c-.608.925-1.242,1.832-1.872,2.743a1.269,1.269,0,0,1-2.264.028c-.56-.808-1.064-1.663-1.685-2.421a1.716,1.716,0,0,1-.268-1.855C862.885,736.676,863.25,735.344,863.653,734.011Z" transform="translate(-129.98 -234.95)" fill="#30610c"/>
    <path id="Trazado_190834" data-name="Trazado 190834" d="M1028.629,451.792c1.311,0,2.534-.021,3.755.021a.8.8,0,0,1,.557.449,11.113,11.113,0,0,1,0,7.954.875.875,0,0,1-.647.448c-1.166.045-2.335.021-3.654.021A17.053,17.053,0,0,0,1028.629,451.792Z" transform="translate(-255.235 -22.439)" fill="#30610c"/>
    <path id="Trazado_190835" data-name="Trazado 190835" d="M958.218,451.792a17.064,17.064,0,0,0,0,8.892c-1.3,0-2.521.021-3.738-.021a.806.806,0,0,1-.555-.456,10.98,10.98,0,0,1-.014-7.947.8.8,0,0,1,.557-.447C955.689,451.772,956.912,451.792,958.218,451.792Z" transform="translate(-198.419 -22.439)" fill="#30610c"/>
    <path id="Trazado_190836" data-name="Trazado 190836" d="M941.338,568.893v-8.729c1.784-.424,4.342,1.475,4.472,4A4.4,4.4,0,0,1,941.338,568.893Z" transform="translate(-189.506 -104)" fill="#30610c"/>
    <path id="Trazado_190837" data-name="Trazado 190837" d="M795.892,568.81a4.407,4.407,0,0,1,0-8.815Z" transform="translate(-76.687 -103.918)" fill="#30610c"/>
    <path id="Trazado_190838" data-name="Trazado 190838" d="M859.48,701.478c1.216-.694,2.329-1.346,3.462-1.961a.951.951,0,0,1,.75-.1c1.215.65,2.4,1.354,3.628,2.057-.557,1.046-1.051,2.038-1.617,2.987a1.1,1.1,0,0,1-.777.45,29.585,29.585,0,0,1-3.044,0,1.1,1.1,0,0,1-.781-.442C860.535,703.522,860.041,702.529,859.48,701.478Z" transform="translate(-127.868 -208.869)" fill="#30610c"/>
    <path id="Trazado_190839" data-name="Trazado 190839" d="M785.694,456.735V445.981h2.913V447.7c0,1.943-.025,3.888.014,5.83a1.412,1.412,0,0,1-.723,1.425A22.852,22.852,0,0,0,785.694,456.735Z" transform="translate(-72.308 -18.067)" fill="#30610c"/>
    <path id="Trazado_190840" data-name="Trazado 190840" d="M764.593,478.886h-2.847v-8.778h2.847Z" transform="translate(-54.275 -36.234)" fill="#30610c"/>
    <path id="Trazado_190841" data-name="Trazado 190841" d="M841.937,720.668l-3.636-5.286,2.656-1.54c.636,1.212,1.313,2.365,1.835,3.584.144.336-.165.874-.285,1.315C842.353,719.3,842.179,719.854,841.937,720.668Z" transform="translate(-111.92 -219.763)" fill="#30610c"/>
    <path id="Trazado_190842" data-name="Trazado 190842" d="M899.046,715.513l-3.509,5.1c-1.815-2.49-.494-4.5.926-6.585Z" transform="translate(-154.353 -219.906)" fill="#30610c"/>
    <path id="Trazado_190843" data-name="Trazado 190843" d="M990.868,499.975h5.025l-2.475,3.778Z" transform="translate(-226.802 -58.723)" fill="#30610c"/>
    <path id="Trazado_190844" data-name="Trazado 190844" d="M996.048,428.061h-5l2.485-3.794Z" transform="translate(-226.937 -1.716)" fill="#30610c"/>
    <path id="Trazado_190845" data-name="Trazado 190845" d="M1016.169,424.28a12.028,12.028,0,0,1,5.485,3.816c-1.217,0-2.26.013-3.3-.017-.12,0-.262-.229-.344-.378C1017.421,426.626,1016.847,425.545,1016.169,424.28Z" transform="translate(-245.853 -1.726)" fill="#30610c"/>
    <path id="Trazado_190846" data-name="Trazado 190846" d="M963.819,428.156a11.947,11.947,0,0,1,5.476-3.816c-.678,1.278-1.277,2.426-1.9,3.559a.6.6,0,0,1-.437.246C965.984,428.166,965.013,428.156,963.819,428.156Z" transform="translate(-206.434 -1.771)" fill="#30610c"/>
    <path id="Trazado_190847" data-name="Trazado 190847" d="M1021.758,499.8a9.8,9.8,0,0,1-5.287,3.708c.61-1.148,1.194-2.28,1.82-3.388a.8.8,0,0,1,.584-.3C1019.8,499.785,1020.718,499.8,1021.758,499.8Z" transform="translate(-246.08 -58.59)" fill="#30610c"/>
    <path id="Trazado_190848" data-name="Trazado 190848" d="M737.794,493.978h2.845v2.868h-2.845Z" transform="translate(-36.239 -54.208)" fill="#30610c"/>
    <path id="Trazado_190849" data-name="Trazado 190849" d="M975.322,503.42c-2.312-.151-2.747-1.991-3.448-3.612.921-.224,1.59-.122,1.99.935A21.126,21.126,0,0,0,975.322,503.42Z" transform="translate(-212.499 -58.524)" fill="#30610c"/>
  </g>
</svg>
