<svg xmlns="http://www.w3.org/2000/svg" width="92" height="92" viewBox="0 0 92 92">
  <g id="Grupo_111845" data-name="Grupo 111845" transform="translate(-210 -210)">
    <g id="Grupo_86382" data-name="Grupo 86382">
      <path id="Trazado_172123" data-name="Trazado 172123" d="M46,0A46,46,0,1,1,0,46,46,46,0,0,1,46,0Z" transform="translate(210 210)" fill="#54aa13"/>
      <path id="Trazado_163605" data-name="Trazado 163605" d="M39.292,0A39.292,39.292,0,1,1,0,39.292,39.292,39.292,0,0,1,39.292,0Z" transform="translate(217 216.708)" fill="#f1ffe6"/>
      <g id="Grupo_111847" data-name="Grupo 111847" transform="translate(-352.277 72.14)">
        <path id="Trazado_172281" data-name="Trazado 172281" d="M591.752,206.686c-1.453,0-2.836,0-4.22,0-.97,0-1.254-.285-1.254-1.255q0-24.294,0-48.586c0-.979.28-1.265,1.242-1.265q17.931,0,35.862,0c.925,0,1.215.3,1.216,1.235,0,1.386,0,2.772,0,4.241h.57c1.292,0,2.585-.008,3.877,0a.925.925,0,0,1,1.027,1.023c0,.132,0,.266,0,.4v48.244c0,1.213-.222,1.438-1.415,1.438h-35.52c-1.156,0-1.387-.235-1.388-1.407Zm31-49.241h-34.6V204.83h34.6Zm1.85,5.458v42.417c0,1.121-.246,1.366-1.372,1.366h-29.6v3.621h34.593V162.9Z"/>
        <path id="Trazado_172282" data-name="Trazado 172282" d="M623.787,158.481v47.385h-34.6V158.481Zm-17.355,43.765h14.142c1.176,0,1.413-.231,1.413-1.383V187.174c0-1.1-.251-1.355-1.326-1.355h-28.4c-1.038,0-1.3.266-1.3,1.325q0,6.9,0,13.8c0,1.038.267,1.3,1.325,1.3Zm-11.817-30.13a11.86,11.86,0,1,0,11.872-11.847A11.889,11.889,0,0,0,594.615,172.116Zm-.94-11.819h-1.761v1.751h1.761Zm1.884-.005v1.762h1.751v-1.762Zm20.066,1.768h1.765v-1.755h-1.765Zm5.424-1.755h-1.755v1.756h1.755Zm-27.385,23.661v-1.755h-1.759v1.755Zm3.643.007V182.2h-1.744v1.775Zm18.341-1.793v1.775h1.734v-1.775Zm5.381,1.793V182.2h-1.744v1.775Z" transform="translate(-1.038 -1.036)" fill="#fdffe6"/>
        <path id="Trazado_172283" data-name="Trazado 172283" d="M628.677,166.969h3.617v47.4H597.7v-3.621h29.6c1.126,0,1.372-.245,1.372-1.366V166.969Z" transform="translate(-4.079 -4.067)" fill="#fdffe6"/>
        <path id="Trazado_172284" data-name="Trazado 172284" d="M607.42,217.425H593.278c-1.058,0-1.325-.261-1.325-1.3q0-6.9,0-13.8c0-1.059.26-1.325,1.3-1.325h28.4c1.075,0,1.326.257,1.326,1.355v13.689c0,1.152-.237,1.383-1.413,1.383Zm13.707-14.574H593.812v12.711h27.315Z" transform="translate(-2.026 -16.215)"/>
        <path id="Trazado_172286" data-name="Trazado 172286" d="M595.191,161.306v1.751H593.43v-1.751Z" transform="translate(-2.554 -2.045)"/>
        <path id="Trazado_172287" data-name="Trazado 172287" d="M599.1,161.3h1.751v1.762H599.1Z" transform="translate(-4.577 -2.042)"/>
        <path id="Trazado_172288" data-name="Trazado 172288" d="M630.306,163.073v-1.755h1.765v1.755Z" transform="translate(-15.719 -2.049)"/>
        <path id="Trazado_172289" data-name="Trazado 172289" d="M637.767,161.318v1.756h-1.755v-1.756Z" transform="translate(-17.756 -2.049)"/>
        <path id="Trazado_172290" data-name="Trazado 172290" d="M595.175,197.143h-1.759v-1.755h1.759Z" transform="translate(-2.549 -14.212)"/>
        <path id="Trazado_172291" data-name="Trazado 172291" d="M600.847,197.143H599.1v-1.775h1.744Z" transform="translate(-4.579 -14.205)"/>
        <path id="Trazado_172292" data-name="Trazado 172292" d="M630.341,195.34h1.734v1.775h-1.734Z" transform="translate(-15.731 -14.195)"/>
        <path id="Trazado_172293" data-name="Trazado 172293" d="M637.742,197.143H636v-1.775h1.744Z" transform="translate(-17.751 -14.205)"/>
        <path id="Trazado_172294" data-name="Trazado 172294" d="M622.159,203.88v12.711H594.844V203.88Zm-1.829,1.836H596.68v1.759h23.65Zm0,3.65H596.68v1.759H620.33Zm0,3.653h-23.67v1.753h23.67Z" transform="translate(-3.058 -17.244)" fill="#f9cb3a"/>
        <path id="Trazado_172296" data-name="Trazado 172296" d="M621.35,206.735v1.759H597.7v-1.759Z" transform="translate(-4.078 -18.263)"/>
        <path id="Trazado_172297" data-name="Trazado 172297" d="M621.35,212.412v1.759H597.7v-1.759Z" transform="translate(-4.078 -20.29)"/>
        <path id="Trazado_172298" data-name="Trazado 172298" d="M621.343,218.094v1.753H597.673v-1.753Z" transform="translate(-4.068 -22.319)"/>
        <path id="Trazado_176509" data-name="Trazado 176509" d="M607.42,217.425H593.278c-1.058,0-1.325-.261-1.325-1.3q0-6.9,0-13.8c0-1.059.26-1.325,1.3-1.325h28.4c1.075,0,1.326.257,1.326,1.355v13.689c0,1.152-.237,1.383-1.413,1.383Zm13.707-14.574H593.812v12.711h27.315Z" transform="translate(-2.026 -38.133)"/>
        <path id="Trazado_176510" data-name="Trazado 176510" d="M622.159,203.88v12.711H594.844V203.88Zm-1.829,1.836H596.68v1.759h23.65Zm0,3.65H596.68v1.759H620.33Zm0,3.653h-23.67v1.753h23.67Z" transform="translate(-3.058 -39.162)" fill="#f9cb3a"/>
        <path id="Trazado_176511" data-name="Trazado 176511" d="M621.35,206.735v1.759H597.7v-1.759Z" transform="translate(-4.078 -40.182)"/>
        <path id="Trazado_176512" data-name="Trazado 176512" d="M621.35,212.412v1.759H597.7v-1.759Z" transform="translate(-4.078 -42.208)"/>
        <path id="Trazado_176513" data-name="Trazado 176513" d="M621.343,218.094v1.753H597.673v-1.753Z" transform="translate(-4.068 -44.237)"/>
      </g>
    </g>
  </g>
</svg>
