<svg xmlns="http://www.w3.org/2000/svg" xmlns:xlink="http://www.w3.org/1999/xlink" width="259.938" height="278.675" viewBox="0 0 259.938 278.675">
  <defs>
    <filter id="paris-4345139_1920" x="0" y="0" width="259.938" height="278.675" filterUnits="userSpaceOnUse">
      <feOffset dy="3" input="SourceAlpha"/>
      <feGaussianBlur stdDeviation="3" result="blur"/>
      <feFlood flood-opacity="0.161"/>
      <feComposite operator="in" in2="blur"/>
      <feComposite in="SourceGraphic"/>
    </filter>
  </defs>
  <g id="Grupo_128236" data-name="Grupo 128236" transform="translate(5975.698 10738.078)">
    <g transform="matrix(1, 0, 0, 1, -5975.7, -10738.08)" filter="url(#paris-4345139_1920)">
      <rect id="paris-4345139_1920-2" data-name="paris-4345139_1920" width="241.938" height="260.674" rx="20" transform="translate(9 6)" fill="#54aa13"/>
    </g>
    <g id="Grupo_128233" data-name="Grupo 128233" transform="translate(-6780.245 -12098.753)">
      <g id="Grupo_128214" data-name="Grupo 128214" transform="translate(896 1434)">
        <path id="Trazado_172034" data-name="Trazado 172034" d="M643.7,159.662c2.3.779,3.166,2.4,3.107,4.789-.1,3.848-.023,7.7-.027,11.552,0,.976-.415,1.542-1.158,1.619-.819.085-1.4-.536-1.405-1.54q-.01-5.948,0-11.895c0-.228.013-.458-.008-.685a1.266,1.266,0,0,0-1.252-1.265,6.794,6.794,0,0,0-.685-.008q-18.614,0-37.229,0c-1.558,0-1.909.351-1.909,1.9q0,22.5,0,45.01c0,1.5.368,1.863,1.867,1.863h37.4c1.432,0,1.814-.387,1.814-1.831q0-13.562,0-27.126c0-1.485.37-1.849,1.878-1.849q3.38,0,6.761,0c1.014,0,1.6.458,1.625,1.241.026.816-.585,1.32-1.63,1.323-1.99.005-3.98,0-6.019,0V187.9h.966c1.74,0,3.481-.01,5.222,0a1.29,1.29,0,1,1,.011,2.558c-2.048.014-4.1,0-6.2,0V195.6h.783c1.769,0,3.538-.007,5.306,0,.979.005,1.575.518,1.556,1.309-.018.761-.591,1.249-1.527,1.253-2.02.009-4.041,0-6.115,0V203.3h5.393c.286,0,.572-.01.857,0a1.286,1.286,0,1,1-.039,2.559c-1.739.016-3.48.005-5.221.005h-1.057v5.134h5.25a11.124,11.124,0,0,1,1.283.016,1.2,1.2,0,0,1,1.167,1.245,1.213,1.213,0,0,1-1.127,1.285,4.481,4.481,0,0,1-.768.019h-16.02v5.134h15.969a5.8,5.8,0,0,1,.769.012,1.239,1.239,0,0,1,1.182,1.24,1.264,1.264,0,0,1-1.207,1.3,7.509,7.509,0,0,1-.77.01H636.56v8.044h21.262c1.421,0,1.8-.391,1.8-1.843q0-27.682,0-55.363c0-1.524-.345-1.877-1.844-1.881-2.2,0-4.394,0-6.59,0a3.487,3.487,0,0,1-.766-.044,1.2,1.2,0,0,1-1.048-1.345,1.131,1.131,0,0,1,1.159-1.148c2.8-.019,5.593-.072,8.384.042a3.7,3.7,0,0,1,3.263,3.528c.017.284.01.57.01.854q0,27.639,0,55.279c0,3.028-1.474,4.491-4.525,4.491q-10.056,0-20.112,0h-.984v7.7h.766q6.418,0,12.838,0c1.33,0,1.741-.412,1.747-1.726,0-.6,0-1.2,0-1.8.01-1,.476-1.592,1.261-1.6s1.293.582,1.3,1.563c.009.742.012,1.483,0,2.225a3.83,3.83,0,0,1-3.907,3.9c-4.337.021-8.673.007-13.01.007h-1.055c0,.372,0,.7,0,1.03a3.865,3.865,0,0,1-4.142,4.1q-10.141.008-20.283,0-11.3,0-22.6,0c-2.8,0-4.333-1.531-4.333-4.339q0-31.619,0-63.236c0-2.826,1.5-4.337,4.316-4.347q3.337-.012,6.675,0c.957.007,1.5.482,1.508,1.258.007.807-.559,1.3-1.566,1.3-2.2.012-4.393,0-6.59.005-1.39,0-1.775.391-1.775,1.777q0,31.619,0,63.236c0,1.378.4,1.775,1.782,1.775q21.353,0,42.707,0c1.287,0,1.725-.418,1.726-1.661q0-14.462,0-28.923c0-.141-.012-.284-.024-.564H604.954c-2.868,0-4.386-1.513-4.386-4.372,0-14.918.025-29.836-.027-44.753-.009-2.385.814-4.006,3.108-4.786Z" transform="translate(-585.161 -159.662)" fill="#fff"/>
        <path id="Trazado_172035" data-name="Trazado 172035" d="M621.87,207.964q-8.085,0-16.171,0c-1.385,0-1.8-.4-1.78-1.773.027-1.937-.027-3.884.162-5.807a7.286,7.286,0,0,1,4.356-6.116c1.407-.674,2.909-1.147,4.357-1.738a4.724,4.724,0,0,0,2.72-1.944,1.057,1.057,0,0,0-.3-1.581,9.529,9.529,0,0,1-3.943-7.2,41.737,41.737,0,0,1,.238-8.853c.894-5.2,5.774-8.591,11.253-8.3a10.549,10.549,0,0,1,9.73,9.416,47.771,47.771,0,0,1-.038,8.191,9.616,9.616,0,0,1-3.976,6.827c-.528.411-.636.832-.288,1.278a6.244,6.244,0,0,0,1.6,1.583,18.366,18.366,0,0,0,2.673,1.113c.819.326,1.656.613,2.459.975a7.918,7.918,0,0,1,4.912,7.31c.089,1.735.045,3.479.025,5.217-.011.974-.53,1.394-1.641,1.4Q630.04,207.968,621.87,207.964Zm-15.26-2.626h30.652c0-1.394.066-2.734-.014-4.066a5.468,5.468,0,0,0-3.715-5.059c-.741-.295-1.489-.572-2.24-.837-2.45-.864-4.847-1.793-5.749-4.628a11.254,11.254,0,0,1-7.266.036,7.017,7.017,0,0,1-4.584,4.154c-1.328.513-2.68.964-3.978,1.541a4.855,4.855,0,0,0-3.081,4.2C606.51,202.2,606.61,203.74,606.61,205.338Zm23.563-27.291-.1-.007c0-.912.025-1.826,0-2.737a8.181,8.181,0,0,0-7.623-8.087,8.027,8.027,0,0,0-8.657,7.407,38.545,38.545,0,0,0,0,6.746,8.125,8.125,0,0,0,16.025,1.093A32.028,32.028,0,0,0,630.174,178.047Z" transform="translate(-583.372 -159.187)" fill="#fff"/>
      </g>
    </g>
  </g>
</svg>
