<svg xmlns="http://www.w3.org/2000/svg" width="70.021" height="70" viewBox="0 0 70.021 70">
  <g id="Grupo_127245" data-name="Grupo 127245" transform="translate(-459.608 272.054)">
    <g id="Grupo_79880" data-name="Grupo 79880" transform="translate(459.608 -272.054)">
      <path id="Trazado_146810" data-name="Trazado 146810" d="M514.455-236.98l4.632,1.845c.752-.762,1.6-1.628,2.452-2.484.818-.817,1.346-.818,2.165-.006q1.527,1.515,3.042,3.043a1.23,1.23,0,0,1-.007,2.062c-.855.86-1.727,1.7-2.541,2.506l1.851,4.627c.65,0,1.421-.008,2.193,0,.951.012,1.374.432,1.38,1.387q.015,2.114,0,4.228c-.007.95-.434,1.369-1.388,1.38-.751.009-1.5,0-2.186,0l-1.842,4.621c.77.761,1.635,1.608,2.489,2.465.813.817.81,1.344-.006,2.166q-1.515,1.526-3.042,3.041c-.75.74-1.307.735-2.061-.018-.859-.856-1.7-1.728-2.5-2.536l-4.633,1.851c0,1,0,2.108,0,3.22,0,1.134-.393,1.518-1.542,1.521q-1.933.005-3.865,0c-1.231,0-1.584-.362-1.593-1.615,0-.213,0-.426,0-.717H467.234c-1.492,0-1.79-.3-1.79-1.784,0-1.311,0-2.623,0-4.05h-.789c-1.24,0-2.479.011-3.719,0a1.186,1.186,0,0,1-1.325-1.3c-.006-.17,0-.34,0-.51v-58.179c0-1.576.272-1.843,1.876-1.843h46.525c1.479,0,1.776.3,1.776,1.8,0,1.31,0,2.621,0,4.035,1.068,0,2.1,0,3.136,0,1.143,0,1.53.388,1.53,1.532q0,13.452,0,26.9Zm-52.477,24.425h.915c10.744,0,21.488-.025,32.232.033a2.83,2.83,0,0,0,2.553-1.307l-1.819-4.559c-.691,0-1.443.008-2.195,0-.95-.013-1.371-.434-1.377-1.39q-.015-2.114,0-4.228c.007-.952.43-1.367,1.387-1.378.771-.009,1.542,0,2.18,0l1.857-4.632c-.819-.8-1.691-1.648-2.548-2.507a1.227,1.227,0,0,1,0-2.061c.991-1,1.992-2,2.991-2.99.88-.877,1.38-.875,2.271.013.84.837,1.674,1.679,2.415,2.424l4.554-1.817v-32.726h-45.42Zm60.6-22.821c-.815.82-1.611,1.631-2.418,2.431a1.255,1.255,0,0,1-1.928.2,14.033,14.033,0,0,0-4.833-1.947c-1.035-.211-1.278-.519-1.281-1.592,0-1.014,0-2.027,0-3.062h-2.333c0,1.038,0,2.03,0,3.022,0,1.128-.226,1.413-1.314,1.639a14.1,14.1,0,0,0-4.768,1.919,1.279,1.279,0,0,1-1.985-.208c-.8-.8-1.595-1.61-2.354-2.378l-1.9,1.836c.821.815,1.632,1.611,2.432,2.418.668.674.733,1.1.238,1.867a14.168,14.168,0,0,0-2.011,5.038,1.2,1.2,0,0,1-1.35,1.133c-.7.011-1.4,0-2.11,0v2.274a.949.949,0,0,0,.182.05c.583.005,1.167.007,1.75.009,1.029.006,1.347.255,1.548,1.245a14.154,14.154,0,0,0,1.9,4.777c.6.956.564,1.31-.222,2.1s-1.574,1.562-2.316,2.3l1.838,1.911c.794-.807,1.571-1.6,2.357-2.39.737-.738,1.134-.8,1.979-.252a14.14,14.14,0,0,0,4.834,1.946c1.035.216,1.274.519,1.277,1.6,0,1.013,0,2.027,0,3.057h2.333c0-1.088,0-2.129,0-3.17.005-.934.28-1.286,1.172-1.463a14.187,14.187,0,0,0,4.972-1.987,1.233,1.233,0,0,1,1.871.2c.823.813,1.635,1.639,2.413,2.421l1.9-1.836c-.823-.812-1.636-1.606-2.439-2.411-.672-.674-.735-1.094-.24-1.864a14.289,14.289,0,0,0,2.011-5.039c.164-.839.537-1.125,1.421-1.134.674-.007,1.348,0,2.04,0v-2.261c-.067-.034-.087-.053-.108-.053-.656-.008-1.312-.009-1.968-.02a1.21,1.21,0,0,1-1.392-1.17,14.191,14.191,0,0,0-1.986-4.972c-.52-.805-.457-1.215.249-1.921.8-.8,1.614-1.591,2.387-2.35ZM494.3-210.17H467.814v3.4h29.71Zm15.536-53.683v22.074h2.249v-22.074Zm-6.709,55.329-1.832,1.735h6.178Z" transform="translate(-459.608 272.054)" fill="#54aa13"/>
      <path id="Trazado_146811" data-name="Trazado 146811" d="M478.735-200.029q-4.74,0-9.481,0c-1.184,0-1.557-.38-1.557-1.578q0-7.765,0-15.531c0-1.185.377-1.556,1.577-1.556q9.516,0,19.034,0c1.185,0,1.558.378,1.558,1.576q0,7.765,0,15.53c0,1.183-.38,1.558-1.578,1.558Q483.512-200.026,478.735-200.029Zm8.767-16.28H470.09V-202.4H487.5Z" transform="translate(-461.86 257.194)" fill="#54aa13"/>
      <path id="Trazado_146812" data-name="Trazado 146812" d="M486.894-242.234h-17.43c-.219,0-.439.012-.656-.009a1.162,1.162,0,0,1-1.1-1.144,1.162,1.162,0,0,1,1.075-1.17,3.661,3.661,0,0,1,.437-.009H504.66a2.852,2.852,0,0,1,.509.014,1.109,1.109,0,0,1,1.022,1.137,1.1,1.1,0,0,1-.995,1.159,3.871,3.871,0,0,1-.727.021Z" transform="translate(-461.863 264.4)" fill="#54aa13"/>
      <path id="Trazado_146813" data-name="Trazado 146813" d="M486.957-235.767h-17.5a4.144,4.144,0,0,1-.728-.019,1.1,1.1,0,0,1-1.009-1.146,1.1,1.1,0,0,1,1.006-1.149,3.6,3.6,0,0,1,.655-.018H504.53a3.665,3.665,0,0,1,.655.017,1.1,1.1,0,0,1,1.009,1.146,1.1,1.1,0,0,1-1.007,1.149,4,4,0,0,1-.727.02Z" transform="translate(-461.866 262.6)" fill="#54aa13"/>
      <path id="Trazado_146814" data-name="Trazado 146814" d="M486.883-229.3h-17.43a4.066,4.066,0,0,1-.727-.019,1.1,1.1,0,0,1-1.008-1.147,1.1,1.1,0,0,1,1.007-1.148,3.665,3.665,0,0,1,.655-.018h35.152a3.593,3.593,0,0,1,.654.018,1.1,1.1,0,0,1,1.009,1.147,1.1,1.1,0,0,1-1.009,1.148,4.065,4.065,0,0,1-.727.019Z" transform="translate(-461.866 260.799)" fill="#54aa13"/>
      <path id="Trazado_146815" data-name="Trazado 146815" d="M471.92-263.968a5.838,5.838,0,0,1,5.826,5.855,5.843,5.843,0,0,1-5.8,5.81,5.851,5.851,0,0,1-5.865-5.895A5.841,5.841,0,0,1,471.92-263.968Zm-3.5,5.849a3.512,3.512,0,0,0,3.552,3.478,3.509,3.509,0,0,0,3.44-3.514,3.51,3.51,0,0,0-3.551-3.477A3.511,3.511,0,0,0,468.417-258.119Z" transform="translate(-461.411 269.802)" fill="#54aa13"/>
      <path id="Trazado_146816" data-name="Trazado 146816" d="M498.256-261.638H487.171a3.6,3.6,0,0,1-.655-.018,1.1,1.1,0,0,1-1.008-1.149,1.1,1.1,0,0,1,1.007-1.147,3.6,3.6,0,0,1,.655-.018h22.315a3.668,3.668,0,0,1,.655.017,1.1,1.1,0,0,1,1.009,1.147,1.105,1.105,0,0,1-1.008,1.149,3.6,3.6,0,0,1-.655.018Z" transform="translate(-466.821 269.804)" fill="#54aa13"/>
      <path id="Trazado_146817" data-name="Trazado 146817" d="M498.388-257.5q5.542,0,11.085,0a3.332,3.332,0,0,1,.727.028,1.1,1.1,0,0,1,.948,1.127,1.1,1.1,0,0,1-.929,1.144,3.071,3.071,0,0,1-.726.032q-11.158,0-22.316,0a5.6,5.6,0,0,1-.583-.009,1.162,1.162,0,0,1-1.1-1.148,1.158,1.158,0,0,1,1.079-1.165,6.014,6.014,0,0,1,.656-.011Z" transform="translate(-466.817 268.003)" fill="#54aa13"/>
      <path id="Trazado_146818" data-name="Trazado 146818" d="M498.329-251.036h11.158a3.592,3.592,0,0,1,.654.018,1.1,1.1,0,0,1,1.008,1.148,1.1,1.1,0,0,1-1.009,1.148,3.6,3.6,0,0,1-.655.018H487.17a3.6,3.6,0,0,1-.655-.018,1.1,1.1,0,0,1-1.007-1.149,1.1,1.1,0,0,1,1.008-1.147,3.6,3.6,0,0,1,.655-.018Z" transform="translate(-466.821 266.202)" fill="#54aa13"/>
      <path id="Trazado_146819" data-name="Trazado 146819" d="M480.612-225.165H491.7a3.591,3.591,0,0,1,.654.018A1.1,1.1,0,0,1,493.359-224a1.1,1.1,0,0,1-1.009,1.148,3.6,3.6,0,0,1-.655.018H469.38a3.6,3.6,0,0,1-.655-.018A1.1,1.1,0,0,1,467.718-224a1.1,1.1,0,0,1,1.009-1.146,3.592,3.592,0,0,1,.654-.018Z" transform="translate(-461.866 258.998)" fill="#54aa13"/>
      <path id="Trazado_146820" data-name="Trazado 146820" d="M527.605-197.514a8.174,8.174,0,0,1-8.153-8.23,8.184,8.184,0,0,1,8.142-8.1,8.187,8.187,0,0,1,8.191,8.271A8.18,8.18,0,0,1,527.605-197.514Zm1.152-2.415v-11.466h-2.276v11.466Zm-4.668-10.317c-3.333,2.456-2.731,7.4,0,9.078Zm7.058,9.159c3.524-2.721,2.515-7.654,0-9.087Z" transform="translate(-476.273 255.843)" fill="#54aa13"/>
    </g>
  </g>
</svg>
