<svg xmlns="http://www.w3.org/2000/svg" width="59.882" height="86" viewBox="0 0 59.882 86">
  <g id="Grupo_128221" data-name="Grupo 128221" transform="translate(-165.205 -231.584)">
    <path id="Trazado_190798" data-name="Trazado 190798" d="M187.867,317.548a34.51,34.51,0,0,1-9.156-3.733,28.759,28.759,0,0,1-10.425-10.071,19.858,19.858,0,0,1-.867-19.738c1.722-3.572,3.909-6.922,5.918-10.354,1.875-3.2,3.664-6.454,4.163-10.189A50.227,50.227,0,0,0,177.66,258c0-.131,0-.261,0-.549a14.808,14.808,0,0,1,4.563,4.838,12.281,12.281,0,0,1,1.1,8.381c-.382,2.248-.84,4.483-1.209,6.733-.9,5.5,2.534,8.27,6.756,8.7,6.082.627,9.2-3.71,9.782-7.686.6-4.083-.437-7.837-2.111-11.473-1.522-3.306-3.17-6.554-4.678-9.866a20.933,20.933,0,0,1-1.993-8.508,18.355,18.355,0,0,1,2.268-8.84,36.259,36.259,0,0,1,5.98-7.963,1.838,1.838,0,0,1,.238-.183c.146,1.617.25,3.212.439,4.8a28.673,28.673,0,0,0,6.381,15.068c2.845,3.464,5.949,6.718,8.974,10.031,4.115,4.508,7.572,9.4,9.3,15.354a43.372,43.372,0,0,1,1.5,8.638,30.23,30.23,0,0,1-2.079,14.5A29.312,29.312,0,0,1,202.8,317.548a2.692,2.692,0,0,1-.341.036c2.463-4.578,1.928-8.619-2.223-11.808a8.782,8.782,0,0,0-13.688,5.333C186.058,313.348,186.729,315.384,187.867,317.548Z" transform="translate(0 0)" fill="#30610c"/>
  </g>
</svg>
