<svg xmlns="http://www.w3.org/2000/svg" width="314" height="192.979" viewBox="0 0 314 192.979">
  <g id="Grupo_128238" data-name="Grupo 128238" transform="translate(-230 -1909)">
    <g id="Grupo_111246" data-name="Grupo 111246" transform="translate(-582.142 1485.362)">
      <g id="Grupo_111245" data-name="Grupo 111245" transform="translate(820.553 423.637)">
        <g id="Grupo_111212" data-name="Grupo 111212" transform="translate(93.947 22.984)">
          <path id="Trazado_170060" data-name="Trazado 170060" d="M939.429,441.109a49.462,49.462,0,0,0-49.476,49.448v.025c0,27.317,49.476,88.044,49.476,88.044S961.9,551.04,976.513,524.7c7.113-12.739,12.389-25.207,12.389-34.117A49.483,49.483,0,0,0,939.429,441.109Zm0,72.061a23.283,23.283,0,1,1,5.041-.587A21.4,21.4,0,0,1,939.429,513.17Z" transform="translate(-889.953 -441.109)" fill="#b8c1c9"/>
        </g>
        <g id="Grupo_111228" data-name="Grupo 111228" transform="translate(22.283 133.936)">
          <path id="Trazado_170061" data-name="Trazado 170061" d="M929.056,525.454h-53.1v44.96h59.492Z" transform="translate(-822.704 -525.454)" fill="#30610c"/>
          <path id="Trazado_170062" data-name="Trazado 170062" d="M928.989,526.624h-60.18v43.421h66.419Z" transform="translate(-824.959 -525.085)" fill="#132d1a"/>
          <g id="Grupo_111216" data-name="Grupo 111216" transform="translate(78.075 36.663)">
            <g id="Grupo_111215" data-name="Grupo 111215">
              <g id="Grupo_111214" data-name="Grupo 111214">
                <g id="Grupo_111213" data-name="Grupo 111213">
                  <rect id="Rectángulo_36728" data-name="Rectángulo 36728" width="8.184" height="8.297" fill="#b8c1c9"/>
                  <rect id="Rectángulo_36729" data-name="Rectángulo 36729" width="4.953" height="8.297" transform="translate(7.843)" fill="#698574"/>
                </g>
              </g>
            </g>
          </g>
          <g id="Grupo_111220" data-name="Grupo 111220" transform="translate(77.639 26.238)">
            <g id="Grupo_111219" data-name="Grupo 111219">
              <g id="Grupo_111218" data-name="Grupo 111218">
                <g id="Grupo_111217" data-name="Grupo 111217">
                  <rect id="Rectángulo_36730" data-name="Rectángulo 36730" width="13.57" height="10.538" fill="#b8c1c9"/>
                  <rect id="Rectángulo_36731" data-name="Rectángulo 36731" width="3.746" height="8.184" transform="translate(13.23 2.355)" fill="#698574"/>
                </g>
              </g>
            </g>
          </g>
          <rect id="Rectángulo_36732" data-name="Rectángulo 36732" width="19.019" height="8.436" rx="3.206" transform="translate(2.283 39.662)" fill="#b8c1c9"/>
          <path id="Trazado_170063" data-name="Trazado 170063" d="M888.316,565.966a7.63,7.63,0,1,1,7.63,7.63,7.629,7.629,0,0,1-7.63-7.63Z" transform="translate(-818.805 -515.081)" fill="#132d1a"/>
          <path id="Trazado_170064" data-name="Trazado 170064" d="M907.805,565.966a7.63,7.63,0,1,1,7.63,7.63,7.629,7.629,0,0,1-7.63-7.63Z" transform="translate(-812.657 -515.081)" fill="#132d1a"/>
          <path id="Trazado_170065" data-name="Trazado 170065" d="M839.184,565.966a7.63,7.63,0,1,1,7.63,7.63,7.63,7.63,0,0,1-7.63-7.63Z" transform="translate(-834.305 -515.081)" fill="#132d1a"/>
          <path id="Trazado_170066" data-name="Trazado 170066" d="M842.055,565.058a3.848,3.848,0,1,1,3.849,3.849,3.848,3.848,0,0,1-3.849-3.849Z" transform="translate(-833.399 -514.174)" fill="#d3b5a0"/>
          <path id="Trazado_170067" data-name="Trazado 170067" d="M842.055,565.058a3.848,3.848,0,1,1,3.849,3.849,3.848,3.848,0,0,1-3.849-3.849Z" transform="translate(-833.399 -514.174)" fill="#698574"/>
          <path id="Trazado_170068" data-name="Trazado 170068" d="M844.073,564.422a1.193,1.193,0,1,1,1.193,1.193h0A1.193,1.193,0,0,1,844.073,564.422Z" transform="translate(-832.762 -513.537)" fill="#b8c1c9"/>
          <path id="Trazado_170069" data-name="Trazado 170069" d="M843.086,565.8a.462.462,0,1,1,.463.462.462.462,0,0,1-.463-.462Z" transform="translate(-833.074 -512.872)" fill="#b8c1c9"/>
          <path id="Trazado_170070" data-name="Trazado 170070" d="M842.678,563.194a.461.461,0,1,1,.462.462.461.461,0,0,1-.462-.462Z" transform="translate(-833.203 -513.694)" fill="#b8c1c9"/>
          <path id="Trazado_170071" data-name="Trazado 170071" d="M846.538,563.194a.462.462,0,1,1,.462.462.461.461,0,0,1-.462-.462Z" transform="translate(-831.985 -513.694)" fill="#b8c1c9"/>
          <path id="Trazado_170072" data-name="Trazado 170072" d="M846.245,565.8a.462.462,0,1,1,.463.462.462.462,0,0,1-.463-.462Z" transform="translate(-832.077 -512.872)" fill="#b8c1c9"/>
          <path id="Trazado_170073" data-name="Trazado 170073" d="M844.629,562.012a.462.462,0,1,1,.463.462.462.462,0,0,1-.463-.462Z" transform="translate(-832.587 -514.067)" fill="#b8c1c9"/>
          <path id="Trazado_170074" data-name="Trazado 170074" d="M891.077,565.058a3.848,3.848,0,1,1,3.849,3.849,3.848,3.848,0,0,1-3.849-3.849Z" transform="translate(-817.934 -514.174)" fill="#d3b5a0"/>
          <path id="Trazado_170075" data-name="Trazado 170075" d="M891.077,565.058a3.848,3.848,0,1,1,3.849,3.849,3.848,3.848,0,0,1-3.849-3.849Z" transform="translate(-817.934 -514.174)" fill="#698574"/>
          <path id="Trazado_170076" data-name="Trazado 170076" d="M893.095,564.422a1.193,1.193,0,1,1,1.193,1.193h0A1.193,1.193,0,0,1,893.095,564.422Z" transform="translate(-817.298 -513.537)" fill="#b8c1c9"/>
          <path id="Trazado_170077" data-name="Trazado 170077" d="M892.108,565.8a.462.462,0,1,1,.463.462.462.462,0,0,1-.463-.462Z" transform="translate(-817.609 -512.872)" fill="#b8c1c9"/>
          <path id="Trazado_170078" data-name="Trazado 170078" d="M891.976,563.194a.462.462,0,1,1,.463.462.461.461,0,0,1-.463-.462Z" transform="translate(-817.651 -513.694)" fill="#b8c1c9"/>
          <path id="Trazado_170079" data-name="Trazado 170079" d="M895.267,565.8a.462.462,0,1,1,.462.462.461.461,0,0,1-.462-.462Z" transform="translate(-816.613 -512.872)" fill="#b8c1c9"/>
          <path id="Trazado_170080" data-name="Trazado 170080" d="M890.964,562.012a.462.462,0,1,1,.463.462.462.462,0,0,1-.463-.462Z" transform="translate(-817.97 -514.067)" fill="#b8c1c9"/>
          <path id="Trazado_170081" data-name="Trazado 170081" d="M855.651,565.966a7.63,7.63,0,1,1,7.63,7.63,7.63,7.63,0,0,1-7.63-7.63Z" transform="translate(-829.11 -515.081)" fill="#132d1a"/>
          <path id="Trazado_170082" data-name="Trazado 170082" d="M844.916,534.351s4.137-6.241,8.919-6.292l-.426,6.751Z" transform="translate(-832.497 -524.632)" fill="#698574"/>
          <path id="Trazado_170083" data-name="Trazado 170083" d="M871.382,561.4H838.273l2.756-22.363a7.251,7.251,0,0,1,7.2-6.365h23.154Z" transform="translate(-834.592 -523.176)" fill="#b8c1c9"/>
          <path id="Trazado_170084" data-name="Trazado 170084" d="M851.036,547h-9.285l1.23-8.831A3.684,3.684,0,0,1,846.627,535h4.7Z" transform="translate(-833.495 -522.443)" fill="#698574"/>
          <path id="Trazado_170085" data-name="Trazado 170085" d="M850.121,546.17h-6.114a1.527,1.527,0,0,1-1.526-1.526,1.47,1.47,0,0,1,.014-.2l.809-6.11a3.166,3.166,0,0,1,3.083-2.815h3.974Z" transform="translate(-833.265 -522.279)" fill="#eaeaea"/>
          <path id="Trazado_170086" data-name="Trazado 170086" d="M912.95,570.414H849.264l2.841-44.96h57.081Z" transform="translate(-831.125 -525.454)" fill="#30610c"/>
          <path id="Trazado_170087" data-name="Trazado 170087" d="M909.9,568.3H851.043l2.631-41.55h52.75l2.819,33.676Z" transform="translate(-830.564 -525.045)" fill="#54aa13"/>
          <path id="Trazado_170088" data-name="Trazado 170088" d="M859.356,554.513h-20.2c-1.78.118-1.951,1-1.951,1l-1.729,8.356a.554.554,0,0,0,.584.52h5.079a.79.79,0,0,0,.689-.533,8.406,8.406,0,0,1,1.306-1.315,8.207,8.207,0,0,1,4.844-1.433,9.426,9.426,0,0,1,6.256,2.082h5.122c.618,0,1.125-.322,1.125-.718v-7.243C860.481,554.835,859.975,554.513,859.356,554.513Z" transform="translate(-835.475 -516.287)" fill="#698574"/>
          <path id="Trazado_170089" data-name="Trazado 170089" d="M906.266,568.549h-6.4a5.914,5.914,0,0,0-.8-2.061c-1.936-3.1-6.462-4.05-9.041-4.341a18.091,18.091,0,0,0-1.886-.131H899.14a8.075,8.075,0,0,1,5.7,3.464A9.377,9.377,0,0,1,906.266,568.549Z" transform="translate(-818.863 -513.92)" fill="#438815"/>
          <path id="Trazado_170090" data-name="Trazado 170090" d="M925.534,568.548h-6.4a5.97,5.97,0,0,0-.963-2.306c-2.924-4.219-10.767-4.224-10.767-4.224h11.007a8.038,8.038,0,0,1,5.13,2.724A9.531,9.531,0,0,1,925.534,568.548Z" transform="translate(-812.784 -513.919)" fill="#438815"/>
          <rect id="Rectángulo_36733" data-name="Rectángulo 36733" width="95.605" height="4.361" rx="1.657" transform="translate(18.725 44.96)" fill="#438815"/>
          <path id="Rectángulo_36734" data-name="Rectángulo 36734" d="M857.614,560.465h9.361a4.828,4.828,0,0,1,4.829,4.829h0a4.829,4.829,0,0,1-4.829,4.829h-9.361a4.83,4.83,0,0,1-4.829-4.829h0A4.829,4.829,0,0,1,857.614,560.465Z" transform="translate(-830.014 -514.409)" fill="#438815"/>
          <g id="Grupo_111222" data-name="Grupo 111222" transform="translate(3.494 16.927)">
            <path id="Trazado_170091" data-name="Trazado 170091" d="M838.921,540.83s-.826,4.448-.789,5.174a1.211,1.211,0,0,0,1.247,1.079Z" transform="translate(-838.131 -537.53)" fill="#54aa13"/>
            <path id="Rectángulo_36735" data-name="Rectángulo 36735" d="M840.244,540.548h0a1.54,1.54,0,0,1,1.54,1.54v3.543a1.54,1.54,0,0,1-1.54,1.54h0a1.541,1.541,0,0,1-1.54-1.54v-3.543A1.541,1.541,0,0,1,840.244,540.548Z" transform="translate(-837.95 -537.619)" fill="#698574"/>
            <path id="Rectángulo_36736" data-name="Rectángulo 36736" d="M840.218,540.83h0a1.252,1.252,0,0,1,1.252,1.254v3.423a1.253,1.253,0,0,1-1.252,1.254h0a1.254,1.254,0,0,1-1.254-1.254v-3.423A1.253,1.253,0,0,1,840.218,540.83Z" transform="translate(-837.868 -537.53)" fill="#eaeaea"/>
            <g id="Grupo_111221" data-name="Grupo 111221" transform="translate(2.191)">
              <path id="Trazado_170092" data-name="Trazado 170092" d="M839.9,541.371a.113.113,0,0,1-.1-.121v-1.886a1.184,1.184,0,0,1,1.247-1.041c1.025.031,1.466,0,1.469,0a.109.109,0,0,1,.109.112h0a.116.116,0,0,1-.1.132c-.018,0-.455.032-1.488,0a.946.946,0,0,0-1.038.822v1.862A.113.113,0,0,1,839.9,541.371Z" transform="translate(-839.797 -538.321)" fill="#54aa13"/>
            </g>
          </g>
          <path id="Trazado_170093" data-name="Trazado 170093" d="M848.721,546.535h-1.875a.479.479,0,0,1-.476-.478h0a.478.478,0,0,1,.476-.476h1.875a.476.476,0,0,1,.476.476h0A.478.478,0,0,1,848.721,546.535Z" transform="translate(-832.038 -519.105)" fill="#698574"/>
          <g id="Grupo_111226" data-name="Grupo 111226" transform="translate(91.658 36.776)">
            <g id="Grupo_111225" data-name="Grupo 111225">
              <g id="Grupo_111224" data-name="Grupo 111224">
                <g id="Grupo_111223" data-name="Grupo 111223">
                  <rect id="Rectángulo_36737" data-name="Rectángulo 36737" width="8.184" height="8.184" fill="#b8c1c9"/>
                  <rect id="Rectángulo_36738" data-name="Rectángulo 36738" width="3.746" height="8.184" transform="translate(7.843)" fill="#698574"/>
                </g>
              </g>
            </g>
          </g>
        </g>
        <path id="Trazado_170102" data-name="Trazado 170102" d="M1041.612,492.755a12.109,12.109,0,0,0-12.109,12.109h0c0,6.688,12.109,21.557,12.109,21.557s12.11-14.865,12.11-21.557A12.11,12.11,0,0,0,1041.612,492.755Zm0,17.647a5.656,5.656,0,1,1,5.657-5.657,5.657,5.657,0,0,1-5.657,5.657Z" transform="translate(-751.983 -401.833)" fill="#698574"/>
        <path id="Trazado_170103" data-name="Trazado 170103" d="M828.746,514.281a10.211,10.211,0,0,0-10.211,10.212c0,5.639,10.211,18.178,10.211,18.178s10.212-12.539,10.212-18.178a10.211,10.211,0,0,0-10.212-10.212Zm0,14.881a4.772,4.772,0,1,1,4.774-4.772,4.774,4.774,0,0,1-4.774,4.772Z" transform="translate(-818.536 -395.042)" fill="#54aa13"/>
        <g id="Grupo_111233" data-name="Grupo 111233" transform="translate(59.779 61.346)">
          <g id="Grupo_111232" data-name="Grupo 111232">
            <g id="Grupo_111231" data-name="Grupo 111231">
              <g id="Grupo_111229" data-name="Grupo 111229" transform="translate(21.756 58.545)">
                <path id="Trazado_170104" data-name="Trazado 170104" d="M892.59,571.278H880.518a2.067,2.067,0,0,1,1.868-1.394c1.863-.3,5.091-1.384,5.81-3.766.022-.076.043-.155.06-.235.572-2.547,4.736.78,4.736.78s.013.1.03.276C893.115,567.868,893.36,570.849,892.59,571.278Z" transform="translate(-880.518 -498.958)" fill="#a07f75"/>
                <path id="Trazado_170105" data-name="Trazado 170105" d="M882.314,518.241s.631,7.878,1.373,17.35c1.009,12.864,2.222,28.667,2.342,31.661.208,5.2,1.041,13.514,1.041,13.514a6.541,6.541,0,0,0,5.92,1.143,136.06,136.06,0,0,0,4.526-24.43c.016-.205.032-.413.047-.621.937-12.785,2.39-39.707,2.39-39.707Z" transform="translate(-879.951 -514.028)" fill="#36543b"/>
                <path id="Trazado_170106" data-name="Trazado 170106" d="M882.314,518.241s.631,7.878,1.373,17.35l13.832,21.888c.016-.205.032-.413.047-.621.937-12.785,2.39-39.707,2.39-39.707Z" transform="translate(-879.951 -514.028)" fill="#132d1a"/>
                <path id="Trazado_170107" data-name="Trazado 170107" d="M884.506,519.923s11.383,28.533,18.866,41.942,9.824,17.151,9.824,17.151,4.287-1.71,4.678-2.885c0,0-2.863-25.887-7.874-32.2-2.832-3.565-6.159-14.266-6.314-18.009s-1.013-11.149-1.013-11.149Z" transform="translate(-879.26 -514.777)" fill="#36543b"/>
              </g>
              <path id="Trazado_170108" data-name="Trazado 170108" d="M898.8,487.536s-7.7,3.774-12.142,2.368a10.512,10.512,0,0,1,3.006-2.441c-.154-.905-.274-1.69-.342-2.357a22.024,22.024,0,0,1-.188-2.407l2.972-2.368,2.818-2.272A11.594,11.594,0,0,0,898.8,487.536Z" transform="translate(-856.824 -467.816)" fill="#ffdbd1"/>
              <path id="Trazado_170109" data-name="Trazado 170109" d="M904.386,525.985c.017.478-.99,1.025-1.434,1.23a31.085,31.085,0,0,1-9.853,2.835c-4.115.427-8.982-.512-10.655-.478a.685.685,0,0,1-.462-.188c-.12-.086-.205-5.122-.12-11.458,0-.257,0-.513.018-.768v-.086c.033-2.476.118-5.071.238-7.666a86.219,86.219,0,0,1,1.435-14.241,15.455,15.455,0,0,1,4.816-7.685l1.536-1.367a7.28,7.28,0,0,0,4.782-.58c1.776-.871,3.719-1.842,4.027-1.609,2.322,1.725,3.862,5.639,4.7,10.591a55.809,55.809,0,0,1,.7,9.391c0,1.23-.034,2.5-.1,3.74a119.451,119.451,0,0,0,.239,16.034C904.311,524.671,904.367,525.439,904.386,525.985Z" transform="translate(-858.349 -465.976)" fill="#c3e1ac"/>
              <path id="Trazado_170110" data-name="Trazado 170110" d="M903.327,521.131c-37.312-.051-6.88-27.817-6.88-27.817l6.043-1.35a55.563,55.563,0,0,1,.7,9.391c0,1.23-.033,2.5-.1,3.74A119.674,119.674,0,0,0,903.327,521.131Z" transform="translate(-857.427 -463.429)" fill="#c3e1ac"/>
              <g id="Grupo_111230" data-name="Grupo 111230" transform="translate(0 34.323)">
                <rect id="Rectángulo_36739" data-name="Rectángulo 36739" width="23.2" height="23.2" fill="#b8c1c9"/>
                <rect id="Rectángulo_36740" data-name="Rectángulo 36740" width="10.621" height="23.2" transform="translate(22.233)" fill="#698574"/>
              </g>
              <path id="Trazado_170111" data-name="Trazado 170111" d="M880.525,506.067l-1.381-.443a2.911,2.911,0,0,0-4.235-1.767s-1.326.7-.742,1.536.48.395,1.276,1.592a2.6,2.6,0,0,0,3.069,1.315l1.148.033Z" transform="translate(-860.812 -459.795)" fill="#ffdbd1"/>
              <path id="Trazado_170112" data-name="Trazado 170112" d="M901.824,485.257a29.071,29.071,0,0,1-.551,28.967c-2.81,4.847-24.032.241-24.032.241s-.826-1.494,1.388-3.069c0,0,14.128-2.392,15.813-2.793,1.493-.357.5-14.087,2.2-18.072A10.042,10.042,0,0,1,901.824,485.257Z" transform="translate(-859.844 -465.545)" fill="#c3e1ac"/>
              <path id="Trazado_170113" data-name="Trazado 170113" d="M894.383,479.956a10.249,10.249,0,0,1-5.656,4.6,21.963,21.963,0,0,1-.188-2.407l2.972-2.368Z" transform="translate(-856.232 -467.271)" fill="#efc7bd"/>
              <path id="Trazado_170114" data-name="Trazado 170114" d="M887.858,484.426s7.347,1.221,8.036-3.366,2.1-7.518-2.559-8.493-5.838.641-6.446,2.115S885.965,483.991,887.858,484.426Z" transform="translate(-856.9 -469.642)" fill="#ffdbd1"/>
              <path id="Trazado_170115" data-name="Trazado 170115" d="M896.183,482.007a7.6,7.6,0,0,0-6.84-7.131c-4.586-.675-4.209-4-3.683-4.6a51.61,51.61,0,0,1,9.487.947C900.534,472.577,896.977,481.086,896.183,482.007Z" transform="translate(-857.236 -470.272)" fill="#132d1a"/>
            </g>
          </g>
          <path id="Trazado_170116" data-name="Trazado 170116" d="M911.621,562.261l-.357-.459-4.046,2.267c-.038.775-.058,1.668-.015,2.453a6.769,6.769,0,0,1-.1,1.589c-.084.395-.513,2.114-1.765,2.564-1.423.51-1.536,1.6.891,1.585H907.5a3.373,3.373,0,0,0,3.222-2.493,5.779,5.779,0,0,1,.984-1.9,7.045,7.045,0,0,0,1.631-2.221C913.751,564.234,911.621,562.261,911.621,562.261Z" transform="translate(-851.251 -441.397)" fill="#a07f75"/>
        </g>
        <g id="Grupo_111242" data-name="Grupo 111242" transform="translate(136.109 78.601)">
          <g id="Grupo_111234" data-name="Grupo 111234" transform="translate(15.967 59.671)">
            <path id="Trazado_170117" data-name="Trazado 170117" d="M947.9,543.538l.8-.65L938,528.912l-3.859-.162Z" transform="translate(-934.142 -528.75)" fill="#30610c"/>
          </g>
          <g id="Grupo_111235" data-name="Grupo 111235" transform="translate(32.313 59.671)">
            <path id="Trazado_170118" data-name="Trazado 170118" d="M957.953,543.538l.658-.65-8.849-13.977-3.194-.162Z" transform="translate(-946.568 -528.75)" fill="#30610c"/>
          </g>
          <g id="Grupo_111239" data-name="Grupo 111239" transform="translate(0 30.388)">
            <path id="Trazado_170119" data-name="Trazado 170119" d="M1007.113,513.4a4.691,4.691,0,1,0-4.688,4.8A4.747,4.747,0,0,0,1007.113,513.4Z" transform="translate(-898.114 -505.753)" fill="#54aa13"/>
            <path id="Trazado_170120" data-name="Trazado 170120" d="M959.638,563.056h47.687a.948.948,0,0,0,.942-.95V557.6a.947.947,0,0,0-.942-.95H965.2a.948.948,0,0,0-.942.95Z" transform="translate(-910.132 -490.665)" fill="#c3e1ac"/>
            <path id="Trazado_170121" data-name="Trazado 170121" d="M966.153,562.253A14.25,14.25,0,1,0,951.9,576.5,14.25,14.25,0,0,0,966.153,562.253Z" transform="translate(-917.068 -493.393)" fill="#132d1a"/>
            <path id="Trazado_170122" data-name="Trazado 170122" d="M957.491,560.58a7.265,7.265,0,1,0-7.265,7.265h0A7.266,7.266,0,0,0,957.491,560.58Z" transform="translate(-915.393 -491.717)" fill="#698574"/>
            <g id="Grupo_111236" data-name="Grupo 111236" transform="translate(93.36 47.755)">
              <path id="Trazado_170123" data-name="Trazado 170123" d="M1007.7,543.783a21.1,21.1,0,0,1,27.238,16.963,2.751,2.751,0,0,1-2.314,3.127,2.851,2.851,0,0,1-.409.03h-.093a1.753,1.753,0,0,1-1.739-1.593,16.387,16.387,0,0,0-32.7,1.593h-4.713A21.135,21.135,0,0,1,1007.7,543.783Z" transform="translate(-992.975 -542.791)" fill="#30610c"/>
            </g>
            <g id="Grupo_111237" data-name="Grupo 111237" transform="translate(86.22 15.041)">
              <path id="Trazado_170124" data-name="Trazado 170124" d="M987.547,568.868l7.14,2.876c4.945-9.616,10-14.338,14.315-16.662,7.769-4.188,13.18-.641,11.358-3.94l-13.33-28.123a12.241,12.241,0,0,0-11.071-5.044,3.981,3.981,0,0,0-3.582,4.344,4.022,4.022,0,0,0,.185.88,48.516,48.516,0,0,1,2.417,15.444A70.315,70.315,0,0,1,987.547,568.868Z" transform="translate(-987.547 -517.923)" fill="#c3e1ac"/>
            </g>
            <path id="Trazado_170125" data-name="Trazado 170125" d="M993.674,524.415l5.379-2.055c.731,0,2.127.658,2.127-.071l-.8-13.135a1.334,1.334,0,0,0-1.33-1.33h-3.466c-.733,0-3.666,1.4-3.46,4.031l-.921,13.241C991.2,525.827,992.94,524.415,993.674,524.415Z" transform="translate(-900.173 -506.068)" fill="#c3e1ac"/>
            <path id="Rectángulo_36741" data-name="Rectángulo 36741" d="M959.065,530.46H924.536A2.532,2.532,0,0,1,922,527.928h0a2.533,2.533,0,0,1,2.532-2.532h34.528a2.532,2.532,0,0,1,2.532,2.532h0A2.532,2.532,0,0,1,959.065,530.46Z" transform="translate(-922.004 -500.524)" fill="#30610c"/>
            <circle id="Elipse_5086" data-name="Elipse 5086" cx="14.252" cy="14.252" r="14.252" transform="translate(100.209 54.61)" fill="#132d1a"/>
            <path id="Trazado_170126" data-name="Trazado 170126" d="M1003.493,560.579a7.24,7.24,0,0,0,.837,3.387c.037.067.071.132.109.195a7.265,7.265,0,1,0,9.11-10.288c-.026-.013-.055-.024-.083-.034a7.266,7.266,0,0,0-9.973,6.74Z" transform="translate(-896.297 -491.717)" fill="#698574"/>
            <path id="Trazado_170127" data-name="Trazado 170127" d="M974.56,537.884s-3.683,14.591,8.732,28.046l-30.519-2.215,3.889-29.452Z" transform="translate(-912.297 -497.727)" fill="#c3e1ac"/>
            <path id="Trazado_170128" data-name="Trazado 170128" d="M926.645,567.485a1.893,1.893,0,0,0,1.885,1.885h45.718a1.891,1.891,0,0,0,1.885-1.885l-.606-29.9-15.39-.943C939.625,536.64,926.645,546.977,926.645,567.485Z" transform="translate(-920.54 -496.977)" fill="#c3e1ac"/>
            <path id="Trazado_170129" data-name="Trazado 170129" d="M997.733,513.862a7.367,7.367,0,0,0,7.359,7.375h.017V506.489A7.375,7.375,0,0,0,997.733,513.862Z" transform="translate(-898.114 -506.489)" fill="#30610c"/>
            <g id="Grupo_111238" data-name="Grupo 111238" transform="translate(87.462 4.493)">
              <path id="Trazado_170130" data-name="Trazado 170130" d="M989,513.781c.028,0,.334-.061.363-.066l8.112-2.251a.789.789,0,0,0,.5-.892c-.047-.429-.346-.726-.67-.658l-8.132,1.588c-.322.063-.578.553-.658.973C988.4,513.178,988.721,513.781,989,513.781Z" transform="translate(-988.491 -509.904)" fill="#132d1a"/>
            </g>
            <path id="Trazado_170131" data-name="Trazado 170131" d="M1005.365,555.37c-.074.454-.143.893-.212,1.315l.063-.029a16.385,16.385,0,0,1,23.336,13.211,1.752,1.752,0,0,0,1.739,1.593h.094a2.752,2.752,0,0,0,2.753-2.748,2.887,2.887,0,0,0-.03-.409,21.156,21.156,0,0,0-16.211-17.427l-.085-.021-13.328-28.123a12.222,12.222,0,0,0-4.695-3.916,55.693,55.693,0,0,1,7.081,32.525q-.154,1.7-.413,3.454C1005.425,554.989,1005.391,555.179,1005.365,555.37Z" transform="translate(-897.781 -502.6)" fill="#30610c"/>
            <rect id="Rectángulo_36742" data-name="Rectángulo 36742" width="32.018" height="7.246" rx="1.58" transform="translate(31.647 32.913)" fill="#a07f75"/>
            <path id="Trazado_170132" data-name="Trazado 170132" d="M929.4,567.127h43.984s2.684-16.285-7.215-21.784a14.782,14.782,0,0,0-8.641-1.461C947.238,544.889,934.289,553.6,929.4,567.127Z" transform="translate(-919.671 -494.734)" fill="#30610c"/>
            <path id="Trazado_170133" data-name="Trazado 170133" d="M997.827,513.126a7.376,7.376,0,0,0,7.251,6.018v-4.115C1002.911,515.115,999.79,514.879,997.827,513.126Z" transform="translate(-898.084 -504.395)" fill="#30610c"/>
            <path id="Trazado_170134" data-name="Trazado 170134" d="M1005.366,555.37c-.074.454-.143.893-.212,1.315l.063-.029c2.631-2.434,8.193-4.59,11.679-5.778l-.084-.021-13.33-28.123a12.2,12.2,0,0,0-4.695-3.916,55.692,55.692,0,0,1,7.081,32.525q-.152,1.7-.413,3.454C1005.426,554.988,1005.392,555.179,1005.366,555.37Z" transform="translate(-897.781 -502.6)" fill="#30610c"/>
          </g>
          <g id="Grupo_111241" data-name="Grupo 111241" transform="translate(44.356)">
            <path id="Trazado_170138" data-name="Trazado 170138" d="M970.072,500.416c-3.936,1.6-11.132-1.819-11.132-1.819a10.1,10.1,0,0,0,2.845-6.12c.024-.2.041-.408.054-.618l2.035-.724,3.486,2.368a26.944,26.944,0,0,1-.041,3.211c-.021.356-.049.739-.086,1.148A7.056,7.056,0,0,1,970.072,500.416Z" transform="translate(-954.708 -480.945)" fill="#ffdbd1"/>
            <path id="Trazado_170139" data-name="Trazado 170139" d="M966.678,493.509a26.936,26.936,0,0,1-.041,3.211,8.337,8.337,0,0,1-5.534-4.244c.024-.2.041-.408.053-.618l2.035-.724Z" transform="translate(-954.026 -480.945)" fill="#efc7bd"/>
            <path id="Trazado_170140" data-name="Trazado 170140" d="M967.409,497.007s-6.78-.221-6.577-4.44-.537-7.092,3.8-7.128,5.1,1.613,5.374,3.039S969.177,496.956,967.409,497.007Z" transform="translate(-954.112 -482.742)" fill="#ffdbd1"/>
            <path id="Trazado_170141" data-name="Trazado 170141" d="M961.661,494.926a3.166,3.166,0,0,1,.5-2.33s-.493-1.376.037-1.685.805.867,1.038.646a5.793,5.793,0,0,0,1.579-2.631c.316-1.373,5.016-.395,5.571-.222s-3.118-6.69-7.085-5.066-4.265,3.66-3.808,5.31S959.9,494.582,961.661,494.926Z" transform="translate(-954.585 -483.389)" fill="#132d1a"/>
            <path id="Trazado_170142" data-name="Trazado 170142" d="M956.175,523.276s.47,8.288,2.355,10.641,38.017,1.447,38.017,1.447.158-5.311-1.258-6.675-8.014-5.287-29.082-7.51Z" transform="translate(-955.58 -471.467)" fill="#132d1a"/>
            <path id="Trazado_170143" data-name="Trazado 170143" d="M955.833,514.21c.589,7.113-.187,17.932.483,19.807.576,1.617,7.15.658,9.771.116.971-.2,2.148-.485,3.362-.824,3.389-.942,7.08-2.286,7.476-3.289a.511.511,0,0,0,.037-.114.806.806,0,0,0,0-.418c-.1-.378-.4-.776-.579-1.469a4.418,4.418,0,0,1-.122-.851c-.059-1.288-.057-2.786-.1-4.4,0-.149-.01-.3-.013-.446a4.246,4.246,0,0,0-.03-.62v-.188c-.057-1.988-.174-4.078-.307-6.148-.042-.646-.088-1.289-.138-1.923-.014-.225-.034-.447-.051-.67-.034-.414-.07-.826-.108-1.231a46.528,46.528,0,0,0-1.22-7.812,12.542,12.542,0,0,0-4.488-6.22l-1.251-.963a8,8,0,0,1-4.538-.542c-1.614-.689-2.172-1.184-2.453-1C957.817,497.6,955.136,505.513,955.833,514.21Z" transform="translate(-955.723 -479.735)" fill="#30610c"/>
            <path id="Trazado_170144" data-name="Trazado 170144" d="M976.985,553.067s.32,5.155,1.315,5.229c.132.009,5.058.009,5.058.009l6.288-.037a2.038,2.038,0,0,0-1.879-1.835c-1.842-.321-4.915-1.612-6.027-4.041C980.57,549.836,976.985,553.067,976.985,553.067Z" transform="translate(-949.015 -461.931)" fill="#a07f75"/>
            <path id="Trazado_170145" data-name="Trazado 170145" d="M975.989,560.421a6.929,6.929,0,0,0,3.693,1.052,9.929,9.929,0,0,0,1.735-.068,8.178,8.178,0,0,0,2.219-.567l6.671-28s-7.226-6.314-11-2.388a6.63,6.63,0,0,0-1.271,2.557C975.647,540.728,975.989,560.421,975.989,560.421Z" transform="translate(-949.335 -468.948)" fill="#132d1a"/>
            <path id="Trazado_170146" data-name="Trazado 170146" d="M963.8,505.491s4.682,17.131,10.023,19.219a4.431,4.431,0,0,1-.122-.851c-.062-1.288-.058-2.786-.1-4.4,0-.149-.009-.3-.013-.446a4.238,4.238,0,0,0-.03-.62v-.188c-.055-1.988-.174-4.078-.306-6.149-.042-.646-.087-1.289-.133-1.923C970.758,507.294,967.567,505.252,963.8,505.491Z" transform="translate(-953.173 -476.422)" fill="#438815"/>
            <path id="Trazado_170147" data-name="Trazado 170147" d="M985.2,510.829a13.641,13.641,0,0,0,2.561,0c.526-.158,2.986-1.623,3.877-1.315s3.143,2.619,2.566,3.666a2.962,2.962,0,0,1-2.017-.969c-.97-.994-2.017-.314-1.91-.183s1.622.734,1.36.994a4.464,4.464,0,0,1-2.724-.1,16.176,16.176,0,0,0-3.979.078Z" transform="translate(-946.506 -475.161)" fill="#ffdbd1"/>
            <path id="Trazado_170148" data-name="Trazado 170148" d="M964.851,498.632s12.672,10.8,16.007,11.839,15.12,3.332,15.12,3.332.325,2.789-.78,3.837c0,0-15.141-.878-17.026-1.276s-15.934-7.68-17.081-8.23S960.117,497.741,964.851,498.632Z" transform="translate(-954.216 -478.598)" fill="#30610c"/>
          </g>
        </g>
        <g id="Grupo_111243" data-name="Grupo 111243" transform="translate(152.399)">
          <path id="Trazado_170151" data-name="Trazado 170151" d="M934.926,435.441a.536.536,0,0,1-.276-1c.01-.007.287-.171.812-.464a.537.537,0,1,1,.526.935c-.508.284-.779.446-.781.447A.538.538,0,0,1,934.926,435.441Z" transform="translate(-934.388 -420.396)" fill="#36543b"/>
          <path id="Trazado_170152" data-name="Trazado 170152" d="M1072.236,505.736h0a.535.535,0,0,1-.533-.538h0v-.343c0-.489,0-.992-.017-1.5a.536.536,0,1,1,1.072-.024c.012.512.017,1.022.018,1.519v.35a.535.535,0,0,1-.538.533Zm-.083-3.71a.536.536,0,0,1-.534-.51c-.029-.608-.067-1.226-.11-1.842a.536.536,0,0,1,1.069-.078c.045.622.083,1.251.112,1.865a.536.536,0,0,1-.508.562h0Zm-.263-3.7a.537.537,0,0,1-.534-.485c-.058-.608-.124-1.223-.194-1.834a.537.537,0,1,1,1.065-.132c.071.617.138,1.242.2,1.856a.537.537,0,0,1-.483.584Zm-.436-3.683a.538.538,0,0,1-.526-.46c-.084-.606-.178-1.219-.275-1.823a.536.536,0,0,1,1.038-.268.588.588,0,0,1,.016.1c.1.61.192,1.231.278,1.842a.535.535,0,0,1-.455.605h0a.5.5,0,0,1-.078.005Zm-.594-3.66a.534.534,0,0,1-.525-.439c-.111-.6-.232-1.208-.354-1.809a.537.537,0,1,1,1.052-.217h0c.132.608.246,1.223.359,1.831a.542.542,0,0,1-.441.625.477.477,0,0,1-.085.008Zm-.753-3.631a.535.535,0,0,1-.525-.416c-.133-.6-.284-1.2-.434-1.792a.537.537,0,0,1,1.041-.263c.151.6.3,1.21.437,1.814a.534.534,0,0,1-.4.642.619.619,0,0,1-.121.01Zm-.908-3.6a.538.538,0,0,1-.518-.395c-.163-.591-.333-1.184-.509-1.769a.537.537,0,0,1,1.027-.309c.177.591.351,1.194.517,1.793a.537.537,0,0,1-.374.658.551.551,0,0,1-.147.014Zm-1.068-3.552a.535.535,0,0,1-.508-.37c-.191-.582-.387-1.168-.589-1.746a.536.536,0,0,1,1.012-.354c.205.584.405,1.184.6,1.768a.515.515,0,0,1-.514.693Zm-1.223-3.5a.54.54,0,0,1-.5-.347c-.214-.572-.438-1.15-.667-1.71a.536.536,0,0,1,.968-.459.561.561,0,0,1,.025.064c.23.575.459,1.159.676,1.739a.535.535,0,0,1-.312.691h0a.572.572,0,0,1-.19.02Zm-1.384-3.439a.535.535,0,0,1-.493-.325c-.244-.564-.493-1.13-.749-1.683a.536.536,0,0,1,.975-.446c.256.559.51,1.134.756,1.71a.535.535,0,0,1-.28.7.526.526,0,0,1-.212.043Zm-1.545-3.369a.535.535,0,0,1-.481-.3c-.263-.549-.545-1.1-.825-1.646a.537.537,0,0,1,.952-.492c.284.551.566,1.112.837,1.668a.537.537,0,0,1-.25.717.521.521,0,0,1-.231.054Zm-1.7-3.289a.533.533,0,0,1-.47-.279c-.3-.538-.6-1.076-.9-1.6a.535.535,0,0,1,.868-.626.544.544,0,0,1,.051.089c.31.534.617,1.08.921,1.626a.534.534,0,0,1-.217.725.522.522,0,0,1-.251.064Zm-1.857-3.207a.539.539,0,0,1-.458-.255c-.317-.526-.646-1.043-.98-1.557a.537.537,0,0,1,.9-.582c.338.526.671,1.052.993,1.579a.536.536,0,0,1-.175.737A.544.544,0,0,1,1060.423,463.4Zm-2.011-3.111a.54.54,0,0,1-.443-.234c-.345-.505-.7-1.013-1.052-1.508a.536.536,0,1,1,.871-.625c.359.5.722,1.016,1.07,1.529a.535.535,0,0,1-.441.838Zm-2.163-3.01a.53.53,0,0,1-.427-.212c-.367-.485-.747-.975-1.129-1.447a.536.536,0,0,1,.838-.667c.387.485.771.981,1.144,1.475a.535.535,0,0,1-.1.75.529.529,0,0,1-.322.109Zm-2.307-2.894a.537.537,0,0,1-.411-.192c-.395-.467-.789-.935-1.2-1.394a.537.537,0,0,1,.807-.709c.41.467.82.943,1.215,1.415a.536.536,0,0,1-.41.88Zm-2.448-2.781a.534.534,0,0,1-.395-.172c-.413-.447-.839-.9-1.266-1.335a.536.536,0,1,1,.769-.747c.433.445.864.9,1.284,1.354a.535.535,0,0,1-.028.756.54.54,0,0,1-.367.143Zm-2.581-2.657a.538.538,0,0,1-.376-.154c-.434-.426-.879-.854-1.329-1.273a.536.536,0,0,1,.733-.783c.454.424.906.858,1.347,1.289a.537.537,0,0,1-.375.921Zm-2.707-2.531a.538.538,0,0,1-.356-.132c-.455-.408-.921-.813-1.388-1.208a.536.536,0,0,1,.695-.817c.471.395.943.812,1.408,1.223a.536.536,0,0,1-.357.935Zm-2.823-2.4a.541.541,0,0,1-.337-.118c-.474-.383-.959-.767-1.447-1.142a.537.537,0,0,1,.658-.848c.493.38.985.77,1.463,1.158a.535.535,0,0,1-.337.952Zm-2.932-2.264a.545.545,0,0,1-.318-.1c-.491-.362-.993-.723-1.493-1.075a.536.536,0,1,1,.617-.877h0c.506.355,1.016.722,1.513,1.089a.535.535,0,0,1-.318.967Zm-3.026-2.13a.536.536,0,0,1-.3-.091c-.506-.339-1.023-.68-1.539-1.009a.535.535,0,0,1,.576-.9c.526.333,1.052.676,1.56,1.021a.535.535,0,0,1-.3.981Zm-3.122-1.994a.547.547,0,0,1-.279-.078c-.526-.318-1.052-.635-1.578-.942a.537.537,0,0,1,.539-.921c.534.31,1.072.631,1.6.954a.537.537,0,0,1-.279.993Zm-97.526-.271a.535.535,0,0,1-.249-1.012c.534-.28,1.095-.564,1.664-.846a.536.536,0,0,1,.508.943l-.033.016c-.562.279-1.114.559-1.643.835a.542.542,0,0,1-.254.051Zm94.319-1.59a.545.545,0,0,1-.263-.067c-.537-.3-1.083-.592-1.619-.876a.536.536,0,0,1,.5-.948c.545.287,1.1.585,1.64.887a.537.537,0,0,1-.263,1.005Zm-91-.058a.535.535,0,0,1-.229-1.02c.555-.263,1.125-.526,1.693-.781a.537.537,0,0,1,.489.955c-.016.008-.032.016-.049.022-.563.254-1.126.513-1.676.772a.535.535,0,0,1-.232.039Zm3.381-1.525a.536.536,0,0,1-.212-1.027c.567-.245,1.144-.488,1.71-.724a.536.536,0,1,1,.408.991h0c-.566.233-1.138.475-1.7.717a.535.535,0,0,1-.209.032Zm84.341-.147a.542.542,0,0,1-.239-.057c-.549-.275-1.106-.547-1.655-.808a.535.535,0,0,1,.46-.967c.556.263,1.119.539,1.675.818a.535.535,0,0,1-.241,1.014Zm-80.912-1.267a.535.535,0,0,1-.2-1.034c.579-.228,1.163-.452,1.739-.67a.536.536,0,0,1,.377,1h0c-.571.213-1.15.437-1.722.658a.542.542,0,0,1-.2.03Zm77.565-.325a.553.553,0,0,1-.22-.047c-.558-.251-1.125-.5-1.686-.738a.536.536,0,0,1,.418-.987h0c.568.241,1.143.493,1.71.747a.535.535,0,0,1-.22,1.025Zm-74.1-.981a.537.537,0,0,1-.18-1.04c.585-.211,1.177-.417,1.758-.616a.536.536,0,0,1,.346,1.014c-.575.2-1.16.395-1.742.609a.57.57,0,0,1-.183.022ZM1021.06,431a.545.545,0,0,1-.2-.038c-.567-.228-1.146-.451-1.718-.666a.536.536,0,1,1,.379-1c.579.217,1.164.443,1.739.674a.537.537,0,0,1-.2,1.034Zm-67.177-.731a.535.535,0,0,1-.164-1.046c.589-.191,1.184-.38,1.776-.56a.536.536,0,1,1,.314,1.025h0c-.584.179-1.176.366-1.758.556a.566.566,0,0,1-.17.013Zm63.708-.571a.548.548,0,0,1-.178-.03c-.581-.2-1.168-.4-1.743-.592a.536.536,0,0,1,.333-1.018h0c.583.191,1.177.395,1.765.6a.537.537,0,0,1-.178,1.042Zm-60.165-.518a.535.535,0,0,1-.149-1.052c.6-.174,1.2-.345,1.792-.507a.535.535,0,0,1,.283,1.033c-.587.162-1.184.33-1.776.5a.586.586,0,0,1-.151.01Zm56.644-.635a.531.531,0,0,1-.156-.024c-.583-.178-1.177-.351-1.768-.517a.536.536,0,0,1,.291-1.031h0c.6.168,1.2.345,1.789.526a.535.535,0,0,1-.155,1.052ZM961,428.2a.535.535,0,0,1-.131-1.052c.6-.154,1.205-.305,1.807-.45a.536.536,0,1,1,.251,1.042h0c-.6.143-1.2.293-1.79.446a.544.544,0,0,1-.138,0Zm49.5-.658a.551.551,0,0,1-.131-.017c-.595-.154-1.2-.3-1.788-.442a.536.536,0,0,1,.246-1.043c.6.141,1.208.292,1.809.447a.535.535,0,0,1-.132,1.052Zm-45.9-.21a.535.535,0,0,1-.117-1.052c.609-.132,1.221-.263,1.822-.395a.537.537,0,1,1,.217,1.052c-.595.122-1.2.254-1.8.395a.525.525,0,0,1-.12-.017Zm42.29-.639a.535.535,0,0,1-.112-.012c-.6-.131-1.2-.249-1.806-.366a.536.536,0,0,1,.2-1.052c.609.117,1.225.241,1.827.37a.535.535,0,0,1-.112,1.06Zm-38.66-.111a.536.536,0,0,1-.1-1.062c.612-.116,1.227-.228,1.834-.333a.536.536,0,1,1,.259,1.039.506.506,0,0,1-.078.013c-.6.1-1.21.213-1.815.329a.535.535,0,0,1-.1,0Zm35.022-.587a.527.527,0,0,1-.091-.008c-.605-.1-1.217-.2-1.819-.291a.536.536,0,1,1,.158-1.06h0c.609.091,1.229.189,1.842.293a.535.535,0,0,1-.088,1.064Zm-31.367-.045a.535.535,0,0,1-.082-1.066c.613-.1,1.234-.187,1.842-.271a.536.536,0,1,1,.146,1.062c-.6.083-1.215.174-1.824.263a.437.437,0,0,1-.083,0Zm27.7-.5a.608.608,0,0,1-.068,0c-.6-.078-1.22-.15-1.83-.214a.537.537,0,0,1,.114-1.066c.617.067,1.239.139,1.851.217a.537.537,0,0,1-.067,1.068Zm-24.031,0a.535.535,0,0,1-.063-1.068c.618-.075,1.242-.145,1.852-.207a.536.536,0,1,1,.109,1.066c-.6.062-1.221.132-1.832.2a.561.561,0,0,1-.065-.012Zm3.683-.379A.535.535,0,0,1,979.2,424c.624-.053,1.248-.1,1.859-.141a.536.536,0,0,1,.071,1.069c-.6.039-1.221.087-1.842.139Zm16.659-.012h-.046c-.607-.053-1.225-.1-1.842-.141a.535.535,0,1,1,.047-1.069h.024c.62.041,1.244.089,1.859.142a.535.535,0,0,1-.046,1.069Zm-12.96-.235a.536.536,0,1,1-.026-1.071c.622-.03,1.248-.055,1.863-.072a.536.536,0,1,1,.032,1.071h0c-.606.017-1.227.042-1.842.072Zm9.262-.011h-.026c-.61-.028-1.23-.051-1.84-.068a.536.536,0,1,1,.029-1.071h0c.617.017,1.246.039,1.863.07a.536.536,0,0,1-.026,1.071Zm-5.558-.1a.535.535,0,1,1,0-1.071q.921-.01,1.864,0a.535.535,0,0,1,0,1.071h0q-.919-.008-1.842,0Z" transform="translate(-933.804 -423.637)" fill="#36543b"/>
          <path id="Trazado_170153" data-name="Trazado 170153" d="M1039.681,488.605h-.046a.537.537,0,0,1-.489-.58s.026-.317.051-.893a.537.537,0,0,1,1.071.045c-.026.6-.054.921-.054.939A.537.537,0,0,1,1039.681,488.605Z" transform="translate(-901.341 -403.759)" fill="#36543b"/>
        </g>
        <g id="Grupo_111244" data-name="Grupo 111244" transform="translate(9.257 53.875)">
          <path id="Trazado_170154" data-name="Trazado 170154" d="M886.929,466.071h-.05l-.726-.083a.428.428,0,1,1,.049-.854c.016,0,.032,0,.046.005l.73.083a.426.426,0,0,1-.049.85Z" transform="translate(-806.59 -464.421)" fill="#36543b"/>
          <path id="Trazado_170155" data-name="Trazado 170155" d="M826.168,521.5a.378.378,0,0,1-.055,0,.427.427,0,0,1-.368-.477h0c.062-.476.132-.971.211-1.468a.427.427,0,1,1,.847.112l0,.02c-.078.491-.146.979-.208,1.447A.428.428,0,0,1,826.168,521.5Zm.453-2.908a.724.724,0,0,1-.076,0,.429.429,0,0,1-.343-.5c.086-.48.179-.968.276-1.447a.428.428,0,0,1,.838.168c-.1.479-.189.962-.274,1.436a.427.427,0,0,1-.421.334Zm.58-2.882a.435.435,0,0,1-.093-.011.425.425,0,0,1-.324-.508v0c.105-.475.218-.959.336-1.439a.427.427,0,1,1,.836.174l-.006.029c-.116.474-.228.952-.331,1.423a.428.428,0,0,1-.417.334Zm.7-2.855a.436.436,0,0,1-.109-.014.427.427,0,0,1-.3-.522v0c.132-.474.263-.952.395-1.423a.427.427,0,0,1,.821.234c-.132.467-.263.941-.388,1.409a.425.425,0,0,1-.416.321Zm.808-2.824a.448.448,0,0,1-.132-.018.425.425,0,0,1-.283-.531v0c.143-.468.293-.942.447-1.406a.426.426,0,0,1,.81.263c-.151.459-.3.927-.442,1.392a.427.427,0,0,1-.4.3Zm.921-2.789a.427.427,0,0,1-.4-.568h0c.163-.462.331-.93.5-1.388a.428.428,0,0,1,.8.3c-.17.453-.337.921-.5,1.372a.429.429,0,0,1-.408.285Zm1.027-2.749a.427.427,0,0,1-.424-.431.41.41,0,0,1,.029-.153c.182-.457.37-.921.559-1.367a.428.428,0,1,1,.789.332h0c-.188.446-.374.9-.552,1.351a.428.428,0,0,1-.408.267Zm1.138-2.7a.428.428,0,0,1-.395-.6c.2-.449.406-.9.614-1.342a.427.427,0,1,1,.772.363h0c-.205.437-.409.883-.606,1.326a.428.428,0,0,1-.392.253Zm1.251-2.656a.426.426,0,0,1-.427-.425.419.419,0,0,1,.045-.192c.22-.441.446-.884.672-1.316a.427.427,0,0,1,.783.343.5.5,0,0,1-.026.051c-.224.426-.447.862-.658,1.3a.428.428,0,0,1-.395.239Zm1.363-2.6a.426.426,0,0,1-.372-.634h0c.239-.431.484-.863.73-1.284a.427.427,0,0,1,.738.43c-.242.414-.485.842-.72,1.267a.427.427,0,0,1-.388.221ZM835.883,494a.426.426,0,0,1-.363-.651c.263-.42.526-.839.789-1.248a.428.428,0,0,1,.739.43l-.022.034c-.263.4-.526.818-.777,1.233a.43.43,0,0,1-.372.2Zm1.593-2.463a.429.429,0,0,1-.427-.429.423.423,0,0,1,.075-.239c.278-.408.562-.816.845-1.21a.427.427,0,0,1,.695.5c-.279.395-.56.789-.834,1.194a.43.43,0,0,1-.359.186Zm1.71-2.384a.426.426,0,0,1-.341-.684c.295-.395.6-.789.9-1.168a.427.427,0,0,1,.67.526c-.3.379-.6.766-.892,1.152a.427.427,0,0,1-.347.172Zm1.822-2.3a.428.428,0,0,1-.327-.7c.313-.375.637-.752.96-1.121a.428.428,0,0,1,.642.563c-.321.363-.639.735-.947,1.106a.427.427,0,0,1-.334.15Zm1.936-2.2a.426.426,0,0,1-.313-.717c.333-.36.676-.721,1.017-1.071a.427.427,0,0,1,.641.566l-.029.03c-.335.345-.672.7-1,1.052a.432.432,0,0,1-.316.133Zm2.046-2.1a.427.427,0,0,1-.3-.734c.353-.343.713-.684,1.071-1.017a.427.427,0,1,1,.58.626h0c-.354.327-.708.658-1.052,1a.428.428,0,0,1-.308.125Zm2.152-1.992a.426.426,0,0,1-.281-.747c.368-.322.746-.645,1.123-.96a.428.428,0,0,1,.546.658c-.372.309-.743.627-1.106.945a.426.426,0,0,1-.287.109Zm2.253-1.875a.427.427,0,0,1-.263-.763c.385-.3.78-.606,1.173-.9a.427.427,0,1,1,.509.685c-.385.288-.773.587-1.154.885a.431.431,0,0,1-.272.095Zm2.349-1.752a.427.427,0,0,1-.246-.776c.395-.283.81-.564,1.218-.835a.427.427,0,1,1,.474.71c-.395.263-.8.543-1.2.823a.43.43,0,0,1-.251.082Zm2.439-1.627a.427.427,0,0,1-.228-.789c.41-.263.835-.518,1.26-.772a.427.427,0,1,1,.47.714l-.033.02c-.42.25-.835.505-1.242.759a.41.41,0,0,1-.234.072Zm2.519-1.5a.428.428,0,0,1-.209-.8c.426-.238.863-.475,1.3-.705a.428.428,0,0,1,.395.755c-.428.225-.858.459-1.279.695a.424.424,0,0,1-.211.059Zm2.593-1.368a.426.426,0,0,1-.189-.809c.435-.217.881-.431,1.33-.639a.427.427,0,1,1,.388.762l-.029.013c-.439.205-.88.417-1.315.63a.433.433,0,0,1-.191.049Zm2.657-1.235a.428.428,0,0,1-.171-.818c.45-.2.908-.395,1.36-.573a.426.426,0,0,1,.322.789c-.447.183-.9.372-1.342.566a.434.434,0,0,1-.176.042Zm2.714-1.106a.426.426,0,0,1-.151-.826c.454-.172.921-.345,1.384-.508a.427.427,0,0,1,.328.789.284.284,0,0,1-.044.016c-.458.162-.921.33-1.365.5a.436.436,0,0,1-.158.033Zm2.763-.977a.427.427,0,0,1-.132-.833c.467-.154.939-.3,1.4-.445a.428.428,0,0,1,.292.8l-.044.013c-.46.141-.921.287-1.388.439a.425.425,0,0,1-.141.028Zm2.8-.851a.427.427,0,0,1-.114-.839c.47-.132.948-.263,1.425-.383a.428.428,0,0,1,.213.827c-.47.121-.943.247-1.406.378a.439.439,0,0,1-.124.022Zm2.835-.721a.428.428,0,0,1-.1-.842c.475-.112.959-.221,1.439-.322a.427.427,0,1,1,.179.835c-.475.1-.953.209-1.422.32A.492.492,0,0,1,873.067,467.552Zm2.865-.613a.428.428,0,0,1-.08-.847c.479-.092.967-.181,1.447-.263a.427.427,0,0,1,.146.842c-.479.083-.96.17-1.434.263a.4.4,0,0,1-.08,0Zm2.894-.5a.427.427,0,0,1-.064-.848c.482-.075.972-.146,1.458-.21a.428.428,0,1,1,.164.839l-.05.007c-.48.066-.965.132-1.447.208a.58.58,0,0,1-.068,0Zm2.9-.395a.428.428,0,0,1-.049-.851c.484-.057.976-.11,1.465-.159a.428.428,0,0,1,.086.85c-.484.049-.972.1-1.447.158Zm21.951-.033h-.042c-.488-.047-.979-.093-1.455-.132a.428.428,0,0,1,.074-.851c.48.042.974.088,1.465.132a.426.426,0,0,1-.041.851Zm-2.922-.254h-.033c-.48-.035-.971-.07-1.455-.1a.428.428,0,1,1,.011-.855l.042,0c.491.032.984.065,1.468.1a.428.428,0,0,1-.03.854Zm-16.112,0a.428.428,0,0,1-.034-.852c.483-.039.977-.078,1.468-.109a.426.426,0,0,1,.057.851c-.487.032-.975.07-1.454.108Zm13.184-.178h-.021c-.485-.024-.976-.045-1.46-.063a.428.428,0,0,1,.03-.854c.488.017.983.039,1.472.063a.428.428,0,0,1-.021.854Zm-10.261-.015a.428.428,0,0,1-.021-.854c.489-.024.984-.045,1.471-.062a.428.428,0,0,1,.067.852h-.038c-.481.017-.972.038-1.457.062Zm7.327-.092h-.011c-.488-.011-.98-.018-1.46-.024a.428.428,0,0,1-.038-.855h.046c.485,0,.98.012,1.472.024a.427.427,0,0,1-.01.854Zm-4.4-.009a.428.428,0,0,1-.008-.854c.483-.009.977-.016,1.472-.017h0a.428.428,0,0,1,0,.854c-.491,0-.981.008-1.459.017Z" transform="translate(-825.52 -464.592)" fill="#36543b"/>
          <path id="Trazado_170156" data-name="Trazado 170156" d="M826,509.9h-.026a.426.426,0,0,1-.395-.451c0-.01.016-.263.062-.745a.428.428,0,1,1,.855.037c0,.016,0,.03-.005.046-.045.459-.059.71-.059.713A.427.427,0,0,1,826,509.9Z" transform="translate(-825.573 -450.805)" fill="#36543b"/>
        </g>
      </g>
      <path id="Trazado_170157" data-name="Trazado 170157" d="M1125.786,570.558H812.5a.421.421,0,0,1-.354-.46h0a.421.421,0,0,1,.354-.46h313.287a.42.42,0,0,1,.354.46h0A.419.419,0,0,1,1125.786,570.558Z" transform="translate(0 46.058)" fill="#132d1a"/>
    </g>
  </g>
</svg>
