<svg xmlns="http://www.w3.org/2000/svg" width="106.102" height="105.98" viewBox="0 0 106.102 105.98">
  <g id="Grupo_128039" data-name="Grupo 128039" transform="translate(-114.555 -238.084)">
    <path id="Trazado_190700" data-name="Trazado 190700" d="M161.471,359.98H117.107c-2.069,0-2.551-.479-2.551-2.546q0-38,0-76.009c0-2.129.393-2.518,2.531-2.518h68.754c2.145,0,2.524.374,2.524,2.5,0,9.275-.017,18.551.025,27.826a1.6,1.6,0,0,1-1.316,1.872,16.95,16.95,0,0,0-5.794,28.828c.208.186.411.379.654.6C171.154,342.84,164.3,349.167,161.471,359.98Zm-30.594-33.262c1.441,0,2.883.012,4.324,0,1.363-.014,1.988-.517,2.015-1.576.027-1.085-.685-1.737-2-1.746q-4.324-.028-8.647,0c-1.249.006-2.032.632-2.069,1.592-.037.984.809,1.714,2.056,1.73C127.994,326.732,129.435,326.718,130.877,326.718Zm20.565,0c1.512,0,3.024.026,4.535-.008a1.8,1.8,0,0,0,1.94-1.749c-.02-.9-.806-1.557-1.977-1.564q-4.427-.027-8.854,0c-1.23.01-1.866.6-1.878,1.611-.012,1.054.666,1.681,1.916,1.7C148.562,326.737,150,326.717,151.442,326.716ZM130.8,338.3c1.513,0,3.026.014,4.539,0,1.164-.014,1.867-.646,1.877-1.634s-.694-1.634-1.857-1.639q-4.486-.021-8.971,0c-1.161,0-1.889.651-1.9,1.619a1.687,1.687,0,0,0,1.875,1.654C127.845,338.315,129.323,338.3,130.8,338.3Zm.067,11.445c1.441,0,2.882.011,4.323,0,1.371-.013,2.049-.592,2.025-1.689-.024-1.039-.7-1.611-2-1.618q-4.323-.022-8.646,0c-1.321,0-2.115.659-2.075,1.663.038.972.894,1.637,2.154,1.647C128.057,349.754,129.462,349.746,130.867,349.745Zm41.161-57.3c1.514,0,3.029.021,4.542-.007,1.189-.022,1.872-.662,1.848-1.65a1.743,1.743,0,0,0-1.906-1.646q-4.488-.029-8.977,0c-1.2.009-1.809.623-1.8,1.685.012,1.03.573,1.582,1.746,1.607C169,292.467,170.514,292.442,172.028,292.443Zm-20.5,42.576c-1.548,0-3.1-.02-4.643.007a1.5,1.5,0,0,0-1.675,1.56,1.516,1.516,0,0,0,1.653,1.7q4.589.041,9.178,0a1.877,1.877,0,0,0,1.872-1.729c.005-.886-.74-1.525-1.85-1.537C154.548,335.005,153.036,335.018,151.525,335.02Zm-.067,14.724c1.476,0,2.952.021,4.427-.006a1.854,1.854,0,0,0,2.029-1.784c-.029-.91-.788-1.513-1.992-1.519q-4.373-.02-8.747,0c-1.35.006-1.968.532-1.968,1.6s.717,1.69,2.039,1.7C148.65,349.757,150.054,349.745,151.457,349.744Zm-20.6-57.3c1.479,0,2.958.017,4.437-.005,1.209-.018,1.9-.619,1.918-1.591a1.758,1.758,0,0,0-1.959-1.709q-4.383-.026-8.766,0a1.825,1.825,0,0,0-1.989,1.7c.007.948.739,1.583,1.922,1.6C127.9,292.462,129.379,292.444,130.858,292.445Zm-.022,22.872c1.441,0,2.883.01,4.324,0,1.275-.012,2.016-.6,2.053-1.585.038-1.014-.758-1.723-2.033-1.731q-4.324-.027-8.648,0c-1.2.008-2.027.706-2.032,1.639-.005.956.878,1.667,2.121,1.678C128.026,315.326,129.431,315.317,130.836,315.316Zm20.759-3.324V312c-1.55,0-3.1-.031-4.65.011a1.591,1.591,0,0,0-1.738,1.656,1.631,1.631,0,0,0,1.775,1.638q4.488.044,8.977,0a1.846,1.846,0,0,0,1.962-1.633c.022-.939-.8-1.653-2-1.673C154.48,311.974,153.037,311.992,151.6,311.992Zm-.2-19.551v-.012c1.585,0,3.172.034,4.756-.013a1.846,1.846,0,0,0,1.761-1.719,1.78,1.78,0,0,0-1.791-1.551q-4.594-.038-9.189,0a1.612,1.612,0,0,0-1.721,1.682c0,1.014.578,1.576,1.752,1.6C148.436,292.466,149.914,292.441,151.392,292.441Zm.185,8.138v0c-1.55,0-3.1-.023-4.65.008a1.634,1.634,0,1,0-.035,3.265q4.6.039,9.191,0a1.651,1.651,0,1,0-.073-3.271C154.533,300.564,153.055,300.579,151.577,300.579Zm20.435,14.737c1.48,0,2.96.016,4.439-.005a1.762,1.762,0,0,0,1.963-1.7A1.727,1.727,0,0,0,176.479,312q-4.385-.033-8.771,0c-1.3.009-1.957.6-1.969,1.651s.644,1.646,1.941,1.662C169.124,315.33,170.568,315.316,172.012,315.316ZM130.85,303.87c1.477,0,2.954.012,4.431,0,1.189-.012,1.907-.613,1.933-1.576a1.725,1.725,0,0,0-1.938-1.707q-4.431-.023-8.863,0a1.782,1.782,0,0,0-1.917,1.64,1.8,1.8,0,0,0,1.923,1.64C127.895,303.884,129.372,303.87,130.85,303.87Zm41.184,0c1.478,0,2.956.012,4.434,0,1.185-.013,1.981-.723,1.949-1.7a1.734,1.734,0,0,0-1.947-1.586q-4.434-.02-8.867,0c-1.177.007-1.863.639-1.863,1.636s.694,1.629,1.861,1.644C169.078,303.884,170.556,303.869,172.034,303.87Z" transform="translate(0 -29.009)" fill="#fece10"/>
    <path id="Trazado_190701" data-name="Trazado 190701" d="M315.281,513.752c1.707-3.364,3.353-6.529,4.918-9.733a2.437,2.437,0,0,1,2.572-1.506,21.237,21.237,0,0,1,20.6,20.613c.064,2.308.033,4.619.017,6.929a1.667,1.667,0,0,1-1.832,1.912c-.288.016-.578.005-.866.005H290.019c-2.28,0-2.781-.452-2.721-2.712a74.8,74.8,0,0,1,.447-9.708c1.524-9.582,10.556-17.045,20.241-17.036a2.319,2.319,0,0,1,2.312,1.421C311.894,507.164,313.552,510.359,315.281,513.752Z" transform="translate(-122.755 -187.912)" fill="#fece10"/>
    <path id="Trazado_190702" data-name="Trazado 190702" d="M350.121,425.688a13.667,13.667,0,0,1-13.575-14.022,13.743,13.743,0,1,1,13.575,14.022Z" transform="translate(-157.754 -113.912)" fill="#fece10"/>
    <path id="Trazado_190703" data-name="Trazado 190703" d="M206.241,246.519H156.917c0-2.333-.085-4.636.066-6.924.033-.506.85-1.029,1.4-1.4.279-.188.772-.073,1.168-.073q22.033,0,44.066,0c2.225,0,2.621.408,2.622,2.68C206.241,242.667,206.241,244.536,206.241,246.519Z" transform="translate(-30.087)" fill="#fece10"/>
  </g>
</svg>
