<svg xmlns="http://www.w3.org/2000/svg" width="86.107" height="105.98" viewBox="0 0 86.107 105.98">
  <g id="Grupo_128042" data-name="Grupo 128042" transform="translate(-141.93 -229.831)">
    <path id="Trazado_190721" data-name="Trazado 190721" d="M141.93,392.421V308.094h7.259v1.332q0,36.487,0,72.974c0,2.281.459,2.747,2.7,2.747h54.652v7.274Z" transform="translate(0 -56.61)" fill="#fece10"/>
    <path id="Trazado_190722" data-name="Trazado 190722" d="M220.225,314.1v-84.27h64.446V314.1Zm13.689-12.7c-1.752,0-3.365-.022-4.977.008a1.713,1.713,0,0,0-1.784,1.643,1.8,1.8,0,0,0,1.7,1.865,4.532,4.532,0,0,0,.517.012q23.084,0,46.167,0c1.408,0,2.2-.644,2.213-1.759s-.769-1.762-2.175-1.77c-1.228-.007-2.457,0-3.765,0v-1.388q0-13.612,0-27.224a7.312,7.312,0,0,0-.048-1.135,1.692,1.692,0,0,0-1.779-1.527,1.672,1.672,0,0,0-1.685,1.62,10.882,10.882,0,0,0-.028,1.137q0,13.561,0,27.121v1.319h-7.943v-1.2q0-8.643,0-17.287a7.851,7.851,0,0,0-.035-1.137,1.6,1.6,0,0,0-1.5-1.462,1.571,1.571,0,0,0-1.807,1.058,4.253,4.253,0,0,0-.179,1.42q-.017,8.7-.007,17.391v1.213h-7.9V300.11q0-11.283,0-22.566a7.8,7.8,0,0,0-.024-1.034,1.751,1.751,0,0,0-3.488.059,8.923,8.923,0,0,0-.015.931q0,11.283,0,22.566v1.263h-7.909v-1.183q0-6.418-.007-12.836a3.978,3.978,0,0,0-.167-1.321,1.725,1.725,0,0,0-3.316.325,7.09,7.09,0,0,0-.045,1.136q0,6.366,0,12.732Zm2.784-68.152a12.844,12.844,0,1,0,12.811,12.959A12.815,12.815,0,0,0,236.7,233.248Zm33.194,27.843c-3.3,2.82-6.432,5.466-9.522,8.16a1.214,1.214,0,0,1-1.544.174c-3.99-1.8-8.008-3.531-12-5.328a2.16,2.16,0,0,0-2.558.352c-2.862,2.44-5.754,4.844-8.635,7.263-1.744,1.464-3.532,2.882-5.2,4.426a2.273,2.273,0,0,0-.618,1.789,1.924,1.924,0,0,0,1.265,1.255,2.617,2.617,0,0,0,1.835-.617q6.2-5.094,12.3-10.3a1.377,1.377,0,0,1,1.717-.268c3.826,1.74,7.707,3.363,11.509,5.152a2.757,2.757,0,0,0,3.437-.53c3.072-2.723,6.224-5.357,9.346-8.025.237-.2.485-.392.895-.722-.076.881-.173,1.5-.173,2.114a1.731,1.731,0,0,0,1.549,1.777,1.641,1.641,0,0,0,1.895-1.371c.261-2.26.47-4.529.606-6.8a1.505,1.505,0,0,0-1.426-1.635c-2.193-.252-4.392-.459-6.594-.605a1.724,1.724,0,0,0-1.832,1.716,1.789,1.789,0,0,0,1.666,1.785C268.424,260.933,269.041,260.994,269.892,261.091Zm-5.082-12.078c-3.618,0-7.236-.007-10.854,0-1.222,0-1.951.6-2.035,1.593-.1,1.173.714,1.928,2.128,1.929q10.751.009,21.5,0c1.4,0,2.2-.652,2.2-1.765s-.778-1.758-2.188-1.761Q270.185,249,264.81,249.013Zm.112-9.385q-5.225,0-10.449,0a6.135,6.135,0,0,0-1.133.056,1.579,1.579,0,0,0-1.39,1.562,1.611,1.611,0,0,0,1.233,1.793,3.2,3.2,0,0,0,.92.1q10.76.008,21.519,0a3.015,3.015,0,0,0,.918-.113,1.611,1.611,0,0,0,1.2-1.724,1.588,1.588,0,0,0-1.338-1.61,5.351,5.351,0,0,0-1.132-.066Q270.094,239.624,264.922,239.628Z" transform="translate(-56.633)" fill="#fece10"/>
    <path id="Trazado_190723" data-name="Trazado 190723" d="M245.61,345.986v7.233H181.159V268.9h7.212v74.25c0,2.415.42,2.834,2.838,2.834h54.4Z" transform="translate(-28.376 -28.261)" fill="#fece10"/>
    <path id="Trazado_190724" data-name="Trazado 190724" d="M274.031,294.858a9.292,9.292,0,0,1-6.325,7.089,8.735,8.735,0,0,1-8.483-1.6c2.055-1.776,4.1-3.55,6.158-5.308a.941.941,0,0,1,.569-.17C268.6,294.855,271.246,294.858,274.031,294.858Z" transform="translate(-84.842 -47.036)" fill="#fece10"/>
    <path id="Trazado_190725" data-name="Trazado 190725" d="M247.346,269.505c-3.311-5.152.134-12.776,6.164-13.628.022.363.061.718.062,1.073.006,2.137.022,4.275-.015,6.411a1.624,1.624,0,0,1-.4,1.084C251.261,266.148,249.319,267.8,247.346,269.505Z" transform="translate(-75.32 -18.84)" fill="#fece10"/>
    <path id="Trazado_190726" data-name="Trazado 190726" d="M286.25,263.217v-7.076c3.034.017,6.391,3.277,7.261,7.076Z" transform="translate(-104.391 -19.031)" fill="#fece10"/>
  </g>
</svg>
