<svg xmlns="http://www.w3.org/2000/svg" width="86.066" height="105.98" viewBox="0 0 86.066 105.98">
  <g id="Grupo_128040" data-name="Grupo 128040" transform="translate(-141.991 -229.601)">
    <path id="Trazado_190704" data-name="Trazado 190704" d="M222.68,467.462c-1.947-.409-3.929-.7-5.836-1.247a27.755,27.755,0,0,1,3.783-53.953c14.607-2.534,29.295,7.957,31.658,22.614a27.73,27.73,0,0,1-22.014,32.059c-1.007.205-2.025.353-3.038.527Zm.564-26.224v11.284a5.718,5.718,0,0,1-4.5-4.235,11.248,11.248,0,0,1-.165-1.124c-.131-1.149-.781-1.763-1.793-1.681a1.652,1.652,0,0,0-1.5,1.979c.3,3.757,2.2,6.58,5.694,7.781,2.084.716,2.566,1.684,2.346,3.614a1.546,1.546,0,0,0,1.655,1.8,1.622,1.622,0,0,0,1.617-1.766c.026-.925.005-1.851.005-2.788,4.739-1.227,7.963-3.957,7.957-9.017s-3.241-7.769-7.955-8.986V426.85a5.726,5.726,0,0,1,4.707,5.2c.147,1.324.789,1.986,1.823,1.88,1.015-.1,1.58-.962,1.466-2.22a8.064,8.064,0,0,0-3.085-5.979,43.7,43.7,0,0,0-4.912-2.792c0-.543.018-1.47,0-2.4a1.656,1.656,0,1,0-3.3-.032c-.024.928,0,1.857,0,2.762-5.726,2.148-8.233,5.082-8.019,9.335C215.477,436.475,218.183,440.157,223.244,441.238Z" transform="translate(-39.933 -131.881)" fill="#fece10"/>
    <path id="Trazado_190705" data-name="Trazado 190705" d="M248.309,250.606H243.3c-.62,0-1.241-.006-1.861,0a1.7,1.7,0,0,1-1.408-2.937c1.9-2.317,3.791-4.646,5.686-6.97q4.116-5.048,8.235-10.094c1.1-1.343,2.1-1.34,3.206.017q6.867,8.409,13.731,16.819c.55.672,1,1.344.56,2.241-.419.851-1.2.931-2.024.927-2.166-.011-4.332,0-6.635,0v1.286q0,11.272,0,22.545c0,1.81-.526,2.335-2.342,2.338q-4.912.006-9.825,0c-1.795,0-2.313-.535-2.314-2.364q0-11.272,0-22.545Z" transform="translate(-70.525 0)" fill="#fece10"/>
    <path id="Trazado_190706" data-name="Trazado 190706" d="M148.764,332.957c-1.685,0-3.2-.009-4.715,0a1.845,1.845,0,0,1-1.889-.989,1.792,1.792,0,0,1,.473-2.068q5.266-6.447,10.52-12.9a1.718,1.718,0,0,1,3.012,0c3.539,4.319,7.084,8.634,10.557,13.006a2.661,2.661,0,0,1,.385,1.97c-.163.773-.963.987-1.747.982-1.546-.009-3.092,0-4.773,0v1.17q0,8.223,0,16.446c0,1.768-.514,2.283-2.265,2.285-2.517,0-5.034.007-7.551,0-1.443,0-2-.554-2-2q-.013-8.275,0-16.549Z" transform="translate(0 -62.588)" fill="#fece10"/>
    <path id="Trazado_190707" data-name="Trazado 190707" d="M368.408,332.959c-1.687,0-3.2-.01-4.719,0a1.736,1.736,0,0,1-1.425-3.017q5.275-6.44,10.53-12.9c1.021-1.248,2.066-1.251,3.076-.015q5.269,6.445,10.522,12.9a1.762,1.762,0,0,1,.421,2.077,1.886,1.886,0,0,1-1.915.949c-1.511-.016-3.022,0-4.665,0v1.191q0,8.223,0,16.446c0,1.792-.475,2.262-2.264,2.263q-3.724,0-7.447,0c-1.546,0-2.108-.565-2.109-2.126q-.008-8.275,0-16.55Z" transform="translate(-158.946 -62.59)" fill="#fece10"/>
    <path id="Trazado_190708" data-name="Trazado 190708" d="M279.254,466.159v10.827a5.472,5.472,0,0,1,0-10.827Z" transform="translate(-95.928 -171.149)" fill="#fece10"/>
    <path id="Trazado_190709" data-name="Trazado 190709" d="M303.908,519.611a5.507,5.507,0,0,1,0,10.875Q303.909,525.031,303.908,519.611Z" transform="translate(-117.147 -209.822)" fill="#fece10"/>
  </g>
</svg>
