<svg xmlns="http://www.w3.org/2000/svg" width="105.679" height="106.073" viewBox="0 0 105.679 106.073">
  <g id="Grupo_128038" data-name="Grupo 128038" transform="translate(-106.685 -229.62)">
    <path id="Trazado_190695" data-name="Trazado 190695" d="M114.782,569.563a24.983,24.983,0,0,1-4.212-1.843,8.68,8.68,0,0,1-3.855-7.3c-.047-1.414-.031-2.83-.006-4.245A3.086,3.086,0,0,1,109.935,553q17.5-.017,35,0a3.1,3.1,0,0,1,3.2,3.207c0,.138,0,.276,0,.414.008,2.587.008,2.587,2.644,2.587h18.327c1.626,0,1.815-.2,1.817-1.862,0-.38-.007-.759,0-1.139a3.109,3.109,0,0,1,3.2-3.207c1.9-.025,3.8-.006,5.695-.006h28.785c2.581,0,3.765,1.152,3.744,3.7a36.24,36.24,0,0,1-.174,5.057,9.052,9.052,0,0,1-7.421,7.637,3.335,3.335,0,0,0-.477.176Z" transform="translate(0 -233.87)" fill="#fece10"/>
    <path id="Trazado_190696" data-name="Trazado 190696" d="M219.011,368.132H217.7c-10.6,0-21.194.052-31.79-.024-4.661-.033-7.928,1.9-9.852,6.237-3.615,0-7.27.009-10.925-.022a.932.932,0,0,1-.638-.492c-1.881-3.953-5.034-5.727-9.369-5.712-10.666.039-21.332.013-32,.013h-1.412v-1.111q0-24.593,0-49.187c0-6.9,4.909-11.842,11.774-11.847q21.021-.016,42.042,0h1.08c0,.82-.014,1.6,0,2.375a41.2,41.2,0,0,0,.166,5.06,10.962,10.962,0,0,0,7.29,9.026,1.391,1.391,0,0,1,.992,1.227,9.25,9.25,0,0,0,14.277,6.244c3.194-2.047,6.32-4.2,9.486-6.291a2.1,2.1,0,0,1,1.013-.427c3.033-.033,6.067-.019,9.171-.019ZM179.537,339.3a12.435,12.435,0,0,0-17.047-18.028,12.13,12.13,0,0,0-4.42,8.055,12.3,12.3,0,0,0,3.076,9.827,54.7,54.7,0,0,0-4.408,3.479c-4.409,4.251-6.23,9.543-6.033,15.614.081,2.486,1.2,3.67,3.69,3.67q16,0,31.991,0c.276,0,.554.012.827-.013a3.074,3.074,0,0,0,2.841-2.816,20.819,20.819,0,0,0-3.143-13.037A20.235,20.235,0,0,0,179.537,339.3Z" transform="translate(-10.87 -55.227)" fill="#fece10"/>
    <path id="Trazado_190697" data-name="Trazado 190697" d="M350.8,261.734c-1.093,0-2.054.011-3.015,0a5.15,5.15,0,0,1-5.264-5.232q-.032-10.82,0-21.639a5.121,5.121,0,0,1,5.261-5.229q14.91-.024,29.819,0a5.127,5.127,0,0,1,5.3,5.293q.029,10.768,0,21.536a5.142,5.142,0,0,1-5.326,5.272c-3.14.019-6.282-.019-9.422.027a3.187,3.187,0,0,0-1.611.495q-5.241,3.422-10.425,6.932a3.209,3.209,0,0,1-5.326-2.869C350.828,264.837,350.8,263.357,350.8,261.734Zm12-19.148c-2,0-4-.011-6,0a3.107,3.107,0,1,0-.082,6.194q6,.062,12.007,0a3.085,3.085,0,0,0,3.293-3.113c-.006-1.819-1.378-3.066-3.418-3.08C366.672,242.576,364.74,242.586,362.808,242.586Z" transform="translate(-170.558)" fill="#fece10"/>
    <path id="Trazado_190698" data-name="Trazado 190698" d="M276.172,453.13H249.45a13.234,13.234,0,0,1,12.513-12.351A13.406,13.406,0,0,1,276.172,453.13Z" transform="translate(-103.254 -152.7)" fill="#fece10"/>
    <path id="Trazado_190699" data-name="Trazado 190699" d="M275.183,379.435a6.212,6.212,0,1,1,6.118,6.357A6.22,6.22,0,0,1,275.183,379.435Z" transform="translate(-121.865 -103.965)" fill="#fece10"/>
  </g>
</svg>
