<svg xmlns="http://www.w3.org/2000/svg" width="92" height="92" viewBox="0 0 92 92">
  <g id="Grupo_127249" data-name="Grupo 127249" transform="translate(-210 -210)">
    <g id="Grupo_86382" data-name="Grupo 86382">
      <path id="Trazado_172123" data-name="Trazado 172123" d="M46,0A46,46,0,1,1,0,46,46,46,0,0,1,46,0Z" transform="translate(210 210)" fill="#54aa13"/>
      <path id="Trazado_163605" data-name="Trazado 163605" d="M39.292,0A39.292,39.292,0,1,1,0,39.292,39.292,39.292,0,0,1,39.292,0Z" transform="translate(217 216.708)" fill="#f1ffe6"/>
      <g id="Grupo_111847" data-name="Grupo 111847" transform="translate(-352.277 72.14)">
        <path id="Trazado_172281" data-name="Trazado 172281" d="M591.752,206.686c-1.453,0-2.836,0-4.22,0-.97,0-1.254-.285-1.254-1.255q0-24.294,0-48.586c0-.979.28-1.265,1.242-1.265q17.931,0,35.862,0c.925,0,1.215.3,1.216,1.235,0,1.386,0,2.772,0,4.241h.57c1.292,0,2.585-.008,3.877,0a.925.925,0,0,1,1.027,1.023c0,.132,0,.266,0,.4v48.244c0,1.213-.222,1.438-1.415,1.438h-35.52c-1.156,0-1.387-.235-1.388-1.407Zm31-49.241h-34.6V204.83h34.6Zm1.85,5.458v42.417c0,1.121-.246,1.366-1.372,1.366h-29.6v3.621h34.593V162.9Z"/>
        <path id="Trazado_172282" data-name="Trazado 172282" d="M623.787,158.481v47.385h-34.6V158.481Zm-17.355,43.765h14.142c1.176,0,1.413-.231,1.413-1.383V187.174c0-1.1-.251-1.355-1.326-1.355h-28.4c-1.038,0-1.3.266-1.3,1.325q0,6.9,0,13.8c0,1.038.267,1.3,1.325,1.3Zm-11.817-30.13a11.86,11.86,0,1,0,11.872-11.847A11.889,11.889,0,0,0,594.615,172.116Zm-.94-11.819h-1.761v1.751h1.761Zm1.884-.005v1.762h1.751v-1.762Zm20.066,1.768h1.765v-1.755h-1.765Zm5.424-1.755h-1.755v1.756h1.755Zm-27.385,23.661v-1.755h-1.759v1.755Zm3.643.007V182.2h-1.744v1.775Zm18.341-1.793v1.775h1.734v-1.775Zm5.381,1.793V182.2h-1.744v1.775Z" transform="translate(-1.038 -1.036)" fill="#fdffe6"/>
        <path id="Trazado_172283" data-name="Trazado 172283" d="M628.677,166.969h3.617v47.4H597.7v-3.621h29.6c1.126,0,1.372-.245,1.372-1.366V166.969Z" transform="translate(-4.079 -4.067)" fill="#fdffe6"/>
        <path id="Trazado_172284" data-name="Trazado 172284" d="M607.42,217.425H593.278c-1.058,0-1.325-.261-1.325-1.3q0-6.9,0-13.8c0-1.059.26-1.325,1.3-1.325h28.4c1.075,0,1.326.257,1.326,1.355v13.689c0,1.152-.237,1.383-1.413,1.383Zm13.707-14.574H593.812v12.711h27.315Z" transform="translate(-2.026 -16.215)"/>
        <path id="Trazado_172285" data-name="Trazado 172285" d="M597.63,173.109a11.86,11.86,0,1,1,11.791,11.877A11.87,11.87,0,0,1,597.63,173.109Zm11.856,10.048A10.036,10.036,0,1,0,599.455,173.1,10.037,10.037,0,0,0,609.485,183.157Z" transform="translate(-4.053 -2.029)"/>
        <path id="Trazado_172286" data-name="Trazado 172286" d="M595.191,161.306v1.751H593.43v-1.751Z" transform="translate(-2.554 -2.045)"/>
        <path id="Trazado_172287" data-name="Trazado 172287" d="M599.1,161.3h1.751v1.762H599.1Z" transform="translate(-4.577 -2.042)"/>
        <path id="Trazado_172288" data-name="Trazado 172288" d="M630.306,163.073v-1.755h1.765v1.755Z" transform="translate(-15.719 -2.049)"/>
        <path id="Trazado_172289" data-name="Trazado 172289" d="M637.767,161.318v1.756h-1.755v-1.756Z" transform="translate(-17.756 -2.049)"/>
        <path id="Trazado_172290" data-name="Trazado 172290" d="M595.175,197.143h-1.759v-1.755h1.759Z" transform="translate(-2.549 -14.212)"/>
        <path id="Trazado_172291" data-name="Trazado 172291" d="M600.847,197.143H599.1v-1.775h1.744Z" transform="translate(-4.579 -14.205)"/>
        <path id="Trazado_172292" data-name="Trazado 172292" d="M630.341,195.34h1.734v1.775h-1.734Z" transform="translate(-15.731 -14.195)"/>
        <path id="Trazado_172293" data-name="Trazado 172293" d="M637.742,197.143H636v-1.775h1.744Z" transform="translate(-17.751 -14.205)"/>
        <path id="Trazado_172294" data-name="Trazado 172294" d="M622.159,203.88v12.711H594.844V203.88Zm-1.829,1.836H596.68v1.759h23.65Zm0,3.65H596.68v1.759H620.33Zm0,3.653h-23.67v1.753h23.67Z" transform="translate(-3.058 -17.244)" fill="#f9cb3a"/>
        <path id="Trazado_172295" data-name="Trazado 172295" d="M610.5,184.169a10.036,10.036,0,1,1,10.039-10.1A10.047,10.047,0,0,1,610.5,184.169Zm-5.008-13.685c-.684,0-1.368.012-2.052,0a.975.975,0,0,0-1.09.632c-.181.52.1.859.488,1.162,1.134.894,2.246,1.816,3.394,2.692a.747.747,0,0,1,.282,1c-.479,1.34-.9,2.7-1.368,4.044a.948.948,0,0,0,1.544,1.087c1.107-.9,2.24-1.763,3.328-2.684.39-.33.626-.3,1,.017,1.09.917,2.221,1.786,3.328,2.682a.94.94,0,0,0,1.244.143.957.957,0,0,0,.283-1.223c-.472-1.382-.911-2.776-1.4-4.155a.64.64,0,0,1,.243-.859c1.173-.9,2.317-1.848,3.479-2.769a.947.947,0,0,0-.609-1.772c-1.35.012-2.7-.017-4.048.016a.652.652,0,0,1-.747-.556c-.429-1.357-.9-2.7-1.337-4.054-.16-.494-.4-.881-.972-.871-.543.009-.773.38-.927.853-.456,1.408-.943,2.806-1.4,4.215a.485.485,0,0,1-.561.408C606.9,170.467,606.194,170.483,605.49,170.483Z" transform="translate(-5.066 -3.041)" fill="#f9cb3a"/>
        <path id="Trazado_172296" data-name="Trazado 172296" d="M621.35,206.735v1.759H597.7v-1.759Z" transform="translate(-4.078 -18.263)"/>
        <path id="Trazado_172297" data-name="Trazado 172297" d="M621.35,212.412v1.759H597.7v-1.759Z" transform="translate(-4.078 -20.29)"/>
        <path id="Trazado_172298" data-name="Trazado 172298" d="M621.343,218.094v1.753H597.673v-1.753Z" transform="translate(-4.068 -22.319)"/>
        <path id="Trazado_172299" data-name="Trazado 172299" d="M606.5,170.994c.7,0,1.407-.016,2.109.008a.485.485,0,0,0,.561-.408c.452-1.409.939-2.807,1.4-4.215.154-.473.383-.844.927-.853.576-.01.813.377.972.871.437,1.354.909,2.7,1.337,4.054a.652.652,0,0,0,.747.556c1.348-.033,2.7,0,4.048-.016a.947.947,0,0,1,.609,1.772c-1.161.921-2.305,1.865-3.479,2.769a.64.64,0,0,0-.243.859c.484,1.379.923,2.773,1.4,4.155a.957.957,0,0,1-.283,1.223.94.94,0,0,1-1.244-.143c-1.107-.9-2.238-1.765-3.328-2.682-.372-.312-.608-.347-1-.017-1.087.921-2.221,1.786-3.327,2.684a.948.948,0,0,1-1.544-1.087c.463-1.346.889-2.7,1.368-4.044a.747.747,0,0,0-.282-1c-1.148-.875-2.261-1.8-3.394-2.692-.385-.3-.669-.642-.488-1.163a.975.975,0,0,1,1.09-.632C605.135,171.006,605.819,170.994,606.5,170.994Zm7.551,7.238.108-.056-.571-1.711c-.4-1.192-.384-1.236.587-2.015l2.038-1.631H613.88c-1.127,0-1.214-.066-1.575-1.146-.241-.721-.489-1.44-.734-2.16a21.017,21.017,0,0,0-.914,2.377c-.266.784-.462.927-1.276.928s-1.6,0-2.551,0c.887.71,1.638,1.318,2.4,1.915a.992.992,0,0,1,.369,1.252c-.13.336-.234.682-.343,1.025-.125.393-.244.788-.415,1.34.752-.6,1.357-1.089,1.968-1.568a.945.945,0,0,1,1.426,0C612.843,177.259,613.446,177.748,614.054,178.232Z" transform="translate(-6.079 -3.551)"/>
        <path id="Trazado_172300" data-name="Trazado 172300" d="M616.011,180.446c-.608-.484-1.211-.973-1.823-1.451a.945.945,0,0,0-1.426,0c-.611.48-1.215.968-1.968,1.568.17-.552.289-.947.415-1.34.109-.343.214-.689.343-1.025a.992.992,0,0,0-.369-1.252c-.759-.6-1.51-1.2-2.4-1.915.948,0,1.75,0,2.551,0s1.011-.144,1.276-.928a21.028,21.028,0,0,1,.914-2.376c.245.72.493,1.439.734,2.16.361,1.08.448,1.146,1.575,1.146h2.336l-2.038,1.631c-.972.779-.984.823-.587,2.015l.571,1.711Z" transform="translate(-8.036 -5.766)" fill="#2432ff"/>
      </g>
    </g>
  </g>
</svg>
