<svg xmlns="http://www.w3.org/2000/svg" width="85.997" height="86" viewBox="0 0 85.997 86">
  <g id="Grupo_128209" data-name="Grupo 128209" transform="translate(-835.007 -324.882)">
    <path id="Trazado_190819" data-name="Trazado 190819" d="M900.622,619.509a3.489,3.489,0,0,1-2.112-2.717c-.207-.983-.449-1.963-.75-2.921a1.16,1.16,0,0,0-.667-.693,39.351,39.351,0,0,1-10.5-4.344,1.056,1.056,0,0,0-.883.012c-1.006.547-1.968,1.176-2.962,1.747a2.558,2.558,0,0,1-3.5-.433q-3.373-3.336-6.709-6.708a2.58,2.58,0,0,1-.444-3.564c.547-.944,1.1-1.887,1.689-2.8a.982.982,0,0,0,.017-1.13c-.979-1.975-1.905-3.976-2.841-5.973a8.618,8.618,0,0,1-.294-.878h3.168c2.323,0,4.647.025,6.969-.017a1.139,1.139,0,0,1,1.153.7,27.534,27.534,0,0,0,47.063,2.224c.521-.793.969-1.636,1.494-2.427a1.026,1.026,0,0,1,.669-.463c3.414-.026,6.829-.013,10.243-.006.047,0,.093.043.334.163-.934,1.981-1.78,4.015-2.843,5.929a2.038,2.038,0,0,0,.043,2.6,17.017,17.017,0,0,1,1.306,2.148,2.534,2.534,0,0,1-.423,3.429q-3.362,3.407-6.768,6.769a2.562,2.562,0,0,1-3.5.435c-.994-.571-1.955-1.2-2.961-1.747a1.056,1.056,0,0,0-.883-.012,39.355,39.355,0,0,1-10.5,4.344,1.16,1.16,0,0,0-.667.693c-.3.958-.544,1.938-.751,2.921a3.489,3.489,0,0,1-2.112,2.717Z" transform="translate(-28.161 -208.627)" fill="#30610c"/>
    <path id="Trazado_190820" data-name="Trazado 190820" d="M921,533.728a4.037,4.037,0,0,1-2.953,2.9,6.127,6.127,0,0,1-1.248.114q-38.8.008-77.6,0a3.836,3.836,0,0,1-3.964-2.5,3.561,3.561,0,0,1,1.168-4.146,7.789,7.789,0,0,1,2.213-.881,3.427,3.427,0,0,1,1-.026q38.3,0,76.59-.026c2.357,0,4,.758,4.789,3.049Z" transform="translate(0 -161.31)" fill="#30610c"/>
    <path id="Trazado_190821" data-name="Trazado 190821" d="M884.03,333.389v13.185c0,.224,0,.448,0,.672.006,1.841,1,3.01,2.544,2.994,1.52-.016,2.493-1.164,2.494-2.96q0-8.356,0-16.712c0-3.644,2.026-5.681,5.649-5.684q4.451,0,8.9,0c3.566,0,5.6,2.054,5.6,5.643,0,5.655-.007,11.31.005,16.965a2.517,2.517,0,0,0,3.51,2.535,2.562,2.562,0,0,0,1.529-2.573c-.011-4.311,0-8.622,0-12.933v-1.135c1.695.927,3.264,1.761,4.8,2.655.178.1.23.533.231.812.015,3.583-.006,7.167.018,10.75a2.5,2.5,0,0,0,3.453,2.444,2.47,2.47,0,0,0,1.576-2.451c.005-2.212,0-4.423,0-6.635v-1a38.216,38.216,0,0,1,12.171,22.827H861.782a38.147,38.147,0,0,1,12.11-22.773c.026.354.057.586.058.819,0,2.211-.006,4.423.005,6.635a2.528,2.528,0,1,0,5.033,0c.01-3.527.016-7.055-.01-10.582a1.064,1.064,0,0,1,.637-1.118C881.047,335.036,882.453,334.246,884.03,333.389Z" transform="translate(-21.143)" fill="#30610c"/>
  </g>
</svg>
