<svg xmlns="http://www.w3.org/2000/svg" width="105.99" height="105.98" viewBox="0 0 105.99 105.98">
  <g id="Grupo_128041" data-name="Grupo 128041" transform="translate(-118.649 -242.381)">
    <path id="Trazado_190710" data-name="Trazado 190710" d="M296.321,306.748c-11.257-.414-20.18-5-26.679-14.188a1.72,1.72,0,0,1-.182-1.9q5.625-13.8-2.925-26.046a1.62,1.62,0,0,1-.211-1.8c5.06-11.908,13.964-18.872,26.834-20.257a32.136,32.136,0,0,1,7.507,63.821C299.206,306.592,297.724,306.634,296.321,306.748Zm17.232-47.357c-.5-.64-.791-1.344-1.3-1.577a3.124,3.124,0,0,0-1.867.055c-.347.085-.624.5-.91.782Q294.934,273.19,280.4,287.736a5.274,5.274,0,0,0-.869,1,1.868,1.868,0,0,0,2.532,2.551,4.678,4.678,0,0,0,.923-.786q2.556-2.539,5.1-5.093,12.07-12.073,24.13-24.156A15.07,15.07,0,0,0,313.553,259.391Zm-19.2,5.7a7.558,7.558,0,1,0-7.541,7.552A7.565,7.565,0,0,0,294.354,265.091Zm11.354,26.482a7.563,7.563,0,1,0-7.548-7.546A7.625,7.625,0,0,0,305.708,291.572Z" transform="translate(-103.806)" fill="#fece10"/>
    <path id="Trazado_190711" data-name="Trazado 190711" d="M140.907,293.355a22.715,22.715,0,1,1-22.168,23.676A22.8,22.8,0,0,1,140.907,293.355Zm-1.4,35.487a5.351,5.351,0,0,1-3.743-4.93c-.106-1.39-.885-2.221-2.016-2.149s-1.793.949-1.757,2.362a9.545,9.545,0,0,0,6.712,8.616,1.731,1.731,0,0,1,.874.873,1.965,1.965,0,0,0,1.826,1.368,1.7,1.7,0,0,0,1.8-1.35c.147-.62.453-.789,1-.952a9.1,9.1,0,0,0,4.739-3.294,9.424,9.424,0,0,0-4.8-14.781c-.656-.2-.866-.469-.844-1.135.049-1.439.015-2.882.015-4.322v-5.855a5.414,5.414,0,0,1,3.77,4.942c.107,1.419.839,2.2,2.008,2.138s1.8-.913,1.766-2.342a9.445,9.445,0,0,0-6.512-8.517c-.556-.181-1.043-.279-1.175-1.05a1.616,1.616,0,0,0-1.72-1.294,1.652,1.652,0,0,0-1.8,1.339c-.128.732-.569.82-1.1.989a9.455,9.455,0,0,0-.067,17.99c.339.113.675.234,1.017.353Z" transform="translate(-0.049 -35.865)" fill="#fece10"/>
    <path id="Trazado_190712" data-name="Trazado 190712" d="M141.39,497.842q9.978,0,19.956,0c2.2,0,2.757.559,2.759,2.751,0,.924.024,1.849-.008,2.772a1.912,1.912,0,0,1-1.988,2.057c-.294.022-.591.012-.887.012q-19.846,0-39.691,0c-2.364,0-2.863-.5-2.864-2.857,0-.776-.005-1.553,0-2.329.013-1.74.661-2.384,2.432-2.4,1.035-.012,2.07,0,3.1,0Z" transform="translate(-0.012 -179.789)" fill="#fece10"/>
    <path id="Trazado_190713" data-name="Trazado 190713" d="M141.267,467.066H121.533c-2.425,0-2.876-.461-2.876-2.932,0-.85-.019-1.7.006-2.55a1.934,1.934,0,0,1,2.081-2.083c.221-.011.443,0,.665,0h39.912c2.2,0,2.77.563,2.773,2.739,0,.85.01,1.7,0,2.55-.023,1.606-.683,2.273-2.314,2.276Q151.522,467.076,141.267,467.066Z" transform="translate(0 -152.803)" fill="#fece10"/>
    <path id="Trazado_190714" data-name="Trazado 190714" d="M141.391,543.864q-10.033,0-20.067,0c-2.056,0-2.655-.6-2.659-2.627,0-.887-.008-1.774,0-2.661.018-1.614.666-2.253,2.3-2.284.332-.007.665,0,1,0h39.246c2.423,0,2.888.474,2.888,2.93,0,.776.009,1.552,0,2.328-.024,1.6-.706,2.3-2.31,2.311-3.7.017-7.391.006-11.087.006Z" transform="translate(-0.008 -206.849)" fill="#fece10"/>
    <path id="Trazado_190715" data-name="Trazado 190715" d="M141.365,574.638q10.089,0,20.178,0c1.976,0,2.555.591,2.561,2.587,0,.85.006,1.7,0,2.55-.014,1.752-.67,2.419-2.415,2.42q-9.368.008-18.737,0H121.775c-2.681,0-3.108-.42-3.108-3.054,0-.739-.007-1.479,0-2.218.019-1.615.676-2.284,2.3-2.286Q131.165,574.63,141.365,574.638Z" transform="translate(-0.01 -233.839)" fill="#fece10"/>
    <path id="Trazado_190716" data-name="Trazado 190716" d="M349.33,510.3h-7.56v-1.354q0-12.133,0-24.266c0-2.143-.562-2.713-2.665-2.716-.775,0-1.552.02-2.326-.014-.223-.01-.572-.134-.622-.286A.848.848,0,0,1,336.4,481c.4-.434.847-.823,1.28-1.225q3.882-3.62,7.747-7.22c2.093,1.267,9.416,8.5,9.414,9.407-1.057,0-2.116-.006-3.175,0-1.686.011-2.334.656-2.335,2.354q-.007,12.3,0,24.6Z" transform="translate(-153.071 -161.996)" fill="#fece10"/>
    <path id="Trazado_190717" data-name="Trazado 190717" d="M330.664,310.013a3.747,3.747,0,0,1-3.836,3.732,3.782,3.782,0,1,1,3.836-3.732Z" transform="translate(-143.9 -44.902)" fill="#fece10"/>
    <path id="Trazado_190718" data-name="Trazado 190718" d="M390.844,370.176a3.768,3.768,0,0,1,3.777,3.8,3.78,3.78,0,0,1-7.56-.016A3.742,3.742,0,0,1,390.844,370.176Z" transform="translate(-188.906 -89.941)" fill="#fece10"/>
    <path id="Trazado_190719" data-name="Trazado 190719" d="M179.95,326.844v10.332c-1.669.046-3.528-2.557-3.716-4.353A5.594,5.594,0,0,1,179.95,326.844Z" transform="translate(-40.504 -59.444)" fill="#fece10"/>
    <path id="Trazado_190720" data-name="Trazado 190720" d="M201.97,378a5.532,5.532,0,0,1,3.708,5.4,5.411,5.411,0,0,1-3.708,5.011Z" transform="translate(-58.64 -95.446)" fill="#fece10"/>
  </g>
</svg>
