<svg xmlns="http://www.w3.org/2000/svg" width="575.771" height="433.225" viewBox="0 0 575.771 433.225">
  <g id="Grupo_126387" data-name="Grupo 126387" transform="translate(-921.498 -1137.647)">
    <g id="Grupo_79644" data-name="Grupo 79644" transform="translate(921.498 1137.647)">
      <path id="Trazado_145968" data-name="Trazado 145968" d="M96.026,0A96.026,96.026,0,1,1,0,96.026,96.026,96.026,0,0,1,96.026,0Z" transform="translate(368.962 232.949)" fill="#fece10" opacity="0.444" style="mix-blend-mode: multiply;isolation: isolate"/>
      <path id="Trazado_145969" data-name="Trazado 145969" d="M65.615,0A65.615,65.615,0,1,1,0,65.615,65.615,65.615,0,0,1,65.615,0Z" transform="translate(53.65 25.054)" fill="#fece10" opacity="0.444" style="mix-blend-mode: multiply;isolation: isolate"/>
      <rect id="Rectángulo_34812" data-name="Rectángulo 34812" width="575.771" height="431.828" transform="translate(0 0.698)" fill="none"/>
      <path id="Trazado_145967" data-name="Trazado 145967" d="M216.612,0C336.244,0,433.225,96.981,433.225,216.612S336.244,433.225,216.612,433.225,0,336.244,0,216.612,96.981,0,216.612,0Z" transform="translate(71.273 0)" fill="#f67409"/>
      <path id="Trazado_145971" data-name="Trazado 145971" d="M18.04,0A18.04,18.04,0,1,1,0,18.04,18.04,18.04,0,0,1,18.04,0Z" transform="translate(71.273 360.694)" fill="#fece10" opacity="0.444" style="mix-blend-mode: multiply;isolation: isolate"/>
      <g id="Grupo_78276" data-name="Grupo 78276" transform="translate(414.28 300.255)">
        <g id="Grupo_53306" data-name="Grupo 53306" transform="translate(0)">
          <path id="Trazado_99200" data-name="Trazado 99200" d="M416.822,51.47a1.305,1.305,0,1,1-1.3-1.246A1.276,1.276,0,0,1,416.822,51.47Z" transform="translate(-414.214 -50.224)" fill="#2432ff"/>
          <path id="Trazado_99201" data-name="Trazado 99201" d="M425.268,51.47a1.305,1.305,0,1,1-1.3-1.246A1.276,1.276,0,0,1,425.268,51.47Z" transform="translate(-410.925 -50.224)" fill="#2432ff"/>
          <path id="Trazado_99202" data-name="Trazado 99202" d="M433.714,51.47a1.305,1.305,0,1,1-1.3-1.246A1.276,1.276,0,0,1,433.714,51.47Z" transform="translate(-407.636 -50.224)" fill="#2432ff"/>
          <path id="Trazado_99203" data-name="Trazado 99203" d="M442.161,51.47a1.305,1.305,0,1,1-1.3-1.246A1.276,1.276,0,0,1,442.161,51.47Z" transform="translate(-404.347 -50.224)" fill="#2432ff"/>
          <path id="Trazado_99204" data-name="Trazado 99204" d="M450.607,51.47a1.305,1.305,0,1,1-1.3-1.246A1.276,1.276,0,0,1,450.607,51.47Z" transform="translate(-401.058 -50.224)" fill="#2432ff"/>
          <path id="Trazado_99205" data-name="Trazado 99205" d="M459.053,51.47a1.305,1.305,0,1,1-1.3-1.246A1.276,1.276,0,0,1,459.053,51.47Z" transform="translate(-397.77 -50.224)" fill="#2432ff"/>
          <path id="Trazado_99206" data-name="Trazado 99206" d="M467.5,51.47a1.305,1.305,0,1,1-1.3-1.246A1.277,1.277,0,0,1,467.5,51.47Z" transform="translate(-394.48 -50.224)" fill="#2432ff"/>
          <path id="Trazado_99207" data-name="Trazado 99207" d="M475.946,51.47a1.305,1.305,0,1,1-1.3-1.246A1.276,1.276,0,0,1,475.946,51.47Z" transform="translate(-391.192 -50.224)" fill="#2432ff"/>
          <path id="Trazado_99208" data-name="Trazado 99208" d="M484.392,51.47a1.305,1.305,0,1,1-1.3-1.246A1.276,1.276,0,0,1,484.392,51.47Z" transform="translate(-387.903 -50.224)" fill="#2432ff"/>
          <path id="Trazado_99209" data-name="Trazado 99209" d="M492.839,51.47a1.305,1.305,0,1,1-1.3-1.246A1.277,1.277,0,0,1,492.839,51.47Z" transform="translate(-384.614 -50.224)" fill="#2432ff"/>
          <path id="Trazado_99210" data-name="Trazado 99210" d="M501.285,51.47a1.305,1.305,0,1,1-1.3-1.246A1.276,1.276,0,0,1,501.285,51.47Z" transform="translate(-381.325 -50.224)" fill="#2432ff"/>
        </g>
        <g id="Grupo_53307" data-name="Grupo 53307" transform="translate(0 9.976)">
          <path id="Trazado_99211" data-name="Trazado 99211" d="M416.822,58.978a1.305,1.305,0,1,1-1.3-1.246A1.276,1.276,0,0,1,416.822,58.978Z" transform="translate(-414.214 -57.732)" fill="#2432ff"/>
          <path id="Trazado_99212" data-name="Trazado 99212" d="M425.268,58.978a1.305,1.305,0,1,1-1.3-1.246A1.276,1.276,0,0,1,425.268,58.978Z" transform="translate(-410.925 -57.732)" fill="#2432ff"/>
          <path id="Trazado_99213" data-name="Trazado 99213" d="M433.714,58.978a1.305,1.305,0,1,1-1.3-1.246A1.276,1.276,0,0,1,433.714,58.978Z" transform="translate(-407.636 -57.732)" fill="#2432ff"/>
          <path id="Trazado_99214" data-name="Trazado 99214" d="M442.161,58.978a1.305,1.305,0,1,1-1.3-1.246A1.276,1.276,0,0,1,442.161,58.978Z" transform="translate(-404.347 -57.732)" fill="#2432ff"/>
          <path id="Trazado_99215" data-name="Trazado 99215" d="M450.607,58.978a1.305,1.305,0,1,1-1.3-1.246A1.276,1.276,0,0,1,450.607,58.978Z" transform="translate(-401.058 -57.732)" fill="#2432ff"/>
          <path id="Trazado_99216" data-name="Trazado 99216" d="M459.053,58.978a1.305,1.305,0,1,1-1.3-1.246A1.276,1.276,0,0,1,459.053,58.978Z" transform="translate(-397.77 -57.732)" fill="#2432ff"/>
          <path id="Trazado_99217" data-name="Trazado 99217" d="M467.5,58.978a1.305,1.305,0,1,1-1.3-1.246A1.277,1.277,0,0,1,467.5,58.978Z" transform="translate(-394.48 -57.732)" fill="#2432ff"/>
          <path id="Trazado_99218" data-name="Trazado 99218" d="M475.946,58.978a1.305,1.305,0,1,1-1.3-1.246A1.276,1.276,0,0,1,475.946,58.978Z" transform="translate(-391.192 -57.732)" fill="#2432ff"/>
          <path id="Trazado_99219" data-name="Trazado 99219" d="M484.392,58.978a1.305,1.305,0,1,1-1.3-1.246A1.276,1.276,0,0,1,484.392,58.978Z" transform="translate(-387.903 -57.732)" fill="#2432ff"/>
          <path id="Trazado_99220" data-name="Trazado 99220" d="M492.839,58.978a1.305,1.305,0,1,1-1.3-1.246A1.277,1.277,0,0,1,492.839,58.978Z" transform="translate(-384.614 -57.732)" fill="#2432ff"/>
          <path id="Trazado_99221" data-name="Trazado 99221" d="M501.285,58.978a1.305,1.305,0,1,1-1.3-1.246A1.276,1.276,0,0,1,501.285,58.978Z" transform="translate(-381.325 -57.732)" fill="#2432ff"/>
        </g>
        <g id="Grupo_53308" data-name="Grupo 53308" transform="translate(0 19.952)">
          <ellipse id="Elipse_3955" data-name="Elipse 3955" cx="1.304" cy="1.247" rx="1.304" ry="1.247" fill="#2432ff"/>
          <path id="Trazado_99222" data-name="Trazado 99222" d="M425.268,66.486a1.305,1.305,0,1,1-1.3-1.246A1.277,1.277,0,0,1,425.268,66.486Z" transform="translate(-410.925 -65.239)" fill="#2432ff"/>
          <ellipse id="Elipse_3956" data-name="Elipse 3956" cx="1.304" cy="1.247" rx="1.304" ry="1.247" transform="translate(23.47)" fill="#2432ff"/>
          <path id="Trazado_99223" data-name="Trazado 99223" d="M442.161,66.486a1.305,1.305,0,1,1-1.3-1.246A1.277,1.277,0,0,1,442.161,66.486Z" transform="translate(-404.347 -65.239)" fill="#2432ff"/>
          <path id="Trazado_99224" data-name="Trazado 99224" d="M450.607,66.486a1.305,1.305,0,1,1-1.3-1.246A1.277,1.277,0,0,1,450.607,66.486Z" transform="translate(-401.058 -65.239)" fill="#2432ff"/>
          <ellipse id="Elipse_3957" data-name="Elipse 3957" cx="1.304" cy="1.247" rx="1.304" ry="1.247" transform="translate(58.676)" fill="#2432ff"/>
          <path id="Trazado_99225" data-name="Trazado 99225" d="M467.5,66.486a1.305,1.305,0,1,1-1.3-1.246A1.278,1.278,0,0,1,467.5,66.486Z" transform="translate(-394.48 -65.239)" fill="#2432ff"/>
          <ellipse id="Elipse_3958" data-name="Elipse 3958" cx="1.304" cy="1.247" rx="1.304" ry="1.247" transform="translate(82.147)" fill="#2432ff"/>
          <ellipse id="Elipse_3959" data-name="Elipse 3959" cx="1.304" cy="1.247" rx="1.304" ry="1.247" transform="translate(93.882)" fill="#2432ff"/>
          <path id="Trazado_99226" data-name="Trazado 99226" d="M492.839,66.486a1.305,1.305,0,1,1-1.3-1.246A1.278,1.278,0,0,1,492.839,66.486Z" transform="translate(-384.613 -65.239)" fill="#2432ff"/>
          <path id="Trazado_99227" data-name="Trazado 99227" d="M501.285,66.486a1.305,1.305,0,1,1-1.3-1.246A1.277,1.277,0,0,1,501.285,66.486Z" transform="translate(-381.325 -65.239)" fill="#2432ff"/>
        </g>
        <g id="Grupo_53309" data-name="Grupo 53309" transform="translate(0 29.927)">
          <ellipse id="Elipse_3960" data-name="Elipse 3960" cx="1.304" cy="1.247" rx="1.304" ry="1.247" transform="translate(0 0.001)" fill="#2432ff"/>
          <path id="Trazado_99228" data-name="Trazado 99228" d="M425.268,73.995a1.305,1.305,0,1,1-1.3-1.248A1.276,1.276,0,0,1,425.268,73.995Z" transform="translate(-410.925 -72.747)" fill="#2432ff"/>
          <ellipse id="Elipse_3961" data-name="Elipse 3961" cx="1.304" cy="1.247" rx="1.304" ry="1.247" transform="translate(23.47 0.001)" fill="#2432ff"/>
          <path id="Trazado_99229" data-name="Trazado 99229" d="M442.161,73.995a1.305,1.305,0,1,1-1.3-1.248A1.276,1.276,0,0,1,442.161,73.995Z" transform="translate(-404.347 -72.747)" fill="#2432ff"/>
          <path id="Trazado_99230" data-name="Trazado 99230" d="M450.607,73.995a1.305,1.305,0,1,1-1.3-1.248A1.276,1.276,0,0,1,450.607,73.995Z" transform="translate(-401.058 -72.747)" fill="#2432ff"/>
          <ellipse id="Elipse_3962" data-name="Elipse 3962" cx="1.304" cy="1.247" rx="1.304" ry="1.247" transform="translate(58.676 0.001)" fill="#2432ff"/>
          <path id="Trazado_99231" data-name="Trazado 99231" d="M467.5,73.995a1.305,1.305,0,1,1-1.3-1.248A1.277,1.277,0,0,1,467.5,73.995Z" transform="translate(-394.48 -72.747)" fill="#2432ff"/>
          <ellipse id="Elipse_3963" data-name="Elipse 3963" cx="1.304" cy="1.247" rx="1.304" ry="1.247" transform="translate(82.147 0.001)" fill="#2432ff"/>
          <ellipse id="Elipse_3964" data-name="Elipse 3964" cx="1.304" cy="1.247" rx="1.304" ry="1.247" transform="translate(93.882 0.001)" fill="#2432ff"/>
          <path id="Trazado_99232" data-name="Trazado 99232" d="M492.839,73.995a1.305,1.305,0,1,1-1.3-1.248A1.277,1.277,0,0,1,492.839,73.995Z" transform="translate(-384.613 -72.747)" fill="#2432ff"/>
          <path id="Trazado_99233" data-name="Trazado 99233" d="M501.285,73.995a1.305,1.305,0,1,1-1.3-1.248A1.276,1.276,0,0,1,501.285,73.995Z" transform="translate(-381.325 -72.747)" fill="#2432ff"/>
        </g>
        <g id="Grupo_53310" data-name="Grupo 53310" transform="translate(0 39.902)">
          <path id="Trazado_99234" data-name="Trazado 99234" d="M416.822,81.5a1.305,1.305,0,1,1-1.3-1.248A1.276,1.276,0,0,1,416.822,81.5Z" transform="translate(-414.214 -80.255)" fill="#2432ff"/>
          <path id="Trazado_99235" data-name="Trazado 99235" d="M425.268,81.5a1.305,1.305,0,1,1-1.3-1.248A1.276,1.276,0,0,1,425.268,81.5Z" transform="translate(-410.925 -80.255)" fill="#2432ff"/>
          <path id="Trazado_99236" data-name="Trazado 99236" d="M433.714,81.5a1.305,1.305,0,1,1-1.3-1.248A1.276,1.276,0,0,1,433.714,81.5Z" transform="translate(-407.636 -80.255)" fill="#2432ff"/>
          <path id="Trazado_99237" data-name="Trazado 99237" d="M442.161,81.5a1.305,1.305,0,1,1-1.3-1.248A1.276,1.276,0,0,1,442.161,81.5Z" transform="translate(-404.347 -80.255)" fill="#2432ff"/>
          <path id="Trazado_99238" data-name="Trazado 99238" d="M450.607,81.5a1.305,1.305,0,1,1-1.3-1.248A1.276,1.276,0,0,1,450.607,81.5Z" transform="translate(-401.058 -80.255)" fill="#2432ff"/>
          <path id="Trazado_99239" data-name="Trazado 99239" d="M459.053,81.5a1.305,1.305,0,1,1-1.3-1.248A1.276,1.276,0,0,1,459.053,81.5Z" transform="translate(-397.77 -80.255)" fill="#2432ff"/>
          <path id="Trazado_99240" data-name="Trazado 99240" d="M467.5,81.5a1.305,1.305,0,1,1-1.3-1.248A1.277,1.277,0,0,1,467.5,81.5Z" transform="translate(-394.48 -80.255)" fill="#2432ff"/>
          <path id="Trazado_99241" data-name="Trazado 99241" d="M475.946,81.5a1.305,1.305,0,1,1-1.3-1.248A1.276,1.276,0,0,1,475.946,81.5Z" transform="translate(-391.192 -80.255)" fill="#2432ff"/>
          <path id="Trazado_99242" data-name="Trazado 99242" d="M484.392,81.5a1.305,1.305,0,1,1-1.3-1.248A1.276,1.276,0,0,1,484.392,81.5Z" transform="translate(-387.903 -80.255)" fill="#2432ff"/>
          <path id="Trazado_99243" data-name="Trazado 99243" d="M492.839,81.5a1.305,1.305,0,1,1-1.3-1.248A1.277,1.277,0,0,1,492.839,81.5Z" transform="translate(-384.614 -80.255)" fill="#2432ff"/>
          <path id="Trazado_99244" data-name="Trazado 99244" d="M501.285,81.5a1.305,1.305,0,1,1-1.3-1.248A1.276,1.276,0,0,1,501.285,81.5Z" transform="translate(-381.325 -80.255)" fill="#2432ff"/>
        </g>
        <g id="Grupo_53311" data-name="Grupo 53311" transform="translate(0 49.878)">
          <ellipse id="Elipse_3965" data-name="Elipse 3965" cx="1.304" cy="1.247" rx="1.304" ry="1.247" transform="translate(0 0)" fill="#2432ff"/>
          <path id="Trazado_99245" data-name="Trazado 99245" d="M425.268,89.011a1.305,1.305,0,1,1-1.3-1.248A1.276,1.276,0,0,1,425.268,89.011Z" transform="translate(-410.925 -87.763)" fill="#2432ff"/>
          <ellipse id="Elipse_3966" data-name="Elipse 3966" cx="1.304" cy="1.247" rx="1.304" ry="1.247" transform="translate(23.47 0)" fill="#2432ff"/>
          <path id="Trazado_99246" data-name="Trazado 99246" d="M442.161,89.011a1.305,1.305,0,1,1-1.3-1.248A1.276,1.276,0,0,1,442.161,89.011Z" transform="translate(-404.347 -87.763)" fill="#2432ff"/>
          <path id="Trazado_99247" data-name="Trazado 99247" d="M450.607,89.011a1.305,1.305,0,1,1-1.3-1.248A1.276,1.276,0,0,1,450.607,89.011Z" transform="translate(-401.058 -87.763)" fill="#2432ff"/>
          <ellipse id="Elipse_3967" data-name="Elipse 3967" cx="1.304" cy="1.247" rx="1.304" ry="1.247" transform="translate(58.676 0)" fill="#2432ff"/>
          <path id="Trazado_99248" data-name="Trazado 99248" d="M467.5,89.011a1.305,1.305,0,1,1-1.3-1.248A1.277,1.277,0,0,1,467.5,89.011Z" transform="translate(-394.48 -87.763)" fill="#2432ff"/>
          <ellipse id="Elipse_3968" data-name="Elipse 3968" cx="1.304" cy="1.247" rx="1.304" ry="1.247" transform="translate(82.147 0)" fill="#2432ff"/>
          <ellipse id="Elipse_3969" data-name="Elipse 3969" cx="1.304" cy="1.247" rx="1.304" ry="1.247" transform="translate(93.882 0)" fill="#2432ff"/>
          <path id="Trazado_99249" data-name="Trazado 99249" d="M492.839,89.011a1.305,1.305,0,1,1-1.3-1.248A1.277,1.277,0,0,1,492.839,89.011Z" transform="translate(-384.613 -87.763)" fill="#2432ff"/>
          <path id="Trazado_99250" data-name="Trazado 99250" d="M501.285,89.011a1.305,1.305,0,1,1-1.3-1.248A1.276,1.276,0,0,1,501.285,89.011Z" transform="translate(-381.325 -87.763)" fill="#2432ff"/>
        </g>
        <g id="Grupo_53312" data-name="Grupo 53312" transform="translate(0 59.854)">
          <ellipse id="Elipse_3970" data-name="Elipse 3970" cx="1.304" cy="1.247" rx="1.304" ry="1.247" fill="#2432ff"/>
          <path id="Trazado_99251" data-name="Trazado 99251" d="M425.268,96.517a1.305,1.305,0,1,1-1.3-1.246A1.276,1.276,0,0,1,425.268,96.517Z" transform="translate(-410.925 -95.271)" fill="#2432ff"/>
          <ellipse id="Elipse_3971" data-name="Elipse 3971" cx="1.304" cy="1.247" rx="1.304" ry="1.247" transform="translate(23.47)" fill="#2432ff"/>
          <path id="Trazado_99252" data-name="Trazado 99252" d="M442.161,96.517a1.305,1.305,0,1,1-1.3-1.246A1.276,1.276,0,0,1,442.161,96.517Z" transform="translate(-404.347 -95.271)" fill="#2432ff"/>
          <path id="Trazado_99253" data-name="Trazado 99253" d="M450.607,96.517a1.305,1.305,0,1,1-1.3-1.246A1.276,1.276,0,0,1,450.607,96.517Z" transform="translate(-401.058 -95.271)" fill="#2432ff"/>
          <ellipse id="Elipse_3972" data-name="Elipse 3972" cx="1.304" cy="1.247" rx="1.304" ry="1.247" transform="translate(58.676)" fill="#2432ff"/>
          <path id="Trazado_99254" data-name="Trazado 99254" d="M467.5,96.517a1.305,1.305,0,1,1-1.3-1.246A1.277,1.277,0,0,1,467.5,96.517Z" transform="translate(-394.48 -95.271)" fill="#2432ff"/>
          <ellipse id="Elipse_3973" data-name="Elipse 3973" cx="1.304" cy="1.247" rx="1.304" ry="1.247" transform="translate(82.147)" fill="#2432ff"/>
          <ellipse id="Elipse_3974" data-name="Elipse 3974" cx="1.304" cy="1.247" rx="1.304" ry="1.247" transform="translate(93.882)" fill="#2432ff"/>
          <path id="Trazado_99255" data-name="Trazado 99255" d="M492.839,96.517a1.305,1.305,0,1,1-1.3-1.246A1.277,1.277,0,0,1,492.839,96.517Z" transform="translate(-384.613 -95.271)" fill="#2432ff"/>
          <path id="Trazado_99256" data-name="Trazado 99256" d="M501.285,96.517a1.305,1.305,0,1,1-1.3-1.246A1.276,1.276,0,0,1,501.285,96.517Z" transform="translate(-381.325 -95.271)" fill="#2432ff"/>
        </g>
        <g id="Grupo_53313" data-name="Grupo 53313" transform="translate(0 69.83)">
          <path id="Trazado_99257" data-name="Trazado 99257" d="M416.822,104.025a1.305,1.305,0,1,1-1.3-1.246A1.277,1.277,0,0,1,416.822,104.025Z" transform="translate(-414.214 -102.779)" fill="#2432ff"/>
          <path id="Trazado_99258" data-name="Trazado 99258" d="M425.268,104.025a1.305,1.305,0,1,1-1.3-1.246A1.276,1.276,0,0,1,425.268,104.025Z" transform="translate(-410.925 -102.779)" fill="#2432ff"/>
          <path id="Trazado_99259" data-name="Trazado 99259" d="M433.714,104.025a1.305,1.305,0,1,1-1.3-1.246A1.276,1.276,0,0,1,433.714,104.025Z" transform="translate(-407.636 -102.779)" fill="#2432ff"/>
          <path id="Trazado_99260" data-name="Trazado 99260" d="M442.161,104.025a1.305,1.305,0,1,1-1.3-1.246A1.276,1.276,0,0,1,442.161,104.025Z" transform="translate(-404.347 -102.779)" fill="#2432ff"/>
          <path id="Trazado_99261" data-name="Trazado 99261" d="M450.607,104.025a1.305,1.305,0,1,1-1.3-1.246A1.276,1.276,0,0,1,450.607,104.025Z" transform="translate(-401.058 -102.779)" fill="#2432ff"/>
          <path id="Trazado_99262" data-name="Trazado 99262" d="M459.053,104.025a1.305,1.305,0,1,1-1.3-1.246A1.276,1.276,0,0,1,459.053,104.025Z" transform="translate(-397.77 -102.779)" fill="#2432ff"/>
          <path id="Trazado_99263" data-name="Trazado 99263" d="M467.5,104.025a1.305,1.305,0,1,1-1.3-1.246A1.277,1.277,0,0,1,467.5,104.025Z" transform="translate(-394.48 -102.779)" fill="#2432ff"/>
          <path id="Trazado_99264" data-name="Trazado 99264" d="M475.946,104.025a1.305,1.305,0,1,1-1.3-1.246A1.276,1.276,0,0,1,475.946,104.025Z" transform="translate(-391.192 -102.779)" fill="#2432ff"/>
          <path id="Trazado_99265" data-name="Trazado 99265" d="M484.392,104.025a1.305,1.305,0,1,1-1.3-1.246A1.276,1.276,0,0,1,484.392,104.025Z" transform="translate(-387.903 -102.779)" fill="#2432ff"/>
          <path id="Trazado_99266" data-name="Trazado 99266" d="M492.839,104.025a1.305,1.305,0,1,1-1.3-1.246A1.277,1.277,0,0,1,492.839,104.025Z" transform="translate(-384.614 -102.779)" fill="#2432ff"/>
          <path id="Trazado_99267" data-name="Trazado 99267" d="M501.285,104.025a1.305,1.305,0,1,1-1.3-1.246A1.276,1.276,0,0,1,501.285,104.025Z" transform="translate(-381.325 -102.779)" fill="#2432ff"/>
        </g>
        <g id="Grupo_53314" data-name="Grupo 53314" transform="translate(0 79.806)">
          <ellipse id="Elipse_3975" data-name="Elipse 3975" cx="1.304" cy="1.247" rx="1.304" ry="1.247" fill="#2432ff"/>
          <path id="Trazado_99268" data-name="Trazado 99268" d="M425.268,111.533a1.305,1.305,0,1,1-1.3-1.246A1.277,1.277,0,0,1,425.268,111.533Z" transform="translate(-410.925 -110.286)" fill="#2432ff"/>
          <ellipse id="Elipse_3976" data-name="Elipse 3976" cx="1.304" cy="1.247" rx="1.304" ry="1.247" transform="translate(23.47)" fill="#2432ff"/>
          <path id="Trazado_99269" data-name="Trazado 99269" d="M442.161,111.533a1.305,1.305,0,1,1-1.3-1.246A1.277,1.277,0,0,1,442.161,111.533Z" transform="translate(-404.347 -110.286)" fill="#2432ff"/>
          <path id="Trazado_99270" data-name="Trazado 99270" d="M450.607,111.533a1.305,1.305,0,1,1-1.3-1.246A1.277,1.277,0,0,1,450.607,111.533Z" transform="translate(-401.058 -110.286)" fill="#2432ff"/>
          <ellipse id="Elipse_3977" data-name="Elipse 3977" cx="1.304" cy="1.247" rx="1.304" ry="1.247" transform="translate(58.676)" fill="#2432ff"/>
          <path id="Trazado_99271" data-name="Trazado 99271" d="M467.5,111.533a1.305,1.305,0,1,1-1.3-1.246A1.278,1.278,0,0,1,467.5,111.533Z" transform="translate(-394.48 -110.286)" fill="#2432ff"/>
          <ellipse id="Elipse_3978" data-name="Elipse 3978" cx="1.304" cy="1.247" rx="1.304" ry="1.247" transform="translate(82.147)" fill="#2432ff"/>
          <ellipse id="Elipse_3979" data-name="Elipse 3979" cx="1.304" cy="1.247" rx="1.304" ry="1.247" transform="translate(93.882)" fill="#2432ff"/>
          <path id="Trazado_99272" data-name="Trazado 99272" d="M492.839,111.533a1.305,1.305,0,1,1-1.3-1.246A1.278,1.278,0,0,1,492.839,111.533Z" transform="translate(-384.613 -110.286)" fill="#2432ff"/>
          <path id="Trazado_99273" data-name="Trazado 99273" d="M501.285,111.533a1.305,1.305,0,1,1-1.3-1.246A1.277,1.277,0,0,1,501.285,111.533Z" transform="translate(-381.325 -110.286)" fill="#2432ff"/>
        </g>
        <g id="Grupo_53315" data-name="Grupo 53315" transform="translate(0 89.781)">
          <path id="Trazado_99274" data-name="Trazado 99274" d="M416.822,119.042a1.305,1.305,0,1,1-1.3-1.248A1.277,1.277,0,0,1,416.822,119.042Z" transform="translate(-414.214 -117.794)" fill="#2432ff"/>
          <path id="Trazado_99275" data-name="Trazado 99275" d="M425.268,119.042a1.305,1.305,0,1,1-1.3-1.248A1.277,1.277,0,0,1,425.268,119.042Z" transform="translate(-410.925 -117.794)" fill="#2432ff"/>
          <path id="Trazado_99276" data-name="Trazado 99276" d="M433.714,119.042a1.305,1.305,0,1,1-1.3-1.248A1.277,1.277,0,0,1,433.714,119.042Z" transform="translate(-407.636 -117.794)" fill="#2432ff"/>
          <path id="Trazado_99277" data-name="Trazado 99277" d="M442.161,119.042a1.305,1.305,0,1,1-1.3-1.248A1.277,1.277,0,0,1,442.161,119.042Z" transform="translate(-404.347 -117.794)" fill="#2432ff"/>
          <path id="Trazado_99278" data-name="Trazado 99278" d="M450.607,119.042a1.305,1.305,0,1,1-1.3-1.248A1.277,1.277,0,0,1,450.607,119.042Z" transform="translate(-401.058 -117.794)" fill="#2432ff"/>
          <path id="Trazado_99279" data-name="Trazado 99279" d="M459.053,119.042a1.305,1.305,0,1,1-1.3-1.248A1.277,1.277,0,0,1,459.053,119.042Z" transform="translate(-397.77 -117.794)" fill="#2432ff"/>
          <path id="Trazado_99280" data-name="Trazado 99280" d="M467.5,119.042a1.305,1.305,0,1,1-1.3-1.248A1.278,1.278,0,0,1,467.5,119.042Z" transform="translate(-394.48 -117.794)" fill="#2432ff"/>
          <path id="Trazado_99281" data-name="Trazado 99281" d="M475.946,119.042a1.305,1.305,0,1,1-1.3-1.248A1.277,1.277,0,0,1,475.946,119.042Z" transform="translate(-391.192 -117.794)" fill="#2432ff"/>
          <path id="Trazado_99282" data-name="Trazado 99282" d="M484.392,119.042a1.305,1.305,0,1,1-1.3-1.248A1.277,1.277,0,0,1,484.392,119.042Z" transform="translate(-387.903 -117.794)" fill="#2432ff"/>
          <path id="Trazado_99283" data-name="Trazado 99283" d="M492.839,119.042a1.305,1.305,0,1,1-1.3-1.248A1.278,1.278,0,0,1,492.839,119.042Z" transform="translate(-384.614 -117.794)" fill="#2432ff"/>
          <path id="Trazado_99284" data-name="Trazado 99284" d="M501.285,119.042a1.305,1.305,0,1,1-1.3-1.248A1.277,1.277,0,0,1,501.285,119.042Z" transform="translate(-381.325 -117.794)" fill="#2432ff"/>
        </g>
        <g id="Grupo_53316" data-name="Grupo 53316" transform="translate(0 99.756)">
          <ellipse id="Elipse_3980" data-name="Elipse 3980" cx="1.304" cy="1.247" rx="1.304" ry="1.247" transform="translate(0 0)" fill="#2432ff"/>
          <path id="Trazado_99285" data-name="Trazado 99285" d="M425.268,126.55a1.305,1.305,0,1,1-1.3-1.248A1.276,1.276,0,0,1,425.268,126.55Z" transform="translate(-410.925 -125.302)" fill="#2432ff"/>
          <ellipse id="Elipse_3981" data-name="Elipse 3981" cx="1.304" cy="1.247" rx="1.304" ry="1.247" transform="translate(23.47 0)" fill="#2432ff"/>
          <path id="Trazado_99286" data-name="Trazado 99286" d="M442.161,126.55a1.305,1.305,0,1,1-1.3-1.248A1.276,1.276,0,0,1,442.161,126.55Z" transform="translate(-404.347 -125.302)" fill="#2432ff"/>
          <path id="Trazado_99287" data-name="Trazado 99287" d="M450.607,126.55a1.305,1.305,0,1,1-1.3-1.248A1.276,1.276,0,0,1,450.607,126.55Z" transform="translate(-401.058 -125.302)" fill="#2432ff"/>
          <ellipse id="Elipse_3982" data-name="Elipse 3982" cx="1.304" cy="1.247" rx="1.304" ry="1.247" transform="translate(58.676 0)" fill="#2432ff"/>
          <path id="Trazado_99288" data-name="Trazado 99288" d="M467.5,126.55a1.305,1.305,0,1,1-1.3-1.248A1.277,1.277,0,0,1,467.5,126.55Z" transform="translate(-394.48 -125.302)" fill="#2432ff"/>
          <ellipse id="Elipse_3983" data-name="Elipse 3983" cx="1.304" cy="1.247" rx="1.304" ry="1.247" transform="translate(82.147 0)" fill="#2432ff"/>
          <ellipse id="Elipse_3984" data-name="Elipse 3984" cx="1.304" cy="1.247" rx="1.304" ry="1.247" transform="translate(93.882 0)" fill="#2432ff"/>
          <path id="Trazado_99289" data-name="Trazado 99289" d="M492.839,126.55a1.305,1.305,0,1,1-1.3-1.248A1.277,1.277,0,0,1,492.839,126.55Z" transform="translate(-384.613 -125.302)" fill="#2432ff"/>
          <path id="Trazado_99290" data-name="Trazado 99290" d="M501.285,126.55a1.305,1.305,0,1,1-1.3-1.248A1.276,1.276,0,0,1,501.285,126.55Z" transform="translate(-381.325 -125.302)" fill="#2432ff"/>
        </g>
        <g id="Grupo_53317" data-name="Grupo 53317" transform="translate(0 109.733)">
          <ellipse id="Elipse_3985" data-name="Elipse 3985" cx="1.304" cy="1.247" rx="1.304" ry="1.247" transform="translate(0 0)" fill="#2432ff"/>
          <path id="Trazado_99291" data-name="Trazado 99291" d="M425.268,134.058a1.305,1.305,0,1,1-1.3-1.248A1.276,1.276,0,0,1,425.268,134.058Z" transform="translate(-410.925 -132.81)" fill="#2432ff"/>
          <ellipse id="Elipse_3986" data-name="Elipse 3986" cx="1.304" cy="1.247" rx="1.304" ry="1.247" transform="translate(23.47 0)" fill="#2432ff"/>
          <path id="Trazado_99292" data-name="Trazado 99292" d="M442.161,134.058a1.305,1.305,0,1,1-1.3-1.248A1.276,1.276,0,0,1,442.161,134.058Z" transform="translate(-404.347 -132.81)" fill="#2432ff"/>
          <path id="Trazado_99293" data-name="Trazado 99293" d="M450.607,134.058a1.305,1.305,0,1,1-1.3-1.248A1.276,1.276,0,0,1,450.607,134.058Z" transform="translate(-401.058 -132.81)" fill="#2432ff"/>
          <ellipse id="Elipse_3987" data-name="Elipse 3987" cx="1.304" cy="1.247" rx="1.304" ry="1.247" transform="translate(58.676 0)" fill="#2432ff"/>
          <path id="Trazado_99294" data-name="Trazado 99294" d="M467.5,134.058a1.305,1.305,0,1,1-1.3-1.248A1.277,1.277,0,0,1,467.5,134.058Z" transform="translate(-394.48 -132.81)" fill="#2432ff"/>
          <ellipse id="Elipse_3988" data-name="Elipse 3988" cx="1.304" cy="1.247" rx="1.304" ry="1.247" transform="translate(82.147 0)" fill="#2432ff"/>
          <ellipse id="Elipse_3989" data-name="Elipse 3989" cx="1.304" cy="1.247" rx="1.304" ry="1.247" transform="translate(93.882 0)" fill="#2432ff"/>
          <path id="Trazado_99295" data-name="Trazado 99295" d="M492.839,134.058a1.305,1.305,0,1,1-1.3-1.248A1.277,1.277,0,0,1,492.839,134.058Z" transform="translate(-384.613 -132.81)" fill="#2432ff"/>
          <path id="Trazado_99296" data-name="Trazado 99296" d="M501.285,134.058a1.305,1.305,0,1,1-1.3-1.248A1.276,1.276,0,0,1,501.285,134.058Z" transform="translate(-381.325 -132.81)" fill="#2432ff"/>
        </g>
      </g>
      <line id="Línea_138" data-name="Línea 138" y2="255.108" transform="translate(18.852 101.277)" fill="none" stroke="#fff" stroke-width="1" stroke-dasharray="8"/>
    </g>
  </g>
</svg>
