<svg xmlns="http://www.w3.org/2000/svg" xmlns:xlink="http://www.w3.org/1999/xlink" width="1328" height="1090" viewBox="0 0 1328 1090">
  <defs>
    <linearGradient id="linear-gradient" x1="0.5" y1="0.164" x2="0.5" y2="1.038" gradientUnits="objectBoundingBox">
      <stop offset="0" stop-color="#258900" stop-opacity="0"/>
      <stop offset="0.526" stop-color="#54aa13"/>
      <stop offset="1" stop-color="#54aa13"/>
    </linearGradient>
    <linearGradient id="linear-gradient-2" y1="0.5" x2="1" y2="0.5" gradientUnits="objectBoundingBox">
      <stop offset="0" stop-color="#54aa13"/>
      <stop offset="1" stop-color="#30610c"/>
    </linearGradient>
    <clipPath id="clip-path">
      <path id="Rectángulo_40266" data-name="Rectángulo 40266" d="M0,0H1328a0,0,0,0,1,0,0V774a20,20,0,0,1-20,20H20A20,20,0,0,1,0,774V0A0,0,0,0,1,0,0Z" transform="translate(136 6374)" opacity="0.079" fill="url(#linear-gradient)"/>
    </clipPath>
    <radialGradient id="radial-gradient" cx="0.5" cy="0.5" r="0.5" gradientUnits="objectBoundingBox">
      <stop offset="0.198" stop-color="gray"/>
      <stop offset="0.438" stop-color="#a9a9a9"/>
      <stop offset="0.819" stop-color="#e6e6e6"/>
      <stop offset="1" stop-color="#fff"/>
    </radialGradient>
    <linearGradient id="linear-gradient-6" x1="0.5" y1="0.887" x2="0.5" y2="0.053" gradientUnits="objectBoundingBox">
      <stop offset="0" stop-color="#30610c"/>
      <stop offset="1" stop-color="#54aa13"/>
    </linearGradient>
    <clipPath id="clip-path-2">
      <rect id="Rectángulo_40342" data-name="Rectángulo 40342" width="1240.034" height="593" rx="20" transform="translate(2653 -9798)" opacity="0.15" fill="url(#linear-gradient-2)"/>
    </clipPath>
    <linearGradient id="linear-gradient-12" x1="0" y1="0.5" x2="1" y2="0.5" xlink:href="#linear-gradient-6"/>
    <radialGradient id="radial-gradient-5" cx="0.5" r="0.5" gradientTransform="matrix(0.787, 0.617, -0.617, 0.787, 0.415, -0.202)" xlink:href="#radial-gradient"/>
  </defs>
  <g id="Grupo_128269" data-name="Grupo 128269" transform="translate(2485 3958)">
    <rect id="Rectángulo_40341" data-name="Rectángulo 40341" width="1240.034" height="593" rx="20" transform="translate(-2441 -3958)" opacity="0.15" fill="url(#linear-gradient-2)"/>
    <g id="Grupo_128262" data-name="Grupo 128262" transform="translate(-2621 -10036)">
      <path id="Rectángulo_40263" data-name="Rectángulo 40263" d="M0,0H1328a0,0,0,0,1,0,0V774a20,20,0,0,1-20,20H20A20,20,0,0,1,0,774V0A0,0,0,0,1,0,0Z" transform="translate(136 6374)" opacity="0.079" fill="url(#linear-gradient)"/>
      <g id="Enmascarar_grupo_117" data-name="Enmascarar grupo 117" clip-path="url(#clip-path)">
        <g id="Grupo_128145" data-name="Grupo 128145" opacity="0.5">
          <path id="Trazado_190756" data-name="Trazado 190756" d="M99.1,196.025C127.2,228.946,140.092,229.386,185.886,220c62.28-12.765,192.255,13.812,314.392,33.066,107.978,17.022,209.83,28.29,252.58,1.215,43.96-27.834-103.192,5.306-81.078-11.395,18.326-13.838,105.92-21.92,87.37-33.378-75.472-39.9-393.934-18.668-392.229-104.588-.925-8.765-4.78-50.082-46.2-59.629C296.3,39.639,279.1,43.236,238.934,74.1,181.88,117.942,120.481,71.591,78.978,58.922,11.483,38.316-37.361,115,38.094,154.7,61.937,167.248,82.924,177.064,99.1,196.025Z" transform="matrix(0.883, 0.469, -0.469, 0.883, -93.324, 6910.154)" opacity="0.5" fill="url(#linear-gradient-2)"/>
          <path id="Trazado_190757" data-name="Trazado 190757" d="M141.985,510.668c227.131,83.479,175.773,85.62,306.406,200.381C583.577,829.809,640.8,750.465,761.27,768.061,910.2,789.809,826.057,1022.794,939.98,997.8c42.374-9.3,53.177-23.678,106.5-18.29,23.14,2.336,77.692,30.739,150.338,1.554C1269.2,951.981,1314.45,863.891,1273,783.754c-27.781-53.7-61.666-83.29-47.414-130.982,21.053-70.458,76.982-169.07-8.647-208.565-95.368-43.985-207.488,32.162-260.006-78.488C905.357,257.072,914.293,132.991,802.906,38.87,711.5-38.369,626.961,12.712,529.191,77.619c-59.006,39.17-109.3,32.069-176.535,16.817C261.291,73.716,159.015,94.26,92.7,130.741,7.325,177.705-18.141,296.316,12.432,390.05,32.236,450.767,82.054,488.639,141.985,510.668Z" transform="translate(-732.316 6879.727) rotate(-9)" fill="#636363" style="mix-blend-mode: overlay;isolation: isolate"/>
          <g id="Grupo_81532" data-name="Grupo 81532" transform="translate(114.961 7099.768) rotate(-20)">
            <g id="Elipse_4063" data-name="Elipse 4063" transform="translate(213.893 117.488)">
              <ellipse id="Elipse_5982" data-name="Elipse 5982" cx="10.032" cy="10.032" rx="10.032" ry="10.032" transform="translate(0)" fill="none" stroke="#e5f2db" stroke-miterlimit="10" stroke-width="1"/>
              <ellipse id="Elipse_5983" data-name="Elipse 5983" cx="8.488" cy="8.488" rx="8.488" ry="8.488" transform="translate(1.543 1.543)" fill="none" stroke="#e5f2db" stroke-width="2"/>
            </g>
            <g id="Elipse_4063-2" data-name="Elipse 4063" transform="translate(300.351 111.788)">
              <ellipse id="Elipse_5982-2" data-name="Elipse 5982" cx="4.187" cy="4.187" rx="4.187" ry="4.187" transform="translate(0)" fill="none" stroke="#e5f2db" stroke-miterlimit="10" stroke-width="1"/>
              <ellipse id="Elipse_5983-2" data-name="Elipse 5983" cx="3.543" cy="3.543" rx="3.543" ry="3.543" transform="translate(0.644 0.644)" fill="none" stroke="#e5f2db" stroke-width="2"/>
            </g>
          </g>
          <g id="Grupo_128144" data-name="Grupo 128144" transform="translate(-9 13)">
            <g id="Grupo_128141" data-name="Grupo 128141" transform="translate(193.129 7048.311) rotate(-20)">
              <ellipse id="Elipse_5985" data-name="Elipse 5985" cx="10.706" cy="10.706" rx="10.706" ry="10.706" transform="translate(0 0.206)" fill="url(#radial-gradient)" style="mix-blend-mode: color-burn;isolation: isolate"/>
              <ellipse id="Elipse_5986" data-name="Elipse 5986" cx="7.824" cy="7.824" rx="7.824" ry="7.824" transform="translate(2.924 0)" fill="url(#linear-gradient-6)"/>
            </g>
            <g id="Grupo_128142" data-name="Grupo 128142" transform="translate(280.238 7115.434) rotate(-20)">
              <ellipse id="Elipse_5987" data-name="Elipse 5987" cx="20.463" cy="20.463" rx="20.463" ry="20.463" transform="translate(0 0.394)" fill="url(#radial-gradient)" style="mix-blend-mode: color-burn;isolation: isolate"/>
              <ellipse id="Elipse_5988" data-name="Elipse 5988" cx="14.954" cy="14.954" rx="14.954" ry="14.954" transform="translate(5.588 0)" fill="url(#linear-gradient-6)"/>
            </g>
            <g id="Grupo_128143" data-name="Grupo 128143" transform="translate(323.302 7095.308) rotate(-20)">
              <ellipse id="Elipse_5989" data-name="Elipse 5989" cx="7.553" cy="7.553" rx="7.553" ry="7.553" transform="translate(0 0.145)" fill="url(#radial-gradient)" style="mix-blend-mode: color-burn;isolation: isolate"/>
              <ellipse id="Elipse_5990" data-name="Elipse 5990" cx="5.52" cy="5.52" rx="5.52" ry="5.52" transform="translate(2.063 0)" fill="url(#linear-gradient-6)"/>
            </g>
          </g>
          <path id="Trazado_190758" data-name="Trazado 190758" d="M44.562,140.049c12.631,20.874,18.431,21.152,39.022,15.2,28-8.094,86.448,8.758,141.366,20.965,48.552,10.793,94.35,17.937,113.573.77,19.767-17.648,35.545-17.59,45.488-28.179,8.24-8.774,10.3-24.4,1.956-31.667-33.936-25.3-221.747,19.622-220.981-34.855-.416-5.557-2.149-31.755-20.776-37.807-10.977-3.585-18.714-1.3-36.773,18.264-25.654,27.8-53.262-1.59-71.924-9.623C5.163,40.055-16.8,88.674,17.129,113.85,27.85,121.8,37.287,128.028,44.562,140.049Z" transform="translate(195.053 6974.421) rotate(60)" opacity="0.5" fill="url(#linear-gradient-2)"/>
          <path id="Trazado_190760" data-name="Trazado 190760" d="M137.737,495.389c220.336,80.981,170.514,83.058,297.239,194.385,131.141,115.207,186.649,38.237,303.517,55.307,144.474,21.1,62.849,247.112,173.363,222.863,41.107-9.019,51.586-22.97,103.31-17.743,22.447,2.266,75.367,29.819,145.84,1.508,70.224-28.21,114.117-113.664,73.9-191.4-26.949-52.1-59.821-80.8-46-127.063,20.423-68.35,74.679-164.011-8.389-202.325-92.514-42.669-201.28,31.2-252.227-76.14-50.029-105.4-41.36-225.765-149.415-317.071C690.21-37.221,608.2,12.332,513.358,75.3c-57.241,38-106.028,31.109-171.253,16.314-88.632-20.1-187.847-.17-252.18,35.219C7.106,172.388-17.6,287.45,12.06,378.38,31.272,437.28,79.6,474.02,137.737,495.389Z" transform="matrix(0.799, -0.602, 0.602, 0.799, 169.34, 7412.218)" fill="#636363" style="mix-blend-mode: overlay;isolation: isolate"/>
          <path id="Trazado_190761" data-name="Trazado 190761" d="M66.554,70.554c18.865-31.175,27.526-31.591,58.28-22.7,41.825,12.088,129.11-13.08,211.131-31.312,72.514-16.119,140.912-26.79,169.622-1.15,29.521,26.357,53.086,26.271,67.937,42.085,12.307,13.1,15.378,36.446,2.921,47.3-50.684,37.779-331.181-29.306-330.036,52.056-.621,8.3-3.21,47.426-31.029,56.466-16.395,5.354-27.949,1.948-54.921-27.278C122.143,144.5,80.91,188.387,53.038,200.384c-45.327,19.513-78.128-53.1-27.456-90.7C41.594,97.8,55.688,88.509,66.554,70.554Z" transform="translate(1576.814 7088.153) rotate(93)" opacity="0.5" fill="url(#linear-gradient-2)"/>
        </g>
        <g id="Elipse_4063-3" data-name="Elipse 4063" transform="translate(1402.911 7107.871) rotate(-20)">
          <ellipse id="Elipse_5982-3" data-name="Elipse 5982" cx="11.163" cy="11.163" rx="11.163" ry="11.163" transform="translate(0)" fill="none" stroke="#e5f2db" stroke-miterlimit="10" stroke-width="1"/>
          <ellipse id="Elipse_5983-3" data-name="Elipse 5983" cx="9.445" cy="9.445" rx="9.445" ry="9.445" transform="translate(1.717 1.717)" fill="none" stroke="#e5f2db" stroke-width="2"/>
        </g>
        <g id="Elipse_4063-4" data-name="Elipse 4063" transform="translate(1345.143 7138.883) rotate(-20)">
          <ellipse id="Elipse_5982-4" data-name="Elipse 5982" cx="4.963" cy="4.963" rx="4.963" ry="4.963" transform="translate(0)" fill="none" stroke="#30610c" stroke-miterlimit="10" stroke-width="1"/>
          <ellipse id="Elipse_5983-4" data-name="Elipse 5983" cx="4.2" cy="4.2" rx="4.2" ry="4.2" transform="translate(0.764 0.764)" fill="none" stroke="#30610c" stroke-width="2"/>
        </g>
        <g id="Grupo_128147" data-name="Grupo 128147" transform="translate(1351.504 7082.485) rotate(-20)">
          <circle id="Elipse_5987-2" data-name="Elipse 5987" cx="34.639" cy="34.639" r="34.639" transform="translate(0 0.666)" fill="url(#radial-gradient)" style="mix-blend-mode: color-burn;isolation: isolate"/>
          <ellipse id="Elipse_5988-2" data-name="Elipse 5988" cx="25.313" cy="25.313" rx="25.313" ry="25.313" transform="translate(9.459 0)" fill="url(#linear-gradient-6)"/>
        </g>
      </g>
    </g>
    <g id="Enmascarar_grupo_120" data-name="Enmascarar grupo 120" transform="translate(-5094 5840)" clip-path="url(#clip-path-2)">
      <g id="Grupo_128268" data-name="Grupo 128268">
        <path id="Trazado_190859" data-name="Trazado 190859" d="M1729.322-75.058c1.415-35.007-24.006-64.861-54.952-77.728-35-14.553-63.861-18.279-76.138-55.022-3.97-11.879-10.084-28.57-17.336-38.885-26.659-37.916-72.7-18.672-108.5-12.5-33.6,5.792-58.4-10.1-96.451-32.65-.24-.142-84.639-80.051-104.016,14.429-3.591,17.509-3.027,31.353-4.269,40.845-4.887,37.345-37.774,40.961-84.189,69.374-58.744,35.964-68.179,112.013,2.67,126.521,27.229,5.578,49.781,3.607,76.362,12.1,54.316,17.352,56.691,69.113,103.9,84.606,17.186,7.463,41.181,6.206,56.9,1.251,60.52-19.081,81-47.149,127.809-40.341,15.9,2.314,36.169,8.223,59.371,8.393C1670.249,25.774,1727.092-19.992,1729.322-75.058Z" transform="translate(2198.194 -9546.119)" fill="url(#linear-gradient-12)"/>
        <g id="Grupo_81533" data-name="Grupo 81533" transform="translate(3752.676 -9355.152)">
          <g id="Elipse_4064-2" data-name="Elipse 4064-2" transform="translate(0 29.708)">
            <ellipse id="Elipse_6043" data-name="Elipse 6043" cx="36.183" cy="36.183" rx="36.183" ry="36.183" fill="none" stroke="#30610c" stroke-miterlimit="10" stroke-width="1"/>
            <ellipse id="Elipse_6044" data-name="Elipse 6044" cx="35.421" cy="35.421" rx="35.421" ry="35.421" transform="translate(0.762 0.762)" fill="none" stroke="#30610c" stroke-width="2"/>
          </g>
          <g id="Elipse_4062-2" data-name="Elipse 4062-2" transform="translate(15.997 0)">
            <ellipse id="Elipse_6045" data-name="Elipse 6045" cx="10.283" cy="10.283" rx="10.283" ry="10.283" fill="none" stroke="#30610c" stroke-miterlimit="10" stroke-width="1"/>
            <ellipse id="Elipse_6046" data-name="Elipse 6046" cx="9.522" cy="9.522" rx="9.522" ry="9.522" transform="translate(0.762 0.762)" fill="none" stroke="#30610c" stroke-width="2"/>
          </g>
          <g id="Elipse_4063-2-2" data-name="Elipse 4063-2" transform="translate(94.456 74.65)">
            <ellipse id="Elipse_6047" data-name="Elipse 6047" cx="4.951" cy="4.951" rx="4.951" ry="4.951" transform="translate(0 0)" fill="none" stroke="#30610c" stroke-miterlimit="10" stroke-width="1"/>
            <ellipse id="Elipse_6048" data-name="Elipse 6048" cx="4.19" cy="4.19" rx="4.19" ry="4.19" transform="translate(0.762 0.762)" fill="none" stroke="#30610c" stroke-width="2"/>
          </g>
        </g>
        <g id="Grupo_81534" data-name="Grupo 81534" transform="translate(3615.541 -9817.073)">
          <g id="Elipse_4064-3" data-name="Elipse 4064-3" transform="translate(0 29.708)">
            <ellipse id="Elipse_6049" data-name="Elipse 6049" cx="36.183" cy="36.183" rx="36.183" ry="36.183" fill="none" stroke="#30610c" stroke-miterlimit="10" stroke-width="1"/>
            <ellipse id="Elipse_6050" data-name="Elipse 6050" cx="35.421" cy="35.421" rx="35.421" ry="35.421" transform="translate(0.762 0.762)" fill="none" stroke="#30610c" stroke-width="2"/>
          </g>
          <g id="Elipse_4062-3" data-name="Elipse 4062-3" transform="translate(15.997 0)">
            <ellipse id="Elipse_6051" data-name="Elipse 6051" cx="10.283" cy="10.283" rx="10.283" ry="10.283" fill="none" stroke="#30610c" stroke-miterlimit="10" stroke-width="1"/>
            <ellipse id="Elipse_6052" data-name="Elipse 6052" cx="9.522" cy="9.522" rx="9.522" ry="9.522" transform="translate(0.762 0.762)" fill="none" stroke="#30610c" stroke-width="2"/>
          </g>
          <g id="Elipse_4063-3-2" data-name="Elipse 4063-3" transform="translate(94.456 74.65)">
            <ellipse id="Elipse_6053" data-name="Elipse 6053" cx="4.951" cy="4.951" rx="4.951" ry="4.951" fill="none" stroke="#30610c" stroke-miterlimit="10" stroke-width="1"/>
            <ellipse id="Elipse_6054" data-name="Elipse 6054" cx="4.19" cy="4.19" rx="4.19" ry="4.19" transform="translate(0.762 0.762)" fill="none" stroke="#30610c" stroke-width="2"/>
          </g>
        </g>
        <path id="Trazado_190860" data-name="Trazado 190860" d="M1121.329-157.15c135.463,49.788,104.832,51.064,182.743,119.509,80.625,70.829,114.751,23.508,186.6,34,88.824,12.971,38.641,151.925,106.584,137.017,25.273-5.546,31.715-14.122,63.515-10.91,13.8,1.394,46.337,18.333,89.662.928,43.174-17.344,70.161-69.881,45.436-117.676C1779.3-26.308,1759.1-43.954,1767.594-72.4c12.557-42.022,45.914-100.835-5.157-124.39-56.878-26.233-123.747,19.182-155.07-46.811-30.758-64.8-25.427-138.8-91.86-194.936-54.516-46.067-104.934-15.6-163.246,23.109-35.192,23.362-65.186,19.127-105.287,10.03-54.491-12.357-115.488-.1-155.04,21.654-50.917,28.01-66.106,98.75-47.871,154.654C1055.873-192.877,1085.585-170.288,1121.329-157.15Z" transform="translate(2314.263 -9551.389)" fill="#636363" style="mix-blend-mode: overlay;isolation: isolate"/>
        <g id="Grupo_128263" data-name="Grupo 128263" transform="translate(3248.074 -9499.588)">
          <circle id="Elipse_6055" data-name="Elipse 6055" cx="10.938" cy="10.938" r="10.938" transform="matrix(0.787, -0.617, 0.617, 0.787, 471.825, 182.505)" fill="url(#radial-gradient-5)" style="mix-blend-mode: color-burn;isolation: isolate"/>
          <path id="Trazado_190861" data-name="Trazado 190861" d="M502.624,185.417a7.994,7.994,0,1,1-7.994-7.994A7.994,7.994,0,0,1,502.624,185.417Z" transform="translate(-7.406 -4.209)" fill="url(#linear-gradient-6)"/>
        </g>
        <path id="Trazado_190862" data-name="Trazado 190862" d="M-32.342,323.1c26.775,35.071,39.067,35.54,82.714,25.542,112-25.658,205.617,80.729,292.311,19.359,41.9-29.651,81.044-33.119,102.121-50.91,17.467-14.742,16.126-37.436-1.554-49.641-52.671-36.362-148.661,14.762-184.185-28.854-9.63-11.824,10.413-67.888-47.888-96.1-40.475-19.586-71.964,17.841-110.244,50.72-54.379,46.706-112.9-2.671-152.457-16.168C-115.855,155.1-162.41,236.784-90.492,279.084-67.766,292.449-47.764,302.906-32.342,323.1Z" transform="translate(2659.836 -9430.103)" fill="url(#linear-gradient-2)"/>
        <path id="Trazado_190863" data-name="Trazado 190863" d="M-204.926,290.042c94.849,34.86,73.4,35.754,127.953,83.678,56.453,49.594,80.348,16.46,130.656,23.808,62.192,9.082,27.055,106.375,74.628,95.937,17.7-3.882,22.206-9.888,44.472-7.638,9.663.975,32.444,12.836,62.78.649,30.229-12.144,49.124-48.929,31.813-82.394-11.6-22.426-25.751-34.782-19.8-54.7,8.792-29.423,32.147-70.6-3.611-87.1-39.825-18.368-86.646,13.431-108.577-32.776-21.536-45.371-17.8-97.186-64.319-136.491C32.9,60.768-2.4,82.1-43.231,109.2c-24.641,16.357-45.642,13.392-73.72,7.023-38.154-8.652-80.863-.073-108.557,15.161C-261.159,151-271.793,200.53-259.026,239.673-250.756,265.028-229.953,280.843-204.926,290.042Z" transform="translate(2704.746 -9427.695)" fill="#636363" style="mix-blend-mode: overlay;isolation: isolate"/>
        <g id="Grupo_81532-2" data-name="Grupo 81532" transform="translate(2617.399 -9390.285)">
          <g id="Elipse_4062" data-name="Elipse 4062" transform="translate(-123.869 -0.853)">
            <circle id="Elipse_6056" data-name="Elipse 6056" cx="44.767" cy="44.767" r="44.767" transform="translate(95.851 31.585)" fill="none" stroke="#30610c" stroke-miterlimit="10" stroke-width="1"/>
            <circle id="Elipse_6057" data-name="Elipse 6057" cx="41.451" cy="41.451" r="41.451" transform="translate(99.168 34.901)" fill="none" stroke="#30610c" stroke-width="2"/>
          </g>
          <g id="Elipse_4065" data-name="Elipse 4065">
            <circle id="Elipse_6058" data-name="Elipse 6058" cx="13.5" cy="13.5" r="13.5" transform="translate(472.667 62)" fill="none" stroke="#30610c" stroke-miterlimit="10" stroke-width="1"/>
            <circle id="Elipse_6059" data-name="Elipse 6059" cx="12.5" cy="12.5" r="12.5" transform="translate(473.667 63)" fill="none" stroke="#30610c" stroke-width="2"/>
          </g>
          <g id="Elipse_4063-5" data-name="Elipse 4063" transform="translate(-27 23)">
            <circle id="Elipse_6060" data-name="Elipse 6060" cx="5.938" cy="5.938" r="5.938" transform="translate(189.947 121.112)" fill="none" stroke="#e5f2db" stroke-miterlimit="10" stroke-width="1"/>
            <circle id="Elipse_6061" data-name="Elipse 6061" cx="5.024" cy="5.024" r="5.024" transform="translate(190.86 122.026)" fill="none" stroke="#e5f2db" stroke-width="2"/>
          </g>
        </g>
        <g id="Grupo_128264" data-name="Grupo 128264" transform="translate(2924.823 -9958.346)">
          <circle id="Elipse_6062" data-name="Elipse 6062" cx="15.173" cy="15.173" r="15.173" transform="matrix(0.787, -0.617, 0.617, 0.787, 471.825, 187.732)" fill="url(#radial-gradient-5)" style="mix-blend-mode: color-burn;isolation: isolate"/>
          <path id="Trazado_190864" data-name="Trazado 190864" d="M508.814,188.511a11.088,11.088,0,1,1-11.088-11.088A11.089,11.089,0,0,1,508.814,188.511Z" transform="translate(-4.539 -2.579)" fill="url(#linear-gradient-6)"/>
        </g>
        <g id="Grupo_128265" data-name="Grupo 128265" transform="translate(2639.402 -9439.083)">
          <circle id="Elipse_6063" data-name="Elipse 6063" cx="9.998" cy="9.998" r="9.998" transform="translate(35.008 59.534)" fill="url(#radial-gradient)" style="mix-blend-mode: color-burn;isolation: isolate"/>
          <circle id="Elipse_6064" data-name="Elipse 6064" cx="7.306" cy="7.306" r="7.306" transform="translate(37.738 59.342)" fill="url(#linear-gradient-6)"/>
        </g>
        <g id="Grupo_128266" data-name="Grupo 128266" transform="translate(2694.402 -9352.36)">
          <circle id="Elipse_6065" data-name="Elipse 6065" cx="19.109" cy="19.109" r="19.109" transform="translate(35.008 59.71)" fill="url(#radial-gradient)" style="mix-blend-mode: color-burn;isolation: isolate"/>
          <circle id="Elipse_6066" data-name="Elipse 6066" cx="13.964" cy="13.964" r="13.964" transform="translate(40.226 59.342)" fill="url(#linear-gradient-6)"/>
        </g>
        <g id="Grupo_128267" data-name="Grupo 128267" transform="translate(2738.619 -9356.267)">
          <circle id="Elipse_6067" data-name="Elipse 6067" cx="7.053" cy="7.053" r="7.053" transform="translate(35.008 59.478)" fill="url(#radial-gradient)" style="mix-blend-mode: color-burn;isolation: isolate"/>
          <circle id="Elipse_6068" data-name="Elipse 6068" cx="5.154" cy="5.154" r="5.154" transform="translate(36.934 59.342)" fill="url(#linear-gradient-6)"/>
        </g>
      </g>
    </g>
  </g>
</svg>
